<svg xmlns="http://www.w3.org/2000/svg" xmlns:xlink="http://www.w3.org/1999/xlink" width="359" height="225.554" viewBox="0 0 359 225.554">
  <defs>
    <clipPath id="clip-path">
      <rect id="Rectángulo_403484" data-name="Rectángulo 403484" width="7.813" height="7.679" fill="none"/>
    </clipPath>
    <clipPath id="clip-path-2">
      <rect id="Rectángulo_403485" data-name="Rectángulo 403485" width="31.598" height="11.852" fill="none"/>
    </clipPath>
    <clipPath id="clip-path-5">
      <rect id="Rectángulo_403491" data-name="Rectángulo 403491" width="6.872" height="6.756" fill="none"/>
    </clipPath>
    <clipPath id="clip-path-6">
      <rect id="Rectángulo_403492" data-name="Rectángulo 403492" width="6.873" height="6.756" fill="none"/>
    </clipPath>
    <clipPath id="clip-path-7">
      <rect id="Rectángulo_403493" data-name="Rectángulo 403493" width="6.872" height="6.755" fill="none"/>
    </clipPath>
    <clipPath id="clip-path-8">
      <rect id="Rectángulo_403494" data-name="Rectángulo 403494" width="6.874" height="6.755" fill="none"/>
    </clipPath>
    <clipPath id="clip-path-9">
      <rect id="Rectángulo_403495" data-name="Rectángulo 403495" width="6.874" height="6.756" fill="none"/>
    </clipPath>
    <clipPath id="clip-path-10">
      <rect id="Rectángulo_403496" data-name="Rectángulo 403496" width="5.819" height="5.796" fill="none"/>
    </clipPath>
    <clipPath id="clip-path-11">
      <rect id="Rectángulo_403497" data-name="Rectángulo 403497" width="12.559" height="0.744" fill="none"/>
    </clipPath>
    <clipPath id="clip-path-12">
      <rect id="Rectángulo_403498" data-name="Rectángulo 403498" width="53.065" height="17.344" fill="none"/>
    </clipPath>
    <clipPath id="clip-path-13">
      <rect id="Rectángulo_403499" data-name="Rectángulo 403499" width="24.246" height="9.948" fill="none"/>
    </clipPath>
    <clipPath id="clip-path-14">
      <rect id="Rectángulo_403500" data-name="Rectángulo 403500" width="11.678" height="4.88" fill="none"/>
    </clipPath>
    <clipPath id="clip-path-15">
      <rect id="Rectángulo_403501" data-name="Rectángulo 403501" width="7.885" height="12.376" fill="none"/>
    </clipPath>
    <clipPath id="clip-path-16">
      <rect id="Rectángulo_403502" data-name="Rectángulo 403502" width="5.009" height="13.864" fill="none"/>
    </clipPath>
    <clipPath id="clip-path-17">
      <rect id="Rectángulo_403503" data-name="Rectángulo 403503" width="16.63" height="10.206" fill="none"/>
    </clipPath>
    <clipPath id="clip-path-18">
      <rect id="Rectángulo_403506" data-name="Rectángulo 403506" width="9.578" height="4.88" fill="none"/>
    </clipPath>
    <clipPath id="clip-path-19">
      <rect id="Rectángulo_403507" data-name="Rectángulo 403507" width="23.64" height="7.297" fill="none"/>
    </clipPath>
    <clipPath id="clip-path-20">
      <rect id="Rectángulo_403508" data-name="Rectángulo 403508" width="22.34" height="5.305" fill="none"/>
    </clipPath>
  </defs>
  <g id="Grupo_1102490" data-name="Grupo 1102490" transform="translate(-1020 -3754.855)">
    <g id="Grupo_1102319" data-name="Grupo 1102319" transform="translate(1060.879 3783.264)">
      <g id="Grupo_1101934" data-name="Grupo 1101934">
        <path id="Trazado_878089" data-name="Trazado 878089" d="M112.761,187.016c47.077,9.416,88.329-1.261,111.042-20.19,9.357-7.8,18.823-19.769,22.293-33.649,12.618-50.475-24.568-92.265-53.418-76.552-47.109,25.657-54.122,7.424-92.536-31.546C71.12-4.364-20.995,36.856,26.956,123.5c19.494,35.227,52.156,56.783,85.805,63.513" transform="translate(5.686 6.65)" fill="#ffe69c"/>
        <path id="Trazado_878090" data-name="Trazado 878090" d="M52.289,2.226a.677.677,0,0,0,.083-.06c.487-.4,5.988-4.685,14.072.03,8.472,4.943,13.978,3.31,19.064,2.463,8.8-1.467,12.118.458,16,4.024a15.036,15.036,0,0,0,4.98,2.815.79.79,0,0,1-.265,1.534h-66.4a.79.79,0,0,1-.6-1.3c1.149-1.354,4.384-4.078,13.067-9.5" transform="translate(16.601 0)" fill="#ffe69c"/>
        <path id="Trazado_878091" data-name="Trazado 878091" d="M119.069,26.786a.5.5,0,0,0,.056-.04c.326-.269,4.005-3.134,9.411.02,5.668,3.307,9.35,2.214,12.752,1.648,5.888-.981,8.106.306,10.7,2.691a10.047,10.047,0,0,0,3.331,1.883.529.529,0,0,1-.178,1.026H110.73a.528.528,0,0,1-.4-.872c.768-.905,2.932-2.728,8.74-6.355" transform="translate(46.87 10.759)" fill="#ffe69c"/>
      </g>
    </g>
    <g id="Grupo_1102320" data-name="Grupo 1102320" transform="translate(1020 3754.855)">
      <g id="Grupo_1102299" data-name="Grupo 1102299">
        <g id="Grupo_1102308" data-name="Grupo 1102308">
          <rect id="Rectángulo_403481" data-name="Rectángulo 403481" width="131.195" height="113.682" transform="translate(0 77.76)" fill="#b8d4f8"/>
          <rect id="Rectángulo_403482" data-name="Rectángulo 403482" width="118.21" height="100.793" transform="translate(6.492 84.195)" fill="#fff"/>
          <rect id="Rectángulo_403483" data-name="Rectángulo 403483" width="131.122" height="13.013" transform="translate(0.07 64.775)" fill="#1f3b5f"/>
          <g id="Grupo_1102309" data-name="Grupo 1102309">
            <path id="Trazado_878839" data-name="Trazado 878839" d="M42.885,595.135a2.193,2.193,0,1,1-2.19-2.082,2.138,2.138,0,0,1,2.19,2.082" transform="translate(-34.052 -524.46)" fill="#4e93ee"/>
            <path id="Trazado_878840" data-name="Trazado 878840" d="M98.106,595.135a2.193,2.193,0,1,1-2.19-2.082,2.138,2.138,0,0,1,2.19,2.082" transform="translate(-82.886 -524.46)" fill="#4e93ee"/>
            <path id="Trazado_878841" data-name="Trazado 878841" d="M153.326,595.135a2.193,2.193,0,1,1-2.19-2.082,2.138,2.138,0,0,1,2.19,2.082" transform="translate(-131.72 -524.46)" fill="#4e93ee"/>
          </g>
          <path id="Trazado_878842" data-name="Trazado 878842" d="M256.251,947.251V941.08a2.263,2.263,0,0,0-2.074-2.413H232.514a2.263,2.263,0,0,0-2.074,2.413v61.994h68.254V954.2c0-2.448-1.705-4.432-3.808-4.432H258.417a2.364,2.364,0,0,1-2.166-2.521" transform="translate(-203.788 -830.101)" fill="#4e93ee"/>
          <path id="Trazado_878843" data-name="Trazado 878843" d="M298.8,1102.905H230.566l2.05-51.351h68.236Z" transform="translate(-203.899 -929.932)" fill="#d3dcef"/>
          <path id="Trazado_878844" data-name="Trazado 878844" d="M298.8,1115.221H230.566l4.088-49.74h68.236Z" transform="translate(-203.899 -942.249)" fill="#eef2fa"/>
          <path id="Trazado_878845" data-name="Trazado 878845" d="M298.8,1128.657H230.566l5.992-47.983h68.236Z" transform="translate(-203.899 -955.684)" fill="#d3dcef"/>
          <path id="Trazado_878846" data-name="Trazado 878846" d="M298.8,1135.691H230.566l7.654-47.063h68.236Z" transform="translate(-203.899 -962.718)" fill="#f4f6fc"/>
          <path id="Trazado_878847" data-name="Trazado 878847" d="M230.244,1138.925H298.5l9.585-42.4c.484-2.142-.9-4.237-2.807-4.237H243.025a3.017,3.017,0,0,0-2.807,2.519Z" transform="translate(-203.614 -965.952)" fill="#829cf8"/>
          <g id="Grupo_1102311" data-name="Grupo 1102311">
            <path id="Trazado_878848" data-name="Trazado 878848" d="M423.943,839.669l-.012,21.2-.005,9.732a2.121,2.121,0,0,1-2.123,2.12l-27.35-.015a2.122,2.122,0,0,1-2.12-2.123l.005-9.714.015-26.908a2.122,2.122,0,0,1,2.123-2.12l21.515.012.142.14Z" transform="translate(-346.956 -735.628)" fill="#edf4fe"/>
            <g id="Grupo_1102230" data-name="Grupo 1102230" transform="translate(69.174 96.362)" opacity="0.1">
              <g id="Grupo_1102229" data-name="Grupo 1102229">
                <g id="Grupo_1102228" data-name="Grupo 1102228" clip-path="url(#clip-path)">
                  <path id="Trazado_878849" data-name="Trazado 878849" d="M605.9,840.83l-6.087,0a1.727,1.727,0,0,1-1.726-1.728l0-5.948Z" transform="translate(-598.083 -833.151)"/>
                </g>
              </g>
            </g>
            <g id="Grupo_1102310" data-name="Grupo 1102310">
              <path id="Trazado_878850" data-name="Trazado 878850" d="M441.186,939.919l-24.414-.014a.879.879,0,1,1,0-1.757l24.414.014a.879.879,0,1,1,0,1.757" transform="translate(-367.792 -829.642)" fill="#b8d4f8"/>
              <path id="Trazado_878851" data-name="Trazado 878851" d="M441.489,978.063l-24.414-.014a.879.879,0,0,1,0-1.757l24.414.014a.879.879,0,1,1,0,1.757" transform="translate(-368.061 -863.375)" fill="#b8d4f8"/>
              <path id="Trazado_878852" data-name="Trazado 878852" d="M440.82,1015.506l-24.414-.014a.879.879,0,1,1,0-1.757l24.414.014a.879.879,0,1,1,0,1.757" transform="translate(-367.469 -896.487)" fill="#b8d4f8"/>
              <path id="Trazado_878853" data-name="Trazado 878853" d="M441.123,1053.65l-24.414-.014a.879.879,0,0,1,0-1.757l24.414.014a.879.879,0,0,1,0,1.757" transform="translate(-367.736 -930.219)" fill="#b8d4f8"/>
            </g>
          </g>
          <path id="Trazado_878854" data-name="Trazado 878854" d="M441.425,1091.794l-24.414-.014a.879.879,0,0,1,0-1.757l24.414.014a.879.879,0,1,1,0,1.757" transform="translate(-368.003 -963.951)" fill="#eef2fe"/>
          <g id="Grupo_1102233" data-name="Grupo 1102233" transform="translate(45.377 125.238)" opacity="0.1">
            <g id="Grupo_1102232" data-name="Grupo 1102232">
              <g id="Grupo_1102231" data-name="Grupo 1102231" clip-path="url(#clip-path-2)">
                <path id="Trazado_878855" data-name="Trazado 878855" d="M423.93,1082.817l-.005,9.731a2.121,2.121,0,0,1-2.123,2.12l-27.35-.015a2.122,2.122,0,0,1-2.12-2.123l.005-9.714Z" transform="translate(-392.332 -1082.817)"/>
              </g>
            </g>
          </g>
          <path id="Trazado_878856" data-name="Trazado 878856" d="M230.244,1138.925H298.5l9.585-42.4c.484-2.142-.9-4.237-2.807-4.237H243.025a3.017,3.017,0,0,0-2.807,2.519Z" transform="translate(-203.614 -965.952)" fill="#4e93ee"/>
          <path id="Trazado_878857" data-name="Trazado 878857" d="M575.568,1249.081H574.6l1.665-10.544h.966Z" transform="translate(-508.144 -1095.289)" fill="#e3e9f7"/>
          <path id="Trazado_878858" data-name="Trazado 878858" d="M560.378,1236.734a.358.358,0,0,1-.515-.117l-2.4-4.931-3.955,4.931a.421.421,0,0,1-.552.117.361.361,0,0,1-.035-.528l4.361-5.437a.465.465,0,0,1,.354-.177.323.323,0,0,1,.3.177l2.643,5.437a.344.344,0,0,1,.028.2.465.465,0,0,1-.23.323" transform="translate(-488.887 -1088.263)" fill="#e3e9f7"/>
          <path id="Trazado_878859" data-name="Trazado 878859" d="M533.984,1308.226l-.664,4.2h-9.164l.664-4.2H523.4l-.9,5.667h12.012l.9-5.667Z" transform="translate(-462.069 -1156.917)" fill="#e3e9f7"/>
        </g>
        <g id="Grupo_1102296" data-name="Grupo 1102296">
          <g id="Grupo_1102300" data-name="Grupo 1102300">
            <g id="Grupo_1102307" data-name="Grupo 1102307">
              <rect id="Rectángulo_403486" data-name="Rectángulo 403486" width="131.195" height="113.682" transform="translate(227.805 77.76)" fill="#b8d4f8"/>
              <rect id="Rectángulo_403487" data-name="Rectángulo 403487" width="118.21" height="100.793" transform="translate(234.297 84.195)" fill="#fff"/>
              <rect id="Rectángulo_403488" data-name="Rectángulo 403488" width="131.122" height="13.013" transform="translate(227.875 64.775)" fill="#1f3b5f"/>
              <g id="Grupo_1102314" data-name="Grupo 1102314">
                <path id="Trazado_878860" data-name="Trazado 878860" d="M2012.5,595.135a2.193,2.193,0,1,1-2.19-2.082,2.138,2.138,0,0,1,2.19,2.082" transform="translate(-1775.86 -524.46)" fill="#4e93ee"/>
                <path id="Trazado_878861" data-name="Trazado 878861" d="M2067.718,595.135a2.193,2.193,0,1,1-2.19-2.082,2.138,2.138,0,0,1,2.19,2.082" transform="translate(-1824.693 -524.46)" fill="#4e93ee"/>
                <path id="Trazado_878862" data-name="Trazado 878862" d="M2122.939,595.135a2.192,2.192,0,1,1-2.19-2.082,2.138,2.138,0,0,1,2.19,2.082" transform="translate(-1873.528 -524.46)" fill="#4e93ee"/>
              </g>
              <path id="Trazado_878863" data-name="Trazado 878863" d="M2325.813,947.25v-6.171a2.263,2.263,0,0,1,2.074-2.413h21.664a2.263,2.263,0,0,1,2.074,2.413v61.994H2283.37V954.2c0-2.448,1.705-4.432,3.809-4.432h36.468a2.364,2.364,0,0,0,2.166-2.521" transform="translate(-2019.276 -830.1)" fill="#4e93ee"/>
              <path id="Trazado_878864" data-name="Trazado 878864" d="M2267.721,1102.9h68.236l-2.05-51.351h-68.236Z" transform="translate(-2003.625 -929.931)" fill="#d3dcef"/>
              <path id="Trazado_878865" data-name="Trazado 878865" d="M2252.14,1115.22h68.236l-4.088-49.74h-68.236Z" transform="translate(-1988.043 -942.248)" fill="#eef2fa"/>
              <path id="Trazado_878866" data-name="Trazado 878866" d="M2237.584,1128.656h68.236l-5.992-47.983h-68.236Z" transform="translate(-1973.487 -955.683)" fill="#d3dcef"/>
              <path id="Trazado_878867" data-name="Trazado 878867" d="M2224.876,1135.69h68.236l-7.654-47.063h-68.236Z" transform="translate(-1960.78 -962.717)" fill="#f4f6fc"/>
              <path id="Trazado_878868" data-name="Trazado 878868" d="M2277.792,1138.924h-68.254l-9.585-42.4c-.484-2.142.9-4.237,2.807-4.237h62.251a3.016,3.016,0,0,1,2.807,2.519Z" transform="translate(-1945.422 -965.951)" fill="#829cf8"/>
              <g id="Grupo_1102313" data-name="Grupo 1102313">
                <path id="Trazado_878869" data-name="Trazado 878869" d="M2469.912,839.669l-.018,30.929a2.121,2.121,0,0,1-2.123,2.12l-27.35-.015a2.121,2.121,0,0,1-2.12-2.123l.021-36.622a2.121,2.121,0,0,1,2.123-2.12l21.515.012.142.14Z" transform="translate(-2156.289 -735.628)" fill="#edf4fe"/>
                <g id="Grupo_1102236" data-name="Grupo 1102236" transform="translate(305.81 96.362)" opacity="0.1">
                  <g id="Grupo_1102235" data-name="Grupo 1102235">
                    <g id="Grupo_1102234" data-name="Grupo 1102234" clip-path="url(#clip-path)">
                      <path id="Trazado_878870" data-name="Trazado 878870" d="M2651.863,840.829l-6.087,0a1.727,1.727,0,0,1-1.726-1.728l0-5.948Z" transform="translate(-2644.05 -833.15)"/>
                    </g>
                  </g>
                </g>
                <g id="Grupo_1102312" data-name="Grupo 1102312">
                  <path id="Trazado_878871" data-name="Trazado 878871" d="M2487.155,939.918l-24.414-.014a.879.879,0,0,1,0-1.757l24.414.014a.879.879,0,1,1,0,1.757" transform="translate(-2177.125 -829.641)" fill="#b8d4f8"/>
                  <path id="Trazado_878872" data-name="Trazado 878872" d="M2487.456,978.062l-24.414-.014a.879.879,0,0,1,0-1.757l24.414.014a.879.879,0,1,1,0,1.757" transform="translate(-2177.392 -863.374)" fill="#b8d4f8"/>
                  <path id="Trazado_878873" data-name="Trazado 878873" d="M2486.789,1015.5l-24.414-.014a.879.879,0,0,1,0-1.757l24.414.014a.879.879,0,0,1,0,1.757" transform="translate(-2176.802 -896.486)" fill="#b8d4f8"/>
                  <path id="Trazado_878874" data-name="Trazado 878874" d="M2487.091,1053.649l-24.414-.014a.879.879,0,0,1,0-1.757l24.414.014a.879.879,0,0,1,0,1.757" transform="translate(-2177.068 -930.218)" fill="#b8d4f8"/>
                </g>
              </g>
              <path id="Trazado_878875" data-name="Trazado 878875" d="M2487.393,1091.793l-24.414-.014a.879.879,0,0,1,0-1.757l24.414.014a.879.879,0,0,1,0,1.757" transform="translate(-2177.336 -963.951)" fill="#eef2fe"/>
              <g id="Grupo_1102239" data-name="Grupo 1102239" transform="translate(282.013 125.238)" opacity="0.1">
                <g id="Grupo_1102238" data-name="Grupo 1102238">
                  <g id="Grupo_1102237" data-name="Grupo 1102237" clip-path="url(#clip-path-2)">
                    <path id="Trazado_878876" data-name="Trazado 878876" d="M2469.9,1082.817l-.005,9.731a2.121,2.121,0,0,1-2.123,2.12l-27.35-.015a2.122,2.122,0,0,1-2.12-2.123l.005-9.714Z" transform="translate(-2438.302 -1082.817)"/>
                  </g>
                </g>
              </g>
              <path id="Trazado_878877" data-name="Trazado 878877" d="M2277.792,1138.924h-68.254l-9.585-42.4c-.484-2.142.9-4.237,2.807-4.237h62.251a3.016,3.016,0,0,1,2.807,2.519Z" transform="translate(-1945.422 -965.951)" fill="#4e93ee"/>
              <path id="Trazado_878878" data-name="Trazado 878878" d="M2502.3,1258.121h-.966l1.665,10.544h.966Z" transform="translate(-2212.031 -1112.607)" fill="#e3e9f7"/>
              <path id="Trazado_878879" data-name="Trazado 878879" d="M2487.111,1303.671a.359.359,0,0,0-.516.117l-2.4,4.931-3.955-4.931a.421.421,0,0,0-.552-.117.361.361,0,0,0-.035.528l4.361,5.437a.466.466,0,0,0,.354.177.323.323,0,0,0,.3-.177l2.643-5.437a.343.343,0,0,0,.028-.2.466.466,0,0,0-.229-.323" transform="translate(-2192.775 -1152.835)" fill="#e3e9f7"/>
              <path id="Trazado_878880" data-name="Trazado 878880" d="M2460.717,1236.26l-.664-4.2h-9.163l.664,4.2h-1.424l-.9-5.668h12.012l.9,5.668Z" transform="translate(-2165.957 -1088.262)" fill="#e3e9f7"/>
            </g>
            <g id="Grupo_1102306" data-name="Grupo 1102306">
              <path id="Trazado_878881" data-name="Trazado 878881" d="M2238.038,489.838l-.015,27.208a1.866,1.866,0,0,1-1.867,1.865L2212.1,518.9a1.866,1.866,0,0,1-1.865-1.867l.018-32.216a1.866,1.866,0,0,1,1.867-1.865l18.927.01.125.123Z" transform="translate(-1954.597 -427.092)" fill="#edf4fe"/>
              <g id="Grupo_1102242" data-name="Grupo 1102242" transform="translate(276.568 55.991)" opacity="0.1">
                <g id="Grupo_1102241" data-name="Grupo 1102241">
                  <g id="Grupo_1102240" data-name="Grupo 1102240" clip-path="url(#clip-path-5)">
                    <path id="Trazado_878882" data-name="Trazado 878882" d="M2398.1,490.858l-5.355,0a1.519,1.519,0,0,1-1.518-1.52l0-5.232Z" transform="translate(-2391.228 -484.103)"/>
                  </g>
                </g>
              </g>
              <g id="Grupo_1102315" data-name="Grupo 1102315">
                <path id="Trazado_878883" data-name="Trazado 878883" d="M2253.208,578.027l-21.477-.012a.773.773,0,1,1,0-1.546l21.477.012a.773.773,0,0,1,0,1.546" transform="translate(-1972.927 -509.794)" fill="#b8d4f8"/>
                <path id="Trazado_878884" data-name="Trazado 878884" d="M2253.472,611.583,2232,611.571a.773.773,0,0,1,0-1.546l21.477.012a.773.773,0,1,1,0,1.546" transform="translate(-1973.161 -539.47)" fill="#b8d4f8"/>
                <path id="Trazado_878885" data-name="Trazado 878885" d="M2252.885,644.521l-21.477-.012a.773.773,0,0,1,0-1.546l21.477.012a.773.773,0,0,1,0,1.546" transform="translate(-1972.642 -568.598)" fill="#b8d4f8"/>
                <path id="Trazado_878886" data-name="Trazado 878886" d="M2253.15,678.076l-21.477-.012a.773.773,0,0,1,0-1.546l21.477.012a.773.773,0,1,1,0,1.546" transform="translate(-1972.876 -598.272)" fill="#b8d4f8"/>
                <path id="Trazado_878887" data-name="Trazado 878887" d="M2253.417,711.631l-21.477-.012a.773.773,0,0,1,0-1.546l21.477.012a.773.773,0,0,1,0,1.546" transform="translate(-1973.111 -627.947)" fill="#b8d4f8"/>
              </g>
            </g>
            <g id="Grupo_1102303" data-name="Grupo 1102303">
              <path id="Trazado_878888" data-name="Trazado 878888" d="M717.09,489.838l-.015,27.208a1.866,1.866,0,0,1-1.867,1.865l-24.059-.014a1.866,1.866,0,0,1-1.865-1.867l.018-32.216a1.866,1.866,0,0,1,1.867-1.865l18.927.01.125.123Z" transform="translate(-609.561 -427.092)" fill="#edf4fe"/>
              <g id="Grupo_1102245" data-name="Grupo 1102245" transform="translate(100.656 55.991)" opacity="0.1">
                <g id="Grupo_1102244" data-name="Grupo 1102244">
                  <g id="Grupo_1102243" data-name="Grupo 1102243" clip-path="url(#clip-path-6)">
                    <path id="Trazado_878889" data-name="Trazado 878889" d="M877.153,490.858l-5.355,0a1.519,1.519,0,0,1-1.518-1.52l0-5.232Z" transform="translate(-870.28 -484.103)"/>
                  </g>
                </g>
              </g>
              <g id="Grupo_1102301" data-name="Grupo 1102301">
                <path id="Trazado_878890" data-name="Trazado 878890" d="M732.258,578.027l-21.477-.012a.773.773,0,1,1,0-1.546l21.477.012a.773.773,0,0,1,0,1.546" transform="translate(-627.89 -509.794)" fill="#b8d4f8"/>
                <path id="Trazado_878891" data-name="Trazado 878891" d="M732.524,611.583l-21.477-.012a.773.773,0,0,1,0-1.546l21.477.012a.773.773,0,0,1,0,1.546" transform="translate(-628.125 -539.47)" fill="#b8d4f8"/>
                <path id="Trazado_878892" data-name="Trazado 878892" d="M731.937,644.521l-21.477-.012a.773.773,0,0,1,0-1.546l21.477.012a.773.773,0,1,1,0,1.546" transform="translate(-627.606 -568.598)" fill="#b8d4f8"/>
                <path id="Trazado_878893" data-name="Trazado 878893" d="M732.2,678.076l-21.477-.012a.773.773,0,0,1,0-1.546l21.477.012a.773.773,0,0,1,0,1.546" transform="translate(-627.84 -598.272)" fill="#b8d4f8"/>
                <path id="Trazado_878894" data-name="Trazado 878894" d="M732.468,711.631l-21.477-.012a.773.773,0,0,1,0-1.546l21.477.012a.773.773,0,0,1,0,1.546" transform="translate(-628.076 -627.947)" fill="#b8d4f8"/>
              </g>
            </g>
            <g id="Grupo_1102302" data-name="Grupo 1102302">
              <path id="Trazado_878895" data-name="Trazado 878895" d="M1046.786,188.305l-.015,27.208a1.866,1.866,0,0,1-1.867,1.865l-24.059-.014a1.866,1.866,0,0,1-1.865-1.867l.018-32.216a1.866,1.866,0,0,1,1.867-1.865l18.927.011.125.123Z" transform="translate(-901.125 -160.434)" fill="#edf4fe"/>
              <g id="Grupo_1102248" data-name="Grupo 1102248" transform="translate(138.789 21.116)" opacity="0.1">
                <g id="Grupo_1102247" data-name="Grupo 1102247">
                  <g id="Grupo_1102246" data-name="Grupo 1102246" clip-path="url(#clip-path-7)">
                    <path id="Trazado_878896" data-name="Trazado 878896" d="M1206.849,189.325l-5.355,0a1.519,1.519,0,0,1-1.518-1.52l0-5.232Z" transform="translate(-1199.976 -182.57)"/>
                  </g>
                </g>
              </g>
              <g id="Grupo_1102318" data-name="Grupo 1102318">
                <path id="Trazado_878897" data-name="Trazado 878897" d="M1061.954,276.494l-21.477-.012a.773.773,0,1,1,0-1.546l21.477.012a.773.773,0,0,1,0,1.546" transform="translate(-919.453 -243.137)" fill="#b8d4f8"/>
                <path id="Trazado_878898" data-name="Trazado 878898" d="M1062.22,310.049l-21.477-.012a.773.773,0,0,1,0-1.546l21.477.012a.773.773,0,0,1,0,1.546" transform="translate(-919.688 -272.811)" fill="#b8d4f8"/>
                <path id="Trazado_878899" data-name="Trazado 878899" d="M1061.632,342.987l-21.477-.012a.773.773,0,0,1,0-1.546l21.477.012a.773.773,0,0,1,0,1.546" transform="translate(-919.169 -301.939)" fill="#b8d4f8"/>
                <path id="Trazado_878900" data-name="Trazado 878900" d="M1061.9,376.543l-21.477-.012a.773.773,0,0,1,0-1.546L1061.9,375a.773.773,0,1,1,0,1.546" transform="translate(-919.404 -331.614)" fill="#b8d4f8"/>
                <path id="Trazado_878901" data-name="Trazado 878901" d="M1062.164,410.1l-21.477-.012a.773.773,0,0,1,0-1.546l21.477.012a.773.773,0,0,1,0,1.546" transform="translate(-919.64 -361.289)" fill="#b8d4f8"/>
              </g>
            </g>
            <g id="Grupo_1102305" data-name="Grupo 1102305">
              <path id="Trazado_878902" data-name="Trazado 878902" d="M1908.343,188.305l-.016,27.208a1.866,1.866,0,0,1-1.867,1.865l-24.059-.014a1.866,1.866,0,0,1-1.865-1.867l.018-32.216a1.866,1.866,0,0,1,1.867-1.865l18.927.011.125.123Z" transform="translate(-1663.034 -160.434)" fill="#edf4fe"/>
              <g id="Grupo_1102251" data-name="Grupo 1102251" transform="translate(238.436 21.116)" opacity="0.1">
                <g id="Grupo_1102250" data-name="Grupo 1102250">
                  <g id="Grupo_1102249" data-name="Grupo 1102249" clip-path="url(#clip-path-8)">
                    <path id="Trazado_878903" data-name="Trazado 878903" d="M2068.405,189.325l-5.355,0a1.519,1.519,0,0,1-1.518-1.52l0-5.232Z" transform="translate(-2061.532 -182.57)"/>
                  </g>
                </g>
              </g>
              <g id="Grupo_1102316" data-name="Grupo 1102316">
                <path id="Trazado_878904" data-name="Trazado 878904" d="M1923.511,276.494l-21.477-.012a.773.773,0,0,1,0-1.546l21.477.012a.773.773,0,0,1,0,1.546" transform="translate(-1681.363 -243.137)" fill="#b8d4f8"/>
                <path id="Trazado_878905" data-name="Trazado 878905" d="M1923.776,310.049l-21.477-.012a.773.773,0,0,1,0-1.546l21.477.012a.773.773,0,0,1,0,1.546" transform="translate(-1681.598 -272.811)" fill="#b8d4f8"/>
                <path id="Trazado_878906" data-name="Trazado 878906" d="M1923.189,342.987l-21.477-.012a.773.773,0,0,1,0-1.546l21.477.012a.773.773,0,0,1,0,1.546" transform="translate(-1681.078 -301.939)" fill="#b8d4f8"/>
                <path id="Trazado_878907" data-name="Trazado 878907" d="M1923.456,376.543l-21.477-.012a.773.773,0,0,1,0-1.546l21.477.012a.773.773,0,0,1,0,1.546" transform="translate(-1681.313 -331.614)" fill="#b8d4f8"/>
                <path id="Trazado_878908" data-name="Trazado 878908" d="M1923.72,410.1l-21.477-.012a.773.773,0,0,1,0-1.546l21.477.012a.773.773,0,0,1,0,1.546" transform="translate(-1681.548 -361.289)" fill="#b8d4f8"/>
              </g>
            </g>
            <g id="Grupo_1102304" data-name="Grupo 1102304">
              <path id="Trazado_878909" data-name="Trazado 878909" d="M1477.564,6.888l-.015,27.208a1.866,1.866,0,0,1-1.867,1.865l-24.059-.014a1.866,1.866,0,0,1-1.865-1.867l.018-32.216A1.866,1.866,0,0,1,1451.642,0l18.927.011.125.123Z" transform="translate(-1282.079)" fill="#edf4fe"/>
              <g id="Grupo_1102254" data-name="Grupo 1102254" transform="translate(188.612 0.133)" opacity="0.1">
                <g id="Grupo_1102253" data-name="Grupo 1102253">
                  <g id="Grupo_1102252" data-name="Grupo 1102252" clip-path="url(#clip-path-9)">
                    <path id="Trazado_878910" data-name="Trazado 878910" d="M1637.627,7.908l-5.355,0a1.519,1.519,0,0,1-1.518-1.52l0-5.232Z" transform="translate(-1630.753 -1.153)"/>
                  </g>
                </g>
              </g>
              <g id="Grupo_1102317" data-name="Grupo 1102317">
                <path id="Trazado_878911" data-name="Trazado 878911" d="M1492.733,95.077l-21.477-.012a.773.773,0,0,1,0-1.546l21.477.012a.773.773,0,0,1,0,1.546" transform="translate(-1300.408 -82.703)" fill="#b8d4f8"/>
                <path id="Trazado_878912" data-name="Trazado 878912" d="M1493,128.633l-21.477-.012a.773.773,0,0,1-.772-.773h0a.773.773,0,0,1,.773-.772l21.477.012a.773.773,0,0,1,0,1.546" transform="translate(-1300.644 -112.377)" fill="#b8d4f8"/>
                <path id="Trazado_878913" data-name="Trazado 878913" d="M1492.411,161.571l-21.477-.012a.773.773,0,0,1,0-1.546l21.477.012a.773.773,0,0,1,0,1.546" transform="translate(-1300.124 -141.506)" fill="#b8d4f8"/>
                <path id="Trazado_878914" data-name="Trazado 878914" d="M1492.677,195.126l-21.477-.012a.773.773,0,0,1,0-1.546l21.477.012a.773.773,0,0,1,0,1.546" transform="translate(-1300.358 -171.18)" fill="#b8d4f8"/>
                <path id="Trazado_878915" data-name="Trazado 878915" d="M1492.942,228.682l-21.477-.012a.773.773,0,1,1,0-1.546l21.477.012a.773.773,0,0,1,0,1.546" transform="translate(-1300.594 -200.855)" fill="#b8d4f8"/>
              </g>
            </g>
            <g id="Grupo_1102257" data-name="Grupo 1102257" transform="translate(187.829 218.363)" opacity="0.67">
              <g id="Grupo_1102256" data-name="Grupo 1102256">
                <g id="Grupo_1102255" data-name="Grupo 1102255" clip-path="url(#clip-path-10)">
                  <path id="Trazado_878916" data-name="Trazado 878916" d="M1626.888,1887.984l2.909,1.253-.849,4.543-4.97-1.723Z" transform="translate(-1623.979 -1887.984)" fill="#050505"/>
                </g>
              </g>
            </g>
            <path id="Trazado_878917" data-name="Trazado 878917" d="M1226.23,1800.23s-7.759-1.018-9.456,3.6c0,0-.121,11.514,4.728,12.3,0,0,4.122.47,6.789-1.567l15.517-1.958,10.547-.783Z" transform="translate(-1076.042 -1591.932)" fill="#040c2b"/>
            <path id="Trazado_878918" data-name="Trazado 878918" d="M1701.542,1806.53s4.072,7.25,1.662,10.131c-.373.446.147.987.932.986l16.378-.034s9.335,1.88,11.153-6.031c0,0,1.091-8.381-10.789-9.791s-.121-.47-.121-.47-13.82,1.1-19.215,5.209" transform="translate(-1504.742 -1592.709)" fill="#040c2b"/>
            <path id="Trazado_878919" data-name="Trazado 878919" d="M1618.116,1851.752l-.045.464-.925,9.563-17.275-1.684,5.686-8.236.073-.106c12.487.313,12.487,0,12.487,0" transform="translate(-1414.83 -1637.579)" fill="#de995f"/>
            <g id="Grupo_1102260" data-name="Grupo 1102260" transform="translate(190.726 214.173)" opacity="0.38">
              <g id="Grupo_1102259" data-name="Grupo 1102259">
                <g id="Grupo_1102258" data-name="Grupo 1102258" clip-path="url(#clip-path-11)">
                  <path id="Trazado_878920" data-name="Trazado 878920" d="M1661.588,1851.752l-.045.464-9.108.281-3.406-.638.073-.106c12.486.313,12.486,0,12.486,0" transform="translate(-1649.029 -1851.752)" fill="#050505"/>
                </g>
              </g>
            </g>
            <path id="Trazado_878921" data-name="Trazado 878921" d="M1217.232,1622.336l-20.117,4.326-26.394,5.676-20.965-5.4-33.1-8.53c-1.513-12.583,22.308-5.337,22.308-5.337l15.509,1.925h0l9.1,1.129,20.609,3.133,6.547-2.868,7.759-3.4c20.912-2,18.749,9.345,18.749,9.345" transform="translate(-987.439 -1424.666)" fill="#081956"/>
            <g id="Grupo_1102263" data-name="Grupo 1102263" transform="translate(156.612 190.328)" opacity="0.3">
              <g id="Grupo_1102262" data-name="Grupo 1102262">
                <g id="Grupo_1102261" data-name="Grupo 1102261" clip-path="url(#clip-path-12)">
                  <path id="Trazado_878922" data-name="Trazado 878922" d="M1407.146,1657.255l-26.394,5.676-20.965-5.4-5.7-3.763,10.417-8.179h0l9.1,1.13,20.609,3.133,6.546-2.867Z" transform="translate(-1354.082 -1645.587)"/>
                </g>
              </g>
            </g>
            <path id="Trazado_878923" data-name="Trazado 878923" d="M1329.975,1667.238l28.489-8.224s20.366-8.381,23.882-7.911c0,0,25.215-14.334,23.518,3.212,0,0,2.909,13.786-42.066,15.9Z" transform="translate(-1176.151 -1455.258)" fill="#081956"/>
            <g id="Grupo_1102266" data-name="Grupo 1102266" transform="translate(173.403 205.283)" opacity="0.13">
              <g id="Grupo_1102265" data-name="Grupo 1102265">
                <g id="Grupo_1102264" data-name="Grupo 1102264" clip-path="url(#clip-path-13)">
                  <path id="Trazado_878924" data-name="Trazado 878924" d="M1499.25,1775.9l3.152-1.018c2.385,1.76,6.868,3.224,9.819,4.7a60.575,60.575,0,0,0,11.274,4.23l-7.637,1.018Z" transform="translate(-1499.25 -1774.885)"/>
                </g>
              </g>
            </g>
            <path id="Trazado_878925" data-name="Trazado 878925" d="M1183.091,1643.833s-8.3,7.324-2.728,9.752c0,0-32.227-4-58.006-19.945a9.4,9.4,0,0,1-3.991-4.445c-2.361-6.147-5.623-20.129,19.809-8.2,0,0,19.756,7.429,26.266,13.821a20.724,20.724,0,0,0,4.443,3.3c4.075,2.272,10.984,5.82,14.205,5.713" transform="translate(-987.625 -1429.386)" fill="#081956"/>
            <path id="Trazado_878926" data-name="Trazado 878926" d="M1495.589,1151.23l15.032.03,4.849,10.1s-9.456,15.823-23.033,1.723c.6-2.271,2.609-5.6,3.213-7.872.97-2.35.849-2.193-.061-3.985" transform="translate(-1319.822 -1018.079)" fill="#cc8b5b"/>
            <path id="Trazado_878927" data-name="Trazado 878927" d="M1374.458,1208.712a36.889,36.889,0,0,1-8.036,4.3,13.562,13.562,0,0,1-3.514.8,5.6,5.6,0,0,1-4.63-1.485,41.563,41.563,0,0,1-5.92-3.357c-6.12,1.869-18.536,6.046-17.461,8.908l1.228,10.883.1.888,2.032,18,1.878-.02c-.032.136-.048.207-.048.207l22.82.242,28.945.305,3.361-29.795c1.422-3.788-20.756-9.879-20.756-9.879" transform="translate(-1180.445 -1068.913)" fill="#dc1b12"/>
            <path id="Trazado_878928" data-name="Trazado 878928" d="M1364.583,1207.633v34.319l-26.418.28c.449-1.94,3.867-16.926,2.62-17.731l-6.53-.252-.1-.888-1.228-10.883c-1.075-2.863,11.341-7.039,17.461-8.908,1.975-.6,3.295-.964,3.295-.964a42.4,42.4,0,0,0,6.271,3.589,17.563,17.563,0,0,0,4.5,1.42l.132.018" transform="translate(-1178.703 -1063.513)" fill="#dc1b12"/>
            <path id="Trazado_878929" data-name="Trazado 878929" d="M1275.755,1311.732l-1.06,9.872-11.951-4.014c-2.709-.91-4.565-2.627-4.9-4.588-.3-1.745-.108-4.23,1.3-7.693l2.667-13.081s-1.273-9.047,4.91-14.138c0,0,2.243,15,6.243,17.507l.849,12.533Z" transform="translate(-1112.257 -1130.267)" fill="#dc1b12"/>
            <g id="Grupo_1102269" data-name="Grupo 1102269" transform="translate(150.79 176.234)" opacity="0.13">
              <g id="Grupo_1102268" data-name="Grupo 1102268">
                <g id="Grupo_1102267" data-name="Grupo 1102267" clip-path="url(#clip-path-14)">
                  <path id="Trazado_878930" data-name="Trazado 878930" d="M1315.418,1528.607a21.2,21.2,0,0,0-9.756-3.446s1.183-.705,4.435,0a10.512,10.512,0,0,0-6.356-1.018,10.291,10.291,0,0,1,11.678,4.465" transform="translate(-1303.74 -1523.727)"/>
                </g>
              </g>
            </g>
            <g id="Grupo_1102272" data-name="Grupo 1102272" transform="translate(152.886 152.915)" opacity="0.13">
              <g id="Grupo_1102271" data-name="Grupo 1102271">
                <g id="Grupo_1102270" data-name="Grupo 1102270" clip-path="url(#clip-path-15)">
                  <path id="Trazado_878931" data-name="Trazado 878931" d="M1329.745,1334.486s-8.122-6.736-7.88-10.183c0,0,2.182,3.055,2.788,3.6,0,0-3.031-4.151-1.818-5.8,0,0,1.692,5.214,2.967,5.31Z" transform="translate(-1321.86 -1322.11)"/>
                </g>
              </g>
            </g>
            <g id="Grupo_1102275" data-name="Grupo 1102275" transform="translate(155.822 151.387)" opacity="0.13">
              <g id="Grupo_1102274" data-name="Grupo 1102274">
                <g id="Grupo_1102273" data-name="Grupo 1102273" clip-path="url(#clip-path-16)">
                  <path id="Trazado_878932" data-name="Trazado 878932" d="M1352.257,1322.769s-6.061-13.159-4.849-13.864c0,0,.243,2.585,4.849,13.864" transform="translate(-1347.248 -1308.905)"/>
                </g>
              </g>
            </g>
            <path id="Trazado_878933" data-name="Trazado 878933" d="M1766,1307.371l1.06,9.872,11.95-4.014c2.709-.91,4.565-2.627,4.9-4.588.3-1.745.108-4.23-1.3-7.693l-2.667-13.081s1.273-9.047-4.91-14.138c0,0-2.243,15-6.243,17.507l-.849,12.533Z" transform="translate(-1561.748 -1126.41)" fill="#dc1b12"/>
            <g id="Grupo_1102278" data-name="Grupo 1102278" transform="translate(175.705 131.653)" opacity="0.13">
              <g id="Grupo_1102277" data-name="Grupo 1102277">
                <g id="Grupo_1102276" data-name="Grupo 1102276" clip-path="url(#clip-path-17)">
                  <path id="Trazado_878934" data-name="Trazado 878934" d="M1519.165,1143.529s7.195,11.495,16.629-.519l-2.931-4.729-11.941,1.5Z" transform="translate(-1519.164 -1138.281)"/>
                </g>
              </g>
            </g>
            <path id="Trazado_878935" data-name="Trazado 878935" d="M1492.437,979.686s13.82-8.381,19.4-1.018c0,0,11.517,12.924-6.425,24.517,0,0-11.638,5.718-12.971-23.5" transform="translate(-1319.822 -862.798)" fill="#de995f"/>
            <path id="Trazado_878936" data-name="Trazado 878936" d="M1484.347,943.775l-2.36-6.657c-.827-1.531-.107-6.7,0-8.323.334-5.073,9.8-9.08,17.955-7.026,0,0,7.793,1.478,6.668,16.606l-2.788,6.736s.364-12.141-3.879-12.768c0,0-9.7,2.35-16,2.193,0,0-.182,8.342.408,9.239" transform="translate(-1310.234 -814.672)"/>
            <path id="Trazado_878937" data-name="Trazado 878937" d="M1508.416,1070.939c-1.871,0-3.394-1-3.394-2.235s1.522-2.235,3.394-2.235,3.394,1,3.394,2.235-1.522,2.235-3.394,2.235m0-4.23c-1.738,0-3.153.895-3.153,1.994s1.414,1.994,3.153,1.994,3.153-.895,3.153-1.994-1.414-1.994-3.153-1.994" transform="translate(-1330.952 -943.121)"/>
            <path id="Trazado_878938" data-name="Trazado 878938" d="M1594.362,1068.23c-1.871,0-3.394-1-3.394-2.235s1.522-2.235,3.394-2.235,3.394,1,3.394,2.235-1.522,2.235-3.394,2.235m0-4.23c-1.738,0-3.153.895-3.153,1.994s1.414,1.994,3.153,1.994,3.153-.895,3.153-1.994-1.414-1.994-3.153-1.994" transform="translate(-1406.957 -940.725)"/>
            <path id="Trazado_878939" data-name="Trazado 878939" d="M1563.493,1082.89a3.219,3.219,0,0,1-1.759-.507l.143-.194a3.079,3.079,0,0,0,3.3-.008l.119.21a3.626,3.626,0,0,1-1.8.5" transform="translate(-1381.104 -957.016)"/>
            <rect id="Rectángulo_403504" data-name="Rectángulo 403504" width="0.241" height="2.038" transform="matrix(0.596, -0.803, 0.803, 0.596, 172.482, 124.465)"/>
            <rect id="Rectángulo_403505" data-name="Rectángulo 403505" width="4.158" height="0.241" transform="translate(190.662 125.15) rotate(-7.59)"/>
            <g id="Grupo_1102281" data-name="Grupo 1102281" transform="translate(205.285 175.729)" opacity="0.13">
              <g id="Grupo_1102280" data-name="Grupo 1102280">
                <g id="Grupo_1102279" data-name="Grupo 1102279" clip-path="url(#clip-path-18)">
                  <path id="Trazado_878940" data-name="Trazado 878940" d="M1774.912,1524.245a15.7,15.7,0,0,1,8-3.447s-.97-.7-3.637,0a7.346,7.346,0,0,1,5.213-1.018s-5.819-2.428-9.577,4.465" transform="translate(-1774.912 -1519.365)"/>
                </g>
              </g>
            </g>
            <path id="Trazado_878941" data-name="Trazado 878941" d="M1347.793,1472.526l51.158-.7v25.153l-50.067.617Z" transform="translate(-1191.908 -1301.591)" fill="#1f3b5f"/>
            <path id="Trazado_878942" data-name="Trazado 878942" d="M1530.8,1565.316c0,2.077-2.605,3.76-5.819,3.76s-5.819-1.683-5.819-3.76,2.605-3.76,5.819-3.76,5.819,1.683,5.819,3.76" transform="translate(-1343.459 -1380.947)" fill="#b8d4f8"/>
            <g id="Grupo_1102285" data-name="Grupo 1102285" transform="translate(135.215 187.411)" opacity="0.13">
              <g id="Grupo_1102284" data-name="Grupo 1102284">
                <g id="Grupo_1102283" data-name="Grupo 1102283" clip-path="url(#clip-path-19)">
                  <path id="Trazado_878943" data-name="Trazado 878943" d="M1192,1627.665s-8.12-5.608-22.912-7.285c0,0,7.395-.548,23.64,5.64Z" transform="translate(-1169.084 -1620.367)"/>
                </g>
              </g>
            </g>
            <g id="Grupo_1102288" data-name="Grupo 1102288" transform="translate(205.285 190.108)" opacity="0.13">
              <g id="Grupo_1102287" data-name="Grupo 1102287">
                <g id="Grupo_1102286" data-name="Grupo 1102286" clip-path="url(#clip-path-20)">
                  <path id="Trazado_878944" data-name="Trazado 878944" d="M1776.73,1648.992s14.676-8.315,20.521-3.864c0,0-3.065-4.909-22.34,3.394Z" transform="translate(-1774.912 -1643.687)"/>
                </g>
              </g>
            </g>
            <g id="Grupo_1102291" data-name="Grupo 1102291" transform="translate(206.983 152.41)" opacity="0.13">
              <g id="Grupo_1102290" data-name="Grupo 1102290">
                <g id="Grupo_1102289" data-name="Grupo 1102289" clip-path="url(#clip-path-15)">
                  <path id="Trazado_878945" data-name="Trazado 878945" d="M1789.586,1330.125s8.122-6.736,7.88-10.183c0,0-2.182,3.055-2.788,3.6,0,0,3.031-4.151,1.818-5.8,0,0-1.692,5.214-2.968,5.31Z" transform="translate(-1789.587 -1317.749)"/>
                </g>
              </g>
            </g>
            <g id="Grupo_1102294" data-name="Grupo 1102294" transform="translate(206.922 150.883)" opacity="0.13">
              <g id="Grupo_1102293" data-name="Grupo 1102293">
                <g id="Grupo_1102292" data-name="Grupo 1102292" clip-path="url(#clip-path-16)">
                  <path id="Trazado_878946" data-name="Trazado 878946" d="M1789.062,1318.408s6.061-13.159,4.849-13.864c0,0-.242,2.585-4.849,13.864" transform="translate(-1789.062 -1304.544)"/>
                </g>
              </g>
            </g>
          </g>
        </g>
      </g>
    </g>
  </g>
</svg>
