<svg xmlns="http://www.w3.org/2000/svg" xmlns:xlink="http://www.w3.org/1999/xlink" width="61" height="61" viewBox="0 0 61 61">
  <defs>
    <clipPath id="clip-path">
      <rect id="Rectángulo_403250" data-name="Rectángulo 403250" width="43" height="43" transform="translate(398 6454.336)" fill="#fff" stroke="#707070" stroke-width="1"/>
    </clipPath>
  </defs>
  <g id="Grupo_1102508" data-name="Grupo 1102508" transform="translate(-1120.711 -588)">
    <g id="Grupo_1102123" data-name="Grupo 1102123" transform="translate(731.711 -5857.336)">
      <circle id="Elipse_11630" data-name="Elipse 11630" cx="30.5" cy="30.5" r="30.5" transform="translate(389 6445.336)" fill="#fec009"/>
      <g id="Enmascarar_grupo_1098811" data-name="Enmascarar grupo 1098811" clip-path="url(#clip-path)">
        <g id="relacional" transform="translate(397.307 6453.643)">
          <g id="Grupo_1102158" data-name="Grupo 1102158">
            <g id="Grupo_1102144" data-name="Grupo 1102144">
              <path id="Trazado_878694" data-name="Trazado 878694" d="M1.387,13.871V6.935H18.032v6.935a1.391,1.391,0,0,1-1.387,1.387H2.774A1.391,1.391,0,0,1,1.387,13.871Z" fill="#e6e9ed"/>
            </g>
            <g id="Grupo_1102145" data-name="Grupo 1102145">
              <path id="Trazado_878695" data-name="Trazado 878695" d="M18.032,24.968V31.9a1.391,1.391,0,0,1-1.387,1.387H2.774A1.391,1.391,0,0,1,1.387,31.9V24.968Z" fill="#e6e9ed"/>
            </g>
            <g id="Grupo_1102146" data-name="Grupo 1102146">
              <path id="Trazado_878696" data-name="Trazado 878696" d="M42.306,34.677v6.935A1.391,1.391,0,0,1,40.919,43H27.048a1.391,1.391,0,0,1-1.387-1.387V34.677Z" fill="#e6e9ed"/>
            </g>
            <g id="Grupo_1102147" data-name="Grupo 1102147">
              <path id="Trazado_878697" data-name="Trazado 878697" d="M1.387,6.935V2.774A1.391,1.391,0,0,1,2.774,1.387H16.645a1.391,1.391,0,0,1,1.387,1.387V6.935Z" fill="#5cd6b3"/>
            </g>
            <g id="Grupo_1102148" data-name="Grupo 1102148">
              <path id="Trazado_878698" data-name="Trazado 878698" d="M18.032,23.581v1.387H1.387V20.806a1.391,1.391,0,0,1,1.387-1.387H16.645a1.391,1.391,0,0,1,1.387,1.387Z" fill="#5cd6b3"/>
            </g>
            <g id="Grupo_1102149" data-name="Grupo 1102149">
              <path id="Trazado_878699" data-name="Trazado 878699" d="M25.661,34.677V30.516a1.391,1.391,0,0,1,1.387-1.387H40.919a1.391,1.391,0,0,1,1.387,1.387v4.161Z" fill="#5cd6b3"/>
            </g>
            <g id="Grupo_1102150" data-name="Grupo 1102150">
              <path id="Trazado_878700" data-name="Trazado 878700" d="M12.484,9.71h2.774v2.774H12.484Z" fill="#ff826e"/>
            </g>
            <g id="Grupo_1102151" data-name="Grupo 1102151">
              <circle id="Elipse_11672" data-name="Elipse 11672" cx="1.387" cy="1.387" r="1.387" transform="translate(28.435 37.452)" fill="#ff826e"/>
            </g>
            <g id="Grupo_1102152" data-name="Grupo 1102152">
              <path id="Trazado_878701" data-name="Trazado 878701" d="M43,11.79v4.161c0,1.151-4.036,2.081-9.016,2.081s-9.016-.929-9.016-2.081V11.79c0,1.151,4.036,2.081,9.016,2.081S43,12.942,43,11.79Z" fill="#fcd770"/>
            </g>
            <g id="Grupo_1102153" data-name="Grupo 1102153">
              <path id="Trazado_878702" data-name="Trazado 878702" d="M43,3.468V7.629C43,8.78,38.964,9.71,33.984,9.71s-9.016-.929-9.016-2.081V3.468c0,1.151,4.036,2.081,9.016,2.081S43,4.619,43,3.468Z" fill="#fcd770"/>
            </g>
            <g id="Grupo_1102154" data-name="Grupo 1102154">
              <path id="Trazado_878703" data-name="Trazado 878703" d="M24.968,7.629C24.968,8.78,29,9.71,33.984,9.71S43,8.78,43,7.629V11.79c0,1.151-4.036,2.081-9.016,2.081s-9.016-.929-9.016-2.081V7.629Z" fill="#ffeaa7"/>
            </g>
            <g id="Grupo_1102155" data-name="Grupo 1102155">
              <ellipse id="Elipse_11673" data-name="Elipse 11673" cx="9.016" cy="2.081" rx="9.016" ry="2.081" transform="translate(24.968 1.387)" fill="#ffeaa7"/>
            </g>
            <g id="Grupo_1102156" data-name="Grupo 1102156">
              <circle id="Elipse_11674" data-name="Elipse 11674" cx="1.387" cy="1.387" r="1.387" transform="translate(8.323 36.065)" fill="#ff826e"/>
            </g>
            <g id="Grupo_1102157" data-name="Grupo 1102157">
              <circle id="Elipse_11675" data-name="Elipse 11675" cx="1.387" cy="1.387" r="1.387" transform="translate(32.597 22.194)" fill="#ff826e"/>
            </g>
          </g>
          <g id="Grupo_1102159" data-name="Grupo 1102159">
            <path id="Trazado_878704" data-name="Trazado 878704" d="M33.984.694c-.994,0-9.71.078-9.71,2.774V7.629H18.726V2.774A2.083,2.083,0,0,0,16.645.694H2.774A2.083,2.083,0,0,0,.694,2.774v11.1a2.083,2.083,0,0,0,2.081,2.081H9.016v2.774H2.774A2.083,2.083,0,0,0,.694,20.806V31.9a2.083,2.083,0,0,0,2.081,2.081H9.016V35.5a2.076,2.076,0,1,0,2.647,2.647H24.968v3.468a2.083,2.083,0,0,0,2.081,2.081H40.919A2.083,2.083,0,0,0,43,41.613v-11.1a2.083,2.083,0,0,0-2.081-2.081H34.677v-2.9a2.068,2.068,0,0,0,0-3.906v-2.91c2.325-.051,9.016-.4,9.016-2.766V3.468C43.694.771,34.978.694,33.984.694Zm8.323,6.882c-.336.526-3.351,1.44-8.323,1.44S26,8.1,25.661,7.576V5.043c2.5,1.155,7.578,1.2,8.323,1.2s5.821-.044,8.323-1.2Zm0,4.161c-.336.526-3.351,1.441-8.323,1.441S26,12.263,25.661,11.737V9.2c2.5,1.155,7.578,1.2,8.323,1.2s5.821-.044,8.323-1.2ZM33.984,2.081c4.806,0,7.788.855,8.284,1.387-.5.532-3.478,1.387-8.284,1.387S26.2,4,25.7,3.468C26.2,2.936,29.178,2.081,33.984,2.081Zm-31.21,0H16.645a.694.694,0,0,1,.694.694V6.242H2.081V2.774A.694.694,0,0,1,2.774,2.081Zm-.694,11.79V7.629H17.339v6.242a.694.694,0,0,1-.694.694H2.774A.694.694,0,0,1,2.081,13.871ZM10.4,15.952h6.242a2.083,2.083,0,0,0,2.081-2.081V9.016h5.548v6.935c0,2.362,6.691,2.715,9.016,2.766v2.91a2.079,2.079,0,0,0-1.259,1.259H18.726V20.806a2.083,2.083,0,0,0-2.081-2.081H10.4ZM2.774,20.113H16.645a.694.694,0,0,1,.694.694v3.468H2.081V20.806A.694.694,0,0,1,2.774,20.113ZM2.081,31.9V25.661H17.339V31.9a.694.694,0,0,1-.694.694H2.774A.694.694,0,0,1,2.081,31.9ZM9.71,38.145a.694.694,0,1,1,.694-.694A.694.694,0,0,1,9.71,38.145Zm31.21,4.161H27.048a.694.694,0,0,1-.694-.694V35.371H41.613v6.242A.694.694,0,0,1,40.919,42.306Zm.694-11.79v3.468H26.355V30.516a.694.694,0,0,1,.694-.694H40.919A.694.694,0,0,1,41.613,30.516ZM27.048,28.435a2.083,2.083,0,0,0-2.081,2.081v6.242H11.663A2.079,2.079,0,0,0,10.4,35.5V33.984h6.242A2.083,2.083,0,0,0,18.726,31.9V24.274H32.031a2.079,2.079,0,0,0,1.259,1.259v2.9Zm6.935-4.161a.694.694,0,1,1,.694-.694A.694.694,0,0,1,33.984,24.274Zm0-6.935c-4.952,0-7.965-.908-8.323-1.434V13.365c2.5,1.155,7.578,1.2,8.323,1.2s5.821-.044,8.323-1.2V15.9C41.949,16.431,38.936,17.339,33.984,17.339Z"/>
            <path id="Trazado_878705" data-name="Trazado 878705" d="M9.016,3.468H10.4V4.855H9.016Z"/>
            <path id="Trazado_878706" data-name="Trazado 878706" d="M6.242,3.468H7.629V4.855H6.242Z"/>
            <path id="Trazado_878707" data-name="Trazado 878707" d="M3.468,3.468H4.855V4.855H3.468Z"/>
            <path id="Trazado_878708" data-name="Trazado 878708" d="M9.016,21.5H10.4v1.387H9.016Z"/>
            <path id="Trazado_878709" data-name="Trazado 878709" d="M3.468,21.5H4.855v1.387H3.468Z"/>
            <path id="Trazado_878710" data-name="Trazado 878710" d="M6.242,21.5H7.629v1.387H6.242Z"/>
            <path id="Trazado_878711" data-name="Trazado 878711" d="M30.516,31.21H31.9V32.6H30.516Z"/>
            <path id="Trazado_878712" data-name="Trazado 878712" d="M33.29,31.21h1.387V32.6H33.29Z"/>
            <path id="Trazado_878713" data-name="Trazado 878713" d="M27.742,31.21h1.387V32.6H27.742Z"/>
            <path id="Trazado_878714" data-name="Trazado 878714" d="M29.823,36.758A2.081,2.081,0,1,0,31.9,38.839,2.083,2.083,0,0,0,29.823,36.758Zm0,2.774a.694.694,0,1,1,.694-.694A.694.694,0,0,1,29.823,39.532Z"/>
            <path id="Trazado_878715" data-name="Trazado 878715" d="M33.29,36.758h6.935v1.387H33.29Z"/>
            <path id="Trazado_878716" data-name="Trazado 878716" d="M33.29,39.532h4.161v1.387H33.29Z"/>
            <path id="Trazado_878717" data-name="Trazado 878717" d="M38.839,39.532h1.387v1.387H38.839Z"/>
            <path id="Trazado_878718" data-name="Trazado 878718" d="M3.468,27.048H4.855v1.387H3.468Z"/>
            <path id="Trazado_878719" data-name="Trazado 878719" d="M6.242,27.048h9.71v1.387H6.242Z"/>
            <path id="Trazado_878720" data-name="Trazado 878720" d="M3.468,29.823H15.952V31.21H3.468Z"/>
            <path id="Trazado_878721" data-name="Trazado 878721" d="M11.79,13.177h4.161V9.016H11.79ZM13.177,10.4h1.387V11.79H13.177Z"/>
            <path id="Trazado_878722" data-name="Trazado 878722" d="M3.468,9.016H10.4V10.4H3.468Z"/>
            <path id="Trazado_878723" data-name="Trazado 878723" d="M3.468,11.79H7.629v1.387H3.468Z"/>
            <path id="Trazado_878724" data-name="Trazado 878724" d="M9.016,11.79H10.4v1.387H9.016Z"/>
          </g>
        </g>
      </g>
    </g>
  </g>
</svg>
