<svg xmlns="http://www.w3.org/2000/svg" width="1030" height="221" viewBox="0 0 1030 221">
  <g id="Grupo_1102490" data-name="Grupo 1102490" transform="translate(-284.711 -1357)">
    <path id="Trazado_879631" data-name="Trazado 879631" d="M30,0h970a30,30,0,0,1,30,30V191a30,30,0,0,1-30,30H30A30,30,0,0,1,0,191V30A30,30,0,0,1,30,0Z" transform="translate(284.711 1357)" fill="#fff9e5"/>
    <g id="Trazado_879632" data-name="Trazado 879632" transform="translate(427.711 1413)" fill="#fff">
      <path d="M 119 27.5 L 14 27.5 C 10.39401626586914 27.5 7.003866672515869 26.09575080871582 4.454066753387451 23.54593276977539 C 1.904250025749207 20.99613380432129 0.5 17.60598373413086 0.5 14 C 0.5 10.39401626586914 1.904250025749207 7.003866672515869 4.454066753387451 4.454066753387451 C 7.003866672515869 1.904250025749207 10.39401626586914 0.5 14 0.5 L 119 0.5 C 122.6059799194336 0.5 125.9961318969727 1.904250025749207 128.5459289550781 4.454066753387451 C 131.0957489013672 7.003866672515869 132.5 10.39401626586914 132.5 14 C 132.5 17.60598373413086 131.0957489013672 20.99613380432129 128.5459289550781 23.54593276977539 C 125.9961318969727 26.09575080871582 122.6059799194336 27.5 119 27.5 Z" stroke="none"/>
      <path d="M 14 1 C 10.52758026123047 1 7.262985229492188 2.352235794067383 4.8076171875 4.807619094848633 C 2.35223388671875 7.262981414794922 1 10.5275821685791 1 14 C 1 17.4724178314209 2.35223388671875 20.73701858520508 4.8076171875 23.1923828125 C 7.262985229492188 25.64776420593262 10.52758026123047 27 14 27 L 119 27 C 122.4724197387695 27 125.7370147705078 25.64776420593262 128.1923828125 23.1923828125 C 130.6477661132812 20.73701858520508 132 17.4724178314209 132 14 C 132 10.5275821685791 130.6477661132812 7.262981414794922 128.1923828125 4.807619094848633 C 125.7370147705078 2.352235794067383 122.4724197387695 1 119 1 L 14 1 M 14 0 L 119 0 C 126.7319793701172 0 133 6.26801872253418 133 14 C 133 21.73198127746582 126.7319793701172 28 119 28 L 14 28 C 6.268020629882812 28 0 21.73198127746582 0 14 C 0 6.26801872253418 6.268020629882812 0 14 0 Z" stroke="none" fill="#81c74d"/>
    </g>
    <g id="Trazado_879633" data-name="Trazado 879633" transform="translate(316.711 1495)" fill="#fff">
      <path d="M 119 27.5 L 14 27.5 C 10.39401626586914 27.5 7.003866672515869 26.09575080871582 4.454066753387451 23.54593276977539 C 1.904250025749207 20.99613380432129 0.5 17.60598373413086 0.5 14 C 0.5 10.39401626586914 1.904250025749207 7.003866672515869 4.454066753387451 4.454066753387451 C 7.003866672515869 1.904250025749207 10.39401626586914 0.5 14 0.5 L 119 0.5 C 122.6059799194336 0.5 125.9961318969727 1.904250025749207 128.5459289550781 4.454066753387451 C 131.0957489013672 7.003866672515869 132.5 10.39401626586914 132.5 14 C 132.5 17.60598373413086 131.0957489013672 20.99613380432129 128.5459289550781 23.54593276977539 C 125.9961318969727 26.09575080871582 122.6059799194336 27.5 119 27.5 Z" stroke="none"/>
      <path d="M 14 1 C 10.52758026123047 1 7.262985229492188 2.352235794067383 4.8076171875 4.807619094848633 C 2.35223388671875 7.262981414794922 1 10.5275821685791 1 14 C 1 17.4724178314209 2.35223388671875 20.73701858520508 4.8076171875 23.1923828125 C 7.262985229492188 25.64776420593262 10.52758026123047 27 14 27 L 119 27 C 122.4724197387695 27 125.7370147705078 25.64776420593262 128.1923828125 23.1923828125 C 130.6477661132812 20.73701858520508 132 17.4724178314209 132 14 C 132 10.5275821685791 130.6477661132812 7.262981414794922 128.1923828125 4.807619094848633 C 125.7370147705078 2.352235794067383 122.4724197387695 1 119 1 L 14 1 M 14 0 L 119 0 C 126.7319793701172 0 133 6.26801872253418 133 14 C 133 21.73198127746582 126.7319793701172 28 119 28 L 14 28 C 6.268020629882812 28 0 21.73198127746582 0 14 C 0 6.26801872253418 6.268020629882812 0 14 0 Z" stroke="none" fill="#81c74d"/>
    </g>
    <g id="Trazado_879634" data-name="Trazado 879634" transform="translate(737.711 1495)" fill="#fff">
      <path d="M 89 27.5 L 14 27.5 C 10.39401340484619 27.5 7.003866672515869 26.09576034545898 4.454053401947021 23.54594612121582 C 1.904240012168884 20.99613380432129 0.5 17.60598754882812 0.5 14 C 0.5 10.39401340484619 1.904240012168884 7.003866672515869 4.454053401947021 4.454053401947021 C 7.003866672515869 1.904240012168884 10.39401340484619 0.5 14 0.5 L 89 0.5 C 92.60598754882812 0.5 95.99613189697266 1.904240012168884 98.54594421386719 4.454053401947021 C 101.0957565307617 7.003866672515869 102.5 10.39401340484619 102.5 14 C 102.5 17.60598754882812 101.0957565307617 20.99613380432129 98.54594421386719 23.54594612121582 C 95.99613189697266 26.09576034545898 92.60598754882812 27.5 89 27.5 Z" stroke="none"/>
      <path d="M 14 1 C 10.52757263183594 1 7.262985229492188 2.352243423461914 4.8076171875 4.807613372802734 C 2.352241516113281 7.262985229492188 1 10.5275707244873 1 14 C 1 17.47242736816406 2.352241516113281 20.73701477050781 4.8076171875 23.19238662719727 C 7.262985229492188 25.64775657653809 10.52757263183594 27 14 27 L 89 27 C 92.47242736816406 27 95.73701477050781 25.64775657653809 98.1923828125 23.19238662719727 C 100.6477584838867 20.73701477050781 102 17.47242736816406 102 14 C 102 10.5275707244873 100.6477584838867 7.262985229492188 98.1923828125 4.807613372802734 C 95.73701477050781 2.352243423461914 92.47242736816406 1 89 1 L 14 1 M 14 0 L 89 0 C 96.73198699951172 0 103 6.268014907836914 103 14 C 103 21.73198509216309 96.73198699951172 28 89 28 L 14 28 C 6.268013000488281 28 0 21.73198509216309 0 14 C 0 6.268014907836914 6.268013000488281 0 14 0 Z" stroke="none" fill="#81c74d"/>
    </g>
    <g id="Trazado_879635" data-name="Trazado 879635" transform="translate(948.711 1495)" fill="#fff">
      <path d="M 89 27.5 L 14 27.5 C 10.39401340484619 27.5 7.003866672515869 26.09576034545898 4.454053401947021 23.54594612121582 C 1.904240012168884 20.99613380432129 0.5 17.60598754882812 0.5 14 C 0.5 10.39401340484619 1.904240012168884 7.003866672515869 4.454053401947021 4.454053401947021 C 7.003866672515869 1.904240012168884 10.39401340484619 0.5 14 0.5 L 89 0.5 C 92.60598754882812 0.5 95.99613189697266 1.904240012168884 98.54594421386719 4.454053401947021 C 101.0957565307617 7.003866672515869 102.5 10.39401340484619 102.5 14 C 102.5 17.60598754882812 101.0957565307617 20.99613380432129 98.54594421386719 23.54594612121582 C 95.99613189697266 26.09576034545898 92.60598754882812 27.5 89 27.5 Z" stroke="none"/>
      <path d="M 14 1 C 10.52757263183594 1 7.262985229492188 2.352243423461914 4.8076171875 4.807613372802734 C 2.352241516113281 7.262985229492188 1 10.5275707244873 1 14 C 1 17.47242736816406 2.352241516113281 20.73701477050781 4.8076171875 23.19238662719727 C 7.262985229492188 25.64775657653809 10.52757263183594 27 14 27 L 89 27 C 92.47242736816406 27 95.73701477050781 25.64775657653809 98.1923828125 23.19238662719727 C 100.6477584838867 20.73701477050781 102 17.47242736816406 102 14 C 102 10.5275707244873 100.6477584838867 7.262985229492188 98.1923828125 4.807613372802734 C 95.73701477050781 2.352243423461914 92.47242736816406 1 89 1 L 14 1 M 14 0 L 89 0 C 96.73198699951172 0 103 6.268014907836914 103 14 C 103 21.73198509216309 96.73198699951172 28 89 28 L 14 28 C 6.268013000488281 28 0 21.73198509216309 0 14 C 0 6.268014907836914 6.268013000488281 0 14 0 Z" stroke="none" fill="#81c74d"/>
    </g>
    <g id="Trazado_879636" data-name="Trazado 879636" transform="translate(1155.711 1495)" fill="#fff">
      <path d="M 113 27.5 L 14 27.5 C 10.39401626586914 27.5 7.003866672515869 26.09575080871582 4.454066753387451 23.54593276977539 C 1.904250025749207 20.99613380432129 0.5 17.60598373413086 0.5 14 C 0.5 10.39401626586914 1.904250025749207 7.003866672515869 4.454066753387451 4.454066753387451 C 7.003866672515869 1.904250025749207 10.39401626586914 0.5 14 0.5 L 113 0.5 C 116.6059799194336 0.5 119.9961318969727 1.904250025749207 122.5459365844727 4.454066753387451 C 125.0957489013672 7.003866672515869 126.5 10.39401626586914 126.5 14 C 126.5 17.60598373413086 125.0957489013672 20.99613380432129 122.5459365844727 23.54593276977539 C 119.9961318969727 26.09575080871582 116.6059799194336 27.5 113 27.5 Z" stroke="none"/>
      <path d="M 14 1 C 10.52758026123047 1 7.262985229492188 2.35223388671875 4.8076171875 4.8076171875 C 2.35223388671875 7.262983322143555 1 10.52758407592773 1 14 C 1 17.47241592407227 2.35223388671875 20.73701667785645 4.8076171875 23.1923828125 C 7.262985229492188 25.64776611328125 10.52758026123047 27 14 27 L 113 27 C 116.4724197387695 27 119.7370147705078 25.64776611328125 122.1923828125 23.1923828125 C 124.6477661132812 20.73701667785645 126 17.47241592407227 126 14 C 126 10.52758407592773 124.6477661132812 7.262983322143555 122.1923828125 4.8076171875 C 119.7370147705078 2.35223388671875 116.4724197387695 1 113 1 L 14 1 M 14 0 L 113 0 C 120.7319793701172 0 127 6.268016815185547 127 14 C 127 21.73198318481445 120.7319793701172 28 113 28 L 14 28 C 6.268013000488281 28 0 21.73198318481445 0 14 C 0 6.268016815185547 6.268013000488281 0 14 0 Z" stroke="none" fill="#81c74d"/>
    </g>
    <g id="Trazado_879637" data-name="Trazado 879637" transform="translate(530.711 1495)" fill="#fff">
      <path d="M 73 27.5 L 14 27.5 C 10.39402198791504 27.5 7.003866672515869 26.09575462341309 4.454055786132812 23.54594421386719 C 1.904244422912598 20.99613380432129 0.5 17.60597801208496 0.5 14 C 0.5 10.39402198791504 1.904244422912598 7.003866672515869 4.454055786132812 4.454055786132812 C 7.003866672515869 1.904244422912598 10.39402198791504 0.5 14 0.5 L 73 0.5 C 76.60597991943359 0.5 79.99613189697266 1.904244422912598 82.54594421386719 4.454055786132812 C 85.09575653076172 7.003866672515869 86.5 10.39402198791504 86.5 14 C 86.5 17.60597801208496 85.09575653076172 20.99613380432129 82.54594421386719 23.54594421386719 C 79.99613189697266 26.09575462341309 76.60597991943359 27.5 73 27.5 Z" stroke="none"/>
      <path d="M 14 1 C 10.52758026123047 1 7.262985229492188 2.352235794067383 4.807609558105469 4.807611465454102 C 2.35223388671875 7.262989044189453 1 10.5275764465332 1 14 C 1 17.4724235534668 2.35223388671875 20.73701095581055 4.807609558105469 23.1923885345459 C 7.262985229492188 25.64776420593262 10.52758026123047 27 14 27 L 73 27 C 76.47242736816406 27 79.73701477050781 25.64776420593262 82.19239044189453 23.1923885345459 C 84.64776611328125 20.73701095581055 86 17.4724235534668 86 14 C 86 10.5275764465332 84.64776611328125 7.262989044189453 82.19239044189453 4.807611465454102 C 79.73701477050781 2.352235794067383 76.47242736816406 1 73 1 L 14 1 M 14 0 L 73 0 C 80.73198699951172 0 87 6.268011093139648 87 14 C 87 21.73198890686035 80.73198699951172 28 73 28 L 14 28 C 6.268013000488281 28 0 21.73198890686035 0 14 C 0 6.268011093139648 6.268013000488281 0 14 0 Z" stroke="none" fill="#81c74d"/>
    </g>
    <g id="Trazado_879638" data-name="Trazado 879638" transform="translate(602.711 1413)" fill="#fff">
      <path d="M 119 27.5 L 14 27.5 C 10.39401626586914 27.5 7.003866672515869 26.09575080871582 4.454066753387451 23.54593276977539 C 1.904250025749207 20.99613380432129 0.5 17.60598373413086 0.5 14 C 0.5 10.39401626586914 1.904250025749207 7.003866672515869 4.454066753387451 4.454066753387451 C 7.003866672515869 1.904250025749207 10.39401626586914 0.5 14 0.5 L 119 0.5 C 122.6059799194336 0.5 125.9961318969727 1.904250025749207 128.5459289550781 4.454066753387451 C 131.0957489013672 7.003866672515869 132.5 10.39401626586914 132.5 14 C 132.5 17.60598373413086 131.0957489013672 20.99613380432129 128.5459289550781 23.54593276977539 C 125.9961318969727 26.09575080871582 122.6059799194336 27.5 119 27.5 Z" stroke="none"/>
      <path d="M 14 1 C 10.52758026123047 1 7.262985229492188 2.352235794067383 4.8076171875 4.807619094848633 C 2.35223388671875 7.262981414794922 1 10.5275821685791 1 14 C 1 17.4724178314209 2.35223388671875 20.73701858520508 4.8076171875 23.1923828125 C 7.262985229492188 25.64776420593262 10.52758026123047 27 14 27 L 119 27 C 122.4724197387695 27 125.7370147705078 25.64776420593262 128.1923828125 23.1923828125 C 130.6477661132812 20.73701858520508 132 17.4724178314209 132 14 C 132 10.5275821685791 130.6477661132812 7.262981414794922 128.1923828125 4.807619094848633 C 125.7370147705078 2.352235794067383 122.4724197387695 1 119 1 L 14 1 M 14 0 L 119 0 C 126.7319793701172 0 133 6.26801872253418 133 14 C 133 21.73198127746582 126.7319793701172 28 119 28 L 14 28 C 6.268020629882812 28 0 21.73198127746582 0 14 C 0 6.26801872253418 6.268020629882812 0 14 0 Z" stroke="none" fill="#81c74d"/>
    </g>
    <g id="Trazado_879639" data-name="Trazado 879639" transform="translate(824.711 1413)" fill="#fff">
      <path d="M 119 27.5 L 14 27.5 C 10.39401626586914 27.5 7.003866672515869 26.09575080871582 4.454066753387451 23.54593276977539 C 1.904250025749207 20.99613380432129 0.5 17.60598373413086 0.5 14 C 0.5 10.39401626586914 1.904250025749207 7.003866672515869 4.454066753387451 4.454066753387451 C 7.003866672515869 1.904250025749207 10.39401626586914 0.5 14 0.5 L 119 0.5 C 122.6059799194336 0.5 125.9961318969727 1.904250025749207 128.5459289550781 4.454066753387451 C 131.0957489013672 7.003866672515869 132.5 10.39401626586914 132.5 14 C 132.5 17.60598373413086 131.0957489013672 20.99613380432129 128.5459289550781 23.54593276977539 C 125.9961318969727 26.09575080871582 122.6059799194336 27.5 119 27.5 Z" stroke="none"/>
      <path d="M 14 1 C 10.52758026123047 1 7.262985229492188 2.352235794067383 4.8076171875 4.807619094848633 C 2.35223388671875 7.262981414794922 1 10.5275821685791 1 14 C 1 17.4724178314209 2.35223388671875 20.73701858520508 4.8076171875 23.1923828125 C 7.262985229492188 25.64776420593262 10.52758026123047 27 14 27 L 119 27 C 122.4724197387695 27 125.7370147705078 25.64776420593262 128.1923828125 23.1923828125 C 130.6477661132812 20.73701858520508 132 17.4724178314209 132 14 C 132 10.5275821685791 130.6477661132812 7.262981414794922 128.1923828125 4.807619094848633 C 125.7370147705078 2.352235794067383 122.4724197387695 1 119 1 L 14 1 M 14 0 L 119 0 C 126.7319793701172 0 133 6.26801872253418 133 14 C 133 21.73198127746582 126.7319793701172 28 119 28 L 14 28 C 6.268020629882812 28 0 21.73198127746582 0 14 C 0 6.26801872253418 6.268020629882812 0 14 0 Z" stroke="none" fill="#81c74d"/>
    </g>
    <g id="Trazado_879640" data-name="Trazado 879640" transform="translate(1033.711 1413)" fill="#fff">
      <path d="M 119 27.5 L 14 27.5 C 10.39401626586914 27.5 7.003866672515869 26.09575080871582 4.454066753387451 23.54593276977539 C 1.904250025749207 20.99613380432129 0.5 17.60598373413086 0.5 14 C 0.5 10.39401626586914 1.904250025749207 7.003866672515869 4.454066753387451 4.454066753387451 C 7.003866672515869 1.904250025749207 10.39401626586914 0.5 14 0.5 L 119 0.5 C 122.6059799194336 0.5 125.9961318969727 1.904250025749207 128.5459289550781 4.454066753387451 C 131.0957489013672 7.003866672515869 132.5 10.39401626586914 132.5 14 C 132.5 17.60598373413086 131.0957489013672 20.99613380432129 128.5459289550781 23.54593276977539 C 125.9961318969727 26.09575080871582 122.6059799194336 27.5 119 27.5 Z" stroke="none"/>
      <path d="M 14 1 C 10.52758026123047 1 7.262985229492188 2.352235794067383 4.8076171875 4.807619094848633 C 2.35223388671875 7.262981414794922 1 10.5275821685791 1 14 C 1 17.4724178314209 2.35223388671875 20.73701858520508 4.8076171875 23.1923828125 C 7.262985229492188 25.64776420593262 10.52758026123047 27 14 27 L 119 27 C 122.4724197387695 27 125.7370147705078 25.64776420593262 128.1923828125 23.1923828125 C 130.6477661132812 20.73701858520508 132 17.4724178314209 132 14 C 132 10.5275821685791 130.6477661132812 7.262981414794922 128.1923828125 4.807619094848633 C 125.7370147705078 2.352235794067383 122.4724197387695 1 119 1 L 14 1 M 14 0 L 119 0 C 126.7319793701172 0 133 6.26801872253418 133 14 C 133 21.73198127746582 126.7319793701172 28 119 28 L 14 28 C 6.268020629882812 28 0 21.73198127746582 0 14 C 0 6.26801872253418 6.268020629882812 0 14 0 Z" stroke="none" fill="#81c74d"/>
    </g>
    <path id="Trazado_879641" data-name="Trazado 879641" d="M-49.172,0V-11.375h3.719a4.317,4.317,0,0,1,2.785.766,2.759,2.759,0,0,1,.934,2.266,2.31,2.31,0,0,1-.453,1.41,2.938,2.938,0,0,1-1.234.949A2.638,2.638,0,0,1-41.965-5a2.814,2.814,0,0,1,.535,1.723,3.042,3.042,0,0,1-.992,2.406,4.1,4.1,0,0,1-2.8.875Zm1.5-5.32v4.094H-45.2a2.385,2.385,0,0,0,1.652-.543,1.907,1.907,0,0,0,.605-1.5q0-2.055-2.234-2.055Zm0-1.2h2.266a2.378,2.378,0,0,0,1.574-.492,1.649,1.649,0,0,0,.59-1.336,1.621,1.621,0,0,0-.547-1.363,2.69,2.69,0,0,0-1.664-.426h-2.219ZM-34.219,0a3.036,3.036,0,0,1-.2-.891A3.225,3.225,0,0,1-36.828.156a2.984,2.984,0,0,1-2.051-.707,2.287,2.287,0,0,1-.8-1.793,2.39,2.39,0,0,1,1-2.051,4.733,4.733,0,0,1,2.824-.73h1.406v-.664A1.623,1.623,0,0,0-34.9-7a1.821,1.821,0,0,0-1.336-.449,2.107,2.107,0,0,0-1.3.391,1.151,1.151,0,0,0-.523.945h-1.453a2,2,0,0,1,.449-1.223,3.066,3.066,0,0,1,1.219-.934,4.1,4.1,0,0,1,1.691-.344,3.342,3.342,0,0,1,2.289.73A2.635,2.635,0,0,1-33-5.867v3.891a4.757,4.757,0,0,0,.3,1.852V0Zm-2.4-1.1a2.54,2.54,0,0,0,1.289-.352,2.127,2.127,0,0,0,.883-.914V-4.1h-1.133q-2.656,0-2.656,1.555a1.316,1.316,0,0,0,.453,1.063A1.742,1.742,0,0,0-36.617-1.1Zm10.8-1.141a1.064,1.064,0,0,0-.441-.91,4.249,4.249,0,0,0-1.539-.559,7.277,7.277,0,0,1-1.742-.562,2.479,2.479,0,0,1-.953-.781A1.869,1.869,0,0,1-30.8-6.133a2.193,2.193,0,0,1,.879-1.758,3.432,3.432,0,0,1,2.246-.719,3.532,3.532,0,0,1,2.332.742,2.357,2.357,0,0,1,.895,1.9H-25.9a1.3,1.3,0,0,0-.5-1.023,1.888,1.888,0,0,0-1.27-.43,1.976,1.976,0,0,0-1.234.344,1.082,1.082,0,0,0-.445.9.877.877,0,0,0,.414.789,5.1,5.1,0,0,0,1.5.508,7.8,7.8,0,0,1,1.754.578,2.558,2.558,0,0,1,1,.809,1.988,1.988,0,0,1,.324,1.152,2.163,2.163,0,0,1-.906,1.816,3.8,3.8,0,0,1-2.352.684,4.257,4.257,0,0,1-1.8-.359,2.922,2.922,0,0,1-1.223-1A2.42,2.42,0,0,1-31.086-2.6h1.445a1.5,1.5,0,0,0,.582,1.152,2.258,2.258,0,0,0,1.434.426,2.331,2.331,0,0,0,1.316-.332A1.02,1.02,0,0,0-25.812-2.242Zm6.836,2.4a3.693,3.693,0,0,1-2.8-1.129,4.19,4.19,0,0,1-1.078-3.02v-.266a5.073,5.073,0,0,1,.48-2.246,3.748,3.748,0,0,1,1.344-1.547,3.378,3.378,0,0,1,1.871-.559,3.166,3.166,0,0,1,2.563,1.086,4.7,4.7,0,0,1,.914,3.109v.6h-5.727a3,3,0,0,0,.73,2.02,2.3,2.3,0,0,0,1.777.77,2.517,2.517,0,0,0,1.3-.312,3.259,3.259,0,0,0,.93-.828l.883.688A3.55,3.55,0,0,1-18.977.156Zm-.18-7.578a1.928,1.928,0,0,0-1.469.637A3.1,3.1,0,0,0-21.359-5h4.234v-.109a2.753,2.753,0,0,0-.594-1.707A1.815,1.815,0,0,0-19.156-7.422ZM-10.4-4.3a4.952,4.952,0,0,1,.922-3.129A2.915,2.915,0,0,1-7.062-8.609,2.932,2.932,0,0,1-4.711-7.594V-12h1.445V0H-4.594l-.07-.906A2.943,2.943,0,0,1-7.078.156a2.887,2.887,0,0,1-2.395-1.2A5.008,5.008,0,0,1-10.4-4.187Zm1.445.164a3.749,3.749,0,0,0,.594,2.25,1.92,1.92,0,0,0,1.641.813A2.108,2.108,0,0,0-4.711-2.3V-6.187A2.125,2.125,0,0,0-6.7-7.383a1.929,1.929,0,0,0-1.656.82A4.128,4.128,0,0,0-8.953-4.133ZM2.484.156A3.693,3.693,0,0,1-.312-.973a4.19,4.19,0,0,1-1.078-3.02v-.266A5.073,5.073,0,0,1-.91-6.5,3.748,3.748,0,0,1,.434-8.051,3.378,3.378,0,0,1,2.3-8.609,3.166,3.166,0,0,1,4.867-7.523a4.7,4.7,0,0,1,.914,3.109v.6H.055a3,3,0,0,0,.73,2.02,2.3,2.3,0,0,0,1.777.77,2.517,2.517,0,0,0,1.3-.312,3.259,3.259,0,0,0,.93-.828l.883.688A3.55,3.55,0,0,1,2.484.156ZM2.3-7.422a1.928,1.928,0,0,0-1.469.637A3.1,3.1,0,0,0,.1-5H4.336v-.109a2.753,2.753,0,0,0-.594-1.707A1.815,1.815,0,0,0,2.3-7.422ZM11.063-4.3a4.952,4.952,0,0,1,.922-3.129A2.915,2.915,0,0,1,14.4-8.609,2.932,2.932,0,0,1,16.75-7.594V-12H18.2V0H16.867L16.8-.906A2.943,2.943,0,0,1,14.383.156a2.887,2.887,0,0,1-2.395-1.2,5.008,5.008,0,0,1-.926-3.141Zm1.445.164a3.749,3.749,0,0,0,.594,2.25,1.92,1.92,0,0,0,1.641.813A2.108,2.108,0,0,0,16.75-2.3V-6.187a2.125,2.125,0,0,0-1.992-1.2,1.929,1.929,0,0,0-1.656.82A4.128,4.128,0,0,0,12.508-4.133ZM25.656,0a3.036,3.036,0,0,1-.2-.891A3.225,3.225,0,0,1,23.047.156,2.984,2.984,0,0,1,21-.551a2.287,2.287,0,0,1-.8-1.793,2.39,2.39,0,0,1,1-2.051,4.733,4.733,0,0,1,2.824-.73H25.43v-.664A1.623,1.623,0,0,0,24.977-7a1.821,1.821,0,0,0-1.336-.449,2.108,2.108,0,0,0-1.3.391,1.151,1.151,0,0,0-.523.945H20.367a2,2,0,0,1,.449-1.223,3.066,3.066,0,0,1,1.219-.934,4.1,4.1,0,0,1,1.691-.344,3.342,3.342,0,0,1,2.289.73,2.635,2.635,0,0,1,.859,2.012v3.891a4.757,4.757,0,0,0,.3,1.852V0Zm-2.4-1.1a2.54,2.54,0,0,0,1.289-.352,2.127,2.127,0,0,0,.883-.914V-4.1H24.3q-2.656,0-2.656,1.555a1.316,1.316,0,0,0,.453,1.063A1.742,1.742,0,0,0,23.258-1.1ZM31.1-10.5v2.047H32.68v1.117H31.1v5.242a1.171,1.171,0,0,0,.211.762.888.888,0,0,0,.719.254,3.5,3.5,0,0,0,.688-.094V0a4.19,4.19,0,0,1-1.109.156A1.8,1.8,0,0,1,30.148-.43a2.517,2.517,0,0,1-.492-1.664V-7.336H28.117V-8.453h1.539V-10.5Zm2.727,6.2a4.993,4.993,0,0,1,.488-2.234A3.643,3.643,0,0,1,35.676-8.07a3.7,3.7,0,0,1,1.988-.539,3.565,3.565,0,0,1,2.793,1.2,4.6,4.6,0,0,1,1.066,3.18v.1a5.036,5.036,0,0,1-.473,2.215A3.589,3.589,0,0,1,39.7-.391a3.743,3.743,0,0,1-2.02.547,3.556,3.556,0,0,1-2.785-1.2A4.575,4.575,0,0,1,33.828-4.2Zm1.453.172a3.616,3.616,0,0,0,.652,2.258,2.088,2.088,0,0,0,1.746.852,2.075,2.075,0,0,0,1.75-.863A3.955,3.955,0,0,0,40.078-4.3a3.61,3.61,0,0,0-.66-2.254,2.1,2.1,0,0,0-1.754-.863,2.075,2.075,0,0,0-1.727.852A3.925,3.925,0,0,0,35.281-4.133ZM48.258-2.242a1.064,1.064,0,0,0-.441-.91,4.249,4.249,0,0,0-1.539-.559,7.277,7.277,0,0,1-1.742-.562,2.479,2.479,0,0,1-.953-.781,1.869,1.869,0,0,1-.309-1.078,2.193,2.193,0,0,1,.879-1.758A3.432,3.432,0,0,1,46.4-8.609a3.532,3.532,0,0,1,2.332.742,2.357,2.357,0,0,1,.895,1.9H48.172a1.3,1.3,0,0,0-.5-1.023,1.888,1.888,0,0,0-1.27-.43,1.976,1.976,0,0,0-1.234.344,1.082,1.082,0,0,0-.445.9.877.877,0,0,0,.414.789,5.1,5.1,0,0,0,1.5.508,7.8,7.8,0,0,1,1.754.578,2.558,2.558,0,0,1,1,.809A1.988,1.988,0,0,1,49.7-2.344,2.163,2.163,0,0,1,48.8-.527a3.8,3.8,0,0,1-2.352.684,4.257,4.257,0,0,1-1.8-.359,2.922,2.922,0,0,1-1.223-1A2.42,2.42,0,0,1,42.984-2.6H44.43a1.5,1.5,0,0,0,.582,1.152,2.258,2.258,0,0,0,1.434.426,2.331,2.331,0,0,0,1.316-.332A1.02,1.02,0,0,0,48.258-2.242Z" transform="translate(383 1513.734)" fill="#12263f"/>
    <path id="Trazado_879642" data-name="Trazado 879642" d="M-14.41-10.141h-3.656V0h-1.492V-10.141h-3.648v-1.234h8.8ZM-8.613,0a3.036,3.036,0,0,1-.2-.891A3.225,3.225,0,0,1-11.223.156a2.984,2.984,0,0,1-2.051-.707,2.287,2.287,0,0,1-.8-1.793,2.39,2.39,0,0,1,1-2.051,4.733,4.733,0,0,1,2.824-.73H-8.84v-.664A1.623,1.623,0,0,0-9.293-7a1.821,1.821,0,0,0-1.336-.449,2.107,2.107,0,0,0-1.3.391,1.151,1.151,0,0,0-.523.945H-13.9a2,2,0,0,1,.449-1.223,3.066,3.066,0,0,1,1.219-.934,4.1,4.1,0,0,1,1.691-.344,3.342,3.342,0,0,1,2.289.73,2.635,2.635,0,0,1,.859,2.012v3.891A4.757,4.757,0,0,0-7.1-.125V0Zm-2.4-1.1a2.54,2.54,0,0,0,1.289-.352,2.127,2.127,0,0,0,.883-.914V-4.1H-9.973q-2.656,0-2.656,1.555a1.316,1.316,0,0,0,.453,1.063A1.742,1.742,0,0,0-11.012-1.1ZM2.027-4.133A5.026,5.026,0,0,1,1.137-1.02,2.846,2.846,0,0,1-1.254.156,2.947,2.947,0,0,1-3.73-.977L-3.8,0H-5.129V-12h1.445v4.477A2.93,2.93,0,0,1-1.27-8.609,2.863,2.863,0,0,1,1.148-7.445a5.177,5.177,0,0,1,.879,3.188ZM.582-4.3a3.906,3.906,0,0,0-.57-2.281,1.888,1.888,0,0,0-1.641-.8A2.122,2.122,0,0,0-3.684-6.055V-2.4A2.181,2.181,0,0,0-1.613-1.07,1.878,1.878,0,0,0,0-1.875,4.153,4.153,0,0,0,.582-4.3ZM5.418,0H3.973V-12H5.418Zm7.531,0a3.036,3.036,0,0,1-.2-.891A3.225,3.225,0,0,1,10.34.156,2.984,2.984,0,0,1,8.289-.551a2.287,2.287,0,0,1-.8-1.793,2.39,2.39,0,0,1,1-2.051,4.733,4.733,0,0,1,2.824-.73h1.406v-.664A1.623,1.623,0,0,0,12.27-7a1.821,1.821,0,0,0-1.336-.449,2.107,2.107,0,0,0-1.3.391,1.151,1.151,0,0,0-.523.945H7.66a2,2,0,0,1,.449-1.223,3.066,3.066,0,0,1,1.219-.934,4.1,4.1,0,0,1,1.691-.344,3.342,3.342,0,0,1,2.289.73,2.635,2.635,0,0,1,.859,2.012v3.891a4.757,4.757,0,0,0,.3,1.852V0Zm-2.4-1.1a2.54,2.54,0,0,0,1.289-.352,2.127,2.127,0,0,0,.883-.914V-4.1H11.59q-2.656,0-2.656,1.555a1.316,1.316,0,0,0,.453,1.063A1.742,1.742,0,0,0,10.551-1.1Zm10.8-1.141a1.064,1.064,0,0,0-.441-.91,4.249,4.249,0,0,0-1.539-.559,7.277,7.277,0,0,1-1.742-.562,2.479,2.479,0,0,1-.953-.781,1.869,1.869,0,0,1-.309-1.078,2.193,2.193,0,0,1,.879-1.758A3.432,3.432,0,0,1,19.5-8.609a3.532,3.532,0,0,1,2.332.742,2.357,2.357,0,0,1,.895,1.9H21.27a1.3,1.3,0,0,0-.5-1.023,1.888,1.888,0,0,0-1.27-.43,1.976,1.976,0,0,0-1.234.344,1.082,1.082,0,0,0-.445.9.877.877,0,0,0,.414.789,5.1,5.1,0,0,0,1.5.508A7.8,7.8,0,0,1,21.48-4.3a2.558,2.558,0,0,1,1,.809A1.988,1.988,0,0,1,22.8-2.344a2.163,2.163,0,0,1-.906,1.816,3.8,3.8,0,0,1-2.352.684,4.257,4.257,0,0,1-1.8-.359,2.922,2.922,0,0,1-1.223-1A2.42,2.42,0,0,1,16.082-2.6h1.445a1.5,1.5,0,0,0,.582,1.152,2.258,2.258,0,0,0,1.434.426,2.331,2.331,0,0,0,1.316-.332A1.02,1.02,0,0,0,21.355-2.242Z" transform="translate(574 1513.734)" fill="#12263f"/>
    <path id="Trazado_879643" data-name="Trazado 879643" d="M-28.156-4.6h-2.672V0h-1.508V-11.375h3.766a4.457,4.457,0,0,1,2.957.875,3.148,3.148,0,0,1,1.035,2.547A3.062,3.062,0,0,1-25.152-6.1a3.428,3.428,0,0,1-1.6,1.18l2.672,4.828V0h-1.609Zm-2.672-1.227h2.3a2.6,2.6,0,0,0,1.777-.578,1.953,1.953,0,0,0,.66-1.547,2.057,2.057,0,0,0-.629-1.617,2.666,2.666,0,0,0-1.816-.57h-2.3ZM-19.2.156a3.693,3.693,0,0,1-2.8-1.129,4.19,4.19,0,0,1-1.078-3.02v-.266A5.073,5.073,0,0,1-22.59-6.5a3.748,3.748,0,0,1,1.344-1.547,3.378,3.378,0,0,1,1.871-.559,3.166,3.166,0,0,1,2.563,1.086A4.7,4.7,0,0,1-15.9-4.414v.6h-5.727a3,3,0,0,0,.73,2.02,2.3,2.3,0,0,0,1.777.77,2.517,2.517,0,0,0,1.3-.312,3.259,3.259,0,0,0,.93-.828l.883.688A3.55,3.55,0,0,1-19.2.156Zm-.18-7.578a1.928,1.928,0,0,0-1.469.637A3.1,3.1,0,0,0-21.578-5h4.234v-.109a2.753,2.753,0,0,0-.594-1.707A1.815,1.815,0,0,0-19.375-7.422Zm4.8,3.125a4.968,4.968,0,0,1,.914-3.145,2.923,2.923,0,0,1,2.422-1.168A2.908,2.908,0,0,1-8.82-7.516l.07-.937h1.32V-.2A3.439,3.439,0,0,1-8.4,2.383a3.589,3.589,0,0,1-2.613.945A4.348,4.348,0,0,1-12.8,2.938a3.08,3.08,0,0,1-1.336-1.07l.75-.867a2.826,2.826,0,0,0,2.273,1.148,2.214,2.214,0,0,0,1.645-.594,2.269,2.269,0,0,0,.59-1.672V-.844a2.971,2.971,0,0,1-2.367,1,2.887,2.887,0,0,1-2.4-1.2A5.224,5.224,0,0,1-14.57-4.3Zm1.453.164a3.79,3.79,0,0,0,.586,2.246,1.9,1.9,0,0,0,1.641.816A2.117,2.117,0,0,0-8.883-2.312V-6.172a2.142,2.142,0,0,0-1.992-1.211,1.921,1.921,0,0,0-1.648.82A4.128,4.128,0,0,0-13.117-4.133ZM-3.68,0H-5.125V-8.453H-3.68ZM-5.242-10.7a.863.863,0,0,1,.215-.594.807.807,0,0,1,.637-.242.819.819,0,0,1,.641.242.854.854,0,0,1,.219.594.826.826,0,0,1-.219.586.834.834,0,0,1-.641.234.821.821,0,0,1-.637-.234A.834.834,0,0,1-5.242-10.7Zm8.8,8.453a1.064,1.064,0,0,0-.441-.91,4.249,4.249,0,0,0-1.539-.559A7.277,7.277,0,0,1-.168-4.273a2.479,2.479,0,0,1-.953-.781A1.869,1.869,0,0,1-1.43-6.133,2.193,2.193,0,0,1-.551-7.891,3.432,3.432,0,0,1,1.7-8.609a3.532,3.532,0,0,1,2.332.742,2.357,2.357,0,0,1,.895,1.9H3.469a1.3,1.3,0,0,0-.5-1.023,1.888,1.888,0,0,0-1.27-.43,1.976,1.976,0,0,0-1.234.344,1.082,1.082,0,0,0-.445.9.877.877,0,0,0,.414.789,5.1,5.1,0,0,0,1.5.508A7.8,7.8,0,0,1,3.68-4.3a2.558,2.558,0,0,1,1,.809A1.988,1.988,0,0,1,5-2.344,2.163,2.163,0,0,1,4.094-.527,3.8,3.8,0,0,1,1.742.156,4.257,4.257,0,0,1-.055-.2a2.922,2.922,0,0,1-1.223-1A2.42,2.42,0,0,1-1.719-2.6H-.273A1.5,1.5,0,0,0,.309-1.449a2.258,2.258,0,0,0,1.434.426,2.331,2.331,0,0,0,1.316-.332A1.02,1.02,0,0,0,3.555-2.242ZM8.844-10.5v2.047h1.578v1.117H8.844v5.242a1.171,1.171,0,0,0,.211.762.888.888,0,0,0,.719.254,3.5,3.5,0,0,0,.688-.094V0A4.19,4.19,0,0,1,9.352.156,1.8,1.8,0,0,1,7.891-.43,2.517,2.517,0,0,1,7.4-2.094V-7.336H5.859V-8.453H7.4V-10.5ZM16.2-7.156a4.331,4.331,0,0,0-.711-.055A1.9,1.9,0,0,0,13.555-6V0H12.109V-8.453h1.406l.023.977a2.251,2.251,0,0,1,2.016-1.133A1.477,1.477,0,0,1,16.2-8.5ZM16.984-4.3a4.993,4.993,0,0,1,.488-2.234A3.643,3.643,0,0,1,18.832-8.07a3.7,3.7,0,0,1,1.988-.539,3.565,3.565,0,0,1,2.793,1.2,4.6,4.6,0,0,1,1.066,3.18v.1a5.036,5.036,0,0,1-.473,2.215A3.589,3.589,0,0,1,22.855-.391a3.743,3.743,0,0,1-2.02.547,3.556,3.556,0,0,1-2.785-1.2A4.575,4.575,0,0,1,16.984-4.2Zm1.453.172a3.616,3.616,0,0,0,.652,2.258,2.088,2.088,0,0,0,1.746.852,2.075,2.075,0,0,0,1.75-.863A3.955,3.955,0,0,0,23.234-4.3a3.61,3.61,0,0,0-.66-2.254,2.1,2.1,0,0,0-1.754-.863,2.075,2.075,0,0,0-1.727.852A3.925,3.925,0,0,0,18.438-4.133ZM31.414-2.242a1.064,1.064,0,0,0-.441-.91,4.249,4.249,0,0,0-1.539-.559,7.277,7.277,0,0,1-1.742-.562,2.479,2.479,0,0,1-.953-.781,1.869,1.869,0,0,1-.309-1.078,2.193,2.193,0,0,1,.879-1.758,3.432,3.432,0,0,1,2.246-.719,3.532,3.532,0,0,1,2.332.742,2.357,2.357,0,0,1,.895,1.9H31.328a1.3,1.3,0,0,0-.5-1.023,1.888,1.888,0,0,0-1.27-.43,1.976,1.976,0,0,0-1.234.344,1.082,1.082,0,0,0-.445.9.877.877,0,0,0,.414.789,5.1,5.1,0,0,0,1.5.508,7.8,7.8,0,0,1,1.754.578,2.558,2.558,0,0,1,1,.809,1.988,1.988,0,0,1,.324,1.152,2.163,2.163,0,0,1-.906,1.816A3.8,3.8,0,0,1,29.6.156,4.257,4.257,0,0,1,27.8-.2a2.922,2.922,0,0,1-1.223-1A2.42,2.42,0,0,1,26.141-2.6h1.445a1.5,1.5,0,0,0,.582,1.152,2.258,2.258,0,0,0,1.434.426,2.331,2.331,0,0,0,1.316-.332A1.02,1.02,0,0,0,31.414-2.242Z" transform="translate(789 1513.734)" fill="#12263f"/>
    <path id="Trazado_879644" data-name="Trazado 879644" d="M-20.059-3.609A4.185,4.185,0,0,1-21.391-.824a4.365,4.365,0,0,1-2.98.98A4.008,4.008,0,0,1-27.6-1.289a5.815,5.815,0,0,1-1.215-3.867V-6.25a6.481,6.481,0,0,1,.566-2.789,4.231,4.231,0,0,1,1.605-1.848,4.47,4.47,0,0,1,2.406-.645,4.11,4.11,0,0,1,2.906,1.012,4.235,4.235,0,0,1,1.273,2.8h-1.508a3.254,3.254,0,0,0-.848-1.969,2.569,2.569,0,0,0-1.824-.609,2.685,2.685,0,0,0-2.254,1.063,4.875,4.875,0,0,0-.816,3.023v1.1a5.011,5.011,0,0,0,.773,2.945A2.5,2.5,0,0,0-24.371-1.07a2.886,2.886,0,0,0,1.918-.566,3.143,3.143,0,0,0,.887-1.973ZM-13.02,0a3.036,3.036,0,0,1-.2-.891A3.225,3.225,0,0,1-15.629.156,2.984,2.984,0,0,1-17.68-.551a2.287,2.287,0,0,1-.8-1.793,2.39,2.39,0,0,1,1-2.051,4.733,4.733,0,0,1,2.824-.73h1.406v-.664A1.623,1.623,0,0,0-13.7-7a1.821,1.821,0,0,0-1.336-.449,2.107,2.107,0,0,0-1.3.391,1.151,1.151,0,0,0-.523.945h-1.453a2,2,0,0,1,.449-1.223,3.066,3.066,0,0,1,1.219-.934,4.1,4.1,0,0,1,1.691-.344,3.342,3.342,0,0,1,2.289.73A2.635,2.635,0,0,1-11.8-5.867v3.891a4.757,4.757,0,0,0,.3,1.852V0Zm-2.4-1.1a2.54,2.54,0,0,0,1.289-.352,2.127,2.127,0,0,0,.883-.914V-4.1h-1.133q-2.656,0-2.656,1.555a1.316,1.316,0,0,0,.453,1.063A1.742,1.742,0,0,0-15.418-1.1Zm7.242-7.352.039.938A3.122,3.122,0,0,1-5.629-8.609,2.417,2.417,0,0,1-3.215-7.25a3.2,3.2,0,0,1,1.1-.984,3.242,3.242,0,0,1,1.6-.375q2.781,0,2.828,2.945V0H.863V-5.578A1.941,1.941,0,0,0,.449-6.934,1.823,1.823,0,0,0-.941-7.383a1.916,1.916,0,0,0-1.336.48,1.949,1.949,0,0,0-.617,1.293V0H-4.348V-5.539a1.613,1.613,0,0,0-1.8-1.844A1.934,1.934,0,0,0-8.1-6.172V0H-9.543V-8.453Zm19.8,4.32a5.062,5.062,0,0,1-.883,3.109A2.829,2.829,0,0,1,8.355.156,3.1,3.1,0,0,1,5.934-.82V3.25H4.488v-11.7h1.32l.07.938A2.977,2.977,0,0,1,8.332-8.609a2.882,2.882,0,0,1,2.41,1.148,5.117,5.117,0,0,1,.887,3.2ZM10.184-4.3a3.735,3.735,0,0,0-.609-2.258A1.963,1.963,0,0,0,7.9-7.383,2.125,2.125,0,0,0,5.934-6.219V-2.18A2.129,2.129,0,0,0,7.918-1.023,1.954,1.954,0,0,0,9.57-1.848,4.077,4.077,0,0,0,10.184-4.3Zm2.9-.008a4.993,4.993,0,0,1,.488-2.234A3.643,3.643,0,0,1,14.93-8.07a3.7,3.7,0,0,1,1.988-.539,3.565,3.565,0,0,1,2.793,1.2,4.6,4.6,0,0,1,1.066,3.18v.1A5.036,5.036,0,0,1,20.3-1.918,3.589,3.589,0,0,1,18.953-.391a3.743,3.743,0,0,1-2.02.547,3.556,3.556,0,0,1-2.785-1.2A4.575,4.575,0,0,1,13.082-4.2Zm1.453.172a3.616,3.616,0,0,0,.652,2.258,2.088,2.088,0,0,0,1.746.852,2.075,2.075,0,0,0,1.75-.863A3.955,3.955,0,0,0,19.332-4.3a3.61,3.61,0,0,0-.66-2.254,2.1,2.1,0,0,0-1.754-.863,2.075,2.075,0,0,0-1.727.852A3.925,3.925,0,0,0,14.535-4.133ZM27.512-2.242a1.064,1.064,0,0,0-.441-.91,4.249,4.249,0,0,0-1.539-.559,7.277,7.277,0,0,1-1.742-.562,2.479,2.479,0,0,1-.953-.781,1.869,1.869,0,0,1-.309-1.078,2.193,2.193,0,0,1,.879-1.758,3.432,3.432,0,0,1,2.246-.719,3.532,3.532,0,0,1,2.332.742,2.357,2.357,0,0,1,.895,1.9H27.426a1.3,1.3,0,0,0-.5-1.023,1.888,1.888,0,0,0-1.27-.43,1.976,1.976,0,0,0-1.234.344,1.082,1.082,0,0,0-.445.9.877.877,0,0,0,.414.789,5.1,5.1,0,0,0,1.5.508,7.8,7.8,0,0,1,1.754.578,2.558,2.558,0,0,1,1,.809,1.988,1.988,0,0,1,.324,1.152,2.163,2.163,0,0,1-.906,1.816A3.8,3.8,0,0,1,25.7.156,4.257,4.257,0,0,1,23.9-.2a2.922,2.922,0,0,1-1.223-1A2.42,2.42,0,0,1,22.238-2.6h1.445a1.5,1.5,0,0,0,.582,1.152,2.258,2.258,0,0,0,1.434.426,2.331,2.331,0,0,0,1.316-.332A1.02,1.02,0,0,0,27.512-2.242Z" transform="translate(1000 1513.734)" fill="#12263f"/>
    <path id="Trazado_879645" data-name="Trazado 879645" d="M-35.258-10.141h-3.656V0h-1.492V-10.141h-3.648v-1.234h8.8ZM-32.227,0h-1.445V-8.453h1.445Zm-1.562-10.7a.863.863,0,0,1,.215-.594.807.807,0,0,1,.637-.242.819.819,0,0,1,.641.242.854.854,0,0,1,.219.594.826.826,0,0,1-.219.586.834.834,0,0,1-.641.234.821.821,0,0,1-.637-.234A.834.834,0,0,1-33.789-10.7Zm11.016,6.563a5.062,5.062,0,0,1-.883,3.109A2.829,2.829,0,0,1-26.047.156,3.1,3.1,0,0,1-28.469-.82V3.25h-1.445v-11.7h1.32l.07.938A2.977,2.977,0,0,1-26.07-8.609a2.882,2.882,0,0,1,2.41,1.148,5.117,5.117,0,0,1,.887,3.2ZM-24.219-4.3a3.735,3.735,0,0,0-.609-2.258A1.963,1.963,0,0,0-26.5-7.383a2.125,2.125,0,0,0-1.969,1.164V-2.18a2.129,2.129,0,0,0,1.984,1.156,1.954,1.954,0,0,0,1.652-.824A4.077,4.077,0,0,0-24.219-4.3Zm2.9-.008a4.993,4.993,0,0,1,.488-2.234A3.643,3.643,0,0,1-19.473-8.07a3.7,3.7,0,0,1,1.988-.539,3.565,3.565,0,0,1,2.793,1.2,4.6,4.6,0,0,1,1.066,3.18v.1A5.036,5.036,0,0,1-14.1-1.918,3.589,3.589,0,0,1-15.449-.391a3.743,3.743,0,0,1-2.02.547,3.556,3.556,0,0,1-2.785-1.2A4.575,4.575,0,0,1-21.32-4.2Zm1.453.172a3.616,3.616,0,0,0,.652,2.258,2.088,2.088,0,0,0,1.746.852,2.075,2.075,0,0,0,1.75-.863A3.955,3.955,0,0,0-15.07-4.3a3.61,3.61,0,0,0-.66-2.254,2.1,2.1,0,0,0-1.754-.863,2.075,2.075,0,0,0-1.727.852A3.925,3.925,0,0,0-19.867-4.133ZM-8.2-4.3a4.952,4.952,0,0,1,.922-3.129A2.915,2.915,0,0,1-4.867-8.609,2.932,2.932,0,0,1-2.516-7.594V-12H-1.07V0H-2.4l-.07-.906A2.943,2.943,0,0,1-4.883.156a2.887,2.887,0,0,1-2.395-1.2A5.008,5.008,0,0,1-8.2-4.187Zm1.445.164a3.749,3.749,0,0,0,.594,2.25,1.92,1.92,0,0,0,1.641.813A2.108,2.108,0,0,0-2.516-2.3V-6.187a2.125,2.125,0,0,0-1.992-1.2,1.929,1.929,0,0,0-1.656.82A4.128,4.128,0,0,0-6.758-4.133ZM4.68.156a3.693,3.693,0,0,1-2.8-1.129A4.19,4.19,0,0,1,.8-3.992v-.266A5.073,5.073,0,0,1,1.285-6.5,3.748,3.748,0,0,1,2.629-8.051,3.378,3.378,0,0,1,4.5-8.609,3.166,3.166,0,0,1,7.063-7.523a4.7,4.7,0,0,1,.914,3.109v.6H2.25a3,3,0,0,0,.73,2.02,2.3,2.3,0,0,0,1.777.77,2.517,2.517,0,0,0,1.3-.312,3.259,3.259,0,0,0,.93-.828l.883.688A3.55,3.55,0,0,1,4.68.156ZM4.5-7.422a1.928,1.928,0,0,0-1.469.637A3.1,3.1,0,0,0,2.3-5H6.531v-.109a2.753,2.753,0,0,0-.594-1.707A1.815,1.815,0,0,0,4.5-7.422ZM13.258-4.3a4.952,4.952,0,0,1,.922-3.129,2.915,2.915,0,0,1,2.414-1.184,2.932,2.932,0,0,1,2.352,1.016V-12h1.445V0H19.063l-.07-.906A2.943,2.943,0,0,1,16.578.156a2.887,2.887,0,0,1-2.395-1.2,5.008,5.008,0,0,1-.926-3.141Zm1.445.164a3.749,3.749,0,0,0,.594,2.25,1.92,1.92,0,0,0,1.641.813A2.108,2.108,0,0,0,18.945-2.3V-6.187a2.125,2.125,0,0,0-1.992-1.2,1.929,1.929,0,0,0-1.656.82A4.128,4.128,0,0,0,14.7-4.133ZM27.852,0a3.036,3.036,0,0,1-.2-.891A3.225,3.225,0,0,1,25.242.156a2.984,2.984,0,0,1-2.051-.707,2.287,2.287,0,0,1-.8-1.793,2.39,2.39,0,0,1,1-2.051,4.733,4.733,0,0,1,2.824-.73h1.406v-.664A1.623,1.623,0,0,0,27.172-7a1.821,1.821,0,0,0-1.336-.449,2.108,2.108,0,0,0-1.3.391,1.151,1.151,0,0,0-.523.945H22.563a2,2,0,0,1,.449-1.223,3.066,3.066,0,0,1,1.219-.934,4.1,4.1,0,0,1,1.691-.344,3.342,3.342,0,0,1,2.289.73,2.635,2.635,0,0,1,.859,2.012v3.891a4.757,4.757,0,0,0,.3,1.852V0Zm-2.4-1.1a2.54,2.54,0,0,0,1.289-.352,2.127,2.127,0,0,0,.883-.914V-4.1H26.492q-2.656,0-2.656,1.555a1.316,1.316,0,0,0,.453,1.063A1.742,1.742,0,0,0,25.453-1.1ZM33.3-10.5v2.047h1.578v1.117H33.3v5.242a1.171,1.171,0,0,0,.211.762.888.888,0,0,0,.719.254,3.5,3.5,0,0,0,.688-.094V0A4.19,4.19,0,0,1,33.8.156,1.8,1.8,0,0,1,32.344-.43a2.517,2.517,0,0,1-.492-1.664V-7.336H30.313V-8.453h1.539V-10.5Zm2.727,6.2a4.993,4.993,0,0,1,.488-2.234A3.643,3.643,0,0,1,37.871-8.07a3.7,3.7,0,0,1,1.988-.539,3.565,3.565,0,0,1,2.793,1.2,4.6,4.6,0,0,1,1.066,3.18v.1a5.036,5.036,0,0,1-.473,2.215A3.589,3.589,0,0,1,41.895-.391a3.743,3.743,0,0,1-2.02.547,3.556,3.556,0,0,1-2.785-1.2A4.575,4.575,0,0,1,36.023-4.2Zm1.453.172a3.616,3.616,0,0,0,.652,2.258,2.088,2.088,0,0,0,1.746.852,2.075,2.075,0,0,0,1.75-.863A3.955,3.955,0,0,0,42.273-4.3a3.61,3.61,0,0,0-.66-2.254,2.1,2.1,0,0,0-1.754-.863,2.075,2.075,0,0,0-1.727.852A3.925,3.925,0,0,0,37.477-4.133Z" transform="translate(1219.711 1513.734)" fill="#12263f"/>
    <path id="Trazado_879646" data-name="Trazado 879646" d="M-38.191-5.023h-4.773V0h-1.5V-11.375h7.047v1.234h-5.547V-6.25h4.773Zm1.8.719a4.993,4.993,0,0,1,.488-2.234A3.643,3.643,0,0,1-34.547-8.07a3.7,3.7,0,0,1,1.988-.539,3.565,3.565,0,0,1,2.793,1.2A4.6,4.6,0,0,1-28.7-4.234v.1a5.036,5.036,0,0,1-.473,2.215A3.589,3.589,0,0,1-30.523-.391a3.743,3.743,0,0,1-2.02.547,3.556,3.556,0,0,1-2.785-1.2A4.575,4.575,0,0,1-36.395-4.2Zm1.453.172a3.616,3.616,0,0,0,.652,2.258,2.088,2.088,0,0,0,1.746.852,2.075,2.075,0,0,0,1.75-.863A3.955,3.955,0,0,0-30.145-4.3a3.61,3.61,0,0,0-.66-2.254,2.1,2.1,0,0,0-1.754-.863,2.075,2.075,0,0,0-1.727.852A3.925,3.925,0,0,0-34.941-4.133ZM-22.8-7.156a4.331,4.331,0,0,0-.711-.055A1.9,1.9,0,0,0-25.441-6V0h-1.445V-8.453h1.406l.023.977a2.251,2.251,0,0,1,2.016-1.133A1.477,1.477,0,0,1-22.8-8.5Zm2.688-1.3.039.938a3.122,3.122,0,0,1,2.508-1.094A2.417,2.417,0,0,1-15.152-7.25a3.2,3.2,0,0,1,1.1-.984,3.242,3.242,0,0,1,1.6-.375q2.781,0,2.828,2.945V0h-1.445V-5.578a1.941,1.941,0,0,0-.414-1.355,1.823,1.823,0,0,0-1.391-.449,1.916,1.916,0,0,0-1.336.48,1.949,1.949,0,0,0-.617,1.293V0h-1.453V-5.539a1.613,1.613,0,0,0-1.8-1.844,1.934,1.934,0,0,0-1.945,1.211V0H-21.48V-8.453ZM-2.23,0a3.036,3.036,0,0,1-.2-.891A3.225,3.225,0,0,1-4.84.156,2.984,2.984,0,0,1-6.891-.551a2.287,2.287,0,0,1-.8-1.793,2.39,2.39,0,0,1,1-2.051,4.733,4.733,0,0,1,2.824-.73h1.406v-.664A1.623,1.623,0,0,0-2.91-7a1.821,1.821,0,0,0-1.336-.449,2.107,2.107,0,0,0-1.3.391,1.151,1.151,0,0,0-.523.945H-7.52A2,2,0,0,1-7.07-7.332a3.066,3.066,0,0,1,1.219-.934A4.1,4.1,0,0,1-4.16-8.609a3.342,3.342,0,0,1,2.289.73,2.635,2.635,0,0,1,.859,2.012v3.891a4.757,4.757,0,0,0,.3,1.852V0Zm-2.4-1.1A2.54,2.54,0,0,0-3.34-1.453a2.127,2.127,0,0,0,.883-.914V-4.1H-3.59q-2.656,0-2.656,1.555a1.316,1.316,0,0,0,.453,1.063A1.742,1.742,0,0,0-4.629-1.1ZM.9-4.3a4.952,4.952,0,0,1,.922-3.129A2.915,2.915,0,0,1,4.238-8.609,2.932,2.932,0,0,1,6.59-7.594V-12H8.035V0H6.707l-.07-.906A2.943,2.943,0,0,1,4.223.156a2.887,2.887,0,0,1-2.395-1.2A5.008,5.008,0,0,1,.9-4.187Zm1.445.164a3.749,3.749,0,0,0,.594,2.25,1.92,1.92,0,0,0,1.641.813A2.108,2.108,0,0,0,6.59-2.3V-6.187A2.125,2.125,0,0,0,4.6-7.383a1.929,1.929,0,0,0-1.656.82A4.128,4.128,0,0,0,2.348-4.133ZM9.895-4.3a4.993,4.993,0,0,1,.488-2.234A3.643,3.643,0,0,1,11.742-8.07a3.7,3.7,0,0,1,1.988-.539,3.565,3.565,0,0,1,2.793,1.2,4.6,4.6,0,0,1,1.066,3.18v.1a5.036,5.036,0,0,1-.473,2.215A3.589,3.589,0,0,1,15.766-.391a3.743,3.743,0,0,1-2.02.547,3.556,3.556,0,0,1-2.785-1.2A4.575,4.575,0,0,1,9.895-4.2Zm1.453.172A3.616,3.616,0,0,0,12-1.875a2.088,2.088,0,0,0,1.746.852,2.075,2.075,0,0,0,1.75-.863A3.955,3.955,0,0,0,16.145-4.3a3.61,3.61,0,0,0-.66-2.254,2.1,2.1,0,0,0-1.754-.863A2.075,2.075,0,0,0,12-6.57,3.925,3.925,0,0,0,11.348-4.133Zm19.156,0a5.062,5.062,0,0,1-.883,3.109A2.829,2.829,0,0,1,27.23.156,3.1,3.1,0,0,1,24.809-.82V3.25H23.363v-11.7h1.32l.07.938a2.977,2.977,0,0,1,2.453-1.094,2.882,2.882,0,0,1,2.41,1.148,5.117,5.117,0,0,1,.887,3.2ZM29.059-4.3a3.735,3.735,0,0,0-.609-2.258,1.963,1.963,0,0,0-1.672-.828,2.125,2.125,0,0,0-1.969,1.164V-2.18a2.129,2.129,0,0,0,1.984,1.156,1.954,1.954,0,0,0,1.652-.824A4.077,4.077,0,0,0,29.059-4.3Zm2.9-.008a4.993,4.993,0,0,1,.488-2.234A3.643,3.643,0,0,1,33.8-8.07a3.7,3.7,0,0,1,1.988-.539,3.565,3.565,0,0,1,2.793,1.2,4.6,4.6,0,0,1,1.066,3.18v.1a5.036,5.036,0,0,1-.473,2.215A3.589,3.589,0,0,1,37.828-.391a3.743,3.743,0,0,1-2.02.547,3.556,3.556,0,0,1-2.785-1.2A4.575,4.575,0,0,1,31.957-4.2Zm1.453.172a3.616,3.616,0,0,0,.652,2.258,2.088,2.088,0,0,0,1.746.852,2.075,2.075,0,0,0,1.75-.863A3.955,3.955,0,0,0,38.207-4.3a3.61,3.61,0,0,0-.66-2.254,2.1,2.1,0,0,0-1.754-.863,2.075,2.075,0,0,0-1.727.852A3.925,3.925,0,0,0,33.41-4.133ZM45.551-7.156a4.331,4.331,0,0,0-.711-.055A1.9,1.9,0,0,0,42.91-6V0H41.465V-8.453h1.406l.023.977A2.251,2.251,0,0,1,44.91-8.609a1.477,1.477,0,0,1,.641.109Z" transform="translate(494.711 1433)" fill="#12263f"/>
    <path id="Trazado_879647" data-name="Trazado 879647" d="M-42.316-5.023H-47.09V0h-1.5V-11.375h7.047v1.234H-47.09V-6.25h4.773Zm1.8.719a4.993,4.993,0,0,1,.488-2.234A3.643,3.643,0,0,1-38.672-8.07a3.7,3.7,0,0,1,1.988-.539,3.565,3.565,0,0,1,2.793,1.2,4.6,4.6,0,0,1,1.066,3.18v.1A5.036,5.036,0,0,1-33.3-1.918,3.589,3.589,0,0,1-34.648-.391a3.743,3.743,0,0,1-2.02.547,3.556,3.556,0,0,1-2.785-1.2A4.575,4.575,0,0,1-40.52-4.2Zm1.453.172a3.616,3.616,0,0,0,.652,2.258,2.088,2.088,0,0,0,1.746.852,2.075,2.075,0,0,0,1.75-.863A3.955,3.955,0,0,0-34.27-4.3a3.61,3.61,0,0,0-.66-2.254,2.1,2.1,0,0,0-1.754-.863,2.075,2.075,0,0,0-1.727.852A3.925,3.925,0,0,0-39.066-4.133Zm12.141-3.023a4.331,4.331,0,0,0-.711-.055A1.9,1.9,0,0,0-29.566-6V0h-1.445V-8.453h1.406l.023.977a2.251,2.251,0,0,1,2.016-1.133,1.477,1.477,0,0,1,.641.109Zm2.688-1.3.039.938a3.122,3.122,0,0,1,2.508-1.094A2.417,2.417,0,0,1-19.277-7.25a3.2,3.2,0,0,1,1.1-.984,3.242,3.242,0,0,1,1.6-.375q2.781,0,2.828,2.945V0H-15.2V-5.578a1.941,1.941,0,0,0-.414-1.355A1.823,1.823,0,0,0-17-7.383a1.916,1.916,0,0,0-1.336.48,1.949,1.949,0,0,0-.617,1.293V0H-20.41V-5.539a1.613,1.613,0,0,0-1.8-1.844A1.934,1.934,0,0,0-24.16-6.172V0h-1.445V-8.453ZM-6.355,0a3.036,3.036,0,0,1-.2-.891A3.225,3.225,0,0,1-8.965.156a2.984,2.984,0,0,1-2.051-.707,2.287,2.287,0,0,1-.8-1.793,2.39,2.39,0,0,1,1-2.051,4.733,4.733,0,0,1,2.824-.73h1.406v-.664A1.623,1.623,0,0,0-7.035-7a1.821,1.821,0,0,0-1.336-.449,2.107,2.107,0,0,0-1.3.391,1.151,1.151,0,0,0-.523.945h-1.453A2,2,0,0,1-11.2-7.332a3.066,3.066,0,0,1,1.219-.934,4.1,4.1,0,0,1,1.691-.344A3.342,3.342,0,0,1-6-7.879a2.635,2.635,0,0,1,.859,2.012v3.891a4.757,4.757,0,0,0,.3,1.852V0Zm-2.4-1.1a2.54,2.54,0,0,0,1.289-.352,2.127,2.127,0,0,0,.883-.914V-4.1H-7.715q-2.656,0-2.656,1.555a1.316,1.316,0,0,0,.453,1.063A1.742,1.742,0,0,0-8.754-1.1Zm5.531-3.2A4.952,4.952,0,0,1-2.3-7.426,2.915,2.915,0,0,1,.113-8.609,2.932,2.932,0,0,1,2.465-7.594V-12H3.91V0H2.582l-.07-.906A2.943,2.943,0,0,1,.1.156,2.887,2.887,0,0,1-2.3-1.047a5.008,5.008,0,0,1-.926-3.141Zm1.445.164a3.749,3.749,0,0,0,.594,2.25A1.92,1.92,0,0,0,.457-1.07,2.108,2.108,0,0,0,2.465-2.3V-6.187a2.125,2.125,0,0,0-1.992-1.2,1.929,1.929,0,0,0-1.656.82A4.128,4.128,0,0,0-1.777-4.133ZM5.77-4.3a4.993,4.993,0,0,1,.488-2.234A3.643,3.643,0,0,1,7.617-8.07a3.7,3.7,0,0,1,1.988-.539,3.565,3.565,0,0,1,2.793,1.2,4.6,4.6,0,0,1,1.066,3.18v.1a5.036,5.036,0,0,1-.473,2.215A3.589,3.589,0,0,1,11.641-.391a3.743,3.743,0,0,1-2.02.547,3.556,3.556,0,0,1-2.785-1.2A4.575,4.575,0,0,1,5.77-4.2Zm1.453.172a3.616,3.616,0,0,0,.652,2.258,2.088,2.088,0,0,0,1.746.852,2.075,2.075,0,0,0,1.75-.863A3.955,3.955,0,0,0,12.02-4.3a3.61,3.61,0,0,0-.66-2.254,2.1,2.1,0,0,0-1.754-.863,2.075,2.075,0,0,0-1.727.852A3.925,3.925,0,0,0,7.223-4.133ZM20.2-2.242a1.064,1.064,0,0,0-.441-.91,4.249,4.249,0,0,0-1.539-.559,7.277,7.277,0,0,1-1.742-.562,2.479,2.479,0,0,1-.953-.781,1.869,1.869,0,0,1-.309-1.078,2.193,2.193,0,0,1,.879-1.758,3.432,3.432,0,0,1,2.246-.719,3.532,3.532,0,0,1,2.332.742,2.357,2.357,0,0,1,.895,1.9H20.113a1.3,1.3,0,0,0-.5-1.023,1.888,1.888,0,0,0-1.27-.43,1.976,1.976,0,0,0-1.234.344,1.082,1.082,0,0,0-.445.9.877.877,0,0,0,.414.789,5.1,5.1,0,0,0,1.5.508,7.8,7.8,0,0,1,1.754.578,2.558,2.558,0,0,1,1,.809,1.988,1.988,0,0,1,.324,1.152,2.163,2.163,0,0,1-.906,1.816,3.8,3.8,0,0,1-2.352.684A4.257,4.257,0,0,1,16.59-.2a2.922,2.922,0,0,1-1.223-1A2.42,2.42,0,0,1,14.926-2.6h1.445a1.5,1.5,0,0,0,.582,1.152,2.258,2.258,0,0,0,1.434.426A2.331,2.331,0,0,0,19.7-1.355,1.02,1.02,0,0,0,20.2-2.242Zm14.43-1.891a5.062,5.062,0,0,1-.883,3.109A2.829,2.829,0,0,1,31.355.156,3.1,3.1,0,0,1,28.934-.82V3.25H27.488v-11.7h1.32l.07.938a2.977,2.977,0,0,1,2.453-1.094,2.882,2.882,0,0,1,2.41,1.148,5.117,5.117,0,0,1,.887,3.2ZM33.184-4.3a3.735,3.735,0,0,0-.609-2.258A1.963,1.963,0,0,0,30.9-7.383a2.125,2.125,0,0,0-1.969,1.164V-2.18a2.129,2.129,0,0,0,1.984,1.156,1.954,1.954,0,0,0,1.652-.824A4.077,4.077,0,0,0,33.184-4.3Zm2.9-.008a4.993,4.993,0,0,1,.488-2.234A3.643,3.643,0,0,1,37.93-8.07a3.7,3.7,0,0,1,1.988-.539,3.565,3.565,0,0,1,2.793,1.2,4.6,4.6,0,0,1,1.066,3.18v.1A5.036,5.036,0,0,1,43.3-1.918,3.589,3.589,0,0,1,41.953-.391a3.743,3.743,0,0,1-2.02.547,3.556,3.556,0,0,1-2.785-1.2A4.575,4.575,0,0,1,36.082-4.2Zm1.453.172a3.616,3.616,0,0,0,.652,2.258,2.088,2.088,0,0,0,1.746.852,2.075,2.075,0,0,0,1.75-.863A3.955,3.955,0,0,0,42.332-4.3a3.61,3.61,0,0,0-.66-2.254,2.1,2.1,0,0,0-1.754-.863,2.075,2.075,0,0,0-1.727.852A3.925,3.925,0,0,0,37.535-4.133ZM49.676-7.156a4.331,4.331,0,0,0-.711-.055A1.9,1.9,0,0,0,47.035-6V0H45.59V-8.453H47l.023.977a2.251,2.251,0,0,1,2.016-1.133,1.477,1.477,0,0,1,.641.109Z" transform="translate(891 1433)" fill="#12263f"/>
    <path id="Trazado_879648" data-name="Trazado 879648" d="M-47.121-2.969h-4.766L-52.957,0H-54.5l4.344-11.375h1.313L-44.5,0h-1.539ZM-51.434-4.2h3.867L-49.5-9.523ZM-38.27-2.242a1.064,1.064,0,0,0-.441-.91,4.249,4.249,0,0,0-1.539-.559,7.277,7.277,0,0,1-1.742-.562,2.479,2.479,0,0,1-.953-.781,1.869,1.869,0,0,1-.309-1.078,2.193,2.193,0,0,1,.879-1.758,3.432,3.432,0,0,1,2.246-.719,3.532,3.532,0,0,1,2.332.742,2.357,2.357,0,0,1,.895,1.9h-1.453a1.3,1.3,0,0,0-.5-1.023,1.888,1.888,0,0,0-1.27-.43,1.976,1.976,0,0,0-1.234.344,1.082,1.082,0,0,0-.445.9.877.877,0,0,0,.414.789,5.1,5.1,0,0,0,1.5.508,7.8,7.8,0,0,1,1.754.578,2.558,2.558,0,0,1,1,.809,1.988,1.988,0,0,1,.324,1.152A2.163,2.163,0,0,1-37.73-.527a3.8,3.8,0,0,1-2.352.684,4.257,4.257,0,0,1-1.8-.359,2.922,2.922,0,0,1-1.223-1A2.42,2.42,0,0,1-43.543-2.6H-42.1a1.5,1.5,0,0,0,.582,1.152,2.258,2.258,0,0,0,1.434.426,2.331,2.331,0,0,0,1.316-.332A1.02,1.02,0,0,0-38.27-2.242ZM-35.324-4.3a4.993,4.993,0,0,1,.488-2.234A3.643,3.643,0,0,1-33.477-8.07a3.7,3.7,0,0,1,1.988-.539,3.565,3.565,0,0,1,2.793,1.2,4.6,4.6,0,0,1,1.066,3.18v.1A5.036,5.036,0,0,1-28.1-1.918,3.589,3.589,0,0,1-29.453-.391a3.743,3.743,0,0,1-2.02.547,3.556,3.556,0,0,1-2.785-1.2A4.575,4.575,0,0,1-35.324-4.2Zm1.453.172a3.616,3.616,0,0,0,.652,2.258,2.088,2.088,0,0,0,1.746.852,2.075,2.075,0,0,0,1.75-.863A3.955,3.955,0,0,0-29.074-4.3a3.61,3.61,0,0,0-.66-2.254,2.1,2.1,0,0,0-1.754-.863,2.075,2.075,0,0,0-1.727.852A3.925,3.925,0,0,0-33.871-4.133Zm11.445,3.109a2.082,2.082,0,0,0,1.352-.469,1.649,1.649,0,0,0,.641-1.172h1.367a2.621,2.621,0,0,1-.5,1.383A3.293,3.293,0,0,1-20.8-.234a3.55,3.55,0,0,1-1.629.391A3.482,3.482,0,0,1-25.172-1a4.59,4.59,0,0,1-1.02-3.152v-.242a5.089,5.089,0,0,1,.453-2.2,3.451,3.451,0,0,1,1.3-1.492,3.7,3.7,0,0,1,2-.531,3.39,3.39,0,0,1,2.363.852,3.043,3.043,0,0,1,1,2.211h-1.367a1.992,1.992,0,0,0-.621-1.348,1.932,1.932,0,0,0-1.379-.527,2.023,2.023,0,0,0-1.707.793,3.724,3.724,0,0,0-.605,2.293v.273a3.65,3.65,0,0,0,.6,2.25A2.033,2.033,0,0,0-22.426-1.023ZM-15.871,0h-1.445V-8.453h1.445Zm-1.562-10.7a.863.863,0,0,1,.215-.594.807.807,0,0,1,.637-.242.819.819,0,0,1,.641.242.854.854,0,0,1,.219.594.826.826,0,0,1-.219.586.834.834,0,0,1-.641.234.821.821,0,0,1-.637-.234A.834.834,0,0,1-17.434-10.7ZM-8.34,0a3.036,3.036,0,0,1-.2-.891A3.225,3.225,0,0,1-10.949.156,2.984,2.984,0,0,1-13-.551a2.287,2.287,0,0,1-.8-1.793,2.39,2.39,0,0,1,1-2.051,4.733,4.733,0,0,1,2.824-.73h1.406v-.664A1.623,1.623,0,0,0-9.02-7a1.821,1.821,0,0,0-1.336-.449,2.107,2.107,0,0,0-1.3.391,1.151,1.151,0,0,0-.523.945h-1.453a2,2,0,0,1,.449-1.223,3.066,3.066,0,0,1,1.219-.934,4.1,4.1,0,0,1,1.691-.344,3.342,3.342,0,0,1,2.289.73,2.635,2.635,0,0,1,.859,2.012v3.891a4.757,4.757,0,0,0,.3,1.852V0Zm-2.4-1.1a2.54,2.54,0,0,0,1.289-.352,2.127,2.127,0,0,0,.883-.914V-4.1H-9.7q-2.656,0-2.656,1.555A1.316,1.316,0,0,0-11.9-1.484,1.742,1.742,0,0,0-10.738-1.1Zm5.531-3.2a4.952,4.952,0,0,1,.922-3.129A2.915,2.915,0,0,1-1.871-8.609,2.932,2.932,0,0,1,.48-7.594V-12H1.926V0H.6L.527-.906A2.943,2.943,0,0,1-1.887.156a2.887,2.887,0,0,1-2.395-1.2,5.008,5.008,0,0,1-.926-3.141Zm1.445.164a3.749,3.749,0,0,0,.594,2.25,1.92,1.92,0,0,0,1.641.813A2.108,2.108,0,0,0,.48-2.3V-6.187a2.125,2.125,0,0,0-1.992-1.2,1.929,1.929,0,0,0-1.656.82A4.128,4.128,0,0,0-3.762-4.133ZM3.785-4.3a4.993,4.993,0,0,1,.488-2.234A3.643,3.643,0,0,1,5.633-8.07a3.7,3.7,0,0,1,1.988-.539,3.565,3.565,0,0,1,2.793,1.2,4.6,4.6,0,0,1,1.066,3.18v.1a5.036,5.036,0,0,1-.473,2.215A3.589,3.589,0,0,1,9.656-.391a3.743,3.743,0,0,1-2.02.547,3.556,3.556,0,0,1-2.785-1.2A4.575,4.575,0,0,1,3.785-4.2Zm1.453.172a3.616,3.616,0,0,0,.652,2.258,2.088,2.088,0,0,0,1.746.852,2.075,2.075,0,0,0,1.75-.863A3.955,3.955,0,0,0,10.035-4.3a3.61,3.61,0,0,0-.66-2.254,2.1,2.1,0,0,0-1.754-.863,2.075,2.075,0,0,0-1.727.852A3.925,3.925,0,0,0,5.238-4.133ZM18.215-2.242a1.064,1.064,0,0,0-.441-.91,4.249,4.249,0,0,0-1.539-.559,7.277,7.277,0,0,1-1.742-.562,2.479,2.479,0,0,1-.953-.781,1.869,1.869,0,0,1-.309-1.078,2.193,2.193,0,0,1,.879-1.758,3.432,3.432,0,0,1,2.246-.719,3.532,3.532,0,0,1,2.332.742,2.357,2.357,0,0,1,.895,1.9H18.129a1.3,1.3,0,0,0-.5-1.023,1.888,1.888,0,0,0-1.27-.43,1.976,1.976,0,0,0-1.234.344,1.082,1.082,0,0,0-.445.9.877.877,0,0,0,.414.789,5.1,5.1,0,0,0,1.5.508A7.8,7.8,0,0,1,18.34-4.3a2.558,2.558,0,0,1,1,.809,1.988,1.988,0,0,1,.324,1.152,2.163,2.163,0,0,1-.906,1.816A3.8,3.8,0,0,1,16.4.156a4.257,4.257,0,0,1-1.8-.359,2.922,2.922,0,0,1-1.223-1A2.42,2.42,0,0,1,12.941-2.6h1.445a1.5,1.5,0,0,0,.582,1.152,2.258,2.258,0,0,0,1.434.426,2.331,2.331,0,0,0,1.316-.332A1.02,1.02,0,0,0,18.215-2.242ZM30.723,0a3.036,3.036,0,0,1-.2-.891A3.225,3.225,0,0,1,28.113.156a2.984,2.984,0,0,1-2.051-.707,2.287,2.287,0,0,1-.8-1.793,2.39,2.39,0,0,1,1-2.051,4.733,4.733,0,0,1,2.824-.73H30.5v-.664A1.623,1.623,0,0,0,30.043-7a1.821,1.821,0,0,0-1.336-.449,2.108,2.108,0,0,0-1.3.391,1.151,1.151,0,0,0-.523.945H25.434a2,2,0,0,1,.449-1.223A3.066,3.066,0,0,1,27.1-8.266a4.1,4.1,0,0,1,1.691-.344,3.342,3.342,0,0,1,2.289.73,2.635,2.635,0,0,1,.859,2.012v3.891a4.757,4.757,0,0,0,.3,1.852V0Zm-2.4-1.1a2.54,2.54,0,0,0,1.289-.352,2.127,2.127,0,0,0,.883-.914V-4.1H29.363q-2.656,0-2.656,1.555a1.316,1.316,0,0,0,.453,1.063A1.742,1.742,0,0,0,28.324-1.1Zm15.063.266A3.07,3.07,0,0,1,40.91.156a2.628,2.628,0,0,1-2.059-.785,3.4,3.4,0,0,1-.715-2.324v-5.5h1.445v5.461q0,1.922,1.563,1.922a2.163,2.163,0,0,0,2.2-1.234V-8.453h1.445V0H43.418Zm4.969-7.617L48.4-7.391a3.08,3.08,0,0,1,2.531-1.219q2.68,0,2.7,3.023V0H52.191V-5.594a1.946,1.946,0,0,0-.418-1.352A1.675,1.675,0,0,0,50.5-7.383a2.086,2.086,0,0,0-1.234.375,2.546,2.546,0,0,0-.828.984V0H46.988V-8.453Z" transform="translate(1100 1433)" fill="#12263f"/>
    <path id="Trazado_879649" data-name="Trazado 879649" d="M-42.105-5.023h-4.773V0h-1.5V-11.375h7.047v1.234h-5.547V-6.25h4.773Zm1.8.719a4.993,4.993,0,0,1,.488-2.234A3.643,3.643,0,0,1-38.461-8.07a3.7,3.7,0,0,1,1.988-.539,3.565,3.565,0,0,1,2.793,1.2,4.6,4.6,0,0,1,1.066,3.18v.1a5.036,5.036,0,0,1-.473,2.215A3.589,3.589,0,0,1-34.437-.391a3.743,3.743,0,0,1-2.02.547,3.556,3.556,0,0,1-2.785-1.2A4.575,4.575,0,0,1-40.309-4.2Zm1.453.172A3.616,3.616,0,0,0-38.2-1.875a2.088,2.088,0,0,0,1.746.852,2.075,2.075,0,0,0,1.75-.863A3.955,3.955,0,0,0-34.059-4.3a3.61,3.61,0,0,0-.66-2.254,2.1,2.1,0,0,0-1.754-.863A2.075,2.075,0,0,0-38.2-6.57,3.925,3.925,0,0,0-38.855-4.133Zm12.141-3.023a4.331,4.331,0,0,0-.711-.055A1.9,1.9,0,0,0-29.355-6V0H-30.8V-8.453h1.406l.023.977a2.251,2.251,0,0,1,2.016-1.133,1.477,1.477,0,0,1,.641.109Zm2.688-1.3.039.938A3.122,3.122,0,0,1-21.48-8.609,2.417,2.417,0,0,1-19.066-7.25a3.2,3.2,0,0,1,1.1-.984,3.242,3.242,0,0,1,1.6-.375q2.781,0,2.828,2.945V0h-1.445V-5.578A1.941,1.941,0,0,0-15.4-6.934a1.823,1.823,0,0,0-1.391-.449,1.916,1.916,0,0,0-1.336.48,1.949,1.949,0,0,0-.617,1.293V0H-20.2V-5.539A1.613,1.613,0,0,0-22-7.383a1.934,1.934,0,0,0-1.945,1.211V0h-1.445V-8.453ZM-6.145,0a3.036,3.036,0,0,1-.2-.891A3.225,3.225,0,0,1-8.754.156,2.984,2.984,0,0,1-10.8-.551a2.287,2.287,0,0,1-.8-1.793,2.39,2.39,0,0,1,1-2.051,4.733,4.733,0,0,1,2.824-.73h1.406v-.664A1.623,1.623,0,0,0-6.824-7,1.821,1.821,0,0,0-8.16-7.445a2.107,2.107,0,0,0-1.3.391,1.151,1.151,0,0,0-.523.945h-1.453a2,2,0,0,1,.449-1.223,3.066,3.066,0,0,1,1.219-.934,4.1,4.1,0,0,1,1.691-.344,3.342,3.342,0,0,1,2.289.73,2.635,2.635,0,0,1,.859,2.012v3.891a4.757,4.757,0,0,0,.3,1.852V0Zm-2.4-1.1a2.54,2.54,0,0,0,1.289-.352,2.127,2.127,0,0,0,.883-.914V-4.1H-7.5q-2.656,0-2.656,1.555a1.316,1.316,0,0,0,.453,1.063A1.742,1.742,0,0,0-8.543-1.1Zm5.531-3.2A4.952,4.952,0,0,1-2.09-7.426,2.915,2.915,0,0,1,.324-8.609,2.932,2.932,0,0,1,2.676-7.594V-12H4.121V0H2.793l-.07-.906A2.943,2.943,0,0,1,.309.156a2.887,2.887,0,0,1-2.395-1.2,5.008,5.008,0,0,1-.926-3.141Zm1.445.164a3.749,3.749,0,0,0,.594,2.25A1.92,1.92,0,0,0,.668-1.07,2.108,2.108,0,0,0,2.676-2.3V-6.187a2.125,2.125,0,0,0-1.992-1.2,1.929,1.929,0,0,0-1.656.82A4.128,4.128,0,0,0-1.566-4.133ZM11.582,0a3.036,3.036,0,0,1-.2-.891A3.225,3.225,0,0,1,8.973.156,2.984,2.984,0,0,1,6.922-.551a2.287,2.287,0,0,1-.8-1.793,2.39,2.39,0,0,1,1-2.051,4.733,4.733,0,0,1,2.824-.73h1.406v-.664A1.623,1.623,0,0,0,10.9-7a1.821,1.821,0,0,0-1.336-.449,2.107,2.107,0,0,0-1.3.391,1.151,1.151,0,0,0-.523.945H6.293a2,2,0,0,1,.449-1.223,3.066,3.066,0,0,1,1.219-.934,4.1,4.1,0,0,1,1.691-.344,3.342,3.342,0,0,1,2.289.73A2.635,2.635,0,0,1,12.8-5.867v3.891a4.757,4.757,0,0,0,.3,1.852V0Zm-2.4-1.1a2.54,2.54,0,0,0,1.289-.352,2.127,2.127,0,0,0,.883-.914V-4.1H10.223q-2.656,0-2.656,1.555A1.316,1.316,0,0,0,8.02-1.484,1.742,1.742,0,0,0,9.184-1.1Zm10.8-1.141a1.064,1.064,0,0,0-.441-.91,4.249,4.249,0,0,0-1.539-.559,7.277,7.277,0,0,1-1.742-.562,2.479,2.479,0,0,1-.953-.781A1.869,1.869,0,0,1,15-6.133a2.193,2.193,0,0,1,.879-1.758,3.432,3.432,0,0,1,2.246-.719,3.532,3.532,0,0,1,2.332.742,2.357,2.357,0,0,1,.895,1.9H19.9a1.3,1.3,0,0,0-.5-1.023,1.888,1.888,0,0,0-1.27-.43,1.976,1.976,0,0,0-1.234.344,1.082,1.082,0,0,0-.445.9.877.877,0,0,0,.414.789,5.1,5.1,0,0,0,1.5.508,7.8,7.8,0,0,1,1.754.578,2.558,2.558,0,0,1,1,.809,1.988,1.988,0,0,1,.324,1.152,2.163,2.163,0,0,1-.906,1.816,3.8,3.8,0,0,1-2.352.684,4.257,4.257,0,0,1-1.8-.359,2.922,2.922,0,0,1-1.223-1A2.42,2.42,0,0,1,14.715-2.6H16.16a1.5,1.5,0,0,0,.582,1.152,2.258,2.258,0,0,0,1.434.426,2.331,2.331,0,0,0,1.316-.332A1.02,1.02,0,0,0,19.988-2.242Zm14.43-1.891a5.062,5.062,0,0,1-.883,3.109A2.829,2.829,0,0,1,31.145.156,3.1,3.1,0,0,1,28.723-.82V3.25H27.277v-11.7H28.6l.07.938a2.977,2.977,0,0,1,2.453-1.094,2.882,2.882,0,0,1,2.41,1.148,5.117,5.117,0,0,1,.887,3.2ZM32.973-4.3a3.735,3.735,0,0,0-.609-2.258,1.963,1.963,0,0,0-1.672-.828,2.125,2.125,0,0,0-1.969,1.164V-2.18a2.129,2.129,0,0,0,1.984,1.156,1.954,1.954,0,0,0,1.652-.824A4.077,4.077,0,0,0,32.973-4.3Zm2.9-.008a4.993,4.993,0,0,1,.488-2.234A3.643,3.643,0,0,1,37.719-8.07a3.7,3.7,0,0,1,1.988-.539,3.565,3.565,0,0,1,2.793,1.2,4.6,4.6,0,0,1,1.066,3.18v.1a5.036,5.036,0,0,1-.473,2.215A3.589,3.589,0,0,1,41.742-.391a3.743,3.743,0,0,1-2.02.547,3.556,3.556,0,0,1-2.785-1.2A4.575,4.575,0,0,1,35.871-4.2Zm1.453.172a3.616,3.616,0,0,0,.652,2.258,2.088,2.088,0,0,0,1.746.852,2.075,2.075,0,0,0,1.75-.863A3.955,3.955,0,0,0,42.121-4.3a3.61,3.61,0,0,0-.66-2.254,2.1,2.1,0,0,0-1.754-.863,2.075,2.075,0,0,0-1.727.852A3.925,3.925,0,0,0,37.324-4.133ZM49.465-7.156a4.331,4.331,0,0,0-.711-.055A1.9,1.9,0,0,0,46.824-6V0H45.379V-8.453h1.406l.023.977a2.251,2.251,0,0,1,2.016-1.133,1.477,1.477,0,0,1,.641.109Z" transform="translate(669.711 1433)" fill="#12263f"/>
    <path id="Trazado_879650" data-name="Trazado 879650" d="M5448.71,11738v-22h-6l11-16,11,16h-6v22Z" transform="translate(3577.181 -11071.506) rotate(39)" fill="#81c74d"/>
    <path id="Trazado_879651" data-name="Trazado 879651" d="M5448.71,11738v-22h-6l11-16,11,16h-6v22Z" transform="translate(3750.181 -11071.506) rotate(39)" fill="#81c74d"/>
    <path id="Trazado_879652" data-name="Trazado 879652" d="M5448.71,11738v-22h-6l11-16,11,16h-6v22Z" transform="translate(11132.553 8890.096) rotate(150)" fill="#81c74d"/>
    <path id="Trazado_879653" data-name="Trazado 879653" d="M5448.71,11738v-22h-6l11-16,11,16h-6v22Z" transform="translate(11318.526 8890.096) rotate(150)" fill="#81c74d"/>
    <path id="Trazado_879654" data-name="Trazado 879654" d="M5448.71,11738v-22h-6l11-16,11,16h-6v22Z" transform="translate(11539.526 8890.096) rotate(150)" fill="#81c74d"/>
    <path id="Trazado_879655" data-name="Trazado 879655" d="M5448.71,11738v-22h-6l11-16,11,16h-6v22Z" transform="translate(11756.58 8890.096) rotate(150)" fill="#81c74d"/>
    <path id="Trazado_879656" data-name="Trazado 879656" d="M5448.71,11738v-22h-6l11-16,11,16h-6v22Z" transform="translate(3974.181 -11071.506) rotate(39)" fill="#81c74d"/>
    <path id="Trazado_879657" data-name="Trazado 879657" d="M5448.71,11738v-22h-6l11-16,11,16h-6v22Z" transform="translate(4175.182 -11071.506) rotate(39)" fill="#81c74d"/>
  </g>
</svg>
