<svg xmlns="http://www.w3.org/2000/svg" xmlns:xlink="http://www.w3.org/1999/xlink" width="85" height="85" viewBox="0 0 85 85">
  <defs>
    <clipPath id="clip-path">
      <rect id="Rectángulo_403250" data-name="Rectángulo 403250" width="60" height="59" transform="translate(402 6458.336)" fill="#fff" stroke="#707070" stroke-width="1"/>
    </clipPath>
    <clipPath id="clip-path-2">
      <path id="path3201" d="M0-59H59V0H0Z"/>
    </clipPath>
  </defs>
  <g id="Grupo_1101965" data-name="Grupo 1101965" transform="translate(-389 -6445.336)">
    <circle id="Elipse_11630" data-name="Elipse 11630" cx="42.5" cy="42.5" r="42.5" transform="translate(389 6445.336)" fill="#fec009"/>
    <g id="Enmascarar_grupo_1098813" data-name="Enmascarar grupo 1098813" clip-path="url(#clip-path)">
      <g id="g3195" transform="translate(402.5 6517.336)">
        <g id="g3197">
          <g id="g3199" clip-path="url(#clip-path-2)">
            <g id="g3205" transform="translate(10.77 -37.511)">
              <path id="path3207" d="M0,0A2.311,2.311,0,0,0,2.311-2.311,2.311,2.311,0,0,0,0-4.623a2.329,2.329,0,0,0-.393.034c0-.011,0-.023,0-.034a3.4,3.4,0,0,0-3.4-3.4,3.4,3.4,0,0,0-3.4,3.4c0,.011,0,.023,0,.034a2.33,2.33,0,0,0-.393-.034A2.311,2.311,0,0,0-9.905-2.311,2.311,2.311,0,0,0-7.594,0Z" fill="#d5e8ed"/>
            </g>
            <g id="g3209" transform="translate(11.362 -42.053)">
              <path id="path3211" d="M0,0A2.236,2.236,0,0,0-.986-.047c0-.011,0-.023,0-.034a3.4,3.4,0,0,0-3.4-3.4,3.392,3.392,0,0,0-2.3.9A3.411,3.411,0,0,1-5.76-1.123,1.657,1.657,0,0,0-4.632-.006L-4.609,0A2.337,2.337,0,0,1-2.892,2.134,2.311,2.311,0,0,1-5.2,4.542H-.592A2.311,2.311,0,0,0,1.717,2.134,2.337,2.337,0,0,0,0,0" fill="#bae1eb"/>
            </g>
            <g id="g3213" transform="translate(45.315 -50.109)">
              <path id="path3215" d="M0,0A2.311,2.311,0,0,0,2.311-2.311,2.311,2.311,0,0,0,0-4.623a2.331,2.331,0,0,0-.394.034c0-.011,0-.023,0-.034a3.4,3.4,0,0,0-3.4-3.4,3.4,3.4,0,0,0-3.4,3.4c0,.011,0,.023,0,.034a2.331,2.331,0,0,0-.393-.034A2.311,2.311,0,0,0-9.905-2.311,2.311,2.311,0,0,0-7.594,0Z" fill="#d5e8ed"/>
            </g>
            <g id="g3217" transform="translate(45.904 -54.652)">
              <path id="path3219" d="M0,0A2.238,2.238,0,0,0-.982-.046c0-.012,0-.023,0-.034a3.4,3.4,0,0,0-3.4-3.4,3.392,3.392,0,0,0-2.3.9,3.412,3.412,0,0,1,.936,1.469A1.644,1.644,0,0,0-4.632-.006L-4.609,0a2.337,2.337,0,0,1,1.72,2.13A2.311,2.311,0,0,1-5.2,4.543H-.589A2.311,2.311,0,0,0,1.72,2.13,2.337,2.337,0,0,0,0,0" fill="#bae1eb"/>
            </g>
            <g id="g3221" transform="translate(55.824 -39.876)">
              <path id="path3223" d="M0,0A2.311,2.311,0,0,0,2.311-2.311,2.311,2.311,0,0,0,0-4.623a2.329,2.329,0,0,0-.393.034c0-.011,0-.023,0-.034a3.4,3.4,0,0,0-3.4-3.4,3.4,3.4,0,0,0-3.4,3.4c0,.011,0,.023,0,.034a2.33,2.33,0,0,0-.393-.034A2.311,2.311,0,0,0-9.905-2.311,2.311,2.311,0,0,0-7.594,0Z" fill="#d5e8ed"/>
            </g>
            <g id="g3225" transform="translate(56.418 -44.418)">
              <path id="path3227" d="M0,0A2.238,2.238,0,0,0-.987-.047c0-.011,0-.023,0-.034a3.4,3.4,0,0,0-3.4-3.4,3.392,3.392,0,0,0-2.3.9,3.411,3.411,0,0,1,.936,1.469A1.639,1.639,0,0,0-4.64-.008L-4.609,0A2.337,2.337,0,0,1-2.894,2.135,2.312,2.312,0,0,1-5.2,4.542H-.594a2.312,2.312,0,0,0,2.31-2.407A2.337,2.337,0,0,0,0,0" fill="#bae1eb"/>
            </g>
            <g id="g3229" transform="translate(58.136 -27.034)">
              <path id="path3231" d="M0,0A6.062,6.062,0,0,0-5.945,4.88,4.646,4.646,0,0,0-7.99,4.409a4.667,4.667,0,0,0-4.667,4.667V26.169H0Z" fill="#66b399"/>
            </g>
            <g id="g3233" transform="translate(0.864 -27.034)">
              <path id="path3235" d="M0,0A6.062,6.062,0,0,1,5.945,4.88a4.668,4.668,0,0,1,6.712,4.2V26.169H0Z" fill="#66b399"/>
            </g>
            <g id="g3237" transform="translate(29.5 -6.548)">
              <path id="path3239" d="M0,0H-27.476l-1.159,5.684H28.636L27.476,0Z" fill="#f7b681"/>
            </g>
            <g id="g3241" transform="translate(54.812 -6.562)">
              <path id="path3243" d="M0,0-1.159-5.684H-49.465L-50.625,0H0Z" fill="#ea9955"/>
            </g>
            <g id="g3245" transform="translate(51.489 -12.26)">
              <path id="path3247" d="M0,0-1.159-5.684H-42.818L-43.978,0H0Z" fill="#f7b681"/>
            </g>
            <g id="g3249" transform="translate(48.165 -17.958)">
              <path id="path3251" d="M0,0-1.159-5.684H-36.171L-37.331,0H0Z" fill="#ea9955"/>
            </g>
            <g id="g3253" transform="translate(44.842 -23.656)">
              <path id="path3255" d="M0,0-1.159-5.684H-29.525L-30.684,0H0Z" fill="#f7b681"/>
            </g>
            <g id="g3257" transform="translate(41.519 -29.354)">
              <path id="path3259" d="M0,0-1.159-5.684H-22.878L-24.037,0H0Z" fill="#ea9955"/>
            </g>
            <path id="path3261" d="M36.8-35.039H22.2V-46.2H36.8Z" fill="#f7b681"/>
            <path id="path3263" d="M31.042-35.039H36.8V-46.2H31.042Z" fill="#f7a867"/>
            <path id="path3265" d="M31.716-34.3H27.284V-39.41h4.432Z" fill="#85667d"/>
            <path id="path3267" d="M34.8-.864H24.2V-35.039H34.8Z" fill="#fff4c7"/>
            <g id="g3269" transform="translate(10.411 -37.511)">
              <path id="path3271" d="M0,0H.359A2.311,2.311,0,0,0,2.67-2.311,2.311,2.311,0,0,0,.359-4.623a2.318,2.318,0,0,0-.393.034c0-.011,0-.023,0-.034a3.4,3.4,0,0,0-3.4-3.4,3.4,3.4,0,0,0-3.4,3.4c0,.011,0,.023,0,.034a2.318,2.318,0,0,0-.393-.034A2.311,2.311,0,0,0-9.547-2.311,2.311,2.311,0,0,0-7.235,0H-4.6" fill="none" stroke="#000" stroke-linecap="round" stroke-linejoin="round" stroke-miterlimit="10" stroke-width="1.729"/>
            </g>
            <g id="g3273" transform="translate(45.315 -50.109)">
              <path id="path3275" d="M0,0A2.311,2.311,0,0,0,2.311-2.311,2.311,2.311,0,0,0,0-4.623a2.331,2.331,0,0,0-.394.034c0-.011,0-.023,0-.034a3.4,3.4,0,0,0-3.4-3.4,3.4,3.4,0,0,0-3.4,3.4c0,.011,0,.023,0,.034a2.331,2.331,0,0,0-.393-.034A2.311,2.311,0,0,0-9.905-2.311,2.311,2.311,0,0,0-7.594,0Z" fill="none" stroke="#000" stroke-linecap="round" stroke-linejoin="round" stroke-miterlimit="10" stroke-width="1.729"/>
            </g>
            <g id="g3277" transform="translate(55.824 -39.876)">
              <path id="path3279" d="M0,0A2.311,2.311,0,0,0,2.311-2.311,2.311,2.311,0,0,0,0-4.623a2.329,2.329,0,0,0-.393.034c0-.011,0-.023,0-.034a3.4,3.4,0,0,0-3.4-3.4,3.4,3.4,0,0,0-3.4,3.4c0,.011,0,.023,0,.034a2.33,2.33,0,0,0-.393-.034A2.311,2.311,0,0,0-9.905-2.311,2.311,2.311,0,0,0-7.594,0Z" fill="none" stroke="#000" stroke-linecap="round" stroke-linejoin="round" stroke-miterlimit="10" stroke-width="1.729"/>
            </g>
            <g id="g3281" transform="translate(58.136 -27.034)">
              <path id="path3283" d="M0,0A6.062,6.062,0,0,0-5.945,4.88,4.646,4.646,0,0,0-7.99,4.409a4.646,4.646,0,0,0-2.75.9" fill="none" stroke="#000" stroke-linecap="round" stroke-linejoin="round" stroke-miterlimit="10" stroke-width="1.729"/>
            </g>
            <g id="g3285" transform="translate(0.864 -27.034)">
              <path id="path3287" d="M0,0A6.062,6.062,0,0,1,5.945,4.88a4.671,4.671,0,0,1,4.655.325" fill="none" stroke="#000" stroke-linecap="round" stroke-linejoin="round" stroke-miterlimit="10" stroke-width="1.729"/>
            </g>
            <g id="g3289" transform="translate(24.197 -6.548)">
              <path id="path3291" d="M0,0H-22.173l-1.159,5.684H33.939L32.779,0H10.758" fill="none" stroke="#000" stroke-linecap="round" stroke-linejoin="round" stroke-miterlimit="10" stroke-width="1.729"/>
            </g>
            <g id="g3293" transform="translate(24.197 -12.246)">
              <path id="path3295" d="M0,0H-18.85l-1.159,5.684" fill="none" stroke="#000" stroke-linecap="round" stroke-linejoin="round" stroke-miterlimit="10" stroke-width="1.729"/>
            </g>
            <g id="g3297" transform="translate(42.291 -12.246)">
              <path id="path3299" d="M0,0H-7.337" fill="none" stroke="#000" stroke-linecap="round" stroke-linejoin="round" stroke-miterlimit="10" stroke-width="1.729"/>
            </g>
            <g id="g3301" transform="translate(54.812 -6.562)">
              <path id="path3303" d="M0,0-1.159-5.684H-8.066" fill="none" stroke="#000" stroke-linecap="round" stroke-linejoin="round" stroke-miterlimit="10" stroke-width="1.729"/>
            </g>
            <g id="g3305" transform="translate(24.197 -17.944)">
              <path id="path3307" d="M0,0H-15.526l-1.159,5.684" fill="none" stroke="#000" stroke-linecap="round" stroke-linejoin="round" stroke-miterlimit="10" stroke-width="1.729"/>
            </g>
            <g id="g3309" transform="translate(51.489 -12.26)">
              <path id="path3311" d="M0,0-1.159-5.684H-16.686" fill="none" stroke="#000" stroke-linecap="round" stroke-linejoin="round" stroke-miterlimit="10" stroke-width="1.729"/>
            </g>
            <g id="g3313" transform="translate(23.93 -23.642)">
              <path id="path3315" d="M0,0H-11.936L-13.1,5.684" fill="none" stroke="#000" stroke-linecap="round" stroke-linejoin="round" stroke-miterlimit="10" stroke-width="1.729"/>
            </g>
            <g id="g3317" transform="translate(48.165 -17.958)">
              <path id="path3319" d="M0,0-1.159-5.684H-13.1" fill="none" stroke="#000" stroke-linecap="round" stroke-linejoin="round" stroke-miterlimit="10" stroke-width="1.729"/>
            </g>
            <g id="g3321" transform="translate(24.197 -29.34)">
              <path id="path3323" d="M0,0H-8.88l-1.159,5.684" fill="none" stroke="#000" stroke-linecap="round" stroke-linejoin="round" stroke-miterlimit="10" stroke-width="1.729"/>
            </g>
            <g id="g3325" transform="translate(44.842 -23.656)">
              <path id="path3327" d="M0,0-1.159-5.684H-9.887" fill="none" stroke="#000" stroke-linecap="round" stroke-linejoin="round" stroke-miterlimit="10" stroke-width="1.729"/>
            </g>
            <g id="g3329" transform="translate(41.519 -29.354)">
              <path id="path3331" d="M0,0-1.159-5.684H-22.878L-24.037,0" fill="none" stroke="#000" stroke-linecap="round" stroke-linejoin="round" stroke-miterlimit="10" stroke-width="1.729"/>
            </g>
            <path id="path3333" d="M36.8-35.039H22.2V-46.2H36.8Z" fill="none" stroke="#000" stroke-linecap="round" stroke-linejoin="round" stroke-miterlimit="10" stroke-width="1.729"/>
            <path id="path3335" d="M31.716-35.039H27.284V-39.41h4.432Z" fill="none" stroke="#000" stroke-linecap="round" stroke-linejoin="round" stroke-miterlimit="10" stroke-width="1.729"/>
            <g id="g3337" transform="translate(27.145 -4.195)">
              <path id="path3339" d="M0,0H4.71" fill="none" stroke="#000" stroke-linecap="round" stroke-linejoin="round" stroke-miterlimit="10" stroke-width="1.729"/>
            </g>
            <g id="g3341" transform="translate(27.145 -7.634)">
              <path id="path3343" d="M0,0H4.71" fill="none" stroke="#000" stroke-linecap="round" stroke-linejoin="round" stroke-miterlimit="10" stroke-width="1.729"/>
            </g>
            <g id="g3345" transform="translate(27.145 -11.073)">
              <path id="path3347" d="M0,0H4.71" fill="none" stroke="#000" stroke-linecap="round" stroke-linejoin="round" stroke-miterlimit="10" stroke-width="1.729"/>
            </g>
            <g id="g3349" transform="translate(27.145 -14.512)">
              <path id="path3351" d="M0,0H4.71" fill="none" stroke="#000" stroke-linecap="round" stroke-linejoin="round" stroke-miterlimit="10" stroke-width="1.729"/>
            </g>
            <g id="g3353" transform="translate(27.145 -21.391)">
              <path id="path3355" d="M0,0H4.71" fill="none" stroke="#000" stroke-linecap="round" stroke-linejoin="round" stroke-miterlimit="10" stroke-width="1.729"/>
            </g>
            <g id="g3357" transform="translate(27.145 -24.83)">
              <path id="path3359" d="M0,0H4.71" fill="none" stroke="#000" stroke-linecap="round" stroke-linejoin="round" stroke-miterlimit="10" stroke-width="1.729"/>
            </g>
            <g id="g3361" transform="translate(27.145 -28.269)">
              <path id="path3363" d="M0,0H4.71" fill="none" stroke="#000" stroke-linecap="round" stroke-linejoin="round" stroke-miterlimit="10" stroke-width="1.729"/>
            </g>
            <g id="g3365" transform="translate(27.145 -31.708)">
              <path id="path3367" d="M0,0H4.71" fill="none" stroke="#000" stroke-linecap="round" stroke-linejoin="round" stroke-miterlimit="10" stroke-width="1.729"/>
            </g>
            <g id="g3369" transform="translate(20.934 -46.201)">
              <path id="path3371" d="M0,0H17.285" fill="none" stroke="#000" stroke-linecap="round" stroke-linejoin="round" stroke-miterlimit="10" stroke-width="1.729"/>
            </g>
            <g id="g3373" transform="translate(20.934 -42.79)">
              <path id="path3375" d="M0,0H17.285" fill="none" stroke="#000" stroke-linecap="round" stroke-linejoin="round" stroke-miterlimit="10" stroke-width="1.729"/>
            </g>
            <path id="path3377" d="M34.8-.864H24.2V-35.039H34.8Z" fill="none" stroke="#000" stroke-linecap="round" stroke-linejoin="round" stroke-miterlimit="10" stroke-width="1.729"/>
            <g id="g3379" transform="translate(27.145 -17.951)">
              <path id="path3381" d="M0,0H4.71" fill="none" stroke="#000" stroke-linecap="round" stroke-linejoin="round" stroke-miterlimit="10" stroke-width="1.729"/>
            </g>
          </g>
        </g>
      </g>
    </g>
  </g>
</svg>
