<svg xmlns="http://www.w3.org/2000/svg" xmlns:xlink="http://www.w3.org/1999/xlink" width="100" height="100" viewBox="0 0 100 100">
  <defs>
    <clipPath id="clip-path">
      <rect id="Rectángulo_403252" data-name="Rectángulo 403252" width="64" height="64" transform="translate(654 7010)" fill="#fff" stroke="#707070" stroke-width="1"/>
    </clipPath>
  </defs>
  <g id="Grupo_1101896" data-name="Grupo 1101896" transform="translate(-636 -6992)">
    <g id="Rectángulo_400898" data-name="Rectángulo 400898" transform="translate(636 6992)" fill="#4e93ee" stroke="#fff" stroke-width="3" opacity="0.859">
      <rect width="100" height="100" rx="50" stroke="none"/>
      <rect x="1.5" y="1.5" width="97" height="97" rx="48.5" fill="none"/>
    </g>
    <g id="Rectángulo_400907" data-name="Rectángulo 400907" transform="translate(636 6992)" fill="none" stroke="#1f3b5f" stroke-linecap="round" stroke-width="2" stroke-dasharray="7">
      <rect width="100" height="100" rx="50" stroke="none"/>
      <rect x="1" y="1" width="98" height="98" rx="49" fill="none"/>
    </g>
    <g id="Enmascarar_grupo_1098816" data-name="Enmascarar grupo 1098816" clip-path="url(#clip-path)">
      <g id="apreton-de-manos" transform="translate(654 7010)">
        <g id="Grupo_1102361" data-name="Grupo 1102361">
          <g id="Grupo_1102356" data-name="Grupo 1102356">
            <path id="Trazado_879014" data-name="Trazado 879014" d="M52.282,30.669,50.656,17.462l-3.046.375v0L41.7,14.511a3.559,3.559,0,0,0-2.073-.442l-9.326.862a3.558,3.558,0,0,0-2.749,1.756L20.984,28a1.564,1.564,0,0,0,.8,2.248l.269.1a5.831,5.831,0,0,0,1.58.353l-.833.725L21.134,32.88l-4.739,4.042a2.025,2.025,0,0,0-.2,2.857l.481.551a2.6,2.6,0,0,0,3.671.251l1.811,2.077a2.6,2.6,0,0,0,3.67.251l1.809,2.078a2.6,2.6,0,0,0,3.673.252l.983.85a2.6,2.6,0,0,0,3.673.252l1.337-1.166,11.237-8.751.012-.011,4.433,0Z" fill="#f29f5c"/>
            <path id="Trazado_879015" data-name="Trazado 879015" d="M47.466,33.01l-.012.011L36.217,41.773,34.88,42.939a2.6,2.6,0,0,1-3.673-.252l-.983-.85a2.6,2.6,0,0,1-3.673-.252l-1.809-2.078a2.6,2.6,0,0,1-3.67-.251l-1.811-2.077a2.6,2.6,0,0,1-3.223.153,2.024,2.024,0,0,0,.16,2.448l.481.551a2.6,2.6,0,0,0,3.671.251l1.811,2.077a2.6,2.6,0,0,0,3.67.251l1.809,2.078a2.6,2.6,0,0,0,3.673.252l.983.85a2.6,2.6,0,0,0,3.673.252l1.337-1.166,11.237-8.751.012-.011,4.433,0-.49-3.984Z" fill="#d37d42"/>
          </g>
          <g id="Grupo_1102357" data-name="Grupo 1102357">
            <path id="Trazado_879016" data-name="Trazado 879016" d="M49.512,38.722l-6.021-5.191-1.674-1.442-1.2-1.032-5.151-4.44.595-5.064a3.5,3.5,0,0,0-2.539-3.776L22.3,14.671a2.6,2.6,0,0,0-3.006,1.32l-1.412,2.756-6.061-.411L10.266,31.55l-.675,5.743,5.9.392.012.011L27.828,48.321l1.343,1.159a2.6,2.6,0,0,0,3.671-.273l1.8-2.086a2.6,2.6,0,0,0,3.671-.273l1.8-2.088a2.6,2.6,0,0,0,3.669-.271l1.8-2.087a2.6,2.6,0,0,0,3.669-.271l.478-.553A2.025,2.025,0,0,0,49.512,38.722Z" fill="#f9c295"/>
            <path id="Trazado_879017" data-name="Trazado 879017" d="M49.512,38.722l-1.834-1.581a2.149,2.149,0,0,1-.089,2.7l-.507.587a2.762,2.762,0,0,1-3.895.288l-1.91,2.216a2.758,2.758,0,0,1-3.895.288l-1.908,2.216a2.763,2.763,0,0,1-3.9.289l-1.908,2.214a2.744,2.744,0,0,1-1.309.844l.812.7a2.6,2.6,0,0,0,3.671-.273l1.8-2.086a2.6,2.6,0,0,0,3.671-.273l1.8-2.088a2.6,2.6,0,0,0,3.669-.271l1.8-2.087a2.6,2.6,0,0,0,3.669-.271l.478-.553A2.025,2.025,0,0,0,49.512,38.722Z" fill="#e59f6a"/>
          </g>
          <g id="Grupo_1102359" data-name="Grupo 1102359">
            <g id="Grupo_1102358" data-name="Grupo 1102358">
              <path id="Trazado_879018" data-name="Trazado 879018" d="M15.8,37.673l-.714.943a2.332,2.332,0,0,0,.451,3.267h0a2.332,2.332,0,0,0,3.267-.451l.714-.943a2.332,2.332,0,0,0-.451-3.267h0A2.332,2.332,0,0,0,15.8,37.673Z" fill="#f29f5c"/>
              <path id="Trazado_879019" data-name="Trazado 879019" d="M20.148,39.656,18.8,41.432a2.332,2.332,0,0,0,.451,3.267h0a2.332,2.332,0,0,0,3.267-.451l1.345-1.776a2.332,2.332,0,0,0-.451-3.267h0A2.332,2.332,0,0,0,20.148,39.656Z" fill="#f29f5c"/>
              <path id="Trazado_879020" data-name="Trazado 879020" d="M24.354,41.828l-1.833,2.42a2.332,2.332,0,0,0,.451,3.267h0a2.332,2.332,0,0,0,3.267-.451l1.833-2.42a2.332,2.332,0,0,0-.451-3.267h0A2.332,2.332,0,0,0,24.354,41.828Z" fill="#f29f5c"/>
              <path id="Trazado_879021" data-name="Trazado 879021" d="M28.179,44.5,26.24,47.064a2.332,2.332,0,0,0,.451,3.267h0a2.332,2.332,0,0,0,3.267-.451L31.9,47.32a2.332,2.332,0,0,0-.451-3.267h0A2.332,2.332,0,0,0,28.179,44.5Z" fill="#f29f5c"/>
            </g>
          </g>
          <path id="Trazado_879022" data-name="Trazado 879022" d="M47.611,17.835,41.7,14.511a3.559,3.559,0,0,0-2.073-.442l-9.326.862a3.558,3.558,0,0,0-2.749,1.756L20.984,28a1.564,1.564,0,0,0,.8,2.248l.269.1a5.845,5.845,0,0,0,6.7-1.906l2.518-3.277s6.054,7.009,12.719-1.176" fill="#f29f5c"/>
          <path id="Trazado_879023" data-name="Trazado 879023" d="M59.973,13.195l3.089,25.094-7.223.889a2.491,2.491,0,0,1-2.776-2.168l-2.48-20.15a2.491,2.491,0,0,1,2.168-2.776Z" fill="#5c9cee"/>
          <path id="Trazado_879024" data-name="Trazado 879024" d="M55.718,36.346a2.731,2.731,0,0,1-3-2.106l.341,2.77a2.491,2.491,0,0,0,2.776,2.168l7.223-.889-.345-2.8Z" fill="#3580d3"/>
          <path id="Trazado_879025" data-name="Trazado 879025" d="M4.027,13.195.938,38.288l7.223.889a2.491,2.491,0,0,0,2.776-2.168l2.48-20.15a2.491,2.491,0,0,0-2.168-2.776Z" fill="#ed5575"/>
          <path id="Trazado_879026" data-name="Trazado 879026" d="M8.331,36.283l-7.04-.867L.938,38.288l7.223.889a2.491,2.491,0,0,0,2.776-2.168l.262-2.128A2.926,2.926,0,0,1,8.331,36.283Z" fill="#cc3a60"/>
          <g id="Grupo_1102360" data-name="Grupo 1102360">
            <circle id="Elipse_11676" data-name="Elipse 11676" cx="1.812" cy="1.812" r="1.812" transform="translate(56.188 32.343)" fill="#ebeef2"/>
            <circle id="Elipse_11677" data-name="Elipse 11677" cx="1.812" cy="1.812" r="1.812" transform="translate(4.087 32.343)" fill="#ebeef2"/>
          </g>
        </g>
        <g id="Grupo_1102362" data-name="Grupo 1102362">
          <path id="Trazado_879027" data-name="Trazado 879027" d="M32.013,43.305a3.262,3.262,0,0,0-2.575-.606A3.268,3.268,0,0,0,25.766,40a3.3,3.3,0,0,0-.623.148,3.265,3.265,0,0,0-4.385-2.1,3.271,3.271,0,0,0-5.384-1.3l-3.431-.228,2.1-17.085,3.769.256.064,0a.937.937,0,0,0,.834-.51l1.412-2.756a1.668,1.668,0,0,1,1.921-.843l2.1.58a.938.938,0,0,0,.5-1.807l-2.1-.58a3.55,3.55,0,0,0-4.089,1.795l-1.131,2.207-3.05-.207.072-.587a3.432,3.432,0,0,0-2.983-3.821l-7.223-.889a.937.937,0,1,0-.229,1.861l7.223.889a1.553,1.553,0,0,1,1.352,1.731L10.007,36.9a1.555,1.555,0,0,1-1.731,1.352l-7.223-.889a.937.937,0,1,0-.229,1.861l7.223.889a3.425,3.425,0,0,0,3.422-1.75l2.567.171a3.27,3.27,0,0,0,2.9,4.765,3.334,3.334,0,0,0,.454-.031l.029,0c0,.01,0,.019,0,.029a3.267,3.267,0,0,0,3.235,2.821,3.3,3.3,0,0,0,.481-.037,3.263,3.263,0,0,0,3.237,2.853,3.3,3.3,0,0,0,.48-.036c0,.01,0,.021,0,.031a3.271,3.271,0,0,0,3.232,2.823,3.331,3.331,0,0,0,.454-.031,3.248,3.248,0,0,0,2.159-1.265l1.939-2.561A3.273,3.273,0,0,0,32.013,43.305Zm-14.879-1.9a1.395,1.395,0,0,1-1.3-2.224l.714-.943a1.395,1.395,0,0,1,2.224,1.684l-.714.943A1.386,1.386,0,0,1,17.134,41.406Zm2.686,2.546A1.395,1.395,0,0,1,19.55,42l.714-.943h0l.631-.833a1.395,1.395,0,0,1,2.224,1.684l-1.345,1.776A1.4,1.4,0,0,1,19.82,43.952Zm3.719,2.816a1.395,1.395,0,0,1-.27-1.954h0l1.345-1.776h0l.488-.644a1.395,1.395,0,0,1,2.224,1.684L25.493,46.5h0A1.4,1.4,0,0,1,23.538,46.768Zm7.612-.014-1.939,2.561a1.395,1.395,0,1,1-2.224-1.684l1.833-2.42h0l.105-.139a1.395,1.395,0,1,1,2.224,1.684Z"/>
          <path id="Trazado_879028" data-name="Trazado 879028" d="M63.993,38.174a.938.938,0,0,0-1.045-.816l-7.223.889A1.554,1.554,0,0,1,53.993,36.9l-.074-.6h0l-.017-.139L51.513,16.746a1.553,1.553,0,0,1,1.352-1.731l7.223-.889a.937.937,0,1,0-.229-1.861l-7.223.889a3.433,3.433,0,0,0-3.008,3.491l-1.822.224-5.641-3.174a4.477,4.477,0,0,0-2.619-.559h-.006l-1.7.157a.937.937,0,0,0,.173,1.867l1.7-.157a2.61,2.61,0,0,1,1.527.326l5.848,3.291a.938.938,0,0,0,.631.148l2.116-.26,1.552,12.605.537,4.359-3.375,0a.937.937,0,0,0-.612.228l-.261.2-8.472-7.3a11.372,11.372,0,0,0,5.507-4.022A.938.938,0,1,0,43.262,23.4c-1.929,2.369-3.957,3.588-6.028,3.624a7.661,7.661,0,0,1-5.254-2.468.938.938,0,0,0-1.453.042l-2.518,3.277a4.878,4.878,0,0,1-5.625,1.6l-.269-.1a.626.626,0,0,1-.32-.9l6.573-11.313a2.626,2.626,0,0,1,2.025-1.293l3.892-.36a.937.937,0,0,0-.173-1.867L30.22,14a4.5,4.5,0,0,0-3.473,2.218L20.174,27.529a2.5,2.5,0,0,0,1.279,3.6l.269.1a6.83,6.83,0,0,0,2.416.444A6.743,6.743,0,0,0,29.5,29.015l1.879-2.445a9.258,9.258,0,0,0,5.283,2.311L48.9,39.432a1.088,1.088,0,0,1,.114,1.534l-.477.553a1.668,1.668,0,0,1-2.348.172.937.937,0,0,0-.123-.088l-3.178-2.74a.938.938,0,0,0-1.224,1.42l2.583,2.227-1.178,1.367a1.661,1.661,0,0,1-2.348.174l-.014-.011-2.953-2.546a.938.938,0,1,0-1.224,1.42l2.257,1.946L37.6,46.236a1.667,1.667,0,0,1-1.458.567.937.937,0,0,0-.219,1.862,3.541,3.541,0,0,0,3.1-1.206l1.267-1.471a3.538,3.538,0,0,0,4.2-.887l1.269-1.473a3.548,3.548,0,0,0,4.2-.884l.478-.554a2.963,2.963,0,0,0-.311-4.178l-.769-.663,2.813,0a3.425,3.425,0,0,0,3.786,2.761l7.223-.889A.938.938,0,0,0,63.993,38.174Z"/>
          <path id="Trazado_879029" data-name="Trazado 879029" d="M58,31.406a2.75,2.75,0,1,0,2.75,2.75A2.753,2.753,0,0,0,58,31.406Zm0,3.625a.875.875,0,1,1,.875-.875A.876.876,0,0,1,58,35.031Z"/>
          <path id="Trazado_879030" data-name="Trazado 879030" d="M8.649,34.156a2.75,2.75,0,1,0-2.75,2.75A2.753,2.753,0,0,0,8.649,34.156Zm-3.624,0a.875.875,0,1,1,.875.875A.876.876,0,0,1,5.024,34.156Z"/>
        </g>
      </g>
    </g>
  </g>
</svg>
