<svg xmlns="http://www.w3.org/2000/svg" xmlns:xlink="http://www.w3.org/1999/xlink" width="100" height="100" viewBox="0 0 100 100">
  <defs>
    <clipPath id="clip-path">
      <rect id="Rectángulo_403252" data-name="Rectángulo 403252" width="64" height="64" transform="translate(654 7010)" fill="#fff" stroke="#707070" stroke-width="1"/>
    </clipPath>
    <clipPath id="clip-path-2">
      <path id="path6063" d="M0-64H64V0H0Z"/>
    </clipPath>
  </defs>
  <g id="Grupo_1102351" data-name="Grupo 1102351" transform="translate(-636 -6992)">
    <g id="Rectángulo_400898" data-name="Rectángulo 400898" transform="translate(636 6992)" fill="#4e93ee" stroke="#fff" stroke-width="3" opacity="0.859">
      <rect width="100" height="100" rx="50" stroke="none"/>
      <rect x="1.5" y="1.5" width="97" height="97" rx="48.5" fill="none"/>
    </g>
    <g id="Rectángulo_400907" data-name="Rectángulo 400907" transform="translate(636 6992)" fill="none" stroke="#1f3b5f" stroke-linecap="round" stroke-width="2" stroke-dasharray="7">
      <rect width="100" height="100" rx="50" stroke="none"/>
      <rect x="1" y="1" width="98" height="98" rx="49" fill="none"/>
    </g>
    <g id="Enmascarar_grupo_1098818" data-name="Enmascarar grupo 1098818" clip-path="url(#clip-path)">
      <g id="g6057" transform="translate(654 7074)">
        <g id="g6059">
          <g id="g6061" clip-path="url(#clip-path-2)">
            <g id="g6067" transform="translate(59.313 -59.313)">
              <path id="path6069" d="M0,0-11.25,27.938l7.5,26.688H0a3.75,3.75,0,0,0,3.75-3.75V3.75A3.75,3.75,0,0,0,0,0" fill="#6c4b41"/>
            </g>
            <g id="g6071" transform="translate(4.688 -59.313)">
              <path id="path6073" d="M0,0A3.75,3.75,0,0,0-3.75,3.75V50.875A3.75,3.75,0,0,0,0,54.625H23.563a3.75,3.75,0,0,0,3.75-3.75V0Z" fill="#ae6e5a"/>
            </g>
            <g id="g6075" transform="translate(55.562 -59.313)">
              <path id="path6077" d="M0,0H-23.562V50.875a3.75,3.75,0,0,0,3.75,3.75H0a3.75,3.75,0,0,0,3.75-3.75L0,34Z" fill="#8d5d4d"/>
            </g>
            <g id="g6079" transform="translate(55.562 -63.062)">
              <path id="path6081" d="M0,0-24.789,47.125l1.226,3.75H0l3.75-3.75V0Z" fill="#d0cdcd"/>
            </g>
            <g id="g6083" transform="translate(53.156 -45.125)">
              <path id="path6085" d="M0,0,2.406-1.875V-17.937H-17.406a3.761,3.761,0,0,0-3.75,3.75l-7.5,30.438,7.5,16.688,4.813-3.75H2.406V1.875Z" fill="#e7e6e6"/>
            </g>
            <g id="g6087" transform="translate(28.25 -63.062)">
              <path id="path6089" d="M0,0H-23.562V47.125L3.75,50.875V3.75A3.761,3.761,0,0,0,0,0" fill="#fff"/>
            </g>
            <g id="g6091" transform="translate(59.313 -15.937)">
              <path id="path6093" d="M0,0H-3.75L-7.5,6.25,0,3.75Z" fill="#b8b4b3"/>
            </g>
            <g id="g6095" transform="translate(35.75 -15.937)">
              <path id="path6097" d="M0,0A3.761,3.761,0,0,0-3.75,3.75L-6.875,5.625-3.75,7.5,19.813,5.625V0Z" fill="#d0cdcd"/>
            </g>
            <g id="g6099" transform="translate(28.25 -15.937)">
              <path id="path6101" d="M0,0H-23.562V3.75L3.75,7.5V3.75A3.761,3.761,0,0,0,0,0" fill="#e7e6e6"/>
            </g>
            <g id="g6103" transform="translate(55.562 -12.188)">
              <path id="path6105" d="M0,0-3.75,1.875,0,3.75H3.75V0Z" fill="#d0cdcd"/>
            </g>
            <g id="g6107" transform="translate(35.75 -12.188)">
              <path id="path6109" d="M0,0A3.761,3.761,0,0,0-3.75,3.75H19.813V0H13.656L9.906,1.875,6.469,0Z" fill="#e7e6e6"/>
            </g>
            <g id="g6111" transform="translate(45.656 -12.188)">
              <path id="path6113" d="M0,0-1.875,5.625,0,9.816A5.6,5.6,0,0,0,3.75,11.25V0Z" fill="#f9bb69"/>
            </g>
            <g id="g6115" transform="translate(41.906 -12.188)">
              <path id="path6117" d="M0,0V11.25A5.6,5.6,0,0,0,3.75,9.816V0Z" fill="#f6d76f"/>
            </g>
            <g id="g6119" transform="translate(28.25 -12.188)">
              <path id="path6121" d="M0,0H-23.562V3.75H3.75A3.761,3.761,0,0,0,0,0" fill="#fff"/>
            </g>
            <g id="g6123" transform="translate(55.562 -47)">
              <path id="path6125" d="M0,0H-8.031V-6.688h-3.75V0h-8.031V3.75h8.031V21.688h3.75V3.75H0Z" fill="#f9bb69"/>
            </g>
            <g id="g6127" transform="translate(49.406 -8.438)">
              <path id="path6129" d="M0,0H9.906V-54.625H-13.656a3.761,3.761,0,0,0-3.75,3.75,3.761,3.761,0,0,0-3.75-3.75H-44.719V-11.25" fill="none" stroke="#000" stroke-linecap="round" stroke-linejoin="round" stroke-miterlimit="10" stroke-width="1.875"/>
            </g>
            <g id="g6131" transform="translate(59.313 -12.188)">
              <path id="path6133" d="M0,0H-23.562a3.761,3.761,0,0,0-3.75,3.75A3.761,3.761,0,0,0-31.062,0H-54.625" fill="none" stroke="#000" stroke-linecap="round" stroke-linejoin="round" stroke-miterlimit="10" stroke-width="1.875"/>
            </g>
            <g id="g6135" transform="translate(59.313 -15.937)">
              <path id="path6137" d="M0,0H-23.562a3.761,3.761,0,0,0-3.75,3.75A3.761,3.761,0,0,0-31.062,0H-54.625V7.5h37.219" fill="none" stroke="#000" stroke-linecap="round" stroke-linejoin="round" stroke-miterlimit="10" stroke-width="1.875"/>
            </g>
            <g id="g6139" transform="translate(4.688 -59.313)">
              <path id="path6141" d="M0,0A3.75,3.75,0,0,0-3.75,3.75V50.875A3.75,3.75,0,0,0,0,54.625H23.563a3.761,3.761,0,0,0,3.75-3.75,3.761,3.761,0,0,0,3.75,3.75h6.156" fill="none" stroke="#000" stroke-linecap="round" stroke-linejoin="round" stroke-miterlimit="10" stroke-width="1.875"/>
            </g>
            <g id="g6143" transform="translate(49.406 -4.688)">
              <path id="path6145" d="M0,0H9.906a3.75,3.75,0,0,0,3.75-3.75V-50.875a3.75,3.75,0,0,0-3.75-3.75" fill="none" stroke="#000" stroke-linecap="round" stroke-linejoin="round" stroke-miterlimit="10" stroke-width="1.875"/>
            </g>
            <g id="g6147" transform="translate(32 -59.313)">
              <path id="path6149" d="M0,0V50.875" fill="none" stroke="#000" stroke-linecap="round" stroke-linejoin="round" stroke-miterlimit="10" stroke-width="1.875"/>
            </g>
            <g id="g6151" transform="translate(41.906 -12.188)">
              <path id="path6153" d="M0,0V11.25A5.6,5.6,0,0,0,3.75,9.816,5.6,5.6,0,0,0,7.5,11.25V0" fill="none" stroke="#000" stroke-linecap="round" stroke-linejoin="round" stroke-miterlimit="10" stroke-width="1.875"/>
            </g>
            <g id="g6155" transform="translate(55.562 -47)">
              <path id="path6157" d="M0,0H-8.031V-6.688h-3.75V0h-8.031V3.75h8.031V21.688h3.75V3.75H0Z" fill="none" stroke="#000" stroke-linecap="round" stroke-linejoin="round" stroke-miterlimit="10" stroke-width="1.875"/>
            </g>
            <g id="g6159" transform="translate(13.656 -43.25)">
              <path id="path6161" d="M0,0H9.375" fill="none" stroke="#000" stroke-linecap="round" stroke-linejoin="round" stroke-miterlimit="10" stroke-width="1.875"/>
            </g>
            <g id="g6163" transform="translate(13.656 -35.75)">
              <path id="path6165" d="M0,0H9.375" fill="none" stroke="#000" stroke-linecap="round" stroke-linejoin="round" stroke-miterlimit="10" stroke-width="1.875"/>
            </g>
            <g id="g6167" transform="translate(13.656 -39.5)">
              <path id="path6169" d="M0,0H9.375" fill="none" stroke="#000" stroke-linecap="round" stroke-linejoin="round" stroke-miterlimit="10" stroke-width="1.875"/>
            </g>
          </g>
        </g>
      </g>
    </g>
  </g>
</svg>
