<svg xmlns="http://www.w3.org/2000/svg" xmlns:xlink="http://www.w3.org/1999/xlink" width="100" height="100" viewBox="0 0 100 100">
  <defs>
    <clipPath id="clip-path">
      <rect id="Rectángulo_403252" data-name="Rectángulo 403252" width="64" height="64" transform="translate(654 7010)" fill="#fff" stroke="#707070" stroke-width="1"/>
    </clipPath>
  </defs>
  <g id="Grupo_1102352" data-name="Grupo 1102352" transform="translate(-636 -6992)">
    <g id="Rectángulo_400898" data-name="Rectángulo 400898" transform="translate(636 6992)" fill="#4e93ee" stroke="#fff" stroke-width="3" opacity="0.859">
      <rect width="100" height="100" rx="50" stroke="none"/>
      <rect x="1.5" y="1.5" width="97" height="97" rx="48.5" fill="none"/>
    </g>
    <g id="Rectángulo_400907" data-name="Rectángulo 400907" transform="translate(636 6992)" fill="none" stroke="#1f3b5f" stroke-linecap="round" stroke-width="2" stroke-dasharray="7">
      <rect width="100" height="100" rx="50" stroke="none"/>
      <rect x="1" y="1" width="98" height="98" rx="49" fill="none"/>
    </g>
    <g id="Enmascarar_grupo_1098819" data-name="Enmascarar grupo 1098819" clip-path="url(#clip-path)">
      <g id="equipo_1_" data-name="equipo (1)" transform="translate(654 7010)">
        <g id="Grupo_1102385" data-name="Grupo 1102385">
          <g id="Grupo_1102380" data-name="Grupo 1102380">
            <path id="Trazado_879101" data-name="Trazado 879101" d="M40.238,22.786a3.087,3.087,0,0,1-3.009-3.767,1.523,1.523,0,0,1,3.009.335h19.74a1.523,1.523,0,0,1,3.009-.335,3.087,3.087,0,0,1-3.009,3.767" fill="#b17a4a"/>
            <path id="Trazado_879102" data-name="Trazado 879102" d="M52.784,28.456H47.432a7.194,7.194,0,0,1-7.194-7.194V11.116l9.87-6.068,9.87,6.068V21.262a7.194,7.194,0,0,1-7.194,7.194Z" fill="#c38959"/>
            <path id="Trazado_879103" data-name="Trazado 879103" d="M59.979,7.644v4.233S58.54,9.507,56.262,9.507s-3.2,2.813-6.154,2.813S46.23,9.507,43.954,9.507s-3.716,2.369-3.716,2.369V7.644A4.912,4.912,0,0,1,45.15,2.732h9.916A4.912,4.912,0,0,1,59.979,7.644Z" fill="#365e7d"/>
            <path id="Trazado_879104" data-name="Trazado 879104" d="M45.15,2.732H49.9a4.912,4.912,0,0,0-4.913,4.912V9.713a2.714,2.714,0,0,0-1.034-.205c-2.277,0-3.716,2.369-3.716,2.369V7.644A4.912,4.912,0,0,1,45.15,2.732Z" fill="#2b4d66"/>
            <path id="Trazado_879105" data-name="Trazado 879105" d="M52.157,28.455H47.432a7.194,7.194,0,0,1-7.194-7.193V11.876s1.44-2.369,3.716-2.369a2.708,2.708,0,0,1,1.009.2V21.262a7.193,7.193,0,0,0,7.193,7.193Z" fill="#b17a4a"/>
          </g>
          <g id="Grupo_1102382" data-name="Grupo 1102382">
            <path id="Trazado_879106" data-name="Trazado 879106" d="M3.861,31.471A2.926,2.926,0,0,1,1.009,27.9a1.444,1.444,0,0,1,2.852.318H22.572a1.444,1.444,0,0,1,2.852-.318,2.926,2.926,0,0,1-2.852,3.57" fill="#ffcbbe"/>
            <path id="Trazado_879107" data-name="Trazado 879107" d="M15.753,36.845H10.68a6.819,6.819,0,0,1-6.819-6.819V20.41H22.572v9.617a6.819,6.819,0,0,1-6.819,6.819Z" fill="#ffddce"/>
            <path id="Trazado_879108" data-name="Trazado 879108" d="M15.159,36.845H10.68a6.819,6.819,0,0,1-6.819-6.819V20.409H8.34v9.617a6.819,6.819,0,0,0,6.819,6.819Z" fill="#ffcbbe"/>
            <g id="Grupo_1102381" data-name="Grupo 1102381">
              <ellipse id="Elipse_11678" data-name="Elipse 11678" cx="1.531" cy="0.931" rx="1.531" ry="0.931" transform="translate(17.857 28.919)" fill="#eaa598"/>
              <ellipse id="Elipse_11679" data-name="Elipse 11679" cx="1.531" cy="0.931" rx="1.531" ry="0.931" transform="translate(5.513 28.919)" fill="#eaa598"/>
            </g>
            <path id="Trazado_879109" data-name="Trazado 879109" d="M8.527,13.734h-2.9a3.257,3.257,0,0,0-3.257,3.257V21.4A1.624,1.624,0,0,0,4,23.026H6.034a4.855,4.855,0,0,0,4.855-4.855V16.1A2.362,2.362,0,0,0,8.527,13.734Z" fill="#aa7a63"/>
            <path id="Trazado_879110" data-name="Trazado 879110" d="M8.509,13.734a3.257,3.257,0,0,0-3.257,3.257v6.034H4A1.624,1.624,0,0,1,2.375,21.4v-4.41a3.257,3.257,0,0,1,3.257-3.257H8.509Z" fill="#986b54"/>
            <path id="Trazado_879111" data-name="Trazado 879111" d="M18.247,22.233H13.739a4.42,4.42,0,0,1-4.42-4.42V15.026a4.42,4.42,0,0,1,4.42-4.42H26.933v2.941A8.686,8.686,0,0,1,18.247,22.233Z" fill="#aa7a63"/>
            <path id="Trazado_879112" data-name="Trazado 879112" d="M17.636,22.233h-3.9a4.419,4.419,0,0,1-4.42-4.42V15.026a4.419,4.419,0,0,1,4.42-4.42h3.9a4.419,4.419,0,0,0-4.42,4.42v2.786A4.419,4.419,0,0,0,17.636,22.233Z" fill="#986b54"/>
          </g>
          <g id="Grupo_1102384" data-name="Grupo 1102384">
            <path id="Trazado_879113" data-name="Trazado 879113" d="M36.43,36.266h2.647A10.188,10.188,0,0,1,49.265,46.454V61.268H26.242V46.454A10.188,10.188,0,0,1,36.43,36.266Z" fill="#dd636e"/>
            <path id="Trazado_879114" data-name="Trazado 879114" d="M37.239,36.266c-2.187,0-3.959,4.562-3.959,10.188V61.268H26.242V46.454A10.188,10.188,0,0,1,36.43,36.266Z" fill="#cb5769"/>
            <path id="Trazado_879115" data-name="Trazado 879115" d="M27.912,55.614a3.078,3.078,0,0,1-3-3.756,1.519,1.519,0,0,1,3,.334H47.6a1.519,1.519,0,0,1,3-.334,3.078,3.078,0,0,1-3,3.756" fill="#ffcbbe"/>
            <path id="Trazado_879116" data-name="Trazado 879116" d="M47.595,48.689v5.406a7.173,7.173,0,0,1-7.173,7.173H35.085a7.173,7.173,0,0,1-7.173-7.173V48.751a29.42,29.42,0,0,0,4.713-.612c3.71-.754,7.969-2.18,9.95-4.161,0,0,1.96,4.005,5.02,4.711Z" fill="#ffddce"/>
            <path id="Trazado_879117" data-name="Trazado 879117" d="M39.8,61.268H35.085a7.173,7.173,0,0,1-7.173-7.173V48.751a29.42,29.42,0,0,0,4.713-.612v5.956A7.173,7.173,0,0,0,39.8,61.268Z" fill="#ffcbbe"/>
            <g id="Grupo_1102383" data-name="Grupo 1102383">
              <ellipse id="Elipse_11680" data-name="Elipse 11680" cx="1.611" cy="0.979" rx="1.611" ry="0.979" transform="translate(41.94 53.625)" fill="#eaa598"/>
              <ellipse id="Elipse_11681" data-name="Elipse 11681" cx="1.611" cy="0.979" rx="1.611" ry="0.979" transform="translate(30.346 53.625)" fill="#eaa598"/>
            </g>
          </g>
        </g>
        <g id="Grupo_1102386" data-name="Grupo 1102386">
          <path id="Trazado_879118" data-name="Trazado 879118" d="M22.922,53.8a25.125,25.125,0,0,1-14.6-15,.937.937,0,1,0-1.766.629,27,27,0,0,0,15.69,16.123.937.937,0,0,0,.678-1.748Z"/>
          <path id="Trazado_879119" data-name="Trazado 879119" d="M18.478,9.007a.934.934,0,0,0,.486-.137A25.215,25.215,0,0,1,37.547,5.843a.938.938,0,1,0,.412-1.829A27.091,27.091,0,0,0,17.99,7.268a.938.938,0,0,0,.488,1.739Z"/>
          <path id="Trazado_879120" data-name="Trazado 879120" d="M58.068,29.422a.938.938,0,0,0-.937.938,25.14,25.14,0,0,1-5.966,16.258.937.937,0,1,0,1.429,1.214A27.017,27.017,0,0,0,59.006,30.36a.938.938,0,0,0-.938-.937Z"/>
          <path id="Trazado_879121" data-name="Trazado 879121" d="M64,19.7a4.046,4.046,0,0,0-.1-.889,2.4,2.4,0,0,0-2.673-1.9,2.7,2.7,0,0,0-.313.056V7.644a5.856,5.856,0,0,0-5.85-5.85H45.15a5.856,5.856,0,0,0-5.85,5.85v9.321a2.708,2.708,0,0,0-.313-.056,2.4,2.4,0,0,0-2.673,1.9,4.024,4.024,0,0,0,3.354,4.87,8.146,8.146,0,0,0,7.763,5.71h5.353a8.146,8.146,0,0,0,7.763-5.71A4.027,4.027,0,0,0,64,19.7ZM45.15,3.67h9.916a3.979,3.979,0,0,1,3.975,3.975V9.538a4.7,4.7,0,0,0-2.778-.968,5.13,5.13,0,0,0-3.239,1.476,4.459,4.459,0,0,1-2.915,1.338,4.459,4.459,0,0,1-2.916-1.338,7.443,7.443,0,0,0-1.884-1.214,3.668,3.668,0,0,0-1.354-.261,4.7,4.7,0,0,0-2.779.968V7.644A3.979,3.979,0,0,1,45.15,3.67ZM38.091,19.7a2.167,2.167,0,0,1,.053-.476.586.586,0,0,1,1.157.129h0v1.907c0,.125,0,.249.009.373A2.147,2.147,0,0,1,38.091,19.7Zm14.694,7.816H47.432a6.263,6.263,0,0,1-6.256-6.256v-9.1a3.856,3.856,0,0,1,2.779-1.722,1.779,1.779,0,0,1,.666.13,6,6,0,0,1,1.4.934,6.252,6.252,0,0,0,4.087,1.748,6.252,6.252,0,0,0,4.086-1.748,3.449,3.449,0,0,1,2.068-1.065,3.855,3.855,0,0,1,2.778,1.72v9.1a6.263,6.263,0,0,1-6.256,6.256Zm8.122-5.884c.006-.124.009-.248.009-.373V19.355a.586.586,0,0,1,1.157-.129,2.147,2.147,0,0,1-1.166,2.409Z"/>
          <path id="Trazado_879122" data-name="Trazado 879122" d="M45.48,16.42c-.517,0-.938.7-.938,1.553s.421,1.553.938,1.553.938-.7.938-1.553S46,16.42,45.48,16.42Z"/>
          <path id="Trazado_879123" data-name="Trazado 879123" d="M54.736,16.42c-.517,0-.938.7-.938,1.553s.421,1.553.938,1.553.938-.7.938-1.553S55.253,16.42,54.736,16.42Z"/>
          <path id="Trazado_879124" data-name="Trazado 879124" d="M50.769,22.6a.935.935,0,0,1-1.322,0,.937.937,0,1,0-1.326,1.326,2.809,2.809,0,0,0,3.973,0A.937.937,0,0,0,50.769,22.6Z"/>
          <path id="Trazado_879125" data-name="Trazado 879125" d="M8.83,28.381c.491,0,.89-.661.89-1.472s-.4-1.472-.89-1.472-.89.66-.89,1.472.4,1.472.89,1.472Z"/>
          <path id="Trazado_879126" data-name="Trazado 879126" d="M17.6,28.381c.491,0,.89-.661.89-1.472s-.4-1.472-.89-1.472-.89.66-.89,1.472S17.113,28.381,17.6,28.381Z"/>
          <path id="Trazado_879127" data-name="Trazado 879127" d="M10.68,37.783h5.073a7.769,7.769,0,0,0,7.395-5.417,3.864,3.864,0,0,0,3.19-4.671,2.323,2.323,0,0,0-2.587-1.842c-.083.009-.163.023-.242.039V21.6a9.62,9.62,0,0,0,4.362-8.051V10.606a.938.938,0,0,0-.937-.937H19.511a.937.937,0,0,0,0,1.875H26v2a7.757,7.757,0,0,1-7.749,7.748H13.739a3.486,3.486,0,0,1-3.483-3.483V15.026a3.486,3.486,0,0,1,3.483-3.483h2.023a.938.938,0,0,0,0-1.875H13.739a5.364,5.364,0,0,0-4.877,3.145,3.341,3.341,0,0,0-.335-.017h-2.9a4.2,4.2,0,0,0-4.194,4.194V21.4a2.562,2.562,0,0,0,1.487,2.322v2.168c-.079-.016-.16-.03-.242-.039A2.323,2.323,0,0,0,.095,27.694a3.864,3.864,0,0,0,3.19,4.671,7.769,7.769,0,0,0,7.395,5.417Zm13.28-10.066a.465.465,0,0,1,.55.392A1.988,1.988,0,0,1,23.5,30.3c0-.091.007-.183.007-.275V28.219a.465.465,0,0,1,.45-.5ZM3.312,16.991a2.322,2.322,0,0,1,2.319-2.319H8.394c-.008.117-.013.235-.013.354v2.786a5.324,5.324,0,0,0,.758,2.744,3.925,3.925,0,0,1-3.106,1.531H4a.687.687,0,0,1-.687-.686ZM1.875,28.548a2,2,0,0,1,.049-.44.465.465,0,0,1,.55-.392.465.465,0,0,1,.45.5h0v1.808c0,.092,0,.183.007.275a1.987,1.987,0,0,1-1.056-1.754ZM4.8,23.963H6.034a5.8,5.8,0,0,0,4.354-1.975,5.331,5.331,0,0,0,3.351,1.181h4.509a9.574,9.574,0,0,0,3.387-.617v7.473a5.888,5.888,0,0,1-5.881,5.881H10.68A5.888,5.888,0,0,1,4.8,30.026Z"/>
          <path id="Trazado_879128" data-name="Trazado 879128" d="M13.216,33.375a2.7,2.7,0,0,0,1.917-.793.937.937,0,0,0-1.326-1.326.838.838,0,0,1-1.183,0A.938.938,0,0,0,11.3,32.583a2.7,2.7,0,0,0,1.917.793Z"/>
          <path id="Trazado_879129" data-name="Trazado 879129" d="M50.2,49.972V46.454a11.017,11.017,0,0,0-1.106-4.84.938.938,0,1,0-1.688.817,9.157,9.157,0,0,1,.919,4.023V48.1a.936.936,0,0,0-.522-.329c-2.582-.6-4.372-4.175-4.389-4.21a.937.937,0,0,0-1.5-.251c-2.768,2.768-10.6,4.4-14.027,4.5a.936.936,0,0,0-.7.351V46.454a9.26,9.26,0,0,1,9.25-9.25h2.647a9.209,9.209,0,0,1,6.327,2.5.938.938,0,0,0,1.283-1.367,11.078,11.078,0,0,0-7.611-3.01H36.43A11.138,11.138,0,0,0,25.3,46.454v3.518A2.411,2.411,0,0,0,24,51.652,4.011,4.011,0,0,0,25.3,55.585v5.682a.938.938,0,0,0,.938.938H49.265a.938.938,0,0,0,.938-.937V55.586a4.012,4.012,0,0,0,1.307-3.933A2.412,2.412,0,0,0,50.2,49.972Zm-1.67,4.123v-1.9h0a.541.541,0,0,1,.517-.577.752.752,0,0,1,.116,0l.03,0a.521.521,0,0,1,.485.451,2.138,2.138,0,0,1-1.158,2.4c.005-.122.009-.244.009-.367Zm-12.74-5.764a21.519,21.519,0,0,0,6.531-2.91,9.893,9.893,0,0,0,4.333,3.958v4.716a6.242,6.242,0,0,1-6.235,6.235H35.085a6.242,6.242,0,0,1-6.235-6.235V49.638a37.155,37.155,0,0,0,6.943-1.307ZM25.774,52.539a2.15,2.15,0,0,1,.052-.474.521.521,0,0,1,.491-.451h.023a.749.749,0,0,1,.117,0,.54.54,0,0,1,.516.566v1.913c0,.123,0,.245.009.367a2.138,2.138,0,0,1-1.209-1.923Zm1.405,3.945c.054.01.108.019.162.027a8.135,8.135,0,0,0,2.563,3.82H27.18ZM48.327,60.33H45.6a8.135,8.135,0,0,0,2.563-3.82c.055-.008.109-.017.163-.027V60.33Z"/>
          <path id="Trazado_879130" data-name="Trazado 879130" d="M32.133,51.182h.247a2.524,2.524,0,0,0-.036.43c0,.862.426,1.564.951,1.564s.951-.7.951-1.564-.426-1.564-.951-1.564l-1.161.008a.563.563,0,1,0,0,1.126Z"/>
          <path id="Trazado_879131" data-name="Trazado 879131" d="M42.142,53.175c.524,0,.951-.7.951-1.564a2.523,2.523,0,0,0-.036-.43h.318a.563.563,0,0,0,0-1.126l-1.232-.008c-.524,0-.951.7-.951,1.564s.426,1.564.951,1.564Z"/>
          <path id="Trazado_879132" data-name="Trazado 879132" d="M37.753,57.583a2.7,2.7,0,0,0,1.917-.793.938.938,0,0,0-1.326-1.326.838.838,0,0,1-1.183,0,.937.937,0,0,0-1.326,1.326A2.7,2.7,0,0,0,37.753,57.583Z"/>
        </g>
      </g>
    </g>
  </g>
</svg>
