<svg xmlns="http://www.w3.org/2000/svg" xmlns:xlink="http://www.w3.org/1999/xlink" width="100" height="100" viewBox="0 0 100 100">
  <defs>
    <clipPath id="clip-path">
      <rect id="Rectángulo_403252" data-name="Rectángulo 403252" width="64" height="64" transform="translate(654 7010)" fill="#fff" stroke="#707070" stroke-width="1"/>
    </clipPath>
  </defs>
  <g id="Grupo_1101891" data-name="Grupo 1101891" transform="translate(-636 -6992)">
    <g id="Rectángulo_400898" data-name="Rectángulo 400898" transform="translate(636 6992)" fill="#4e93ee" stroke="#fff" stroke-width="3" opacity="0.859">
      <rect width="100" height="100" rx="50" stroke="none"/>
      <rect x="1.5" y="1.5" width="97" height="97" rx="48.5" fill="none"/>
    </g>
    <g id="Rectángulo_400907" data-name="Rectángulo 400907" transform="translate(636 6992)" fill="none" stroke="#1f3b5f" stroke-linecap="round" stroke-width="2" stroke-dasharray="7">
      <rect width="100" height="100" rx="50" stroke="none"/>
      <rect x="1" y="1" width="98" height="98" rx="49" fill="none"/>
    </g>
    <g id="Enmascarar_grupo_1098814" data-name="Enmascarar grupo 1098814" clip-path="url(#clip-path)">
      <g id="piscina" transform="translate(654 7010)">
        <g id="Grupo_1102353" data-name="Grupo 1102353">
          <path id="Trazado_878996" data-name="Trazado 878996" d="M0,43.469H64v16.25H0Z" fill="#c7efbc"/>
          <path id="Trazado_878997" data-name="Trazado 878997" d="M0,39.719H64v3.75H0Z" fill="#8ca3b7"/>
          <path id="Trazado_878998" data-name="Trazado 878998" d="M64,59.719v-9.25a14.459,14.459,0,0,0-6.925,1.6,8.266,8.266,0,0,1-7.484,0,14.459,14.459,0,0,0-6.925-1.6,14.458,14.458,0,0,0-6.925,1.6,7.278,7.278,0,0,1-3.742.9,7.276,7.276,0,0,1-3.741-.9,14.458,14.458,0,0,0-6.925-1.6,14.458,14.458,0,0,0-6.925,1.6,7.277,7.277,0,0,1-3.742.9,7.276,7.276,0,0,1-3.741-.9A14.46,14.46,0,0,0,0,50.469v9.25Z" fill="#aae79a"/>
          <path id="Trazado_878999" data-name="Trazado 878999" d="M64,54.219c-5.333,0-5.333,2.5-10.667,2.5s-5.333-2.5-10.667-2.5-5.333,2.5-10.667,2.5-5.333-2.5-10.666-2.5-5.333,2.5-10.666,2.5S5.333,54.219,0,54.219v9.75H64v-9.75Z" fill="#dcf0fb"/>
          <path id="Trazado_879000" data-name="Trazado 879000" d="M1,15.969v-.094C1,8.108,8.275.969,17.25.969S33.5,8.108,33.5,15.875v.094c0-1.519-2.1-2.75-4.687-2.75s-4.687,1.231-4.687,2.75c0-1.611-3.078-3.5-6.875-3.5s-6.875,1.889-6.875,3.5c0-1.519-2.1-2.75-4.687-2.75S1,14.45,1,15.969Z" fill="#f88fa4"/>
          <path id="Trazado_879001" data-name="Trazado 879001" d="M28.812,9.469c-2.589,0-4.687,1.231-4.687,2.75,0-1.611-3.078-3.5-6.875-3.5s-6.875,1.889-6.875,3.5c0-1.519-2.1-2.75-4.687-2.75a6.539,6.539,0,0,0-3.45.889A13.228,13.228,0,0,0,1,15.875v.094c0-1.519,2.1-2.75,4.687-2.75s4.687,1.231,4.687,2.75c0-1.611,3.078-3.5,6.875-3.5s6.875,1.889,6.875,3.5c0-1.519,2.1-2.75,4.687-2.75S33.5,14.45,33.5,15.969v-.094a13.228,13.228,0,0,0-1.237-5.517A6.539,6.539,0,0,0,28.812,9.469Z" fill="#f05475"/>
          <path id="Trazado_879002" data-name="Trazado 879002" d="M10.375,15.969c0-1.611,3.078-3.5,6.875-3.5s6.875,1.889,6.875,3.5c0-8.284-3.078-15-6.875-15S10.375,7.684,10.375,15.969Z" fill="#fff"/>
          <path id="Trazado_879003" data-name="Trazado 879003" d="M17.25,8.719c-3.041,0-5.62,1.212-6.526,2.522a31.557,31.557,0,0,0-.349,4.727c0-1.611,3.078-3.5,6.875-3.5s6.875,1.889,6.875,3.5a31.557,31.557,0,0,0-.349-4.727C22.87,9.931,20.291,8.719,17.25,8.719Z" fill="#e3edf6"/>
        </g>
        <g id="Grupo_1102354" data-name="Grupo 1102354">
          <path id="Trazado_879004" data-name="Trazado 879004" d="M2.5,46.281H4.375v1.875H2.5Z" fill="#fff"/>
          <path id="Trazado_879005" data-name="Trazado 879005" d="M13.75,46.281h1.875v1.875H13.75Z" fill="#fff"/>
          <path id="Trazado_879006" data-name="Trazado 879006" d="M25,46.281h1.875v1.875H25Z" fill="#fff"/>
          <path id="Trazado_879007" data-name="Trazado 879007" d="M36.25,46.281h1.875v1.875H36.25Z" fill="#fff"/>
          <path id="Trazado_879008" data-name="Trazado 879008" d="M58.75,46.281h1.875v1.875H58.75Z" fill="#fff"/>
        </g>
        <g id="Grupo_1102355" data-name="Grupo 1102355">
          <path id="Trazado_879009" data-name="Trazado 879009" d="M64,40.656V38.781H61.937V33.594a4.062,4.062,0,0,0-8.125,0v5.187H49.937V33.594a4.062,4.062,0,1,0-8.125,0v5.187H29.844l-3.75-5H14.562v-.562a3.441,3.441,0,0,0-3.437-3.437H5.53L2.681,24.99l-1.612.958,5.244,8.82L4.407,38.781H0v1.875H13.375V38.781H6.483l1.484-3.125H25.156L27.5,38.781H15.25v1.875H41.812v1.875H25.25v1.875H41.812v8.9a11.575,11.575,0,0,0-4.878,1.317A9.992,9.992,0,0,1,32,55.781a9.991,9.991,0,0,1-4.935-1.161,11.711,11.711,0,0,0-5.731-1.339A11.711,11.711,0,0,0,15.6,54.62a9.992,9.992,0,0,1-4.935,1.161A9.99,9.99,0,0,1,5.731,54.62,11.714,11.714,0,0,0,0,53.281v1.875a9.991,9.991,0,0,1,4.935,1.161,11.711,11.711,0,0,0,5.731,1.339A11.711,11.711,0,0,0,16.4,56.318a9.992,9.992,0,0,1,4.935-1.161,9.99,9.99,0,0,1,4.935,1.161A11.712,11.712,0,0,0,32,57.656a11.712,11.712,0,0,0,5.731-1.339,9.992,9.992,0,0,1,4.935-1.161A9.992,9.992,0,0,1,47.6,56.318a11.713,11.713,0,0,0,5.731,1.339,11.713,11.713,0,0,0,5.731-1.339A9.993,9.993,0,0,1,64,55.156V53.281a11.713,11.713,0,0,0-5.731,1.339,11.087,11.087,0,0,1-2.581.941V44.406H64V42.531H55.687V40.656Zm-8.312-7.062a2.187,2.187,0,0,1,4.375,0v5.187H55.687Zm-43,.188H7.908L6.645,31.656h4.48a1.564,1.564,0,0,1,1.562,1.562Zm31-.187a2.187,2.187,0,1,1,4.375,0v5.187H43.687Zm10.125,22.18c-.155.005-.314.008-.48.008A9.992,9.992,0,0,1,48.4,54.62a11.575,11.575,0,0,0-4.71-1.308V51.906H53.812Zm0-5.742H43.687V48.156H53.812Zm0-7.5H50.5v1.875h3.312v1.875H43.687V44.406h4.937V42.531H43.687V40.656H53.812Z"/>
          <path id="Trazado_879010" data-name="Trazado 879010" d="M0,42.531H23.375v1.875H0Z"/>
          <path id="Trazado_879011" data-name="Trazado 879011" d="M53.333,62.031A9.992,9.992,0,0,1,48.4,60.87a11.713,11.713,0,0,0-5.731-1.339,11.712,11.712,0,0,0-5.731,1.339A9.992,9.992,0,0,1,32,62.031a9.991,9.991,0,0,1-4.935-1.161,11.711,11.711,0,0,0-5.731-1.339A11.711,11.711,0,0,0,15.6,60.87a9.992,9.992,0,0,1-4.935,1.161A9.99,9.99,0,0,1,5.731,60.87,11.713,11.713,0,0,0,0,59.531v1.875a9.991,9.991,0,0,1,4.935,1.161,11.711,11.711,0,0,0,5.731,1.339A11.711,11.711,0,0,0,16.4,62.568a9.992,9.992,0,0,1,4.935-1.161,9.99,9.99,0,0,1,4.935,1.161A11.712,11.712,0,0,0,32,63.906a11.712,11.712,0,0,0,5.731-1.339,9.992,9.992,0,0,1,4.935-1.161A9.992,9.992,0,0,1,47.6,62.568a11.713,11.713,0,0,0,5.731,1.339,11.713,11.713,0,0,0,5.731-1.339A9.993,9.993,0,0,1,64,61.406V59.531a11.713,11.713,0,0,0-5.731,1.339,9.991,9.991,0,0,1-4.935,1.161Z"/>
          <path id="Trazado_879012" data-name="Trazado 879012" d="M5.687,14.156c2.146,0,3.75.957,3.75,1.812h1.875c0-.693,1.913-2.249,5-2.521V27.469h1.875V13.448c3.087.272,5,1.828,5,2.521h1.875c0-.856,1.6-1.812,3.75-1.812s3.75.957,3.75,1.812h1.875v-.094a15.362,15.362,0,0,0-5.056-11.05,17.746,17.746,0,0,0-24.263,0A15.362,15.362,0,0,0,.062,15.875v.094H1.937c0-.856,1.6-1.812,3.75-1.812Zm26.52-1.147a7.781,7.781,0,0,0-3.4-.728,7.46,7.46,0,0,0-3.86.984,25.1,25.1,0,0,0-1.989-8.293A12.785,12.785,0,0,0,21.509,2.5,15.254,15.254,0,0,1,32.208,13.009ZM17.25,1.906c1.427,0,2.889,1.4,4.009,3.846a22.888,22.888,0,0,1,1.8,7.333c-.159-.1-.325-.2-.5-.3a11.329,11.329,0,0,0-5.308-1.259,11.329,11.329,0,0,0-5.308,1.259c-.175.095-.341.194-.5.3a22.888,22.888,0,0,1,1.8-7.333c1.12-2.444,2.582-3.846,4.009-3.846Zm-4.259.6a12.785,12.785,0,0,0-1.455,2.467,25.1,25.1,0,0,0-1.989,8.293,7.459,7.459,0,0,0-3.86-.984,7.781,7.781,0,0,0-3.4.728,15.254,15.254,0,0,1,10.7-10.5Z"/>
          <path id="Trazado_879013" data-name="Trazado 879013" d="M16.312,29.344h1.875v1.875H16.312Z"/>
        </g>
      </g>
    </g>
  </g>
</svg>
