<svg xmlns="http://www.w3.org/2000/svg" xmlns:xlink="http://www.w3.org/1999/xlink" width="100" height="100" viewBox="0 0 100 100">
  <defs>
    <clipPath id="clip-path">
      <rect id="Rectángulo_403252" data-name="Rectángulo 403252" width="64" height="64" transform="translate(654 7010)" fill="#fff" stroke="#707070" stroke-width="1"/>
    </clipPath>
    <clipPath id="clip-path-2">
      <path id="path1095" d="M0-64H64V0H0Z"/>
    </clipPath>
  </defs>
  <g id="Grupo_1101895" data-name="Grupo 1101895" transform="translate(-636 -6992)">
    <g id="Rectángulo_400898" data-name="Rectángulo 400898" transform="translate(636 6992)" fill="#4e93ee" stroke="#fff" stroke-width="3" opacity="0.859">
      <rect width="100" height="100" rx="50" stroke="none"/>
      <rect x="1.5" y="1.5" width="97" height="97" rx="48.5" fill="none"/>
    </g>
    <g id="Rectángulo_400907" data-name="Rectángulo 400907" transform="translate(636 6992)" fill="none" stroke="#1f3b5f" stroke-linecap="round" stroke-width="2" stroke-dasharray="7">
      <rect width="100" height="100" rx="50" stroke="none"/>
      <rect x="1" y="1" width="98" height="98" rx="49" fill="none"/>
    </g>
    <g id="Enmascarar_grupo_1098815" data-name="Enmascarar grupo 1098815" clip-path="url(#clip-path)">
      <g id="g1089" transform="translate(654 7074)">
        <g id="g1091">
          <g id="g1093" clip-path="url(#clip-path-2)">
            <g id="g1099" transform="translate(27.122 -59.469)">
              <path id="path1101" d="M0,0A2.29,2.29,0,0,0-2.287,2.287,2.29,2.29,0,0,0,0,4.574H9.756A2.287,2.287,0,0,0,9.756,0ZM9.756,8.167H0A5.88,5.88,0,1,1,0-3.593H9.756a5.88,5.88,0,0,1,0,11.76" fill="#ffe177"/>
            </g>
            <g id="g1103" transform="translate(27.759 -51.303)">
              <path id="path1105" d="M0,0H-.636a5.886,5.886,0,0,1-5.88-5.88,5.886,5.886,0,0,1,5.88-5.88h4.7m4.375,0h.684A5.886,5.886,0,0,1,15-5.88,5.886,5.886,0,0,1,9.119,0H8.483M7.915-3.592h1.2A2.29,2.29,0,0,0,11.406-5.88,2.289,2.289,0,0,0,9.119-8.166H-.636A2.289,2.289,0,0,0-2.924-5.88,2.29,2.29,0,0,0-.636-3.593h1.2" fill="none" stroke="#000" stroke-linecap="round" stroke-linejoin="round" stroke-miterlimit="10" stroke-width="1.875"/>
            </g>
            <g id="g1107" transform="translate(33.868 -55.731)">
              <path id="path1109" d="M0,0H-3.736A2.374,2.374,0,0,0-6.11,2.374v8.373H2.373V2.374A2.373,2.373,0,0,0,0,0" fill="#8d9ca8"/>
            </g>
            <g id="g1111" transform="translate(32.634 -55.731)">
              <path id="path1113" d="M0,0A2.375,2.375,0,0,0-2.374,2.374v8.373h-2.5V2.374A2.374,2.374,0,0,1-2.5,0Z" fill="#7a8c98"/>
            </g>
            <g id="g1115" transform="translate(36.241 -49.32)">
              <path id="path1117" d="M0,0V-4.037A2.373,2.373,0,0,0-2.372-6.41H-6.11A2.373,2.373,0,0,0-8.483-4.037V0" fill="none" stroke="#000" stroke-linecap="round" stroke-linejoin="round" stroke-miterlimit="10" stroke-width="1.875"/>
            </g>
            <g id="g1119" transform="translate(56.376 -25.313)">
              <path id="path1121" d="M0,0A24.376,24.376,0,0,0-24.376-24.376,24.376,24.376,0,0,0-48.752,0,24.376,24.376,0,0,0-24.376,24.376,24.376,24.376,0,0,0,0,0" fill="#ffe177"/>
            </g>
            <g id="g1123" transform="translate(33.263 -0.97)">
              <path id="path1125" d="M0,0Q-.627.031-1.263.032A24.376,24.376,0,0,1-25.639-24.344,24.376,24.376,0,0,1-1.263-48.719q.635,0,1.263.032A24.377,24.377,0,0,0-23.114-24.344,24.377,24.377,0,0,0,0,0" fill="#ffd15b"/>
            </g>
            <g id="g1127" transform="translate(53.115 -13.126)">
              <path id="path1129" d="M0,0A24.264,24.264,0,0,0,3.261-12.187,24.375,24.375,0,0,0-21.115-36.562,24.375,24.375,0,0,0-45.491-12.187,24.376,24.376,0,0,0-21.115,12.189,24.321,24.321,0,0,0-2.516,3.57" fill="none" stroke="#000" stroke-linecap="round" stroke-linejoin="round" stroke-miterlimit="10" stroke-width="1.875"/>
            </g>
            <g id="g1131" transform="translate(51.258 -25.313)">
              <path id="path1133" d="M0,0A19.258,19.258,0,0,0-19.258-19.258,19.258,19.258,0,0,0-38.515,0,19.258,19.258,0,0,0-19.258,19.258,19.258,19.258,0,0,0,0,0" fill="#c8effe"/>
            </g>
            <g id="g1135" transform="translate(34.487 -6.214)">
              <path id="path1137" d="M0,0A19.455,19.455,0,0,1-2.487.159,19.258,19.258,0,0,1-21.745-19.1,19.258,19.258,0,0,1-2.487-38.357,19.455,19.455,0,0,1,0-38.2,19.261,19.261,0,0,0-16.772-19.1,19.261,19.261,0,0,0,0,0" fill="#99e6fc"/>
            </g>
            <g id="g1139" transform="translate(51.258 -25.313)">
              <path id="path1141" d="M0,0A19.258,19.258,0,0,0-19.258-19.258,19.258,19.258,0,0,0-38.515,0,19.258,19.258,0,0,0-19.258,19.258,19.258,19.258,0,0,0,0,0Z" fill="none" stroke="#000" stroke-linecap="round" stroke-linejoin="round" stroke-miterlimit="10" stroke-width="1.875"/>
            </g>
            <g id="g1143" transform="translate(35.661 -21.652)">
              <path id="path1145" d="M0,0A7.423,7.423,0,0,1-2.371,1.594L-9.18,4.457a1.985,1.985,0,0,1-2.6-2.6L-8.916-4.95A7.423,7.423,0,0,1-7.322-7.322l5.456,1.489Z" fill="#fe646f"/>
            </g>
            <g id="g1147" transform="translate(35.661 -21.652)">
              <path id="path1149" d="M0,0-7.322-7.322A7.426,7.426,0,0,1-4.95-8.916l6.809-2.863a1.985,1.985,0,0,1,2.6,2.6L1.594-2.371A7.423,7.423,0,0,1,0,0" fill="#6cabca"/>
            </g>
            <g id="g1151" transform="translate(26.156 -25.202)">
              <path id="path1153" d="M0,0,.589-1.4A7.424,7.424,0,0,1,4.554-5.365l6.809-2.864a1.985,1.985,0,0,1,2.6,2.6L11.1,1.18A7.424,7.424,0,0,1,7.134,5.144L.325,8.007a1.985,1.985,0,0,1-2.6-2.6l.581-1.383" fill="none" stroke="#000" stroke-linecap="round" stroke-linejoin="round" stroke-miterlimit="10" stroke-width="1.875"/>
            </g>
            <g id="g1155" transform="translate(33.527 -23.787)">
              <path id="path1157" d="M0,0A2.159,2.159,0,0,0,0-3.053a2.159,2.159,0,0,0-3.053,0A2.159,2.159,0,0,0-3.053,0,2.159,2.159,0,0,0,0,0" fill="#ffe177"/>
            </g>
            <g id="g1159" transform="translate(33.527 -23.787)">
              <path id="path1161" d="M0,0A2.159,2.159,0,0,0,0-3.053a2.159,2.159,0,0,0-3.053,0A2.159,2.159,0,0,0-3.053,0,2.159,2.159,0,0,0,0,0Z" fill="none" stroke="#000" stroke-linecap="round" stroke-linejoin="round" stroke-miterlimit="10" stroke-width="1.875"/>
            </g>
            <g id="g1163" transform="translate(35.661 -21.652)">
              <path id="path1165" d="M0,0-2.135-2.135" fill="none" stroke="#000" stroke-linecap="round" stroke-linejoin="round" stroke-miterlimit="10" stroke-width="1.875"/>
            </g>
            <g id="g1167" transform="translate(30.473 -26.84)">
              <path id="path1169" d="M0,0-2.135-2.135" fill="none" stroke="#000" stroke-linecap="round" stroke-linejoin="round" stroke-miterlimit="10" stroke-width="1.875"/>
            </g>
            <g id="g1171" transform="translate(30.135 -36.82)">
              <path id="path1173" d="M0,0V-4.973L3.73,0V-4.973" fill="none" stroke="#000" stroke-linecap="round" stroke-linejoin="round" stroke-miterlimit="10" stroke-width="1.875"/>
            </g>
            <g id="g1175" transform="translate(15.701 -25.313)">
              <path id="path1177" d="M0,0H2.763" fill="none" stroke="#000" stroke-linecap="round" stroke-linejoin="round" stroke-miterlimit="10" stroke-width="1.875"/>
            </g>
            <g id="g1179" transform="translate(45.537 -25.313)">
              <path id="path1181" d="M0,0H2.763" fill="none" stroke="#000" stroke-linecap="round" stroke-linejoin="round" stroke-miterlimit="10" stroke-width="1.875"/>
            </g>
            <g id="g1183" transform="translate(20.475 -36.839)">
              <path id="path1185" d="M0,0,1.954,1.954" fill="none" stroke="#000" stroke-linecap="round" stroke-linejoin="round" stroke-miterlimit="10" stroke-width="1.875"/>
            </g>
            <g id="g1187" transform="translate(41.572 -15.741)">
              <path id="path1189" d="M0,0,1.954,1.954" fill="none" stroke="#000" stroke-linecap="round" stroke-linejoin="round" stroke-miterlimit="10" stroke-width="1.875"/>
            </g>
            <g id="g1191" transform="translate(43.525 -36.839)">
              <path id="path1193" d="M0,0-1.954,1.954" fill="none" stroke="#000" stroke-linecap="round" stroke-linejoin="round" stroke-miterlimit="10" stroke-width="1.875"/>
            </g>
            <g id="g1195" transform="translate(22.428 -15.741)">
              <path id="path1197" d="M0,0-1.954,1.954" fill="none" stroke="#000" stroke-linecap="round" stroke-linejoin="round" stroke-miterlimit="10" stroke-width="1.875"/>
            </g>
            <g id="g1199" transform="translate(32 -11.777)">
              <path id="path1201" d="M0,0V2.763" fill="none" stroke="#000" stroke-linecap="round" stroke-linejoin="round" stroke-miterlimit="10" stroke-width="1.875"/>
            </g>
          </g>
        </g>
      </g>
    </g>
  </g>
</svg>
