<svg xmlns="http://www.w3.org/2000/svg" xmlns:xlink="http://www.w3.org/1999/xlink" width="100" height="100" viewBox="0 0 100 100">
  <defs>
    <clipPath id="clip-path">
      <rect id="Rectángulo_403252" data-name="Rectángulo 403252" width="64" height="64" transform="translate(654 7010)" fill="#fff" stroke="#707070" stroke-width="1"/>
    </clipPath>
    <clipPath id="clip-path-2">
      <path id="path207" d="M0-64H64V0H0Z"/>
    </clipPath>
  </defs>
  <g id="Grupo_1101922" data-name="Grupo 1101922" transform="translate(-636 -6992)">
    <g id="Rectángulo_400898" data-name="Rectángulo 400898" transform="translate(636 6992)" fill="#fec009" stroke="#ffe69c" stroke-width="3" opacity="0.859">
      <rect width="100" height="100" rx="50" stroke="none"/>
      <rect x="1.5" y="1.5" width="97" height="97" rx="48.5" fill="none"/>
    </g>
    <g id="Rectángulo_400907" data-name="Rectángulo 400907" transform="translate(636 6992)" fill="none" stroke="#594303" stroke-linecap="round" stroke-width="2" stroke-dasharray="7">
      <rect width="100" height="100" rx="50" stroke="none"/>
      <rect x="1" y="1" width="98" height="98" rx="49" fill="none"/>
    </g>
    <g id="Enmascarar_grupo_1098844" data-name="Enmascarar grupo 1098844" clip-path="url(#clip-path)">
      <g id="g201" transform="translate(654 7074)">
        <g id="g203">
          <g id="g205" clip-path="url(#clip-path-2)">
            <g id="g211" transform="translate(58.629 -19.648)">
              <path id="path213" d="M0,0H-53.259a2.5,2.5,0,0,1-2.5-2.5v-9.2a2.5,2.5,0,0,1,2.5-2.5H0a2.5,2.5,0,0,1,2.5,2.5v9.2A2.5,2.5,0,0,1,0,0" fill="#c59191"/>
            </g>
            <g id="g215" transform="translate(46.941 -34.377)">
              <path id="path217" d="M0,0A.989.989,0,0,1,0-1.339,6.2,6.2,0,0,0,1.695-5.566c0-3.637-3.251-6.585-7.261-6.585S-12.827-9.2-12.827-5.566a6.318,6.318,0,0,0,2.408,4.9,6.318,6.318,0,0,0-2.408,4.9c0,3.637,3.251,6.585,7.261,6.585S1.695,7.865,1.695,4.228A6.2,6.2,0,0,0,0,0" fill="#355f7f"/>
            </g>
            <g id="g219" transform="translate(46.941 -35.715)">
              <path id="path221" d="M0,0A6.2,6.2,0,0,0,1.695-4.228c0-3.637-3.251-6.585-7.261-6.585a7.974,7.974,0,0,0-1.875.223A6.733,6.733,0,0,1-2.055-4.228,6.2,6.2,0,0,1-3.75,0a.989.989,0,0,0,0,1.339A6.2,6.2,0,0,1-2.055,5.566a6.733,6.733,0,0,1-5.386,6.362,7.967,7.967,0,0,0,1.875.223c4.01,0,7.261-2.948,7.261-6.585A6.2,6.2,0,0,0,0,1.338.989.989,0,0,1,0,0" fill="#305972"/>
            </g>
            <g id="g223" transform="translate(17.059 -34.377)">
              <path id="path225" d="M0,0A.989.989,0,0,0,0-1.339,6.2,6.2,0,0,1-1.695-5.566c0-3.637,3.251-6.585,7.261-6.585S12.827-9.2,12.827-5.566a6.318,6.318,0,0,1-2.408,4.9,6.318,6.318,0,0,1,2.408,4.9c0,3.637-3.251,6.585-7.261,6.585S-1.695,7.865-1.695,4.228A6.2,6.2,0,0,1,0,0" fill="#355f7f"/>
            </g>
            <g id="g227" transform="translate(58.629 -33.852)">
              <path id="path229" d="M0,0H-3.75a2.5,2.5,0,0,1,2.5,2.5v9.2a2.5,2.5,0,0,1-2.5,2.5H0a2.5,2.5,0,0,0,2.5-2.5V2.5A2.5,2.5,0,0,0,0,0" fill="#b98080"/>
            </g>
            <path id="path231" d="M55.97-19.648H52.22v-14.2h3.75Z" fill="#eaf6ff"/>
            <path id="path233" d="M11.78-19.648H8.03v-14.2h3.75Z" fill="#eaf6ff"/>
            <g id="g235" transform="translate(54.25 -4.688)">
              <path id="path237" d="M0,0V-11.969a7.5,7.5,0,0,0-5.89-7.325L-15.1-21.319a2.5,2.5,0,0,1-1.963-2.442v-7.615H-27.437v7.615A2.5,2.5,0,0,1-29.4-21.319l-9.209,2.024a7.5,7.5,0,0,0-5.89,7.325V0Z" fill="#aca6d6"/>
            </g>
            <g id="g239" transform="translate(39.151 -26.006)">
              <path id="path241" d="M0,0A2.5,2.5,0,0,1-1.963-2.442v-7.615H-12.338v7.615A2.5,2.5,0,0,1-14.3,0l7.151,7.5Z" fill="#ffcebf"/>
            </g>
            <g id="g243" transform="translate(38.084 -26.53)">
              <path id="path245" d="M0,0A2.5,2.5,0,0,1-.9-1.918V-9.533l-3.75,1.875V-.043A2.5,2.5,0,0,0-2.683,2.4l.233.051" fill="#ffb09e"/>
            </g>
            <g id="g247" transform="translate(35.634 -24.08)">
              <path id="path249" d="M0,0,8.976,1.973A7.5,7.5,0,0,1,14.866,9.3V19.392h3.75V7.423A7.5,7.5,0,0,0,12.726.1L3.517-1.926A2.493,2.493,0,0,1,2.45-2.45" fill="#978ecb"/>
            </g>
            <g id="g251" transform="translate(42.574 -47.646)">
              <path id="path253" d="M0,0V8.25a10.541,10.541,0,0,1-3.1,7.476,10.542,10.542,0,0,1-7.477,3.1,10.522,10.522,0,0,1-5.407-1.486c-.244-.144-.48-.3-.71-.462A10.56,10.56,0,0,1-21.147,8.25V0Z" fill="#ffcebf"/>
            </g>
            <g id="g255" transform="translate(42.574 -47.646)">
              <path id="path257" d="M0,0V8.25a10.541,10.541,0,0,1-3.1,7.476,10.542,10.542,0,0,1-7.477,3.1,10.522,10.522,0,0,1-5.407-1.486q-.356-.234-.71-.462A9.556,9.556,0,0,0-6.245,15.07,9.381,9.381,0,0,0-3.75,8.25V0Z" fill="#ffb09e"/>
            </g>
            <g id="g259" transform="translate(42.574 -50.502)">
              <path id="path261" d="M0,0H-21.147V-6.741a5.819,5.819,0,0,1,5.819-5.819h9.509A5.819,5.819,0,0,1,0-6.741Z" fill="#c59191"/>
            </g>
            <g id="g263" transform="translate(36.755 -63.062)">
              <path id="path265" d="M0,0H-3.75A5.819,5.819,0,0,1,2.069,5.819V12.56h3.75V5.819A5.819,5.819,0,0,0,0,0" fill="#b98080"/>
            </g>
            <g id="g267" transform="translate(18.564 -46.138)">
              <path id="path269" d="M0,0H26.872a1.36,1.36,0,0,0,1.36-1.36V-3a1.36,1.36,0,0,0-1.36-1.36H0A1.36,1.36,0,0,0-1.36-3V-1.36A1.36,1.36,0,0,0,0,0" fill="#685e68"/>
            </g>
            <g id="g271" transform="translate(45.436 -50.502)">
              <path id="path273" d="M0,0H-3.75A1.36,1.36,0,0,1-2.39,1.36V3a1.36,1.36,0,0,1-1.36,1.36H0A1.36,1.36,0,0,0,1.36,3V1.36A1.36,1.36,0,0,0,0,0" fill="#554e56"/>
            </g>
            <g id="g275" transform="translate(43.926 -41.147)">
              <path id="path277" d="M0,0H-1.352V-4.991H0A2.5,2.5,0,0,1,2.5-2.5,2.5,2.5,0,0,1,0,0" fill="#ffcebf"/>
            </g>
            <g id="g279" transform="translate(20.128 -41.147)">
              <path id="path281" d="M0,0H1.3V-4.991H0A2.5,2.5,0,0,0-2.5-2.5,2.5,2.5,0,0,0,0,0" fill="#ffb09e"/>
            </g>
            <g id="g283" transform="translate(42.194 -25.337)">
              <path id="path285" d="M0,0-3.043-.669a2.491,2.491,0,0,1-1.066-.525l-5.908,5.908a.25.25,0,0,1-.354,0l-5.908-5.908a2.49,2.49,0,0,1-1.066.525L-20.388,0l8.426,8.426a2.5,2.5,0,0,0,3.535,0Z" fill="#978ecb"/>
            </g>
            <g id="g287" transform="translate(35.634 -24.08)">
              <path id="path289" d="M0,0,4.348.956,6.561-1.257,3.517-1.926A2.493,2.493,0,0,1,2.45-2.45Z" fill="#8379c1"/>
            </g>
            <g id="g291" transform="translate(8.769)">
              <path id="path293" d="M0,0A1.25,1.25,0,0,1-1.25-1.25V-15.491A1.286,1.286,0,0,1,.585-16.623l10.406,4.734V0Z" fill="#8ddaa7"/>
            </g>
            <g id="g295" transform="translate(44.24 -11.889)">
              <path id="path297" d="M0,0V11.889H-24.48V0l11.146-5.071a2.642,2.642,0,0,1,1.094-.236,2.642,2.642,0,0,1,1.094.236Z" fill="#8ddaa7"/>
            </g>
            <g id="g299" transform="translate(44.24)">
              <path id="path301" d="M0,0V-11.889l10.406-4.734a1.286,1.286,0,0,1,1.835,1.132V-1.25A1.25,1.25,0,0,1,10.991,0Z" fill="#b0e6a0"/>
            </g>
            <g id="g303" transform="translate(54.646 -16.623)">
              <path id="path305" d="M0,0-1.943.884a1.227,1.227,0,0,1,.028.248V15.373a1.25,1.25,0,0,1-1.25,1.25H.585a1.25,1.25,0,0,0,1.25-1.25V1.132A1.286,1.286,0,0,0,0,0" fill="#8ddaa7"/>
            </g>
            <g id="g307" transform="translate(32 -17.196)">
              <path id="path309" d="M0,0V17.2H-12.24V5.308L-1.094.236A2.642,2.642,0,0,1,0,0" fill="#b0e6a0"/>
            </g>
            <g id="g311" transform="translate(58.662 -2.813)">
              <path id="path313" d="M0,0H-3.651A2.184,2.184,0,0,1-5.835-2.184v-4.5A2.184,2.184,0,0,1-3.651-8.873H0a.876.876,0,0,1,.855.69,17.532,17.532,0,0,1,.4,4.1A17.517,17.517,0,0,1,.855-.69.876.876,0,0,1,0,0" fill="#ffcebf"/>
            </g>
            <g id="g315" transform="translate(59.517 -10.995)">
              <path id="path317" d="M0,0A.876.876,0,0,0-.855-.69H-4.506c-.021,0-.042,0-.063,0A.874.874,0,0,1-3.75,0a17.532,17.532,0,0,1,.4,4.1,17.516,17.516,0,0,1-.4,3.395.874.874,0,0,1-.819.687c.021,0,.042,0,.063,0H-.855A.876.876,0,0,0,0,7.493,17.517,17.517,0,0,0,.4,4.1,17.532,17.532,0,0,0,0,0" fill="#ffb09e"/>
            </g>
            <g id="g319" transform="translate(5.338 -2.813)">
              <path id="path321" d="M0,0H3.651A2.184,2.184,0,0,0,5.835-2.184v-4.5A2.184,2.184,0,0,0,3.651-8.873H0a.876.876,0,0,0-.855.69,17.532,17.532,0,0,0-.4,4.1A17.517,17.517,0,0,0-.855-.69.876.876,0,0,0,0,0" fill="#ffcebf"/>
            </g>
            <g id="g323" transform="translate(8.989 -11.685)">
              <path id="path325" d="M0,0H-3.651c-.013,0-.024,0-.037,0A2.183,2.183,0,0,1-1.566,2.184v4.5A2.183,2.183,0,0,1-3.687,8.87c.012,0,.024,0,.036,0H0A2.184,2.184,0,0,0,2.184,6.689v-4.5A2.184,2.184,0,0,0,0,0" fill="#ffb09e"/>
            </g>
            <g id="g327" transform="translate(37.102 -44.002)">
              <path id="path329" d="M0,0A.938.938,0,0,0-.937.938V2.978A.938.938,0,0,0,0,3.916a.938.938,0,0,0,.938-.937V.938A.938.938,0,0,0,0,0"/>
            </g>
            <g id="g331" transform="translate(60.193 -22.149)">
              <path id="path333" d="M0,0A1.564,1.564,0,0,1-1.562,1.563H-3.285V-10.765h1.723A1.564,1.564,0,0,1,0-9.2ZM-5.16,1.563h-.819A8.342,8.342,0,0,0-7.035,0V-10.765H-5.16ZM-15.952,9.23l-9.031-4.109L-17.7-2.163l5.665,1.245A6.606,6.606,0,0,1-6.893,5.109ZM-29.577,4.294l-6.935-6.935,1.369-.3a3.371,3.371,0,0,0,.728-.252l5.382,5.383a1.179,1.179,0,0,0,.84.348,1.179,1.179,0,0,0,.84-.348l5.383-5.383a3.374,3.374,0,0,0,.728.252l1.37.3-6.935,6.935a3.574,3.574,0,0,0-2.77,0m-11.8-7.786A5.459,5.459,0,0,1-43.891-8a5.3,5.3,0,0,1,1.445-3.592,1.932,1.932,0,0,0,0-2.611A5.3,5.3,0,0,1-43.891-17.8a5.139,5.139,0,0,1,.628-2.454,3.438,3.438,0,0,0,3.2,2.189h.361v.813a11.513,11.513,0,0,0,5.386,9.742V-6.3a1.571,1.571,0,0,1-1.228,1.526Zm-3.38.743a8.445,8.445,0,0,0-2.721,1.128v-9.144h2.285A6.987,6.987,0,0,0-45.766-8a7.157,7.157,0,0,0,2.085,5.015Zm2.7-24.244a.423.423,0,0,1,.423-.423h16.883a.938.938,0,0,0,.937-.937.938.938,0,0,0-.937-.937H-37.829v-5.8a4.887,4.887,0,0,1,4.881-4.881h9.509a4.887,4.887,0,0,1,4.881,4.881v5.8H-20.37a.938.938,0,0,0-.937.937.938.938,0,0,0,.938.938h5.614a.423.423,0,0,1,.423.423v1.643a.423.423,0,0,1-.423.423H-41.628a.423.423,0,0,1-.423-.423Zm27.343,5.5a1.56,1.56,0,0,1-1.558,1.558h-.415v-3.116h.415a1.56,1.56,0,0,1,1.558,1.558m-25.357-1.558h.361v3.116h-.361a1.56,1.56,0,0,1-1.558-1.558,1.56,1.56,0,0,1,1.558-1.558M-28.192-7.611a9.647,9.647,0,0,1-9.636-9.636v-5.8h19.272v5.8a9.573,9.573,0,0,1-2.822,6.813,9.553,9.553,0,0,1-6.815,2.823m4.809,3.178L-28.193.377-33-4.433a3.534,3.534,0,0,0,.56-2.117,11.451,11.451,0,0,0,4.25.813,11.5,11.5,0,0,0,4.25-.81,3.484,3.484,0,0,0,.559,2.113M-12.494-17.8A5.3,5.3,0,0,1-13.94-14.2a1.932,1.932,0,0,0,0,2.61A5.3,5.3,0,0,1-12.494-8a5.459,5.459,0,0,1-2.518,4.508l-5.829-1.281A1.571,1.571,0,0,1-22.067-6.3V-7.5a11.6,11.6,0,0,0,2.015-1.608,11.435,11.435,0,0,0,3.371-8.139v-.813h.415a3.438,3.438,0,0,0,3.175-2.129,5.136,5.136,0,0,1,.6,2.395m1.3,7.03H-8.91v9.144a8.446,8.446,0,0,0-2.721-1.128L-12.7-2.985A7.157,7.157,0,0,0-10.619-8a6.985,6.985,0,0,0-.576-2.765M-1.581,11.4a16.61,16.61,0,0,1,.37,3.832,16.618,16.618,0,0,1-.37,3.166h-3.6a1.248,1.248,0,0,1-1.247-1.247v-4.5A1.248,1.248,0,0,1-5.181,11.4ZM-49.35,0a8.334,8.334,0,0,0-1.056,1.558h-.819V-10.765h1.875ZM-53.1,1.563h-1.723A1.564,1.564,0,0,1-56.385,0V-9.2a1.564,1.564,0,0,1,1.563-1.562H-53.1Zm1.9,9.839a1.248,1.248,0,0,1,1.247,1.247v4.5A1.248,1.248,0,0,1-51.2,18.4h-3.6a16.619,16.619,0,0,1-.37-3.166A16.616,16.616,0,0,1-54.8,11.4ZM-1.562-12.64h-10.8c-.033-.047-.254-.23-.2-.29A7.169,7.169,0,0,0-10.619-17.8a7.248,7.248,0,0,0-2.821-5.674,2.3,2.3,0,0,0,.981-1.88v-1.643a2.3,2.3,0,0,0-2.3-2.3h-1.925v-5.8a6.764,6.764,0,0,0-6.756-6.756h-9.509A6.764,6.764,0,0,0-39.7-35.095v5.8h-1.925a2.3,2.3,0,0,0-2.3,2.3v1.643a2.3,2.3,0,0,0,.98,1.879,7.232,7.232,0,0,0-2.82,5.676,7.168,7.168,0,0,0,1.944,4.865c.069.074-.159.233-.2.29h-10.8A3.441,3.441,0,0,0-58.26-9.2V0a3.441,3.441,0,0,0,3.438,3.438h3.7a8.474,8.474,0,0,0-.194,1.033,2.246,2.246,0,0,0-1.289.357,2.171,2.171,0,0,0-1.006,1.829V9.526h-1.243a1.825,1.825,0,0,0-1.771,1.427,18.5,18.5,0,0,0-.424,4.317,18.51,18.51,0,0,0,.423,3.576,1.825,1.825,0,0,0,1.771,1.427h1.243v.938a.938.938,0,0,0,.937.938.938.938,0,0,0,.938-.937v-.937h.533a3.125,3.125,0,0,0,3.122-3.122v-4.5A3.125,3.125,0,0,0-51.2,9.526h-.532V6.657a.337.337,0,0,1,.509-.278l9.856,4.484V21.211a.938.938,0,0,0,.938.938h0a.938.938,0,0,0,.938-.937V10.863l2.806-1.276a.937.937,0,0,0,.465-1.241.937.937,0,0,0-1.242-.465l-2.967,1.35-9.059-4.121A6.606,6.606,0,0,1-44.351-.918l5.665-1.245L-31.4,5.121l-2,.911a.938.938,0,0,0-.465,1.242.938.938,0,0,0,1.242.465c.219-.1,3.3-1.488,3.5-1.591V21.211a.938.938,0,0,0,.938.938.938.938,0,0,0,.937-.937V6.148l10.365,4.715V21.211a.938.938,0,0,0,.938.938h0a.938.938,0,0,0,.937-.937V10.863L-5.158,6.38a.336.336,0,0,1,.509.278V9.526h-.533A3.125,3.125,0,0,0-8.3,12.648v4.5a3.125,3.125,0,0,0,3.122,3.122h.533v.938a.938.938,0,0,0,.938.938.938.938,0,0,0,.937-.937v-.937h1.243A1.825,1.825,0,0,0,.241,18.847,18.51,18.51,0,0,0,.664,15.27a18.493,18.493,0,0,0-.423-4.317A1.825,1.825,0,0,0-1.531,9.526H-2.774V6.658A2.171,2.171,0,0,0-3.78,4.828a2.247,2.247,0,0,0-1.289-.357,8.467,8.467,0,0,0-.194-1.033h3.7A3.441,3.441,0,0,0,1.875,0V-9.2A3.441,3.441,0,0,0-1.562-12.64"/>
            </g>
            <g id="g335" transform="translate(33.59 -35.868)">
              <path id="path337" d="M0,0A3.311,3.311,0,0,1-1.624.408,3.321,3.321,0,0,1-3.18,0,.937.937,0,0,0-4.452.371a.937.937,0,0,0,.371,1.273,5.2,5.2,0,0,0,2.437.639A5.357,5.357,0,0,0,.9,1.644.937.937,0,1,0,0,0"/>
            </g>
            <g id="g339" transform="translate(26.899 -44.002)">
              <path id="path341" d="M0,0A.938.938,0,0,0-.937.938V2.978A.938.938,0,0,0,0,3.916a.938.938,0,0,0,.938-.937V.938A.938.938,0,0,0,0,0"/>
            </g>
          </g>
        </g>
      </g>
    </g>
  </g>
</svg>
