<svg xmlns="http://www.w3.org/2000/svg" xmlns:xlink="http://www.w3.org/1999/xlink" width="100" height="100" viewBox="0 0 100 100">
  <defs>
    <clipPath id="clip-path">
      <rect id="Rectángulo_403252" data-name="Rectángulo 403252" width="64" height="64" transform="translate(654 7010)" fill="#fff" stroke="#707070" stroke-width="1"/>
    </clipPath>
  </defs>
  <g id="Grupo_1101942" data-name="Grupo 1101942" transform="translate(-636 -6992)">
    <g id="Rectángulo_400898" data-name="Rectángulo 400898" transform="translate(636 6992)" fill="#4e93ee" stroke="#b8d4f8" stroke-width="3" opacity="0.859">
      <rect width="100" height="100" rx="50" stroke="none"/>
      <rect x="1.5" y="1.5" width="97" height="97" rx="48.5" fill="none"/>
    </g>
    <g id="Rectángulo_400907" data-name="Rectángulo 400907" transform="translate(636 6992)" fill="none" stroke="#1f3b5f" stroke-linecap="round" stroke-width="2" stroke-dasharray="7">
      <rect width="100" height="100" rx="50" stroke="none"/>
      <rect x="1" y="1" width="98" height="98" rx="49" fill="none"/>
    </g>
    <g id="Enmascarar_grupo_1098845" data-name="Enmascarar grupo 1098845" clip-path="url(#clip-path)">
      <g id="Filled_outline" data-name="Filled outline" transform="translate(651.867 7007.867)">
        <path id="Trazado_879516" data-name="Trazado 879516" d="M30.933,30.933V57.6a4.267,4.267,0,0,1-4.267,4.267H8.533A4.263,4.263,0,0,1,4.267,57.6V30.933a4.267,4.267,0,0,1,4.267-4.267H26.667a4.247,4.247,0,0,1,2.148.579A4.3,4.3,0,0,1,30.2,28.54a4.246,4.246,0,0,1,.733,2.393Z" fill="#d6d6d4"/>
        <path id="Trazado_879517" data-name="Trazado 879517" d="M30.933,30.933V57.6a4.267,4.267,0,0,1-4.267,4.267H8.533A4.276,4.276,0,0,1,4.56,59.157,89.288,89.288,0,0,0,28.815,27.245,4.3,4.3,0,0,1,30.2,28.54a4.246,4.246,0,0,1,.733,2.393Z" fill="#c7c7c5"/>
        <circle id="Elipse_11691" data-name="Elipse 11691" cx="4.267" cy="4.267" r="4.267" transform="translate(7.467 56.533)" fill="#44546c"/>
        <path id="Trazado_879518" data-name="Trazado 879518" d="M24.533,66.133A2.133,2.133,0,0,1,22.4,64V62.933h4.267V64A2.133,2.133,0,0,1,24.533,66.133Z" fill="#44546c"/>
        <rect id="Rectángulo_403564" data-name="Rectángulo 403564" width="12.8" height="4.267" rx="2.133" transform="translate(10.667 3.2)" fill="#e0e0de"/>
        <path id="Trazado_879519" data-name="Trazado 879519" d="M53.333,21.536V16H45.867V42.667h7.467l1.1-2.565a9.221,9.221,0,0,0,.521-5.659,58.864,58.864,0,0,1-1.62-12.907Z" fill="#8f4d2e"/>
        <path id="Trazado_879520" data-name="Trazado 879520" d="M29.867,30.933a9.225,9.225,0,0,0-1.1,9.169l1.1,2.565h7.467V28.8L35.2,24.533Z" fill="#8f4d2e"/>
        <path id="Trazado_879521" data-name="Trazado 879521" d="M52.267,40.533h-6.4V32H37.333v8.533h-6.4A5.333,5.333,0,0,0,25.6,45.867V66.133h32V45.867A5.333,5.333,0,0,0,52.267,40.533Z" fill="#fec9a3"/>
        <path id="Trazado_879522" data-name="Trazado 879522" d="M45.867,36.324V32H37.333v4.324a9.52,9.52,0,0,0,8.533,0Z" fill="#feb784"/>
        <path id="Trazado_879523" data-name="Trazado 879523" d="M51.2,18.133V25.6a9.6,9.6,0,0,1-19.2,0V18.133A8.533,8.533,0,0,1,40.533,9.6h2.133A8.527,8.527,0,0,1,51.2,18.133Z" fill="#fec9a3"/>
        <path id="Trazado_879524" data-name="Trazado 879524" d="M32,21.333H49.067v3.2H32Z" fill="#fec093"/>
        <path id="Trazado_879525" data-name="Trazado 879525" d="M51.2,18.133V25.6a9.607,9.607,0,0,1-11.639,9.383,9.6,9.6,0,0,0,7.012-9.247V15.069A9.558,9.558,0,0,0,45.1,9.952a8.535,8.535,0,0,1,6.1,8.181Z" fill="#fec093"/>
        <path id="Trazado_879526" data-name="Trazado 879526" d="M40.533,6.4A10.667,10.667,0,0,0,29.867,17.067V30.933l3.379-4.055a8.433,8.433,0,0,0,1.955-5.4,8.433,8.433,0,0,1,5.008-7.706L44.8,11.733l.362.9A12.547,12.547,0,0,0,51.2,19.2h2.133V17.067A10.667,10.667,0,0,0,42.667,6.4Z" fill="#95573a"/>
        <path id="Trazado_879527" data-name="Trazado 879527" d="M51.2,19.2h1.067a3.2,3.2,0,0,1,0,6.4H51.2Z" fill="#feb784"/>
        <path id="Trazado_879528" data-name="Trazado 879528" d="M57.6,66.133V45.867a5.333,5.333,0,0,0-5.333-5.333l-.717,1.075a11.959,11.959,0,0,1-19.9,0l-.717-1.075A5.333,5.333,0,0,0,25.6,45.867V66.133" fill="#e0e0de"/>
        <path id="Trazado_879529" data-name="Trazado 879529" d="M57.6,45.867V66.133h-32V45.867a5.333,5.333,0,0,1,5.333-5.333H35.2L41.6,57.6,48,40.533h4.267A5.33,5.33,0,0,1,57.6,45.867Z" fill="#348fd9"/>
        <path id="Trazado_879530" data-name="Trazado 879530" d="M57.6,45.867V66.133H34.107c8.6-5.041,17.5-12.415,22.8-22.889a5.307,5.307,0,0,1,.689,2.623Z" fill="#3086cd"/>
        <path id="Trazado_879531" data-name="Trazado 879531" d="M45.867,6.89a10.607,10.607,0,0,0-2.133-.436v5.754l1.067-.474.362.9a12.535,12.535,0,0,0,.579,1.229h.126Z" fill="#82462a"/>
        <rect id="Rectángulo_403565" data-name="Rectángulo 403565" width="44.8" height="10.667" rx="5.333" transform="translate(19.2 11.733)" fill="#ffa912"/>
        <path id="Trazado_879532" data-name="Trazado 879532" d="M53.333,14.933v2.133H29.867V14.933A11.719,11.719,0,0,1,41.232,3.207c.123-.005.245-.007.368-.007A11.72,11.72,0,0,1,53.333,14.933Z" fill="#ffb531"/>
        <path id="Trazado_879533" data-name="Trazado 879533" d="M53.333,14.933v2.133H47.751C46.1,10.057,44.164,5.977,41.232,3.207c.123-.005.245-.007.368-.007A11.733,11.733,0,0,1,53.333,14.933Z" fill="#ffa912"/>
        <path id="Trazado_879534" data-name="Trazado 879534" d="M53.333,14.933v2.133H29.867V14.933A11.849,11.849,0,0,1,30.06,12.8l23.08,0a11.844,11.844,0,0,1,.193,2.133Z" fill="#f98500"/>
        <path id="Trazado_879535" data-name="Trazado 879535" d="M53.333,14.933v2.133h-6.4c-.285-1.6-.576-3.013-.884-4.267H53.14a11.844,11.844,0,0,1,.193,2.133Z" fill="#e67007"/>
        <path id="Trazado_879536" data-name="Trazado 879536" d="M19.2,30.933h2.133V57.6H19.2Z"/>
        <path id="Trazado_879537" data-name="Trazado 879537" d="M41.6,29.867a3.2,3.2,0,0,0,3.2-3.2H42.667a1.067,1.067,0,1,1-2.133,0H38.4a3.2,3.2,0,0,0,3.2,3.2Z"/>
        <path id="Trazado_879538" data-name="Trazado 879538" d="M51.348,53.876a7.316,7.316,0,0,1-.965,8.372,1.067,1.067,0,0,0-.25.686v3.2h2.133V63.31a9.411,9.411,0,0,0,.919-10.519Z"/>
        <path id="Trazado_879539" data-name="Trazado 879539" d="M31.852,53.876l-1.837-1.085a9.411,9.411,0,0,0,.919,10.519v2.823h2.133v-3.2a1.067,1.067,0,0,0-.25-.686A7.316,7.316,0,0,1,31.852,53.876Z"/>
        <path id="Trazado_879540" data-name="Trazado 879540" d="M58.667,10.667h-5a12.8,12.8,0,0,0-24.136,0h-5a6.382,6.382,0,0,0-3.2.855V8.533a3.2,3.2,0,1,0,0-6.4H12.8a3.2,3.2,0,1,0,0,6.4V25.6H8.533A5.339,5.339,0,0,0,3.2,30.933V57.6a5.307,5.307,0,0,0,3.52,5.019,5.332,5.332,0,0,0,9.9.315h4.713a3.2,3.2,0,0,0,3.2,3.2h2.133V45.867A4.271,4.271,0,0,1,30.933,41.6h3.527l6.073,16.193v8.34h2.133v-8.34L48.739,41.6h3.527a4.271,4.271,0,0,1,4.267,4.267V66.133h2.133V45.867a6.4,6.4,0,0,0-3.179-5.527,10.29,10.29,0,0,0,.507-6.134,63.924,63.924,0,0,1-1.365-8.25,4.409,4.409,0,0,0,.653-.541A4.243,4.243,0,0,0,56.4,23.467h2.268a6.4,6.4,0,1,0,0-12.8ZM30.933,14.933a10.015,10.015,0,0,1,.058-1.067H52.209a10.015,10.015,0,0,1,.058,1.067V16H30.933ZM41.6,4.267a10.685,10.685,0,0,1,10.176,7.467H31.424A10.685,10.685,0,0,1,41.6,4.267ZM50.133,25.6a8.539,8.539,0,0,1-16.65,2.658,13.161,13.161,0,0,0,1.686-2.345,9.469,9.469,0,0,0,.884-2.446h14.08Zm-16.852-.68A11.7,11.7,0,0,1,31.8,26.941c-.109.129-.533.638-.871,1.044V23.467h2.922a7.422,7.422,0,0,1-.574,1.453ZM28.8,26.049a5.314,5.314,0,0,0-2.133-.449H21.333v-3a6.411,6.411,0,0,0,3.2.863H28.8ZM11.733,5.333A1.068,1.068,0,0,1,12.8,4.267h8.533a1.067,1.067,0,1,1,0,2.133H12.8a1.068,1.068,0,0,1-1.067-1.067Zm3.2,3.2H19.2v4.995a6.4,6.4,0,0,0,0,7.078V25.6H14.933ZM11.733,64a3.2,3.2,0,1,1,3.2-3.2,3.2,3.2,0,0,1-3.2,3.2Zm11.733-1.067h1.067V64a1.068,1.068,0,0,1-1.067-1.067Zm1.067-32V60.8H17.067A5.305,5.305,0,0,0,16,57.6h0V30.933H13.867v24.98a5.33,5.33,0,0,0-3.2-.339V30.933H8.533v25.6a5.336,5.336,0,0,0-2.078,3.5A3.189,3.189,0,0,1,5.333,57.6V30.933a3.2,3.2,0,0,1,3.2-3.2H26.667a3.194,3.194,0,0,1,2.133.821v2.034a10.31,10.31,0,0,0-1.089,9.751,6.363,6.363,0,0,0-1.044.761V30.933Zm5.174,8.653a8.169,8.169,0,0,1,1-8l.9-1.075.328-.4a10.626,10.626,0,0,0,4.333,4.714v4.632H30.933a6.378,6.378,0,0,0-1.226.12Zm9.336,8.16a13,13,0,0,0,5.112,0L41.6,54.562Zm6.03-2.448a10.894,10.894,0,0,1-6.948,0l-1.387-3.7h.594A1.067,1.067,0,0,0,38.4,40.533v-4.76a10.627,10.627,0,0,0,6.4,0v4.76A1.067,1.067,0,0,0,45.867,41.6h.594Zm7.193-5.832H46.933V34.834a10.587,10.587,0,0,0,5.28-8.168h.053c.1,0,.192,0,.287-.01a67,67,0,0,0,1.36,8.019,8.169,8.169,0,0,1-.421,4.911,6.4,6.4,0,0,0-1.225-.119Zm1.507-15.56a2.085,2.085,0,0,1-.61.433c-.031.01-.061.021-.091.034a2.034,2.034,0,0,1-.806.159V23.467h1.844A2.151,2.151,0,0,1,53.773,23.907Zm7.919-3.823a4.28,4.28,0,0,1-3.025,1.249H24.533a4.267,4.267,0,0,1-3.417-6.822l.009-.012a3.941,3.941,0,0,1,.382-.451A4.28,4.28,0,0,1,24.533,12.8h4.445c-.117.693-.179,4.267-.179,4.267a1.067,1.067,0,0,0,1.067,1.067H53.333A1.067,1.067,0,0,0,54.4,17.067s-.062-3.573-.179-4.267h4.445a4.273,4.273,0,0,1,3.026,7.284Z"/>
        <path id="Trazado_879541" data-name="Trazado 879541" d="M36.267,58.667H38.4V60.8H36.267Z"/>
      </g>
    </g>
  </g>
</svg>
