<svg id="Grupo_1101956" data-name="Grupo 1101956" xmlns="http://www.w3.org/2000/svg" xmlns:xlink="http://www.w3.org/1999/xlink" width="86" height="86" viewBox="0 0 86 86">
  <defs>
    <clipPath id="clip-path">
      <rect id="Rectángulo_403252" data-name="Rectángulo 403252" width="56" height="56" transform="translate(15 15)" fill="#1f3b5f" stroke="#707070" stroke-width="1"/>
    </clipPath>
  </defs>
  <g id="Rectángulo_400898" data-name="Rectángulo 400898" transform="translate(0 0)" fill="#fec009" stroke="#ffe69c" stroke-width="3" opacity="0.859">
    <rect width="86" height="86" rx="43" stroke="none"/>
    <rect x="1.5" y="1.5" width="83" height="83" rx="41.5" fill="none"/>
  </g>
  <g id="Rectángulo_400907" data-name="Rectángulo 400907" transform="translate(0 0)" fill="none" stroke="#594303" stroke-linecap="round" stroke-width="2" stroke-dasharray="7">
    <rect width="86" height="86" rx="43" stroke="none"/>
    <rect x="1" y="1" width="84" height="84" rx="42" fill="none"/>
  </g>
  <g id="Enmascarar_grupo_1098852" data-name="Enmascarar grupo 1098852" clip-path="url(#clip-path)">
    <path id="digital-marketing" d="M51.834,5.806h-6.5v-4a.9.9,0,0,0-.9-.9H13.379a.9.9,0,0,0-.9.9v4h-6.5A5.075,5.075,0,0,0,.9,10.876V39.537a5.075,5.075,0,0,0,5.069,5.069H19.484v4.813H14.046c-2.457,0-4.456,1.679-4.456,3.742V56a.9.9,0,0,0,.9.9H47.314a.9.9,0,0,0,.9-.9V53.161c0-2.063-2-3.742-4.456-3.742H38.323V44.607H51.834A5.075,5.075,0,0,0,56.9,39.537V10.876a5.075,5.075,0,0,0-5.069-5.069ZM38.332,35.72V24.5a.064.064,0,0,1,.062-.062H51.551a.065.065,0,0,1,.062.062V35.782H38.394A.064.064,0,0,1,38.332,35.72ZM51.613,22.629c-.021,0-.041,0-.062,0H45.331V11.1h6.282ZM14.282,2.71H43.525V22.626h-5.13A1.871,1.871,0,0,0,36.526,24.5V35.72c0,.021,0,.041,0,.062h-13a1.981,1.981,0,0,0,.012-.213V27.054a2.043,2.043,0,0,0-2.061-2.019h-7.2V2.71Zm2.832,28.305L21.739,27.7v7.081Zm-3.147.035L8.1,26.84H19.834Zm-3.148-.035L6.194,34.778V27.7Zm1.657-5.981H6.448a2.1,2.1,0,0,0-.254.017V11.1h6.282Zm-.135,7.072,1.1.789a.9.9,0,0,0,1.053,0l1.1-.789,4.518,3.676H7.822ZM46.41,53.161V55.1H11.4V53.161c0-1.049,1.213-1.935,2.65-1.935H43.761C45.2,51.226,46.41,52.112,46.41,53.161Zm-9.894-3.742H21.29V44.607H36.516v4.813ZM55.1,39.537A3.267,3.267,0,0,1,51.834,42.8H5.973A3.267,3.267,0,0,1,2.71,39.537V10.876A3.267,3.267,0,0,1,5.973,7.613h6.5V9.29H5.868a1.483,1.483,0,0,0-1.481,1.481V36.686a.9.9,0,0,0,.9.9H52.516a.9.9,0,0,0,.9-.9V10.771A1.483,1.483,0,0,0,51.938,9.29H45.331V7.613h6.5A3.267,3.267,0,0,1,55.1,10.876ZM19.6,23.675a4.817,4.817,0,0,0,1.248.166,4.721,4.721,0,0,0,2.367-.637l.251-.145,2.011,3.484a3.027,3.027,0,0,0,4.133,1.108l.643-.371a.9.9,0,0,0,.331-1.234L27.612,20.9a27.377,27.377,0,0,1,8.908-.682A2.076,2.076,0,0,0,38.4,17.105L36.431,13.69a3.187,3.187,0,0,0-3.086-5.346l-2.1-3.633a2.076,2.076,0,0,0-3.584-.02c-.252.425-.5.857-.765,1.314a28.4,28.4,0,0,1-5.018,6.961l-3.434,1.982a4.761,4.761,0,0,0,1.15,8.726Zm8.183,2.531a1.211,1.211,0,0,1-.741-.566l-2.011-3.484.917-.53,2.616,4.531A1.213,1.213,0,0,1,27.78,26.206Zm5.613-7.857a22.652,22.652,0,0,0-6.708.947l-3.133-5.426a26.8,26.8,0,0,0,4.069-5.517Zm1.166-8.267a1.377,1.377,0,0,1,.893,1.913l-1.128-1.953A1.389,1.389,0,0,1,34.559,10.082Zm-5.111-4.6h0a.245.245,0,0,1,.232.135l7.155,12.393a.27.27,0,0,1-.245.4q-.547-.023-1.1-.04L28.669,6.552c.187-.323.368-.635.549-.94a.245.245,0,0,1,.231-.132ZM19.35,16.514l2.733-1.578,2.959,5.126-2.733,1.578a2.959,2.959,0,0,1-2.959-5.126ZM41.07,12.439a.9.9,0,1,1-.468,1.745l-1.556-.417a.9.9,0,0,1,.468-1.745ZM38.087,9.171a.9.9,0,0,1,.331-1.234l1.395-.805a.9.9,0,1,1,.9,1.564L39.32,9.5a.9.9,0,0,1-1.234-.331ZM34.7,5.888l.417-1.556a.9.9,0,0,1,1.745.468L36.45,6.356A.9.9,0,1,1,34.7,5.888ZM49.115,28.9l-5.3-3.057a1.392,1.392,0,0,0-2.088,1.205v6.115a1.389,1.389,0,0,0,2.088,1.205l5.3-3.057a1.392,1.392,0,0,0,0-2.411Zm-5.577,3.545V27.768l4.052,2.339Z" transform="translate(14.097 14.097)" fill="#1f3b5f"/>
  </g>
</svg>
