<svg id="Grupo_1102480" data-name="Grupo 1102480" xmlns="http://www.w3.org/2000/svg" xmlns:xlink="http://www.w3.org/1999/xlink" width="86" height="86" viewBox="0 0 86 86">
  <defs>
    <clipPath id="clip-path">
      <rect id="Rectángulo_403252" data-name="Rectángulo 403252" width="56" height="56" transform="translate(15 15)" fill="#1f3b5f" stroke="#707070" stroke-width="1"/>
    </clipPath>
  </defs>
  <g id="Rectángulo_400898" data-name="Rectángulo 400898" transform="translate(0 0)" fill="#fec009" stroke="#ffe69c" stroke-width="3" opacity="0.859">
    <rect width="86" height="86" rx="43" stroke="none"/>
    <rect x="1.5" y="1.5" width="83" height="83" rx="41.5" fill="none"/>
  </g>
  <g id="Rectángulo_400907" data-name="Rectángulo 400907" transform="translate(0 0)" fill="none" stroke="#594303" stroke-linecap="round" stroke-width="2" stroke-dasharray="7">
    <rect width="86" height="86" rx="43" stroke="none"/>
    <rect x="1" y="1" width="84" height="84" rx="42" fill="none"/>
  </g>
  <g id="Enmascarar_grupo_1098853" data-name="Enmascarar grupo 1098853" clip-path="url(#clip-path)">
    <g id="actuacion" transform="translate(15 15)">
      <path id="Trazado_879566" data-name="Trazado 879566" d="M49.467,0H6.533A6.542,6.542,0,0,0,0,6.533v33.6a6.542,6.542,0,0,0,6.533,6.533h14V50.4H15.867a2.8,2.8,0,1,0,0,5.6H40.133a2.8,2.8,0,1,0,0-5.6H35.467V46.667h14A6.542,6.542,0,0,0,56,40.133V6.533A6.542,6.542,0,0,0,49.467,0Zm-8.4,53.2a.934.934,0,0,1-.933.933H15.867a.933.933,0,0,1,0-1.867H40.133A.934.934,0,0,1,41.067,53.2ZM33.6,50.4H22.4V46.667H33.6Zm15.867-5.6H6.533a4.672,4.672,0,0,1-4.667-4.667V39.2H54.133v.933A4.672,4.672,0,0,1,49.467,44.8Zm4.667-7.467H1.867V6.533A4.672,4.672,0,0,1,6.533,1.867H49.467a4.672,4.672,0,0,1,4.667,4.667Z" fill="#1f3b5f"/>
      <path id="Trazado_879567" data-name="Trazado 879567" d="M28,8.4A19.623,19.623,0,0,0,8.4,28a.9.9,0,0,0,.044.274,1.871,1.871,0,0,0,1.847,1.592h7.443A1.867,1.867,0,0,0,19.6,28,8.4,8.4,0,0,1,28,19.6a8.442,8.442,0,0,1,6.56,3.17c-2.076.578-4.071,1.153-5.606,1.636A3.678,3.678,0,0,0,28,24.267a3.733,3.733,0,1,0,3.177,5.668c1.435-.708,3.275-1.673,5.177-2.692.023.251.045.5.045.754a1.871,1.871,0,0,0,1.867,1.87h7.443a1.871,1.871,0,0,0,1.844-1.576A.931.931,0,0,0,47.6,28,19.623,19.623,0,0,0,28,8.4ZM16.158,14.838a17.638,17.638,0,0,1,10.909-4.525v7.465a10.164,10.164,0,0,0-5.634,2.334l-5.275-5.275ZM17.733,28H10.29a.9.9,0,0,0-.022-.194,17.648,17.648,0,0,1,4.57-11.649l5.276,5.276A10.178,10.178,0,0,0,17.733,28Zm11.2-10.2V10.313a17.637,17.637,0,0,1,10.909,4.524L34.55,20.129A10.291,10.291,0,0,0,28.932,17.8ZM39.7,23.3c-2.571,1.408-5.62,3.059-8.009,4.283a3.689,3.689,0,0,0-.736-1.841c2.082-.621,4.968-1.426,8.745-2.442ZM28,29.867A1.867,1.867,0,1,1,29.867,28,1.869,1.869,0,0,1,28,29.867ZM45.71,28l-7.443,0a10.238,10.238,0,0,0-.161-1.7c1.371-.743,2.712-1.477,3.876-2.118a1.677,1.677,0,0,0-1.237-3.088c-1.286.343-2.765.74-4.274,1.152-.189-.276-.385-.543-.6-.8l5.288-5.288A17.638,17.638,0,0,1,45.731,27.8a.9.9,0,0,0-.022.2Z" fill="#1f3b5f"/>
      <path id="Trazado_879568" data-name="Trazado 879568" d="M28.933,41.067H27.067a.933.933,0,1,0,0,1.867h1.867a.933.933,0,0,0,0-1.867Z" fill="#1f3b5f"/>
    </g>
  </g>
</svg>
