<svg id="Grupo_1102481" data-name="Grupo 1102481" xmlns="http://www.w3.org/2000/svg" xmlns:xlink="http://www.w3.org/1999/xlink" width="86" height="86" viewBox="0 0 86 86">
  <defs>
    <clipPath id="clip-path">
      <rect id="Rectángulo_403252" data-name="Rectángulo 403252" width="56" height="56" transform="translate(15 15)" fill="#1f3b5f" stroke="#707070" stroke-width="1"/>
    </clipPath>
  </defs>
  <g id="Rectángulo_400898" data-name="Rectángulo 400898" transform="translate(0 0)" fill="#fec009" stroke="#ffe69c" stroke-width="3" opacity="0.859">
    <rect width="86" height="86" rx="43" stroke="none"/>
    <rect x="1.5" y="1.5" width="83" height="83" rx="41.5" fill="none"/>
  </g>
  <g id="Rectángulo_400907" data-name="Rectángulo 400907" transform="translate(0 0)" fill="none" stroke="#594303" stroke-linecap="round" stroke-width="2" stroke-dasharray="7">
    <rect width="86" height="86" rx="43" stroke="none"/>
    <rect x="1" y="1" width="84" height="84" rx="42" fill="none"/>
  </g>
  <g id="Enmascarar_grupo_1098854" data-name="Enmascarar grupo 1098854" clip-path="url(#clip-path)">
    <path id="convenio" d="M10.5,23.525H26.852a.9.9,0,0,0,.9-.9V15.2c0-2.006-1.513-3.532-4.15-4.186a21.209,21.209,0,0,0-2.551-.471,6.157,6.157,0,0,0,2.2-4.9A4.739,4.739,0,0,0,21.9,2.06,4.6,4.6,0,0,0,18.677.9,4.6,4.6,0,0,0,15.458,2.06a4.739,4.739,0,0,0-1.364,3.575,6.16,6.16,0,0,0,2.2,4.9,19.709,19.709,0,0,0-2.551.479c-2.633.677-4.142,2.2-4.142,4.184v7.426A.9.9,0,0,0,10.5,23.525ZM18.677,2.71c1.266,0,2.776.507,2.776,2.925,0,2.131-1.271,3.932-2.776,3.932S15.9,7.766,15.9,5.635C15.9,3.217,17.411,2.71,18.677,2.71ZM11.4,15.2c0-1.421,1.515-2.108,2.786-2.435a18.144,18.144,0,0,1,8.98,0c1.038.257,2.778.916,2.778,2.433v6.523H24.041V16.9a.9.9,0,1,0-1.806,0v4.816H15.12V16.9a.9.9,0,1,0-1.806,0v4.816H11.4Zm19.548,8.33H47.3a.9.9,0,0,0,.9-.9V15.2c0-2.006-1.513-3.532-4.15-4.186a21.209,21.209,0,0,0-2.551-.471,6.157,6.157,0,0,0,2.2-4.9A4.74,4.74,0,0,0,42.347,2.06a5.057,5.057,0,0,0-6.437,0,4.739,4.739,0,0,0-1.363,3.575,6.16,6.16,0,0,0,2.2,4.9,19.709,19.709,0,0,0-2.551.479c-2.633.677-4.142,2.2-4.142,4.184v7.426a.9.9,0,0,0,.9.9ZM39.128,2.71c1.266,0,2.776.507,2.776,2.925,0,2.131-1.271,3.932-2.776,3.932s-2.776-1.8-2.776-3.932C36.352,3.217,37.862,2.71,39.128,2.71ZM31.856,15.2c0-1.421,1.515-2.108,2.786-2.435a18.141,18.141,0,0,1,8.98,0c1.038.257,2.778.916,2.778,2.433v6.523H44.492V16.9a.9.9,0,1,0-1.806,0v4.816H35.571V16.9a.9.9,0,1,0-1.806,0v4.816H31.856ZM52.729,39.874,47.084,26.182a2.209,2.209,0,0,0-2.879-1.2L41.569,26.07a2.208,2.208,0,0,0-1.2,2.879l.3.726-1.6.856c-.791.412-1.6.116-2.965-.441-1.891-.773-4.446-1.815-7.776.209a7.629,7.629,0,0,0-6.156-.512c-1.248.295-2.233.527-3.157.008-.021-.012-.043-.023-.065-.033l-1.8-.832.286-.692a2.208,2.208,0,0,0-1.2-2.879L13.6,24.271a2.209,2.209,0,0,0-2.879,1.2L5.076,39.161a2.208,2.208,0,0,0,1.2,2.879L8.91,43.128a2.209,2.209,0,0,0,2.879-1.2l.127-.308c.941.418,1.216.532,1.337.579.281.109.378.488.52,1.266a6.207,6.207,0,0,0,.336,1.288l-.693,1.3A3.022,3.022,0,0,0,16.069,50.5a3.016,3.016,0,0,0,3.874,3.272,3.078,3.078,0,0,0,.5-.2,3.014,3.014,0,0,0,2.7,1.682,3.051,3.051,0,0,0,.884-.132c.085-.026.169-.056.251-.089A3.018,3.018,0,0,0,27.067,56.9a3.051,3.051,0,0,0,.884-.132,3,3,0,0,0,1.5-1.024l.881.485a3.018,3.018,0,0,0,4.476-2.683c.072.005.143.008.215.008a3.025,3.025,0,0,0,2.653-1.565,2.978,2.978,0,0,0,.369-1.4,3.01,3.01,0,0,0,3.36-3.881,3,3,0,0,0,2.047-3.226l2.475-1.055.087.211a2.2,2.2,0,0,0,2.879,1.2l2.636-1.087a2.208,2.208,0,0,0,1.2-2.88Zm-42.61,1.367a.4.4,0,0,1-.521.217L6.962,40.371a.4.4,0,0,1-.217-.521l5.645-13.692a.4.4,0,0,1,.216-.215.413.413,0,0,1,.156-.031.386.386,0,0,1,.148.03l2.636,1.087a.4.4,0,0,1,.217.521ZM15.009,46.9l1.346-2.516a1.217,1.217,0,0,1,1.647-.5,1.223,1.223,0,0,1,.5,1.645l-1.348,2.52A1.216,1.216,0,0,1,15.009,46.9Zm4.41,5.139A1.216,1.216,0,0,1,18,50.306l1.825-3.412a1.217,1.217,0,0,1,1.646-.5,1.223,1.223,0,0,1,.5,1.645h0L20.14,51.453a1.207,1.207,0,0,1-.72.588Zm4.086,1.347a1.216,1.216,0,0,1-1.424-1.735L23.556,48.9a1.233,1.233,0,0,1,1.647-.5,1.223,1.223,0,0,1,.5,1.645L24.226,52.8A1.206,1.206,0,0,1,23.506,53.388Zm3.922,1.655A1.213,1.213,0,0,1,26,53.307l1.29-2.413a1.222,1.222,0,0,1,1.647-.5,1.248,1.248,0,0,1,.586.717,1.208,1.208,0,0,1-.088.928l-1.29,2.413a1.206,1.206,0,0,1-.72.588Zm5.428-.873a1.217,1.217,0,0,1-1.651.479l-.859-.472.686-1.282a3.009,3.009,0,0,0,.317-.934l1.133.623A1.221,1.221,0,0,1,32.856,54.169Zm8.672-9.742a1.217,1.217,0,0,1-.741.587,1.171,1.171,0,0,1-.9-.1l-5.254-2.968a.9.9,0,1,0-.888,1.573s5.338,3.012,5.38,3.034A1.23,1.23,0,0,1,39.6,48.2a1.217,1.217,0,0,1-1.652.479L31.97,45.345a.9.9,0,0,0-.886,1.574l4.524,2.546a1.231,1.231,0,0,1,.487,1.656,1.217,1.217,0,0,1-1.652.479l-3.78-2.1a3.016,3.016,0,0,0-3.152-.932,3.012,3.012,0,0,0-3.737-2,3.013,3.013,0,0,0-3.364-2.085,3.1,3.1,0,0,0-.094-.408,2.994,2.994,0,0,0-1.463-1.786,3.027,3.027,0,0,0-3.395.373,2.65,2.65,0,0,0-1.551-2.152c-.113-.044-.439-.182-1.3-.566L16.46,30.6l1.7.786c1.527.842,3,.494,4.425.157a6.4,6.4,0,0,1,4.1-.039q-.469.4-.932.871a25.22,25.22,0,0,1-5.4,4.032.9.9,0,0,0-.282,1.314c2.933,4.041,6.379,2.646,9.149,1.525,1.769-.716,3.3-1.335,4.488-.656l7.329,4.178a1.238,1.238,0,0,1,.491,1.658Zm1.187-2.589a3.05,3.05,0,0,0-.783-.639L34.6,37.022c-1.951-1.112-4.04-.267-6.06.551-2.718,1.1-4.578,1.709-6.371-.143a25.951,25.951,0,0,0,4.868-3.783,12.692,12.692,0,0,1,1.78-1.514c2.791-1.929,4.729-1.137,6.6-.37,1.431.585,2.91,1.19,4.492.367l1.448-.775,3.879,9.407Zm8.129-.755L48.207,42.17a.4.4,0,0,1-.521-.217L42.041,28.261a.4.4,0,0,1,.217-.521l2.636-1.087a.385.385,0,0,1,.148-.03.413.413,0,0,1,.156.031.4.4,0,0,1,.216.215l5.645,13.692A.4.4,0,0,1,50.843,41.083Zm-5.7-12.253a.886.886,0,1,1-.9-.867A.886.886,0,0,1,45.142,28.83Zm-30.707-.675a.886.886,0,1,1-.867-.9A.886.886,0,0,1,14.435,28.155Z" transform="translate(14.097 14.097)" fill="#1f3b5f" fill-rule="evenodd"/>
  </g>
</svg>
