<svg id="Grupo_1102482" data-name="Grupo 1102482" xmlns="http://www.w3.org/2000/svg" xmlns:xlink="http://www.w3.org/1999/xlink" width="86" height="86" viewBox="0 0 86 86">
  <defs>
    <clipPath id="clip-path">
      <rect id="Rectángulo_403252" data-name="Rectángulo 403252" width="56" height="56" transform="translate(15 15)" fill="#1f3b5f" stroke="#707070" stroke-width="1"/>
    </clipPath>
  </defs>
  <g id="Rectángulo_400898" data-name="Rectángulo 400898" transform="translate(0 0)" fill="#fec009" stroke="#ffe69c" stroke-width="3" opacity="0.859">
    <rect width="86" height="86" rx="43" stroke="none"/>
    <rect x="1.5" y="1.5" width="83" height="83" rx="41.5" fill="none"/>
  </g>
  <g id="Rectángulo_400907" data-name="Rectángulo 400907" transform="translate(0 0)" fill="none" stroke="#594303" stroke-linecap="round" stroke-width="2" stroke-dasharray="7">
    <rect width="86" height="86" rx="43" stroke="none"/>
    <rect x="1" y="1" width="84" height="84" rx="42" fill="none"/>
  </g>
  <g id="Enmascarar_grupo_1098855" data-name="Enmascarar grupo 1098855" clip-path="url(#clip-path)">
    <g id="destino_2_" data-name="destino (2)" transform="translate(14.097 14.096)">
      <path id="Trazado_879569" data-name="Trazado 879569" d="M5.86,14.337A2.561,2.561,0,0,0,4.73,16.452,2.625,2.625,0,0,0,7.321,19l5.9-.108a9.833,9.833,0,0,0,4.027-.924L37.263,8.633a2.721,2.721,0,0,0,1.574-2.479A2.792,2.792,0,0,0,36.748,3.5l-2.3-.56a8.181,8.181,0,0,0-5.355.529L24.061,5.815,16.648,3.55A.909.909,0,0,0,16,3.6L11.909,5.5a.913.913,0,0,0-.03,1.623l4.463,2.286-3.8,1.774L7.529,8.459a1.822,1.822,0,0,0-1.732-.1l-2.073.96a1.791,1.791,0,0,0-.443,2.95ZM16.451,5.379,25.49,8.14l-4.015,1.873L14.346,6.361Zm4.593,6.443a.911.911,0,0,0,.794.015l6.549-3.054A.911.911,0,0,0,28.269,7.1l-1.626-.5,3.215-1.5a6.374,6.374,0,0,1,4.166-.411l2.289.559a.947.947,0,0,1,.716.9A.928.928,0,0,1,36.494,7l-20.005,9.33a8.041,8.041,0,0,1-3.294.755l-5.9.108a.718.718,0,0,1-.678-.41.754.754,0,0,1,.35-1l11.415-5.323ZM6.62,10.019,10.5,12.135,7.657,13.463,4.515,10.945Z" fill="#1f3b5f"/>
      <path id="Trazado_879570" data-name="Trazado 879570" d="M16.876,47.046c2.747-3.014,5.7-7.3,5.7-11.82A10.8,10.8,0,0,0,21.7,30.95a.9.9,0,1,0-1.66.711,9.017,9.017,0,0,1,.73,3.564c0,6.316-7.006,12.534-9.032,14.2-2.028-1.665-9.032-7.875-9.032-14.2a9.043,9.043,0,0,1,9.032-9.032,8.923,8.923,0,0,1,6.476,2.741.9.9,0,0,0,1.3-1.255,10.717,10.717,0,0,0-7.776-3.292A10.851,10.851,0,0,0,.9,35.226c0,8.251,9.876,15.761,10.3,16.077a.925.925,0,0,0,1.085,0,34.864,34.864,0,0,0,3.229-2.84,4.857,4.857,0,0,1,2.27,1.388,1.2,1.2,0,0,1,.28.73c0,1.057-1.957,2.371-5.137,2.652a12.009,12.009,0,0,1-2.389,0c-3.162-.279-5.119-1.593-5.119-2.65a1.2,1.2,0,0,1,.28-.73.9.9,0,1,0-1.429-1.1,3,3,0,0,0-.658,1.835A3.866,3.866,0,0,0,5.8,53.71,11.421,11.421,0,0,0,11.45,55.1,12.468,12.468,0,0,0,17.3,53.918c1.217-.622,2.569-1.85,2.569-3.337a2.991,2.991,0,0,0-.654-1.83,5.908,5.908,0,0,0-2.341-1.7Z" fill="#1f3b5f"/>
      <path id="Trazado_879571" data-name="Trazado 879571" d="M54.352,20.724A9.285,9.285,0,0,0,56.9,14.452a6.322,6.322,0,0,0-9.835-5.257.9.9,0,0,0,1.009,1.5,4.461,4.461,0,0,1,2.5-.758A4.521,4.521,0,0,1,55.1,14.452a8.01,8.01,0,0,1-2.943,5.923,12,12,0,0,1-1.574,1.164,11.967,11.967,0,0,1-1.569-1.16,8.013,8.013,0,0,1-2.947-5.927,4.458,4.458,0,0,1,.2-1.345.9.9,0,1,0-1.731-.518,6.3,6.3,0,0,0-.277,1.863,9.284,9.284,0,0,0,2.552,6.272,2.72,2.72,0,0,0-1.649,2.309c0,1.8,2.33,3.161,5.419,3.161S56,24.834,56,23.032A2.72,2.72,0,0,0,54.352,20.724Zm-3.771,3.663c-2.241,0-3.613-.877-3.613-1.355,0-.234.391-.654,1.246-.967a12.327,12.327,0,0,0,1.958,1.32.91.91,0,0,0,.819,0,12.335,12.335,0,0,0,1.958-1.32c.854.313,1.245.734,1.245.967C54.194,23.51,52.822,24.387,50.581,24.387Z" fill="#1f3b5f"/>
      <path id="Trazado_879572" data-name="Trazado 879572" d="M6.323,34.323A5.419,5.419,0,1,0,11.742,28.9,5.425,5.425,0,0,0,6.323,34.323Zm9.032,0a3.613,3.613,0,1,1-3.613-3.613A3.617,3.617,0,0,1,15.355,34.323Z" fill="#1f3b5f"/>
      <path id="Trazado_879573" data-name="Trazado 879573" d="M24.387,49.677H22.581a.9.9,0,0,0,0,1.806h1.806a.9.9,0,1,0,0-1.806Z" fill="#1f3b5f"/>
      <path id="Trazado_879574" data-name="Trazado 879574" d="M33.011,49.677h-3.45a.9.9,0,1,0,0,1.806h3.45a.9.9,0,0,0,0-1.806Z" fill="#1f3b5f"/>
      <path id="Trazado_879575" data-name="Trazado 879575" d="M46.276,35.511a7.159,7.159,0,0,1,2.675,1.446.9.9,0,0,0,1.175-1.373,8.958,8.958,0,0,0-3.347-1.809.9.9,0,0,0-.5,1.735Z" fill="#1f3b5f"/>
      <path id="Trazado_879576" data-name="Trazado 879576" d="M41.635,49.677h-3.45a.9.9,0,0,0,0,1.806h3.45a.9.9,0,1,0,0-1.806Z" fill="#1f3b5f"/>
      <path id="Trazado_879577" data-name="Trazado 879577" d="M49.12,47.8a7.181,7.181,0,0,1-2.631,1.529.9.9,0,0,0-.58,1.137.931.931,0,0,0,1.138.581,8.972,8.972,0,0,0,3.289-1.911A.9.9,0,1,0,49.12,47.8Z" fill="#1f3b5f"/>
      <path id="Trazado_879578" data-name="Trazado 879578" d="M51.977,39.738a.9.9,0,0,0-.677,1.083,7.244,7.244,0,0,1,.184,1.63,7.391,7.391,0,0,1-.138,1.415.9.9,0,0,0,1.773.35,9.236,9.236,0,0,0,.172-1.764,9.093,9.093,0,0,0-.23-2.037.907.907,0,0,0-1.083-.677Z" fill="#1f3b5f"/>
      <path id="Trazado_879579" data-name="Trazado 879579" d="M32.73,35.222h.032a.9.9,0,0,0,.03-1.806,4.936,4.936,0,0,1-2.72-.928.9.9,0,0,0-1.055,1.467,6.741,6.741,0,0,0,3.713,1.267Z" fill="#1f3b5f"/>
      <path id="Trazado_879580" data-name="Trazado 879580" d="M37.935,35.226h3.45a.9.9,0,0,0,0-1.806h-3.45a.9.9,0,1,0,0,1.806Z" fill="#1f3b5f"/>
      <path id="Trazado_879581" data-name="Trazado 879581" d="M35.421,21.677H32.968a6.814,6.814,0,0,0-1.142.1.9.9,0,0,0-.74,1.042.916.916,0,0,0,1.042.739,5.052,5.052,0,0,1,.841-.071h2.453a.9.9,0,0,0,0-1.806Z" fill="#1f3b5f"/>
      <path id="Trazado_879582" data-name="Trazado 879582" d="M28.655,25.983a.9.9,0,1,0-1.567-.9,6.776,6.776,0,0,0-.9,3.367c0,.153.005.3.015.455a.9.9,0,0,0,1.8-.122C28,28.675,28,28.564,28,28.452a4.969,4.969,0,0,1,.655-2.468Z" fill="#1f3b5f"/>
      <path id="Trazado_879583" data-name="Trazado 879583" d="M42.452,21.677H40.645a.9.9,0,0,0,0,1.806h1.806a.9.9,0,1,0,0-1.806Z" fill="#1f3b5f"/>
      <path id="Trazado_879584" data-name="Trazado 879584" d="M50.581,17.161a2.71,2.71,0,1,0-2.71-2.71A2.713,2.713,0,0,0,50.581,17.161Zm0-3.613a.9.9,0,1,1-.9.9A.9.9,0,0,1,50.581,13.548Z" fill="#1f3b5f"/>
    </g>
  </g>
</svg>
