<svg id="Grupo_1102483" data-name="Grupo 1102483" xmlns="http://www.w3.org/2000/svg" xmlns:xlink="http://www.w3.org/1999/xlink" width="86" height="86" viewBox="0 0 86 86">
  <defs>
    <clipPath id="clip-path">
      <rect id="Rectángulo_403252" data-name="Rectángulo 403252" width="56" height="56" transform="translate(15 15)" fill="#1f3b5f" stroke="#707070" stroke-width="1"/>
    </clipPath>
  </defs>
  <g id="Rectángulo_400898" data-name="Rectángulo 400898" transform="translate(0 0)" fill="#fec009" stroke="#ffe69c" stroke-width="3" opacity="0.859">
    <rect width="86" height="86" rx="43" stroke="none"/>
    <rect x="1.5" y="1.5" width="83" height="83" rx="41.5" fill="none"/>
  </g>
  <g id="Rectángulo_400907" data-name="Rectángulo 400907" transform="translate(0 0)" fill="none" stroke="#594303" stroke-linecap="round" stroke-width="2" stroke-dasharray="7">
    <rect width="86" height="86" rx="43" stroke="none"/>
    <rect x="1" y="1" width="84" height="84" rx="42" fill="none"/>
  </g>
  <g id="Enmascarar_grupo_1098856" data-name="Enmascarar grupo 1098856" clip-path="url(#clip-path)">
    <g id="outline" transform="translate(13.133 12.667)">
      <circle id="Elipse_11699" data-name="Elipse 11699" cx="1.167" cy="1.167" r="1.167" transform="translate(25.2 18.433)" fill="#1f3b5f"/>
      <circle id="Elipse_11700" data-name="Elipse 11700" cx="1.167" cy="1.167" r="1.167" transform="translate(31.733 18.433)" fill="#1f3b5f"/>
      <path id="Trazado_879585" data-name="Trazado 879585" d="M28.933,23.333H30.8a.933.933,0,1,0,0-1.867h-.572l.524-1.571a.933.933,0,0,0-1.771-.59l-.933,2.8a.933.933,0,0,0,.885,1.228Z" fill="#1f3b5f"/>
      <path id="Trazado_879586" data-name="Trazado 879586" d="M31.316,23.924a3.256,3.256,0,0,1-2.9,0,.933.933,0,1,0-.835,1.67,5.133,5.133,0,0,0,4.568,0,.933.933,0,0,0-.835-1.67Z" fill="#1f3b5f"/>
      <path id="Trazado_879587" data-name="Trazado 879587" d="M56.933,4.667H46.667a.933.933,0,0,0-.933.933V24.267a.933.933,0,0,0,.933.933H50.4a.933.933,0,0,0,.66-.273,1.709,1.709,0,0,1,2.414,0,.933.933,0,0,0,.66.273h2.8a.933.933,0,0,0,.933-.933V5.6A.933.933,0,0,0,56.933,4.667ZM47.6,6.533H56V18.667H47.6Zm8.4,16.8H54.487a3.581,3.581,0,0,0-4.44,0H47.6v-2.8H56Z" fill="#1f3b5f"/>
      <path id="Trazado_879588" data-name="Trazado 879588" d="M54.133,10.267a.933.933,0,0,0-.933.933H49.467a.933.933,0,0,0,0,1.867h1.48L52.54,14.66a.933.933,0,1,0,1.32-1.32l-.273-.273h.547a.933.933,0,0,0,.933-.933V11.2A.933.933,0,0,0,54.133,10.267Z" fill="#1f3b5f"/>
      <path id="Trazado_879589" data-name="Trazado 879589" d="M4.354,28.643,7.8,31.517a.933.933,0,0,0,1.195,0l3.449-2.874a6.893,6.893,0,0,0,2.487-5.309,6.533,6.533,0,1,0-13.067,0,6.893,6.893,0,0,0,2.487,5.309ZM8.4,18.667a4.672,4.672,0,0,1,4.667,4.667,5.031,5.031,0,0,1-1.815,3.875h0L8.4,29.585,5.549,27.209a5.031,5.031,0,0,1-1.815-3.875A4.672,4.672,0,0,1,8.4,18.667Z" fill="#1f3b5f"/>
      <path id="Trazado_879590" data-name="Trazado 879590" d="M6.715,25.57a2.777,2.777,0,0,0,1.679.563,2.853,2.853,0,0,0,.4-.028,2.8,2.8,0,1,0-2.074-.537Zm.939-2.8a.928.928,0,0,1,.616-.363A.954.954,0,0,1,8.4,22.4a.933.933,0,1,1-.748.372Z" fill="#1f3b5f"/>
      <rect id="Rectángulo_403586" data-name="Rectángulo 403586" width="1.867" height="1.867" transform="translate(7.467 33.6)" fill="#1f3b5f"/>
      <path id="Trazado_879591" data-name="Trazado 879591" d="M39.83,45.876a6.017,6.017,0,0,0,.73-1.859l.1.147a5.977,5.977,0,0,0,10.663-2.025l1.7-6.806,2.44-.488a2.985,2.985,0,0,0-.586-5.912H50.256a3.2,3.2,0,0,0-3.077,2.35l-1.7,6.247-.463-.926h0L44.5,35.568a6.925,6.925,0,0,0-2.7-2.893A9.673,9.673,0,0,0,41,22.308a4.347,4.347,0,0,1-.865-2.6v-4.78a10.267,10.267,0,1,0-20.533,0v2.582a2.793,2.793,0,0,0-.321,3.83,4.293,4.293,0,0,1-.545.964,9.675,9.675,0,0,0-1.2,9.506c.1.236.208.468.325.7a5.836,5.836,0,0,0-2.927,5.054V39.2h-5.6V37.333H7.467V39.2h-2.8A.933.933,0,0,0,3.8,40.48l3.221,8.053H4.2a2.336,2.336,0,0,0-2.333,2.333v4.2A.933.933,0,0,0,2.8,56H56.933a.933.933,0,0,0,.933-.933v-4.2a2.336,2.336,0,0,0-2.333-2.333H39.2V46.925ZM43.923,38.6l.976,1.953a.933.933,0,0,0,1.735-.172l2.346-8.6a1.327,1.327,0,0,1,1.276-.975h4.626a1.118,1.118,0,0,1,.218,2.215l-3.017.6a.933.933,0,0,0-.723.689l-1.844,7.379a4.111,4.111,0,0,1-7.332,1.393l-1.143-1.6ZM21.467,14.933a8.4,8.4,0,0,1,16.8,0v4.78a6.224,6.224,0,0,0,1.239,3.716,7.805,7.805,0,0,1,.547,8.53,7.006,7.006,0,0,0-1.764-.225H34.533A.931.931,0,0,1,33.6,30.8V28.862A7.469,7.469,0,0,0,37.333,22.4V17.733A.933.933,0,0,0,36.4,16.8a9.4,9.4,0,0,1-6-2.174L27.664,12.35a.933.933,0,0,0-1.483.422,7.705,7.705,0,0,1-3.022,3.956l-.109.073H21.467Zm8.4,24.98-1.29-2.58h2.58Zm0-11.913a5.606,5.606,0,0,1-5.6-5.6V18.232a9.59,9.59,0,0,0,3.175-3.638L29.2,16.06a11.268,11.268,0,0,0,6.265,2.567V22.4A5.606,5.606,0,0,1,29.867,28Zm0,1.867a7.457,7.457,0,0,0,1.867-.236V30.8a2.788,2.788,0,0,0,.821,1.982,2.82,2.82,0,0,0,.639.478l-1.1,2.207H27.643l-1.1-2.208A2.8,2.8,0,0,0,28,30.8V29.63a7.457,7.457,0,0,0,1.867.236Zm-4.285,5.651,1.455,2.909-1.746-1.455Zm8.57,0,.291,1.455L32.7,38.427ZM20.533,19.6a.934.934,0,0,1,.933-.933H22.4v1.867h-.933a.934.934,0,0,1-.933-.933ZM19.261,31.1a7.806,7.806,0,0,1,.967-7.671,6.169,6.169,0,0,0,.654-1.091,2.8,2.8,0,0,0,.585.062H22.4a7.469,7.469,0,0,0,3.733,6.462V30.8a.934.934,0,0,1-.933.933H20.767a5.833,5.833,0,0,0-1.147.114,7.659,7.659,0,0,1-.359-.747ZM6.045,41.067h15.66l2.24,7.467H9.032Zm26.621,7.467H25.895l-.56-1.867h6.632a.7.7,0,0,1,.7.7ZM56,50.867v3.267H3.733V50.867A.467.467,0,0,1,4.2,50.4H55.533A.467.467,0,0,1,56,50.867ZM34.533,48.533V47.367A2.57,2.57,0,0,0,31.967,44.8H24.775l-1.48-4.935A.933.933,0,0,0,22.4,39.2H16.8V37.567A3.971,3.971,0,0,1,20.767,33.6h3.295l-.71,3.55a.933.933,0,0,0,.318.9l5.6,4.667a.933.933,0,0,0,1.177.015l.017-.015h0l5.6-4.667a.933.933,0,0,0,.318-.9l-.56-2.8,0-.007-.148-.741h2.617a5.046,5.046,0,0,1,4.537,2.8l.217.434-3.1,3.1a.933.933,0,0,0-1.54,1.026,4.125,4.125,0,0,1-.169,3.948l-.763,1.272a.933.933,0,0,0-.133.48v1.867Z" fill="#1f3b5f"/>
    </g>
  </g>
</svg>
