<svg xmlns="http://www.w3.org/2000/svg" xmlns:xlink="http://www.w3.org/1999/xlink" width="62.504" height="62.504" viewBox="0 0 62.504 62.504">
  <defs>
    <clipPath id="clip-path">
      <rect id="Rect치ngulo_403259" data-name="Rect치ngulo 403259" width="51" height="51" transform="translate(279 11098)" fill="#33501e" stroke="#707070" stroke-width="1"/>
    </clipPath>
  </defs>
  <g id="Grupo_1101951" data-name="Grupo 1101951" transform="translate(-273 -11093)">
    <g id="Grupo_1072053" data-name="Grupo 1072053" transform="translate(273 11093)">
      <circle id="Elipse_4742" data-name="Elipse 4742" cx="31.252" cy="31.252" r="31.252" transform="translate(0)" fill="#81c74d"/>
    </g>
    <g id="Enmascarar_grupo_1098837" data-name="Enmascarar grupo 1098837" clip-path="url(#clip-path)">
      <g id="GLYPH" transform="translate(277.301 11096.3)">
        <path id="Trazado_879401" data-name="Trazado 879401" d="M27.2,3.4a24.165,24.165,0,0,1,2.463.126l.174-1.691a25.806,25.806,0,0,0-7.032.243l.291,1.675A24.033,24.033,0,0,1,27.2,3.4Z" fill="#33501e"/>
        <path id="Trazado_879402" data-name="Trazado 879402" d="M13.249,7.915l-1-1.376A25.519,25.519,0,0,0,4.338,38.507l1.523-.755A23.819,23.819,0,0,1,13.249,7.915Z" fill="#33501e"/>
        <path id="Trazado_879403" data-name="Trazado 879403" d="M28.021,50.985l.057,1.7a25.453,25.453,0,0,0,7.035-1.237l-.527-1.616A23.755,23.755,0,0,1,28.021,50.985Z" fill="#33501e"/>
        <path id="Trazado_879404" data-name="Trazado 879404" d="M52.217,28.02,36.9,20.651a2.553,2.553,0,0,0-3.4,1.193L28.9,31.4V22.949a4.255,4.255,0,0,0-4.25-4.25h-3.4V5.1a3.4,3.4,0,0,0-6.8,0V18.7h-3.4a4.255,4.255,0,0,0-4.25,4.25v22.1a4.257,4.257,0,0,0,2.8,4,2.55,2.55,0,1,0,4.7.254H21.4a2.55,2.55,0,1,0,4.7-.254,4.266,4.266,0,0,0,2.7-3.053l12,5.773a.849.849,0,0,0,1.134-.4L52.615,29.154a.85.85,0,0,0-.4-1.134ZM11.9,51a.85.85,0,1,1,.85-.85.85.85,0,0,1-.85.85Zm1.7-5.1H11.9V26.349h1.7Zm5.1,0H17V26.349h1.7Zm.85-27.2h-3.4V5.1a1.7,1.7,0,1,1,3.4,0Zm2.55,7.65h1.7V45.9H22.1ZM23.8,51a.85.85,0,1,1,.85-.85.85.85,0,0,1-.85.85Zm16.967-1.134-14.554-7a.85.85,0,0,1-.4-1.134l8.169-16.983a2.538,2.538,0,0,0,.7.5l14.554,7Z" fill="#33501e"/>
        <path id="Trazado_879405" data-name="Trazado 879405" d="M32.9,32.877a5.911,5.911,0,1,0,3.389-3.051A5.95,5.95,0,0,0,32.9,32.877Zm4.2,5.289-.224.173,0-.283a6.558,6.558,0,0,1,.336-2.164l1.373.661A6.558,6.558,0,0,1,37.1,38.166Zm4.249-5.63a4.265,4.265,0,0,1,1.035,3.96l-1.524-.733a8.261,8.261,0,0,0,.494-2.932Zm.3,5.492A4.265,4.265,0,0,1,37.91,39.69l.233-.18a8.261,8.261,0,0,0,1.983-2.216Zm-2.221-5.281.224-.173,0,.283a6.558,6.558,0,0,1-.336,2.164l-1.373-.661a6.558,6.558,0,0,1,1.481-1.613Zm-1.156-1.54c.116,0,.232.006.348.016l-.232.18A8.262,8.262,0,0,0,36.4,33.618l-1.522-.732A4.264,4.264,0,0,1,38.272,31.207Zm-2.6,3.943a8.261,8.261,0,0,0-.494,2.932l0,.3a4.259,4.259,0,0,1-1.036-3.963Z" fill="#33501e"/>
        <rect id="Rect치ngulo_403563" data-name="Rect치ngulo 403563" width="1.7" height="8.5" transform="matrix(0.433, -0.901, 0.901, 0.433, 30.013, 42.806)" fill="#33501e"/>
        <path id="Trazado_879406" data-name="Trazado 879406" d="M38.425,13.424a2.656,2.656,0,0,0-3.752,0,.954.954,0,0,1-1.348,0l-.212-.212a5.966,5.966,0,0,0-8.427,0,2.44,2.44,0,0,1-1.736.719v1.7a4.129,4.129,0,0,0,2.938-1.217,4.264,4.264,0,0,1,6.023,0l.212.212a2.656,2.656,0,0,0,3.752,0,.954.954,0,0,1,1.348,0l1.567,1.567a17.142,17.142,0,0,0,11.455,5.04,23.749,23.749,0,0,1,.7,4.325l1.7-.116A25.261,25.261,0,0,0,50,15.768l-1.519.763A23.7,23.7,0,0,1,49.725,19.5a15.449,15.449,0,0,1-9.733-4.507Z" fill="#33501e"/>
        <path id="Trazado_879407" data-name="Trazado 879407" d="M31.006,5.825l14.157,8.652A2.543,2.543,0,0,0,48.3,14.1l3.3-3.3a.85.85,0,0,0,0-1.2L49.9,7.9a.85.85,0,0,0-1.072-.106L46.749,9.178,42.868,6.591,44.879,3.91A.85.85,0,0,0,44.8,2.8l-.85-.85a.85.85,0,0,0-.981-.159L38.286,4.131l-1.574-.944a4.244,4.244,0,0,0-5.192.639l-.673.673a.85.85,0,0,0,.158,1.326Z" fill="#33501e"/>
      </g>
    </g>
  </g>
</svg>
