<svg xmlns="http://www.w3.org/2000/svg" xmlns:xlink="http://www.w3.org/1999/xlink" width="121" height="121" viewBox="0 0 121 121">
  <defs>
    <clipPath id="clip-path">
      <rect id="Rectángulo_403250" data-name="Rectángulo 403250" width="84" height="84" transform="translate(408 6464)" fill="#fff" stroke="#707070" stroke-width="1"/>
    </clipPath>
  </defs>
  <g id="Grupo_1101884" data-name="Grupo 1101884" transform="translate(-389 -6445)">
    <circle id="Elipse_11630" data-name="Elipse 11630" cx="60.5" cy="60.5" r="60.5" transform="translate(389 6445)" fill="#4e93ee"/>
    <g id="Enmascarar_grupo_1098839" data-name="Enmascarar grupo 1098839" clip-path="url(#clip-path)">
      <g id="estatua" transform="translate(408 6463.949)">
        <path id="Trazado_879408" data-name="Trazado 879408" d="M82.593,47.65c0,1.484-.014,2.855-.055,4.115a28.423,28.423,0,0,0-4.157-2.911,30.912,30.912,0,0,0-17.525-3.989v-.056a9.807,9.807,0,0,0-.126-1.428,6.912,6.912,0,0,0-.392-1.4c-.056-.14-.112-.266-.168-.392a5.333,5.333,0,0,0-.644-.938,1.262,1.262,0,0,0-.266-.279,1.053,1.053,0,0,0-.294-.266,1.268,1.268,0,0,0-.322-.238,3.155,3.155,0,0,0-.364-.224c-.084-.335-.168-.686-.28-1.036-.014-.056-.042-.126-.056-.182l.154-.042a54.215,54.215,0,0,1,17.133-3.976,36.065,36.065,0,0,1,5.627.084l.28-.056A60.547,60.547,0,0,1,82.593,47.65Zm0,0" fill="#d84315"/>
        <path id="Trazado_879409" data-name="Trazado 879409" d="M78.394,47.65c0,.406,0,.812-.014,1.2a30.912,30.912,0,0,0-17.525-3.989v-.056a9.806,9.806,0,0,0-.126-1.428,6.912,6.912,0,0,0-.392-1.4c-.056-.14-.112-.266-.168-.392a5.333,5.333,0,0,0-.644-.938,1.262,1.262,0,0,0-.266-.279,1.053,1.053,0,0,0-.294-.266,1.268,1.268,0,0,0-.322-.238,3.156,3.156,0,0,0-.364-.224c-.084-.335-.168-.686-.28-1.036-.014-.056-.042-.126-.056-.182l.154-.042a54.215,54.215,0,0,1,17.133-3.976c.476,0,.952.042,1.428.084l.28-.056A60.547,60.547,0,0,1,78.394,47.65Zm0,0" fill="#ff5722"/>
        <path id="Trazado_879410" data-name="Trazado 879410" d="M26.058,38.425c-.014.056-.042.126-.056.182-.112.35-.2.7-.28,1.036a3.213,3.213,0,0,0-.364.224,1.28,1.28,0,0,0-.322.238,1.053,1.053,0,0,0-.294.266,1.244,1.244,0,0,0-.266.279,5.3,5.3,0,0,0-.644.938c-.056.126-.112.252-.168.392a6.912,6.912,0,0,0-.392,1.4,8.2,8.2,0,0,0-.126,1.428v.056a30.373,30.373,0,0,0-21.682,6.9c-.042-1.26-.056-2.631-.056-4.115A60.547,60.547,0,0,1,2.864,34.436l.28.056c8.972-.84,17.595,1.806,22.76,3.892Zm0,0" fill="#ffeb3a"/>
        <path id="Trazado_879411" data-name="Trazado 879411" d="M82.538,51.765c-.056,1.708-.126,3.219-.224,4.535a4.2,4.2,0,0,1-7.251,2.52.524.524,0,0,0-.1-.084,22.864,22.864,0,0,0-11.744-6.579,13,13,0,0,0-1.623-.238c-.462-.042-.938-.07-1.4-.07v-2.8a1.373,1.373,0,0,0,.056-.2,3.1,3.1,0,0,0,.1-.322,2.546,2.546,0,0,1,.07-.266c.028-.126.07-.266.1-.42.084-.406.168-.868.238-1.4.028-.224.042-.476.07-.728.014-.28.028-.56.028-.854a32.481,32.481,0,0,1,9.35.756,29.247,29.247,0,0,1,12.332,6.145Zm0,0" fill="#fdd834"/>
        <path id="Trazado_879412" data-name="Trazado 879412" d="M78.394,50.477c-.056,1.708-.126,3.22-.224,4.535a4.059,4.059,0,0,1-3.205,3.724c-1.358.322-2.421-1.512-3.569-2.688-2.17-2.225-5.305-2.645-8.175-3.891a19.9,19.9,0,0,0-3.023-1.05V49.05a1.374,1.374,0,0,0,.056-.2,3.1,3.1,0,0,0,.1-.322,2.546,2.546,0,0,1,.07-.266c.028-.126.07-.266.1-.42.084-.406.168-.868.238-1.4.028-.224.042-.476.07-.728.014-.28.028-.56.028-.854a32.481,32.481,0,0,1,9.35.756,28.883,28.883,0,0,1,8.188,4.857Zm0,0" fill="#ffeb3a"/>
        <path id="Trazado_879413" data-name="Trazado 879413" d="M23.8,49.05v2.8c-.462,0-.937.028-1.4.07a22.394,22.394,0,0,0-13.465,6.9A4.2,4.2,0,0,1,1.688,56.3c-.1-1.316-.167-2.827-.223-4.535a30.373,30.373,0,0,1,21.682-6.9c0,.294.014.574.028.854.014.252.042.5.07.728.07.532.154.994.238,1.4.028.154.07.294.1.42a2.547,2.547,0,0,1,.07.266,3.1,3.1,0,0,0,.1.322,1.463,1.463,0,0,0,.056.2Zm0,0" fill="#ff5722"/>
        <path id="Trazado_879414" data-name="Trazado 879414" d="M71.4,70.046a5.6,5.6,0,0,1-5.6,5.6,5.246,5.246,0,0,1-2.1-.42,5.6,5.6,0,0,0-2.1-10.778v-7a5.587,5.587,0,0,0-4.2-5.417,5.127,5.127,0,0,0-1.4-.182v-2.8a64.776,64.776,0,0,0-16.1-2.758q1.029-.042,2.1-.042a64.414,64.414,0,0,1,18.2,2.8v2.8a5.131,5.131,0,0,1,1.4.182,5.587,5.587,0,0,1,4.2,5.417v7a5.6,5.6,0,0,1,5.6,5.6Zm0,0" fill="#f57c00"/>
        <path id="Trazado_879415" data-name="Trazado 879415" d="M67.2,70.046a5.57,5.57,0,0,1-3.5,5.179,5.568,5.568,0,0,1-3.5-5.179v-1.4a12.083,12.083,0,0,1-1.568,6.131,9.612,9.612,0,0,1-.769,1.19v.014a9.354,9.354,0,0,1-.686.826c-.014,0-.014,0,0,.014a13.069,13.069,0,0,1-2.422,2.142c-.167.112-.335.238-.518.35-.126.084-.251.168-.392.252-.308.182-.63.364-.952.546-.35.182-.728.364-1.106.532-.308.14-.616.266-.938.392-.042.014-.1.042-.139.056-.294.112-.6.224-.924.322a24.225,24.225,0,0,1-3.3.84c-.378.056-.756.126-1.12.168-.322.042-.644.084-.965.112-.8.07-1.61.112-2.393.112h-.14c-.644,0-1.316-.028-1.974-.084-.1-.014-.182-.014-.28-.028-.322-.028-.63-.07-.952-.112h-.014c-.364-.042-.742-.112-1.12-.168a24.225,24.225,0,0,1-3.3-.84c-.308-.1-.616-.21-.924-.322-.042-.014-.1-.042-.139-.056-.322-.126-.63-.252-.938-.392-.378-.167-.756-.35-1.106-.532-.322-.182-.644-.364-.952-.546s-.616-.392-.909-.6a13.067,13.067,0,0,1-2.422-2.142c.014-.014.014-.014,0-.014a9.234,9.234,0,0,1-.685-.826v-.014A12,12,0,0,1,23.8,68.646v1.4a5.548,5.548,0,0,1-2.631,4.731,5.418,5.418,0,0,1-2.968.868,5.249,5.249,0,0,1-2.1-.42,5.6,5.6,0,0,1,2.1-10.778v-7a5.587,5.587,0,0,1,4.2-5.417,5.131,5.131,0,0,1,1.4-.182v-2.8a64.776,64.776,0,0,1,16.1-2.758A64.775,64.775,0,0,1,56,49.049v2.8a5.127,5.127,0,0,1,1.4.182,5.587,5.587,0,0,1,4.2,5.417v7a5.6,5.6,0,0,1,5.6,5.6Zm0,0" fill="#ff9801"/>
        <path id="Trazado_879416" data-name="Trazado 879416" d="M45.836,63.047a1.4,1.4,0,0,1-1.372,1.694H39.537a1.4,1.4,0,0,1-1.372-1.694l2.268-9.924L42,46.25Zm0,0" fill="#ffb301"/>
        <path id="Trazado_879417" data-name="Trazado 879417" d="M41.343,64.741H39.537a1.4,1.4,0,0,1-1.372-1.694l2.268-9.924L42.7,63.047a1.4,1.4,0,0,1-1.358,1.694Zm0,0" fill="#fec108"/>
        <path id="Trazado_879418" data-name="Trazado 879418" d="M60.855,44.808v.056c0,.294-.014.574-.028.854-.028.252-.042.5-.07.728-.07.532-.154.994-.238,1.4-.042.154-.07.294-.1.42a2.546,2.546,0,0,0-.07.266c-.042.126-.07.238-.1.322a1.373,1.373,0,0,1-.056.2s-1.19-.392-3.206-.9A64.907,64.907,0,0,0,42,46.25c-.546,0-1.092.014-1.638.028h-.182A64.619,64.619,0,0,0,23.8,49.05a1.463,1.463,0,0,1-.056-.2c-.028-.084-.056-.2-.1-.322a2.547,2.547,0,0,0-.07-.266c-.014-.042-.014-.07-.028-.111a2.926,2.926,0,0,0-.07-.308c-.084-.406-.168-.868-.238-1.4-.028-.224-.042-.476-.07-.728-.014-.28-.028-.56-.028-.854v-.056a9.806,9.806,0,0,1,.126-1.428,6.912,6.912,0,0,1,.392-1.4c.056-.14.112-.266.168-.392a5.3,5.3,0,0,1,.644-.938c.083-.1.167-.182.266-.279a2.78,2.78,0,0,1,.294-.266,2.868,2.868,0,0,1,.322-.238,3.212,3.212,0,0,1,.364-.224,5.058,5.058,0,0,1,.882-.392,64.687,64.687,0,0,1,13.633-2.744.063.063,0,0,0,.07,0c.6-.028,1.162-.056,1.694-.056a59.505,59.505,0,0,1,15.4,2.8,5.058,5.058,0,0,1,.882.392,3.156,3.156,0,0,1,.364.224,2.868,2.868,0,0,1,.322.238,2.78,2.78,0,0,1,.294.266c.1.1.182.182.266.279a5.333,5.333,0,0,1,.644.938c.056.126.112.252.168.392a6.912,6.912,0,0,1,.392,1.4,9.805,9.805,0,0,1,.126,1.428Zm0,0" fill="#00695c"/>
        <path id="Trazado_879419" data-name="Trazado 879419" d="M57.4,44.808v.056c0,.294-.014.574-.028.854-.027.252-.042.5-.07.728-.07.532-.154.994-.238,1.4a3.1,3.1,0,0,0-.07.308c-.014.042-.014.07-.028.111a2.543,2.543,0,0,0-.07.266c-.042.126-.07.238-.1.322a1.566,1.566,0,0,1-.056.2,64.619,64.619,0,0,0-16.377-2.772h-.182c-.546-.014-1.092-.028-1.638-.028a64.912,64.912,0,0,0-14.991,1.9,2.926,2.926,0,0,0-.07-.308c-.084-.406-.168-.868-.238-1.4-.028-.224-.042-.476-.07-.728-.014-.28-.028-.56-.028-.854v-.056a9.806,9.806,0,0,1,.126-1.428,6.912,6.912,0,0,1,.392-1.4c.056-.14.112-.266.168-.392a5.3,5.3,0,0,1,.644-.938c.083-.1.167-.182.266-.279a2.78,2.78,0,0,1,.294-.266,2.867,2.867,0,0,1,.322-.238,3.213,3.213,0,0,1,.364-.224,5.058,5.058,0,0,1,.882-.392,64.687,64.687,0,0,1,13.633-2.744.063.063,0,0,0,.07,0,64.688,64.688,0,0,1,13.633,2.744,5.08,5.08,0,0,1,.882.392,3.147,3.147,0,0,1,.363.224,2.817,2.817,0,0,1,.322.238,2.846,2.846,0,0,1,.294.266c.1.1.182.182.266.279a5.336,5.336,0,0,1,.644.938c.056.126.111.252.167.392a6.914,6.914,0,0,1,.392,1.4,9.805,9.805,0,0,1,.126,1.428Zm0,0" fill="#009688"/>
        <path id="Trazado_879420" data-name="Trazado 879420" d="M58.28,39.643a5.058,5.058,0,0,0-.882-.392c-.825-.28-1.763-.546-2.771-.826A57.041,57.041,0,0,0,42,36.452c-.5,0-1.05.014-1.624.056h-.07a63.576,63.576,0,0,0-13.7,2.744,5.058,5.058,0,0,0-.882.392c.084-.335.182-.672.28-1.036.014-.056.042-.126.056-.182.028-.126.084-.266.126-.406.028-.07.056-.168.084-.252.154-.434.308-.868.5-1.316s.406-.924.644-1.371c.14-.266.28-.518.434-.77a1.693,1.693,0,0,1,.084-.154c.14-.251.308-.49.462-.741.056-.084.112-.154.168-.238.14-.2.28-.392.434-.588v-.014c.21-.266.42-.518.644-.769.168-.2.336-.378.518-.56a14.352,14.352,0,0,1,2.422-2.016c.462-.294.937-.574,1.455-.84.252-.126.518-.252.784-.364a16.763,16.763,0,0,1,5.137-1.274l.35-.042c.028,0,.042.014.07,0,.14,0,.28-.014.434-.014.378-.028.784-.042,1.19-.042s.812.014,1.19.042a8.329,8.329,0,0,1,.854.056,16.763,16.763,0,0,1,5.137,1.274c.266.112.532.238.784.364.518.266.993.546,1.455.84a14.353,14.353,0,0,1,2.422,2.016c.182.182.35.364.518.56.224.251.434.518.644.784.154.2.294.392.434.588.056.084.112.154.168.238.154.251.322.49.462.741a1.693,1.693,0,0,1,.084.154c.154.252.294.5.434.77.238.448.448.909.644,1.371.223.532.42,1.064.588,1.568.042.126.07.238.112.364,0,.014.014.027.014.042.014.056.042.126.056.182.1.364.2.7.28,1.036Zm0,0" fill="#f57c00"/>
        <path id="Trazado_879421" data-name="Trazado 879421" d="M54.963,39.643a5.08,5.08,0,0,0-.882-.392,63.741,63.741,0,0,0-13.7-2.744h-.07c-.574-.042-1.12-.056-1.624-.056a57.036,57.036,0,0,0-12.625,1.974c.028-.126.084-.266.126-.406.028-.07.056-.168.084-.252.154-.434.308-.868.5-1.316s.406-.924.644-1.371c.14-.266.28-.518.434-.77a1.693,1.693,0,0,1,.084-.154c.14-.251.308-.49.462-.741.056-.084.112-.154.168-.238.14-.2.28-.392.434-.588v-.014c.21-.266.42-.518.644-.769.168-.2.336-.378.518-.56a14.352,14.352,0,0,1,2.422-2.016c.462-.294.937-.574,1.455-.84.252-.126.518-.252.784-.364a16.763,16.763,0,0,1,5.137-1.274l.35-.042c.028,0,.042.014.07,0l.35.042a16.762,16.762,0,0,1,5.137,1.274c.266.112.532.238.784.364.518.266.994.546,1.456.84a14.348,14.348,0,0,1,2.421,2.016c.182.182.35.364.518.56.224.251.434.518.644.784.154.2.294.392.434.588.056.084.112.154.168.238.154.251.322.49.462.741.028.056.07.112.084.154.154.252.294.5.434.77.238.448.448.909.644,1.371.224.532.42,1.064.588,1.568.042.126.07.238.112.364,0,.014.014.027.014.042.014.056.042.126.056.182.1.364.2.7.28,1.036Zm0,0" fill="#ff9801"/>
        <path id="Trazado_879422" data-name="Trazado 879422" d="M57.85,75.967c-3.407,4.6-9.971,6.677-15.849,6.677H63.529a15.441,15.441,0,0,0-5.679-6.677Zm0,0" fill="#fec108"/>
        <path id="Trazado_879423" data-name="Trazado 879423" d="M42,82.643c-5.879,0-12.442-2.072-15.849-6.677a15.438,15.438,0,0,0-5.679,6.677Zm0,0" fill="#fec108"/>
        <path id="Trazado_879424" data-name="Trazado 879424" d="M81.138,34.436l-.28.056a33.018,33.018,0,0,0-3.891-.14,46.421,46.421,0,0,0-10.974,1.47A59.617,59.617,0,0,0,58.1,38.384l-.154.042c-.055-.182-.111-.364-.182-.546a17.775,17.775,0,0,0-3.4-6.075l.07-.056a59.186,59.186,0,0,1,17.091-8.132,34.609,34.609,0,0,1,5.627-1.036,54.285,54.285,0,0,1,3.989,11.856Zm0,0" fill="#fdd834"/>
        <path id="Trazado_879425" data-name="Trazado 879425" d="M77.176,35.262l-.28.056a41.805,41.805,0,0,0-10.9.5,55.126,55.126,0,0,0-8.231,2.058,17.775,17.775,0,0,0-3.4-6.075l.07-.056a59.186,59.186,0,0,1,17.091-8.132c.56-.084,1.106-.154,1.666-.21a53.365,53.365,0,0,1,3.78,10.946c.084.308.139.616.21.91Zm0,0" fill="#ffeb3a"/>
        <path id="Trazado_879426" data-name="Trazado 879426" d="M77.148,22.58a31.449,31.449,0,0,0-3.612.56A56.12,56.12,0,0,0,54.963,31.4c-.182.112-.364.238-.532.35l-.07.056-.028-.028a14.57,14.57,0,0,0-5.152-3.752c2.464-4.157,7.7-11.954,14.726-16.881a26.462,26.462,0,0,1,2.786-1.75l.112-.139A37.5,37.5,0,0,1,77.148,22.58Zm0,0" fill="#d84315"/>
        <path id="Trazado_879427" data-name="Trazado 879427" d="M74.195,24.428c-7.334.7-14.417,4.1-19.232,6.97-.21.112-.434.252-.63.378a14.57,14.57,0,0,0-5.152-3.752c2.464-4.157,7.7-11.954,14.726-16.881a36.772,36.772,0,0,1,9.63,12c.238.42.448.854.658,1.288Zm0,0" fill="#ff5722"/>
        <path id="Trazado_879428" data-name="Trazado 879428" d="M66.8,9.255l-.112.139c-8.426,4.619-14.726,13.942-17.511,18.631-.5-.21-1.021-.406-1.567-.574a19,19,0,0,0-5.613-.8V1.458A46.2,46.2,0,0,1,53.828,2.886c.966.238,1.89.518,2.772.826A33.716,33.716,0,0,1,66.8,9.255Zm0,0" fill="#fdd834"/>
        <path id="Trazado_879429" data-name="Trazado 879429" d="M64,10.682l-.111.14c-7.349,4.032-13.088,11.646-16.279,16.629a19,19,0,0,0-5.613-.8V2.97a42.9,42.9,0,0,1,9.028,1.344c.965.238,1.89.518,2.771.825A33.744,33.744,0,0,1,64,10.682Zm0,0" fill="#ffeb3a"/>
        <path id="Trazado_879430" data-name="Trazado 879430" d="M42,1.458v25.2a17.94,17.94,0,0,0-7.181,1.372c-2.786-4.689-9.085-14.012-17.511-18.631L17.2,9.255A33.715,33.715,0,0,1,27.4,3.712c.882-.308,1.806-.588,2.772-.826A46.206,46.206,0,0,1,42,1.458Zm0,0" fill="#ff5722"/>
        <path id="Trazado_879431" data-name="Trazado 879431" d="M34.82,28.025a14.455,14.455,0,0,0-5.18,3.78l-.07-.056C25.26,28.823,16.26,23.476,6.853,22.58A37.5,37.5,0,0,1,17.2,9.255l.112.139c8.426,4.619,14.726,13.942,17.511,18.631Zm0,0" fill="#ffeb3a"/>
        <path id="Trazado_879432" data-name="Trazado 879432" d="M29.641,31.8a17.94,17.94,0,0,0-3.583,6.62l-.154-.042c-5.165-2.086-13.788-4.731-22.76-3.892l-.28-.056A53.523,53.523,0,0,1,6.853,22.58c9.407.9,18.407,6.243,22.718,9.169Zm0,0" fill="#ff5722"/>
        <path id="Trazado_879433" data-name="Trazado 879433" d="M28,57.448a1.4,1.4,0,0,1-.627-2.659A20.019,20.019,0,0,1,35,53.249a1.4,1.4,0,1,1,0,2.8,17.41,17.41,0,0,0-6.374,1.26,1.4,1.4,0,0,1-.625.14Zm0,0"/>
        <path id="Trazado_879434" data-name="Trazado 879434" d="M44.469,66.139H39.533A2.8,2.8,0,0,1,36.8,62.753l3.84-16.815a1.4,1.4,0,0,1,2.729,0l3.835,16.8v.018a2.8,2.8,0,0,1-2.737,3.386ZM42,52.537,39.529,63.359l4.94-.02Zm0,0"/>
        <path id="Trazado_879435" data-name="Trazado 879435" d="M19.607,70.046a1.4,1.4,0,1,1-1.4-1.4A1.4,1.4,0,0,1,19.607,70.046Zm0,0"/>
        <path id="Trazado_879436" data-name="Trazado 879436" d="M23.8,61.647a1.4,1.4,0,0,1-1.4-1.4v-8.4a1.4,1.4,0,0,1,2.8,0v8.4A1.4,1.4,0,0,1,23.8,61.647Zm0,0"/>
        <path id="Trazado_879437" data-name="Trazado 879437" d="M23.8,70.046a1.4,1.4,0,0,1-1.4-1.4v-2.8a1.4,1.4,0,0,1,2.8,0v2.8A1.4,1.4,0,0,1,23.8,70.046Zm0,0"/>
        <path id="Trazado_879438" data-name="Trazado 879438" d="M49,78.444a1.4,1.4,0,0,1-.624-.14A17,17,0,0,0,42,77.044a17.4,17.4,0,0,0-6.372,1.26A1.4,1.4,0,1,1,34.378,75.8a19.556,19.556,0,0,1,15.245,0A1.4,1.4,0,0,1,49,78.444Zm0,0"/>
        <path id="Trazado_879439" data-name="Trazado 879439" d="M49,72.845a1.4,1.4,0,0,1-.624-.14A17,17,0,0,0,42,71.445a17.41,17.41,0,0,0-6.372,1.26A1.4,1.4,0,1,1,34.378,70.2a19.556,19.556,0,0,1,15.245,0A1.4,1.4,0,0,1,49,72.845Zm0,0"/>
        <path id="Trazado_879440" data-name="Trazado 879440" d="M56,57.448a1.4,1.4,0,0,1-.625-.14A17.41,17.41,0,0,0,49,56.048a1.4,1.4,0,1,1,0-2.8,20.01,20.01,0,0,1,7.624,1.54A1.4,1.4,0,0,1,56,57.448Zm0,0"/>
        <path id="Trazado_879441" data-name="Trazado 879441" d="M23.8,50.449a1.4,1.4,0,0,1-1.327-.954c-.068-.2-1.647-5.011.094-8.5a5.965,5.965,0,0,1,3.591-3.071A61.26,61.26,0,0,1,42,35.052a61.236,61.236,0,0,1,15.836,2.871,5.965,5.965,0,0,1,3.591,3.071c1.741,3.49.162,8.3.094,8.5a1.4,1.4,0,0,1-1.768.883A63.561,63.561,0,0,0,42,47.65a63.311,63.311,0,0,0-17.752,2.728,1.4,1.4,0,0,1-.445.071ZM42,37.851A57.932,57.932,0,0,0,27.049,40.58a3.219,3.219,0,0,0-1.971,1.663,8.521,8.521,0,0,0-.279,5.039A66.064,66.064,0,0,1,42,44.85a66.075,66.075,0,0,1,17.2,2.437c.4-2.016.7-5.728-2.24-6.708A57.967,57.967,0,0,0,42,37.851Zm0,0"/>
        <path id="Trazado_879442" data-name="Trazado 879442" d="M58.278,41.039a1.4,1.4,0,0,1-.674-.173,3.892,3.892,0,0,0-.652-.279A57.932,57.932,0,0,0,42,37.851,57.932,57.932,0,0,0,27.049,40.58a3.9,3.9,0,0,0-.652.28,1.4,1.4,0,0,1-2.036-1.554C25.376,35.085,29.123,25.254,42,25.254s16.625,9.831,17.636,14.059a1.4,1.4,0,0,1-1.361,1.726ZM42,35.052a60.211,60.211,0,0,1,14.113,2.34C54.447,33.12,50.646,28.053,42,28.053S29.554,33.12,27.887,37.392A60.212,60.212,0,0,1,42,35.052Zm0,0"/>
        <path id="Trazado_879443" data-name="Trazado 879443" d="M42,84.043c-7.485,0-15.421-3.03-18.385-9.56a7,7,0,1,1-6.811-11.3V57.448a7.01,7.01,0,0,1,5.6-6.859V49.05a1.4,1.4,0,0,1,.958-1.328A65.231,65.231,0,0,1,42,44.85a65.236,65.236,0,0,1,18.636,2.871,1.4,1.4,0,0,1,.96,1.328v1.539a7.011,7.011,0,0,1,5.6,6.859v5.739a7,7,0,1,1-6.809,11.295c-2.966,6.531-10.9,9.562-18.387,9.562Zm-18.2-16.8a1.4,1.4,0,0,1,1.4,1.4c0,8.656,8.706,12.6,16.8,12.6s16.8-3.941,16.8-12.6a1.4,1.4,0,0,1,2.8,0v1.4a4.2,4.2,0,1,0,4.2-4.2,1.4,1.4,0,0,1-1.4-1.4v-7a4.2,4.2,0,0,0-4.2-4.2,1.4,1.4,0,0,1-1.4-1.4V50.088A64.043,64.043,0,0,0,42,47.65a63.958,63.958,0,0,0-16.8,2.437v1.762a1.4,1.4,0,0,1-1.4,1.4,4.2,4.2,0,0,0-4.2,4.2v7a1.4,1.4,0,0,1-1.4,1.4,4.2,4.2,0,1,0,4.2,4.2v-1.4a1.4,1.4,0,0,1,1.4-1.4Zm0,0"/>
        <path id="Trazado_879444" data-name="Trazado 879444" d="M67.193,70.046a1.4,1.4,0,1,1-1.4-1.4A1.4,1.4,0,0,1,67.193,70.046Zm0,0"/>
        <path id="Trazado_879445" data-name="Trazado 879445" d="M60.2,61.647a1.4,1.4,0,0,1-1.4-1.4v-8.4a1.4,1.4,0,0,1,2.8,0v8.4A1.4,1.4,0,0,1,60.2,61.647Zm0,0"/>
        <path id="Trazado_879446" data-name="Trazado 879446" d="M63.529,84.043H42a1.4,1.4,0,0,1,0-2.8c4.933,0,11.392-1.6,14.724-6.11a1.4,1.4,0,0,1,1.919-.321,16.87,16.87,0,0,1,6.179,7.3,1.4,1.4,0,0,1-1.294,1.933Zm-9.811-2.8h7.488a14.74,14.74,0,0,0-3.122-3.359,16.285,16.285,0,0,1-4.366,3.359Zm0,0"/>
        <path id="Trazado_879447" data-name="Trazado 879447" d="M42,84.043H20.472a1.4,1.4,0,0,1-1.294-1.933,16.875,16.875,0,0,1,6.179-7.3,1.4,1.4,0,0,1,1.919.321c3.331,4.506,9.791,6.11,14.724,6.11a1.4,1.4,0,0,1,0,2.8Zm-19.2-2.8h7.488a16.285,16.285,0,0,1-4.366-3.359A14.741,14.741,0,0,0,22.8,81.243Zm0,0"/>
        <path id="Trazado_879448" data-name="Trazado 879448" d="M1.468,53.166a1.4,1.4,0,0,1-.9-2.473,31.753,31.753,0,0,1,22.676-7.22,1.4,1.4,0,0,1-.173,2.8,28.962,28.962,0,0,0-20.7,6.579,1.393,1.393,0,0,1-.9.315Zm0,0"/>
        <path id="Trazado_879449" data-name="Trazado 879449" d="M25.9,39.784a1.4,1.4,0,0,1-.523-.1A48.791,48.791,0,0,0,3.275,35.892,1.4,1.4,0,1,1,3.012,33.1,51.549,51.549,0,0,1,26.43,37.089a1.4,1.4,0,0,1-.523,2.7Zm0,0"/>
        <path id="Trazado_879450" data-name="Trazado 879450" d="M29.569,33.147a1.4,1.4,0,0,1-.786-.242C24.416,29.937,15.74,24.829,6.72,23.976a1.4,1.4,0,0,1,.264-2.782c9.643.914,18.782,6.281,23.376,9.4a1.4,1.4,0,0,1-.79,2.558Zm0,0"/>
        <path id="Trazado_879451" data-name="Trazado 879451" d="M34.824,29.421a1.4,1.4,0,0,1-1.2-.684c-2.9-4.874-8.962-13.7-16.989-18.111a1.4,1.4,0,1,1,1.348-2.449c8.607,4.723,15,14.016,18.046,19.134a1.4,1.4,0,0,1-1.2,2.115Zm0,0"/>
        <path id="Trazado_879452" data-name="Trazado 879452" d="M78.131,61.545a5.685,5.685,0,0,1-4.076-1.738c-4.014-4.107-9.2-6.558-13.857-6.558a1.4,1.4,0,0,1-1.4-1.4v-2.8a1.436,1.436,0,0,1,.072-.442c.02-.059,1.939-5.981-1.26-7.742a1.4,1.4,0,0,1-.686-.9C55.858,35.517,52.5,28.053,42,28.053S28.15,35.517,27.085,39.967a1.4,1.4,0,0,1-.686.9c-3.169,1.743-1.285,7.68-1.26,7.739a1.436,1.436,0,0,1,.064.446v2.8a1.4,1.4,0,0,1-1.4,1.4c-4.662,0-9.846,2.451-13.857,6.558A5.653,5.653,0,0,1,3.9,61.192,5.468,5.468,0,0,1,.289,56.4c-.182-2.483-.28-5.427-.28-8.749C-.02,46.776-.515,25.1,12.98,11.189,20.151,3.8,29.912.059,42,.059S63.851,3.8,71.016,11.189c13.5,13.911,13,35.587,12.977,36.5,0,3.279-.092,6.223-.28,8.706A5.468,5.468,0,0,1,80.1,61.192a5.7,5.7,0,0,1-1.974.352ZM61.6,50.509a23.846,23.846,0,0,1,14.466,7.337,2.887,2.887,0,0,0,3.079.717,2.67,2.67,0,0,0,1.771-2.376c.179-2.416.269-5.29.269-8.538,0-.255.477-21.478-12.194-34.523C62.379,6.312,53.3,2.858,42,2.858S21.613,6.316,14.994,13.139C2.315,26.207,2.808,47.395,2.808,47.608c0,3.295.09,6.168.269,8.585a2.668,2.668,0,0,0,1.786,2.375,2.877,2.877,0,0,0,3.079-.717A23.846,23.846,0,0,1,22.4,50.509V49.262c-.393-1.317-2.029-7.669,2.1-10.515,1.2-4.479,5.162-13.493,17.5-13.493s16.292,9.017,17.5,13.493c4.127,2.846,2.491,9.2,2.1,10.515Zm0,0"/>
        <path id="Trazado_879453" data-name="Trazado 879453" d="M42,28.053a1.4,1.4,0,0,1-1.4-1.4V1.458a1.4,1.4,0,0,1,2.8,0v25.2a1.4,1.4,0,0,1-1.4,1.4Zm0,0"/>
        <path id="Trazado_879454" data-name="Trazado 879454" d="M35,15.455a1.4,1.4,0,0,1-1.3-.879,55.2,55.2,0,0,0-6.11-10.484,1.4,1.4,0,1,1,2.277-1.628,58.035,58.035,0,0,1,6.439,11.07,1.4,1.4,0,0,1-.781,1.82,1.381,1.381,0,0,1-.525.1Zm0,0"/>
        <path id="Trazado_879455" data-name="Trazado 879455" d="M82.533,53.166a1.389,1.389,0,0,1-.9-.326,28.964,28.964,0,0,0-20.7-6.579,1.4,1.4,0,0,1-.172-2.8,31.746,31.746,0,0,1,22.676,7.22,1.4,1.4,0,0,1-.9,2.473Zm0,0"/>
        <path id="Trazado_879456" data-name="Trazado 879456" d="M58.1,39.784a1.4,1.4,0,0,1-.524-2.7A51.541,51.541,0,0,1,80.992,33.1a1.4,1.4,0,0,1-.263,2.788,48.767,48.767,0,0,0-22.108,3.794,1.4,1.4,0,0,1-.523.1Zm0,0"/>
        <path id="Trazado_879457" data-name="Trazado 879457" d="M54.433,33.147a1.4,1.4,0,0,1-.789-2.558c4.591-3.12,13.73-8.486,23.375-9.4a1.4,1.4,0,0,1,.264,2.787c-9.02.853-17.7,5.961-22.063,8.929a1.4,1.4,0,0,1-.788.242Zm0,0"/>
        <path id="Trazado_879458" data-name="Trazado 879458" d="M49.177,29.421a1.4,1.4,0,0,1-1.2-2.115c3.043-5.119,9.439-14.417,18.046-19.134a1.4,1.4,0,1,1,1.348,2.455c-8.026,4.41-14.089,13.236-16.989,18.111a1.4,1.4,0,0,1-1.2.684Zm0,0"/>
        <path id="Trazado_879459" data-name="Trazado 879459" d="M49,15.455a1.376,1.376,0,0,1-.519-.1,1.4,1.4,0,0,1-.781-1.82,58,58,0,0,1,6.439-11.07,1.4,1.4,0,1,1,2.277,1.628,55.168,55.168,0,0,0-6.11,10.484A1.4,1.4,0,0,1,49,15.455Zm0,0"/>
      </g>
    </g>
  </g>
</svg>
