<svg xmlns="http://www.w3.org/2000/svg" xmlns:xlink="http://www.w3.org/1999/xlink" width="328" height="515.999" viewBox="0 0 328 515.999">
  <defs>
    <clipPath id="clip-path">
      <rect id="Rect치ngulo_403421" data-name="Rect치ngulo 403421" width="328" height="515.999" rx="20" transform="translate(0 0)" fill="#cce9b7"/>
    </clipPath>
  </defs>
  <g id="Grupo_1102017" data-name="Grupo 1102017" transform="translate(-285 -2655.001)">
    <rect id="Rect치ngulo_402644" data-name="Rect치ngulo 402644" width="328" height="515.999" rx="20" transform="translate(285 2655.001)" fill="#edf4fe"/>
    <g id="Enmascarar_grupo_1098795" data-name="Enmascarar grupo 1098795" transform="translate(285 2655.001)" opacity="0.44" clip-path="url(#clip-path)">
      <g id="Grupo_1102014" data-name="Grupo 1102014" transform="translate(-155.917 -39.989)">
        <path id="Trazado_878332" data-name="Trazado 878332" d="M475.065,619.675l-.79.071-.075-.984.79-.07Zm-.4-5.253-.79.07-.131-1.707.79-.071Zm-.458-5.977-.79.071-.131-1.708.79-.071Zm-.458-5.977-.79.071-.131-1.708.79-.071Zm-.459-5.977-.79.071-.131-1.708.79-.071Zm-.458-5.977-.79.071-.131-1.708.79-.07Zm-.458-5.977-.79.071-.131-1.708.79-.071Zm-.459-5.977-.79.071-.131-1.707.79-.071Zm-.458-5.977-.79.071-.131-1.708.79-.07ZM471,566.609l-.79.071-.131-1.708.79-.071Zm-.458-5.977-.79.071-.131-1.708.79-.071Zm-.458-5.977-.79.071-.131-1.708.79-.071Zm-.458-5.977-.79.071-.131-1.708.79-.071Zm-.458-5.977-.79.071-.131-1.707.79-.071Zm-.458-5.977-.79.071-.131-1.708.79-.071Zm-.458-5.977-.79.071-.131-1.708.79-.071Zm-.458-5.977-.79.071-.131-1.708.79-.071Zm-.458-5.977-.79.071-.131-1.708.79-.071Zm-.458-5.977-.79.071-.131-1.707.79-.071Zm-.458-5.977-.79.071-.131-1.708.79-.071Zm-.458-5.977-.79.071-.131-1.708.79-.071Zm-.458-5.977-.79.071-.131-1.708.79-.071Zm-.458-5.977-.79.071-.131-1.708.79-.071Zm-.458-5.977-.79.071-.131-1.708.79-.071Zm-.458-5.977-.79.071-.131-1.708.79-.071Zm-.458-5.977-.79.071-.131-1.708.79-.071ZM463.2,465l-.79.071-.131-1.707.79-.071Zm-.458-5.977-.79.071-.131-1.708.79-.07Zm-.458-5.977-.79.071-.131-1.708.79-.071Zm-.458-5.977-.79.071-.131-1.708.79-.071Zm-.458-5.977-.79.071-.131-1.708.79-.071Zm-.458-5.977-.79.071-.131-1.708.79-.071Zm-.458-5.977-.79.071-.131-1.707.79-.071ZM460,423.168l-.79.071-.131-1.708.79-.071Zm-.458-5.977-.79.071-.131-1.708.79-.071Zm-.458-5.977-.79.071-.131-1.708.79-.071Zm-.458-5.977-.79.071L457.7,403.6l.79-.071Zm-.458-5.977-.79.071-.131-1.707.79-.071Zm-.458-5.977-.79.071-.131-1.708.79-.071Zm-.458-5.977-.79.07-.131-1.707.79-.071Zm-.458-5.977-.79.071-.131-1.707.79-.071Zm-.458-5.977-.79.071-.131-1.708.79-.071Zm-.458-5.977-.79.071-.131-1.708.79-.071Zm-.458-5.977-.79.071-.131-1.707.79-.071Zm-.458-5.977-.79.071-.131-1.708.79-.071Zm-.458-5.977-.79.071-.131-1.707.79-.071Zm-.458-5.977-.79.071-.131-1.708.79-.071Zm-.458-5.977-.79.071-.131-1.708.79-.071Zm-.458-5.977-.79.071-.131-1.708.79-.071Zm-.458-5.977-.79.071-.131-1.708.79-.071Zm-.458-5.977-.79.071-.131-1.708.79-.071Zm-.458-5.977-.79.071-.131-1.707.79-.071Zm-.458-5.977-.79.071-.131-1.708.79-.071Zm-.458-5.977-.79.071L449.908,302l.79-.071Zm-.458-5.977-.79.071-.131-1.708.79-.071Zm-.458-5.977-.79.071-.131-1.708.79-.071Zm-.458-5.977-.79.071-.131-1.707.79-.071ZM449,279.727l-.79.071-.131-1.708.79-.071Zm-.458-5.977-.79.071-.131-1.708.79-.071Zm-.458-5.977-.79.071-.131-1.708.79-.071Zm-.458-5.977-.79.071-.131-1.708.79-.071Zm-.458-5.977-.79.071-.131-1.708.79-.071Zm-.458-5.977-.79.071-.131-1.708.79-.071Zm-.458-5.977-.79.071-.131-1.708.79-.071Zm-.458-5.977-.79.071-.131-1.707.79-.071Zm-.458-5.977-.79.071-.131-1.708.79-.071Zm-.458-5.977-.79.071-.131-1.708.79-.071Zm-.458-5.977-.79.071-.131-1.708.79-.071Zm-.458-5.977-.79.071-.131-1.708.79-.071Zm-.458-5.977-.79.071-.131-1.707.79-.071Zm-.458-5.977-.79.071-.131-1.707.79-.071Zm-.458-5.977-.79.071-.131-1.708.79-.071Zm-.458-5.977-.79.071-.131-1.708.79-.071Zm-.458-5.977-.79.071-.131-1.707.79-.071Zm-.458-5.977-.79.071-.131-1.708.79-.071Z" transform="translate(-304.397 -129.957)" fill="#b8d4f8"/>
        <path id="Trazado_878333" data-name="Trazado 878333" d="M779.156,594.472l-.79.07-.075-.984.79-.071Zm-.4-5.253-.79.071-.131-1.708.79-.071Zm-.458-5.977-.79.071-.131-1.707.79-.071Zm-.458-5.977-.79.071-.131-1.708.79-.071Zm-.458-5.977-.79.071-.131-1.707.79-.071Zm-.458-5.977-.79.071L776,563.675l.79-.071Zm-.458-5.977-.79.071-.131-1.708.79-.071ZM776,553.359l-.79.071-.131-1.707.79-.071Zm-.458-5.977-.79.071-.131-1.708.79-.071Zm-.458-5.977-.79.071-.131-1.708.79-.071Zm-.458-5.977-.79.071-.131-1.707.79-.071Zm-.458-5.977-.79.071-.131-1.708.79-.071Zm-.458-5.977-.79.071-.131-1.708.79-.071Zm-.458-5.977-.79.071-.131-1.707.79-.071Zm-.459-5.977-.79.071-.131-1.708.79-.071Zm-.458-5.977-.79.071-.131-1.708.79-.071Zm-.458-5.977-.79.071-.131-1.708.79-.071Zm-.458-5.977-.79.071-.131-1.708.79-.071Zm-.458-5.977-.79.071-.131-1.707.79-.071Zm-.458-5.977-.79.071L769.582,480l.79-.071Zm-.458-5.977-.79.071-.131-1.707.79-.071Zm-.458-5.977-.79.071-.131-1.708.79-.071Zm-.458-5.977-.79.071-.131-1.708L769,462Zm-.458-5.977-.79.071-.131-1.707.79-.071Zm-.458-5.977-.79.071-.131-1.708.79-.071Zm-.458-5.977-.79.071-.131-1.708.79-.071Zm-.458-5.977-.79.071-.131-1.707.79-.071Zm-.458-5.977-.79.071-.131-1.708.79-.071Zm-.458-5.977-.79.071-.131-1.708.79-.071Zm-.458-5.977-.79.071L765,420.235l.79-.071Zm-.458-5.977-.79.071-.131-1.708.79-.071ZM765,409.918l-.79.071-.131-1.708.79-.071Zm-.458-5.977-.79.071-.131-1.708.79-.071Zm-.458-5.977-.79.071-.131-1.708.79-.071Zm-.458-5.977-.79.071-.131-1.708.79-.071Zm-.458-5.977-.79.071-.131-1.708.79-.071Zm-.458-5.977-.79.071-.131-1.708.79-.071Zm-.458-5.977-.79.071-.131-1.707.79-.071Zm-.458-5.977-.79.071-.131-1.708.79-.071Zm-.458-5.977-.79.071-.131-1.708.79-.071Zm-.458-5.977-.79.071-.131-1.708.79-.071Zm-.458-5.977-.79.071-.131-1.708.79-.071Zm-.458-5.977-.79.071-.131-1.708.79-.071ZM759.5,338.2l-.79.071-.131-1.707.79-.071Zm-.458-5.977-.79.071-.131-1.708.79-.071Zm-.458-5.977-.79.071-.131-1.708.79-.071Zm-.458-5.977-.79.071-.131-1.707.79-.071Zm-.458-5.977-.79.071-.131-1.708.79-.071Zm-.458-5.977-.79.071-.131-1.708.79-.071Zm-.458-5.977-.79.071-.131-1.708.79-.071Zm-.458-5.977-.79.071-.131-1.708.79-.071Zm-.458-5.977-.79.071-.131-1.708.79-.071Zm-.458-5.977-.79.071-.131-1.708.79-.071Zm-.458-5.977-.79.071L754,276.794l.79-.071Zm-.458-5.977-.79.071-.131-1.708.79-.071ZM754,266.478l-.79.071-.131-1.708.79-.071Zm-.458-5.977-.79.071-.131-1.708.79-.071Zm-.458-5.977-.79.071-.131-1.708.79-.071Zm-.458-5.977-.79.071-.131-1.708.79-.071Zm-.458-5.977-.79.071-.131-1.708.79-.071Zm-.458-5.977-.79.071-.131-1.708.79-.071Zm-.458-5.977-.79.071-.131-1.708.79-.071Zm-.458-5.977-.79.071L749.873,223l.79-.071Zm-.458-5.977-.79.071-.131-1.708.79-.071Zm-.458-5.977-.79.071-.131-1.708.79-.071Zm-.458-5.977-.79.071-.131-1.708.79-.071Zm-.458-5.977-.79.071-.131-1.708.79-.071Zm-.458-5.977-.79.071-.131-1.708.79-.071Zm-.458-5.977-.79.071-.131-1.708.79-.071Zm-.458-5.977-.79.071-.131-1.708.79-.071Zm-.458-5.977-.79.071-.131-1.708.79-.071Zm-.458-5.977-.79.071-.131-1.708.79-.071Zm-.458-5.977-.79.071-.131-1.708.79-.071Zm-.458-5.977-.79.071-.131-1.708.79-.071Zm-.458-5.977-.79.071-.131-1.708.79-.071Z" transform="translate(-514.635 -111.391)" fill="#b8d4f8"/>
        <path id="Trazado_878334" data-name="Trazado 878334" d="M1083.24,569.269l-.79.07-.075-.984.79-.071Zm-.4-5.253-.79.07-.131-1.707.79-.071Zm-.458-5.977-.79.071-.131-1.708.79-.071Zm-.458-5.977-.79.071-.131-1.708.79-.071Zm-.458-5.977-.79.07-.131-1.707.79-.071Zm-.458-5.977-.79.071-.131-1.708.79-.071Zm-.458-5.977-.79.071-.131-1.708.79-.071Zm-.458-5.977-.79.071-.131-1.707.79-.071Zm-.458-5.977-.79.071-.131-1.708.79-.071Zm-.458-5.977-.79.071-.131-1.708.79-.071Zm-.458-5.977-.79.071-.131-1.708.79-.071Zm-.458-5.977-.79.071-.131-1.708.79-.071Zm-.458-5.977-.79.071-.131-1.708.79-.071Zm-.459-5.977-.79.071-.131-1.708.79-.071Zm-.458-5.977-.79.071-.131-1.708.79-.071Zm-.458-5.977-.79.071-.131-1.708.79-.071Zm-.458-5.977-.79.071-.131-1.708.79-.071Zm-.458-5.977-.79.071-.131-1.708.79-.071Zm-.458-5.977-.79.071-.131-1.708.79-.071Zm-.459-5.977-.79.071-.131-1.708.79-.071Zm-.458-5.977-.79.071-.131-1.707.79-.071Zm-.458-5.977-.79.071-.131-1.708.79-.071Zm-.458-5.977-.79.071-.131-1.708.79-.071Zm-.458-5.977-.79.071-.131-1.708.79-.071Zm-.458-5.977-.79.071-.131-1.708.79-.071Zm-.458-5.977-.79.071-.131-1.708.79-.071Zm-.458-5.977-.79.071-.131-1.707.79-.071Zm-.458-5.977-.79.071-.131-1.707.79-.071Zm-.458-5.977-.79.071-.131-1.708.79-.071Zm-.458-5.977-.79.071-.131-1.707.79-.071Zm-.458-5.977-.79.071-.131-1.708.79-.071Zm-.458-5.977-.79.071-.131-1.708.79-.071Zm-.458-5.977-.79.071-.131-1.708.79-.071Zm-.458-5.977-.79.071-.131-1.708.79-.071Zm-.458-5.977-.79.071-.131-1.708.79-.071Zm-.458-5.977-.79.071-.131-1.708.79-.071Zm-.458-5.977-.79.071-.131-1.708.79-.071Zm-.458-5.977-.79.071-.131-1.708.79-.071Zm-.458-5.977-.79.071-.131-1.708.79-.071Zm-.458-5.977-.79.071-.131-1.707.79-.071Zm-.458-5.977-.79.071-.131-1.708.79-.071Zm-.458-5.977-.79.071-.131-1.708.79-.07Zm-.458-5.977-.79.071-.131-1.707.79-.071Zm-.458-5.977-.79.071-.131-1.707.79-.071Zm-.458-5.977-.79.071-.131-1.708.79-.07Zm-.458-5.977-.79.071-.131-1.707.79-.071Zm-.458-5.977-.79.071-.131-1.708.79-.071Zm-.458-5.977-.79.071-.131-1.708.79-.071Zm-.458-5.977-.79.071-.131-1.708.79-.071Zm-.458-5.977-.79.071-.131-1.708.79-.071Zm-.458-5.977-.79.071-.131-1.708.79-.071Zm-.458-5.977-.79.071-.131-1.708.79-.071Zm-.458-5.977-.79.071-.131-1.708.79-.071Zm-.458-5.977-.79.071-.131-1.708.79-.071Zm-.458-5.977-.79.071-.131-1.708.79-.071Zm-.458-5.977-.79.071-.131-1.708.79-.071Zm-.458-5.977-.79.071-.131-1.708.79-.071Zm-.458-5.977-.79.071-.131-1.708.79-.071Zm-.458-5.977-.79.071-.131-1.708.79-.071Zm-.458-5.977-.79.071-.131-1.708.79-.071Zm-.458-5.977-.79.071-.131-1.708.79-.071Zm-.458-5.977-.79.071-.131-1.707.79-.071Zm-.458-5.977-.79.071-.131-1.708.79-.071Zm-.458-5.977-.79.071-.131-1.708.79-.071Zm-.458-5.977-.79.071-.131-1.708.79-.071Zm-.458-5.977-.79.071-.131-1.708.79-.071Zm-.458-5.977-.79.071-.131-1.708.79-.071Zm-.458-5.977-.79.071-.131-1.708.79-.071Zm-.458-5.977-.79.071-.131-1.708.79-.071Zm-.458-5.977-.79.071-.131-1.708.79-.071Zm-.458-5.977-.79.071-.131-1.708.79-.071Zm-.458-5.977-.79.071-.131-1.708.79-.071Zm-.458-5.977-.79.071-.131-1.708.79-.071Zm-.458-5.977-.79.071-.131-1.708.79-.071Zm-.458-5.977-.79.071-.131-1.708.79-.071Z" transform="translate(-724.869 -92.825)" fill="#b8d4f8"/>
        <path id="Trazado_878335" data-name="Trazado 878335" d="M1387.323,544.067l-.79.071-.075-.984.79-.071Zm-.4-5.253-.79.071-.131-1.708.79-.071Zm-.458-5.977-.79.071-.131-1.707.79-.071ZM1386,526.86l-.79.071-.131-1.708.79-.071Zm-.458-5.977-.79.071-.131-1.708.79-.071Zm-.458-5.977-.79.071-.131-1.708.79-.071Zm-.458-5.977-.79.071-.131-1.708.79-.071Zm-.458-5.977-.79.071-.131-1.708.79-.071Zm-.458-5.977-.79.071-.131-1.708.79-.071Zm-.458-5.977-.791.071-.131-1.707.79-.071Zm-.458-5.977-.79.071-.131-1.708.79-.071Zm-.458-5.977-.79.071-.131-1.708.79-.071Zm-.458-5.977-.79.071-.131-1.707.79-.071Zm-.459-5.977-.79.071-.131-1.708.79-.071Zm-.458-5.977-.79.071-.131-1.708.79-.071Zm-.458-5.977-.79.071-.131-1.708.79-.071Zm-.458-5.977-.791.071-.131-1.708.79-.071Zm-.458-5.977-.79.071-.131-1.708.79-.071Zm-.458-5.977-.791.071-.131-1.708.79-.071Zm-.458-5.977-.79.071-.131-1.708.79-.071Zm-.458-5.977-.791.071-.131-1.708.79-.071Zm-.458-5.977-.79.071-.131-1.708.79-.071Zm-.458-5.977-.79.071-.131-1.708.79-.071Zm-.458-5.977-.79.071-.131-1.708.79-.071Zm-.458-5.977-.79.071-.131-1.707.79-.071Zm-.458-5.977-.79.071-.131-1.708.79-.071Zm-.458-5.977-.79.071-.131-1.708.79-.071ZM1375,383.42l-.79.071-.131-1.708.79-.071Zm-.458-5.977-.79.071-.131-1.708.79-.071Zm-.458-5.977-.79.071-.131-1.708.79-.071Zm-.458-5.977-.79.071-.131-1.708.79-.071Zm-.458-5.977-.79.071-.131-1.708.79-.071Zm-.458-5.977-.79.071-.131-1.708.79-.071Zm-.458-5.977-.79.071-.131-1.708.79-.071Zm-.458-5.977-.79.071-.131-1.708.79-.071Zm-.458-5.977-.79.071-.131-1.708.79-.071Zm-.458-5.977-.79.071-.131-1.708.79-.071Zm-.458-5.977-.79.071-.131-1.708.79-.071Zm-.458-5.977-.79.071-.131-1.708.79-.071Zm-.458-5.977-.79.071-.131-1.708.79-.071Zm-.458-5.977-.79.071-.131-1.708.79-.071Zm-.458-5.977-.79.071-.131-1.708.79-.071Zm-.458-5.977-.79.071-.131-1.708.79-.071Zm-.458-5.977-.79.071-.131-1.708.79-.071Zm-.458-5.977-.79.071-.131-1.708.79-.071Zm-.458-5.977-.79.071-.131-1.708.79-.071Zm-.458-5.977-.79.071-.131-1.707.79-.071Zm-.458-5.977-.79.071-.131-1.708.79-.071Zm-.458-5.977-.79.071-.131-1.708.79-.071Zm-.458-5.977-.79.071L1364,250.3l.79-.071Zm-.458-5.977-.79.071-.131-1.708.79-.071Zm-.458-5.977-.79.071-.131-1.708.79-.071Zm-.458-5.977-.79.071-.131-1.708.79-.071Zm-.458-5.977-.79.071-.131-1.708.79-.071Zm-.458-5.977-.79.071-.131-1.708.79-.071Zm-.458-5.977-.79.071-.131-1.708.79-.071Zm-.458-5.977-.79.071-.131-1.708.79-.071Zm-.458-5.977-.79.071-.131-1.708.79-.071Zm-.458-5.977-.79.071-.131-1.708.79-.071Zm-.458-5.977-.79.071-.131-1.708.79-.071Zm-.458-5.977-.79.071-.131-1.708.79-.071Zm-.458-5.977-.79.071-.131-1.708.79-.071Zm-.458-5.977-.79.071-.131-1.708.79-.071Zm-.458-5.977-.79.071-.131-1.708.79-.071Zm-.458-5.977-.79.071-.131-1.708.79-.071Zm-.458-5.977-.79.071-.131-1.708.79-.071Zm-.458-5.977-.79.071-.131-1.708.79-.071Zm-.458-5.977-.79.071-.131-1.708.79-.071Zm-.458-5.977-.79.071-.131-1.707.79-.071Zm-.458-5.977-.79.071-.131-1.708.79-.071Zm-.458-5.977-.79.071-.131-1.708.79-.071Zm-.458-5.977-.79.071-.131-1.708.79-.071Zm-.458-5.977-.79.071-.131-1.708.79-.071Zm-.458-5.977-.79.071-.131-1.708.79-.071Zm-.458-5.977-.79.071-.131-1.708.79-.071Z" transform="translate(-935.103 -74.26)" fill="#b8d4f8"/>
        <path id="Trazado_878336" data-name="Trazado 878336" d="M1691.413,518.864l-.79.071-.075-.984.79-.07Zm-.4-5.253-.79.07-.131-1.707.79-.071Zm-.458-5.977-.79.071L1689.63,506l.79-.071Zm-.458-5.977-.79.071-.131-1.708.79-.071Zm-.458-5.977-.79.071-.131-1.708.79-.071Zm-.458-5.977-.79.071-.131-1.708.79-.071Zm-.458-5.977-.79.071-.131-1.707.79-.071Zm-.458-5.977-.79.071-.131-1.707.79-.071Zm-.458-5.977-.79.071-.131-1.708.79-.071Zm-.458-5.977-.79.071-.131-1.708.79-.071Zm-.458-5.977-.79.071-.131-1.708.79-.071Zm-.458-5.977-.79.071-.131-1.708.79-.071Zm-.458-5.977-.79.071-.131-1.707.79-.071Zm-.458-5.977-.79.071-.131-1.708.79-.071Zm-.458-5.977-.79.071-.131-1.708.79-.071Zm-.458-5.977-.79.071-.131-1.708.79-.071Zm-.458-5.977-.79.071-.131-1.708.79-.07Zm-.458-5.977-.79.071-.131-1.708.79-.071Zm-.458-5.977-.79.071-.131-1.708.79-.071Zm-.458-5.977-.79.071-.131-1.708.79-.071Zm-.458-5.977-.79.071-.131-1.707.79-.071Zm-.458-5.977-.79.071-.131-1.708.79-.071Zm-.458-5.977-.79.071-.131-1.708.79-.071Zm-.458-5.977-.79.071-.131-1.707.79-.071Zm-.458-5.977-.79.071-.131-1.708.79-.071Zm-.458-5.977-.79.071-.131-1.708.79-.071Zm-.458-5.977-.79.071-.131-1.708.79-.071Zm-.458-5.977-.79.071-.131-1.708.79-.071Zm-.458-5.977-.79.071-.131-1.707.79-.071Zm-.458-5.977-.79.071-.131-1.707.79-.071Zm-.458-5.977-.79.071-.131-1.708.79-.071Zm-.458-5.977-.79.071-.131-1.707.79-.071Zm-.459-5.977-.79.071-.131-1.707.79-.071Zm-.458-5.977-.79.071-.131-1.708.79-.071Zm-.458-5.977-.79.071-.131-1.708.79-.071Zm-.458-5.977-.79.071-.131-1.707.79-.071Zm-.459-5.977-.79.071-.131-1.708.79-.071Zm-.458-5.977-.79.071-.131-1.708.79-.071Zm-.458-5.977-.79.071-.131-1.708.79-.071Zm-.458-5.977-.79.071-.131-1.708.79-.071Zm-.458-5.977-.79.071-.131-1.708.79-.071Zm-.458-5.977-.79.071-.131-1.708.79-.071Zm-.458-5.977-.79.071-.131-1.708.79-.071Zm-.458-5.977-.79.071-.131-1.708.79-.071Zm-.458-5.977-.79.071-.131-1.708.79-.071Zm-.458-5.977-.79.071-.131-1.708.79-.071Zm-.458-5.977-.79.071-.131-1.708.79-.071Zm-.458-5.977-.79.071-.131-1.708.79-.071Zm-.458-5.977-.79.071-.131-1.708.79-.071Zm-.458-5.977-.79.071-.131-1.708.79-.071Zm-.458-5.977-.79.071-.131-1.708.79-.071Zm-.458-5.977-.79.071-.131-1.708.79-.071Zm-.458-5.977-.79.071-.131-1.708.79-.071Zm-.458-5.977-.79.071-.131-1.708.79-.071Zm-.458-5.977-.79.071-.131-1.708.79-.071Zm-.458-5.977-.79.071-.131-1.708.79-.071Zm-.458-5.977-.79.071-.131-1.708.79-.071Zm-.458-5.977-.79.071-.131-1.708.79-.071Zm-.458-5.977-.79.071-.131-1.708.79-.071Zm-.458-5.977-.79.071-.131-1.708.79-.071Zm-.458-5.977-.79.071-.131-1.708.79-.071Zm-.458-5.977-.79.071-.131-1.708.79-.071Zm-.458-5.977-.79.071-.131-1.708.79-.071Zm-.458-5.977-.79.071-.131-1.708.79-.071Zm-.458-5.977-.79.071-.131-1.708.79-.071Zm-.458-5.977-.79.071-.131-1.708.79-.071Zm-.458-5.977-.79.071-.131-1.708.79-.071Zm-.458-5.977-.79.071-.131-1.708.79-.071Zm-.458-5.977-.79.071-.131-1.708.79-.071Zm-.458-5.977-.79.071-.131-1.708.79-.071Zm-.458-5.977-.79.071-.131-1.708.79-.071Zm-.458-5.977-.79.071-.131-1.708.79-.071Zm-.458-5.977-.79.071-.131-1.708.79-.071Zm-.458-5.977-.79.071-.131-1.708.79-.071Zm-.458-5.977-.79.071-.131-1.708.79-.071Z" transform="translate(-1145.34 -55.694)" fill="#b8d4f8"/>
        <path id="Trazado_878337" data-name="Trazado 878337" d="M1995.495,493.662l-.79.071-.076-.984.79-.071Zm-.4-5.253-.79.071-.131-1.707.79-.071Zm-.458-5.977-.79.071-.131-1.708.79-.071Zm-.458-5.977-.79.071-.131-1.708.79-.071Zm-.458-5.977-.79.071-.131-1.708.79-.071Zm-.458-5.977-.79.071-.131-1.708.79-.071Zm-.458-5.977-.79.071-.131-1.708.79-.071Zm-.458-5.977-.79.071-.131-1.708.79-.071Zm-.458-5.977-.79.071-.131-1.708.79-.071Zm-.458-5.977-.79.071-.131-1.708.79-.071Zm-.458-5.977-.79.071-.131-1.708.79-.071Zm-.458-5.977-.79.071-.131-1.708.79-.071Zm-.458-5.977-.79.071-.131-1.707.79-.071Zm-.458-5.977-.79.071-.131-1.708.79-.071Zm-.458-5.977-.79.071-.131-1.708L1989,409Zm-.458-5.977-.79.071-.131-1.707.79-.071Zm-.458-5.977-.791.071-.131-1.708.79-.071Zm-.459-5.977-.79.071-.131-1.708.79-.071Zm-.458-5.977-.79.071-.131-1.707.79-.071Zm-.459-5.977-.79.071-.131-1.708.79-.071Zm-.458-5.977-.79.071-.131-1.707.79-.071Zm-.458-5.977-.79.071-.131-1.708.79-.071Zm-.458-5.977-.79.071-.131-1.707.79-.071Zm-.458-5.977-.79.071-.131-1.708.79-.071Zm-.458-5.977-.79.071-.131-1.708.79-.07Zm-.458-5.977-.79.071-.131-1.708.79-.071Zm-.458-5.977-.79.071-.131-1.707.79-.071Zm-.458-5.977-.79.071-.131-1.708.79-.071Zm-.458-5.977-.79.071-.131-1.708.79-.071Zm-.458-5.977-.79.071-.131-1.708.79-.071Zm-.458-5.977-.79.071-.131-1.708.79-.071Zm-.458-5.977-.79.071-.131-1.707.79-.071Zm-.458-5.977-.79.071-.131-1.708.79-.071Zm-.458-5.977-.79.071-.131-1.708.79-.071Zm-.458-5.977-.79.071-.131-1.708.79-.071Zm-.458-5.977-.79.071-.131-1.708.79-.071Zm-.458-5.977-.79.071-.131-1.707.79-.071Zm-.458-5.977-.79.071-.131-1.708.79-.071Zm-.458-5.977-.79.071-.131-1.708.79-.071Zm-.458-5.977-.79.071-.131-1.707.79-.071Zm-.458-5.977-.79.071-.131-1.708.79-.071Zm-.458-5.977-.79.071-.131-1.708.79-.071Zm-.458-5.977-.79.071-.131-1.708.79-.071Zm-.458-5.977-.79.071-.131-1.707.79-.071Zm-.458-5.977-.79.071-.131-1.708.79-.071Zm-.458-5.977-.79.071L1974,223.8l.79-.071Zm-.458-5.977-.79.071-.131-1.708.79-.071Zm-.458-5.977-.79.071-.131-1.708.79-.071Zm-.458-5.977-.79.071-.131-1.708.79-.071Zm-.458-5.977-.79.071-.131-1.708.79-.071Zm-.458-5.977-.79.071-.131-1.708.79-.071Zm-.458-5.977-.79.071-.131-1.708.79-.071Zm-.458-5.977-.79.071-.131-1.708.79-.071Zm-.458-5.977-.79.071-.131-1.708.79-.071Zm-.458-5.977-.79.071-.131-1.708.79-.071Zm-.459-5.977-.79.071-.131-1.708.79-.071Zm-.458-5.977-.79.071-.131-1.708.79-.071Zm-.458-5.977-.79.071-.131-1.708.79-.071Zm-.458-5.977-.79.071-.131-1.708.79-.071Zm-.458-5.977-.79.071-.131-1.708.79-.071Zm-.458-5.977-.79.071-.131-1.708.79-.071Zm-.458-5.977-.79.071-.131-1.708.79-.071Zm-.458-5.977-.79.071-.131-1.708.79-.071Zm-.458-5.977-.79.071-.131-1.708.79-.071Zm-.458-5.977-.79.071-.131-1.708.79-.071Zm-.458-5.977-.79.071-.131-1.708.79-.071Zm-.458-5.977-.79.071-.131-1.708.79-.071Zm-.458-5.977-.79.071-.131-1.708.79-.071Zm-.458-5.977-.79.071-.131-1.708.79-.071Zm-.458-5.977-.79.071L1963,80.357l.79-.071Zm-.458-5.977-.79.071-.131-1.708.79-.071Zm-.458-5.977-.79.071-.131-1.708.79-.071Zm-.458-5.977-.79.071-.131-1.708.79-.071Zm-.458-5.977-.79.071-.131-1.708.79-.071Zm-.458-5.977-.79.071-.131-1.708.79-.071Z" transform="translate(-1355.573 -37.129)" fill="#b8d4f8"/>
        <path id="Trazado_878338" data-name="Trazado 878338" d="M2299.577,468.459l-.79.071-.075-.984.79-.071Zm-.4-5.253-.79.071-.131-1.707.79-.071Zm-.458-5.977-.79.071-.131-1.708.79-.071Zm-.458-5.977-.79.071-.13-1.708.789-.071Zm-.458-5.977-.79.071-.131-1.707.79-.071Zm-.458-5.977-.791.071-.131-1.708.79-.07Zm-.459-5.977-.79.071-.131-1.707.79-.071Zm-.458-5.977-.791.071-.131-1.707.79-.071Zm-.459-5.977-.79.071-.131-1.708.79-.071Zm-.458-5.977-.79.071-.131-1.708.79-.071Zm-.458-5.977-.79.071-.131-1.707.79-.071Zm-.458-5.977-.79.071-.131-1.708.79-.071Zm-.458-5.977-.79.071-.131-1.708.79-.071Zm-.458-5.977-.79.071-.131-1.708.79-.071Zm-.458-5.977-.79.071-.131-1.708.79-.071Zm-.458-5.977-.79.071-.131-1.707.79-.071Zm-.458-5.977-.79.071-.131-1.708.79-.071Zm-.458-5.977-.79.071-.131-1.708.79-.071Zm-.458-5.977-.79.071-.131-1.707.79-.071Zm-.458-5.977-.79.071-.131-1.708.79-.071Zm-.458-5.977-.79.071-.131-1.707.79-.071Zm-.458-5.977-.79.071-.131-1.707.789-.071Zm-.459-5.977-.79.071-.131-1.708.79-.071Zm-.458-5.977-.79.071-.131-1.707.79-.071Zm-.458-5.977-.79.071-.131-1.708.79-.071Zm-.458-5.977-.79.071-.131-1.708.79-.071Zm-.458-5.977-.79.071-.131-1.708.79-.071Zm-.459-5.977-.79.071-.131-1.708.79-.071Zm-.458-5.977-.79.071-.131-1.708.79-.071Zm-.458-5.977-.79.071-.131-1.708.79-.071Zm-.458-5.977-.79.071-.131-1.708.79-.071Zm-.458-5.977-.79.071-.131-1.708.79-.071Zm-.458-5.977-.79.071-.131-1.708.79-.071Zm-.458-5.977-.79.071-.131-1.708.79-.071Zm-.458-5.977-.79.071-.131-1.708.79-.071Zm-.458-5.977-.79.071-.131-1.707.79-.071Zm-.458-5.977-.789.071-.132-1.708.79-.071Zm-.458-5.977-.791.071-.131-1.708.79-.071Zm-.458-5.977-.79.071-.131-1.708.79-.071Zm-.458-5.977-.791.071-.13-1.708.79-.071Zm-.458-5.977-.79.071-.131-1.708.79-.071Zm-.458-5.977-.79.071-.132-1.708.79-.071Zm-.458-5.977-.791.071-.131-1.707.79-.071Zm-.458-5.977-.79.071-.131-1.707.79-.071Zm-.458-5.977-.79.071-.131-1.708.79-.071Zm-.458-5.977-.79.071-.132-1.708.79-.071Zm-.458-5.977-.791.071-.13-1.708.79-.071Zm-.458-5.977-.79.071-.131-1.708.79-.071Zm-.459-5.977-.79.071-.131-1.708.79-.071Zm-.458-5.977-.79.071-.131-1.708.79-.071Zm-.458-5.977-.79.071-.131-1.708.79-.071Zm-.458-5.977-.79.071-.131-1.708.79-.071Zm-.458-5.977-.79.071-.131-1.708.79-.071Zm-.458-5.977-.79.071-.131-1.708.79-.071Zm-.458-5.977-.79.071-.131-1.708.79-.071Zm-.459-5.977-.79.071-.131-1.708.79-.071Zm-.458-5.977-.79.071-.131-1.708.79-.071Zm-.458-5.977-.79.071-.132-1.708.79-.071Zm-.458-5.977-.79.071-.131-1.708.79-.071Zm-.458-5.977-.79.071-.131-1.708.79-.071Zm-.458-5.977-.79.071-.131-1.708.79-.071Zm-.458-5.977-.79.071-.131-1.708.79-.071Zm-.459-5.977-.789.071-.131-1.708.79-.071Zm-.458-5.977-.79.071-.131-1.708.79-.071Zm-.459-5.977-.79.071-.132-1.708.791-.071Zm-.458-5.977-.79.071-.131-1.708.791-.071Zm-.459-5.977-.79.071-.131-1.708.79-.071Zm-.458-5.977-.79.071L2268,67.108l.79-.071Zm-.458-5.977-.79.071-.131-1.708.79-.071Zm-.459-5.977-.79.071-.131-1.708.79-.071Zm-.458-5.977-.79.071-.131-1.708.79-.071Zm-.458-5.977-.79.071-.131-1.708.79-.071Zm-.458-5.977-.79.071-.131-1.708.79-.071Zm-.458-5.977-.79.071-.131-1.708.791-.071Zm-.458-5.977-.79.071-.131-1.708.79-.071Z" transform="translate(-1542.718 -18.563)" fill="#b8d4f8"/>
        <path id="Trazado_878339" data-name="Trazado 878339" d="M2602.8,442.343l.075.984.79-.071-.076-.984Zm-.458-5.977.131,1.708.79-.071-.131-1.708Zm-.458-5.977.131,1.708.79-.071-.131-1.708Zm-.458-5.977.131,1.708.79-.071-.131-1.708Zm-.459-5.976.132,1.708.79-.071-.131-1.708Zm-.458-5.977.131,1.708.79-.071-.131-1.708Zm-.459-5.977.131,1.707.79-.071-.131-1.708Zm-.458-5.977.131,1.707.79-.071-.131-1.707Zm-.458-5.977.131,1.708.79-.071-.131-1.708Zm-.458-5.977.131,1.708.79-.071-.131-1.708Zm-.458-5.977.131,1.707.79-.071-.131-1.708Zm-.458-5.977.131,1.708.79-.071-.13-1.708Zm-.459-5.977.132,1.708.789-.071-.13-1.708Zm-.458-5.977.131,1.708.79-.071-.131-1.708Zm-.458-5.977.131,1.708.79-.071-.131-1.708Zm-.458-5.977.131,1.708.79-.071-.131-1.708Zm-.458-5.977.131,1.708.79-.071-.131-1.707Zm-.458-5.977.131,1.708.79-.071-.131-1.708Zm-.458-5.977.131,1.708.79-.071-.131-1.708Zm-.458-5.977.131,1.708.79-.071-.131-1.707Zm-.458-5.977.131,1.708.79-.071-.131-1.708Zm-.459-5.977.131,1.708.79-.071-.131-1.708Zm-.458-5.977.131,1.708.79-.071-.131-1.708Zm-.458-5.977.131,1.707.79-.071-.131-1.707Zm-.458-5.977.131,1.707.79-.071-.131-1.707Zm-.458-5.977.131,1.708.79-.071-.131-1.708Zm-.458-5.977.131,1.708.79-.071-.131-1.708Zm-.458-5.977.131,1.708.79-.071-.131-1.708Zm-.458-5.977.131,1.708.79-.071-.131-1.708Zm-.458-5.977.131,1.708.79-.071-.131-1.708Zm-.458-5.977.131,1.708.79-.071-.131-1.707Zm-.458-5.977.131,1.707.79-.071-.131-1.707Zm-.458-5.977.131,1.708.79-.071-.131-1.708Zm-.458-5.977.131,1.708.79-.071-.131-1.708Zm-.458-5.977.131,1.708.79-.071-.131-1.708Zm-.458-5.977.131,1.708.79-.071-.131-1.708Zm-.459-5.977.131,1.708.79-.071-.131-1.708Zm-.458-5.977.131,1.707.79-.071-.131-1.707Zm-.458-5.977.131,1.707.79-.071-.131-1.708Zm-.458-5.977.131,1.708.79-.071-.131-1.708Zm-.458-5.977.131,1.708.79-.071-.131-1.708Zm-.458-5.977.131,1.708.79-.071-.131-1.708Zm-.458-5.977.131,1.708.79-.071-.131-1.708Zm-.458-5.977.131,1.708.791-.071-.131-1.707Zm-.458-5.977.131,1.708.79-.071-.131-1.708Zm-.459-5.977.131,1.708.79-.071-.131-1.708Zm-.458-5.977.131,1.708.79-.071-.131-1.708Zm-.459-5.977.131,1.708.79-.071-.131-1.708Zm-.458-5.977.131,1.708.79-.071-.131-1.707Zm-.458-5.977.131,1.708.79-.071-.131-1.708Zm-.458-5.977.131,1.708.79-.071-.131-1.708Zm-.458-5.977.131,1.707.79-.071-.131-1.708Zm-.458-5.977.131,1.708.79-.071-.131-1.708Zm-.459-5.977.131,1.708.79-.071-.131-1.708Zm-.458-5.977.131,1.708.79-.071-.131-1.708Zm-.458-5.977.131,1.708.79-.071-.131-1.708Zm-.458-5.977.131,1.708.79-.071-.131-1.708Zm-.458-5.977.131,1.708.79-.071-.131-1.708Zm-.458-5.977.131,1.708.79-.071-.131-1.708Zm-.458-5.977.131,1.708.79-.071-.131-1.708Zm-.458-5.977.131,1.708.791-.071-.131-1.708Zm-.458-5.977.131,1.708.79-.071-.131-1.708Zm-.458-5.977.131,1.708.791-.071-.131-1.708Zm-.458-5.977.131,1.708.79-.071-.131-1.708Zm-.458-5.977.131,1.708.79-.071-.131-1.708Zm-.458-5.977.131,1.708.79-.071-.131-1.708Zm-.458-5.977.131,1.708.79-.071-.131-1.708Zm-.458-5.977.131,1.708.79-.071-.131-1.708Zm-.458-5.977.131,1.708.79-.071-.131-1.708Zm-.458-5.977.131,1.708.791-.071-.131-1.708Zm-.458-5.977.131,1.708.79-.071-.131-1.708ZM2570.258,18l.131,1.708.79-.071-.131-1.708Zm-.459-5.977.131,1.708.79-.071-.131-1.708Zm-.458-5.977.131,1.708.79-.071-.131-1.708ZM2569.673,0l-.79.071.131,1.708.79-.071Z" transform="translate(-1772.71 0.003)" fill="#b8d4f8"/>
        <path id="Trazado_878340" data-name="Trazado 878340" d="M170.115,643.965l.076.984.79-.071-.075-.984Zm-.458-5.977.131,1.708.79-.071-.131-1.708Zm-.458-5.977.131,1.708.79-.071-.131-1.707Zm-.458-5.977.131,1.708.79-.07-.131-1.708Zm-.458-5.976.131,1.707.79-.071-.131-1.708Zm-.458-5.977.131,1.708.79-.07-.131-1.708Zm-.458-5.976.131,1.708.79-.071-.131-1.708Zm-.458-5.977.131,1.708.79-.07-.131-1.708Zm-.458-5.977.131,1.708.79-.071-.131-1.708Zm-.458-5.977.131,1.707.79-.071-.131-1.707Zm-.458-5.976.131,1.708.79-.071-.131-1.708Zm-.458-5.977.131,1.708.79-.07-.131-1.708Zm-.458-5.976.131,1.708.79-.071-.131-1.708Zm-.458-5.977.131,1.708.79-.071-.131-1.708Zm-.458-5.977.131,1.708.79-.071-.131-1.708Zm-.458-5.977.131,1.708.79-.07-.131-1.708Zm-.458-5.976.131,1.707.79-.071-.131-1.708Zm-.458-5.977.131,1.708.79-.07-.131-1.708Zm-.458-5.977.131,1.708.79-.071-.131-1.708Zm-.458-5.977.131,1.708.79-.071-.131-1.708Zm-.458-5.976.131,1.708.79-.071-.131-1.707Zm-.458-5.977.131,1.708.79-.07-.131-1.708Zm-.458-5.976.131,1.708.79-.071-.131-1.708Zm-.458-5.977.131,1.708.79-.071-.131-1.708Zm-.458-5.976.131,1.708.79-.071-.131-1.708Zm-.458-5.977.131,1.708.79-.071-.131-1.708Zm-.458-5.976.131,1.708.79-.071-.131-1.708Zm-.458-5.977.131,1.707.79-.071-.131-1.708Zm-.458-5.977.131,1.708.79-.071-.131-1.708Zm-.458-5.977.131,1.708.79-.071-.131-1.708Zm-.458-5.977.131,1.707.79-.07-.131-1.708Zm-.458-5.977.131,1.708.79-.071-.131-1.708Zm-.458-5.977.131,1.708.79-.071-.131-1.708Zm-.458-5.977.131,1.708.79-.071-.131-1.707Zm-.458-5.977.131,1.708.79-.071-.131-1.708Zm-.458-5.977.131,1.708.79-.071-.131-1.708Zm-.458-5.977.131,1.708.79-.071-.131-1.707Zm-.458-5.977.131,1.707.79-.071-.131-1.708Zm-.458-5.977.131,1.708.79-.071-.131-1.708Zm-.458-5.977.131,1.708.79-.071-.131-1.708Zm-.458-5.977.131,1.707.79-.071-.131-1.708Zm-.458-5.977.131,1.708.79-.071-.131-1.708Zm-.458-5.977.131,1.708.79-.071-.131-1.708Zm-.458-5.977.131,1.708.79-.071L151.2,386.9Zm-.458-5.977.131,1.707.79-.07-.131-1.708Zm-.458-5.977.131,1.708.79-.071-.131-1.708Zm-.458-5.977.131,1.708.79-.071-.131-1.708Zm-.458-5.977.131,1.708.79-.071-.131-1.708Zm-.458-5.976.131,1.708.79-.071-.131-1.708Zm-.458-5.977.131,1.708.79-.071-.131-1.707Zm-.458-5.977.131,1.707.79-.071-.131-1.708Zm-.458-5.977.131,1.708.79-.071-.131-1.707Zm-.458-5.977.131,1.708.79-.071-.131-1.708Zm-.458-5.977.131,1.708.79-.071-.131-1.707Zm-.458-5.977.131,1.708.79-.071-.131-1.708Zm-.458-5.977.131,1.708.79-.071-.131-1.708Zm-.458-5.977.131,1.708.79-.071-.131-1.708Zm-.458-5.977.131,1.708.79-.071-.131-1.707Zm-.458-5.976.131,1.707.79-.07-.131-1.708Zm-.458-5.977.131,1.708.79-.071-.131-1.708Zm-.458-5.977.131,1.708.79-.071-.131-1.708Zm-.458-5.976.131,1.707.79-.071-.131-1.708Zm-.458-5.977.131,1.708.79-.071-.131-1.708Zm-.458-5.976.131,1.708.79-.071-.131-1.708Zm-.458-5.977.131,1.708.79-.071-.131-1.707Zm-.458-5.977.131,1.708.79-.071-.131-1.707Zm-.458-5.977.131,1.708.79-.071-.131-1.708Zm-.458-5.977.131,1.708.79-.071-.131-1.708Zm-.458-5.977.131,1.707.79-.071-.131-1.707Zm-.458-5.977.131,1.708.79-.071-.131-1.708Zm-.458-5.977.131,1.708.79-.071-.131-1.708Zm-.458-5.977.131,1.708.79-.071-.131-1.707Zm-.458-5.977.131,1.707.79-.07-.131-1.708Zm-.458-5.977.131,1.708.79-.071-.131-1.708Zm-.458-5.977.131,1.708.79-.07-.131-1.708Z" transform="translate(-103.011 -148.523)" fill="#b8d4f8"/>
        <path id="Trazado_878341" data-name="Trazado 878341" d="M0,323.681l.083.854,1.995-.142-.083-.854Zm6.981-.5.083.854,1.995-.142-.083-.854Zm6.981-.5.083.854,1.995-.142-.083-.854Zm6.981-.5.083.854,1.995-.142-.083-.854Zm6.981-.5.083.854L30,322.412l-.083-.854Zm6.981-.5.083.854,1.995-.142-.083-.854Zm6.981-.5.083.854,1.995-.142-.083-.854Zm6.981-.5.082.854,1.995-.141-.083-.854Zm6.981-.5.082.854,1.995-.142-.083-.854Zm6.981-.5.083.854,1.995-.142-.082-.854Zm6.981-.5.082.854,1.995-.142-.082-.854Zm6.981-.5.082.854,1.995-.142-.082-.854Zm6.981-.5.083.854,1.995-.142-.082-.854Zm6.982-.5.083.854,1.994-.142-.082-.854Zm6.981-.5.083.854,1.995-.142-.083-.854Zm6.981-.5.083.854,1.995-.142-.083-.854Zm6.982-.5.083.854,1.995-.142-.082-.854Zm6.981-.5.083.854,1.994-.142-.082-.854Zm6.981-.5.083.854,1.995-.142-.083-.854Zm6.981-.5.083.854,1.995-.142-.083-.854Zm6.981-.5.083.854,1.995-.142-.083-.854Zm6.981-.5.083.854,1.995-.142-.083-.854Zm6.981-.5.083.854,1.995-.142-.083-.854Zm6.981-.5.083.854,1.995-.142-.083-.854Zm6.982-.5.082.854,1.995-.142-.083-.854Zm6.981-.5.082.854,1.995-.142-.083-.854Zm6.981-.5.082.854,1.995-.142-.082-.854Zm6.981-.5.083.854,1.995-.142-.082-.854Zm6.981-.5.082.854,1.995-.142-.082-.854Zm6.981-.5.082.854,1.995-.142-.082-.854Zm6.981-.5.083.854,1.994-.142-.082-.854Zm6.981-.5.083.854,1.994-.142-.082-.854Zm6.981-.5.083.854,1.995-.142-.083-.854Zm6.981-.5.083.854,1.995-.142-.083-.854Zm6.982-.5.083.854,1.994-.142-.083-.854Zm6.981-.5.083.854,1.995-.142-.083-.854Zm6.981-.5.083.854,1.995-.142-.083-.854Zm6.982-.5.083.854,1.995-.142-.083-.853Zm6.982-.5.082.854,1.995-.142-.083-.853Zm6.981-.5.082.854,1.995-.142-.083-.854Zm6.981-.5.083.854,1.994-.141-.082-.854Zm6.982-.5.082.854,1.995-.142-.082-.854Zm6.981-.5.082.854,1.995-.142-.082-.854Zm6.981-.5.083.854,1.995-.142-.082-.854Zm6.981-.5.083.854,1.994-.142-.082-.854Zm6.981-.5.083.854,1.995-.142-.083-.853Zm6.981-.5.083.854,1.995-.142-.082-.853Zm6.981-.5.083.854,1.994-.142-.082-.854Zm6.981-.5.083.854,1.995-.142-.083-.854Zm6.981-.5.083.854,1.995-.142-.083-.853Zm6.982-.5.083.854,1.995-.142-.083-.854Zm6.981-.5.083.854,1.995-.142-.083-.854Zm6.981-.5.083.854,1.995-.142-.083-.853Zm6.981-.5.083.854,1.995-.141-.083-.854Zm6.981-.5.083.854,1.995-.142-.083-.854Zm6.982-.5.083.854,1.995-.142-.083-.854Zm6.981-.5.083.854,1.995-.142-.083-.854Zm6.981-.5.083.854,1.995-.142-.082-.853Zm6.981-.5.083.854,1.995-.142-.082-.853Zm6.982-.5.082.854,1.995-.142-.082-.853Zm6.981-.5.082.854,1.995-.142-.082-.854Zm6.981-.5.083.854,1.995-.142-.083-.854Zm6.982-.5.083.854,1.994-.142-.083-.854Zm6.981-.5.083.854,1.995-.142-.083-.854Zm6.981-.5.083.854,1.995-.142-.082-.853Zm6.981-.5.083.854,1.995-.142-.083-.853Zm6.981-.5.083.854,1.995-.142-.083-.853Zm6.981-.5.083.854,1.995-.142-.083-.853Zm6.981-.5.083.854,1.995-.142-.083-.853Zm6.982-.5.083.854,1.995-.142-.083-.853Zm6.981-.5.083.854,1.995-.142-.083-.854Zm6.981-.5.082.854,1.995-.142-.082-.854Zm6.981-.5.082.854,1.994-.142-.082-.854Zm6.981-.5.082.854,1.995-.142-.083-.853Zm6.981-.5.083.854,1.995-.142-.082-.853Zm6.982-.5.083.854,1.995-.142-.083-.853Zm6.981-.5.083.854,1.995-.142-.083-.853Zm6.981-.5.083.854,1.995-.142-.083-.854Zm6.981-.5.083.854,1.995-.142-.083-.853Zm6.982-.5.083.854,1.995-.142-.083-.853Zm6.982-.5.082.854,1.995-.142-.083-.853Zm6.981-.5.083.854,1.995-.142-.083-.854Zm6.982-.5.082.854,1.995-.142-.083-.853Zm6.981-.5.082.854,1.995-.142-.083-.853Zm6.981-.5.083.854,1.995-.142-.082-.853Zm6.981-.5.082.854,1.995-.142-.082-.854Zm6.981-.5.082.854,1.995-.142-.083-.854Zm6.981-.5.082.854,1.995-.142-.082-.853Zm6.981-.5.083.854,1.994-.142-.082-.853Zm6.981-.5.083.854,1.995-.142-.083-.853Zm6.981-.5.083.854,1.995-.142-.083-.854Zm6.981-.5.083.854,1.995-.142-.083-.854Zm6.981-.5.083.854,1.995-.142-.083-.854Zm6.981-.5.083.854,1.995-.142-.083-.854Zm6.982-.5.082.854,1.995-.142-.083-.854Zm6.981-.5.083.854,1.995-.142-.083-.854Zm6.981-.5.082.854,1.995-.142-.083-.853Zm6.981-.5.082.854,1.995-.142-.083-.853Zm6.981-.5.082.854,1.995-.142-.083-.854Zm6.982-.5.082.854,1.995-.142-.083-.854Zm6.981-.5.083.854,1.995-.142-.083-.854Zm6.981-.5.083.854,1.994-.142-.082-.854Zm6.982-.5.083.854,1.994-.142-.082-.854Zm6.981-.5.083.854,1.994-.142-.083-.854Zm6.981-.5.083.854,1.995-.142-.083-.854Zm6.981-.5.083.854,1.995-.142-.083-.854Zm6.981-.5.083.854,1.994-.142-.083-.854Zm6.981-.5.083.854,1.995-.142-.083-.853Zm6.981-.5.082.854,1.995-.142-.083-.854Zm6.982-.5.082.854,1.995-.142-.083-.853Zm6.981-.5.082.854,1.995-.142-.083-.854Zm6.981-.5.082.854L777,269.41l-.083-.854Zm6.981-.5.083.854,1.995-.142-.083-.854Zm6.981-.5.082.854,1.995-.142-.083-.854Zm6.981-.5.083.854,1.995-.142-.083-.854Zm6.981-.5.083.854,1.995-.142-.083-.854Zm6.982-.5.083.854,1.994-.142-.082-.854Zm6.981-.5.083.854,1.995-.142-.083-.854Z" transform="translate(0 -195.643)" fill="#b8d4f8"/>
        <path id="Trazado_878342" data-name="Trazado 878342" d="M844.093,570.527l-1.995.141-.083-.854,1.994-.141Zm-6.981.5-1.995.141-.082-.854,1.995-.141Zm-6.981.5-1.995.141-.083-.854,1.995-.141Zm-6.981.5-1.995.141-.083-.854,1.995-.141Zm-6.981.5-1.995.141-.082-.854,1.994-.141Zm-6.982.5-1.994.141-.083-.854,1.995-.141Zm-6.981.5-1.995.141-.083-.854,1.995-.142Zm-6.981.5-1.995.141-.082-.854,1.995-.141Zm-6.981.5-1.995.142-.083-.854,1.995-.142Zm-6.981.5-1.995.141-.082-.854,1.995-.141Zm-6.981.5-1.995.141-.083-.854,2-.141Zm-6.981.5-1.995.141-.083-.854,1.994-.142Zm-6.981.5-1.994.141-.083-.854,1.995-.142Zm-6.982.5-1.995.141-.083-.854,1.995-.142Zm-6.981.5-1.994.141-.083-.854,1.995-.141Zm-6.981.5-1.995.141-.082-.854,1.994-.142Zm-6.982.5-1.994.141-.083-.854,1.995-.142Zm-6.981.5-1.994.141-.083-.854,1.995-.142Zm-6.981.5-1.995.141-.082-.854,1.995-.142Zm-6.982.5-1.995.141-.083-.854,1.995-.142Zm-6.981.5-1.995.141-.083-.854,1.994-.142Zm-6.981.5-1.995.141-.083-.854,1.995-.142Zm-6.981.5-1.995.141-.083-.854,1.995-.142Zm-6.981.5-1.995.141-.082-.854,1.995-.142Zm-6.982.5-1.995.141-.083-.854,1.995-.142Zm-6.981.5-1.995.141-.083-.854,1.994-.142Zm-6.981.5-1.995.141-.083-.854,1.995-.142Zm-6.981.5-1.995.141-.083-.854,1.995-.142Zm-6.981.5-1.994.141-.083-.854,1.995-.142Zm-6.981.5-1.995.141-.082-.854,1.994-.142Zm-6.982.5-1.995.141-.083-.854,1.995-.142Zm-6.981.5-1.995.142-.083-.854,1.995-.142Zm-6.981.5-1.995.141-.083-.854,1.995-.142Zm-6.981.5-1.995.141-.083-.854,1.995-.142Zm-6.981.5-1.995.141-.082-.854,1.995-.142Zm-6.982.5-1.994.141-.083-.854,1.995-.142Zm-6.981.5-1.994.141-.083-.854,1.995-.142Zm-6.981.5L583.79,589l-.083-.854L585.7,588Zm-6.981.5-1.995.142-.083-.854,1.995-.142Zm-6.981.5-1.995.142-.083-.854,1.995-.142Zm-6.981.5-1.995.142-.082-.854,1.995-.142Zm-6.982.5-1.994.142-.083-.854,1.995-.142Zm-6.981.5-1.995.142-.083-.854,1.995-.142Zm-6.982.5-1.995.142-.082-.854,1.995-.142Zm-6.98.5-1.995.142-.082-.854,1.995-.142Zm-6.982.5-1.995.142-.083-.854,1.995-.142Zm-6.981.5-1.995.142-.083-.854,1.995-.142Zm-6.981.5-1.995.142-.082-.854,1.995-.141Zm-6.981.5-1.995.142-.083-.854,1.995-.142Zm-6.981.5-1.995.142-.082-.854,1.994-.142Zm-6.981.5-1.995.142-.082-.854,1.995-.141Zm-6.981.5-1.995.142-.083-.854,1.995-.141Zm-6.981.5-1.995.142-.083-.854,1.995-.141Zm-6.981.5-1.995.142-.083-.854,1.995-.141Zm-6.981.5-1.995.142-.083-.854,1.995-.141Zm-6.981.5-1.995.142-.083-.854,1.995-.141Zm-6.981.5-1.995.142-.083-.854,1.995-.141Zm-6.981.5-1.995.142-.083-.854,1.995-.141Zm-6.981.5-1.995.142-.082-.854,1.995-.141Zm-6.981.5-1.995.142-.083-.854,1.995-.141Zm-6.981.5-1.995.142-.083-.854,1.995-.141Zm-6.981.5-1.995.142-.083-.854,1.995-.141Zm-6.982.5-1.995.142-.083-.854,1.995-.141Zm-6.981.5-1.995.142-.083-.854,1.995-.141Zm-6.982.5-1.994.142-.083-.854,1.995-.141Zm-6.981.5-1.995.142-.083-.854,1.995-.141Zm-6.981.5-1.995.142-.082-.854,1.995-.141Zm-6.982.5-1.995.142-.083-.854,1.995-.141Zm-6.982.5-1.995.142-.083-.854,1.995-.141Zm-6.981.5-1.995.142-.083-.854,1.995-.141Zm-6.981.5-1.995.142-.082-.854,1.995-.141Zm-6.981.5-1.995.142-.083-.854,1.995-.142Zm-6.981.5-1.995.142-.083-.854,1.995-.141Zm-6.981.5-1.995.142-.083-.854,1.995-.141Zm-6.981.5-1.995.142-.083-.854,1.995-.141Zm-6.981.5-1.995.142-.082-.854,1.995-.141Zm-6.981.5-1.995.142-.083-.854,1.995-.141Zm-6.981.5-1.995.142-.083-.854,1.995-.141Zm-6.981.5-1.995.142-.082-.854,1.995-.141Zm-6.982.5-1.995.142-.083-.854,1.995-.142Zm-6.981.5-1.994.142-.083-.854,1.995-.141Zm-6.981.5-1.995.142-.082-.854,1.995-.141Zm-6.982.5-1.995.142-.083-.854,1.995-.141Zm-6.981.5-1.995.141-.083-.854,1.995-.141Zm-6.981.5-1.995.142-.083-.854,1.995-.141Zm-6.982.5-1.995.142-.083-.854,1.995-.141Zm-6.981.5-1.995.142-.082-.854,1.994-.142Zm-6.981.5-1.995.142-.083-.854,1.995-.141Zm-6.981.5-1.995.142-.083-.854,1.995-.141Zm-6.981.5-1.995.142-.082-.854,1.995-.141Zm-6.982.5-1.995.141-.083-.854,1.995-.141Zm-6.981.5-1.995.142-.083-.854,1.995-.141Zm-6.981.5-1.995.142-.082-.854,1.994-.141Zm-6.982.5-1.995.142-.083-.854,1.995-.141Zm-6.981.5-1.995.141-.083-.854,1.995-.141Zm-6.981.5-1.995.141-.082-.854,1.995-.141Zm-6.981.5-1.995.141-.083-.854,1.995-.141Zm-6.981.5-1.995.141-.082-.854,1.995-.141Zm-6.981.5-1.995.141-.083-.854,1.995-.141Zm-6.982.5-1.995.141-.083-.854,1.995-.141Zm-6.981.5-1.995.141-.082-.854,1.995-.141Zm-6.981.5-1.995.141-.083-.854,1.995-.141Zm-6.982.5-1.995.142-.083-.854,1.995-.141Zm-6.981.5-1.995.141-.083-.854,1.995-.141Zm-6.981.5-1.995.142-.082-.854,1.995-.141Zm-6.982.5-1.995.142-.083-.854,1.995-.141Zm-6.981.5-1.995.142-.083-.854,1.995-.141Zm-6.981.5-1.995.142-.082-.854,1.995-.141Zm-6.981.5-1.995.142-.083-.854,1.995-.141Zm-6.981.5-1.995.142-.083-.854,1.995-.141Zm-6.981.5-1.995.142-.082-.854,1.995-.141Zm-6.981.5-1.995.141-.083-.854,1.995-.141Zm-6.981.5-1.995.141-.082-.854,1.995-.141Zm-6.981.5-1.995.141-.083-.854,1.995-.142Zm-6.981.5-1.995.141-.083-.854,1.995-.141Zm-6.981.5-1.995.141-.082-.854,1.995-.141Zm-6.981.5-1.995.141-.083-.854,1.995-.142Zm-6.981.5-1.995.141-.083-.854,1.995-.142Z" transform="translate(-19.062 -419.652)" fill="#b8d4f8"/>
        <path id="Trazado_878343" data-name="Trazado 878343" d="M869.295,874.61l-1.995.141-.083-.854,1.995-.141Zm-6.981.5-1.995.141-.082-.854,1.995-.142Zm-6.981.5-1.995.141-.083-.854,1.995-.142Zm-6.981.5-1.995.141-.083-.854,1.994-.142Zm-6.981.5-1.995.141-.082-.854,1.995-.141Zm-6.981.5-1.995.142-.083-.854,1.995-.142Zm-6.981.5-1.994.142-.083-.854,1.994-.142Zm-6.981.5-1.995.141-.082-.854,1.994-.141Zm-6.982.5-1.995.141-.083-.854,1.995-.142Zm-6.981.5-1.995.141-.082-.854,1.995-.142Zm-6.981.5-1.995.141-.083-.854,1.995-.141Zm-6.982.5-1.994.141-.083-.854,1.995-.142Zm-6.981.5-1.995.141-.082-.854,1.995-.142Zm-6.981.5-1.995.141-.083-.854,1.995-.142Zm-6.981.5-1.995.141-.083-.854,1.994-.141Zm-6.981.5-1.995.141-.082-.854,1.995-.142Zm-6.981.5-1.994.141-.083-.854,1.995-.142Zm-6.981.5-1.995.141-.082-.854,1.995-.142Zm-6.981.5-1.995.141-.083-.854,1.995-.142Zm-6.982.5-1.995.141-.083-.854,1.995-.142Zm-6.981.5-1.995.141-.083-.854,1.995-.142Zm-6.981.5-1.995.142-.083-.854,1.995-.142Zm-6.982.5-1.995.141-.083-.854,1.994-.142Zm-6.981.5-1.995.141-.083-.854,1.995-.142Zm-6.981.5-1.995.141-.083-.854,1.995-.142Zm-6.981.5-1.995.141-.083-.854,1.995-.142Zm-6.981.5-1.995.141-.082-.854,1.995-.142Zm-6.981.5-1.995.141-.083-.854,1.995-.142Zm-6.981.495-1.995.142-.083-.854,1.995-.142Zm-6.981.5-1.995.142-.083-.854,1.995-.142Zm-6.982.5-1.994.141-.083-.854,1.995-.142Zm-6.981.5-1.995.142-.083-.854,1.995-.142Zm-6.981.5-1.995.142-.083-.854,1.995-.142Zm-6.981.5-1.995.142-.083-.854,1.995-.142Zm-6.981.5-1.995.141-.082-.854,1.995-.142Zm-6.981.5-1.995.142-.083-.854,1.995-.142Zm-6.981.5-1.995.142-.083-.854,1.995-.141Zm-6.981.5-1.995.141-.082-.854,1.995-.142Zm-6.981.5-1.994.142-.083-.854,1.995-.142Zm-6.981.5-1.995.142-.083-.854,1.995-.142Zm-6.981.5-1.995.141-.083-.854,1.995-.142Zm-6.982.5-1.994.142-.083-.854,1.995-.142Zm-6.981.5-1.995.142L574,894.7,576,894.56Zm-6.981.5-1.995.142-.083-.854,1.995-.142Zm-6.981.5-1.995.142-.082-.854,1.995-.141Zm-6.981.5-1.995.142-.083-.854,1.995-.142Zm-6.981.5-1.995.142-.083-.854,1.994-.142Zm-6.981.5-1.995.142-.083-.854,1.995-.141Zm-6.982.5-1.995.142-.083-.854,1.995-.141Zm-6.981.5-1.995.142-.082-.854,1.995-.142Zm-6.981.5-1.995.142-.083-.854,1.995-.141Zm-6.982.5-1.995.142-.083-.854,1.995-.141Zm-6.981.5-1.995.142-.083-.854,1.994-.141Zm-6.981.5-1.994.142-.083-.854,1.995-.141Zm-6.981.5-1.995.142-.083-.854,1.994-.142Zm-6.981.5-1.995.142-.082-.854,1.995-.142Zm-6.981.5-1.995.142-.083-.854,1.995-.142Zm-6.981.5-1.995.142-.082-.854,1.995-.141Zm-6.981.5-1.995.142-.083-.854,1.995-.141Zm-6.982.5-1.995.142-.083-.854,1.995-.141Zm-6.981.5-1.995.142-.082-.854,1.995-.141Zm-6.981.5-1.995.142-.083-.854,1.995-.141Zm-6.981.5-1.994.142-.083-.854,1.994-.141Zm-6.981.5-1.995.142-.082-.854,1.995-.141Zm-6.982.5-1.995.142-.083-.854,1.995-.141Zm-6.981.5-1.994.142-.083-.854,1.995-.141Zm-6.981.5-1.995.142-.082-.854,1.995-.141Zm-6.982.5-1.995.141-.083-.854,1.995-.141Zm-6.982.5-1.995.142-.083-.854,1.995-.141Zm-6.981.5-1.995.142-.083-.854,1.995-.142Zm-6.981.5-1.995.142-.082-.854,1.995-.141Zm-6.982.5-1.995.142-.083-.854,1.995-.141Zm-6.981.5-1.995.142-.083-.854,1.994-.141Zm-6.981.5-1.995.142-.082-.854,1.995-.141Zm-6.981.5-1.995.142-.083-.854,1.995-.141Zm-6.981.5-1.995.142-.083-.854,1.995-.141Zm-6.981.5-1.995.142-.083-.854,1.995-.141Zm-6.981.5-1.995.142-.083-.854,1.995-.141Zm-6.981.5-1.995.142-.082-.854,1.995-.141Zm-6.982.5-1.995.142-.083-.854,1.995-.141Zm-6.981.5-1.995.142-.083-.854,1.995-.141Zm-6.981.5-1.995.142-.082-.854,1.995-.141Zm-6.982.5-1.995.142-.083-.854,1.995-.141Zm-6.981.5-1.995.142-.083-.854,1.995-.142Zm-6.981.5-1.995.141-.083-.854,1.995-.142Zm-6.981.5-1.995.142-.083-.854,1.995-.141Zm-6.981.5-1.995.142-.082-.854,1.995-.141Zm-6.982.5-1.995.141-.083-.854,1.995-.141Zm-6.981.5-1.995.141-.083-.854,1.995-.141Zm-6.981.5-1.995.142-.082-.854,1.995-.141Zm-6.982.5-1.995.141-.083-.854,1.995-.141Zm-6.981.5-1.995.141-.083-.854,1.995-.141Zm-6.981.5-1.995.142-.082-.854,1.995-.141Zm-6.982.5-1.995.141-.083-.854,1.995-.141Zm-6.981.5-1.995.141-.082-.854,1.995-.141Zm-6.981.5-1.995.141-.082-.854,1.995-.141Zm-6.981.5-1.995.141-.083-.854,1.995-.141Zm-6.981.5-1.995.141-.082-.854,1.995-.141Zm-6.981.5-1.995.141-.083-.854,1.995-.141Zm-6.981.5-1.995.141-.083-.854,1.995-.141Zm-6.981.5-1.995.141-.082-.854,1.995-.141Zm-6.982.5-1.995.141-.083-.854,1.995-.141Zm-6.982.5-1.995.142-.083-.854,1.995-.141Zm-6.981.5-1.995.141-.083-.854,1.995-.141Zm-6.981.5-1.995.141-.082-.854,1.995-.141Zm-6.982.5-1.995.142-.083-.854,1.995-.141Zm-6.981.5-1.995.141-.083-.854,1.995-.141Zm-6.981.5-1.995.141-.083-.854,1.995-.141Zm-6.981.5-1.995.141-.083-.854,1.995-.141Zm-6.981.5-1.995.142-.082-.854,1.995-.141Zm-6.981.5-1.995.141-.083-.854,1.995-.141Zm-6.981.5-1.995.141-.083-.854,1.995-.142Zm-6.981.5-1.995.142-.082-.854,1.995-.141Zm-6.982.5-1.995.142-.083-.854,1.995-.141Zm-6.981.5-1.995.142-.083-.854,1.995-.141Zm-6.981.5-1.995.141-.082-.854,1.995-.141Zm-6.981.5-1.995.141-.083-.854,1.995-.141Zm-6.981.5-1.995.141-.083-.854,1.995-.141Z" transform="translate(-38.123 -643.657)" fill="#b8d4f8"/>
        <path id="Trazado_878344" data-name="Trazado 878344" d="M894.5,1178.7l-1.994.141-.083-.854,1.995-.142Zm-6.981.5-1.994.141-.083-.854,1.995-.141Zm-6.981.5-1.995.142-.083-.854,1.995-.141Zm-6.981.5-1.995.141-.083-.854,1.995-.142Zm-6.981.5-1.995.141-.082-.854,1.994-.141Zm-6.982.5-1.994.141-.083-.854,1.995-.141Zm-6.981.5-1.995.142-.083-.854,1.995-.141Zm-6.981.5-1.995.141-.082-.854,1.995-.142Zm-6.982.5-1.995.141-.083-.854,1.995-.141Zm-6.981.5-1.995.141-.083-.854,1.995-.142Zm-6.981.5-1.995.141-.083-.854,1.995-.142Zm-6.981.5-1.995.141-.082-.854,1.994-.142Zm-6.981.5-1.995.141-.083-.854,1.995-.141Zm-6.981.5-1.995.141-.083-.854,1.995-.142Zm-6.982.5-1.995.141-.083-.854,1.995-.142Zm-6.981.5-1.995.141-.082-.854,1.995-.142Zm-6.982.5-1.995.141-.083-.854,1.995-.142Zm-6.981.5-1.994.141-.083-.854,1.995-.142Zm-6.981.5-1.995.141-.083-.854,1.995-.142Zm-6.982.5-1.995.141-.082-.854,1.995-.142Zm-6.981.5-1.994.141-.083-.854,1.995-.142Zm-6.981.5-1.995.142-.083-.854,1.995-.141Zm-6.981.5-1.995.141-.083-.854,1.995-.142Zm-6.982.495-1.995.142-.082-.854,1.994-.141Zm-6.982.5-1.994.141-.083-.854,1.995-.142Zm-6.981.5-1.995.142-.083-.854,1.995-.142Zm-6.981.5-1.995.142-.083-.854,1.995-.142Zm-6.981.5-1.995.141-.083-.854,1.995-.142Zm-6.982.5-1.994.141-.083-.854,1.995-.142Zm-6.981.5-1.995.141-.082-.854,1.995-.142Zm-6.982.495-1.994.142-.083-.854,1.995-.142Zm-6.981.5-1.995.141-.083-.854,1.995-.142Zm-6.981.5-1.995.142-.083-.854,1.995-.141Zm-6.982.5-1.994.142-.083-.854,1.995-.142Zm-6.981.5-1.995.141-.083-.854,1.995-.142Zm-6.982.495-1.995.142-.083-.854,1.995-.142Zm-6.981.5-1.995.142-.083-.854,1.995-.142Zm-6.981.5-1.995.142-.083-.854,1.995-.142Zm-6.982.5-1.995.142-.083-.854,1.995-.142Zm-6.981.5-1.995.141-.083-.854,1.995-.142Zm-6.981.5-1.995.142-.082-.854,1.994-.142Zm-6.982.5-1.995.141-.083-.854,1.995-.142Zm-6.981.5-1.995.142-.083-.854,1.995-.142Zm-6.981.5-1.995.142-.083-.854,1.995-.142Zm-6.981.5-1.995.141-.082-.854,1.994-.142Zm-6.982.5-1.995.141-.083-.854,1.995-.141Zm-6.981.5-1.995.142-.083-.854,1.995-.142Zm-6.981.5-1.995.142-.082-.854,1.995-.141Zm-6.982.5-1.994.142-.083-.854,1.995-.141Zm-6.981.5-1.995.142-.083-.854,1.995-.141Zm-6.981.5-1.995.141-.083-.854,1.995-.141Zm-6.981.5-1.995.142-.083-.854,1.995-.141Zm-6.981.5-1.994.142-.083-.854,1.995-.141Zm-6.981.5-1.995.142-.083-.854,1.995-.141Zm-6.982.5-1.995.141-.083-.854,1.995-.141Zm-6.981.5-1.995.142-.082-.854,1.994-.142Zm-6.981.5-1.995.142-.083-.854,1.995-.141Zm-6.982.5-1.995.142-.083-.854,1.994-.141Zm-6.981.5-1.995.142-.082-.854,1.995-.141Zm-6.982.5-1.995.142-.083-.854,1.995-.142Zm-6.981.5-1.995.142-.083-.854,1.995-.141Zm-6.981.5-1.995.142-.083-.854,1.995-.141Zm-6.982.5-1.995.142-.083-.854,1.995-.141Zm-6.981.5-1.995.141-.082-.854,1.995-.141Zm-6.981.5-1.995.142-.083-.854,1.995-.141Zm-6.981.5-1.995.141-.083-.854,1.994-.141Zm-6.981.5-1.995.142-.082-.854,1.995-.141Zm-6.982.5-1.995.141-.083-.854,1.995-.141Zm-6.982.5-1.995.142-.083-.854,1.995-.141Zm-6.981.5-1.995.141-.083-.854,1.995-.141Zm-6.981.5-1.995.141-.082-.854,1.995-.142Zm-6.982.5-1.995.142-.083-.854,1.995-.142Zm-6.981.5-1.995.142-.083-.854,1.995-.142Zm-6.981.5-1.995.142-.082-.854,1.994-.141Zm-6.981.5-1.995.142-.083-.854,1.995-.141Zm-6.981.5-1.995.142-.083-.854,1.995-.141Zm-6.981.5-1.995.142-.083-.854,1.995-.141Zm-6.982.5-1.994.142-.083-.854,1.995-.141Zm-6.981.5-1.995.141-.082-.854,1.995-.141Zm-6.982.5-1.995.142-.083-.854,1.995-.141Zm-6.981.5-1.995.141-.083-.854,1.995-.141Zm-6.981.5-1.995.142-.082-.854,1.995-.142Zm-6.981.5-1.995.142-.083-.854,1.995-.142Zm-6.981.5-1.995.142-.083-.854,1.995-.141Zm-6.981.5-1.995.142-.082-.854,1.995-.141Zm-6.982.5-1.995.141-.083-.854,1.995-.142Zm-6.981.5-1.995.141-.082-.854,1.995-.141Zm-6.981.495-1.995.142-.083-.854,1.995-.141Zm-6.981.5-1.995.142-.083-.854,1.995-.141Zm-6.981.5-1.995.142-.082-.854,1.995-.141Zm-6.981.5-1.995.142-.083-.854,1.995-.141Zm-6.981.5-1.995.141-.083-.854,1.995-.141Zm-6.981.5-1.995.141-.082-.854,1.995-.141Zm-6.982.5-1.995.141-.083-.854,1.995-.141Zm-6.981.5-1.995.141-.083-.854,1.995-.141Zm-6.981.5-1.995.141-.082-.853,1.995-.142Zm-6.982.5-1.994.141-.083-.854,1.995-.141Zm-6.981.5-1.995.141-.082-.854,1.995-.141Zm-6.981.5-1.995.141-.083-.854,1.995-.141Zm-6.981.5-1.995.142-.083-.854,1.995-.141Zm-6.981.5-1.995.142-.082-.854,1.995-.141Zm-6.981.5-1.995.141-.083-.854,1.995-.141Zm-6.982.5-1.995.142-.083-.854,1.995-.141Zm-6.981.5-1.995.142-.083-.854,1.995-.141Zm-6.981.5-1.995.142-.082-.854,1.995-.141Zm-6.982.5-1.995.142-.083-.854,1.995-.141Zm-6.981.5-1.995.141-.083-.854,1.995-.141Zm-6.981.5-1.995.142-.082-.854,1.995-.141Zm-6.982.5-1.995.142-.083-.854,1.995-.141Zm-6.981.5-1.995.141-.083-.854,1.995-.141Zm-6.981.5-1.995.141-.083-.854,1.995-.142Zm-6.982.5-1.995.141-.083-.854,1.995-.142Zm-6.981.5-1.995.142-.082-.854,1.995-.141Zm-6.981.5-1.995.141-.083-.854,1.995-.141Zm-6.981.5-1.995.141-.083-.854,1.995-.141Zm-6.981.5-1.995.141-.082-.854,1.995-.142Zm-6.981.5-1.995.141-.083-.854,1.995-.141Zm-6.981.5-1.995.141-.083-.854,1.995-.141Z" transform="translate(-57.185 -867.664)" fill="#b8d4f8"/>
        <path id="Trazado_878345" data-name="Trazado 878345" d="M100.81,1540.02l.083.854,1.995-.142-.083-.854Zm6.981-.5.083.854,1.995-.141-.083-.854Zm6.981-.5.083.854,1.995-.141-.083-.854Zm6.981-.5.082.854,1.995-.141-.083-.854Zm6.981-.5.082.854,1.995-.141-.083-.854Zm6.981-.5.082.854,1.995-.142-.082-.854Zm6.981-.5.082.854,1.995-.141-.082-.854Zm6.981-.5.082.854,1.995-.141-.083-.854Zm6.981-.5.083.854,1.995-.141-.082-.854Zm6.981-.5.083.854,1.994-.141-.082-.854Zm6.981-.5.083.854,1.995-.142-.083-.854Zm6.981-.5.083.854,1.995-.141-.083-.854Zm6.981-.495.083.854,1.995-.141-.083-.854Zm6.981-.5.083.854,1.995-.142-.083-.854Zm6.981-.495.083.854,1.995-.141-.083-.854Zm6.981-.5.083.854,1.995-.141-.083-.854Zm6.982-.5.083.854,1.995-.141-.083-.854Zm6.981-.5.083.854,1.995-.141-.083-.854Zm6.981-.5.083.854,1.995-.142-.083-.854Zm6.981-.5.083.854,1.995-.141-.083-.854Zm6.981-.5.082.854,1.995-.142-.083-.854Zm6.981-.5.082.854,1.995-.141-.083-.854Zm6.981-.5.082.854,1.995-.141-.082-.854Zm6.981-.5.083.854,1.995-.141-.082-.854Zm6.982-.5.082.854,1.995-.141-.082-.854Zm6.981-.5.083.854,1.995-.142-.083-.854Zm6.981-.5.083.854,1.995-.141-.082-.854Zm6.981-.5.083.854,1.995-.141-.083-.854Zm6.981-.5.083.854,1.995-.142-.083-.854Zm6.981-.5.083.854,1.995-.142-.083-.854Zm6.982-.5.083.854,1.995-.142-.083-.854Zm6.981-.5.083.854,1.995-.141-.083-.854Zm6.981-.5.083.854,1.995-.141-.083-.854Zm6.981-.5.083.854,1.995-.142-.083-.854Zm6.982-.5.082.854,1.994-.141-.083-.854Zm6.981-.5.082.854,1.995-.142-.083-.854Zm6.981-.5.082.854,1.995-.141-.082-.854Zm6.981-.5.082.854,1.995-.141-.082-.854Zm6.981-.5.082.854,1.995-.141-.083-.854Zm6.981-.5.083.854,1.995-.142-.082-.854Zm6.982-.5.083.854,1.994-.142-.082-.854Zm6.981-.5.083.854,1.995-.141-.083-.854Zm6.981-.5.083.854,1.995-.141-.082-.854Zm6.981-.5.083.854,1.995-.142-.083-.854Zm6.981-.5.083.854,1.995-.142-.083-.854Zm6.981-.5.083.854,1.995-.142-.083-.854Zm6.981-.5.083.854,1.995-.142-.083-.854Zm6.981-.5.083.854,1.994-.141-.083-.854Zm6.981-.5.082.854,1.995-.141-.083-.854Zm6.981-.5.082.854,1.995-.141-.082-.854Zm6.982-.5.083.854,1.995-.141-.083-.854Zm6.981-.5.083.854,1.994-.141-.083-.854Zm6.982-.5.082.854,1.995-.141-.082-.854Zm6.981-.5.083.854,1.995-.141-.082-.854Zm6.981-.5.083.854,1.995-.141-.082-.854Zm6.981-.5.083.854,1.995-.141-.083-.854Zm6.981-.5.082.854,1.995-.141-.083-.854Zm6.981-.5.083.854,1.994-.141-.082-.854Zm6.982-.5.083.854L507.8,1512l-.083-.854Zm6.981-.5.083.854,1.995-.142-.083-.854Zm6.981-.5.083.854,1.995-.141-.083-.854Zm6.981-.5.083.854,1.995-.142-.083-.854Zm6.982-.5.083.854,1.995-.141-.083-.854Zm6.981-.5.083.854,1.995-.141-.083-.854Zm6.981-.5.083.854,1.995-.141-.083-.854Zm6.981-.5.083.854,1.994-.141-.083-.854Zm6.982-.5.082.854,1.995-.141-.083-.854Zm6.981-.5.082.854,1.995-.141-.082-.854Zm6.981-.5.083.854,1.995-.141-.082-.854Zm6.982-.5.082.854,1.995-.142-.082-.854Zm6.981-.5.082.854,1.995-.141-.082-.854Zm6.981-.5.083.854,1.995-.142-.082-.854Zm6.981-.5.083.854,1.995-.141-.083-.854Zm6.981-.5.083.854,1.995-.141-.083-.854Zm6.981-.5.083.854,1.995-.142-.083-.854Zm6.982-.5.083.854,1.995-.141-.083-.854Zm6.981-.5.082.854,1.995-.141-.083-.854Zm6.981-.5.083.854,1.995-.141-.082-.854Zm6.982-.5.082.854,1.995-.141-.082-.854Zm6.981-.5.082.854,1.995-.141-.083-.854Zm6.981-.5.083.854,1.995-.141-.082-.854Zm6.981-.5.083.854,1.994-.141-.082-.854Zm6.982-.5.082.854,1.995-.141-.082-.854Zm6.981-.5.083.854,1.995-.141-.082-.854Zm6.981-.5.083.854,1.995-.142-.083-.854Zm6.981-.5.083.854,1.995-.142-.083-.854Zm6.981-.5.083.854,1.995-.142-.083-.854Zm6.981-.5.083.854,1.995-.141-.083-.854Zm6.981-.5.083.854,1.995-.141-.083-.854Zm6.981-.5.083.854,1.995-.141-.083-.854Zm6.981-.5.083.854,1.995-.141-.083-.854Zm6.982-.5.082.854,1.995-.142-.083-.854Zm6.981-.5.082.854,1.995-.141-.082-.854Zm6.981-.5.082.854,1.995-.141-.083-.854Zm6.981-.5.082.854,1.995-.141-.082-.854Zm6.981-.5.083.854,1.995-.142-.083-.854Zm6.981-.5.082.854,1.995-.141-.082-.854Zm6.981-.5.083.854,1.995-.141-.083-.854Zm6.981-.5.083.854,1.995-.141-.083-.854Zm6.981-.5.083.854,1.995-.141-.083-.854Zm6.981-.5.083.854,1.995-.142-.083-.854Zm6.981-.5.083.854L808,1490.7l-.083-.854Zm6.982-.5.083.854,1.994-.142-.083-.854Zm6.981-.5.083.854,1.995-.141-.083-.854Zm6.981-.5.083.854,1.995-.141-.083-.854Zm6.981-.5.083.854,1.995-.142-.082-.854Zm6.981-.5.083.854,1.994-.142-.082-.854Zm6.981-.5.083.854,1.995-.141-.083-.854Zm6.981-.5.083.854,1.995-.142-.083-.854Zm6.982-.5.082.854,1.994-.142-.082-.854Zm6.981-.5.083.854,1.994-.142-.082-.854Zm6.981-.5.083.854,1.995-.142-.083-.854Zm6.981-.5.083.854,1.995-.142-.083-.854Zm6.981-.5.083.854,1.994-.142-.083-.854Zm6.981-.5.083.854,1.995-.142-.083-.854Zm6.981-.5.083.854,1.995-.142-.083-.854Zm6.981-.5.083.854,1.995-.141-.083-.854Zm6.981-.5.083.854,1.995-.142-.083-.854Z" transform="translate(-76.246 -1091.667)" fill="#b8d4f8"/>
      </g>
      <path id="Trazado_878346" data-name="Trazado 878346" d="M869.1,1063.867a.91.91,0,0,1-.261-1q.428-1.2.863-2.409a.786.786,0,0,1,1.04-.493.892.892,0,0,1,.456,1.124q-.434,1.2-.861,2.4a.786.786,0,0,1-1.037.5.8.8,0,0,1-.2-.122m2.327-6.4a.911.911,0,0,1-.256-1.013q.447-1.2.9-2.394a.782.782,0,0,1,1.048-.47.892.892,0,0,1,.435,1.133q-.455,1.189-.9,2.38a.772.772,0,0,1-1.232.364m2.448-6.345a.911.911,0,0,1-.248-1.032q.476-1.188.964-2.369a.779.779,0,0,1,1.06-.438.9.9,0,0,1,.405,1.146q-.485,1.172-.956,2.35a.781.781,0,0,1-1.055.452.806.806,0,0,1-.169-.108m2.622-6.262a.913.913,0,0,1-.237-1.06q.515-1.17,1.044-2.332a.776.776,0,0,1,1.075-.394.9.9,0,0,1,.364,1.162q-.524,1.148-1.033,2.308a.771.771,0,0,1-1.214.317m2.847-6.144a.913.913,0,0,1-.22-1.095q.563-1.146,1.145-2.28a.772.772,0,0,1,1.091-.336.9.9,0,0,1,.312,1.179q-.575,1.118-1.131,2.251a.769.769,0,0,1-1.2.281m3.129-5.981a.915.915,0,0,1-.2-1.137q.623-1.114,1.267-2.207a.768.768,0,0,1,1.109-.265.9.9,0,0,1,.246,1.2q-.635,1.076-1.247,2.173a.77.77,0,0,1-1.1.294c-.025-.017-.05-.035-.073-.054m3.465-5.758a.914.914,0,0,1-.169-1.187q.693-1.068,1.412-2.109a.765.765,0,0,1,1.123-.176l.007.006a.914.914,0,0,1,.155,1.208q-.7,1.02-1.384,2.067a.765.765,0,0,1-1.117.212l-.027-.022m3.857-5.461-.026-.023a.916.916,0,0,1-.1-1.221q.773-1,1.574-1.973a.76.76,0,0,1,1.133-.07.916.916,0,0,1,.064,1.224q-.783.949-1.538,1.928a.761.761,0,0,1-1.1.134m4.294-5.064a.854.854,0,0,1-.084-.08.917.917,0,0,1,.007-1.226q.86-.919,1.753-1.8a.76.76,0,0,1,1.133.056.918.918,0,0,1-.052,1.226q-.87.855-1.706,1.75a.759.759,0,0,1-1.051.073m4.756-4.553a.821.821,0,0,1-.143-.152.915.915,0,0,1,.133-1.218c.634-.541,1.285-1.071,1.933-1.574a.767.767,0,0,1,1.12.2.914.914,0,0,1-.183,1.211q-.954.742-1.876,1.528a.755.755,0,0,1-.984.008m5.217-3.923a.837.837,0,0,1-.2-.238.909.909,0,0,1,.269-1.192c.685-.45,1.391-.89,2.1-1.306a.77.77,0,0,1,1.089.347.9.9,0,0,1-.32,1.176c-.687.4-1.371.83-2.035,1.266a.754.754,0,0,1-.9-.052m61.776,46.886-.073-.061a13.555,13.555,0,0,1-1.8-1.779.917.917,0,0,1,.062-1.224.763.763,0,0,1,1.133.067,11.969,11.969,0,0,0,1.577,1.559l.073.06a.915.915,0,0,1,.15,1.216.764.764,0,0,1-1.125.162m3.416,2.179a.913.913,0,0,1-.238-1.057.778.778,0,0,1,1.068-.417c.664.337,1.384.662,2.139.967a.887.887,0,0,1,.472,1.115.787.787,0,0,1-1.032.51c-.8-.32-1.556-.664-2.26-1.021a.788.788,0,0,1-.147-.1m-7.106-7.615a.865.865,0,0,1-.285-.456,10.3,10.3,0,0,1-.315-2.8.8.8,0,1,1,1.6.04,8.471,8.471,0,0,0,.256,2.294.878.878,0,0,1-.558,1.068.753.753,0,0,1-.7-.147m13.115,9.819a.907.907,0,0,1-.3-.868.806.806,0,0,1,.951-.67,18.579,18.579,0,0,0,2.264.377.854.854,0,0,1,.725.943.822.822,0,0,1-.873.784,20.1,20.1,0,0,1-2.447-.406.778.778,0,0,1-.322-.16m-65.573-54.456a.856.856,0,0,1-.245-.336.9.9,0,0,1,.407-1.145c.734-.353,1.486-.691,2.236-1.006a.786.786,0,0,1,1.039.494.892.892,0,0,1-.458,1.123c-.726.3-1.454.632-2.165.974a.752.752,0,0,1-.814-.1m71.88,54.651a.895.895,0,0,1,.318-1.536,7.621,7.621,0,0,0,2.032-.785.774.774,0,0,1,1.084.363.9.9,0,0,1-.336,1.172,9.135,9.135,0,0,1-2.441.945.754.754,0,0,1-.658-.159m-18.851-16.728a.911.911,0,0,1-.256-1.013,20.062,20.062,0,0,1,1.1-2.42.771.771,0,0,1,1.1-.316.915.915,0,0,1,.293,1.186,18.216,18.216,0,0,0-1,2.2.783.783,0,0,1-1.045.479.774.774,0,0,1-.187-.116M915.644,1002.4a.867.867,0,0,1-.28-.437.88.88,0,0,1,.536-1.081c.76-.249,1.546-.484,2.335-.7a.8.8,0,0,1,.974.63.875.875,0,0,1-.582,1.053c-.764.207-1.525.435-2.262.676a.754.754,0,0,1-.721-.142m71.054,53.3a.915.915,0,0,1-.182-1.165,10.476,10.476,0,0,0,.967-2.123.788.788,0,0,1,1.028-.521.887.887,0,0,1,.482,1.11,12.259,12.259,0,0,1-1.135,2.485.767.767,0,0,1-1.111.249c-.017-.012-.033-.024-.048-.036m-64.871-54.885a.878.878,0,0,1-.3-.538.865.865,0,0,1,.651-1.005q1.176-.223,2.389-.4a.816.816,0,0,1,.9.744.859.859,0,0,1-.689.975q-1.178.17-2.323.388a.755.755,0,0,1-.628-.166m44.223,36.07a.271.271,0,0,1-.022-.019.915.915,0,0,1-.111-1.22c.5-.656,1.042-1.321,1.617-1.977a.757.757,0,0,1,1.134-.032.918.918,0,0,1,.031,1.226c-.549.626-1.068,1.26-1.542,1.884a.763.763,0,0,1-1.108.139m-37.909-36.856a.888.888,0,0,1-.314-.637.846.846,0,0,1,.753-.917q1.2-.079,2.408-.117a.833.833,0,0,1,.826.842.842.842,0,0,1-.779.893q-1.182.037-2.358.113a.756.756,0,0,1-.536-.177m60.418,49.175a.9.9,0,0,1-.313-.764c.063-.785.088-1.622.072-2.486a.8.8,0,1,1,1.6-.032c.016.924-.01,1.822-.078,2.667a.824.824,0,0,1-.869.79.774.774,0,0,1-.418-.175M970.5,1031.988a.821.821,0,0,1-.118-.12.916.916,0,0,1,.078-1.223c.6-.563,1.227-1.126,1.867-1.672a.76.76,0,0,1,1.127.144.915.915,0,0,1-.133,1.218c-.619.529-1.227,1.072-1.806,1.618a.757.757,0,0,1-1.015.035m-36-32.09a.9.9,0,0,1-.316-.708.834.834,0,0,1,.819-.849q1.205.027,2.41.1a.845.845,0,0,1,.758.912.828.828,0,0,1-.844.82q-1.178-.068-2.358-.1a.762.762,0,0,1-.47-.178m53.777,42.453a.883.883,0,0,1-.305-.557c-.115-.81-.261-1.644-.432-2.478a.871.871,0,0,1,.61-1.035.8.8,0,0,1,.958.659c.179.872.331,1.743.452,2.589a.861.861,0,0,1-.671.99.756.756,0,0,1-.61-.168m-47.431-42.016a.9.9,0,0,1-.311-.782.82.82,0,0,1,.884-.77q1.2.138,2.391.318a.858.858,0,0,1,.684.979.815.815,0,0,1-.906.739q-1.168-.176-2.341-.311a.767.767,0,0,1-.4-.173m34.708,27.476a.836.836,0,0,1-.178-.2.911.911,0,0,1,.218-1.2q1.015-.738,2.038-1.413a.771.771,0,0,1,1.1.288.909.909,0,0,1-.267,1.193c-.66.436-1.322.894-1.978,1.371a.755.755,0,0,1-.936-.031m11.22,7.865a.862.862,0,0,1-.273-.416c-.248-.805-.517-1.6-.8-2.372a.892.892,0,0,1,.446-1.128.782.782,0,0,1,1.044.482c.3.8.579,1.633.835,2.472a.885.885,0,0,1-.508,1.1.756.756,0,0,1-.741-.135m-39.642-34.318a.9.9,0,0,1-.3-.858.808.808,0,0,1,.943-.683q1.183.254,2.356.548a.872.872,0,0,1,.6,1.041.8.8,0,0,1-.964.648q-1.147-.288-2.3-.535a.782.782,0,0,1-.331-.162m37.134,28.008a.859.859,0,0,1-.213-.266l-.089-.176c-.341-.709-.692-1.4-1.055-2.067a.907.907,0,0,1,.288-1.186.769.769,0,0,1,1.1.313c.378.7.744,1.417,1.088,2.131l.072.14a.905.905,0,0,1-.31,1.18.754.754,0,0,1-.879-.069M953.3,1003a.908.908,0,0,1-.281-.937.8.8,0,0,1,1-.583q1.158.372,2.3.792a.883.883,0,0,1,.5,1.1.79.79,0,0,1-1.018.543q-1.112-.409-2.242-.772a.777.777,0,0,1-.259-.142m27.731,21.328a.859.859,0,0,1-.229-.3.93.93,0,0,1-.02-.735c-.45-.688-.919-1.364-1.392-2.01a.916.916,0,0,1,.132-1.219.765.765,0,0,1,1.127.142c.495.676.984,1.382,1.455,2.1.009.014.018.028.026.043.416-.213.829-.414,1.232-.6a.783.783,0,0,1,1.055.454.9.9,0,0,1-.42,1.14c-.687.319-1.4.68-2.117,1.07a.754.754,0,0,1-.849-.086m-21.742-19.035a.912.912,0,0,1-.254-1.02.782.782,0,0,1,1.048-.469q1.118.5,2.215,1.048a.9.9,0,0,1,.39,1.153.778.778,0,0,1-1.065.422q-1.064-.535-2.152-1.02a.775.775,0,0,1-.181-.113m17.647,12.894a.8.8,0,0,1-.1-.094c-.535-.613-1.091-1.218-1.652-1.8a.917.917,0,0,1-.025-1.226.767.767,0,0,1,1.135-.028c.58.6,1.156,1.226,1.709,1.86a.918.918,0,0,1-.033,1.226.758.758,0,0,1-1.038.059m-11.921-9.917a.914.914,0,0,1-.214-1.108.773.773,0,0,1,1.091-.34c.7.418,1.4.862,2.091,1.319a.908.908,0,0,1,.263,1.194.769.769,0,0,1-1.1.285c-.667-.444-1.349-.874-2.027-1.278a.873.873,0,0,1-.1-.071m7.253,5.256-.016-.013q-.915-.8-1.862-1.543a.934.934,0,0,1-.174-1.212.764.764,0,0,1,1.121-.189q.978.772,1.923,1.593a.915.915,0,0,1,.121,1.219.762.762,0,0,1-1.112.145m14.669,8.278a.867.867,0,0,1-.288-.469.876.876,0,0,1,.573-1.059c.165-.046.328-.09.489-.131q.957-.239,1.891-.435a.809.809,0,0,1,.941.686.869.869,0,0,1-.635,1.017q-.907.19-1.832.421-.218.055-.446.12a.757.757,0,0,1-.692-.15m6.257-1.2a.885.885,0,0,1-.311-.6.854.854,0,0,1,.712-.955c.8-.093,1.618-.164,2.418-.21a.826.826,0,0,1,.844.82.845.845,0,0,1-.758.912c-.772.044-1.557.112-2.332.2a.758.758,0,0,1-.573-.173m6.346-.224a.9.9,0,0,1-.315-.728.83.83,0,0,1,.837-.828c.805.038,1.621.1,2.426.2a.851.851,0,0,1,.714.954.821.821,0,0,1-.883.771c-.772-.088-1.555-.152-2.328-.189a.767.767,0,0,1-.451-.177m51.5,41.048a.879.879,0,0,1-.111-.111q-.794-.961-1.585-1.938a.918.918,0,0,1,.075-1.224.758.758,0,0,1,1.133.082q.785.969,1.574,1.924a.917.917,0,0,1-.063,1.225.758.758,0,0,1-1.022.043m-4.185-5.173a.809.809,0,0,1-.121-.124l-1.555-1.955a.917.917,0,0,1,.086-1.223.761.761,0,0,1,1.131.093l1.554,1.954a.916.916,0,0,1-.085,1.223.755.755,0,0,1-1.01.032m-41.018-35.008a.9.9,0,0,1-.3-.869.805.805,0,0,1,.951-.669c.787.179,1.582.391,2.364.626a.876.876,0,0,1,.558,1.068.8.8,0,0,1-.988.6c-.75-.226-1.513-.428-2.266-.6a.771.771,0,0,1-.321-.159m36.875,29.794a.84.84,0,0,1-.121-.124q-.777-.974-1.558-1.947a.916.916,0,0,1,.08-1.223.76.76,0,0,1,1.132.086q.783.973,1.562,1.952a.917.917,0,0,1-.084,1.223.756.756,0,0,1-1.011.032m-4.187-5.175a.883.883,0,0,1-.112-.112q-.791-.96-1.591-1.907a.917.917,0,0,1,.052-1.225.76.76,0,0,1,1.134.056q.806.954,1.6,1.921a.918.918,0,0,1-.065,1.225.757.757,0,0,1-1.021.042m-26.609-22.648a.909.909,0,0,1-.259-1,.785.785,0,0,1,1.039-.493c.744.313,1.5.658,2.237,1.023a.9.9,0,0,1,.4,1.15.779.779,0,0,1-1.063.429c-.713-.352-1.438-.683-2.154-.985a.787.787,0,0,1-.2-.12m22.3,17.593a.865.865,0,0,1-.092-.089q-.823-.927-1.656-1.833a.918.918,0,0,1,0-1.227.765.765,0,0,1,1.135,0q.844.917,1.676,1.856a.917.917,0,0,1-.023,1.226.758.758,0,0,1-1.042.063m-16.566-14.635a.914.914,0,0,1-.21-1.115.771.771,0,0,1,1.094-.327c.684.418,1.383.871,2.079,1.344a.908.908,0,0,1,.251,1.2.769.769,0,0,1-1.107.271c-.674-.459-1.351-.9-2.013-1.3a.764.764,0,0,1-.093-.066m12.042,9.8c-.02-.017-.04-.035-.06-.054q-.868-.873-1.751-1.717a.916.916,0,0,1-.07-1.224.751.751,0,0,1,1.133-.076q.9.858,1.782,1.747a.918.918,0,0,1,.04,1.226.759.759,0,0,1-1.074.1m-6.713-6.055a.915.915,0,0,1-.16-1.2.765.765,0,0,1,1.123-.186c.377.3.753.607,1.124.913q.4.33.8.671a.916.916,0,0,1,.131,1.218.762.762,0,0,1-1.128.141c-.286-.245-.572-.483-.863-.725q-.5-.417-1.011-.819l-.013-.011" transform="translate(-678.781 -536.081)" fill="#4e93ee"/>
      <path id="Trazado_878347" data-name="Trazado 878347" d="M263.352,24.073q-.767.846-1.56,1.672a.692.692,0,0,1-1.032-.02.841.841,0,0,1,.018-1.115q.778-.809,1.53-1.64a.692.692,0,0,1,1.032-.011.835.835,0,0,1,.023,1.1l-.012.013m1.47-2.826a.834.834,0,0,1-.062-1.113q.717-.873,1.4-1.765a.693.693,0,0,1,1.027-.1.833.833,0,0,1,.1,1.11q-.7.912-1.432,1.805l-.014.016a.691.691,0,0,1-1.016.051M259.1,28.426q-.82.784-1.661,1.55a.693.693,0,0,1-1.028-.095.83.83,0,0,1,.087-1.111q.827-.753,1.636-1.525a.692.692,0,0,1,1.03.069.837.837,0,0,1-.013,1.06.662.662,0,0,1-.051.053m9.421-12.007a.831.831,0,0,1-.156-1.1q.638-.939,1.238-1.9a.7.7,0,0,1,1.013-.212.828.828,0,0,1,.2,1.094q-.615.983-1.27,1.948a.849.849,0,0,1-.056.073.69.69,0,0,1-.964.1M254.6,32.461q-.864.729-1.742,1.438a.694.694,0,0,1-1.021-.16.829.829,0,0,1,.148-1.1q.867-.7,1.719-1.417a.694.694,0,0,1,1.024.137.838.838,0,0,1-.042,1.023.734.734,0,0,1-.085.083m-4.708,3.745q-.9.678-1.81,1.334a.7.7,0,0,1-1.012-.217.829.829,0,0,1,.2-1.093q.9-.65,1.788-1.318a.7.7,0,0,1,1.015.2.838.838,0,0,1-.066.988.716.716,0,0,1-.117.109m-4.88,3.476q-.932.629-1.867,1.237a.7.7,0,0,1-1-.269.824.824,0,0,1,.248-1.082q.926-.6,1.848-1.223a.7.7,0,0,1,1,.251.839.839,0,0,1-.085.956.737.737,0,0,1-.147.13m-5.021,3.22q-.958.584-1.916,1.144a.7.7,0,0,1-.989-.318.82.82,0,0,1,.294-1.068q.946-.554,1.9-1.131a.7.7,0,0,1,.993.3.838.838,0,0,1-.1.925.727.727,0,0,1-.175.149m-5.147,2.973q-.984.54-1.961,1.053a.706.706,0,0,1-.975-.364.819.819,0,0,1,.337-1.053q.965-.507,1.939-1.041a.7.7,0,0,1,.981.346.838.838,0,0,1-.118.9.742.742,0,0,1-.2.165m-5.273,2.718q-1,.478-2.013.936a.711.711,0,0,1-.954-.423A.813.813,0,0,1,227,48.075q1-.452,1.985-.922a.709.709,0,0,1,.962.4.837.837,0,0,1-.135.858.726.726,0,0,1-.238.182m-5.412,2.389q-1.026.413-2.063.8a.717.717,0,0,1-.929-.486.806.806,0,0,1,.449-1q1.021-.384,2.032-.792a.715.715,0,0,1,.939.462.838.838,0,0,1-.151.815.736.736,0,0,1-.277.2m-5.543,2.026q-1.051.345-2.11.66a.725.725,0,0,1-.9-.552.8.8,0,0,1,.51-.969q1.041-.309,2.074-.648a.721.721,0,0,1,.909.526.834.834,0,0,1-.165.767.719.719,0,0,1-.321.216m-5.659,1.625q-1.075.264-2.151.494a.733.733,0,0,1-.857-.62.788.788,0,0,1,.574-.926q1.055-.226,2.11-.484a.73.73,0,0,1,.873.594.832.832,0,0,1-.179.714.718.718,0,0,1-.371.23M207.2,55.8q-1.095.17-2.185.3a.746.746,0,0,1-.8-.7.777.777,0,0,1,.646-.869q1.065-.126,2.136-.292a.741.741,0,0,1,.825.669.829.829,0,0,1-.189.65.714.714,0,0,1-.429.242m-5.847.6q-1.1.049-2.206.053a.79.79,0,0,1-.006-1.576q1.074,0,2.151-.052a.754.754,0,0,1,.759.754.822.822,0,0,1-.2.571.706.706,0,0,1-.5.25m-5.875-.056q-1.1-.066-2.193-.172a.773.773,0,0,1-.663-.855.749.749,0,0,1,.791-.715q1.072.1,2.146.168a.768.768,0,0,1,.687.831.818.818,0,0,1-.195.494.7.7,0,0,1-.574.249m-5.83-.613q-1.085-.158-2.168-.345a.783.783,0,0,1-.606-.9.739.739,0,0,1,.835-.654q1.066.184,2.134.339a.78.78,0,0,1,.625.887.814.814,0,0,1-.19.433.7.7,0,0,1-.631.243M63.651,195.094a.833.833,0,0,1-.077-1.112q.5-.629.987-1.289.181-.245.353-.495a.7.7,0,0,1,1.021-.161.832.832,0,0,1,.148,1.1q-.187.27-.381.535-.5.683-1.022,1.334l-.021.025a.691.691,0,0,1-1.008.059m-1.515,2.815c-.54.559-1.094,1.1-1.649,1.607a.693.693,0,0,1-1.028-.093.833.833,0,0,1,.086-1.111c.532-.486,1.065-1,1.583-1.541a.691.691,0,0,1,1.031.025.835.835,0,0,1,.006,1.082c-.009.011-.019.022-.029.032m-4.6,4.029c-.619.453-1.252.885-1.882,1.282a.7.7,0,0,1-1-.284.825.825,0,0,1,.263-1.078c.6-.379,1.207-.792,1.8-1.226a.7.7,0,0,1,1.014.21.838.838,0,0,1-.071.98.762.762,0,0,1-.124.115m9.514-11.889A.819.819,0,0,1,66.718,189c.3-.666.575-1.366.815-2.078a.714.714,0,0,1,.935-.471.807.807,0,0,1,.436,1.01c-.257.764-.552,1.513-.874,2.229a.78.78,0,0,1-.123.193.691.691,0,0,1-.852.171M183.882,54.7q-1.072-.223-2.144-.464a.79.79,0,0,1-.565-.933.733.733,0,0,1,.863-.61q1.061.239,2.122.46a.787.787,0,0,1,.578.923.814.814,0,0,1-.183.389.7.7,0,0,1-.671.236M52.351,205.038c-.681.321-1.379.617-2.075.881a.715.715,0,0,1-.929-.482.8.8,0,0,1,.446-1c.662-.251,1.326-.534,1.974-.839a.71.71,0,0,1,.96.407.837.837,0,0,1-.136.854.731.731,0,0,1-.241.184M69.034,184.2a.787.787,0,0,1-.574-.926c.131-.723.241-1.483.324-2.258a.744.744,0,0,1,.809-.692.777.777,0,0,1,.64.874c-.088.817-.2,1.618-.343,2.381a.807.807,0,0,1-.182.385.7.7,0,0,1-.675.236M46.7,207.007c-.727.168-1.467.305-2.2.41a.742.742,0,0,1-.819-.678.778.778,0,0,1,.628-.884c.7-.1,1.4-.23,2.087-.39a.733.733,0,0,1,.866.607.833.833,0,0,1-.181.7.72.72,0,0,1-.38.232M178.181,53.39q-1.063-.262-2.125-.535a.793.793,0,0,1-.542-.948.728.728,0,0,1,.878-.585q1.055.269,2.114.531a.791.791,0,0,1,.548.944.8.8,0,0,1-.178.362.7.7,0,0,1-.7.231M69.719,177.986a.762.762,0,0,1-.725-.794c0-.753-.009-1.53-.042-2.31a.768.768,0,0,1,.7-.823.754.754,0,0,1,.761.752c.034.806.048,1.611.043,2.392a.822.822,0,0,1-.2.533.7.7,0,0,1-.538.25M40.788,207.68c-.738,0-1.488-.033-2.23-.1a.772.772,0,0,1-.669-.849.751.751,0,0,1,.786-.723c.7.061,1.415.092,2.115.093a.76.76,0,0,1,.728.789.82.82,0,0,1-.2.537.7.7,0,0,1-.534.25m28.679-35.955a.744.744,0,0,1-.81-.691q-.124-1.143-.289-2.306a.782.782,0,0,1,.611-.9.739.739,0,0,1,.831.66q.168,1.189.3,2.359a.827.827,0,0,1-.191.631.707.707,0,0,1-.447.244M172.522,51.937l-2.116-.556a.8.8,0,0,1-.537-.952.729.729,0,0,1,.881-.58l2.118.557a.794.794,0,0,1,.536.953.8.8,0,0,1-.175.351.7.7,0,0,1-.706.228M34.878,206.994c-.719-.166-1.446-.367-2.161-.595a.8.8,0,0,1-.493-.979.721.721,0,0,1,.905-.533c.681.217,1.372.407,2.055.566a.789.789,0,0,1,.56.936.805.805,0,0,1-.179.372.694.694,0,0,1-.687.232M68.6,165.52a.733.733,0,0,1-.859-.617q-.212-1.134-.453-2.284a.792.792,0,0,1,.551-.943.731.731,0,0,1,.872.6q.243,1.167.459,2.319a.83.83,0,0,1-.183.695.711.711,0,0,1-.388.234M166.881,50.466q-1.06-.27-2.119-.532a.793.793,0,0,1-.549-.944.731.731,0,0,1,.874-.593q1.064.262,2.129.534a.794.794,0,0,1,.543.948.814.814,0,0,1-.177.357.7.7,0,0,1-.7.23M29.23,205.027c-.673-.315-1.349-.661-2.01-1.031a.821.821,0,0,1-.312-1.063.706.706,0,0,1,.983-.338c.632.353,1.278.685,1.919.986a.812.812,0,0,1,.379,1.036.793.793,0,0,1-.136.225.69.69,0,0,1-.823.185m38.091-45.633a.727.727,0,0,1-.889-.566q-.268-1.128-.556-2.264a.8.8,0,0,1,.511-.969.725.725,0,0,1,.9.552q.29,1.149.562,2.286a.834.834,0,0,1-.174.736.716.716,0,0,1-.35.225M161.229,49.1q-1.064-.238-2.128-.457a.787.787,0,0,1-.581-.922.736.736,0,0,1,.853-.627q1.077.221,2.151.462a.788.788,0,0,1,.566.931.8.8,0,0,1-.181.378.7.7,0,0,1-.681.234M135.012,76.836a15.73,15.73,0,0,1-1.752,1.584.694.694,0,0,1-1.018-.18.827.827,0,0,1,.166-1.1,14.285,14.285,0,0,0,1.585-1.434.691.691,0,0,1,1.032.015.835.835,0,0,1,.011,1.088l-.024.027m1.356-2.959A.823.823,0,0,1,136.1,72.8a12.629,12.629,0,0,0,.854-2,.714.714,0,0,1,.93-.481.805.805,0,0,1,.445,1.006,14.093,14.093,0,0,1-.966,2.264.758.758,0,0,1-.1.145.69.69,0,0,1-.9.144m-6.419,6.532a15.889,15.889,0,0,1-2.156.783.727.727,0,0,1-.891-.563.8.8,0,0,1,.521-.963,14.566,14.566,0,0,0,1.968-.714.711.711,0,0,1,.953.427.838.838,0,0,1-.142.84.72.72,0,0,1-.254.19M24.029,201.965c-.6-.431-1.211-.9-1.811-1.383a.831.831,0,0,1-.145-1.1.693.693,0,0,1,1.021-.157c.577.468,1.163.915,1.741,1.33a.829.829,0,0,1,.2,1.093.8.8,0,0,1-.075.1.691.691,0,0,1-.936.118m41.764-48.628a.723.723,0,0,1-.906-.534q-.3-1.123-.621-2.251a.8.8,0,0,1,.488-.983.722.722,0,0,1,.91.527q.317,1.134.624,2.263a.835.835,0,0,1-.168.761.723.723,0,0,1-.327.218M155.549,47.98q-1.071-.18-2.14-.331a.779.779,0,0,1-.629-.883.741.741,0,0,1,.817-.68q1.087.153,2.174.336a.783.783,0,0,1,.61.9.816.816,0,0,1-.187.417.7.7,0,0,1-.645.242m-17.27,20.03a.765.765,0,0,1-.711-.809c.006-.24,0-.482,0-.706-.028-.5-.078-1-.149-1.495a.782.782,0,0,1,.608-.9.738.738,0,0,1,.833.657c.079.54.134,1.092.165,1.664.009.276.01.55,0,.82a.82.82,0,0,1-.2.518.7.7,0,0,1-.552.25M124.031,81.747a13.013,13.013,0,0,1-2.286-.167.784.784,0,0,1-.612-.9.741.741,0,0,1,.831-.661,11.557,11.557,0,0,0,2.048.15.759.759,0,0,1,.739.778.825.825,0,0,1-.2.549.706.706,0,0,1-.524.25M64.115,147.324a.72.72,0,0,1-.914-.518q-.324-1.121-.652-2.244a.8.8,0,0,1,.476-.989.72.72,0,0,1,.915.515q.329,1.125.654,2.249a.834.834,0,0,1-.164.773.719.719,0,0,1-.315.214M19.375,198.036q-.227-.223-.452-.451-.577-.583-1.147-1.2a.834.834,0,0,1-.017-1.094l.019-.021a.691.691,0,0,1,1.031,0q.553.6,1.11,1.162.218.22.437.435a.834.834,0,0,1,.05,1.114l-.007.009a.692.692,0,0,1-1.023.046m130.46-150.8q-1.073-.094-2.147-.149a.768.768,0,0,1-.694-.825.755.755,0,0,1,.764-.75q1.1.057,2.2.154a.771.771,0,0,1,.668.849.813.813,0,0,1-.193.474.7.7,0,0,1-.592.247M137.427,61.847a.711.711,0,0,1-.957-.416,16.307,16.307,0,0,0-.947-1.99.827.827,0,0,1,.245-1.083.7.7,0,0,1,1,.265,17.927,17.927,0,0,1,1.042,2.189.836.836,0,0,1-.139.848.736.736,0,0,1-.246.187m-19.347,18.5a11.467,11.467,0,0,1-1.962-1.335.832.832,0,0,1-.125-1.107.69.69,0,0,1,1.024-.135,9.982,9.982,0,0,0,1.713,1.166.818.818,0,0,1,.328,1.057.8.8,0,0,1-.12.187.691.691,0,0,1-.857.168m26.031-33.319q-1.07.017-2.142.082a.751.751,0,0,1-.769-.742.766.766,0,0,1,.686-.831q1.1-.069,2.2-.086a.758.758,0,0,1,.74.777.82.82,0,0,1-.2.55.705.705,0,0,1-.522.25m-81.741,94.3a.721.721,0,0,1-.916-.513l-.654-2.246a.8.8,0,0,1,.477-.988.719.719,0,0,1,.914.516l.654,2.242a.833.833,0,0,1-.163.777.723.723,0,0,1-.312.213M16.312,193.541a.691.691,0,0,1-1.028-.089q-.706-.9-1.394-1.85a.826.826,0,0,1,.127-1.106.693.693,0,0,1,1.023.137q.67.929,1.354,1.8a.836.836,0,0,1-.022,1.049.7.7,0,0,1-.061.062M134.445,56.5a.691.691,0,0,1-1.031-.033c-.276-.317-.563-.625-.858-.924q-.322-.326-.661-.638a.833.833,0,0,1-.08-1.111.7.7,0,0,1,1.028-.086q.363.335.71.686.477.483.923.993a.836.836,0,0,1,0,1.079l-.033.036M114.539,76.162a.7.7,0,0,1-1.013-.214,16.678,16.678,0,0,1-1.132-2.144.816.816,0,0,1,.349-1.048.706.706,0,0,1,.97.377,15.053,15.053,0,0,0,1.022,1.934.838.838,0,0,1-.072.978.741.741,0,0,1-.126.116m23.878-28.69c-.709.1-1.42.222-2.114.358a.737.737,0,0,1-.848-.636.785.785,0,0,1,.588-.916c.716-.14,1.449-.264,2.18-.369a.742.742,0,0,1,.82.677.828.828,0,0,1-.191.643.707.707,0,0,1-.436.243M60.635,135.341a.721.721,0,0,1-.91-.523q-.321-1.134-.631-2.261a.8.8,0,0,1,.492-.98.722.722,0,0,1,.907.531q.309,1.121.627,2.249a.834.834,0,0,1-.165.769.716.716,0,0,1-.319.215M12.741,188.6a.7.7,0,0,1-1.014-.209q-.609-.971-1.2-1.993a.829.829,0,0,1,.23-1.087.7.7,0,0,1,1.006.249q.58,1,1.175,1.946a.838.838,0,0,1-.07.981.793.793,0,0,1-.123.114M129.054,52.665c-.588-.4-1.208-.778-1.84-1.135a.789.789,0,0,1-.387-.608q-.341.159-.681.324t-.663.334a.706.706,0,0,1-.974-.367.818.818,0,0,1,.339-1.052q.35-.184.7-.353.664-.323,1.328-.619a.711.711,0,0,1,.953.427.84.84,0,0,1,.032.5l.028.015c.666.376,1.318.778,1.937,1.195a.828.828,0,0,1,.233,1.087.761.761,0,0,1-.087.121.689.689,0,0,1-.919.13m3.774-3.994c-.7.2-1.386.419-2.05.651a.72.72,0,0,1-.918-.509.806.806,0,0,1,.471-.993c.688-.239,1.4-.465,2.12-.673a.726.726,0,0,1,.893.558.833.833,0,0,1-.172.743.724.724,0,0,1-.344.223m-20.7,21.84a.742.742,0,0,1-.815-.684,13.391,13.391,0,0,1-.052-2.507.75.75,0,0,1,.785-.723.772.772,0,0,1,.67.848,11.592,11.592,0,0,0,.045,2.186.827.827,0,0,1-.191.637.707.707,0,0,1-.441.243M58.983,129.319a.724.724,0,0,1-.9-.548q-.3-1.146-.572-2.284a.8.8,0,0,1,.52-.962.726.726,0,0,1,.89.562q.274,1.126.567,2.262a.834.834,0,0,1-.17.75.713.713,0,0,1-.337.221m53.575-65a.811.811,0,0,1-.406-1.025,17.519,17.519,0,0,1,1-2.213.7.7,0,0,1,1-.284.823.823,0,0,1,.264,1.077,15.943,15.943,0,0,0-.911,2.005.771.771,0,0,1-.144.245.692.692,0,0,1-.8.194m9.827-10.882c-.6.412-1.2.848-1.757,1.293a.694.694,0,0,1-1.019-.169.83.83,0,0,1,.156-1.1c.589-.467,1.208-.923,1.841-1.356a.7.7,0,0,1,1.006.245.838.838,0,0,1-.083.959.76.76,0,0,1-.144.129M9.653,183.29a.7.7,0,0,1-.991-.308q-.525-1.025-1.034-2.1a.82.82,0,0,1,.315-1.062.7.7,0,0,1,.982.341q.5,1.05,1.013,2.055a.838.838,0,0,1-.105.92.736.736,0,0,1-.18.152M123.982,49.957c-.656-.274-1.333-.531-2.012-.763a.8.8,0,0,1-.475-.989.718.718,0,0,1,.915-.514c.707.242,1.413.51,2.1.8a.81.81,0,0,1,.418,1.02.8.8,0,0,1-.148.254.693.693,0,0,1-.8.2m-6.064,7.221q-.77.795-1.459,1.646l-.018.022a.691.691,0,0,1-1.011.055.832.832,0,0,1-.071-1.111c.487-.607,1.006-1.189,1.551-1.751a.691.691,0,0,1,1.031.026.835.835,0,0,1,.006,1.082l-.03.033m-60.41,66.068a.73.73,0,0,1-.875-.59q-.251-1.165-.471-2.316a.79.79,0,0,1,.566-.932.733.733,0,0,1,.863.611q.217,1.133.464,2.281a.833.833,0,0,1-.178.717.716.716,0,0,1-.368.229M7,177.712a.707.707,0,0,1-.966-.39q-.449-1.065-.884-2.172a.811.811,0,0,1,.387-1.034.711.711,0,0,1,.957.418q.426,1.088.867,2.135a.837.837,0,0,1-.131.865.724.724,0,0,1-.231.179m111.53-129.5c-.7-.161-1.407-.3-2.1-.416a.781.781,0,0,1-.611-.9.739.739,0,0,1,.831-.66c.721.118,1.455.264,2.183.432a.79.79,0,0,1,.561.935.807.807,0,0,1-.18.374.7.7,0,0,1-.685.233M56.331,117.1a.739.739,0,0,1-.835-.655q-.175-1.191-.309-2.358a.777.777,0,0,1,.635-.878.743.743,0,0,1,.813.686q.13,1.14.3,2.3a.831.831,0,0,1-.188.663.715.715,0,0,1-.418.24M112.9,47.4c-.723-.039-1.438-.05-2.125-.035a.791.791,0,0,1-.031-1.576c.722-.017,1.472,0,2.229.037a.768.768,0,0,1,.692.827.814.814,0,0,1-.2.5.7.7,0,0,1-.57.249M55.631,110.871a.753.753,0,0,1-.764-.749c-.037-.819-.054-1.624-.05-2.395a.732.732,0,1,1,1.459.009c0,.741.012,1.518.048,2.309a.823.823,0,0,1-.2.577.705.705,0,0,1-.5.249m51.636-63.14c-.692.121-1.4.266-2.1.43a.731.731,0,0,1-.868-.6.79.79,0,0,1,.558-.937c.726-.17,1.458-.32,2.174-.446a.738.738,0,0,1,.837.652.831.831,0,0,1-.187.665.715.715,0,0,1-.416.239m-51.59,56.876a.777.777,0,0,1-.636-.877c.093-.82.213-1.621.359-2.382a.735.735,0,0,1,.863-.612.791.791,0,0,1,.566.933c-.138.718-.253,1.476-.34,2.252a.81.81,0,0,1-.191.443.7.7,0,0,1-.621.245m46.038-55.476c-.675.222-1.36.464-2.036.722a.717.717,0,0,1-.931-.48.808.808,0,0,1,.444-1.007c.7-.266,1.4-.517,2.1-.744a.721.721,0,0,1,.91.526.836.836,0,0,1-.166.768.718.718,0,0,1-.321.215M56.8,98.466a.8.8,0,0,1-.491-.98q.311-1.135.675-2.273a.717.717,0,0,1,.927-.488.8.8,0,0,1,.452,1q-.352,1.106-.656,2.208a.794.794,0,0,1-.166.313.694.694,0,0,1-.741.218m39.547-47.2q-.981.461-1.952.967a.706.706,0,0,1-.974-.368.818.818,0,0,1,.34-1.052q1-.52,2.006-.993a.709.709,0,0,1,.959.409.837.837,0,0,1-.136.852.731.731,0,0,1-.243.185M58.689,92.535A.812.812,0,0,1,58.3,91.5q.422-1.09.888-2.179a.7.7,0,0,1,.968-.385.815.815,0,0,1,.356,1.046q-.453,1.062-.866,2.127a.789.789,0,0,1-.14.234.691.691,0,0,1-.814.189m32.533-38.51q-.935.564-1.857,1.169a.7.7,0,0,1-1-.266.827.827,0,0,1,.247-1.083q.945-.618,1.9-1.2a.7.7,0,0,1,.992.3.836.836,0,0,1-.1.922.754.754,0,0,1-.177.15m-30.1,32.816a.822.822,0,0,1-.3-1.066q.514-1.044,1.063-2.082a.7.7,0,0,1,1-.292.825.825,0,0,1,.271,1.076q-.538,1.015-1.041,2.037a.806.806,0,0,1-.112.169.691.691,0,0,1-.875.158m25.227-29.55q-.886.655-1.759,1.342a.7.7,0,0,1-1.019-.173.834.834,0,0,1,.16-1.1q.89-.7,1.8-1.369a.7.7,0,0,1,1.013.207.837.837,0,0,1-.069.982.728.728,0,0,1-.122.113M64,81.4a.827.827,0,0,1-.222-1.089q.59-1,1.213-1.982a.7.7,0,0,1,1.014-.207.829.829,0,0,1,.191,1.1q-.61.966-1.189,1.943a.753.753,0,0,1-.082.114A.69.69,0,0,1,64,81.4m17.737-20.4q-.837.73-1.657,1.489a.693.693,0,0,1-1.029-.086.83.83,0,0,1,.08-1.111q.834-.772,1.689-1.517a.693.693,0,0,1,1.026.118.837.837,0,0,1-.034,1.033.677.677,0,0,1-.075.076M67.275,76.212a.831.831,0,0,1-.144-1.1q.659-.947,1.346-1.877a.7.7,0,0,1,1.025-.125.833.833,0,0,1,.115,1.108q-.674.913-1.321,1.842a.735.735,0,0,1-.05.065.691.691,0,0,1-.971.091M77.409,65.076q-.786.8-1.552,1.619a.691.691,0,0,1-1.031,0,.839.839,0,0,1,0-1.115q.779-.835,1.579-1.648a.691.691,0,0,1,1.031.034.836.836,0,0,1,0,1.078l-.034.037M70.892,71.3a.833.833,0,0,1-.07-1.112q.72-.893,1.466-1.768l0,0a.692.692,0,0,1,1.027-.041.833.833,0,0,1,.042,1.114q-.732.859-1.44,1.735l-.017.021a.691.691,0,0,1-1.012.055" transform="translate(-53.768 -28.817)" fill="#4e93ee"/>
    </g>
  </g>
</svg>
