<svg xmlns="http://www.w3.org/2000/svg" xmlns:xlink="http://www.w3.org/1999/xlink" width="121" height="121" viewBox="0 0 121 121">
  <defs>
    <clipPath id="clip-path">
      <rect id="Rectángulo_403250" data-name="Rectángulo 403250" width="84" height="84" transform="translate(408 6464)" fill="#fff" stroke="#707070" stroke-width="1"/>
    </clipPath>
  </defs>
  <g id="Grupo_1101884" data-name="Grupo 1101884" transform="translate(-389 -6445)">
    <circle id="Elipse_11630" data-name="Elipse 11630" cx="60.5" cy="60.5" r="60.5" transform="translate(389 6445)" fill="#4e93ee"/>
    <g id="Enmascarar_grupo_1098796" data-name="Enmascarar grupo 1098796" clip-path="url(#clip-path)">
      <g id="satisfaccion2" transform="translate(408 6467.822)">
        <path id="Trazado_878348" data-name="Trazado 878348" d="M81.949,6.088H67.516V9.619a1.393,1.393,0,0,1-1.391,1.386H26.057a6.49,6.49,0,0,1-2.612-.665L16.988,6.824c-.368-.2-.533-.472-.5-.736H2.051a.823.823,0,0,0-.82.82V74.222a.823.823,0,0,0,.82.82h79.9a.823.823,0,0,0,.82-.82V6.909a.823.823,0,0,0-.82-.82Zm0,0" fill="#e6e9ed"/>
        <path id="Trazado_878349" data-name="Trazado 878349" d="M51.3,59.18a9.3,9.3,0,1,1-9.3-9.4A9.353,9.353,0,0,1,51.3,59.18Zm0,0" fill="#ffc502"/>
        <path id="Trazado_878350" data-name="Trazado 878350" d="M27.916,59.18a9.3,9.3,0,1,1-9.3-9.4A9.353,9.353,0,0,1,27.916,59.18Zm0,0" fill="#89c947"/>
        <path id="Trazado_878351" data-name="Trazado 878351" d="M74.693,59.18a9.3,9.3,0,1,1-9.3-9.4A9.354,9.354,0,0,1,74.693,59.18Zm0,0" fill="#ef5050"/>
        <g id="Grupo_1102025" data-name="Grupo 1102025">
          <path id="Trazado_878352" data-name="Trazado 878352" d="M18.822,26.736a.494.494,0,0,1-.492.492H9.8a.493.493,0,0,1-.492-.492V18.171a.494.494,0,0,1,.492-.492H18.33a.494.494,0,0,1,.492.492Zm0,0" fill="#fcdb67"/>
          <path id="Trazado_878353" data-name="Trazado 878353" d="M18.822,42.364a.494.494,0,0,1-.492.492H9.8a.494.494,0,0,1-.492-.492V33.8a.493.493,0,0,1,.492-.492H18.33a.494.494,0,0,1,.492.492Zm0,0" fill="#fcdb67"/>
          <path id="Trazado_878354" data-name="Trazado 878354" d="M54.935,26.736a.494.494,0,0,1-.492.492H45.912a.493.493,0,0,1-.492-.492V18.171a.494.494,0,0,1,.492-.492h8.531a.494.494,0,0,1,.492.492Zm0,0" fill="#fcdb67"/>
          <path id="Trazado_878355" data-name="Trazado 878355" d="M54.935,42.364a.494.494,0,0,1-.492.492H45.912a.494.494,0,0,1-.492-.492V33.8a.493.493,0,0,1,.492-.492h8.531a.494.494,0,0,1,.492.492Zm0,0" fill="#fcdb67"/>
        </g>
        <path id="Trazado_878356" data-name="Trazado 878356" d="M66.124,1.313A1.393,1.393,0,0,1,67.516,2.7V9.619a1.393,1.393,0,0,1-1.391,1.387H26.057a6.481,6.481,0,0,1-2.612-.665L16.988,6.824c-.672-.366-.672-.964,0-1.33l6.457-3.516a6.481,6.481,0,0,1,2.612-.665Zm0,0" fill="#ffc502"/>
        <path id="Trazado_878357" data-name="Trazado 878357" d="M26.618,1.313h-.561a6.481,6.481,0,0,0-2.612.665L16.988,5.494c-.672.366-.672.964,0,1.33l6.457,3.517a6.481,6.481,0,0,0,2.612.665h.561Zm0,0" fill="#ffd5b3"/>
        <path id="Trazado_878358" data-name="Trazado 878358" d="M21.328,3.131l-4.34,2.364c-.672.366-.672.964,0,1.33l4.34,2.364Zm0,0" fill="#775436"/>
        <path id="Trazado_878359" data-name="Trazado 878359" d="M67.516,9.619V2.7a1.393,1.393,0,0,0-1.391-1.386H59.447v9.694h6.677a1.393,1.393,0,0,0,1.391-1.387Zm0,0" fill="#fb8276"/>
        <path id="Trazado_878360" data-name="Trazado 878360" d="M81.949,4.858H77.438a1.23,1.23,0,0,0,0,2.461h4.1V73.811H18.047a1.23,1.23,0,0,0,0,2.461h63.9A2.053,2.053,0,0,0,84,74.222V6.909a2.053,2.053,0,0,0-2.051-2.051Zm0,0"/>
        <path id="Trazado_878361" data-name="Trazado 878361" d="M12.141,73.811H2.461V7.319H15.679A2.407,2.407,0,0,0,16.4,7.9l6.457,3.517a7.667,7.667,0,0,0,3.2.815H66.124a2.623,2.623,0,0,0,2.622-2.617v-2.3H71.7a1.23,1.23,0,0,0,0-2.461H68.746V2.7A2.622,2.622,0,0,0,66.124.082H26.057a7.667,7.667,0,0,0-3.2.815L16.4,4.414a2.506,2.506,0,0,0-.594.444H2.051A2.053,2.053,0,0,0,0,6.909V74.222a2.053,2.053,0,0,0,2.051,2.051h10.09a1.23,1.23,0,1,0,0-2.461ZM60.678,2.543h5.447a.163.163,0,0,1,.161.156V9.619a.163.163,0,0,1-.161.156H60.678Zm-32.829,0H58.217V4.929H27.848Zm0,4.847H58.217V9.776H27.848Zm-5.29-3.529,1.475-.8a5.133,5.133,0,0,1,1.354-.44V9.7a5.169,5.169,0,0,1-1.354-.44l-1.475-.8ZM20.1,5.2V7.117L18.34,6.159Zm0,0"/>
        <path id="Trazado_878362" data-name="Trazado 878362" d="M42,69.811a10.5,10.5,0,0,0,10.064-7.484,1.23,1.23,0,0,0-2.353-.722A8.047,8.047,0,0,1,42,67.35a8.171,8.171,0,1,1,7.617-10.886,1.231,1.231,0,0,0,2.324-.809A10.555,10.555,0,1,0,42,69.811Zm0,0"/>
        <path id="Trazado_878363" data-name="Trazado 878363" d="M39.267,57.785v-.968a1.23,1.23,0,0,0-2.461,0v.968a1.23,1.23,0,0,0,2.461,0Zm0,0"/>
        <path id="Trazado_878364" data-name="Trazado 878364" d="M47.19,57.785v-.968a1.23,1.23,0,0,0-2.461,0v.968a1.23,1.23,0,0,0,2.461,0Zm0,0"/>
        <path id="Trazado_878365" data-name="Trazado 878365" d="M39.27,63.463h5.455a1.23,1.23,0,0,0,0-2.461H39.27a1.23,1.23,0,0,0,0,2.461Zm0,0"/>
        <path id="Trazado_878366" data-name="Trazado 878366" d="M18.612,69.811A10.632,10.632,0,1,0,8.077,59.18,10.6,10.6,0,0,0,18.612,69.811Zm0-18.8a8.171,8.171,0,1,1-8.074,8.171,8.132,8.132,0,0,1,8.074-8.171Zm0,0"/>
        <path id="Trazado_878367" data-name="Trazado 878367" d="M14.651,59.015a1.23,1.23,0,0,0,1.23-1.23v-.968a1.23,1.23,0,0,0-2.461,0v.968A1.231,1.231,0,0,0,14.651,59.015Zm0,0"/>
        <path id="Trazado_878368" data-name="Trazado 878368" d="M22.573,59.015a1.23,1.23,0,0,0,1.23-1.23v-.968a1.23,1.23,0,0,0-2.461,0v.968A1.23,1.23,0,0,0,22.573,59.015Zm0,0"/>
        <path id="Trazado_878369" data-name="Trazado 878369" d="M14.42,61.427a4.058,4.058,0,0,0,4.193,3.9,4.058,4.058,0,0,0,4.193-3.9,1.23,1.23,0,0,0-2.461,0,1.606,1.606,0,0,1-1.732,1.436,1.607,1.607,0,0,1-1.732-1.436,1.23,1.23,0,0,0-2.461,0Zm0,0"/>
        <path id="Trazado_878370" data-name="Trazado 878370" d="M65.388,69.811A10.632,10.632,0,1,0,54.853,59.18,10.6,10.6,0,0,0,65.388,69.811Zm0-18.8a8.171,8.171,0,1,1-8.074,8.171A8.133,8.133,0,0,1,65.388,51.009Zm0,0"/>
        <path id="Trazado_878371" data-name="Trazado 878371" d="M61.427,59.015a1.23,1.23,0,0,0,1.23-1.23v-.968a1.23,1.23,0,0,0-2.461,0v.968A1.231,1.231,0,0,0,61.427,59.015Zm0,0"/>
        <path id="Trazado_878372" data-name="Trazado 878372" d="M69.35,59.015a1.23,1.23,0,0,0,1.23-1.23v-.968a1.23,1.23,0,0,0-2.461,0v.968A1.23,1.23,0,0,0,69.35,59.015Zm0,0"/>
        <path id="Trazado_878373" data-name="Trazado 878373" d="M61.2,63.568a1.23,1.23,0,0,0,2.461,0,1.763,1.763,0,0,1,3.465,0,1.23,1.23,0,0,0,2.461,0,4.2,4.2,0,0,0-8.386,0Zm0,0"/>
        <path id="Trazado_878374" data-name="Trazado 878374" d="M9.8,28.458H18.33a1.724,1.724,0,0,0,1.723-1.723v-7.1l.485-.488a1.23,1.23,0,0,0-.9-2.1,1.717,1.717,0,0,0-1.3-.6H9.8a1.724,1.724,0,0,0-1.723,1.723v8.565A1.724,1.724,0,0,0,9.8,28.458Zm.738-9.55H17.3l-3.018,3.04-.994-1a1.231,1.231,0,1,0-1.747,1.734l1.52,1.532a1.7,1.7,0,0,0,1.22.509h0a1.7,1.7,0,0,0,1.22-.508l2.087-2.1V26H10.538Zm0,0"/>
        <path id="Trazado_878375" data-name="Trazado 878375" d="M23.92,21.669H38.58a1.23,1.23,0,1,0,0-2.461H23.92a1.23,1.23,0,0,0,0,2.461Zm0,0"/>
        <path id="Trazado_878376" data-name="Trazado 878376" d="M23.92,25.7h8.349a1.23,1.23,0,0,0,0-2.461H23.92a1.23,1.23,0,0,0,0,2.461Zm0,0"/>
        <path id="Trazado_878377" data-name="Trazado 878377" d="M8.077,42.364A1.724,1.724,0,0,0,9.8,44.087H18.33a1.725,1.725,0,0,0,1.723-1.723V33.8a1.725,1.725,0,0,0-1.723-1.723H9.8A1.724,1.724,0,0,0,8.077,33.8Zm2.461-7.827h7.054v7.088H10.538Zm0,0"/>
        <path id="Trazado_878378" data-name="Trazado 878378" d="M23.92,37.3H38.58a1.23,1.23,0,1,0,0-2.461H23.92a1.23,1.23,0,0,0,0,2.461Zm0,0"/>
        <path id="Trazado_878379" data-name="Trazado 878379" d="M33.5,40.1a1.23,1.23,0,0,0-1.23-1.23H23.92a1.23,1.23,0,1,0,0,2.461h8.349A1.231,1.231,0,0,0,33.5,40.1Zm0,0"/>
        <path id="Trazado_878380" data-name="Trazado 878380" d="M45.912,28.458h8.531a1.724,1.724,0,0,0,1.723-1.723V18.171a1.725,1.725,0,0,0-1.723-1.723H45.912a1.724,1.724,0,0,0-1.723,1.723v8.565A1.724,1.724,0,0,0,45.912,28.458Zm.738-9.55H53.7V26H46.65Zm0,0"/>
        <path id="Trazado_878381" data-name="Trazado 878381" d="M58.8,20.439a1.23,1.23,0,0,0,1.23,1.23H74.693a1.23,1.23,0,0,0,0-2.461H60.031A1.23,1.23,0,0,0,58.8,20.439Zm0,0"/>
        <path id="Trazado_878382" data-name="Trazado 878382" d="M60.031,25.7h8.349a1.23,1.23,0,0,0,0-2.461H60.031a1.23,1.23,0,0,0,0,2.461Zm0,0"/>
        <path id="Trazado_878383" data-name="Trazado 878383" d="M56.165,42.364V33.8a1.725,1.725,0,0,0-1.723-1.723H45.912A1.724,1.724,0,0,0,44.189,33.8v8.565a1.724,1.724,0,0,0,1.723,1.723h8.531A1.725,1.725,0,0,0,56.165,42.364ZM53.7,41.626H46.65V34.537H53.7Zm0,0"/>
        <path id="Trazado_878384" data-name="Trazado 878384" d="M74.693,34.836H60.032a1.23,1.23,0,0,0,0,2.461H74.693a1.23,1.23,0,0,0,0-2.461Zm0,0"/>
        <path id="Trazado_878385" data-name="Trazado 878385" d="M68.381,41.327a1.23,1.23,0,0,0,0-2.461H60.032a1.23,1.23,0,0,0,0,2.461Zm0,0"/>
      </g>
    </g>
  </g>
</svg>
