<svg xmlns="http://www.w3.org/2000/svg" xmlns:xlink="http://www.w3.org/1999/xlink" width="121" height="121" viewBox="0 0 121 121">
  <defs>
    <clipPath id="clip-path">
      <rect id="Rectángulo_403250" data-name="Rectángulo 403250" width="84" height="84" transform="translate(408 6464)" fill="#fff" stroke="#707070" stroke-width="1"/>
    </clipPath>
  </defs>
  <g id="Grupo_1101885" data-name="Grupo 1101885" transform="translate(-389 -6445)">
    <circle id="Elipse_11630" data-name="Elipse 11630" cx="60.5" cy="60.5" r="60.5" transform="translate(389 6445)" fill="#4e93ee"/>
    <g id="Enmascarar_grupo_1098798" data-name="Enmascarar grupo 1098798" clip-path="url(#clip-path)">
      <g id="agencia-de-viajes_4_" data-name="agencia-de-viajes (4)" transform="translate(408.009 6464.009)">
        <path id="Trazado_878408" data-name="Trazado 878408" d="M30.181,30.732,27.557,36.06v.013c-2.454.5-5.5,3.057-13.122,2.165-.42-.052-.866-.118-1.312-.184v-.643a9.834,9.834,0,0,1,17.059-6.679Z" fill="#ffce54"/>
        <path id="Trazado_878409" data-name="Trazado 878409" d="M41.991,18.358H38.054a2.624,2.624,0,0,0-2.624,2.624v1.312H31.493a13.122,13.122,0,1,1,21,0H48.552V20.982a2.624,2.624,0,0,0-2.624-2.624Z" fill="#87bcf4"/>
        <path id="Trazado_878410" data-name="Trazado 878410" d="M26.244,56.426l1.312-1.3h3.937v-.013A3.94,3.94,0,0,1,35.43,59.05V63H11.81V59.05a3.94,3.94,0,0,1,3.937-3.937v.013h3.937L21,56.426l2.624-1.312Z" fill="#e6e9ed"/>
        <path id="Trazado_878411" data-name="Trazado 878411" d="M27.557,50.3v4.829l-1.312,1.3L23.62,55.113,21,56.426l-1.312-1.3V50.284a9.13,9.13,0,0,0,7.873,0Z" fill="#f5f7fa"/>
        <path id="Trazado_878412" data-name="Trazado 878412" d="M48.552,20.982v1.312H35.43V20.982a2.624,2.624,0,0,1,2.624-2.624h7.873a2.624,2.624,0,0,1,2.624,2.624Z" fill="#ffce54"/>
        <path id="Trazado_878413" data-name="Trazado 878413" d="M32.806,37.411v1.8c-2.257-2.939-3.622-3.477-5.249-3.136V36.06l2.624-5.328A9.811,9.811,0,0,1,32.806,37.411Z" fill="#f6bb42"/>
        <path id="Trazado_878414" data-name="Trazado 878414" d="M32.806,41.991V42a9.186,9.186,0,0,1-18.371,0V38.238c7.624.892,10.668-1.667,13.122-2.165,1.627-.341,2.992.2,5.249,3.136Z" fill="#eac6bb"/>
        <path id="Trazado_878415" data-name="Trazado 878415" d="M52.489,22.295a13.122,13.122,0,0,1-21,0Z" fill="#5d9cec"/>
        <path id="Trazado_878416" data-name="Trazado 878416" d="M56.426,52.489a9.176,9.176,0,0,1-9.186-9.172,10.662,10.662,0,0,0,18.371,0,9.176,9.176,0,0,1-9.186,9.172Z" fill="#eac6bb"/>
        <path id="Trazado_878417" data-name="Trazado 878417" d="M61.674,28.882v3.937a3.929,3.929,0,0,1,3.937,3.924v6.574a10.662,10.662,0,0,1-18.371,0V36.742a7.86,7.86,0,0,1,7.873-7.86Z" fill="#965353"/>
        <path id="Trazado_878418" data-name="Trazado 878418" d="M82.67,64.312v3.937H70.86V64.312Z" fill="#965353"/>
        <path id="Trazado_878419" data-name="Trazado 878419" d="M70.86,68.249H74.8V82.683H70.86Z" fill="#773e3e"/>
        <path id="Trazado_878420" data-name="Trazado 878420" d="M74.8,68.249h3.937V82.683H74.8Z" fill="#844747"/>
        <path id="Trazado_878421" data-name="Trazado 878421" d="M5.249,66.936H9.186V82.683H5.249Z" fill="#844747"/>
        <path id="Trazado_878422" data-name="Trazado 878422" d="M70.86,64.312V82.683H41.991V56.426a3.94,3.94,0,0,1,3.937-3.937V52.5h6.561v-.013h7.873V52.5h6.561v-.013a3.94,3.94,0,0,1,3.937,3.937Z" fill="#656d78"/>
        <path id="Trazado_878423" data-name="Trazado 878423" d="M9.186,66.936H41.991V82.683H9.186Z" fill="#773e3e"/>
        <path id="Trazado_878424" data-name="Trazado 878424" d="M41.991,63v3.937H1.312V63H41.991Z" fill="#965353"/>
        <path id="Trazado_878425" data-name="Trazado 878425" d="M41.991,68.244H1.312a1.312,1.312,0,0,1,0-2.624H41.991a1.312,1.312,0,1,1,0,2.624Z"/>
        <path id="Trazado_878426" data-name="Trazado 878426" d="M82.67,69.557H70.86a1.312,1.312,0,0,1,0-2.624H82.67a1.312,1.312,0,0,1,0,2.624Z"/>
        <path id="Trazado_878427" data-name="Trazado 878427" d="M82.67,69.557a1.311,1.311,0,0,1-1.312-1.312V64.308a1.312,1.312,0,1,1,2.624,0v3.937a1.311,1.311,0,0,1-1.312,1.312Z"/>
        <path id="Trazado_878428" data-name="Trazado 878428" d="M82.67,65.62H70.86a1.312,1.312,0,0,1,0-2.624H82.67a1.312,1.312,0,0,1,0,2.624Z"/>
        <path id="Trazado_878429" data-name="Trazado 878429" d="M41.991,64.308H1.312a1.312,1.312,0,0,1,0-2.624H41.991a1.312,1.312,0,0,1,0,2.624Z"/>
        <path id="Trazado_878430" data-name="Trazado 878430" d="M1.312,68.244A1.311,1.311,0,0,1,0,66.932V63a1.312,1.312,0,1,1,2.624,0v3.937a1.311,1.311,0,0,1-1.312,1.312Z"/>
        <path id="Trazado_878431" data-name="Trazado 878431" d="M5.249,83.991a1.311,1.311,0,0,1-1.312-1.312V66.932a1.312,1.312,0,0,1,2.624,0V82.679a1.311,1.311,0,0,1-1.312,1.312Z"/>
        <path id="Trazado_878432" data-name="Trazado 878432" d="M9.186,83.991a1.311,1.311,0,0,1-1.312-1.312V66.932a1.312,1.312,0,0,1,2.624,0V82.679a1.311,1.311,0,0,1-1.312,1.312Z"/>
        <path id="Trazado_878433" data-name="Trazado 878433" d="M14.434,43.312A1.311,1.311,0,0,1,13.122,42V38.236a1.312,1.312,0,1,1,2.624,0V42a1.311,1.311,0,0,1-1.312,1.312Z"/>
        <path id="Trazado_878434" data-name="Trazado 878434" d="M32.806,43.312A1.311,1.311,0,0,1,31.493,42V37.406a1.312,1.312,0,1,1,2.624,0V42a1.311,1.311,0,0,1-1.312,1.312Z"/>
        <path id="Trazado_878435" data-name="Trazado 878435" d="M32.806,38.718a1.311,1.311,0,0,1-1.312-1.312,8.529,8.529,0,1,0-17.059,0,1.312,1.312,0,1,1-2.624,0,11.154,11.154,0,1,1,22.308,0,1.311,1.311,0,0,1-1.312,1.312Z"/>
        <path id="Trazado_878436" data-name="Trazado 878436" d="M32.807,40.517A1.311,1.311,0,0,1,31.764,40c-2.533-3.308-3.223-3.037-5.792-2.018a22.1,22.1,0,0,1-13.054,1.367,1.312,1.312,0,0,1,.41-2.591,19.556,19.556,0,0,0,11.678-1.216c3.165-1.253,5.285-1.784,8.842,2.862a1.312,1.312,0,0,1-1.041,2.111Z"/>
        <path id="Trazado_878437" data-name="Trazado 878437" d="M27.555,37.375a1.312,1.312,0,0,1-1.176-1.89L29,30.143A1.312,1.312,0,1,1,31.359,31.3l-2.624,5.342a1.312,1.312,0,0,1-1.179.734Z"/>
        <path id="Trazado_878438" data-name="Trazado 878438" d="M11.81,60.365A1.311,1.311,0,0,1,10.5,59.053a5.254,5.254,0,0,1,5.249-5.248,1.312,1.312,0,0,1,0,2.624,2.627,2.627,0,0,0-2.624,2.623,1.311,1.311,0,0,1-1.312,1.312Z"/>
        <path id="Trazado_878439" data-name="Trazado 878439" d="M19.683,56.437H15.747a1.312,1.312,0,0,1,0-2.624h3.937a1.312,1.312,0,0,1,0,2.624Z"/>
        <path id="Trazado_878440" data-name="Trazado 878440" d="M11.81,64.308A1.311,1.311,0,0,1,10.5,63V59.053a1.312,1.312,0,0,1,2.624,0V63a1.311,1.311,0,0,1-1.312,1.312Z"/>
        <path id="Trazado_878441" data-name="Trazado 878441" d="M35.43,60.365a1.311,1.311,0,0,1-1.312-1.312,2.627,2.627,0,0,0-2.624-2.623,1.312,1.312,0,1,1,0-2.624,5.254,5.254,0,0,1,5.249,5.248,1.311,1.311,0,0,1-1.312,1.312Z"/>
        <path id="Trazado_878442" data-name="Trazado 878442" d="M31.493,56.437H27.557a1.312,1.312,0,0,1,0-2.624h3.937a1.312,1.312,0,0,1,0,2.624Z"/>
        <path id="Trazado_878443" data-name="Trazado 878443" d="M35.43,64.308A1.311,1.311,0,0,1,34.118,63V59.053a1.312,1.312,0,0,1,2.624,0V63a1.311,1.311,0,0,1-1.312,1.312Z"/>
        <path id="Trazado_878444" data-name="Trazado 878444" d="M19.683,56.437a1.311,1.311,0,0,1-1.312-1.312V50.291a1.312,1.312,0,1,1,2.624,0v4.834a1.311,1.311,0,0,1-1.312,1.312Z"/>
        <path id="Trazado_878445" data-name="Trazado 878445" d="M27.557,56.428a1.311,1.311,0,0,1-1.312-1.312V50.291a1.312,1.312,0,1,1,2.624,0v4.825a1.311,1.311,0,0,1-1.312,1.312Z"/>
        <path id="Trazado_878446" data-name="Trazado 878446" d="M23.62,52.488a10.508,10.508,0,0,1-10.5-10.494,1.312,1.312,0,0,1,2.624,0,7.873,7.873,0,0,0,15.747,0,1.312,1.312,0,1,1,2.624,0A10.508,10.508,0,0,1,23.62,52.488Z"/>
        <path id="Trazado_878447" data-name="Trazado 878447" d="M21,57.74a1.312,1.312,0,0,1-.588-2.486l2.624-1.312a1.312,1.312,0,1,1,1.174,2.348L21.582,57.6A1.314,1.314,0,0,1,21,57.74Z"/>
        <path id="Trazado_878448" data-name="Trazado 878448" d="M26.244,57.74a1.312,1.312,0,0,1-.928-2.24l1.312-1.312a1.312,1.312,0,1,1,1.856,1.856l-1.312,1.312a1.308,1.308,0,0,1-.928.384Z"/>
        <path id="Trazado_878449" data-name="Trazado 878449" d="M21,57.74a1.308,1.308,0,0,1-.928-.384l-1.312-1.312a1.312,1.312,0,1,1,1.855-1.856L21.923,55.5A1.312,1.312,0,0,1,21,57.74Z"/>
        <path id="Trazado_878450" data-name="Trazado 878450" d="M26.243,57.74a1.314,1.314,0,0,1-.586-.138L23.033,56.29a1.312,1.312,0,1,1,1.174-2.348l2.624,1.312a1.312,1.312,0,0,1-.588,2.486Z"/>
        <path id="Trazado_878451" data-name="Trazado 878451" d="M65.614,38.065A1.311,1.311,0,0,1,64.3,36.752a2.629,2.629,0,0,0-2.627-2.626,1.312,1.312,0,1,1,0-2.624,5.257,5.257,0,0,1,5.252,5.25,1.311,1.311,0,0,1-1.312,1.312Z"/>
        <path id="Trazado_878452" data-name="Trazado 878452" d="M61.674,34.127a1.311,1.311,0,0,1-1.312-1.312V28.878a1.312,1.312,0,1,1,2.624,0v3.937a1.311,1.311,0,0,1-1.312,1.312Z"/>
        <path id="Trazado_878453" data-name="Trazado 878453" d="M47.24,38.063a1.311,1.311,0,0,1-1.312-1.312,9.2,9.2,0,0,1,9.186-9.186,1.312,1.312,0,1,1,0,2.624,6.569,6.569,0,0,0-6.561,6.561,1.311,1.311,0,0,1-1.312,1.312Z"/>
        <path id="Trazado_878454" data-name="Trazado 878454" d="M61.674,30.19H55.113a1.312,1.312,0,1,1,0-2.624h6.561a1.312,1.312,0,0,1,0,2.624Z"/>
        <path id="Trazado_878455" data-name="Trazado 878455" d="M56.426,49.873A11.679,11.679,0,0,1,46.066,43.9a1.312,1.312,0,1,1,2.345-1.179,9.356,9.356,0,0,0,16.029,0A1.312,1.312,0,1,1,66.785,43.9a11.679,11.679,0,0,1-10.359,5.974Z"/>
        <path id="Trazado_878456" data-name="Trazado 878456" d="M47.24,44.624a1.311,1.311,0,0,1-1.312-1.312V36.746a1.312,1.312,0,0,1,2.624,0v6.566a1.311,1.311,0,0,1-1.312,1.312Z"/>
        <path id="Trazado_878457" data-name="Trazado 878457" d="M65.611,44.624A1.311,1.311,0,0,1,64.3,43.312V36.746a1.312,1.312,0,1,1,2.624,0v6.566a1.311,1.311,0,0,1-1.312,1.312Z"/>
        <path id="Trazado_878458" data-name="Trazado 878458" d="M41.991,57.74a1.311,1.311,0,0,1-1.312-1.312,5.254,5.254,0,0,1,5.249-5.248,1.312,1.312,0,1,1,0,2.624A2.627,2.627,0,0,0,43.3,56.428a1.311,1.311,0,0,1-1.312,1.312Z"/>
        <path id="Trazado_878459" data-name="Trazado 878459" d="M52.489,53.813H45.928a1.312,1.312,0,0,1,0-2.624h6.561a1.312,1.312,0,0,1,0,2.624Z"/>
        <path id="Trazado_878460" data-name="Trazado 878460" d="M41.991,83.991a1.311,1.311,0,0,1-1.312-1.312V56.428a1.312,1.312,0,1,1,2.624,0V82.679a1.311,1.311,0,0,1-1.312,1.312Z"/>
        <path id="Trazado_878461" data-name="Trazado 878461" d="M70.86,57.74a1.311,1.311,0,0,1-1.312-1.312,2.627,2.627,0,0,0-2.624-2.623,1.312,1.312,0,0,1,0-2.624,5.254,5.254,0,0,1,5.249,5.248A1.311,1.311,0,0,1,70.86,57.74Z"/>
        <path id="Trazado_878462" data-name="Trazado 878462" d="M66.923,53.813H60.362a1.312,1.312,0,0,1,0-2.624h6.561a1.312,1.312,0,0,1,0,2.624Z"/>
        <path id="Trazado_878463" data-name="Trazado 878463" d="M70.86,83.991a1.311,1.311,0,0,1-1.312-1.312V56.428a1.312,1.312,0,1,1,2.624,0V82.679a1.311,1.311,0,0,1-1.312,1.312Z"/>
        <path id="Trazado_878464" data-name="Trazado 878464" d="M56.426,53.8a10.508,10.508,0,0,1-10.5-10.494,1.312,1.312,0,0,1,2.624,0,7.873,7.873,0,0,0,15.747,0,1.312,1.312,0,1,1,2.624,0A10.508,10.508,0,0,1,56.426,53.8Z"/>
        <path id="Trazado_878465" data-name="Trazado 878465" d="M60.362,53.8H52.489a1.312,1.312,0,0,1,0-2.624h7.873a1.312,1.312,0,1,1,0,2.624Z"/>
        <path id="Trazado_878466" data-name="Trazado 878466" d="M64.3,64.308H48.552a1.312,1.312,0,0,1,0-2.624H64.3a1.312,1.312,0,0,1,0,2.624Z"/>
        <path id="Trazado_878467" data-name="Trazado 878467" d="M64.3,72.181H48.552a1.312,1.312,0,1,1,0-2.624H64.3a1.312,1.312,0,0,1,0,2.624Z"/>
        <path id="Trazado_878468" data-name="Trazado 878468" d="M64.3,80.054H48.552a1.312,1.312,0,1,1,0-2.624H64.3a1.312,1.312,0,0,1,0,2.624Z"/>
        <path id="Trazado_878469" data-name="Trazado 878469" d="M13.122,39.369a1.311,1.311,0,0,1-1.312-1.312v-.651a1.312,1.312,0,1,1,2.624,0v.651a1.311,1.311,0,0,1-1.312,1.312Z"/>
        <path id="Trazado_878470" data-name="Trazado 878470" d="M41.991,28.86A14.434,14.434,0,1,1,56.426,14.426,14.434,14.434,0,0,1,41.991,28.86Zm0-26.244A11.81,11.81,0,1,0,53.8,14.426a11.81,11.81,0,0,0-11.81-11.81Z"/>
        <path id="Trazado_878471" data-name="Trazado 878471" d="M52.489,23.611h-21a1.312,1.312,0,0,1,0-2.624h21a1.312,1.312,0,0,1,0,2.624Z"/>
        <path id="Trazado_878472" data-name="Trazado 878472" d="M35.43,22.3a1.311,1.311,0,0,1-1.312-1.312,3.941,3.941,0,0,1,3.937-3.937,1.312,1.312,0,0,1,0,2.624,1.313,1.313,0,0,0-1.312,1.312A1.311,1.311,0,0,1,35.43,22.3Z"/>
        <path id="Trazado_878473" data-name="Trazado 878473" d="M48.552,22.3a1.311,1.311,0,0,1-1.312-1.312,1.313,1.313,0,0,0-1.312-1.312,1.312,1.312,0,1,1,0-2.624,3.941,3.941,0,0,1,3.937,3.937A1.311,1.311,0,0,1,48.552,22.3Z"/>
        <path id="Trazado_878474" data-name="Trazado 878474" d="M45.928,19.674H38.054a1.312,1.312,0,1,1,0-2.624h7.873a1.312,1.312,0,0,1,0,2.624Z"/>
        <path id="Trazado_878475" data-name="Trazado 878475" d="M48.552,23.611A1.311,1.311,0,0,1,47.24,22.3V20.987a1.312,1.312,0,0,1,2.624,0V22.3a1.311,1.311,0,0,1-1.312,1.312Z"/>
        <path id="Trazado_878476" data-name="Trazado 878476" d="M35.43,23.611A1.311,1.311,0,0,1,34.118,22.3V20.987a1.312,1.312,0,1,1,2.624,0V22.3a1.311,1.311,0,0,1-1.312,1.312Z"/>
        <path id="Trazado_878477" data-name="Trazado 878477" d="M41.991,19.674a1.311,1.311,0,0,1-1.312-1.312V11.829a1.312,1.312,0,0,1,2.624,0v6.533a1.311,1.311,0,0,1-1.312,1.312Z"/>
        <path id="Trazado_878478" data-name="Trazado 878478" d="M49.864,13.142a1.311,1.311,0,0,1-1.312-1.312,2.624,2.624,0,1,0-5.249,0,1.312,1.312,0,1,1-2.624,0,5.249,5.249,0,0,1,10.5,0,1.311,1.311,0,0,1-1.312,1.312Z"/>
        <path id="Trazado_878479" data-name="Trazado 878479" d="M45.928,14.454a1.311,1.311,0,0,1-1.312-1.312.656.656,0,1,0-1.312,0,1.312,1.312,0,1,1-2.624,0,3.281,3.281,0,0,1,6.561,0,1.311,1.311,0,0,1-1.312,1.312Z"/>
        <path id="Trazado_878480" data-name="Trazado 878480" d="M41.991,13.142a1.311,1.311,0,0,1-1.312-1.312,2.624,2.624,0,1,0-5.249,0,1.312,1.312,0,1,1-2.624,0,5.249,5.249,0,0,1,10.5,0,1.311,1.311,0,0,1-1.312,1.312Z"/>
        <path id="Trazado_878481" data-name="Trazado 878481" d="M41.991,14.454a1.311,1.311,0,0,1-1.312-1.312.656.656,0,1,0-1.312,0,1.312,1.312,0,1,1-2.624,0,3.281,3.281,0,0,1,6.561,0,1.311,1.311,0,0,1-1.312,1.312Z"/>
        <path id="Trazado_878482" data-name="Trazado 878482" d="M78.733,83.991a1.311,1.311,0,0,1-1.312-1.312V68.244a1.312,1.312,0,1,1,2.624,0V82.679a1.311,1.311,0,0,1-1.312,1.312Z"/>
        <path id="Trazado_878483" data-name="Trazado 878483" d="M74.8,83.991a1.311,1.311,0,0,1-1.312-1.312V68.244a1.312,1.312,0,1,1,2.624,0V82.679A1.311,1.311,0,0,1,74.8,83.991Z"/>
      </g>
    </g>
  </g>
</svg>
