<svg xmlns="http://www.w3.org/2000/svg" xmlns:xlink="http://www.w3.org/1999/xlink" width="100" height="100" viewBox="0 0 100 100">
  <defs>
    <clipPath id="clip-path">
      <rect id="Rectángulo_403252" data-name="Rectángulo 403252" width="64" height="64" transform="translate(654 7010)" fill="#fff" stroke="#707070" stroke-width="1"/>
    </clipPath>
  </defs>
  <g id="Grupo_1101952" data-name="Grupo 1101952" transform="translate(-636 -6992)">
    <g id="Rectángulo_400898" data-name="Rectángulo 400898" transform="translate(636 6992)" fill="#fec009" stroke="#ffe69c" stroke-width="3" opacity="0.859">
      <rect width="100" height="100" rx="50" stroke="none"/>
      <rect x="1.5" y="1.5" width="97" height="97" rx="48.5" fill="none"/>
    </g>
    <g id="Rectángulo_400907" data-name="Rectángulo 400907" transform="translate(636 6992)" fill="none" stroke="#594303" stroke-linecap="round" stroke-width="2" stroke-dasharray="7">
      <rect width="100" height="100" rx="50" stroke="none"/>
      <rect x="1" y="1" width="98" height="98" rx="49" fill="none"/>
    </g>
    <g id="Enmascarar_grupo_1098801" data-name="Enmascarar grupo 1098801" clip-path="url(#clip-path)">
      <g id="redes-sociales" transform="translate(654 7010)">
        <g id="Grupo_1102095" data-name="Grupo 1102095">
          <g id="Grupo_1102075" data-name="Grupo 1102075">
            <path id="Trazado_878517" data-name="Trazado 878517" d="M54.71,42.323v5.161a1.035,1.035,0,0,1-1.032,1.032H51.613a1.035,1.035,0,0,1-1.032-1.032V42.323Z" fill="#969faa"/>
          </g>
          <g id="Grupo_1102076" data-name="Grupo 1102076">
            <path id="Trazado_878518" data-name="Trazado 878518" d="M54.71,34.065v8.258H48.516a2.071,2.071,0,0,1-2.065-2.065V36.129a2.071,2.071,0,0,1,2.065-2.065H54.71Z" fill="#ff826e"/>
          </g>
          <g id="Grupo_1102077" data-name="Grupo 1102077">
            <path id="Trazado_878519" data-name="Trazado 878519" d="M62.968,33.775v8.836a1.775,1.775,0,0,1-1.775,1.775,1.663,1.663,0,0,1-.557-.093L54.71,42.323V34.065l5.925-1.972A1.663,1.663,0,0,1,61.192,32a1.775,1.775,0,0,1,1.775,1.775Z" fill="#e6e9ed"/>
          </g>
          <g id="Grupo_1102078" data-name="Grupo 1102078">
            <path id="Trazado_878520" data-name="Trazado 878520" d="M62.968,12.387v6.194a1.035,1.035,0,0,1-1.032,1.032h-3.1v2.674a1.46,1.46,0,0,1-2.488,1.032l-3.706-3.706H47.484a1.035,1.035,0,0,1-1.032-1.032V12.387a1.035,1.035,0,0,1,1.032-1.032H61.935a1.035,1.035,0,0,1,1.032,1.032Z" fill="#e6e9ed"/>
          </g>
          <g id="Grupo_1102079" data-name="Grupo 1102079">
            <path id="Trazado_878521" data-name="Trazado 878521" d="M17.094,12.8a7.963,7.963,0,0,1,.454,2.684A8.262,8.262,0,0,1,10.157,23.7a8.126,8.126,0,0,1-.867.041,8.258,8.258,0,1,1,7.8-10.942Z" fill="#e6e9ed"/>
          </g>
          <g id="Grupo_1102080" data-name="Grupo 1102080">
            <path id="Trazado_878522" data-name="Trazado 878522" d="M12.387,15.484l-5.161,3.1V12.387Z" fill="#ff826e"/>
          </g>
          <g id="Grupo_1102081" data-name="Grupo 1102081">
            <path id="Trazado_878523" data-name="Trazado 878523" d="M10.323,37.161l4.862,4.862a1.047,1.047,0,0,1-.733.3H2.065a1.047,1.047,0,0,1-.733-.3l4.862-4.862.3.3a2.492,2.492,0,0,0,3.53,0Z" fill="#d3a06c"/>
          </g>
          <g id="Grupo_1102082" data-name="Grupo 1102082">
            <path id="Trazado_878524" data-name="Trazado 878524" d="M15.484,33.032V41.29a1.047,1.047,0,0,1-.3.733l-4.862-4.862L15.185,32.3A1.047,1.047,0,0,1,15.484,33.032Z" fill="#dfb28b"/>
          </g>
          <g id="Grupo_1102083" data-name="Grupo 1102083">
            <path id="Trazado_878525" data-name="Trazado 878525" d="M6.194,37.161,1.332,42.023a1.047,1.047,0,0,1-.3-.733V33.032a1.047,1.047,0,0,1,.3-.733Z" fill="#dfb28b"/>
          </g>
          <g id="Grupo_1102084" data-name="Grupo 1102084">
            <path id="Trazado_878526" data-name="Trazado 878526" d="M15.185,32.3l-4.862,4.862-.3.3a2.492,2.492,0,0,1-3.53,0l-.3-.3L1.332,32.3a1.047,1.047,0,0,1,.733-.3H14.452A1.047,1.047,0,0,1,15.185,32.3Z" fill="#cf9e76"/>
          </g>
          <g id="Grupo_1102085" data-name="Grupo 1102085">
            <path id="Trazado_878527" data-name="Trazado 878527" d="M16.434,46.462l4.212-.01V60.934H1.032V46.483Z" fill="#fcd770"/>
          </g>
          <g id="Grupo_1102086" data-name="Grupo 1102086">
            <path id="Trazado_878528" data-name="Trazado 878528" d="M39.288,10.653A2,2,0,0,0,38.049,11.8a2.038,2.038,0,0,0,.052,1.683l.465.919L37.11,15.855l-.919-.465a2.081,2.081,0,0,0-.9-.206,2.045,2.045,0,0,0-.785.155,2,2,0,0,0-1.146,1.239l-.32.97H30.957l-.32-.97a2,2,0,0,0-1.146-1.239,2.038,2.038,0,0,0-1.683.052l-.919.465L25.435,14.4l.465-.919a2.081,2.081,0,0,0,.206-.9,2.044,2.044,0,0,0-.155-.785,2,2,0,0,0-1.239-1.146l-.97-.32V8.248l.97-.32a2,2,0,0,0,1.239-1.146A2.038,2.038,0,0,0,25.9,5.1l-.465-.919L26.89,2.725l.919.465a2.081,2.081,0,0,0,.9.206,2.045,2.045,0,0,0,.785-.155A2,2,0,0,0,30.637,2l.32-.97h2.085l.32.97a2,2,0,0,0,1.146,1.239,2.038,2.038,0,0,0,1.683-.052l.919-.465,1.455,1.455L38.1,5.1a2.081,2.081,0,0,0-.206.9,2.045,2.045,0,0,0,.155.785,2,2,0,0,0,1.239,1.146l.97.32v2.085ZM34.065,9.29A2.065,2.065,0,1,0,32,11.355,2.071,2.071,0,0,0,34.065,9.29Z" fill="#fcd770"/>
          </g>
          <g id="Grupo_1102087" data-name="Grupo 1102087">
            <path id="Trazado_878529" data-name="Trazado 878529" d="M42.281,50.188a1.632,1.632,0,0,1,.041.392,2.08,2.08,0,0,1-2.065,2.065l-6.194.031V48.547l6.194-.031A2.07,2.07,0,0,1,42.281,50.188Z" fill="#f0d0b4"/>
          </g>
          <g id="Grupo_1102088" data-name="Grupo 1102088">
            <path id="Trazado_878530" data-name="Trazado 878530" d="M38.379,56.785l-4.315.021V52.676l6.194-.031a2.071,2.071,0,0,1,2.065,2.065,2.08,2.08,0,0,1-2.065,2.065l-1.858.01Z" fill="#f0d0b4"/>
          </g>
          <g id="Grupo_1102089" data-name="Grupo 1102089">
            <path id="Trazado_878531" data-name="Trazado 878531" d="M38.4,56.785a2.07,2.07,0,0,1,1.858,2.054A2.08,2.08,0,0,1,38.194,60.9H34.065v-4.1l4.315-.021Z" fill="#f0d0b4"/>
          </g>
          <g id="Grupo_1102090" data-name="Grupo 1102090">
            <path id="Trazado_878532" data-name="Trazado 878532" d="M35.1,46.452a3.063,3.063,0,0,0,2.911-2.065h2.25a2.08,2.08,0,0,1,2.065,2.065,2.071,2.071,0,0,1-2.065,2.065l-6.194.031v-2.1Z" fill="#f0d0b4"/>
          </g>
          <g id="Grupo_1102091" data-name="Grupo 1102091">
            <path id="Trazado_878533" data-name="Trazado 878533" d="M29.925,46.472l.01.01V60.934h-9.29V46.452a7.475,7.475,0,0,1,6.679-4.129h9.837a1.035,1.035,0,0,1,1.032,1.032,2.861,2.861,0,0,1-.186,1.032A3.063,3.063,0,0,1,35.1,46.452H29.935C29.935,46.462,29.925,46.462,29.925,46.472Z" fill="#f0d0b4"/>
          </g>
          <g id="Grupo_1102092" data-name="Grupo 1102092">
            <path id="Trazado_878534" data-name="Trazado 878534" d="M34.065,60.9v1.032a1.035,1.035,0,0,1-1.032,1.032H30.968a1.035,1.035,0,0,1-1.032-1.032V46.483l-.01-.01c0-.01.01-.01.01-.021h4.129V60.9Z" fill="#969faa"/>
          </g>
          <g id="Grupo_1102093" data-name="Grupo 1102093">
            <path id="Trazado_878535" data-name="Trazado 878535" d="M32,17.548A12.387,12.387,0,1,1,19.613,29.935,12.384,12.384,0,0,1,32,17.548Z" fill="#ccd1d9"/>
          </g>
          <g id="Grupo_1102094" data-name="Grupo 1102094">
            <circle id="Elipse_11640" data-name="Elipse 11640" cx="8.258" cy="8.258" r="8.258" transform="translate(23.742 21.677)" fill="#69d6f4"/>
          </g>
        </g>
        <g id="Grupo_1102096" data-name="Grupo 1102096">
          <path id="Trazado_878536" data-name="Trazado 878536" d="M32,20.645a9.29,9.29,0,1,0,9.29,9.29A9.3,9.3,0,0,0,32,20.645Zm0,16.516a7.226,7.226,0,1,1,7.226-7.226A7.235,7.235,0,0,1,32,37.161Z"/>
          <path id="Trazado_878537" data-name="Trazado 878537" d="M6.194,10.563V20.4l8.2-4.92Zm2.065,3.648,2.123,1.273L8.258,16.757Z"/>
          <path id="Trazado_878538" data-name="Trazado 878538" d="M49.548,14.452h2.065v2.065H49.548Z"/>
          <path id="Trazado_878539" data-name="Trazado 878539" d="M53.677,14.452h2.065v2.065H53.677Z"/>
          <path id="Trazado_878540" data-name="Trazado 878540" d="M57.806,14.452h2.065v2.065H57.806Z"/>
          <path id="Trazado_878541" data-name="Trazado 878541" d="M57.379,24.774a2.5,2.5,0,0,0,2.492-2.492V20.645h2.065A2.067,2.067,0,0,0,64,18.581V12.387a2.067,2.067,0,0,0-2.065-2.065H47.484a2.049,2.049,0,0,0-1.375.536A23.686,23.686,0,0,0,41.29,8.1V7.506L39.61,6.953a1,1,0,0,1-.581-1.39l.789-1.589-2.5-2.5-1.591.788a1,1,0,0,1-1.387-.58L33.785,0H30.214l-.552,1.681a1,1,0,0,1-1.39.581l-1.588-.789-2.5,2.5.789,1.591A.984.984,0,0,1,25,6.39a1,1,0,0,1-.607.563l-1.682.553v.6A23.628,23.628,0,0,0,17.5,11.156a9.285,9.285,0,1,0-8.67,13.6,23.819,23.819,0,0,0-.576,5.184c0,.345.032.687.046,1.032H2.065A2.067,2.067,0,0,0,0,33.032V41.29a2.067,2.067,0,0,0,2.065,2.065h10.36a23.861,23.861,0,0,0,1.6,2.075L0,45.451V61.965H28.906A2.065,2.065,0,0,0,30.968,64h2.065A2.067,2.067,0,0,0,35.1,61.935h3.1a3.087,3.087,0,0,0,2.87-4.249,3.069,3.069,0,0,0,1.486-5.042,3.065,3.065,0,0,0,.785-1.855,23.922,23.922,0,0,0,6.215-4.868v1.562a2.067,2.067,0,0,0,2.065,2.065h2.065a2.067,2.067,0,0,0,2.065-2.065V43.755l4.565,1.523a2.857,2.857,0,0,0,.884.141A2.812,2.812,0,0,0,64,42.611V33.775a2.807,2.807,0,0,0-3.7-2.664l-4.739,1.579a24.033,24.033,0,0,0,.178-2.755,23.664,23.664,0,0,0-.969-6.735l.844.844a2.509,2.509,0,0,0,1.762.73Zm-9.9-12.387H61.935l0,6.194H57.806v3.7a.444.444,0,0,1-.73.3l-4-4H47.484ZM24.774,9l.263-.087A3.06,3.06,0,0,0,26.82,4.645l-.129-.26.4-.4.258.129a3.063,3.063,0,0,0,4.27-1.784l.085-.261h.582l.087.263A3.06,3.06,0,0,0,36.645,4.11l.26-.129.4.4-.129.258a3.063,3.063,0,0,0,1.784,4.27L39.226,9v.582l-.263.087a3.06,3.06,0,0,0-1.783,4.267l.129.26-.4.4-.258-.129a3.063,3.063,0,0,0-4.27,1.784l-.085.259h-.584l-.086-.26a3.06,3.06,0,0,0-4.267-1.783l-.26.129-.4-.4.129-.258a3.063,3.063,0,0,0-1.784-4.27l-.26-.086ZM35.1,49.573l5.161-.025a1.032,1.032,0,1,1-.005,2.065l-5.156.025Zm5.156-2.089-5.156.025v-.025a4.116,4.116,0,0,0,3.555-2.065h1.606a1.032,1.032,0,1,1-.005,2.065Zm-3.092-4.129A2.067,2.067,0,0,1,35.1,45.419H29.3l-.285.571a5.938,5.938,0,0,1-2.635,2.635l.924,1.847a7.918,7.918,0,0,0,1.6-1.085V59.9H21.678V46.7a6.4,6.4,0,0,1,5.647-3.35ZM32,41.29A11.355,11.355,0,1,1,43.355,29.935,11.368,11.368,0,0,1,32,41.29ZM2.065,15.484A7.226,7.226,0,1,1,9.29,22.71,7.235,7.235,0,0,1,2.065,15.484ZM4.734,37.161,2.065,39.831V34.493Zm1.5,1.418a3.49,3.49,0,0,0,4.046,0l2.711,2.711H3.524Zm8.219,1.253-2.671-2.671,2.669-2.671Zm-5.163-3.1a1.5,1.5,0,0,1-2.065,0l-3.7-3.7H12.99Zm5.646,6.557a2.064,2.064,0,0,0,1.579-2V33.032a2.067,2.067,0,0,0-2.065-2.065H10.369c-.017-.345-.046-.687-.046-1.032a21.742,21.742,0,0,1,.672-5.325,9.243,9.243,0,0,0,7.285-11.434,21.6,21.6,0,0,1,4.43-2.82v.719l1.681.552a1,1,0,0,1,.581,1.39l-.789,1.589,2.5,2.5,1.591-.789a.953.953,0,0,1,1.3.428,13.4,13.4,0,0,0-4.268,24.8,8.409,8.409,0,0,0-5.246,3.873l-3.209.005a21.79,21.79,0,0,1-1.912-2.135ZM2.065,47.512l17.548-.027V59.9H2.065Zm28.9,14.424V47.484h2.065V61.935Zm7.226-2.065H35.1v-2.04l3.145-.015a1.028,1.028,0,0,1-.049,2.055Zm2.059-4.129-1.964.009c-.032,0-.063-.009-.095-.009v.01l-3.1.015V53.7l5.161-.026a1.032,1.032,0,1,1-.005,2.065Zm2.5-6.984a2.982,2.982,0,0,0-.2-.242,3.084,3.084,0,0,0-2.292-5.161H39.226a2.054,2.054,0,0,0-.817-1.633,13.41,13.41,0,0,0-3.981-24.974.956.956,0,0,1,1.3-.428l1.589.789,2.5-2.5-.789-1.591A.984.984,0,0,1,39,12.191a1,1,0,0,1,.607-.563l1.682-.553V10.35a21.6,21.6,0,0,1,4.129,2.577v5.654a2.067,2.067,0,0,0,2.065,2.065h4.1a21.449,21.449,0,0,1,2.1,9.29,21.819,21.819,0,0,1-.242,3.1h-4.92a3.1,3.1,0,0,0-3.1,3.1v4.129a3.1,3.1,0,0,0,3.1,3.1h.5A21.874,21.874,0,0,1,42.749,48.758Zm5.767-7.467a1.033,1.033,0,0,1-1.032-1.032V36.129A1.033,1.033,0,0,1,48.516,35.1h5.161V41.29Zm3.1,6.194V43.355h2.065v4.129Zm9.341-14.412a.754.754,0,0,1,.982.705v8.835a.766.766,0,0,1-.979.707l-5.215-1.74V34.808Z"/>
          <path id="Trazado_878542" data-name="Trazado 878542" d="M32,12.387a3.1,3.1,0,1,0-3.1-3.1A3.1,3.1,0,0,0,32,12.387Zm0-4.129A1.032,1.032,0,1,1,30.968,9.29,1.033,1.033,0,0,1,32,8.258Z"/>
        </g>
      </g>
    </g>
  </g>
</svg>
