<svg xmlns="http://www.w3.org/2000/svg" xmlns:xlink="http://www.w3.org/1999/xlink" width="117" height="117" viewBox="0 0 117 117">
  <defs>
    <clipPath id="clip-path">
      <rect id="Rectángulo_403250" data-name="Rectángulo 403250" width="82" height="82" transform="translate(-0.354 -0.353)" fill="#fff" stroke="#707070" stroke-width="1"/>
    </clipPath>
  </defs>
  <g id="Grupo_1101980" data-name="Grupo 1101980" transform="translate(-389 -6445)">
    <circle id="Elipse_11630" data-name="Elipse 11630" cx="58.5" cy="58.5" r="58.5" transform="translate(389 6445)" fill="#4e93ee"/>
    <g id="Enmascarar_grupo_1098773" data-name="Enmascarar grupo 1098773" transform="translate(407.354 6463.353)" clip-path="url(#clip-path)">
      <g id="ubicacion2" transform="translate(0.019 0.024)">
        <path id="Trazado_877944" data-name="Trazado 877944" d="M56.676,40.64h9.942A3.93,3.93,0,0,1,70.371,43.4L81.149,78.132A3.412,3.412,0,0,1,77.9,82.556H6.122a3.407,3.407,0,0,1-3.259-4.417L13.64,43.411a3.93,3.93,0,0,1,3.753-2.772h9.942" transform="translate(-1.397 -2.653)" fill="#fec009"/>
        <path id="Trazado_877945" data-name="Trazado 877945" d="M66.441,54.242a3.93,3.93,0,0,0-3.753-2.765H13.463a3.913,3.913,0,0,0-2.5.917l-8.1,26.1a3.408,3.408,0,0,0,3.259,4.423H75.339Z" transform="translate(-1.397 -3.012)" fill="#ffe69c"/>
        <g id="Grupo_1101882" data-name="Grupo 1101882" transform="translate(10.481 43.226)">
          <path id="Trazado_877946" data-name="Trazado 877946" d="M18.965,46.058H35.732v2.62H18.965Z" transform="translate(-12.416 -46.058)" fill="#f0ae42"/>
          <path id="Trazado_877947" data-name="Trazado 877947" d="M50.393,46.058H67.16v2.62H50.393Z" transform="translate(-13.455 -46.058)" fill="#f0ae42"/>
          <path id="Trazado_877948" data-name="Trazado 877948" d="M12.192,77.215H72.446v2.62H12.192Z" transform="translate(-12.192 -47.088)" fill="#f0ae42"/>
          <path id="Trazado_877949" data-name="Trazado 877949" d="M20.32,71.8H64.856v2.62H20.32Z" transform="translate(-12.461 -46.909)" fill="#f0ae42"/>
        </g>
        <path id="Trazado_877950" data-name="Trazado 877950" d="M42.633,57.724,58.681,37.663a22.407,22.407,0,0,0,4.909-14,20.958,20.958,0,0,0-41.916,0,22.406,22.406,0,0,0,4.909,14Z" transform="translate(-2.024 -1.399)" fill="#81c74d"/>
        <path id="Trazado_877951" data-name="Trazado 877951" d="M48.661,51.978c6.5,1.107,11.134,3.991,11.134,7.375,0,4.341-7.623,7.859-17.028,7.859s-17.028-3.518-17.028-7.859c0-3.383,4.632-6.268,11.134-7.375l5.894,7.375Z" transform="translate(-2.159 -3.028)" fill="#dc1b12"/>
        <circle id="Elipse_11631" data-name="Elipse 11631" cx="15.719" cy="15.719" r="15.719" transform="translate(24.89 6.549)" fill="#6bc13b"/>
        <path id="Trazado_877952" data-name="Trazado 877952" d="M27.588,28a15.758,15.758,0,0,1,2.455-13.1H34.3a3.275,3.275,0,1,1,0,6.549,1.965,1.965,0,0,0-1.965,1.965A4.585,4.585,0,0,1,27.748,28Z" transform="translate(-2.203 -1.802)" fill="#3d54bd"/>
        <path id="Trazado_877953" data-name="Trazado 877953" d="M54.929,34.5H51.074a2.62,2.62,0,0,1-2.62-2.62,2.62,2.62,0,0,0-2.62-2.62H41.9a2.62,2.62,0,1,1,0-5.24h3.93a2.62,2.62,0,0,0,0-5.24,2.62,2.62,0,1,1,0-5.239h9.1a15.719,15.719,0,0,1,0,20.958Z" transform="translate(-2.606 -1.758)" fill="#3d54bd"/>
        <path id="Trazado_877954" data-name="Trazado 877954" d="M82.355,76.446,71.577,41.717a5.215,5.215,0,0,0-5-3.686H59.328a23.787,23.787,0,0,0,4.9-14.409,22.268,22.268,0,0,0-44.536,0,23.787,23.787,0,0,0,4.9,14.409H17.348a5.215,5.215,0,0,0-5,3.686L1.567,76.446a4.716,4.716,0,0,0,4.51,6.121H77.851a4.716,4.716,0,0,0,4.51-6.121ZM41.961,3.974A19.67,19.67,0,0,1,61.609,23.623,21.172,21.172,0,0,1,56.986,36.8L41.961,55.583,26.935,36.8a21.171,21.171,0,0,1-4.623-13.179A19.67,19.67,0,0,1,41.961,3.974ZM40.938,58.5a1.31,1.31,0,0,0,2.046,0l5.407-6.759c5.424,1.078,9.288,3.52,9.288,5.942,0,3.1-6.455,6.549-15.718,6.549s-15.719-3.452-15.719-6.549c0-2.422,3.864-4.864,9.288-5.942ZM77.851,79.947H6.077a2.1,2.1,0,0,1-2.008-2.726L14.846,42.494a2.607,2.607,0,0,1,2.5-1.843h9.313l3.144,3.93H18.383V47.2H31.9l1.808,2.26c-6.19,1.509-10.086,4.62-10.086,8.219,0,5.141,8.054,9.169,18.338,9.169S60.3,62.821,60.3,57.679c0-3.6-3.9-6.71-10.086-8.219l1.808-2.26H65.538v-2.62H54.116l3.144-3.93h9.313a2.607,2.607,0,0,1,2.5,1.843L79.853,77.221a2.1,2.1,0,0,1-2,2.726Z" transform="translate(-1.352 -1.355)"/>
        <path id="Trazado_877955" data-name="Trazado 877955" d="M42.767,40.83A17.028,17.028,0,1,0,25.738,23.8,17.028,17.028,0,0,0,42.767,40.83ZM57.175,23.8a14.342,14.342,0,0,1-3.3,9.169H50.626a1.31,1.31,0,0,1-1.31-1.31,3.93,3.93,0,0,0-3.93-3.93h-3.93a1.31,1.31,0,1,1,0-2.62h3.93a3.93,3.93,0,0,0,0-7.859,1.31,1.31,0,0,1,0-2.62h8.487a14.342,14.342,0,0,1,3.3,9.169Zm-6.15-11.789H45.387a3.93,3.93,0,0,0,0,7.859,1.31,1.31,0,1,1,0,2.62h-3.93a3.93,3.93,0,0,0,0,7.859h3.93a1.31,1.31,0,0,1,1.31,1.31,3.93,3.93,0,0,0,3.93,3.93h.393A14.367,14.367,0,0,1,29.275,28.8,5.887,5.887,0,0,0,33.6,23.147a.655.655,0,0,1,.655-.655,4.585,4.585,0,0,0,0-9.169H32.909A14.329,14.329,0,0,1,51.026,12.013Zm-20.32,3.93h3.547a1.965,1.965,0,0,1,0,3.93,3.275,3.275,0,0,0-3.275,3.275,3.275,3.275,0,0,1-2.391,3.144A14.147,14.147,0,0,1,30.706,15.942Z" transform="translate(-2.159 -1.534)"/>
        <path id="Trazado_877956" data-name="Trazado 877956" d="M12.192,77.215H72.446v2.62H12.192Z" transform="translate(-1.711 -3.862)"/>
        <path id="Trazado_877957" data-name="Trazado 877957" d="M20.32,71.8H64.856v2.62H20.32Z" transform="translate(-1.979 -3.683)"/>
      </g>
    </g>
  </g>
</svg>
