<svg xmlns="http://www.w3.org/2000/svg" xmlns:xlink="http://www.w3.org/1999/xlink" width="85" height="85" viewBox="0 0 85 85">
  <defs>
    <clipPath id="clip-path">
      <rect id="Rectángulo_403250" data-name="Rectángulo 403250" width="60" height="59" transform="translate(402 6458.336)" fill="#fff" stroke="#707070" stroke-width="1"/>
    </clipPath>
  </defs>
  <g id="Grupo_1101965" data-name="Grupo 1101965" transform="translate(-389 -6445.336)">
    <circle id="Elipse_11630" data-name="Elipse 11630" cx="42.5" cy="42.5" r="42.5" transform="translate(389 6445.336)" fill="#4e93ee"/>
    <g id="Enmascarar_grupo_1098808" data-name="Enmascarar grupo 1098808" clip-path="url(#clip-path)">
      <g id="carpeta" transform="translate(402.5 6458.336)">
        <path id="Trazado_878645" data-name="Trazado 878645" d="M44.28,32.271H28.418a1.847,1.847,0,0,1-1.306-.541l-2.342-2.342a2.771,2.771,0,0,0-1.959-.812H14.72a2.771,2.771,0,0,0-2.771,2.771V55.365a2.771,2.771,0,0,0,2.771,2.771H44.28a2.771,2.771,0,0,0,2.771-2.771V35.043a2.771,2.771,0,0,0-2.771-2.771Z" fill="#ffe09f"/>
        <path id="Trazado_878646" data-name="Trazado 878646" d="M46.881,55.365H19.339a4.624,4.624,0,0,1-4.619-4.619V28.576a2.771,2.771,0,0,0-2.771,2.771V55.365a2.771,2.771,0,0,0,2.771,2.771H44.28a2.771,2.771,0,0,0,2.771-2.771h-.17Z" fill="#f6d190"/>
        <path id="Trazado_878647" data-name="Trazado 878647" d="M47.683,56.241l6.353-19.059a.924.924,0,0,0-.876-1.216H21.336a2.771,2.771,0,0,0-2.629,1.895L12.382,56.839a2.763,2.763,0,0,0,2.339,1.3H45.054A2.772,2.772,0,0,0,47.683,56.241Z" fill="#ecbd83"/>
        <path id="Trazado_878648" data-name="Trazado 878648" d="M11.025.864H3.635a.924.924,0,0,0-.924.924v14.78a.924.924,0,0,0,.924.924H14.72a.924.924,0,0,0,.924-.924V5.483Z" fill="#eceaec"/>
        <circle id="Elipse_11666" data-name="Elipse 11666" cx="1.847" cy="1.847" r="1.847" transform="translate(27.653 21.186)" fill="#b6b1b7"/>
        <path id="Trazado_878649" data-name="Trazado 878649" d="M5.483,11.949V.864H3.635a.924.924,0,0,0-.924.924v14.78a.924.924,0,0,0,.924.924H14.72a.924.924,0,0,0,.924-.924V14.72H8.254a2.771,2.771,0,0,1-2.771-2.771Z" fill="#dad8db"/>
        <path id="Trazado_878650" data-name="Trazado 878650" d="M11.025,4.559a.924.924,0,0,0,.924.924h3.7L11.025.864Z" fill="#dad8db"/>
        <path id="Trazado_878651" data-name="Trazado 878651" d="M19.339,55.365a4.624,4.624,0,0,1-4.619-4.619v-.924l-2.339,7.017a2.763,2.763,0,0,0,2.339,1.3H45.054a2.771,2.771,0,0,0,2.629-1.895l.292-.876Z" fill="#e2a975"/>
        <path id="Trazado_878652" data-name="Trazado 878652" d="M31.348.864h-7.39a.924.924,0,0,0-.924.924v14.78a.924.924,0,0,0,.924.924H35.043a.924.924,0,0,0,.924-.924V5.483Z" fill="#eceaec"/>
        <path id="Trazado_878653" data-name="Trazado 878653" d="M25.805,11.949V.864H23.958a.924.924,0,0,0-.924.924v14.78a.924.924,0,0,0,.924.924H35.043a.924.924,0,0,0,.924-.924V14.72h-7.39a2.771,2.771,0,0,1-2.771-2.771Z" fill="#dad8db"/>
        <path id="Trazado_878654" data-name="Trazado 878654" d="M31.348,4.559a.924.924,0,0,0,.924.924h3.7L31.348.864Z" fill="#dad8db"/>
        <path id="Trazado_878655" data-name="Trazado 878655" d="M51.67.864H44.28a.924.924,0,0,0-.924.924v14.78a.924.924,0,0,0,.924.924H55.365a.924.924,0,0,0,.924-.924V5.483Z" fill="#eceaec"/>
        <path id="Trazado_878656" data-name="Trazado 878656" d="M46.127,11.949V.864H44.28a.924.924,0,0,0-.924.924v14.78a.924.924,0,0,0,.924.924H55.365a.924.924,0,0,0,.924-.924V14.72H48.9a2.771,2.771,0,0,1-2.771-2.771Z" fill="#dad8db"/>
        <path id="Trazado_878657" data-name="Trazado 878657" d="M51.67,4.559a.924.924,0,0,0,.924.924h3.7L51.67.864Z" fill="#dad8db"/>
        <path id="Trazado_878658" data-name="Trazado 878658" d="M43.356,52.653H36.89a.864.864,0,0,0,0,1.729h6.466a.864.864,0,1,0,0-1.729Z"/>
        <path id="Trazado_878659" data-name="Trazado 878659" d="M45.2,48.958H38.737a.864.864,0,0,0,0,1.729H45.2a.864.864,0,0,0,0-1.729Z"/>
        <path id="Trazado_878660" data-name="Trazado 878660" d="M6.407,10.042h4.619a.864.864,0,0,0,0-1.729H6.407a.864.864,0,1,0,0,1.729Z"/>
        <path id="Trazado_878661" data-name="Trazado 878661" d="M11.89,12.873a.864.864,0,0,0-.864-.864H6.407a.864.864,0,1,0,0,1.729h4.619A.864.864,0,0,0,11.89,12.873Z"/>
        <path id="Trazado_878662" data-name="Trazado 878662" d="M26.729,10.042h4.619a.864.864,0,1,0,0-1.729H26.729a.864.864,0,1,0,0,1.729Z"/>
        <path id="Trazado_878663" data-name="Trazado 878663" d="M32.212,12.873a.864.864,0,0,0-.864-.864H26.729a.864.864,0,1,0,0,1.729h4.619A.864.864,0,0,0,32.212,12.873Z"/>
        <path id="Trazado_878664" data-name="Trazado 878664" d="M56.9,4.872,52.281.253A.864.864,0,0,0,51.67,0H44.28a1.79,1.79,0,0,0-1.788,1.788v14.78a1.79,1.79,0,0,0,1.788,1.788h4.678v2.831a.984.984,0,0,1-.983.983H32.07a2.724,2.724,0,0,0-1.705-1.705V18.356h4.678a1.79,1.79,0,0,0,1.788-1.788V5.483a.864.864,0,0,0-.253-.611L31.959.253A.864.864,0,0,0,31.348,0h-7.39A1.79,1.79,0,0,0,22.17,1.788v14.78a1.79,1.79,0,0,0,1.788,1.788h4.678v2.108A2.724,2.724,0,0,0,26.93,22.17H11.025a.984.984,0,0,1-.983-.983V18.356H14.72a1.79,1.79,0,0,0,1.788-1.788V5.483a.864.864,0,0,0-.253-.611L11.636.253A.864.864,0,0,0,11.025,0H3.635A1.79,1.79,0,0,0,1.847,1.788v14.78a1.79,1.79,0,0,0,1.788,1.788H8.314v2.831A2.715,2.715,0,0,0,11.025,23.9H26.93A2.724,2.724,0,0,0,28.636,25.6v5.8a1.891,1.891,0,0,1-1.184-.551L25.38,28.777a3.612,3.612,0,0,0-2.571-1.065H14.72a3.639,3.639,0,0,0-3.635,3.635V55.365A3.639,3.639,0,0,0,14.72,59H45.054A3.631,3.631,0,0,0,48.5,56.514l6.353-19.059a1.788,1.788,0,0,0-1.7-2.353H47.915v-.059a3.639,3.639,0,0,0-3.635-3.635H33.195a.864.864,0,1,0,0,1.729H44.28a1.909,1.909,0,0,1,1.907,1.907V35.1H30.364V25.6A2.724,2.724,0,0,0,32.07,23.9H47.975a2.715,2.715,0,0,0,2.712-2.712V18.356h4.678a1.79,1.79,0,0,0,1.788-1.788V5.483a.864.864,0,0,0-.253-.611ZM32.212,2.951,33.88,4.619H32.271a.059.059,0,0,1-.059-.059ZM23.9,16.568V1.788a.059.059,0,0,1,.059-.059h6.526V4.559a1.79,1.79,0,0,0,1.788,1.788H35.1V16.568a.059.059,0,0,1-.059.059H23.958a.059.059,0,0,1-.059-.059ZM11.89,2.951l1.668,1.668H11.949a.059.059,0,0,1-.059-.059ZM3.576,16.568V1.788a.059.059,0,0,1,.059-.059h6.526V4.559a1.79,1.79,0,0,0,1.788,1.788H14.78V16.568a.06.06,0,0,1-.06.059H3.635a.059.059,0,0,1-.059-.059ZM29.5,22.051a.984.984,0,0,1,.983.982v0a.983.983,0,1,1-.983-.985Zm23.707,14.8a.054.054,0,0,1,.008.054L46.863,55.968a1.9,1.9,0,0,1-1.809,1.3H14.72a1.9,1.9,0,0,1-1.376-.59l6.183-18.548a1.9,1.9,0,0,1,1.809-1.3H53.159a.054.054,0,0,1,.048.025ZM21.336,35.1a3.631,3.631,0,0,0-3.449,2.486L12.813,52.81V31.348a1.909,1.909,0,0,1,1.907-1.907h8.09A1.894,1.894,0,0,1,24.158,30l2.072,2.072a3.609,3.609,0,0,0,2.406,1.061V35.1Zm31.2-32.151L54.2,4.619H52.594a.059.059,0,0,1-.059-.059Zm2.831,13.677H44.28a.06.06,0,0,1-.06-.059V1.788a.06.06,0,0,1,.06-.059h6.526V4.559a1.79,1.79,0,0,0,1.788,1.788h2.831V16.568a.06.06,0,0,1-.059.06Z"/>
        <path id="Trazado_878665" data-name="Trazado 878665" d="M51.67,8.314H47.051a.864.864,0,1,0,0,1.729H51.67a.864.864,0,1,0,0-1.729Z"/>
        <path id="Trazado_878666" data-name="Trazado 878666" d="M51.67,12.009H47.051a.864.864,0,1,0,0,1.729H51.67a.864.864,0,1,0,0-1.729Z"/>
      </g>
    </g>
  </g>
</svg>
