<svg xmlns="http://www.w3.org/2000/svg" xmlns:xlink="http://www.w3.org/1999/xlink" width="121" height="121" viewBox="0 0 121 121">
  <defs>
    <clipPath id="clip-path">
      <rect id="Rectángulo_403250" data-name="Rectángulo 403250" width="84" height="84" transform="translate(408 6464)" fill="#fff" stroke="#707070" stroke-width="1"/>
    </clipPath>
  </defs>
  <g id="Grupo_1102418" data-name="Grupo 1102418" transform="translate(-389 -6445)">
    <circle id="Elipse_11630" data-name="Elipse 11630" cx="60.5" cy="60.5" r="60.5" transform="translate(389 6445)" fill="#4e93ee"/>
    <g id="Enmascarar_grupo_1098841" data-name="Enmascarar grupo 1098841" clip-path="url(#clip-path)">
      <g id="religion" transform="translate(408 6464)">
        <path id="Trazado_879460" data-name="Trazado 879460" d="M34.539,80.806V46.2H16.871V30.26H34.539V16.394H50.48V30.26H68.148V46.2H50.48V80.806Z" fill="#ba7052"/>
        <path id="Trazado_879461" data-name="Trazado 879461" d="M45.144,48.267v-7.4H62.812V35.6H45.144V21.73H39.875V35.6H22.207v5.269H39.875V75.47h5.269Z" fill="#e2d0c5"/>
        <g id="Grupo_1102437" data-name="Grupo 1102437">
          <path id="Trazado_879462" data-name="Trazado 879462" d="M74.845,78.678a16.273,16.273,0,1,1,0-32.545,16.45,16.45,0,0,1,1.732.093,20.344,20.344,0,1,0,0,32.36A16.441,16.441,0,0,1,74.845,78.678Z" fill="#efd873"/>
          <path id="Trazado_879463" data-name="Trazado 879463" d="M74.418,54.319l2.573,5.213,5.753.836-4.163,4.058.983,5.73L74.418,67.45l-5.145,2.705.983-5.73-4.163-4.058,5.753-.836Z" fill="#efd873"/>
        </g>
        <path id="Trazado_879464" data-name="Trazado 879464" d="M50.544,79.62H35.725V59.571a1.251,1.251,0,0,0-2.5,0v21.3a1.251,1.251,0,0,0,1.251,1.251H50.544a1.251,1.251,0,1,0,0-2.5Z"/>
        <path id="Trazado_879465" data-name="Trazado 879465" d="M33.224,55.4a1.251,1.251,0,0,0,2.5,0V46.265a1.251,1.251,0,0,0-1.251-1.251H18.057V31.446H34.475A1.251,1.251,0,0,0,35.725,30.2V17.581H49.293V30.2a1.251,1.251,0,0,0,1.251,1.251H66.961v6.066a1.251,1.251,0,1,0,2.5,0V30.2a1.251,1.251,0,0,0-1.251-1.251H51.795V16.33a1.251,1.251,0,0,0-1.251-1.251H34.475a1.251,1.251,0,0,0-1.251,1.251V28.945H16.806A1.251,1.251,0,0,0,15.556,30.2V46.265a1.251,1.251,0,0,0,1.251,1.251H33.224V55.4Z"/>
        <path id="Trazado_879466" data-name="Trazado 879466" d="M62.812,39.263a1.251,1.251,0,0,0,1.251-1.251V35.6a1.251,1.251,0,0,0-1.251-1.251H46.394V21.73a1.251,1.251,0,0,0-1.251-1.251H39.875a1.251,1.251,0,0,0-1.251,1.251V34.345H22.207A1.251,1.251,0,0,0,20.956,35.6v5.269a1.251,1.251,0,0,0,1.251,1.251H38.624V75.47a1.251,1.251,0,0,0,1.251,1.251h3.768a1.251,1.251,0,1,0,0-2.5H41.126V40.864a1.251,1.251,0,0,0-1.251-1.251H23.457V36.846H39.875A1.251,1.251,0,0,0,41.126,35.6V22.981h2.767V35.6a1.251,1.251,0,0,0,1.251,1.251H61.561v1.166A1.251,1.251,0,0,0,62.812,39.263Z"/>
        <path id="Trazado_879467" data-name="Trazado 879467" d="M45.144,39.614a1.251,1.251,0,0,0-1.251,1.251v7.4a1.251,1.251,0,0,0,2.5,0V42.115h8.362a1.251,1.251,0,1,0,0-2.5Z"/>
        <path id="Trazado_879468" data-name="Trazado 879468" d="M76.446,77.342a15.261,15.261,0,0,1-1.6.086,14.935,14.935,0,0,1-10.533-4.311A1.251,1.251,0,1,0,62.559,74.9a17.406,17.406,0,0,0,9.707,4.841,19.093,19.093,0,1,1,0-34.67A17.529,17.529,0,0,0,59.816,71.421a1.251,1.251,0,1,0,2.144-1.289A15.026,15.026,0,0,1,74.845,47.384a15.271,15.271,0,0,1,1.6.086,1.251,1.251,0,0,0,.891-2.238,21.4,21.4,0,0,0-13.09-4.42,21.594,21.594,0,1,0,0,43.188,21.4,21.4,0,0,0,13.09-4.42,1.251,1.251,0,0,0-.89-2.238Z"/>
        <path id="Trazado_879469" data-name="Trazado 879469" d="M83.933,59.981a1.251,1.251,0,0,0-1.01-.851l-5.1-.741-2.282-4.623a1.251,1.251,0,0,0-2.243,0l-2.282,4.623-5.1.741a1.251,1.251,0,0,0-.693,2.133l3.692,3.6-.872,5.082a1.25,1.25,0,0,0,1.814,1.318l4.563-2.4,4.563,2.4A1.25,1.25,0,0,0,80.8,69.944l-.872-5.082,3.692-3.6A1.249,1.249,0,0,0,83.933,59.981ZM77.708,63.53a1.25,1.25,0,0,0-.36,1.107l.554,3.232L75,66.343a1.25,1.25,0,0,0-1.164,0l-2.9,1.526.554-3.232a1.25,1.25,0,0,0-.359-1.107L68.78,61.241l3.245-.472a1.251,1.251,0,0,0,.942-.684l1.451-2.94,1.451,2.94a1.251,1.251,0,0,0,.942.684l3.245.472Z"/>
        <path id="Trazado_879470" data-name="Trazado 879470" d="M12.919,27.173H29.745A1.251,1.251,0,0,0,30.828,25.3l-4.387-7.6,4.387-7.6a1.251,1.251,0,0,0-1.083-1.876H20.971L16.584.625a1.251,1.251,0,0,0-2.166,0l-4.387,7.6H1.256A1.251,1.251,0,0,0,.173,10.1l4.387,7.6L.173,25.3a1.251,1.251,0,0,0,1.083,1.876h8.774l2.239,3.878A1.251,1.251,0,0,0,14.436,29.8Zm14.661-2.5h-16.1L7.449,17.7l4.026-6.973h8.052L23.553,17.7l-2.389,4.137a1.251,1.251,0,1,0,2.166,1.251L25,20.2Zm0-13.947L25,15.2l-2.582-4.472ZM15.5,3.752l2.582,4.472H12.919ZM3.423,10.725H8.587L6,15.2Zm0,13.947L6,20.2l2.582,4.472Z"/>
      </g>
    </g>
  </g>
</svg>
