<svg xmlns="http://www.w3.org/2000/svg" xmlns:xlink="http://www.w3.org/1999/xlink" width="121" height="121" viewBox="0 0 121 121">
  <defs>
    <clipPath id="clip-path">
      <rect id="Rectángulo_403250" data-name="Rectángulo 403250" width="84" height="84" transform="translate(408 6464)" fill="#fff" stroke="#707070" stroke-width="1"/>
    </clipPath>
  </defs>
  <g id="Grupo_1101883" data-name="Grupo 1101883" transform="translate(-389 -6445)">
    <circle id="Elipse_11630" data-name="Elipse 11630" cx="60.5" cy="60.5" r="60.5" transform="translate(389 6445)" fill="#4e93ee"/>
    <g id="Enmascarar_grupo_1098797" data-name="Enmascarar grupo 1098797" clip-path="url(#clip-path)">
      <g id="entrevista-de-trabajo" transform="translate(408 6464)">
        <g id="Grupo_1102055" data-name="Grupo 1102055">
          <g id="Grupo_1102038" data-name="Grupo 1102038">
            <path id="Trazado_878386" data-name="Trazado 878386" d="M69.069,18.372a2.651,2.651,0,0,0-2.651-2.651H57.283a6.1,6.1,0,0,0-6.1,6.1V28.6H72.7V21.919a2.651,2.651,0,0,0-2.651-2.651h-.089a.9.9,0,0,1-.9-.9Z" fill="#efc984"/>
            <path id="Trazado_878387" data-name="Trazado 878387" d="M77.494,47.532l-8.721-2.561H55.12L46.4,47.532a7.343,7.343,0,0,0-5.275,7.046V68.515H82.769V54.578a7.343,7.343,0,0,0-5.275-7.046Z" fill="#4a80aa"/>
            <g id="Grupo_1102026" data-name="Grupo 1102026">
              <path id="Trazado_878388" data-name="Trazado 878388" d="M77.494,47.532l-8.721-2.561H58.45l-.008,2.513,8.721,2.56a7.344,7.344,0,0,1,5.275,7.046V68.515H82.769V54.578A7.343,7.343,0,0,0,77.494,47.532Z" fill="#407093"/>
            </g>
            <path id="Trazado_878389" data-name="Trazado 878389" d="M66.88,68.515l-3.2-14.287H60.2L57,68.515Z" fill="#dd636e"/>
            <g id="Grupo_1102036" data-name="Grupo 1102036">
              <g id="Grupo_1102033" data-name="Grupo 1102033">
                <g id="Grupo_1102032" data-name="Grupo 1102032">
                  <g id="Grupo_1102031" data-name="Grupo 1102031">
                    <g id="Grupo_1102030" data-name="Grupo 1102030">
                      <g id="Grupo_1102029" data-name="Grupo 1102029">
                        <g id="Grupo_1102028" data-name="Grupo 1102028">
                          <g id="Grupo_1102027" data-name="Grupo 1102027">
                            <path id="Trazado_878390" data-name="Trazado 878390" d="M66.735,47.381v-7.7H57.152v7.7c0,2.646,4.792,2.881,4.792,2.881S66.735,50.027,66.735,47.381Z" fill="#ffddce"/>
                          </g>
                        </g>
                      </g>
                    </g>
                  </g>
                </g>
              </g>
              <path id="Trazado_878391" data-name="Trazado 878391" d="M72.7,27.707H70.873a1.845,1.845,0,0,1-1.845-1.845V24.853A1.947,1.947,0,0,0,66.47,23a14.424,14.424,0,0,1-9.05,0h0a1.947,1.947,0,0,0-2.558,1.849v1.01a1.845,1.845,0,0,1-1.845,1.845H51.181v3.016a1.4,1.4,0,0,0,1.4,1.4.459.459,0,0,1,.456.433,8.928,8.928,0,0,0,17.819,0,.459.459,0,0,1,.456-.433,1.4,1.4,0,0,0,1.4-1.4Z" fill="#ffddce"/>
              <g id="Grupo_1102034" data-name="Grupo 1102034">
                <path id="Trazado_878392" data-name="Trazado 878392" d="M70.054,19.267h-.089a.9.9,0,0,1-.9-.9,2.651,2.651,0,0,0-2.651-2.651H62.326V28.6H72.7V21.918a2.651,2.651,0,0,0-2.651-2.651Z" fill="#eabc6b"/>
              </g>
              <g id="Grupo_1102035" data-name="Grupo 1102035">
                <path id="Trazado_878393" data-name="Trazado 878393" d="M70.873,27.707a1.845,1.845,0,0,1-1.845-1.845V24.853A1.947,1.947,0,0,0,66.47,23a14.419,14.419,0,0,1-4.145.721V33.6a8.727,8.727,0,0,1-3.219,6.853,8.928,8.928,0,0,0,11.747-7.9.459.459,0,0,1,.456-.433,1.4,1.4,0,0,0,1.4-1.4V27.707Z" fill="#ffcbbe"/>
              </g>
            </g>
            <g id="Grupo_1102037" data-name="Grupo 1102037">
              <path id="Trazado_878394" data-name="Trazado 878394" d="M55.284,44.46l-1.365.613a1.22,1.22,0,0,0-.364,1.975l3.779,3.785a1.305,1.305,0,0,0,1.747.067l2.964-2.476-5.052-3.776a1.7,1.7,0,0,0-1.71-.189Z" fill="#365e7d"/>
              <path id="Trazado_878395" data-name="Trazado 878395" d="M66.891,44.673l-4.845,3.752,2.785,2.382a1.305,1.305,0,0,0,1.753-.051l3.781-3.682a1.22,1.22,0,0,0-.355-1.989l-1.391-.62a1.7,1.7,0,0,0-1.728.208Z" fill="#365e7d"/>
            </g>
          </g>
          <path id="Trazado_878396" data-name="Trazado 878396" d="M79.363,82.693H20.617V65.354H82.769V79.286a3.406,3.406,0,0,1-3.406,3.406Z" fill="#ddb7a0"/>
          <path id="Trazado_878397" data-name="Trazado 878397" d="M72.377,65.354V80.9a1.8,1.8,0,0,1-1.8,1.8h8.782a3.406,3.406,0,0,0,3.406-3.406V65.354Z" fill="#d6a889"/>
          <g id="Grupo_1102053" data-name="Grupo 1102053">
            <g id="Grupo_1102052" data-name="Grupo 1102052">
              <g id="Grupo_1102051" data-name="Grupo 1102051">
                <g id="Grupo_1102050" data-name="Grupo 1102050">
                  <g id="Grupo_1102049" data-name="Grupo 1102049">
                    <g id="Grupo_1102048" data-name="Grupo 1102048">
                      <g id="Grupo_1102047" data-name="Grupo 1102047">
                        <g id="Grupo_1102046" data-name="Grupo 1102046">
                          <g id="Grupo_1102045" data-name="Grupo 1102045">
                            <g id="Grupo_1102044" data-name="Grupo 1102044">
                              <g id="Grupo_1102043" data-name="Grupo 1102043">
                                <g id="Grupo_1102042" data-name="Grupo 1102042">
                                  <g id="Grupo_1102041" data-name="Grupo 1102041">
                                    <g id="Grupo_1102040" data-name="Grupo 1102040">
                                      <g id="Grupo_1102039" data-name="Grupo 1102039">
                                        <path id="Trazado_878398" data-name="Trazado 878398" d="M26.14,60.745v-7.49h-9.32v7.49c0,2.573,4.66,2.8,4.66,2.8S26.14,63.319,26.14,60.745Z" fill="#ffddce"/>
                                      </g>
                                    </g>
                                  </g>
                                </g>
                              </g>
                            </g>
                          </g>
                        </g>
                      </g>
                    </g>
                  </g>
                </g>
              </g>
            </g>
            <path id="Trazado_878399" data-name="Trazado 878399" d="M34.805,46.457a21.85,21.85,0,0,1-.92-6.267v-.005a12.4,12.4,0,0,0-24.806,0v.005a21.85,21.85,0,0,1-.92,6.267,13.285,13.285,0,0,0-.56,3.812,5.481,5.481,0,0,0,3.683,5.18,31.1,31.1,0,0,0,20.4,0,5.481,5.481,0,0,0,3.683-5.18A13.291,13.291,0,0,0,34.805,46.457Z" fill="#407093"/>
            <path id="Trazado_878400" data-name="Trazado 878400" d="M34.805,46.457a21.851,21.851,0,0,1-.92-6.267v-.005A12.4,12.4,0,0,0,16.293,28.924a12.4,12.4,0,0,1,7.213,11.261v.005a21.85,21.85,0,0,0,.92,6.267,13.285,13.285,0,0,1,.56,3.812,5.481,5.481,0,0,1-3.683,5.18,31.085,31.085,0,0,1-5.01,1.284,31.1,31.1,0,0,0,15.389-1.284,5.481,5.481,0,0,0,3.683-5.18,13.285,13.285,0,0,0-.56-3.812Z" fill="#365e7d"/>
          </g>
          <path id="Trazado_878401" data-name="Trazado 878401" d="M10.475,1.232H42.221a3.61,3.61,0,0,1,3.61,3.61v13.62a3.61,3.61,0,0,1-2.861,3.531.52.52,0,0,0-.407.512v4.674a.637.637,0,0,1-1.087.45l-5.4-5.4a.526.526,0,0,0-.372-.154H10.475a3.61,3.61,0,0,1-3.61-3.61V4.842a3.61,3.61,0,0,1,3.61-3.61Z" fill="#cbe2ff"/>
          <path id="Trazado_878402" data-name="Trazado 878402" d="M42.221,1.232H31.755a3.61,3.61,0,0,1,3.61,3.61v13.62A3.61,3.61,0,0,1,32.5,21.993a.5.5,0,0,0-.18.078H35.7a.526.526,0,0,1,.372.154l5.4,5.4a.637.637,0,0,0,1.087-.45V22.5a.52.52,0,0,1,.407-.512,3.61,3.61,0,0,0,2.861-3.531V4.842a3.61,3.61,0,0,0-3.61-3.61Z" fill="#bed8fb"/>
          <path id="Trazado_878403" data-name="Trazado 878403" d="M36.6,60.892,26.14,58.9a5.016,5.016,0,0,1-9.309,0l-.011-.027L6.361,60.892a7.141,7.141,0,0,0-5.13,6.853V79.361a3.406,3.406,0,0,0,3.413,3.406L40.188,82.7a1.549,1.549,0,0,0,1.546-1.549v-13.4a7.142,7.142,0,0,0-5.13-6.852Z" fill="#e28086"/>
          <path id="Trazado_878404" data-name="Trazado 878404" d="M40.2,82.7a1.549,1.549,0,0,0,1.537-1.549V67.744a7.142,7.142,0,0,0-5.13-6.852L26.14,58.9a4.939,4.939,0,0,1-4.627,3.143,3.505,3.505,0,0,0,2.82,3l1.891.36c3.347.719,5.13,2.249,5.13,5.418V82.775Z" fill="#dd636e"/>
          <g id="Grupo_1102054" data-name="Grupo 1102054">
            <path id="Trazado_878405" data-name="Trazado 878405" d="M64.831,50.806l-2.785-2.382L59.082,50.9a1.3,1.3,0,0,1-.647.289L60.2,54.228h3.471l1.749-3.135a1.3,1.3,0,0,1-.594-.287Z" fill="#e28086"/>
          </g>
        </g>
        <g id="Grupo_1102056" data-name="Grupo 1102056">
          <path id="Trazado_878406" data-name="Trazado 878406" d="M10.475,23.3H35.409l5.2,5.2a1.867,1.867,0,0,0,3.188-1.32V23.04a4.865,4.865,0,0,0,3.268-4.578V4.842A4.846,4.846,0,0,0,42.221,0H10.475a4.846,4.846,0,0,0-4.84,4.84v.995a1.23,1.23,0,1,0,2.461,0V4.842a2.382,2.382,0,0,1,2.379-2.379H42.221A2.382,2.382,0,0,1,44.6,4.842v13.62a2.388,2.388,0,0,1-1.884,2.327,1.757,1.757,0,0,0-1.384,1.716v3.24l-4.389-4.389a1.744,1.744,0,0,0-1.243-.515H10.475A2.382,2.382,0,0,1,8.1,18.462V11.6a1.23,1.23,0,0,0-2.461,0v6.863a4.846,4.846,0,0,0,4.84,4.84Z"/>
          <path id="Trazado_878407" data-name="Trazado 878407" d="M82.769,56.756A1.23,1.23,0,0,0,84,55.525v-.947a8.621,8.621,0,0,0-6.159-8.227L71.17,44.392a2.45,2.45,0,0,0-.659-.432l-1.391-.62a2.925,2.925,0,0,0-1.154-.254V40.159a10.15,10.15,0,0,0,4.057-6.908,2.631,2.631,0,0,0,1.913-2.528V21.919a3.886,3.886,0,0,0-3.649-3.874,3.887,3.887,0,0,0-3.868-3.553H57.283a7.34,7.34,0,0,0-7.332,7.332v8.9a2.631,2.631,0,0,0,1.913,2.528,10.153,10.153,0,0,0,4.057,6.907v2.923a2.923,2.923,0,0,0-1.142.256l-1.365.613a2.447,2.447,0,0,0-.654.431l-6.712,1.97a8.621,8.621,0,0,0-6.159,8.227V61.26a8.363,8.363,0,0,0-2.939-1.549c-.108-.032.522.1-9.58-1.83v-.027a32.091,32.091,0,0,0,4.714-1.244c3.416-1.186,5.64-4.7,3.9-10.507a20.614,20.614,0,0,1-.868-5.92A13.65,13.65,0,0,0,21.482,26.555h0A13.651,13.651,0,0,0,7.848,40.19,20.607,20.607,0,0,1,6.98,46.1c-1.723,5.748.432,9.3,3.9,10.507a32.087,32.087,0,0,0,4.711,1.243C5.531,59.8,6.12,59.681,6.014,59.712A8.417,8.417,0,0,0,0,67.744V79.361A4.634,4.634,0,0,0,4.637,84h.01l74.717-.075A4.642,4.642,0,0,0,84,79.286V61.277a1.23,1.23,0,1,0-2.461,0v2.846H67.156l-2.177-9.707,1.178-2.111a2.551,2.551,0,0,0,1.285-.669l3.781-3.682a2.451,2.451,0,0,0,.555-.819l5.37,1.576a6.147,6.147,0,0,1,4.391,5.865v.947a1.23,1.23,0,0,0,1.23,1.23ZM52.412,21.822a4.876,4.876,0,0,1,4.871-4.871h9.135a1.422,1.422,0,0,1,1.421,1.42A2.128,2.128,0,0,0,69.964,20.5h.089a1.422,1.422,0,0,1,1.421,1.42v4.558h-.6a.615.615,0,0,1-.614-.614V24.853a3.181,3.181,0,0,0-4.175-3.017,13.285,13.285,0,0,1-8.282,0,3.176,3.176,0,0,0-4.174,3.017v1.01a.615.615,0,0,1-.614.614h-.6V21.822Zm1.85,10.653a1.694,1.694,0,0,0-1.685-1.586.165.165,0,0,1-.165-.165V28.938h.6a3.079,3.079,0,0,0,3.075-3.075v-1.01a.716.716,0,0,1,.945-.68,15.756,15.756,0,0,0,9.823,0,.716.716,0,0,1,.942.681v1.009a3.078,3.078,0,0,0,3.075,3.075h.6v1.786a.165.165,0,0,1-.165.165,1.694,1.694,0,0,0-1.684,1.586,7.7,7.7,0,0,1-15.363,0ZM62.953,53H60.912l-.792-1.361,1.917-1.6,1.74,1.487Zm1.681,11.126H59.246l1.943-8.665h1.5Zm-2.6-17.245-3.65-2.728V41.5a10.142,10.142,0,0,0,7.122,0V44.19Zm-6.245-1.3a.465.465,0,0,1,.469.052l3.805,2.844-1.769,1.477a.077.077,0,0,1-.03.015l-.016,0a.075.075,0,0,1-.053-.019L54.437,46.19Zm-44.1,8.7c-3.11-1.08-3.291-4.335-2.348-7.476a23.076,23.076,0,0,0,.972-6.625,11.173,11.173,0,0,1,22.345.005,23.065,23.065,0,0,0,.972,6.62c.942,3.142.762,6.4-2.349,7.476a29.993,29.993,0,0,1-19.592,0ZM24.91,58.211v.435a3.787,3.787,0,0,1-6.859-.026v-.409A32.609,32.609,0,0,0,24.91,58.211ZM40.5,81.146a.317.317,0,0,1-.305.317h-.043l-35.514.072h0a2.175,2.175,0,0,1-2.176-2.176V67.744a5.944,5.944,0,0,1,4.193-5.656l9.479-1.833a6.255,6.255,0,0,0,10.691.027l9.488,1.806A5.913,5.913,0,0,1,40.5,67.744Zm1.847-26.568a6.147,6.147,0,0,1,4.392-5.866l5.412-1.588a2.446,2.446,0,0,0,.53.794L56.464,51.7l.012.012a2.532,2.532,0,0,0,1.227.662L58.9,54.429l-2.174,9.694H42.351ZM81.539,66.584v12.7a2.178,2.178,0,0,1-2.176,2.176H42.947a2.822,2.822,0,0,0,.018-.316v-13.4a8.358,8.358,0,0,0-.081-1.16ZM65.731,49.868a.074.074,0,0,1-.052.021l-.029-.006a.077.077,0,0,1-.02-.012l-1.636-1.4,3.65-2.826a.464.464,0,0,1,.474-.057L69.5,46.2Z"/>
        </g>
      </g>
    </g>
  </g>
</svg>
