<svg xmlns="http://www.w3.org/2000/svg" xmlns:xlink="http://www.w3.org/1999/xlink" width="121" height="121" viewBox="0 0 121 121">
  <defs>
    <clipPath id="clip-path">
      <rect id="Rectángulo_403250" data-name="Rectángulo 403250" width="84" height="84" transform="translate(408 6464)" fill="#fff" stroke="#707070" stroke-width="1"/>
    </clipPath>
  </defs>
  <g id="Grupo_1102419" data-name="Grupo 1102419" transform="translate(-389 -6445)">
    <circle id="Elipse_11630" data-name="Elipse 11630" cx="60.5" cy="60.5" r="60.5" transform="translate(389 6445)" fill="#4e93ee"/>
    <g id="Enmascarar_grupo_1098842" data-name="Enmascarar grupo 1098842" clip-path="url(#clip-path)">
      <g id="yoga" transform="translate(408 6464)">
        <path id="Trazado_879471" data-name="Trazado 879471" d="M46.885,48.2c0,9.764-11.165,10.529-31.457,21.212-1.118-2.883-.585-1.508-2.353-6.07,18.874-16,17.006-14.247,20.791-16.77,14.055,1.758,10.177,1.273,13.019,1.627Z" fill="#5fc68f"/>
        <path id="Trazado_879472" data-name="Trazado 879472" d="M45.487,48.021c-2.274,6.992-13.057,8.692-30.947,18.1l-1.175-3.03c18.566-15.606,15.643-13.287,20.5-16.525Z" fill="#7adbae"/>
        <path id="Trazado_879473" data-name="Trazado 879473" d="M9.64,80.822A1.313,1.313,0,0,1,8.45,82.358a4.887,4.887,0,0,1-4.917-3.106c-.513-1.327-1.913-4.937-2-5.153a3.258,3.258,0,0,1,1.229-3.885l10.309-6.877c1.792,4.621,1.273,3.283,2.353,6.07l-7,4.457Z" fill="#f9cfac"/>
        <path id="Trazado_879474" data-name="Trazado 879474" d="M7.017,75.74A2.706,2.706,0,0,1,3.32,78.7c-.5-1.281-.167-.434-1.783-4.6a3.258,3.258,0,0,1,1.229-3.885l9.856-6.575,1.019,2.626-7.456,4.7Z" fill="#ffe4cc"/>
        <path id="Trazado_879475" data-name="Trazado 879475" d="M60.595,9.249a7.98,7.98,0,0,1-7.015,4.09,43.508,43.508,0,0,0-3.593,7.632,10.216,10.216,0,0,1-2.111-2.9,10.574,10.574,0,0,1-.991-5.178,3.271,3.271,0,0,0,1.6-1.823c1.005-2.857,1.1-2.883,1.055-3.831a7.438,7.438,0,0,1,11.051,2.01Z" fill="#6d6d6d"/>
        <path id="Trazado_879476" data-name="Trazado 879476" d="M49.554,7.51a7.885,7.885,0,0,1-.753,2.674,3.931,3.931,0,0,1-1.773,2.631,3.307,3.307,0,0,1-4.818-3.934l.856-2.431a3.357,3.357,0,0,1,4.241-2.016A3.261,3.261,0,0,1,49.554,7.51Z" fill="#6d6d6d"/>
        <path id="Trazado_879477" data-name="Trazado 879477" d="M66.3,58.581c-1.327,6.431-.951,4.616-1.885,9.143H57.578l.86-7.535a120.291,120.291,0,0,0-14.807-.6,18.184,18.184,0,0,1-6.51-1.627c-3.962-2.051-4.921-8.06-3.255-11.392,1.044.129-1.182-.149,13.019,1.627,11.484,2.82,6.834.873,15.751,3.967.008,0,.015.007.023.008A5.6,5.6,0,0,1,66.3,58.581Z" fill="#5fc68f"/>
        <path id="Trazado_879478" data-name="Trazado 879478" d="M66.3,58.581c-.721,3.495-.35,1.694-1.616,7.838A4.893,4.893,0,0,1,60.751,61.2l.384-4.482a143.32,143.32,0,0,0-16.294-.6,18.184,18.184,0,0,1-6.51-1.627,8.181,8.181,0,0,1-3.972-6.564,8.588,8.588,0,0,1,.235-1.268L46.885,48.2c11.484,2.82,6.834.873,15.751,3.967.008,0,.015.007.023.008A5.6,5.6,0,0,1,66.3,58.581Z" fill="#7adbae"/>
        <path id="Trazado_879479" data-name="Trazado 879479" d="M68.036,82.371H59.191a3.255,3.255,0,0,1-3.158-4.044c.822-3.287.466-1.144,1.545-10.6h6.834c-.491,2.383-.076.373-1.975,9.584l4.075,1.019a3.825,3.825,0,0,1,2.841,2.649A1.32,1.32,0,0,1,68.036,82.371Z" fill="#f9cfac"/>
        <path id="Trazado_879480" data-name="Trazado 879480" d="M69.354,80.976H62.321a3.255,3.255,0,0,1-3.158-4.044c.822-3.288.463-1.117,1.386-9.208h3.863c-.491,2.383-.076.373-1.975,9.584l4.075,1.019A3.825,3.825,0,0,1,69.354,80.976Z" fill="#ffe4cc"/>
        <path id="Trazado_879481" data-name="Trazado 879481" d="M61.531,12.728v7.12a4.128,4.128,0,0,1-4.185,4.069,10.561,10.561,0,0,1-7.359-2.946,43.515,43.515,0,0,1,3.593-7.632,7.98,7.98,0,0,0,7.015-4.09,6.906,6.906,0,0,1,.937,3.48Z" fill="#f9cfac"/>
        <path id="Trazado_879482" data-name="Trazado 879482" d="M61.531,19.036A4.167,4.167,0,0,1,57.5,22a10.573,10.573,0,0,1-6.908-2.54c1.062-2.637.415-1.287,2.984-6.121a7.98,7.98,0,0,0,7.015-4.09C61.815,11.351,61.531,12.631,61.531,19.036Z" fill="#ffe4cc"/>
        <path id="Trazado_879483" data-name="Trazado 879483" d="M61.532,33.681c0,3.255-3.732,6.985-4.882,8.137-1.627,1.627-9.764,6.377-9.764,6.377L33.866,46.7c8.446-5.85,13.832-15.585,16.189-25.668a10.53,10.53,0,0,0,3.507,2.2l3.087,2.315c2,1.848,4.882,5.408,4.882,8.137Z" fill="#b3cec9"/>
        <path id="Trazado_879484" data-name="Trazado 879484" d="M57.752,32.421c0,3.255-3.732,6.985-4.882,8.137a10.059,10.059,0,0,1-1.053.866A24.173,24.173,0,0,1,34.85,45.987C41.415,41.018,47.14,32.769,49.823,22c.1.081-.07-.053,3.046,2.285C54.874,26.132,57.752,29.692,57.752,32.421Z" fill="#cae0dd"/>
        <path id="Trazado_879485" data-name="Trazado 879485" d="M82.672,6.429a3.553,3.553,0,0,1-1.048,2.146L57.529,32.669a3.452,3.452,0,0,1-4.882-4.882L69.472,10.961a11.776,11.776,0,0,0,2.941-4.905A3.552,3.552,0,0,1,76.8,3.638a3.456,3.456,0,0,1,5.876,2.791Z" fill="#f9cfac"/>
        <path id="Trazado_879486" data-name="Trazado 879486" d="M81.364,3.362a3.512,3.512,0,0,1-1.053,2.22L56.216,29.677a3.457,3.457,0,0,1-4.346.44,3.1,3.1,0,0,1-.166-.574,3.434,3.434,0,0,1,.942-1.755L69.472,10.961a11.776,11.776,0,0,0,2.941-4.905A3.552,3.552,0,0,1,76.8,3.638a3.453,3.453,0,0,1,4.569-.276Z" fill="#ffe4cc"/>
        <path id="Trazado_879487" data-name="Trazado 879487" d="M58.578,7.014c-2.065,2.94-8.991,3.755-13.662,2.737a2.523,2.523,0,0,1-1.851-3.3,3.357,3.357,0,0,1,4.241-2.016,3.275,3.275,0,0,1,2.238,2.805,7.488,7.488,0,0,1,9.034-.225Z" fill="#797a7a"/>
        <path id="Trazado_879488" data-name="Trazado 879488" d="M61.744,8.118a8.734,8.734,0,0,0-11.5-3.381,4.689,4.689,0,0,0-8.42.779l-.88,2.5a4.583,4.583,0,0,0,4.657,6.055,11.241,11.241,0,0,0,3,6.866A46.185,46.185,0,0,1,43.2,34.14a1.312,1.312,0,1,0,2.239,1.37,48.38,48.38,0,0,0,5.4-12.695,11.722,11.722,0,0,0,2.076,1.07l.732.548-1.928,1.928a1.312,1.312,0,0,0,1.856,1.856L70.4,11.391a13.013,13.013,0,0,0,3.837-9.262,1.312,1.312,0,1,0-2.625,0,10.406,10.406,0,0,1-3.068,7.407l-5.7,5.7c0-2.944.23-4.807-1.1-7.117Zm-18.321.772.88-2.5a2.042,2.042,0,0,1,3.931.45,1.891,1.891,0,0,1-.1.8c-.857,2.433-.916,3.122-1.848,3.592A1.994,1.994,0,0,1,43.423,8.889ZM51.552,20.1l1.1-2.741a1.313,1.313,0,1,0-2.435-.981l-.632,1.568A8.566,8.566,0,0,1,48.2,13.111c1.473-1.131,1.72-2.64,2.411-4.6a4.783,4.783,0,0,0,.239-1.093,6.147,6.147,0,0,1,8.185,1.351,6.7,6.7,0,0,1-5.454,2.762,1.314,1.314,0,0,0-.733,2.4c.875.591,4.72.108,7.322-2.458.07.511.052.186.052,6.39l-4.158,4.158A9.283,9.283,0,0,1,51.552,20.1Z"/>
        <path id="Trazado_879489" data-name="Trazado 879489" d="M84,5.581a4.773,4.773,0,0,0-8.134-3.369,1.312,1.312,0,0,0,1.856,1.856,2.14,2.14,0,0,1,3.026,3.026L56.6,31.243a1.314,1.314,0,0,0,.928,2.24c.712,0,.918-.375,2.366-1.823a4.427,4.427,0,0,1,.325,1.522c0,1.795-1.511,4.218-4.5,7.209-1.063,1.063-5.89,4.052-9.116,5.947l-4.44-.555a1.312,1.312,0,0,0-.325,2.6l4.806.6c11.162,2.737,6.77.893,15.581,3.922a4.294,4.294,0,0,1,2.785,4.907l-1.669,8.095h-4.3l.693-6.074a1.313,1.313,0,0,0-1.185-1.456,121.709,121.709,0,0,0-14.966-.607A17.155,17.155,0,0,1,37.724,56.3c-3.209-1.661-3.9-6.471-2.885-9.175a34.363,34.363,0,0,0,3.681-3.028,1.312,1.312,0,1,0-1.8-1.911,32.053,32.053,0,0,1-3.132,2.6c-1.9.413-12.727,9.784-14.356,11.155-8.72,7.341-4.927,4.5-17.2,12.682a4.54,4.54,0,0,0-1.724,5.45c2.125,5.483,2.122,5.648,2.713,6.486H1.317a1.312,1.312,0,0,0,0,2.625H82.688a1.312,1.312,0,0,0,0-2.625H70.822a5.472,5.472,0,0,0-3.992-4l-2.854-.714,3.607-17.493a6.927,6.927,0,0,0-4.517-7.925c-8.07-2.8-5.31-1.561-12.733-3.256a56.438,56.438,0,0,0,7.252-4.928c1.3-1.3,5.259-5.266,5.259-9.057a7.9,7.9,0,0,0-.961-3.511L82.6,8.95A4.733,4.733,0,0,0,84,5.581ZM31.792,49.027c-.211,3.319,1.048,7.037,3.792,9.021-4.88,2.271-11.429,4.877-19.462,9.02l-1.484-3.828C27.641,52.308,29.814,50.412,31.792,49.027ZM3.495,70.808l8.948-5.97,1.372,3.541-6.092,3.88a1.312,1.312,0,0,0-.588,1.332l1.211,6.959a3.578,3.578,0,0,1-3.588-2.271l-2-5.153a1.931,1.931,0,0,1,.733-2.318ZM9.871,74c5.968-3.8,6.86-4.758,21.742-11.3,2.684-1.18,5.025-2.211,7.059-3.225,5.516,1.749,4.741.245,18.309,1.4-1.91,16.741-1.434,13.483-2.221,16.63a4.535,4.535,0,0,0,.3,3.05H11.012Zm56.322,5.1a2.852,2.852,0,0,1,1.845,1.458H59.191a1.942,1.942,0,0,1-1.884-2.413c.841-3.365.475-1.131,1.443-9.608H62.8l-1.651,8.006a1.312,1.312,0,0,0,.967,1.538Z"/>
        <path id="Trazado_879490" data-name="Trazado 879490" d="M40.355,38.217c-.062.078-.123.155-.194.243a1.312,1.312,0,1,0,2.055,1.633c.067-.083.134-.166.2-.251a1.312,1.312,0,1,0-2.061-1.625Z"/>
      </g>
    </g>
  </g>
</svg>
