<svg xmlns="http://www.w3.org/2000/svg" xmlns:xlink="http://www.w3.org/1999/xlink" width="100" height="100" viewBox="0 0 100 100">
  <defs>
    <clipPath id="clip-path">
      <rect id="Rectángulo_403252" data-name="Rectángulo 403252" width="64" height="64" transform="translate(654 7010)" fill="#fff" stroke="#707070" stroke-width="1"/>
    </clipPath>
  </defs>
  <g id="Grupo_1101943" data-name="Grupo 1101943" transform="translate(-636 -6992)">
    <g id="Rectángulo_400898" data-name="Rectángulo 400898" transform="translate(636 6992)" fill="#4e93ee" stroke="#fff" stroke-width="3" opacity="0.859">
      <rect width="100" height="100" rx="50" stroke="none"/>
      <rect x="1.5" y="1.5" width="97" height="97" rx="48.5" fill="none"/>
    </g>
    <g id="Rectángulo_400907" data-name="Rectángulo 400907" transform="translate(636 6992)" fill="none" stroke="#1f3b5f" stroke-linecap="round" stroke-width="2" stroke-dasharray="7">
      <rect width="100" height="100" rx="50" stroke="none"/>
      <rect x="1" y="1" width="98" height="98" rx="49" fill="none"/>
    </g>
    <g id="Enmascarar_grupo_1098846" data-name="Enmascarar grupo 1098846" clip-path="url(#clip-path)">
      <g id="viajeros" transform="translate(652.711 7008.711)">
        <path id="Trazado_879542" data-name="Trazado 879542" d="M17.493,40.383,12.075,38.2A3.6,3.6,0,0,1,9.95,33.9a74.13,74.13,0,0,1,6.242-15.956,4.628,4.628,0,0,1,3.625-2.082H24.2V17.2a2.806,2.806,0,0,1-2.686,2.8l-1.291.055a.817.817,0,0,0-.75.587,126.012,126.012,0,0,0-3.031,12.726l2.937.2Z" fill="#ffd4cf"/>
        <path id="Trazado_879543" data-name="Trazado 879543" d="M17.493,40.383l1.886-6.808-1.181-.08-2.725,6.073Zm1.134-24.306c.4,1.957,2.71,1.9,2.71,1.9h2.755A2.808,2.808,0,0,0,24.2,17.2V15.861H19.817a3.744,3.744,0,0,0-1.19.215Z" fill="#ff979c"/>
        <path id="Trazado_879544" data-name="Trazado 879544" d="M20.763,45.839a11.757,11.757,0,0,0-3.673,2.632,3.436,3.436,0,0,0-.957,2.289c-.094,3.011.352,10.141,6.8,9.088ZM49.852,31.733s4.9.475,5.516,4.966c0,0,.871,8.743-.048,12.13l-4.147-3.885Z" fill="#5f6854"/>
        <path id="Trazado_879545" data-name="Trazado 879545" d="M28.593,24.066s-5.848,2.253-5.977,11.265c0,0-2.318,1.351-2.318,7.081V56.639s.562,5.343,8.3,5.343h13.27l9.656-5.6s2.511-18.972-2.382-29.347a9.528,9.528,0,0,0-6.759-3.809Z" fill="#99a082"/>
        <path id="Trazado_879546" data-name="Trazado 879546" d="M43.5,23.775l2.669-1.906a8.859,8.859,0,0,1,2.9.763,9.206,9.206,0,0,0,4.884,1.05.341.341,0,0,1,.369.447c-.522,1.539-2.375,5.581-7.29,4.854a5.654,5.654,0,0,1-3.525-1.669Z" fill="#ffcd66"/>
        <path id="Trazado_879547" data-name="Trazado 879547" d="M27.738,34.138l-8.358-.563-1.886,6.808,7.582,3.057Zm16.3.911a80.222,80.222,0,0,1,8.781,10.213l-6.44,5.266Z" fill="#fcb493"/>
        <path id="Trazado_879548" data-name="Trazado 879548" d="M40.074,33.575h1.716A3.282,3.282,0,0,1,44.507,35a14.74,14.74,0,0,1,2.775,7.849v6.106s-.091,7.222-6.623,6.809Zm-8.5-.118H28.437a2.238,2.238,0,0,0-1.893,1.032A17.306,17.306,0,0,0,24.2,43.831v7.682A4.336,4.336,0,0,0,29.5,55.7Z" fill="#5f6854"/>
        <path id="Trazado_879549" data-name="Trazado 879549" d="M29.48,48.264l-.545,4.526c.025.463.051.936.076,1.406a16.124,16.124,0,0,1-.562,5.165,15.857,15.857,0,0,0-.6,5.143H42.761a11.326,11.326,0,0,0-.364-5.042,17.3,17.3,0,0,1-.475-3.372,15.636,15.636,0,0,1-.117-2.338l.025-.962-.506-4.526Z" fill="#fcb493"/>
        <path id="Trazado_879550" data-name="Trazado 879550" d="M33.127,30.795v1.048a1.615,1.615,0,0,1-1.551,1.614L29.769,38.1s1.083,4.034,6.47,4.752a8.479,8.479,0,0,0,5.28-4.344,20.428,20.428,0,0,1-1.445-4.933l-.223-.059A1.985,1.985,0,0,1,38.386,31.8q-.1-.993-.12-1.992Z" fill="#ffe2de"/>
        <path id="Trazado_879551" data-name="Trazado 879551" d="M38.514,26.152l-5.387,2.454v2.188a6.076,6.076,0,0,0,5.14-.989,20.221,20.221,0,0,1,.247-3.654Z" fill="#ff979c"/>
        <path id="Trazado_879552" data-name="Trazado 879552" d="M27.477,15.263v7.849a6.3,6.3,0,0,0,12.6,0v-8.43Z" fill="#ffd4cf"/>
        <path id="Trazado_879553" data-name="Trazado 879553" d="M27.477,17.976h12.6V14.682l-12.6.581Z" fill="#ff979c"/>
        <path id="Trazado_879554" data-name="Trazado 879554" d="M42.531,22.467s-.791,2.88.979,4.845a5.489,5.489,0,0,0,2.663-5.444A7.013,7.013,0,0,0,42.531,22.467Z" fill="#ed8e54"/>
        <path id="Trazado_879555" data-name="Trazado 879555" d="M35.369,15.861l-.011,2.115a5.333,5.333,0,0,0,3.013,3.92,1.664,1.664,0,0,1,.981,1.489,7.794,7.794,0,0,1-.645,3.642s.132.012.359.01a5.554,5.554,0,0,0,5.466-5.571V15.861Z" fill="#ffcd66"/>
        <path id="Trazado_879556" data-name="Trazado 879556" d="M35.358,17.976h9.174V15.861h-9.3a7.118,7.118,0,0,0,.129,2.115Z" fill="#ed8e54"/>
        <path id="Trazado_879557" data-name="Trazado 879557" d="M42.617,59.5a17.915,17.915,0,0,1-.777-3.414,3.694,3.694,0,0,0-3.027,3.673V63.3a2.289,2.289,0,0,0,.356,1.207H43.18a13.23,13.23,0,0,0-.563-5ZM28.66,48.264s.126,2.125.258,4.526H41.812l.117-4.526Z" fill="#c17d67"/>
        <path id="Trazado_879558" data-name="Trazado 879558" d="M30.241,36.888s1.059,2.536,5.849,4.136a11.264,11.264,0,0,0,4.9-3.87A29.157,29.157,0,0,0,43.332,41a6.6,6.6,0,0,1,1.479,3.742,4.745,4.745,0,0,1-2.284,4.32,2.827,2.827,0,0,1-1.46.4H30.27a2.818,2.818,0,0,1-1.455-.4,5.125,5.125,0,0,1-2.366-3,5.345,5.345,0,0,1,1.085-4.536,20.3,20.3,0,0,0,2.707-4.637Z" fill="#fcb493"/>
        <ellipse id="Elipse_11692" data-name="Elipse 11692" cx="2.56" cy="2.382" rx="2.56" ry="2.382" transform="translate(30.503 23.144) rotate(-17.45)" fill="#ea6878"/>
        <path id="Trazado_879559" data-name="Trazado 879559" d="M52.664,45.544l.835.568c.673.856,1.736,2.265,2.7,3.783a3.554,3.554,0,0,1,.153,3.553A26.649,26.649,0,0,1,47.08,63.656a5.635,5.635,0,0,1-2.972.849h-1.3a2.514,2.514,0,0,1-2.514-2.514V59.784a2.512,2.512,0,0,1,2.754-2.5,6.155,6.155,0,0,1,2.74.93,1.938,1.938,0,0,0,1.237-1.163c1.175-1.188,2.828-3.1,3.284-4.866l-1.271-1.314L48.1,49.463Z" fill="#ffd4cf"/>
        <path id="Trazado_879560" data-name="Trazado 879560" d="M25.9,12.778l1.845-4.225A7.791,7.791,0,0,0,28.4,7.086a15.894,15.894,0,0,1,1.463-3.327,2.134,2.134,0,0,1,2.1-.934,8.7,8.7,0,0,1,1.933.487,2.364,2.364,0,0,0,2.022-.13,7.389,7.389,0,0,1,3.857-1.1s3.035.247,4.249,6.471l-.015,4.226Z" fill="#fcb493"/>
        <path id="Trazado_879561" data-name="Trazado 879561" d="M44.482,12.778a27.978,27.978,0,0,0-.461-4.226H27.744a7.353,7.353,0,0,1-.467.71,29.076,29.076,0,0,0-2.2,3.515Z" fill="#c17d67"/>
        <path id="Trazado_879562" data-name="Trazado 879562" d="M20.626,15.861H49.671a1.586,1.586,0,0,0,1.586-1.586,1.805,1.805,0,0,0-1.805-1.805H20.845a1.805,1.805,0,0,0-1.805,1.805A1.586,1.586,0,0,0,20.626,15.861Z" fill="#fcb493"/>
        <path id="Trazado_879563" data-name="Trazado 879563" d="M52.814,45.261l-5.138,4.2,1.36,1.406L53.5,46.112c-.417-.531-.685-.851-.685-.851Z" fill="#ff979c"/>
        <circle id="Elipse_11693" data-name="Elipse 11693" cx="0.795" cy="0.795" r="0.795" transform="translate(32.332 19.111)" fill="#4d4d68"/>
        <circle id="Elipse_11694" data-name="Elipse 11694" cx="0.795" cy="0.795" r="0.795" transform="translate(29.604 19.111)" fill="#4d4d68"/>
        <g id="Grupo_1102464" data-name="Grupo 1102464">
          <path id="Trazado_879564" data-name="Trazado 879564" d="M35.115,22.01a3.231,3.231,0,0,0-4.153,1.3,2.851,2.851,0,0,0-.259,2.283,2.97,2.97,0,0,0,2.872,2.032,3.247,3.247,0,0,0,.971-.15,3.179,3.179,0,0,0,1.825-1.455,2.839,2.839,0,0,0-1.256-4.011Zm-.105,3.236a1.615,1.615,0,0,1-.932.735,1.466,1.466,0,0,1-1.88-.855,1.3,1.3,0,0,1,.126-1.04,1.616,1.616,0,0,1,.931-.735,1.7,1.7,0,0,1,.509-.078,1.564,1.564,0,0,1,.676.151,1.274,1.274,0,0,1,.57,1.823Z"/>
          <path id="Trazado_879565" data-name="Trazado 879565" d="M56.193,48.458c.834-3.63-.008-11.5-.046-11.844a.156.156,0,0,0,0-.021A6.424,6.424,0,0,0,51.458,31.3c-.178-.693-.372-1.361-.582-1.995a8.171,8.171,0,0,0,4.382-5.583.783.783,0,0,0-1.086-.885c-.014.006-1.5.546-4.781-.92a9.978,9.978,0,0,0-2.165-.691.783.783,0,1,0-.3,1.538,8.394,8.394,0,0,1,1.824.584,11.358,11.358,0,0,0,4.571,1.159h.026a5.579,5.579,0,0,1-6.2,3.7A4.329,4.329,0,0,1,43.517,25.9a6.358,6.358,0,0,0,1.8-4.432V16.644h4.356a2.372,2.372,0,0,0,2.369-2.369,2.591,2.591,0,0,0-2.588-2.588H26.6c.355-.584.807-1.284,1.308-1.956.1-.128.186-.261.274-.4H43.365c.036.22.07.446.1.682A.783.783,0,0,0,45.02,9.81q-.1-.748-.231-1.41l0-.009c-1.32-6.715-4.795-7.08-4.965-7.093a8.134,8.134,0,0,0-4.292,1.2,1.588,1.588,0,0,1-1.35.082,9.359,9.359,0,0,0-2.11-.534,2.915,2.915,0,0,0-2.866,1.287,16.611,16.611,0,0,0-1.547,3.505A6.856,6.856,0,0,1,26.651,8.8a29.152,29.152,0,0,0-1.869,2.892H20.846a2.591,2.591,0,0,0-2.588,2.588,2.352,2.352,0,0,0,.235,1.021,5.382,5.382,0,0,0-2.98,2.258A75.453,75.453,0,0,0,9.2,33.691a4.384,4.384,0,0,0,2.587,5.234L17.2,41.109l2.318.935c0,.122,0,.245,0,.368v3.18a13.57,13.57,0,0,0-2.986,2.334,4.208,4.208,0,0,0-1.177,2.81c-.069,2.229.155,6.3,2.435,8.5a5.419,5.419,0,0,0,3.912,1.5c.062,0,.126,0,.189-.006a9.239,9.239,0,0,0,5.1,1.954,13.967,13.967,0,0,0-.009,1.871.783.783,0,0,0,.781.733.5.5,0,0,0,.051,0,.783.783,0,0,0,.731-.832,15.177,15.177,0,0,1,.575-4.883,16.884,16.884,0,0,0,.589-5.416l-.031-.581H40.942l0,.158a16.694,16.694,0,0,0,.232,3.19,3.27,3.27,0,0,0-.576.416,3.307,3.307,0,0,0-1.085,2.447v2.207a3.3,3.3,0,0,0,3.3,3.3h1.3a6.414,6.414,0,0,0,3.385-.967A27.5,27.5,0,0,0,57.051,53.81a4.352,4.352,0,0,0-.187-4.336q-.327-.513-.67-1.016ZM29.146,7.331a15.141,15.141,0,0,1,1.379-3.15A1.349,1.349,0,0,1,31.853,3.6a7.812,7.812,0,0,1,1.756.441A3.127,3.127,0,0,0,36.3,3.863a6.538,6.538,0,0,1,3.407-1c.025,0,2.193.322,3.338,4.908H28.987c.056-.144.11-.289.159-.438ZM54.591,36.794a62.847,62.847,0,0,1,.3,9.843c-.746-1-1.324-1.7-1.45-1.849q-.247-.365-.5-.725a59.847,59.847,0,0,0-1.053-10.907,4.608,4.608,0,0,1,2.708,3.638Zm-2.83,8.317-.635.52-3.059,2.5V42.852a11.575,11.575,0,0,0-.352-2.769,59.972,59.972,0,0,1,4.047,5.028Zm-7.789-4.564a29.226,29.226,0,0,1-2.259-3.694,18.943,18.943,0,0,1-.719-2.494h.8a2.494,2.494,0,0,1,2.069,1.084,14.11,14.11,0,0,1,2.64,7.409v6.1c0,.037-.074,3.678-2.494,5.284a.783.783,0,1,0,.866,1.305,7.543,7.543,0,0,0,2.964-4.783l1.585,1.638c-.7,1.925-2.836,4.028-3.735,4.856a7,7,0,0,0-2.564-.748,3.219,3.219,0,0,0-.436-.011,15.066,15.066,0,0,1-.183-2.719l.1-3.867a3.5,3.5,0,0,0,.328-.173A5.493,5.493,0,0,0,45.6,44.739a7.427,7.427,0,0,0-1.624-4.191Zm2.947-10.791a8.495,8.495,0,0,0,1.243.094,7.222,7.222,0,0,0,1.211-.1,45.1,45.1,0,0,1,1.936,12.164c-1.852-2.317-3.877-4.5-5.136-5.81a.8.8,0,0,0-.125-.1q-.417-.736-.893-1.437a4.059,4.059,0,0,0-3.364-1.771H40.178l-.124-.033a1.208,1.208,0,0,1-.887-1.039,22.56,22.56,0,0,1-.062-3.9,6.214,6.214,0,0,0,3.16-.918,5.882,5.882,0,0,0,4.654,2.855ZM36.091,37.991a.783.783,0,0,0-.783.783V39.9a8.85,8.85,0,0,1-4.2-3.07l1.039-2.67a2.392,2.392,0,0,0,1.766-2.315V30.19a7.046,7.046,0,0,0,3.571-1.041,24.935,24.935,0,0,0,.126,2.729,2.784,2.784,0,0,0,1.76,2.3,18.278,18.278,0,0,0,.745,2.844,10.556,10.556,0,0,1-3.239,2.761v-1.01a.783.783,0,0,0-.783-.784Zm-7.83-14.879V16.644h6.15a6.537,6.537,0,0,0,3.632,5.963.878.878,0,0,1,.526.786,7.07,7.07,0,0,1-.513,3.2,5.514,5.514,0,0,1-9.795-3.477ZM43.75,21.467a4.8,4.8,0,0,1-3.877,4.708,11.392,11.392,0,0,0,.265-2.8A2.432,2.432,0,0,0,38.7,21.185a4.915,4.915,0,0,1-2.719-4.541H43.75Zm-22.9-8.214H49.454a1.023,1.023,0,0,1,1.022,1.022.8.8,0,0,1-.8.8h-23.1a.783.783,0,0,0,0,1.567H26.7v6.467a7.1,7.1,0,0,0,.088,1.111,11.839,11.839,0,0,0-4.321,6.51.783.783,0,1,0,1.508.424,10.48,10.48,0,0,1,3.277-5.306,7.108,7.108,0,0,0,5.1,4.2v1.795a.83.83,0,0,1-.8.831H28.439a3.025,3.025,0,0,0-1.822.6l-7.181-.484h0l-2.066-.139c.89-4.862,2.383-10.143,2.868-11.808l1.316-.056A3.581,3.581,0,0,0,24.986,17.2a2.129,2.129,0,0,0-2.127-2.126H20.627a.8.8,0,0,1-.8-.8A1.023,1.023,0,0,1,20.846,13.253ZM16.974,39.328l-4.6-1.857a2.817,2.817,0,0,1-1.663-3.364,73.883,73.883,0,0,1,6.167-15.776,3.858,3.858,0,0,1,2.945-1.688h3.041a.56.56,0,0,1,.56.56,2.018,2.018,0,0,1-1.936,2.021l-1.875.08a.783.783,0,0,0-.716.556,130.823,130.823,0,0,0-3.22,13.385.783.783,0,0,0,.719.912l1.978.133Zm1.462.59L19.965,34.4l5.509.372a17.93,17.93,0,0,0-1.983,7.186Zm.441,18.2c-1.916-1.853-2.008-5.742-1.958-7.329a2.647,2.647,0,0,1,.736-1.768,12.3,12.3,0,0,1,1.862-1.575v9.2a.819.819,0,0,0,0,.082,6.215,6.215,0,0,0,.863,2.268,3.6,3.6,0,0,1-1.507-.876Zm8.735,1.04a18.983,18.983,0,0,0-.435,1.976,7.648,7.648,0,0,1-4.5-1.771l-.017-.015a4.9,4.9,0,0,1-1.574-2.754V42.674l2.339.943c0,.071,0,.142,0,.214v7.707a5.835,5.835,0,0,0,1.695,3.793,4.76,4.76,0,0,0,2.98,1.2,15.316,15.316,0,0,1-.482,2.619Zm-1.433-4.971A4.272,4.272,0,0,1,24.985,51.5V43.831a16.562,16.562,0,0,1,2.222-8.923,1.446,1.446,0,0,1,1.231-.667h1.993L29.512,36.6h0A19.748,19.748,0,0,1,26.9,41.063a6.087,6.087,0,0,0-1.209,5.2,5.711,5.711,0,0,0,2.18,3.109c.066,1.141.173,3.013.271,4.862q.019.364.02.729a3.24,3.24,0,0,1-1.987-.784Zm14.8-2.175H29.593c-.037-.669-.073-1.3-.1-1.846a3.667,3.667,0,0,0,.782.085H41.029Zm.086-3.327h-10.8a2.037,2.037,0,0,1-1.051-.286,4.326,4.326,0,0,1-2.015-2.538,4.687,4.687,0,0,1,.961-3.867A24.757,24.757,0,0,0,30.4,38.466a12.321,12.321,0,0,0,5.447,3.3c.018.006.036.009.055.014s.034.009.052.013a.764.764,0,0,0,.121.012l.02,0h0a.786.786,0,0,0,.145-.015c.015,0,.03-.008.045-.012a.6.6,0,0,0,.071-.02,12.054,12.054,0,0,0,4.507-3.179,33.727,33.727,0,0,0,1.832,2.871,5.916,5.916,0,0,1,1.335,3.29,3.949,3.949,0,0,1-1.9,3.647,2.044,2.044,0,0,1-1.055.289Zm14.593,4.406a25.911,25.911,0,0,1-8.993,9.9,4.847,4.847,0,0,1-2.559.732h-1.3a1.732,1.732,0,0,1-1.73-1.73V59.784a1.715,1.715,0,0,1,.57-1.286,1.7,1.7,0,0,1,1.149-.446q.087,0,.174.008a5.409,5.409,0,0,1,2.183.684,7.244,7.244,0,0,1,.333,1.234.783.783,0,0,0,.772.654.794.794,0,0,0,.13-.011.783.783,0,0,0,.644-.9,8.582,8.582,0,0,0-.325-1.277c1.043-.953,3.721-3.588,4.36-6.063a.783.783,0,0,0-.2-.741l-2.039-2.108,2.569-2.1,1.3-1.064c.639.8,1.8,2.319,2.841,3.95a2.781,2.781,0,0,1,.12,2.768Z"/>
          <circle id="Elipse_11695" data-name="Elipse 11695" cx="0.783" cy="0.783" r="0.783" transform="translate(29.617 19.122)"/>
          <circle id="Elipse_11696" data-name="Elipse 11696" cx="0.783" cy="0.783" r="0.783" transform="translate(32.345 19.122)"/>
        </g>
      </g>
    </g>
  </g>
</svg>
