<svg xmlns="http://www.w3.org/2000/svg" xmlns:xlink="http://www.w3.org/1999/xlink" width="70" height="70" viewBox="0 0 70 70">
  <defs>
    <clipPath id="clip-path">
      <rect id="Rect치ngulo_403425" data-name="Rect치ngulo 403425" width="70" height="70" transform="translate(244.711 4851)" fill="#fff" stroke="#707070" stroke-width="1"/>
    </clipPath>
  </defs>
  <g id="Enmascarar_grupo_1098803" data-name="Enmascarar grupo 1098803" transform="translate(-244.711 -4851)" clip-path="url(#clip-path)">
    <g id="destino_1_" data-name="destino (1)" transform="translate(244.436 4850.745)">
      <path id="Trazado_878566" data-name="Trazado 878566" d="M1.1,58.391H56.188V65a4.407,4.407,0,0,1-4.407,4.407H5.509A4.407,4.407,0,0,1,1.1,65Z" fill="#1ee0d7"/>
      <path id="Trazado_878567" data-name="Trazado 878567" d="M51.781,1.1H5.509A4.407,4.407,0,0,0,1.1,5.509V58.391H56.188V5.509A4.407,4.407,0,0,0,51.781,1.1Z" fill="#4a9fff"/>
      <path id="Trazado_878568" data-name="Trazado 878568" d="M45.171,7.712,56.188,20.933H34.153Z" fill="#ffbe2c"/>
      <path id="Trazado_878569" data-name="Trazado 878569" d="M34.7,11.017l8.263,9.916H26.441Z" fill="#fff56e"/>
      <path id="Trazado_878570" data-name="Trazado 878570" d="M34.7,11.017l8.263,9.916H29.747Z" fill="#ffdc28"/>
      <path id="Trazado_878571" data-name="Trazado 878571" d="M1.1,20.933H56.188V39.662H1.1Z" fill="#a0f0ff"/>
      <path id="Trazado_878572" data-name="Trazado 878572" d="M30.848,35.255l-4.407-7.712-4.407,7.712h2.519l-2.519,4.407h8.814L28.33,35.255Z" fill="#23da7d"/>
      <circle id="Elipse_11649" data-name="Elipse 11649" cx="4.407" cy="4.407" r="4.407" transform="translate(9.916 26.441)" fill="#23da7d"/>
      <path id="Trazado_878573" data-name="Trazado 878573" d="M1.1,39.662H56.188V58.391H1.1Z" fill="#fff56e"/>
      <path id="Trazado_878574" data-name="Trazado 878574" d="M23.136,49.578H31.95v8.814H23.136Z" fill="#f98026"/>
      <path id="Trazado_878575" data-name="Trazado 878575" d="M18.729,51.781v2.2H14.322v-2.2H9.916v2.2H5.509v-2.2H1.1v6.61H23.136v-6.61Z" fill="#fa9537"/>
      <path id="Trazado_878576" data-name="Trazado 878576" d="M27.543,44.069l-4.407,5.509H31.95Z" fill="#fa9537"/>
      <rect id="Rect치ngulo_403426" data-name="Rect치ngulo 403426" width="8.814" height="4.407" rx="2.203" transform="translate(24.238 61.697)" fill="#00cabd"/>
      <path id="Trazado_878577" data-name="Trazado 878577" d="M53.665,41h4.406V53.115H53.665Z" transform="translate(-16.913 53.295) rotate(-45)" fill="#50faf0"/>
      <path id="Trazado_878578" data-name="Trazado 878578" d="M60.742,49.727h6.609v7.711a3.3,3.3,0,1,1-6.609,0Z" transform="translate(-20.3 61.475) rotate(-45)" fill="#465064"/>
      <circle id="Elipse_11650" data-name="Elipse 11650" cx="11.016" cy="11.016" r="11.016" transform="translate(32.888 39.663) rotate(-45)" fill="#f0f0f0"/>
      <circle id="Elipse_11651" data-name="Elipse 11651" cx="8.812" cy="8.812" r="8.812" transform="translate(37.105 40.765) rotate(-45)" fill="#fff"/>
      <path id="Trazado_878579" data-name="Trazado 878579" d="M33.878,5.509a.826.826,0,0,0-.826-.826H24.238a.826.826,0,0,0,0,1.653h8.814A.826.826,0,0,0,33.878,5.509Z"/>
      <circle id="Elipse_11652" data-name="Elipse 11652" cx="1.102" cy="1.102" r="1.102" transform="translate(36.357 4.407)"/>
      <path id="Trazado_878580" data-name="Trazado 878580" d="M37.459,64.726h4.407a.826.826,0,1,0,0-1.653H37.459a.826.826,0,1,0,0,1.653Z"/>
      <path id="Trazado_878581" data-name="Trazado 878581" d="M15.424,64.726h4.407a.826.826,0,1,0,0-1.653H15.424a.826.826,0,0,0,0,1.653Z"/>
      <path id="Trazado_878582" data-name="Trazado 878582" d="M26.441,66.93h4.407a3.03,3.03,0,1,0,0-6.059H26.441a3.03,3.03,0,0,0,0,6.059Zm0-4.407h4.407a1.377,1.377,0,1,1,0,2.754H26.441a1.377,1.377,0,1,1,0-2.754Z"/>
      <path id="Trazado_878583" data-name="Trazado 878583" d="M68.536,53.88l-5.454-5.454a.826.826,0,0,0-1.169,0l-.194.195-3.014-3.01a11.853,11.853,0,0,0-1.691-14.146V5.509A5.24,5.24,0,0,0,51.781.275H5.509A5.24,5.24,0,0,0,.275,5.509V65a5.24,5.24,0,0,0,5.233,5.233H51.781A5.24,5.24,0,0,0,57.014,65V53.764a.81.81,0,0,0,.22.5l5.454,5.454a4.131,4.131,0,0,0,5.839-5.839ZM1.928,5.509A3.585,3.585,0,0,1,5.509,1.928H51.781a3.585,3.585,0,0,1,3.581,3.581V18.651L45.805,7.183a.825.825,0,0,0-1.269,0L38.56,14.354l-3.221-3.866a.825.825,0,0,0-1.269,0l-8.015,9.618H1.928ZM39.636,15.644,45.171,9l9.254,11.1H43.354ZM41.2,20.106h-13l6.5-7.8ZM1.928,21.759H55.362v8.283a11.813,11.813,0,0,0-18.684,8.794h-5.35l-1.573-2.754h1.094a.826.826,0,0,0,.717-1.236l-4.407-7.712a.826.826,0,0,0-1.432,0l-4.407,7.712a.826.826,0,0,0,.715,1.236h1.094l-1.573,2.754H15.149V36A5.233,5.233,0,1,0,13.5,36v2.838H1.928ZM27.611,35.665l1.812,3.171H23.459l1.812-3.171a.826.826,0,0,0-.717-1.236h-1.1l2.983-5.22,2.983,5.22h-1.1a.826.826,0,0,0-.717,1.236ZM14.322,33.327a.826.826,0,0,0-.826.826v.17a3.581,3.581,0,1,1,1.653,0v-.17A.826.826,0,0,0,14.322,33.327ZM1.928,52.607H4.682v1.377a.826.826,0,0,0,.826.826H9.916a.826.826,0,0,0,.826-.826V52.607H13.5v1.377a.826.826,0,0,0,.826.826h4.407a.826.826,0,0,0,.826-.826V52.607H22.31v4.958H1.928ZM55.362,65a3.585,3.585,0,0,1-3.581,3.581H5.509A3.585,3.585,0,0,1,1.928,65V59.218H55.362ZM31.124,50.4v7.161H23.962V50.4Zm-6.268-1.653,2.687-3.36L30.23,48.75Zm30.506,8.814H32.776V49.578a.833.833,0,0,0-.181-.517l-4.407-5.509a.857.857,0,0,0-1.291,0l-4.407,5.509a.833.833,0,0,0-.181.517v1.377H18.729a.826.826,0,0,0-.826.826v1.377H15.149V51.781a.826.826,0,0,0-.826-.826H9.916a.826.826,0,0,0-.826.826v1.377H6.335V51.781a.826.826,0,0,0-.826-.826H1.928V40.488H36.677a11.81,11.81,0,0,0,17.738,9.4l.942.942Zm-14.092-10.7a10.191,10.191,0,1,1,14.413,0,10.191,10.191,0,0,1-14.413,0ZM57.244,53.1a.81.81,0,0,0-.22.5V52.485l.421.421Zm-1.43-4.151A11.025,11.025,0,0,0,57.763,47l2.787,2.788L58.6,51.737Zm11.553,9.6a2.478,2.478,0,0,1-3.5,0l-4.87-4.87L62.5,50.178l4.869,4.87a2.477,2.477,0,0,1,0,3.506Z"/>
    </g>
  </g>
</svg>
