<svg xmlns="http://www.w3.org/2000/svg" xmlns:xlink="http://www.w3.org/1999/xlink" width="62.504" height="62.504" viewBox="0 0 62.504 62.504">
  <defs>
    <clipPath id="clip-path">
      <rect id="Rectángulo_403259" data-name="Rectángulo 403259" width="51" height="51" transform="translate(285 11106)" fill="#12263f" stroke="#707070" stroke-width="1"/>
    </clipPath>
  </defs>
  <g id="Grupo_1101907" data-name="Grupo 1101907" transform="translate(-273 -11093)">
    <g id="Grupo_1072053" data-name="Grupo 1072053" transform="translate(273 11093)">
      <circle id="Elipse_4742" data-name="Elipse 4742" cx="31.252" cy="31.252" r="31.252" transform="translate(0)" fill="#4e93ee"/>
    </g>
    <g id="Enmascarar_grupo_1098778" data-name="Enmascarar grupo 1098778" transform="translate(-6 -8)" clip-path="url(#clip-path)">
      <g id="viajar_1_" data-name="viajar (1)" transform="translate(286.473 11106)">
        <path id="Trazado_877981" data-name="Trazado 877981" d="M38.262,16.244a.722.722,0,0,0-1.038.836,22.646,22.646,0,0,1,.685,3.163.725.725,0,0,0,.713.62.756.756,0,0,0,.1-.007.722.722,0,0,0,.612-.816,24.082,24.082,0,0,0-.729-3.366.717.717,0,0,0-.346-.43Z" transform="translate(8.579 3.605)" fill="#12263f"/>
        <path id="Trazado_877982" data-name="Trazado 877982" d="M34.919,10.981a.669.669,0,0,0-.156.933,22.813,22.813,0,0,1,1.69,2.768.669.669,0,1,0,1.189-.614,24.132,24.132,0,0,0-1.79-2.931.668.668,0,0,0-.933-.157Z" transform="translate(7.793 1.975)" fill="#12263f"/>
        <path id="Trazado_877983" data-name="Trazado 877983" d="M28.937,16.551a1.933,1.933,0,0,0-.751,1.094l-.34,1.33a1.931,1.931,0,0,0,.682,2,3.206,3.206,0,0,1,1.149,3.213l-.688,3.067a3.186,3.186,0,0,1-.868,1.569l-.6.594A1.922,1.922,0,0,0,26.96,31l.366,3.353a13.839,13.839,0,0,0,2.71-18.586Z" transform="translate(5.427 3.486)" fill="#12263f"/>
        <path id="Trazado_877984" data-name="Trazado 877984" d="M32.354,29.346a1.928,1.928,0,0,0,.525-.95l.688-3.067a1.94,1.94,0,0,0-.7-1.944,3.192,3.192,0,0,1-1.127-3.306l.34-1.33a3.2,3.2,0,0,1,1.241-1.809l1.071-.763a13.844,13.844,0,0,0-9.931-5.012l.61,3.709a2.19,2.19,0,0,1-.96,2.186l-2.434,1.594a.924.924,0,0,0-.4.95l.327,1.714a.931.931,0,0,0,.509.662l1.71.823a2.195,2.195,0,0,1,1.2,2.359l-.623,3.461a2.2,2.2,0,0,1-.4.923,2.168,2.168,0,0,1-1.746.878,2.25,2.25,0,0,1-.232-.012,2.17,2.17,0,0,1-1.759-1.254l-.627-1.349a.931.931,0,0,0-.841-.537H16.265a.923.923,0,0,0-.533.168l-1.7,1.2a2.19,2.19,0,0,1-1.763.338l-1.958-.465a13.855,13.855,0,0,0,20.965,8.116l-.444-4.072a3.175,3.175,0,0,1,.927-2.614Z" transform="translate(0.306 2.07)" fill="#12263f"/>
        <path id="Trazado_877985" data-name="Trazado 877985" d="M13.409,27.608l1.7-1.2a2.178,2.178,0,0,1,1.257-.4h2.535A2.2,2.2,0,0,1,20.89,27.28l.627,1.349a.928.928,0,0,0,1.754-.227l.623-3.461a.93.93,0,0,0-.511-1l-1.71-.823a2.2,2.2,0,0,1-1.2-1.562l-.327-1.714A2.181,2.181,0,0,1,21.1,17.6l2.434-1.594a.929.929,0,0,0,.407-.927l-.645-3.923A13.866,13.866,0,0,0,10.13,27.152l2.532.6A.926.926,0,0,0,13.409,27.608Z" transform="translate(0.201 2.068)" fill="#12263f"/>
        <path id="Trazado_877986" data-name="Trazado 877986" d="M36.011,16.855a1.073,1.073,0,0,0,.85-.419.63.63,0,0,0,.1-.193l1.047-3.261,2.9-1.845a.628.628,0,0,0,.16-.146,1.076,1.076,0,0,0-.889-1.732l-3.367-.45-1.685-1.3,2.314-3a1.018,1.018,0,0,0-.183-1.429l-.725-.56a1.41,1.41,0,0,0-1.783.052L31.922,5.033,27.452,1.581A2.571,2.571,0,1,0,24.309,5.65L28.778,9.1l-1.664,3.356a1.41,1.41,0,0,0,.4,1.738l.725.56a1.011,1.011,0,0,0,.62.213,1.034,1.034,0,0,0,.132-.009,1.012,1.012,0,0,0,.676-.388l2.314-3,1.685,1.3,1.292,3.137a1.078,1.078,0,0,0,1.051.84ZM28.46,5.488a.747.747,0,1,1-.135-1.047h0a.748.748,0,0,1,.135,1.047ZM30.3,6.912a.747.747,0,1,1-.135-1.048h0A.747.747,0,0,1,30.3,6.912Zm1.843,1.424a.747.747,0,1,1-.135-1.048h0a.747.747,0,0,1,.135,1.048Zm1.843,1.423a.747.747,0,1,1-.135-1.048h0a.748.748,0,0,1,.135,1.048Z" transform="translate(4.307 -1.044)" fill="#12263f"/>
        <path id="Trazado_877987" data-name="Trazado 877987" d="M25.706,38.681a.615.615,0,0,0-.144.017,22.771,22.771,0,0,1-3.208.536.616.616,0,0,0,.116,1.227,24.073,24.073,0,0,0,3.382-.565.616.616,0,0,0-.145-1.215Z" transform="translate(3.841 10.536)" fill="#12263f"/>
        <path id="Trazado_877988" data-name="Trazado 877988" d="M35.691,32.479a.612.612,0,0,0-.38-.132.627.627,0,0,0-.074,0,.612.612,0,0,0-.411.231,23.029,23.029,0,0,1-2.189,2.407.616.616,0,0,0,.851.892,24.219,24.219,0,0,0,2.307-2.536.617.617,0,0,0-.1-.866Z" transform="translate(7.118 8.587)" fill="#12263f"/>
        <path id="Trazado_877989" data-name="Trazado 877989" d="M38.667,21.279a.617.617,0,0,0-.616.616,23.1,23.1,0,0,1-.229,3.246.616.616,0,0,0,1.22.173,24.331,24.331,0,0,0,.242-3.419.617.617,0,0,0-.617-.616Z" transform="translate(8.77 5.182)" fill="#12263f"/>
        <path id="Trazado_877990" data-name="Trazado 877990" d="M19.841,39.234a22.814,22.814,0,0,1-3.208-.536.616.616,0,0,0-.29,1.2,24.054,24.054,0,0,0,3.382.565.616.616,0,0,0,.116-1.227Z" transform="translate(2.019 10.536)" fill="#12263f"/>
        <path id="Trazado_877991" data-name="Trazado 877991" d="M38.143,27.169a.617.617,0,0,0-.784.381,22.7,22.7,0,0,1-1.282,2.991.616.616,0,1,0,1.1.566,23.979,23.979,0,0,0,1.352-3.153.616.616,0,0,0-.381-.784Z" transform="translate(8.214 6.984)" fill="#12263f"/>
        <path id="Trazado_877992" data-name="Trazado 877992" d="M31.075,36.343a.614.614,0,0,0-.333.1A22.79,22.79,0,0,1,27.891,38a.616.616,0,1,0,.513,1.121,24.005,24.005,0,0,0,3.006-1.644.616.616,0,0,0-.335-1.134Z" transform="translate(5.606 9.817)" fill="#12263f"/>
        <path id="Trazado_877993" data-name="Trazado 877993" d="M4.369,27.55a.616.616,0,0,0-1.165.4A23.961,23.961,0,0,0,4.556,31.1a.616.616,0,1,0,1.1-.565A22.733,22.733,0,0,1,4.369,27.55Z" transform="translate(-1.89 6.984)" fill="#12263f"/>
        <path id="Trazado_877994" data-name="Trazado 877994" d="M14.217,38a22.85,22.85,0,0,1-2.855-1.562.612.612,0,0,0-.332-.1.624.624,0,0,0-.132.014.617.617,0,0,0-.2,1.12A24.068,24.068,0,0,0,13.7,39.122a.609.609,0,0,0,.256.056A.616.616,0,0,0,14.217,38Z" transform="translate(0.339 9.816)" fill="#12263f"/>
        <path id="Trazado_877995" data-name="Trazado 877995" d="M7.12,32.581a.612.612,0,0,0-.411-.231.627.627,0,0,0-.074,0,.616.616,0,0,0-.483,1,24.244,24.244,0,0,0,2.306,2.536.616.616,0,1,0,.851-.892A23,23,0,0,1,7.12,32.581Z" transform="translate(-1.013 8.587)" fill="#12263f"/>
        <path id="Trazado_877996" data-name="Trazado 877996" d="M3.012,19.871a.616.616,0,0,0,.721-.489,22.713,22.713,0,0,1,.84-3.142.616.616,0,1,0-1.165-.4,23.983,23.983,0,0,0-.886,3.313.617.617,0,0,0,.489.721Z" transform="translate(-2.092 3.38)" fill="#12263f"/>
        <path id="Trazado_877997" data-name="Trazado 877997" d="M3.653,25.14a23.071,23.071,0,0,1-.229-3.245.616.616,0,1,0-1.233,0,24.309,24.309,0,0,0,.241,3.417.616.616,0,0,0,1.221-.173Z" transform="translate(-2.191 5.182)" fill="#12263f"/>
        <path id="Trazado_877998" data-name="Trazado 877998" d="M7.46,10.344a.617.617,0,0,0-.866.1A24.176,24.176,0,0,0,4.67,13.285a.616.616,0,1,0,1.067.617A22.887,22.887,0,0,1,7.563,11.21a.617.617,0,0,0-.1-.866Z" transform="translate(-1.454 1.777)" fill="#12263f"/>
        <path id="Trazado_877999" data-name="Trazado 877999" d="M17.559,3.968a.613.613,0,0,0-.32-.091.624.624,0,0,0-.146.018,23.9,23.9,0,0,0-3.267,1.043.616.616,0,1,0,.458,1.144,22.705,22.705,0,0,1,3.1-.989.616.616,0,0,0,.177-1.125Z" transform="translate(1.27 -0.172)" fill="#12263f"/>
        <path id="Trazado_878000" data-name="Trazado 878000" d="M12.178,6.5a.617.617,0,0,0-.852-.184A24.21,24.21,0,0,0,8.583,8.371a.616.616,0,0,0,.808.931,22.947,22.947,0,0,1,2.6-1.95.617.617,0,0,0,.184-.852Z" transform="translate(-0.289 0.547)" fill="#12263f"/>
        <path id="Trazado_878001" data-name="Trazado 878001" d="M19.829,3.4a.618.618,0,0,0-.383,1.076.6.6,0,0,0,.44.155q.54-.025,1.084-.025c.725,0,1.451.034,2.17.1a.616.616,0,1,0,.116-1.227A24.373,24.373,0,0,0,19.829,3.4Z" transform="translate(3.055 -0.326)" fill="#12263f"/>
      </g>
    </g>
  </g>
</svg>
