<svg xmlns="http://www.w3.org/2000/svg" xmlns:xlink="http://www.w3.org/1999/xlink" width="69.15" height="69.15" viewBox="0 0 69.15 69.15">
  <defs>
    <clipPath id="clip-path">
      <rect id="Rectángulo_403250" data-name="Rectángulo 403250" width="69.15" height="69.15" transform="translate(1028 5425.5)" fill="#fff" stroke="#707070" stroke-width="1"/>
    </clipPath>
  </defs>
  <g id="Enmascarar_grupo_1098806" data-name="Enmascarar grupo 1098806" transform="translate(-1028 -5425.5)" clip-path="url(#clip-path)">
    <g id="Photography-Man-Lifestyle-Camera-Mountain" transform="translate(1025.737 5423.276)">
      <path id="Trazado_878620" data-name="Trazado 878620" d="M70.223,57.18v9.589L54.072,70.223H44.966l-11.075-2.36a2.3,2.3,0,0,0,1.8-2.245V49.5a2.323,2.323,0,0,0-1.427-2.13,11.505,11.505,0,0,1,4.409-1.589l.576-.081c.7,2.8,5.031,4.95,10.257,4.95S59.056,48.5,59.759,45.7l.576.081a11.525,11.525,0,0,1,9.889,11.4Z" fill="#57a4ff"/>
      <path id="Trazado_878621" data-name="Trazado 878621" d="M70.223,57.18v9.589L54.072,70.223H47.165l16.151-3.454V57.18a11.537,11.537,0,0,0-4.858-9.394,4.474,4.474,0,0,0,1.3-2.084l.576.081a11.525,11.525,0,0,1,9.889,11.4Z" fill="#006df0"/>
      <path id="Trazado_878622" data-name="Trazado 878622" d="M60.357,12.191c5.917.817,9.866,2.268,9.866,3.926,0,1.7-4.167,3.189-10.361,3.983a82.587,82.587,0,0,1-10.361.622A82.588,82.588,0,0,1,39.141,20.1c-6.193-.794-10.361-2.279-10.361-3.983,0-1.658,3.949-3.108,9.866-3.926l-.081.472A41.6,41.6,0,0,0,49.5,13.814a41.6,41.6,0,0,0,10.936-1.151Z" fill="#806749"/>
      <path id="Trazado_878623" data-name="Trazado 878623" d="M70.223,16.117c0,1.7-4.167,3.189-10.361,3.983a82.587,82.587,0,0,1-10.361.622c-1.174,0-2.337-.023-3.454-.069,2.475-.092,4.812-.288,6.907-.553,6.193-.794,10.361-2.279,10.361-3.983,0-1.128-1.842-2.164-4.893-2.97a18.693,18.693,0,0,0,2.015-.483l-.081-.472c5.917.817,9.866,2.268,9.866,3.926Z" fill="#6a563d"/>
      <path id="Trazado_878624" data-name="Trazado 878624" d="M63.316,55.257v5.756a3.454,3.454,0,1,1-6.907,0V55.257Z" fill="#898890"/>
      <path id="Trazado_878625" data-name="Trazado 878625" d="M63.316,55.257v5.756a3.454,3.454,0,0,1-5.18,2.993,3.454,3.454,0,0,0,1.727-2.993V55.257Z" fill="#57565c"/>
      <path id="Trazado_878626" data-name="Trazado 878626" d="M62.165,24.175v2.3a2.32,2.32,0,0,1-2.3,2.3A10.308,10.308,0,0,1,56.823,36.1a9.7,9.7,0,0,1-2.717,1.946,10.246,10.246,0,0,1-9.21,0A9.7,9.7,0,0,1,42.18,36.1a10.308,10.308,0,0,1-3.039-7.322,2.309,2.309,0,0,1-2.3-2.3v-2.3a2.32,2.32,0,0,1,2.3-2.3V20.1a82.587,82.587,0,0,0,10.361.622A82.59,82.59,0,0,0,59.862,20.1v1.773a2.309,2.309,0,0,1,2.3,2.3Z" fill="#ffc477"/>
      <path id="Trazado_878627" data-name="Trazado 878627" d="M55.257,21.873V20.537c1.623-.1,3.166-.253,4.6-.437v1.773a2.309,2.309,0,0,1,2.3,2.3v2.3a2.32,2.32,0,0,1-2.3,2.3A10.308,10.308,0,0,1,56.823,36.1a9.7,9.7,0,0,1-2.717,1.946,10.209,10.209,0,0,1-6.907.829,9.988,9.988,0,0,0,2.3-.829A9.7,9.7,0,0,0,52.218,36.1a10.308,10.308,0,0,0,3.039-7.322Z" fill="#ffa733"/>
      <path id="Trazado_878628" data-name="Trazado 878628" d="M60.357,12.191l.081.472A41.6,41.6,0,0,1,49.5,13.814a41.6,41.6,0,0,1-10.936-1.151l.081-.472.829-4.973a4.6,4.6,0,0,1,5.652-3.707l3.258.817a4.582,4.582,0,0,0,2.233,0l3.258-.817a4.6,4.6,0,0,1,5.652,3.707Z" fill="#a78966"/>
      <path id="Trazado_878629" data-name="Trazado 878629" d="M60.438,12.663A41.6,41.6,0,0,1,49.5,13.814c-1.623,0-3.177-.058-4.6-.161a29.681,29.681,0,0,0,6.332-.99l-.081-.472-.829-4.973a4.553,4.553,0,0,0-1.681-2.843,4.426,4.426,0,0,0,1.98-.046l3.258-.817a4.6,4.6,0,0,1,5.652,3.707l.829,4.973Z" fill="#806749"/>
      <path id="Trazado_878630" data-name="Trazado 878630" d="M54.106,44.9l5.652.806c-.7,2.8-5.031,4.95-10.257,4.95S39.947,48.5,39.244,45.7L44.9,44.9v-6.85a10.246,10.246,0,0,0,9.21,0Z" fill="#ffc477"/>
      <path id="Trazado_878631" data-name="Trazado 878631" d="M5.756,67.921a2.309,2.309,0,0,1-2.3-2.3V49.5a2.309,2.309,0,0,1,2.3-2.3h4.6a2.32,2.32,0,0,0,2.3-2.3,2.309,2.309,0,0,1,2.3-2.3h9.21a2.32,2.32,0,0,1,2.3,2.3,2.309,2.309,0,0,0,2.3,2.3h4.6a2.238,2.238,0,0,1,.875.173,2.323,2.323,0,0,1,1.427,2.13V65.618a2.3,2.3,0,0,1-1.8,2.245,2.438,2.438,0,0,1-.507.058Z" fill="#898890"/>
      <path id="Trazado_878632" data-name="Trazado 878632" d="M28.78,47.2h-4.6a2.309,2.309,0,0,1-2.3-2.3,2.32,2.32,0,0,0-2.3-2.3h4.6a2.32,2.32,0,0,1,2.3,2.3,2.309,2.309,0,0,0,2.3,2.3Z" fill="#787680"/>
      <path id="Trazado_878633" data-name="Trazado 878633" d="M35.687,49.5V65.618a2.3,2.3,0,0,1-1.8,2.245,2.438,2.438,0,0,1-.507.058h-4.6a2.438,2.438,0,0,0,.507-.058,2.3,2.3,0,0,0,1.8-2.245V49.5a2.323,2.323,0,0,0-1.427-2.13,2.238,2.238,0,0,0-.875-.173h4.6a2.238,2.238,0,0,1,.875.173A2.323,2.323,0,0,1,35.687,49.5Z" fill="#787680"/>
      <path id="Trazado_878634" data-name="Trazado 878634" d="M24.175,21.873l6.907,12.663H3.454l8.058-18.419L18.419,28.78Z" fill="#9cdd05"/>
      <path id="Trazado_878635" data-name="Trazado 878635" d="M31.082,34.536h-4.6l-5.088-9.325,2.786-3.338Z" fill="#5eac24"/>
      <path id="Trazado_878636" data-name="Trazado 878636" d="M19.57,54.106a8.053,8.053,0,1,1-5.7,2.359,8.051,8.051,0,0,1,5.7-2.359Z" fill="#c6c5ca"/>
      <path id="Trazado_878637" data-name="Trazado 878637" d="M27.629,62.165a8.076,8.076,0,0,1-8.058,8.058,7.583,7.583,0,0,1-2.3-.345,7.863,7.863,0,0,0,3.327-1.957A8.051,8.051,0,0,0,17.268,54.44a7.953,7.953,0,0,1,2.3-.334,8.058,8.058,0,0,1,8.058,8.058Z" fill="#898890"/>
      <circle id="Elipse_11661" data-name="Elipse 11661" cx="2.302" cy="2.302" r="2.302" transform="translate(17.268 10.361)" fill="#ff3051"/>
      <path id="Trazado_878638" data-name="Trazado 878638" d="M21.873,12.663a2.3,2.3,0,0,1-3.454,1.992,2.3,2.3,0,0,0,0-3.983,2.3,2.3,0,0,1,3.454,1.992Z" fill="#cd2a00"/>
      <path id="Trazado_878639" data-name="Trazado 878639" d="M19.57,57.56a1.151,1.151,0,1,0,0,2.3,2.3,2.3,0,0,1,2.3,2.3,1.151,1.151,0,0,0,2.3,0A4.6,4.6,0,0,0,19.57,57.56Z"/>
      <path id="Trazado_878640" data-name="Trazado 878640" d="M63.316,54.106H56.409a1.151,1.151,0,0,0-1.151,1.151v5.756a4.6,4.6,0,1,0,9.21,0V55.257A1.151,1.151,0,0,0,63.316,54.106Zm-1.151,6.907a2.3,2.3,0,0,1-4.6,0v-4.6h4.6Z"/>
      <path id="Trazado_878641" data-name="Trazado 878641" d="M32.1,33.983,25.188,21.32a1.151,1.151,0,0,0-1.9-.184l-4.674,5.606-6.09-11.178a1.211,1.211,0,0,0-1.059-.6,1.183,1.183,0,0,0-1.013.691L2.394,34.075a1.187,1.187,0,0,0,.092,1.094,1.166,1.166,0,0,0,.967.518H31.082a1.165,1.165,0,0,0,.99-.564,1.151,1.151,0,0,0,.023-1.14Zm-26.88-.6L11.627,18.73l5.779,10.6a1.151,1.151,0,0,0,1.9.184l4.674-5.606,5.169,9.474Z"/>
      <circle id="Elipse_11662" data-name="Elipse 11662" cx="2.302" cy="2.302" r="2.302" transform="translate(42.594 23.024)"/>
      <circle id="Elipse_11663" data-name="Elipse 11663" cx="2.302" cy="2.302" r="2.302" transform="translate(51.804 23.024)"/>
      <path id="Trazado_878642" data-name="Trazado 878642" d="M21.873,46.048h-4.6a1.151,1.151,0,1,0,0,2.3h4.6a1.151,1.151,0,1,0,0-2.3Z"/>
      <path id="Trazado_878643" data-name="Trazado 878643" d="M19.57,16.117a3.454,3.454,0,1,0-3.454-3.454,3.454,3.454,0,0,0,3.454,3.454Zm0-4.6a1.151,1.151,0,1,1-1.151,1.151A1.151,1.151,0,0,1,19.57,11.512Z"/>
      <circle id="Elipse_11664" data-name="Elipse 11664" cx="2.302" cy="2.302" r="2.302" transform="translate(27.629 50.653)"/>
      <path id="Trazado_878644" data-name="Trazado 878644" d="M60.5,44.643,55.257,43.9V38.738a11.434,11.434,0,0,0,5.71-8.991,3.289,3.289,0,0,0,1.324-.817,3.42,3.42,0,0,0,1.025-2.452v-2.3a3.435,3.435,0,0,0-1.98-3.108c5.445-.817,10.038-2.325,10.038-4.95,0-2.268-3.373-3.926-10.015-4.939l-.691-4.144A5.756,5.756,0,0,0,53.6,2.394l-3.258.817a3.46,3.46,0,0,1-1.681,0L45.4,2.394a5.756,5.756,0,0,0-7.068,4.639l-.691,4.144C31,12.191,27.629,13.849,27.629,16.117c0,2.625,4.6,4.144,10.05,4.95a3.266,3.266,0,0,0-.967.656,3.42,3.42,0,0,0-1.025,2.452v2.3a3.454,3.454,0,0,0,2.337,3.269,11.361,11.361,0,0,0,3.338,7.16,11.045,11.045,0,0,0,2.383,1.83V43.9l-5.238.748a12.854,12.854,0,0,0-4.386,1.485,3.9,3.9,0,0,0-.737-.081h-4.6A1.151,1.151,0,0,1,27.629,44.9a3.454,3.454,0,0,0-3.454-3.454h-9.21A3.464,3.464,0,0,0,11.512,44.9a1.092,1.092,0,0,1-.357.817,1.068,1.068,0,0,1-.794.334h-4.6A3.464,3.464,0,0,0,2.3,49.5V65.618a3.464,3.464,0,0,0,3.454,3.454H13.5a9.144,9.144,0,0,0,12.134,0h7.748c.138,0,.288-.035.426-.046l10.913,2.325a1.717,1.717,0,0,0,.242.023h9.106a1.717,1.717,0,0,0,.242-.023L70.465,67.9a1.151,1.151,0,0,0,.909-1.128V57.18A12.744,12.744,0,0,0,60.5,44.643ZM40.614,7.4a3.359,3.359,0,0,1,1.508-2.314,3.411,3.411,0,0,1,2.728-.46l3.258.817a5.7,5.7,0,0,0,2.786,0l3.258-.817a3.411,3.411,0,0,1,2.728.46A3.359,3.359,0,0,1,58.389,7.4l.737,4.421a46.589,46.589,0,0,1-9.624.84,46.589,46.589,0,0,1-9.624-.84ZM29.931,16.14c.092-.334,1.715-1.692,7.851-2.659a.921.921,0,0,0,.437.276A42.224,42.224,0,0,0,49.5,14.966a42.224,42.224,0,0,0,11.282-1.209.921.921,0,0,0,.437-.276c6.136.967,7.759,2.325,7.851,2.613-.334,1.22-7.356,3.477-19.57,3.477s-19.237-2.256-19.57-3.431ZM42.986,35.284a9.1,9.1,0,0,1-2.694-6.5,1.151,1.151,0,0,0-1.151-1.151,1.151,1.151,0,0,1-1.151-1.151v-2.3a1.092,1.092,0,0,1,.357-.817,1.068,1.068,0,0,1,.794-.334,1.151,1.151,0,0,0,1.151-1.151V21.4c3.223.334,6.516.472,9.21.472s5.986-.138,9.21-.472v.472a1.151,1.151,0,0,0,1.151,1.151,1.151,1.151,0,0,1,1.151,1.151v2.3a1.093,1.093,0,0,1-.357.817,1.068,1.068,0,0,1-.794.334,1.151,1.151,0,0,0-1.151,1.151,9.21,9.21,0,0,1-15.725,6.5Zm2.072,10.752a1.151,1.151,0,0,0,.99-1.14V39.762a11.527,11.527,0,0,0,6.907,0V44.9a1.151,1.151,0,0,0,.99,1.14l4.041.576C56.65,48.166,53.565,49.5,49.5,49.5s-7.149-1.335-8.484-2.89ZM19.57,69.072a6.907,6.907,0,1,1,6.907-6.907A6.907,6.907,0,0,1,19.57,69.072Zm14.966-3.454a1.158,1.158,0,0,1-.886,1.117,1.116,1.116,0,0,1-.265.035H27.537a9.21,9.21,0,1,0-15.933,0H5.756A1.151,1.151,0,0,1,4.6,65.618V49.5A1.151,1.151,0,0,1,5.756,48.35h4.6A3.454,3.454,0,0,0,13.814,44.9a1.151,1.151,0,0,1,1.151-1.151h9.21a1.092,1.092,0,0,1,.817.357,1.068,1.068,0,0,1,.334.794A3.464,3.464,0,0,0,28.78,48.35h4.6a1.1,1.1,0,0,1,.437.081,1.182,1.182,0,0,1,.714,1.071Zm34.536.219L53.945,69.072H45.092L36.424,67.23a3.356,3.356,0,0,0,.414-1.612V49.5a3.378,3.378,0,0,0-.553-1.865,10.6,10.6,0,0,1,2.233-.656C39.97,49.824,44.344,51.8,49.5,51.8s9.532-1.98,10.982-4.824a10.423,10.423,0,0,1,8.588,10.2Z"/>
    </g>
  </g>
</svg>
