<svg xmlns="http://www.w3.org/2000/svg" xmlns:xlink="http://www.w3.org/1999/xlink" width="85" height="85" viewBox="0 0 85 85">
  <defs>
    <clipPath id="clip-path">
      <rect id="Rectángulo_403250" data-name="Rectángulo 403250" width="60" height="59" transform="translate(402 6458.336)" fill="#fff" stroke="#707070" stroke-width="1"/>
    </clipPath>
  </defs>
  <g id="Grupo_1102409" data-name="Grupo 1102409" transform="translate(-389 -6445.336)">
    <circle id="Elipse_11630" data-name="Elipse 11630" cx="42.5" cy="42.5" r="42.5" transform="translate(389 6445.336)" fill="#fec009"/>
    <g id="Enmascarar_grupo_1098831" data-name="Enmascarar grupo 1098831" clip-path="url(#clip-path)">
      <g id="XMLID_106_" transform="translate(402.5 6458.336)">
        <circle id="XMLID_1271_" cx="28.348" cy="28.348" r="28.348" transform="translate(1.152 1.152)" fill="#66e0f7"/>
        <g id="Grupo_1102411" data-name="Grupo 1102411">
          <path id="XMLID_1478_" d="M57.848,29.5a28.213,28.213,0,0,0-4.263-14.954l-3.553,2.786a6.32,6.32,0,0,1-6.784.519,5.809,5.809,0,0,0-8.263,3.58,6.232,6.232,0,0,0,4.677,8.105,5.982,5.982,0,0,1,4.729,4.419A20.764,20.764,0,0,1,45.1,39.35a7.145,7.145,0,0,0,6.95,7.323A28.221,28.221,0,0,0,57.848,29.5Z" fill="#cbe558"/>
          <path id="XMLID_1477_" d="M28.828,9.359l-8.713-6.4-.47-.05A28.442,28.442,0,0,0,4.519,16.091l.282.792,1.751,3.511a11.1,11.1,0,0,0,6.618,5.639l7.153,2.239-1.006-2.086a3.072,3.072,0,0,1,2.767-4.407,3.072,3.072,0,0,0,2.5-1.283l4.924-6.872a3.072,3.072,0,0,0-.679-4.266Z" fill="#cbe558"/>
          <path id="XMLID_1473_" d="M16.877,31.052A6.082,6.082,0,0,0,17.9,39.389l3.069,2.243v9.415a5.826,5.826,0,0,0,2.1,4.476l6.121-5.9a7.207,7.207,0,0,0,2.2-5.188,1.642,1.642,0,0,1,1.642-1.642,1.642,1.642,0,0,0,1.642-1.642V35.514a1.642,1.642,0,0,0-.957-1.493L27.571,31.2l-2.514-1.625a6.082,6.082,0,0,0-8.18,1.478Z" fill="#cbe558"/>
        </g>
        <g id="XMLID_1461_">
          <path id="XMLID_1471_" d="M57.848,11.074a9.91,9.91,0,1,0-17.6,6.256h0l7.686,9.852,7.649-9.8h-.006a9.87,9.87,0,0,0,2.266-6.308Z" fill="#d8727e"/>
          <circle id="XMLID_1470_" cx="3.836" cy="3.836" r="3.836" transform="translate(44.101 7.396)" fill="#fff"/>
        </g>
        <g id="XMLID_1160_">
          <path id="XMLID_1172_" d="M20.973,41.74A9.91,9.91,0,1,0,3.377,48h0l7.686,9.852,7.649-9.8h-.006A9.87,9.87,0,0,0,20.973,41.74Z" fill="#ffcd69"/>
          <circle id="XMLID_1161_" cx="3.836" cy="3.836" r="3.836" transform="translate(7.226 38.062)" fill="#fff"/>
        </g>
        <g id="XMLID_638_">
          <path id="XMLID_727_" d="M47.938,16.22a4.989,4.989,0,1,0-4.988-4.989A4.994,4.994,0,0,0,47.938,16.22Zm0-7.672a2.684,2.684,0,1,1-2.684,2.684A2.687,2.687,0,0,1,47.938,8.548Z"/>
          <path id="XMLID_742_" d="M59,11.074a11.057,11.057,0,0,0-17.889-8.7A29.507,29.507,0,0,0,0,29.5a29.578,29.578,0,0,0,1,7.644A11.058,11.058,0,0,0,2.46,48.7l7.694,9.861a1.152,1.152,0,0,0,1.817,0l2.748-3.521a29.595,29.595,0,0,0,21.94,3.09,1.152,1.152,0,0,0-.558-2.236,27.376,27.376,0,0,1-12.024.263l5.913-5.7a8.4,8.4,0,0,0,2.557-6.017.49.49,0,0,1,.49-.49,2.8,2.8,0,0,0,2.794-2.794V35.514a2.8,2.8,0,0,0-1.629-2.54l-6.076-2.787-2.445-1.58a7.2,7.2,0,0,0-4.463-1.131l-.863-1.79a1.92,1.92,0,0,1,1.729-2.754,4.234,4.234,0,0,0,3.434-1.764L30.444,14.3A4.239,4.239,0,0,0,29.51,8.43L22.436,3.237a27.265,27.265,0,0,1,16.892.9,11.043,11.043,0,0,0-1.065,12.3,7.207,7.207,0,0,0-4.377,4.648,7.625,7.625,0,0,0,.757,6.288,7.044,7.044,0,0,0,4.83,3.3,4.846,4.846,0,0,1,3.806,3.582,19.613,19.613,0,0,1,.672,5.094,8.439,8.439,0,0,0,5.919,8.16,27.205,27.205,0,0,1-4.752,4.256,1.152,1.152,0,1,0,1.325,1.886A29.527,29.527,0,0,0,56.634,17.908,11.081,11.081,0,0,0,59,11.074Zm-47.937,44.9L4.27,47.268a8.757,8.757,0,1,1,13.548.046C17.789,47.348,11.063,55.975,11.063,55.975ZM16.152,53.2c1.8-2.31,3.506-4.493,3.512-4.5.053-.066.1-.134.156-.2v2.552a6.955,6.955,0,0,0,1.58,4.419A27.023,27.023,0,0,1,16.152,53.2Zm8.279-22.656,2.514,1.625a1.141,1.141,0,0,0,.145.08l4.086,1.874a1.152,1.152,0,0,0,.321,2.258h2.03v4.769a.49.49,0,0,1-.49.49,2.8,2.8,0,0,0-2.794,2.794,6.084,6.084,0,0,1-1.852,4.358l-5.3,5.107a4.659,4.659,0,0,1-.969-2.851V41.632h0A11.059,11.059,0,0,0,17.288,32.6a4.93,4.93,0,0,1,7.144-2.058Zm-8.479-.178a7.261,7.261,0,0,0-.7,1.139,11.048,11.048,0,0,0-12.5,2.94A27.38,27.38,0,0,1,2.3,29.5,27.044,27.044,0,0,1,4.486,18.832l1.036,2.076a12.315,12.315,0,0,0,7.305,6.225l4.912,1.537a7.178,7.178,0,0,0-1.786,1.695ZM28.146,10.288a1.927,1.927,0,0,1,.425,2.666l-4.924,6.872a1.924,1.924,0,0,1-1.561.8,4.225,4.225,0,0,0-3.938,5.756l-4.633-1.45a10,10,0,0,1-5.931-5.054L5.833,16.369a1.139,1.139,0,0,0-.072-.123A27.354,27.354,0,0,1,19.74,4.117ZM47.938,2.316a8.758,8.758,0,0,1,6.755,14.332c-.029.035-6.755,8.661-6.755,8.661L41.145,16.6A8.757,8.757,0,0,1,47.937,2.316Zm3.553,43.175a6.047,6.047,0,0,1-5.235-6.141,21.954,21.954,0,0,0-.2-2.971h.733a1.152,1.152,0,0,0,0-2.3H45.609c-.035-.139-.068-.279-.105-.418A7.154,7.154,0,0,0,39.851,28.4a4.679,4.679,0,0,1-3.243-2.233,5.32,5.32,0,0,1-.525-4.388,4.857,4.857,0,0,1,3.566-3.347l7.379,9.459a1.153,1.153,0,0,0,.909.444h0a1.152,1.152,0,0,0,.908-.443l6.148-7.877a27.214,27.214,0,0,1-3.5,25.477Z"/>
          <path id="XMLID_764_" d="M11.063,36.909A4.989,4.989,0,1,0,16.051,41.9,4.994,4.994,0,0,0,11.063,36.909Zm0,7.672A2.684,2.684,0,1,1,13.746,41.9a2.687,2.687,0,0,1-2.684,2.684Z"/>
          <path id="XMLID_765_" d="M51.279,30.782a1.152,1.152,0,0,0-1.152,1.152v.984a1.152,1.152,0,0,0,2.3,0v-.984A1.152,1.152,0,0,0,51.279,30.782Z"/>
          <path id="XMLID_766_" d="M41.228,35.227a1.152,1.152,0,0,0-1.152-1.152h-.86a1.152,1.152,0,0,0,0,2.3h.86A1.152,1.152,0,0,0,41.228,35.227Z"/>
          <path id="XMLID_767_" d="M26.366,39.235a1.148,1.148,0,0,0,.815-.338l1-1a1.152,1.152,0,0,0-1.63-1.63l-1,1a1.152,1.152,0,0,0,.815,1.967Z"/>
          <path id="XMLID_768_" d="M41.257,54.092a1.153,1.153,0,1,0,.816.338A1.159,1.159,0,0,0,41.257,54.092Z"/>
        </g>
      </g>
    </g>
  </g>
</svg>
