<svg id="Grupo_1101974" data-name="Grupo 1101974" xmlns="http://www.w3.org/2000/svg" width="240.196" height="213.717" viewBox="0 0 240.196 213.717">
  <g id="Grupo_1101931" data-name="Grupo 1101931" transform="translate(0 0)">
    <path id="Trazado_878003" data-name="Trazado 878003" d="M101.479,190.611c48.065,9.613,90.183-1.288,113.372-20.613,9.554-7.962,19.218-20.184,22.761-34.355,12.883-51.534-25.084-94.2-54.539-78.159-48.1,26.2-55.258,7.58-94.477-32.208C58.964-4.785-35.084,37.3,13.873,125.765c19.9,35.966,53.251,57.975,87.606,64.846" transform="translate(0 7.117)" fill="#ffe69c"/>
    <path id="Trazado_878004" data-name="Trazado 878004" d="M69.23,89.974S58.81,85.143,41.45,85.805c-12.259.469-26.922-11-26.922-11s17.533-10.188,31.6-4.558,23.1,19.723,23.1,19.723" transform="translate(6.614 31.208)" fill="#c6af88"/>
    <path id="Trazado_878005" data-name="Trazado 878005" d="M63.846,87.751a.3.3,0,0,1-.367-.032A51.464,51.464,0,0,0,39.335,75.64a50.77,50.77,0,0,0-12.228-1.167.3.3,0,1,1-.038-.6A51.32,51.32,0,0,1,39.46,75.051,52.05,52.05,0,0,1,63.887,87.275a.3.3,0,0,1,.019.426.276.276,0,0,1-.06.049" transform="translate(12.194 33.615)" fill="#a38761"/>
    <path id="Trazado_878006" data-name="Trazado 878006" d="M62.336,95.384S56.323,85.6,41.487,76.558C31.01,70.174,25.124,52.516,25.124,52.516s20.244,1.2,28.859,13.666,8.353,29.2,8.353,29.2" transform="translate(11.437 23.907)" fill="#c6af88"/>
    <path id="Trazado_878007" data-name="Trazado 878007" d="M58.069,92.142a.3.3,0,0,1-.288-.228A51.476,51.476,0,0,0,44.333,68.5a50.825,50.825,0,0,0-9.548-7.73.3.3,0,1,1,.3-.522,51.42,51.42,0,0,1,9.676,7.829,52.056,52.056,0,0,1,13.6,23.688.3.3,0,0,1-.22.365.338.338,0,0,1-.077.009" transform="translate(15.766 27.409)" fill="#a38761"/>
    <path id="Trazado_878008" data-name="Trazado 878008" d="M108.709,148.708s8.826-7.347,25.773-11.172c11.968-2.7,23.19-17.547,23.19-17.547s-19.563-5.338-31.712,3.721-17.252,25-17.252,25" transform="translate(49.487 53.911)" fill="#c6af88"/>
    <path id="Trazado_878009" data-name="Trazado 878009" d="M108.677,146.548a.3.3,0,0,0,.346-.125,51.465,51.465,0,0,1,20.228-17.88,50.743,50.743,0,0,1,11.518-4.271.3.3,0,0,0-.118-.592A51.469,51.469,0,0,0,128.978,128,52.075,52.075,0,0,0,108.514,146.1a.3.3,0,0,0,.092.416.29.29,0,0,0,.071.033" transform="translate(49.377 56.299)" fill="#a38761"/>
    <path id="Trazado_878010" data-name="Trazado 878010" d="M110.334,153.566s3.3-11,15.307-23.553c8.483-8.864,9.631-27.441,9.631-27.441S116.018,108.934,110.9,123.2s-.565,30.368-.565,30.368" transform="translate(49.377 46.693)" fill="#c6af88"/>
    <path id="Trazado_878011" data-name="Trazado 878011" d="M109.876,149.315a.3.3,0,0,0,.22-.3,51.449,51.449,0,0,1,6.978-26.081,50.744,50.744,0,0,1,7.238-9.925.3.3,0,0,0-.425-.428,51.431,51.431,0,0,0-7.337,10.054,52.053,52.053,0,0,0-7.058,26.389.3.3,0,0,0,.307.3.343.343,0,0,0,.077-.012" transform="translate(49.841 51.212)" fill="#a38761"/>
    <path id="Trazado_878012" data-name="Trazado 878012" d="M35.874,2.273a.691.691,0,0,0,.084-.061c.5-.412,6.113-4.783,14.367.031C58.976,7.289,64.6,5.622,69.79,4.757c8.986-1.5,12.372.467,16.338,4.108a15.352,15.352,0,0,0,5.085,2.874.806.806,0,0,1-.271,1.566h-67.8a.807.807,0,0,1-.613-1.332c1.173-1.382,4.476-4.163,13.341-9.7" transform="translate(10.169 0)" fill="#ffe69c"/>
    <path id="Trazado_878013" data-name="Trazado 878013" d="M102.562,26.817a.506.506,0,0,0,.057-.041c.333-.275,4.089-3.2,9.61.02,5.786,3.376,9.545,2.26,13.018,1.682,6.012-1,8.276.313,10.929,2.747a10.258,10.258,0,0,0,3.4,1.922A.54.54,0,0,1,139.4,34.2H94.048a.54.54,0,0,1-.409-.891c.784-.924,2.993-2.785,8.923-6.489" transform="translate(42.567 11.515)" fill="#ffe69c"/>
    <path id="Trazado_878014" data-name="Trazado 878014" d="M157.007,7.713a.506.506,0,0,1-.057-.041c-.333-.275-4.089-3.2-9.61.02-5.786,3.376-9.545,2.26-13.018,1.682-6.012-1-8.276.313-10.929,2.747a10.243,10.243,0,0,1-3.4,1.922.54.54,0,0,0,.182,1.048h45.348a.539.539,0,0,0,.409-.891c-.784-.924-2.993-2.785-8.923-6.489" transform="translate(54.461 2.819)" fill="#ffe69c"/>
    <path id="Trazado_878015" data-name="Trazado 878015" d="M132.131,22.263C135,31.235,118.994,44.376,96.379,51.611S53.1,57.441,50.229,48.468,63.366,26.355,85.981,19.119s43.278-5.83,46.149,3.143" transform="translate(22.714 6.598)" fill="#bf741b"/>
    <path id="Trazado_878016" data-name="Trazado 878016" d="M139.372,111.4c-.031-.188-.065-.375-.1-.565l-.055-.278-.06-.271c-.07-.278-.143-.557-.221-.834-.14-.464-.287-.931-.416-1.284-.268-.773-.521-1.372-.77-1.967-.5-1.154-.975-2.161-1.457-3.132s-.96-1.895-1.445-2.8-.963-1.793-1.449-2.667c-.966-1.751-1.941-3.459-2.925-5.151s-1.973-3.362-2.966-5.021-1.988-3.318-2.992-4.962L121.5,77.552l-3.031-4.892-2.349-3.768-.7-1.113-3.088-4.9A11.742,11.742,0,1,0,92.463,75.394c.172.271.351.53.54.781l.052.068,1.666,2.218,1.665,2.256L99.7,85.25c1.1,1.511,2.184,3.034,3.267,4.559s2.152,3.046,3.21,4.58c2.123,3.059,4.209,6.128,6.209,9.2,1,1.534,1.988,3.065,2.929,4.584.471.76.926,1.513,1.372,2.263s.866,1.484,1.259,2.194c.255.455.5.905.715,1.324-.108.16-.228.33-.364.5-.373.5-.824,1.032-1.314,1.576-.984,1.094-2.133,2.224-3.356,3.34-1.556,1.409-3.225,2.8-4.965,4.155-.377.3-.757.586-1.141.879q-.978.744-1.972,1.47c-.914.668-1.848,1.324-2.79,1.969-.357.247-.715.49-1.071.735-.176.118-.348.237-.524.355-.741.5-1.489.987-2.232,1.47-.377.242-.749.474-1.122.71l-1.058.648-.156.1a9.762,9.762,0,0,0,10.224,16.632l.02-.01.006,0,.706-.438.649-.409,1.275-.815c.547-.348,1.086-.7,1.624-1.055.3-.191.6-.389.894-.585,1.671-1.1,3.314-2.244,4.959-3.4.076-.052.15-.106.224-.16.21-.148.421-.3.629-.45.3-.211.594-.425.889-.64q1.585-1.148,3.161-2.356c1.631-1.246,3.251-2.545,4.862-3.932s3.228-2.857,4.839-4.523c.806-.837,1.607-1.724,2.413-2.7a31.441,31.441,0,0,0,2.417-3.306,22.027,22.027,0,0,0,2.264-4.657c.164-.479.317-1.01.454-1.554a16.385,16.385,0,0,0,.33-1.8,15.225,15.225,0,0,0-.06-4.3m-20.089,1.529a.2.2,0,0,1,.01-.051,1.279,1.279,0,0,1,.067-.191c.057-.111.029.016-.077.242" transform="translate(41.269 26.127)" fill="#e28d6f"/>
    <path id="Trazado_878017" data-name="Trazado 878017" d="M114.354,120.255c-.208.153-.419.3-.63.45-.073.055-.148.111-.224.162-1.644,1.155-3.289,2.295-4.959,3.4-.3.2-.592.394-.892.585q-.808.535-1.624,1.054l-1.275.816-.649.409-.707.439-.006,0-5.153-19.9q.537-.365,1.073-.735c.94-.646,1.876-1.3,2.788-1.97q1-.722,1.973-1.468c.384-.292.339.119.716-.176,1.04.148,3.586.278,4.94,1.5a5.846,5.846,0,0,1,1.131,6.564,2.951,2.951,0,0,1,1.387,4.2,5.6,5.6,0,0,1,1.886,1.864,3.306,3.306,0,0,1,.226,2.81" transform="translate(44.719 47.034)" fill="#cf6353"/>
    <path id="Trazado_878018" data-name="Trazado 878018" d="M110.187,96.916a.393.393,0,0,1-.086-.739,14.576,14.576,0,0,1,6.582-1.288.393.393,0,0,1-.067.783,14.052,14.052,0,0,0-6.18,1.215.39.39,0,0,1-.249.029" transform="translate(50.018 43.18)" fill="#cf6353"/>
    <path id="Trazado_878019" data-name="Trazado 878019" d="M110.518,97.114a.375.375,0,0,1-.121-.048.393.393,0,0,1-.134-.54,9.519,9.519,0,0,1,2.73-2.625.393.393,0,0,1,.418.665,8.944,8.944,0,0,0-2.474,2.366.4.4,0,0,1-.419.182" transform="translate(50.169 42.718)" fill="#cf6353"/>
    <path id="Trazado_878020" data-name="Trazado 878020" d="M50.889,68.191s-3.832,2.555-4.855,5.492.256,5.876,2.427,6.388c0,0-1.915,12.9-.511,16.221s5.876,0,5.876,0-1.66-22.993-2.938-28.1" transform="translate(20.793 31.042)" fill="#5b494b"/>
    <path id="Trazado_878021" data-name="Trazado 878021" d="M51.678,91.54s-3.832,2.555-4.853,5.493.255,5.875,2.426,6.387c0,0-1.915,12.9-.511,16.223s5.876,0,5.876,0-1.66-22.994-2.938-28.1" transform="translate(21.153 41.671)" fill="#5b494b"/>
    <path id="Trazado_878022" data-name="Trazado 878022" d="M51.108,60.642s-3.832,2.427-1.532,27.719-4.6,44.2,5.748,55.055,38.959-9.964,38.959-9.964L81.218,61.338Z" transform="translate(22.234 27.606)" fill="#2c2028"/>
    <path id="Trazado_878023" data-name="Trazado 878023" d="M65.861,139.874a13.018,13.018,0,0,1-7.515-2.043c-2.739-1.918-4.306-6.435-4.788-13.81a169.2,169.2,0,0,1,.389-19.858c.207-3.549.4-6.9.4-9.439,0-11.2-4.165-31.4-4.209-31.6a.383.383,0,1,1,.751-.156c.044.2,4.225,20.479,4.225,31.757,0,2.56-.2,5.923-.407,9.484-.715,12.22-1.7,28.955,4.076,32.994,4.043,2.83,10.008,1.895,13.2,1.084,5.582-1.414,10.923-4.465,12.163-6.946a.384.384,0,0,1,.687.343c-1.35,2.7-6.794,5.859-12.66,7.346a26.411,26.411,0,0,1-6.319.844" transform="translate(22.823 28.525)" fill="#5b494b"/>
    <path id="Trazado_878024" data-name="Trazado 878024" d="M46.662,50.386s28.925-9.031,62.109-7.749c0,0,9.479,8.423,1.551,21.319L52.6,73.875S45.037,59.6,46.662,50.386" transform="translate(21.137 19.353)" fill="#81c74d"/>
    <path id="Trazado_878025" data-name="Trazado 878025" d="M53.542,46.433s12.962,6.476,8.99,24.1l4-.367s4.556-15.558-8.13-24.44c0,0-2.8-1.2-4.865.7" transform="translate(24.374 20.647)" fill="#2c2028"/>
    <path id="Trazado_878026" data-name="Trazado 878026" d="M44.184,50.847a6.05,6.05,0,0,1,10.651.338,24.617,24.617,0,0,1,2.42,8.545c.894,8.859-2.7,14.864-7.569,10.725s-8.13-14.848-5.579-19.471c.026-.045.051-.092.077-.137" transform="translate(19.673 21.773)" fill="#33501e"/>
    <path id="Trazado_878027" data-name="Trazado 878027" d="M51.537,69.208a2.676,2.676,0,0,1-.781-.119c-1.85-.563-3.657-3.175-4.834-6.987A39.06,39.06,0,0,1,44.473,52.3a.4.4,0,0,1,.795,0,38.121,38.121,0,0,0,1.412,9.572c1.067,3.453,2.758,5.988,4.307,6.46a1.959,1.959,0,0,0,1.893-.457c.914-.739,1.365-2.528,1.272-5.037-.185-4.974-2.391-11.084-4.54-12.575a.635.635,0,0,0-.792-.051c-.917.608-1.476,3.244-.7,6.93,1.093,5.2,2.657,8.219,3.212,8.421a.39.39,0,0,0,.226-.211c.795-1.416-.581-7.145-1.18-8.787a.4.4,0,0,1,.745-.274c.3.824,2.24,7.467,1.128,9.449a1.159,1.159,0,0,1-.787.608c-.236.047-.95.189-2.144-2.526A34.681,34.681,0,0,1,47.341,57.3c-.9-4.284-.125-6.981,1.04-7.755a1.439,1.439,0,0,1,1.682.061c2.58,1.787,4.7,8.442,4.881,13.2.073,1.956-.14,4.529-1.564,5.683a2.906,2.906,0,0,1-1.844.72" transform="translate(20.245 22.445)" fill="#81c74d"/>
    <path id="Trazado_878028" data-name="Trazado 878028" d="M67.96,154.392h34.563c.546-2.64.728-5.428.969-7.294.575-4.459-1.273-8.018-1.951-10.252a6.991,6.991,0,0,0-1.237-2.36c-7.032-8.787-34.886-.944-34.886-.944s.205,1.567.554,4.241c.5,3.789,1.2,9.746,1.988,16.61" transform="translate(29.78 59.325)" fill="#40547a"/>
    <path id="Trazado_878029" data-name="Trazado 878029" d="M70.929,152.53c-1-10.223-1.7-17.4-1.72-17.6a.574.574,0,0,0-1.142.112c.02.2.72,7.327,1.71,17.49Z" transform="translate(30.985 61.187)" fill="#233148"/>
    <path id="Trazado_878030" data-name="Trazado 878030" d="M64.7,109.1s.007,3.674,4.978,3.97l50.488-5.8a5.727,5.727,0,0,0,1.9-6.327S99.083,92.192,64.7,109.1" transform="translate(29.452 44.923)" fill="#1f3b5f"/>
    <path id="Trazado_878031" data-name="Trazado 878031" d="M106.623,76.5c-1.726-5.243,1.746-24.312,2.6-30.151,1.282-8.747.821-20.153-4.251-24.32s-31.666-3.968-31.666-3.968S65.689,23.194,65.028,41c-.269,7.238-.112,28.265-.33,34.719,11,8.6,20.092,43.545,41.925.773" transform="translate(29.452 8.22)" fill="#2c2028"/>
    <path id="Trazado_878032" data-name="Trazado 878032" d="M122.11,125.452c-30.529,8.833-54.97,3.037-54.97,3.037a80.035,80.035,0,0,0,1.391-12.457c.194-4.665.086-8.743-.006-10.882,11-2.259,38.022-7.459,49.053-6.516l.719,4.257Z" transform="translate(30.564 44.849)" fill="#e28d6f"/>
    <path id="Trazado_878033" data-name="Trazado 878033" d="M89.621,107.927c.006,1.374-.448,2.488-1.017,2.491s-1.035-1.107-1.04-2.481.447-2.488,1.014-2.491,1.035,1.107,1.043,2.481" transform="translate(39.861 48.002)" fill="#cf6353"/>
    <path id="Trazado_878034" data-name="Trazado 878034" d="M117.864,102.889c-11.205.976-33.09,3.992-49.766,13.142.2-4.664.086-8.743-.006-10.882,11-2.259,38.022-7.458,49.053-6.517Z" transform="translate(30.997 44.848)" fill="#cf6353"/>
    <path id="Trazado_878035" data-name="Trazado 878035" d="M132.29,100.466a8.063,8.063,0,0,1-.365,2.349,26,26,0,0,1-5.416,8.576c-.223.243-.435.476-.636.677-.341.361-.636.648-.86.86-.316.317-.52.486-.52.486a.148.148,0,0,1,.012.076c.01.189.022.4.042.614.052.838.138,1.823.276,2.935q.142,1.369.349,2.96c.106.783.212,1.6.329,2.458a30.942,30.942,0,0,0-4.622-.891c-.277-.032-.562-.064-.848-.084a61.034,61.034,0,0,0-10.261-.042c-.276.02-.552.042-.838.076-15,1.206-32.363,6.348-40.8,9.094.042-.626.073-1.24.095-1.855q.031-.668.064-1.334a98.8,98.8,0,0,0-.341-12.85c-.031-.329-.064-.666-.106-1.006a105.825,105.825,0,0,0-1.831-10.486c-.377-1.707-.8-3.474-1.259-5.278-.4-1.56-.828-3.149-1.284-4.748q-.138-.487-.279-.974c-.159-.553-.329-1.1-.489-1.656-.116-.358-.223-.709-.338-1.07-.153-.5-.311-1.008-.471-1.512-.284-.895-.578-1.787-.875-2.675-.425-1.251-.87-2.491-1.316-3.711-.329-.879-.626-1.771-.891-2.65-.307-.987-.572-1.972-.8-2.947a31.073,31.073,0,0,1-.857-7.283c.031-4.153,1.145-7.876,3.784-10.526a13.251,13.251,0,0,1,6.032-3.37c.838-.233,1.665-.455,2.461-.656,2.51-.646,4.821-1.187,6.709-1.6.626-.14,1.2-.265,1.729-.371,1.313-.276,2.289-.467,2.777-.552A2.827,2.827,0,0,1,81,51.434l8.5,1.157,2.957.4,12.179,1.653,2.248.3c.349.054.69.116,1.017.17.349.064.69.128,1.019.191l.687.128c2.1.391,3.9.784,5.46,1.219a25.6,25.6,0,0,1,4.748,1.738c5.492,2.787,5.312,6.9,6.361,14.8.02.127.042.265.054.4.01.041.01.095.022.137.083.594.167,1.189.274,1.781.128.742.265,1.474.425,2.206.307,1.473.656,2.935,1.039,4.354q.255.971.52,1.922c.562,2.024,1.147,3.979,1.687,5.833.5,1.743.968,3.4,1.33,4.946.2.867.374,1.7.5,2.491.084.486.148.975.192,1.43a14.655,14.655,0,0,1,.067,1.775" transform="translate(26.02 23.414)" fill="#4e93ee"/>
    <path id="Trazado_878036" data-name="Trazado 878036" d="M65.275,107a.483.483,0,0,1-.185-.93A139.523,139.523,0,0,1,82.8,100.518c9.657-2.384,24.165-4.942,38.451-3.591a.483.483,0,1,1-.092.962c-14.145-1.337-28.531,1.2-38.111,3.562a138.432,138.432,0,0,0-17.6,5.514.479.479,0,0,1-.183.036" transform="translate(29.495 43.953)" fill="#1f3b5f"/>
    <path id="Trazado_878037" data-name="Trazado 878037" d="M128.717,80.105c-22.325-4.657-52.822.4-66.725,3.228q-.14-.487-.281-.974c-.159-.553-.327-1.1-.487-1.656-.116-.358-.223-.709-.339-1.07q-.229-.755-.471-1.512c5.536-1.144,13.833-2.669,23.369-3.8,17.159-2.037,31.644-2.049,43.248-.047.563,2.024,1.148,3.979,1.687,5.833" transform="translate(27.502 33.132)" fill="#1f3b5f"/>
    <path id="Trazado_878038" data-name="Trazado 878038" d="M129.913,87.505c-21.561-4.927-51.417-.314-66.275,2.611-.377-1.707-.8-3.474-1.259-5.278,5.441-1.08,12.906-2.391,21.342-3.394,18.251-2.168,33.48-2.043,45.431.364.2.867.374,1.7.5,2.491.084.486.148.975.192,1.43a14.651,14.651,0,0,1,.067,1.775" transform="translate(28.397 36.375)" fill="#1f3b5f"/>
    <path id="Trazado_878039" data-name="Trazado 878039" d="M61.134,84.9a.452.452,0,0,1-.118-.047q-.635-1.879-1.311-3.711c-.326-.878-.623-1.765-.892-2.65-.3-.984-.566-1.97-.793-2.951a31.591,31.591,0,0,1-.863-7.282c.036-4.15,1.147-7.873,3.785-10.523a13.274,13.274,0,0,1,6.03-3.367c.837-.234,1.665-.454,2.461-.658,2.516-.653,4.83-1.193,6.716-1.607,6.125,13.526,3.453,21.251-.566,26.946C72.45,83.5,66.705,85.493,61.134,84.9" transform="translate(26.019 23.722)" fill="#e28d6f"/>
    <path id="Trazado_878040" data-name="Trazado 878040" d="M110.12,74.256C97.889,71.172,94.174,58.779,93.2,54.178c2.094.394,3.9.8,5.457,1.224a25.416,25.416,0,0,1,4.747,1.739c5.495,2.79,5.319,6.895,6.362,14.791.02.135.038.271.054.41.006.044.015.09.02.135.084.594.173,1.189.277,1.778" transform="translate(42.428 24.663)" fill="#e28d6f"/>
    <path id="Trazado_878041" data-name="Trazado 878041" d="M97.29,54.645c-.975,2.158-3.266,4.779-8.629,5.182-7.4.557-13.253-5.709-15.361-8.33l.346-.064Z" transform="translate(33.368 23.414)" fill="#1f3b5f"/>
    <path id="Trazado_878042" data-name="Trazado 878042" d="M91.5,68.929a5.579,5.579,0,0,0,.662,0,5.708,5.708,0,0,0,4.612-2.47c2.948-4.369.2-12.919.08-13.28a.548.548,0,1,0-1.042.341c.028.083,2.7,8.4.052,12.329a4.611,4.611,0,0,1-3.776,1.986c-7.179.483-17.8-16.348-17.909-16.518a.549.549,0,0,0-.93.582c.437.7,10.508,16.63,18.251,17.035" transform="translate(33.304 23.242)" fill="#f3ecde"/>
    <path id="Trazado_878043" data-name="Trazado 878043" d="M95.174,71.034c6.946.364,8.858-7.048,8.877-7.122a.549.549,0,0,0-1.065-.263c-.07.279-1.724,6.605-7.755,6.289-6.326-.33-19.583-10.713-19.715-10.818a.549.549,0,1,0-.68.861c.556.437,13.667,10.7,20.338,11.052" transform="translate(33.972 26.859)" fill="#1f3b5f"/>
    <path id="Trazado_878044" data-name="Trazado 878044" d="M105.777,156.277q-1.214.306-2.437.586c-10.432,2.392-21.385,3.367-29.052,1.544-3.784-.9-6.208-5.528-7.752-10.7a20.1,20.1,0,0,1-1.078-4.294c-.95-14.375,3.551-27.793,3.551-27.793,16.312,1.221,33.124,1.189,52.285-4.732,0,0,5.05,9.158,7.135,13.66a93.855,93.855,0,0,1,4.224,10.511l0,.009a27.388,27.388,0,0,1,1.26,5.592c.451,5.121-12.959,11.786-28.14,15.617" transform="translate(29.738 50.478)" fill="#40547a"/>
    <path id="Trazado_878045" data-name="Trazado 878045" d="M87.522,121.028h-.447a150.713,150.713,0,0,1-19.753-1.358.491.491,0,1,1,.147-.971,150.338,150.338,0,0,0,19.624,1.346c9.977.032,23.892-1.029,33.457-6.265a.491.491,0,1,1,.473.861c-9.61,5.261-23.432,6.387-33.5,6.387" transform="translate(30.456 51.768)" fill="#233148"/>
    <path id="Trazado_878046" data-name="Trazado 878046" d="M66.813,143a.559.559,0,0,1-.127-1.1,17.892,17.892,0,0,0,6.471-3.456c4.35-3.581,6.755-8.7,7.15-15.213a.559.559,0,0,1,1.116.067c-.518,8.544-4.417,13.44-7.6,16.044a18.615,18.615,0,0,1-6.886,3.647.538.538,0,0,1-.127.015" transform="translate(30.16 55.859)" fill="#233148"/>
    <path id="Trazado_878047" data-name="Trazado 878047" d="M127.563,157.65c-2.2-12.016-4.5-22.926-6.471-29.1-3.92-12.294-31.405.3-31.405.3s1.962,13.464,4.507,28.8Z" transform="translate(40.827 56.067)" fill="#40547a"/>
    <path id="Trazado_878048" data-name="Trazado 878048" d="M91.7,143.874a.571.571,0,0,1-.266-1.077,15.552,15.552,0,0,0,7.327-10.451.571.571,0,0,1,1.126.191,16.42,16.42,0,0,1-7.922,11.272.579.579,0,0,1-.265.065" transform="translate(41.482 60.03)" fill="#233148"/>
    <path id="Trazado_878049" data-name="Trazado 878049" d="M95.838,150.751h1.173c-1.627-7.014-2.72-11.828-2.755-11.987a.571.571,0,0,0-1.115.252c.035.157,1.1,4.858,2.7,11.735" transform="translate(42.394 62.966)" fill="#233148"/>
    <path id="Trazado_878050" data-name="Trazado 878050" d="M86.591,57.23s-10.536,1.153-16.4-8.05c-5.587-8.762-5.037-14.356-3.827-20.373.912-4.533,6.922-13.011,16.817-13.956,9.992-.953,18.4,3.321,22.579,10.553,7.637,13.222-1.625,34.9-19.167,31.826" transform="translate(29.848 6.701)" fill="#2c2028"/>
    <path id="Trazado_878051" data-name="Trazado 878051" d="M91.161,33.407s2.465-3.548,4.348-.415,1.31,9.89-3.021,9.207Z" transform="translate(41.499 14.431)" fill="#cf6353"/>
    <path id="Trazado_878052" data-name="Trazado 878052" d="M93.253,45.9l1.284,13.192S89.356,64.9,74.684,56.378c.934-4.75,2.225-10.277.8-13.644a17.677,17.677,0,0,1,2.881,1.119,9.466,9.466,0,0,0,1.182.384c3.7,1.155,9.229,2.442,13.7,1.662" transform="translate(33.998 19.454)" fill="#e28d6f"/>
    <path id="Trazado_878053" data-name="Trazado 878053" d="M92.1,45.549l.579,4.22c-3.954-.492-11.119-1.94-15.463-6.266q.552.188,1.182.384c3.7,1.155,9.229,2.442,13.7,1.662" transform="translate(35.151 19.804)" fill="#2c2028"/>
    <path id="Trazado_878054" data-name="Trazado 878054" d="M101.828,35.645q.14,1.43.259,2.726c.081.857.151,1.668.214,2.439l.017.217c.1,1.222.17,2.337.215,3.356.192,4.2-1.033,7.292-2.125,8.66-6.853,8.59-23.682.233-24.256-.019l-.013-.009q-.334-1.032-.623-2.053a55.382,55.382,0,0,1-2.117-16.4,12.516,12.516,0,0,1,6.9-13.157c5.125-2.437,10.109-.559,13.052.049,4.446.918,7.694,6.24,8.478,14.188" transform="translate(33.351 9.192)" fill="#e28d6f"/>
    <path id="Trazado_878055" data-name="Trazado 878055" d="M88.713,32.548c.092.889.582,1.567,1.093,1.513s.853-.816.761-1.706-.582-1.567-1.094-1.515-.851.818-.76,1.707" transform="translate(40.377 14.038)" fill="#2c2028"/>
    <path id="Trazado_878056" data-name="Trazado 878056" d="M82.227,32.833c.092.889.582,1.567,1.093,1.515s.853-.818.761-1.707-.582-1.567-1.094-1.515-.851.818-.76,1.707" transform="translate(37.425 14.168)" fill="#2c2028"/>
    <path id="Trazado_878057" data-name="Trazado 878057" d="M77.6,36.5c.045.988,2.069,1.7,4.524,1.588s4.406-1,4.361-1.989-2.071-1.7-4.524-1.589-4.406,1-4.361,1.991" transform="translate(35.325 15.706)" fill="#cf6353"/>
    <path id="Trazado_878058" data-name="Trazado 878058" d="M94.633,34.36c.007.073.012.146.017.215.1,1.224.172,2.339.217,3.356-.079.007-.157.012-.237.015-2.453.111-4.478-.6-4.523-1.589s1.908-1.879,4.361-1.989l.164-.007" transform="translate(41.019 15.642)" fill="#cf6353"/>
    <path id="Trazado_878059" data-name="Trazado 878059" d="M98.914,30.178l-11.585.562s.3,7.556,6.159,7.272,5.427-7.833,5.427-7.833" transform="translate(39.754 13.738)" fill="#2c2028"/>
    <path id="Trazado_878060" data-name="Trazado 878060" d="M89.853,30.668l-11.588.5s.255,7.558,6.119,7.307,5.469-7.8,5.469-7.8" transform="translate(35.628 13.961)" fill="#2c2028"/>
    <path id="Trazado_878061" data-name="Trazado 878061" d="M88.389,31.59l.566-.706a2.9,2.9,0,0,0-3.408.14l.479.768a2.063,2.063,0,0,1,2.363-.2" transform="translate(38.943 13.847)" fill="#2c2028"/>
    <path id="Trazado_878062" data-name="Trazado 878062" d="M88.28,39.646a7.406,7.406,0,0,1-3.96-1.554.4.4,0,1,1,.485-.649c3.036,2.267,5.594,1.129,5.7,1.078a.406.406,0,0,1,.343.735,5.574,5.574,0,0,1-2.57.39" transform="translate(38.31 17.008)" fill="#2c2028"/>
    <path id="Trazado_878063" data-name="Trazado 878063" d="M85.22,28.428a5.39,5.39,0,0,0-4.791,1.566c-1.1,1.206-.036,2.4,1.495,1.361a5.872,5.872,0,0,1,3.053-1.212.871.871,0,0,0,.243-1.714" transform="translate(36.408 12.907)" fill="#2c2028"/>
    <path id="Trazado_878064" data-name="Trazado 878064" d="M88.523,28.344a5.389,5.389,0,0,1,4.981.77c1.276,1.013.423,2.357-1.254,1.585a5.887,5.887,0,0,0-3.21-.7.871.871,0,0,1-.517-1.652" transform="translate(40.063 12.767)" fill="#2c2028"/>
    <path id="Trazado_878065" data-name="Trazado 878065" d="M88.4,39.66a3.856,3.856,0,0,1-.982.146.1.1,0,0,1-.067-.023.517.517,0,0,1,.2-.962,2.915,2.915,0,0,0,2.053-1.1c-1.87-1.784-3.6-6.755-3.676-6.981a.489.489,0,0,1,.926-.319c.534,1.547,2.235,5.787,3.688,6.809a.492.492,0,0,1,.15.633,4.021,4.021,0,0,1-2.293,1.8" transform="translate(39.108 13.699)" fill="#2c2028"/>
    <path id="Trazado_878066" data-name="Trazado 878066" d="M87.72,41.06A2.234,2.234,0,0,0,88,40.977a.374.374,0,0,0-.268-.7,2.4,2.4,0,0,1-2.341-.435.374.374,0,0,0-.56.067.4.4,0,0,0,.09.515,3.091,3.091,0,0,0,2.8.634" transform="translate(38.588 18.094)" fill="#cf6353"/>
    <path id="Trazado_878067" data-name="Trazado 878067" d="M78.348,39.717c-.038.119-1.073,3.33-2.9,4.418h0l-.012-.009q-.334-1.035-.621-2.053a7.786,7.786,0,0,0,3.535-2.357" transform="translate(34.057 18.08)" fill="#2c2028"/>
    <path id="Trazado_878068" data-name="Trazado 878068" d="M77.88,35.763s-4.562-5.045-7.116-.495c-2.106,3.75,3.385,12.474,7.916,8.873Z" transform="translate(32.003 15.189)" fill="#e28d6f"/>
    <path id="Trazado_878069" data-name="Trazado 878069" d="M75.537,40.088a1.042,1.042,0,1,1-1.27-.748,1.043,1.043,0,0,1,1.27.748" transform="translate(33.452 17.894)" fill="#f3ecde"/>
    <path id="Trazado_878070" data-name="Trazado 878070" d="M77.236,41.675l.045-.007a.417.417,0,0,0,.325-.493,7.822,7.822,0,0,0-5.157-5.85.418.418,0,0,0-.234.8,6.984,6.984,0,0,1,4.574,5.217.418.418,0,0,0,.448.332" transform="translate(32.737 16.073)" fill="#2c2028"/>
    <path id="Trazado_878071" data-name="Trazado 878071" d="M72.881,38.831a.414.414,0,0,0,.253-.118c.333-.327,1.362-1.153,2.1-1.038a.418.418,0,0,0,.13-.827c-1.281-.2-2.66,1.118-2.813,1.269a.417.417,0,0,0,.333.713" transform="translate(32.969 16.765)" fill="#2c2028"/>
    <path id="Trazado_878072" data-name="Trazado 878072" d="M72.436,32.034s6.016,4.52,8.228,3.05S78.674,29.4,78.674,29.4s8.625,3.66,11.637,1.928-3-5.019-3-5.019,6.792,4.971,10.323,4.3-.46-4.824-.46-4.824,3.861,5.991,5.959,5.245S101.48,21.51,94.058,19.11,68.547,19,72.436,32.034" transform="translate(32.728 8.318)" fill="#2c2028"/>
    <path id="Trazado_878073" data-name="Trazado 878073" d="M77.532,27.86s2.924,11.373.019,11.7S71.289,35.678,72.514,26.4Z" transform="translate(32.892 12.02)" fill="#2c2028"/>
    <path id="Trazado_878074" data-name="Trazado 878074" d="M63.51,37.476s-3.772-20.017,15.1-25.155C92.9,8.43,102.9,15.886,105.653,25.117c0,0-23.946-8.173-42.143,12.359" transform="translate(28.771 5.129)" fill="#e8ac45"/>
    <path id="Trazado_878075" data-name="Trazado 878075" d="M105.653,23.54S81.707,15.369,63.509,35.9a27.592,27.592,0,0,1,.377-10.248,101.1,101.1,0,0,1,16.038-6.642,98.266,98.266,0,0,1,20.1-4.281,19.086,19.086,0,0,1,5.627,8.81" transform="translate(28.771 6.705)" fill="#bf741b"/>
    <path id="Trazado_878076" data-name="Trazado 878076" d="M111.638,55.023c-.5,4.657-12.249,50.128-46.94,66.862v7.1s44.507-17.963,54.712-70.006a9.207,9.207,0,0,0-7.771-3.955" transform="translate(29.452 25.042)" fill="#2c2028"/>
    <path id="Trazado_878077" data-name="Trazado 878077" d="M66.739,58.814l-.471.608-.458.6L64.9,61.214c-.6.8-1.19,1.6-1.781,2.4s-1.179,1.6-1.759,2.411-1.16,1.62-1.736,2.432q-3.451,4.881-6.751,9.913c-2.194,3.37-4.35,6.781-6.428,10.383-.259.451-.52.9-.777,1.362s-.518.912-.774,1.388c-.511.939-1.016,1.9-1.522,2.909L43,95.177l-.095.191-.095.2-.191.406c-.127.274-.25.536-.378.821l-.383.891-.093.223c-.032.076-.058.134-.108.262-.089.224-.175.441-.259.675s-.166.474-.244.725-.156.509-.227.781a15.563,15.563,0,0,0-.534,3.826,13.481,13.481,0,0,0,.844,4.875,13.265,13.265,0,0,0,1.182,2.378c.115.182.236.359.358.536l.185.26.189.246c.128.163.259.327.39.482s.263.3.4.444.268.279.4.413.276.269.409.387c.269.239.549.479.813.68a15.246,15.246,0,0,0,1.58,1.075,17.4,17.4,0,0,0,2.825,1.327,20.947,20.947,0,0,0,2.439.729c.761.182,1.481.313,2.173.415a35.931,35.931,0,0,0,3.884.346c1.225.048,2.4.039,3.541,0s2.254-.109,3.35-.2c2.187-.192,4.3-.455,6.384-.784,4.156-.652,8.173-1.51,12.132-2.506.99-.247,1.975-.509,2.957-.773s1.96-.541,2.935-.831,1.947-.585,2.919-.888l1.458-.473.735-.243.765-.262a6.828,6.828,0,0,0-3-13.241l-.244.031-.322.038-.345.042-.7.089-1.413.175q-1.414.183-2.836.346c-1.892.221-3.782.438-5.667.633-3.766.39-7.513.713-11.162.889-1.823.079-3.621.137-5.354.112-.866-.007-1.716-.029-2.535-.076-.41-.023-.812-.051-1.2-.086s-.774-.07-1.139-.116a16.708,16.708,0,0,1-1.959-.339c-.275-.068-.517-.138-.7-.2a1.558,1.558,0,0,1-.364-.163c-.044-.033,0-.041.179.047a3.581,3.581,0,0,1,.923.715c.054.054.1.111.154.169s.111.125.162.192l.159.21c.055.074.1.15.154.228a5.583,5.583,0,0,1,.537,1.056c.035.095.071.185.1.279s.057.189.083.278.048.182.067.275.039.172.054.259l.038.247c.012.08.019.159.023.239s.013.141.016.211l0,.106,0,.092a4.7,4.7,0,0,1-.08.926c-.007.035-.006.052-.013.079s0,.02,0,.031l.016-.009c-.006.013.02-.039.038-.074l.058-.112.221-.453.265-.5.134-.255.067-.128.076-.134.3-.541c.406-.726.854-1.483,1.316-2.248.223-.38.469-.771.7-1.157s.482-.779.726-1.169c1.966-3.126,4.075-6.307,6.212-9.481s4.315-6.364,6.5-9.554l1.636-2.394,1.634-2.4,1.633-2.4.809-1.2.4-.6.391-.584.042-.064A9.682,9.682,0,0,0,66.739,58.814" transform="translate(18.386 25.074)" fill="#e28d6f"/>
    <path id="Trazado_878078" data-name="Trazado 878078" d="M48.956,90.51a.421.421,0,0,0,.167-.06c2.583-1.615,8.824-3.616,8.887-3.635a.415.415,0,0,0-.252-.792c-.26.083-6.4,2.052-9.076,3.722a.415.415,0,0,0,.274.764" transform="translate(22.072 39.151)" fill="#cf6353"/>
    <path id="Trazado_878079" data-name="Trazado 878079" d="M56.179,87.281a.416.416,0,0,0,.031-.819,23,23,0,0,0-7.005.019.416.416,0,0,0,.132.821,22.62,22.62,0,0,1,6.7-.026.4.4,0,0,0,.138.006" transform="translate(22.24 39.234)" fill="#cf6353"/>
    <path id="Trazado_878080" data-name="Trazado 878080" d="M72.51,86.755s6.605-1.7,11.282-3.474a14.231,14.231,0,0,1,6.771-.423L88.939,85.1s9.022,1.269,10.022,2.95S97.5,91.415,97.5,91.415s.6-.314.33,1.511-2.745,2.6-2.745,2.6a2.872,2.872,0,0,1-.02,2.245c-.457,1.585-2.925,2.66-2.925,2.66a1.877,1.877,0,0,1-1.513,2.724c-1.139.265-4.559.859-8.824-1.934-1.951-1.278-11.543-8.52-9.3-14.462" transform="translate(32.854 37.614)" fill="#e28d6f"/>
    <path id="Trazado_878081" data-name="Trazado 878081" d="M74.229,85.4a38.511,38.511,0,0,0,.275,15.051,3.34,3.34,0,0,1-3.338,1.03s-2.552-10.325.1-15.817a4.753,4.753,0,0,1,2.967-.265" transform="translate(31.893 38.817)" fill="#f3ecde"/>
    <path id="Trazado_878082" data-name="Trazado 878082" d="M103.429,104.634s4.241-.294,4.94,2.749-4.021,8.707-5.814,10.581-1.4-4.22.1-6.484a5.776,5.776,0,0,0,1.183-3.912Z" transform="translate(46.145 47.629)" fill="#e28d6f"/>
    <path id="Trazado_878083" data-name="Trazado 878083" d="M105.226,111.473s4.559-.421,5.261,2.622-4.021,8.708-5.814,10.582-1.4-4.222.1-6.486.985-3.635.985-3.635Z" transform="translate(47.108 50.736)" fill="#e28d6f"/>
    <path id="Trazado_878084" data-name="Trazado 878084" d="M106.706,114.587s4.028-.371,4.647,2.317-3.552,7.691-5.135,9.348-1.233-3.73.087-5.731.87-3.212.87-3.212Z" transform="translate(47.874 52.155)" fill="#e28d6f"/>
    <path id="Trazado_878085" data-name="Trazado 878085" d="M103.907,108.146s4.559-.421,5.261,2.622-4.022,8.708-5.814,10.582-1.4-4.222.1-6.486.985-3.637.985-3.637Z" transform="translate(46.508 49.222)" fill="#e28d6f"/>
    <path id="Trazado_878086" data-name="Trazado 878086" d="M133.07,39.508a5.5,5.5,0,1,1,5.5,5.5,5.495,5.495,0,0,1-5.5-5.5m-7.523,1.238a12.889,12.889,0,0,0,1.781,6.9c.573.978,1.17,1.943,1.723,2.934l9.408,16.974,6.169-11.118c1.639-2.953,3.415-5.824,5.137-8.727a13.018,13.018,0,0,0-12.091-19.63,13.083,13.083,0,0,0-12.126,12.671" transform="translate(57.15 12.767)" fill="#dc1b12"/>
    <path id="Trazado_878087" data-name="Trazado 878087" d="M169.4,62.362l-1.34,1.969H117.922l-1.337-1.969Z" transform="translate(53.072 28.389)" fill="#33501e"/>
    <path id="Trazado_878088" data-name="Trazado 878088" d="M169.4,64.8H116.583L124.392,57h37.2Z" transform="translate(53.072 25.947)" fill="#81c74d"/>
  </g>
</svg>
