<svg xmlns="http://www.w3.org/2000/svg" xmlns:xlink="http://www.w3.org/1999/xlink" width="100" height="100" viewBox="0 0 100 100">
  <defs>
    <clipPath id="clip-path">
      <rect id="Rectángulo_403252" data-name="Rectángulo 403252" width="64" height="64" transform="translate(654 7010)" fill="#fff" stroke="#707070" stroke-width="1"/>
    </clipPath>
  </defs>
  <g id="Grupo_1102350" data-name="Grupo 1102350" transform="translate(-636 -6992)">
    <g id="Rectángulo_400898" data-name="Rectángulo 400898" transform="translate(636 6992)" fill="#4e93ee" stroke="#fff" stroke-width="3" opacity="0.859">
      <rect width="100" height="100" rx="50" stroke="none"/>
      <rect x="1.5" y="1.5" width="97" height="97" rx="48.5" fill="none"/>
    </g>
    <g id="Rectángulo_400907" data-name="Rectángulo 400907" transform="translate(636 6992)" fill="none" stroke="#1f3b5f" stroke-linecap="round" stroke-width="2" stroke-dasharray="7">
      <rect width="100" height="100" rx="50" stroke="none"/>
      <rect x="1" y="1" width="98" height="98" rx="49" fill="none"/>
    </g>
    <g id="Enmascarar_grupo_1098817" data-name="Enmascarar grupo 1098817" clip-path="url(#clip-path)">
      <g id="familia" transform="translate(654 7010)">
        <g id="Grupo_1102378" data-name="Grupo 1102378">
          <g id="Grupo_1102366" data-name="Grupo 1102366">
            <path id="Trazado_879031" data-name="Trazado 879031" d="M14.013,14.493H8.126a4.438,4.438,0,0,0-4.544,4.734l.991,10.721h9.44Z" fill="#d77f4a"/>
            <path id="Trazado_879032" data-name="Trazado 879032" d="M25.822,44.56H6.014a4.177,4.177,0,0,0-4.177,4.177v8.645H30.164V48.737A4.179,4.179,0,0,0,25.822,44.56Z" fill="#0ab69f"/>
            <path id="Trazado_879033" data-name="Trazado 879033" d="M11.642,44.56a4.358,4.358,0,0,0,8.716,0Z" fill="#82aee3"/>
            <path id="Trazado_879034" data-name="Trazado 879034" d="M16,45.919,11.641,43,9,44.267a.464.464,0,0,0-.116.756l3.568,3.351a.464.464,0,0,0,.617.016Z" fill="#c0d6f2"/>
            <path id="Trazado_879035" data-name="Trazado 879035" d="M16,45.919,20.36,43,23,44.267a.464.464,0,0,1,.116.756l-3.568,3.351a.464.464,0,0,1-.617.016Z" fill="#c0d6f2"/>
            <path id="Trazado_879036" data-name="Trazado 879036" d="M20.36,34.07H11.641V43L16,45.919,20.36,43Z" fill="#ffb09e"/>
            <path id="Trazado_879037" data-name="Trazado 879037" d="M25.822,44.56h-3.6a4.179,4.179,0,0,1,4.341,4.177v8.645h3.6V48.737a4.179,4.179,0,0,0-4.341-4.177Z" fill="#01998d"/>
            <path id="Trazado_879038" data-name="Trazado 879038" d="M23,44.267,20.36,43l-1.368.917.734.354a.464.464,0,0,1,.116.756L17.522,47.2l1.407,1.188a.464.464,0,0,0,.617-.016l3.568-3.351A.464.464,0,0,0,23,44.267Z" fill="#b2caec"/>
            <path id="Trazado_879039" data-name="Trazado 879039" d="M11.641,42.249a10.406,10.406,0,0,0,4.275.913h.137a10.406,10.406,0,0,0,4.306-.926V33.743H11.641Z" fill="#ffa78f"/>
            <path id="Trazado_879040" data-name="Trazado 879040" d="M10.849,25.615v7.138" fill="none"/>
            <path id="Trazado_879041" data-name="Trazado 879041" d="M21.12,32.753V25.615" fill="none"/>
            <path id="Trazado_879042" data-name="Trazado 879042" d="M10.849,32.753H5.459a3.569,3.569,0,1,1,0-7.138h5.389Z" fill="#ffb09e"/>
            <path id="Trazado_879043" data-name="Trazado 879043" d="M21.12,25.615H26.5a3.569,3.569,0,0,1,0,7.138H21.12Z" fill="#ffa78f"/>
            <path id="Trazado_879044" data-name="Trazado 879044" d="M16.053,41.526h-.137A10.444,10.444,0,0,1,5.473,31.082v-3.8A10.444,10.444,0,0,1,15.916,16.842h.137A10.444,10.444,0,0,1,26.5,27.286v3.8A10.444,10.444,0,0,1,16.053,41.526Z" fill="#ffcebf"/>
            <path id="Trazado_879045" data-name="Trazado 879045" d="M16.053,16.842h-.137a10.548,10.548,0,0,0-1.24.074,10.445,10.445,0,0,1,9.2,10.37v3.8a10.445,10.445,0,0,1-9.2,10.37,10.55,10.55,0,0,0,1.24.074h.137A10.444,10.444,0,0,0,26.5,31.082v-3.8A10.444,10.444,0,0,0,16.053,16.842Z" fill="#ffb09e"/>
            <g id="Grupo_1102365" data-name="Grupo 1102365">
              <g id="Grupo_1102363" data-name="Grupo 1102363">
                <path id="Trazado_879046" data-name="Trazado 879046" d="M23.614,34.766H21.791a.866.866,0,1,1,0-1.731h1.823a.866.866,0,1,1,0,1.731Z" fill="#fe8f83"/>
              </g>
              <g id="Grupo_1102364" data-name="Grupo 1102364">
                <path id="Trazado_879047" data-name="Trazado 879047" d="M10.21,34.766H8.386a.866.866,0,1,1,0-1.731h1.823a.866.866,0,0,1,0,1.731Z" fill="#fe8f83"/>
              </g>
            </g>
            <path id="Trazado_879048" data-name="Trazado 879048" d="M26.089,14.737A5.606,5.606,0,0,0,20.9,11.254H12.4a6.258,6.258,0,0,0-6.258,6.258,8.1,8.1,0,0,0,7.867,8.1v.006H28.477l.592-6.407A4.349,4.349,0,0,0,26.089,14.737Z" fill="#d77f4a"/>
            <path id="Trazado_879049" data-name="Trazado 879049" d="M26.089,14.737A5.606,5.606,0,0,0,20.9,11.254H17.3a5.606,5.606,0,0,1,5.188,3.484,4.349,4.349,0,0,1,2.981,4.471l-.592,6.407h3.6l.592-6.407a4.349,4.349,0,0,0-2.981-4.471Z" fill="#c86d36"/>
            <path id="Trazado_879050" data-name="Trazado 879050" d="M19.176,34.009a3.192,3.192,0,1,1-6.383,0Z" fill="#ffb09e"/>
          </g>
          <g id="Grupo_1102371" data-name="Grupo 1102371">
            <g id="Grupo_1102370" data-name="Grupo 1102370">
              <path id="Trazado_879051" data-name="Trazado 879051" d="M53.844,45.315a6.141,6.141,0,1,1,6.141-6.141A6.141,6.141,0,0,1,53.844,45.315Z" fill="#5a5a5a"/>
              <path id="Trazado_879052" data-name="Trazado 879052" d="M53.844,33.032a6.142,6.142,0,0,0-1.632.221,6.141,6.141,0,0,1,0,11.841,6.141,6.141,0,1,0,1.632-12.062Z" fill="#444"/>
              <path id="Trazado_879053" data-name="Trazado 879053" d="M61.865,57.382H33.31V48.7a4.491,4.491,0,0,1,4.49-4.49H57.374a4.491,4.491,0,0,1,4.49,4.49Z" fill="#c0d6f2"/>
              <path id="Trazado_879054" data-name="Trazado 879054" d="M57.374,44.206H54.437a4.491,4.491,0,0,1,4.49,4.49v8.685h2.937V48.7A4.491,4.491,0,0,0,57.374,44.206Z" fill="#b2caec"/>
              <path id="Trazado_879055" data-name="Trazado 879055" d="M37.865,44.206H57.31V57.381H37.865Z" fill="#528fd8"/>
              <path id="Trazado_879056" data-name="Trazado 879056" d="M47.7,48.687a4.479,4.479,0,0,1-4.479-4.479V33.427h8.959v10.78A4.48,4.48,0,0,1,47.7,48.687Z" fill="#ffb09e"/>
              <path id="Trazado_879057" data-name="Trazado 879057" d="M43.223,43.661a10.819,10.819,0,0,0,8.959-.012V33.427H43.223Z" fill="#ffa78f"/>
              <path id="Trazado_879058" data-name="Trazado 879058" d="M42.408,33.33H36.872a3.669,3.669,0,0,1,0-7.338h5.536Z" fill="#ffb09e"/>
              <path id="Trazado_879059" data-name="Trazado 879059" d="M52.963,25.992H58.5a3.669,3.669,0,0,1,0,7.338H52.963Z" fill="#ffa78f"/>
              <path id="Trazado_879060" data-name="Trazado 879060" d="M47.689,42.342A10.794,10.794,0,0,1,36.895,31.547V27.779a10.794,10.794,0,0,1,21.589,0v3.768A10.794,10.794,0,0,1,47.689,42.342Z" fill="#ffcebf"/>
              <path id="Trazado_879061" data-name="Trazado 879061" d="M47.689,16.985a10.885,10.885,0,0,0-1.469.1,10.8,10.8,0,0,1,9.326,10.695v3.768a10.8,10.8,0,0,1-9.326,10.695A10.8,10.8,0,0,0,58.484,31.547V27.779A10.794,10.794,0,0,0,47.689,16.985Z" fill="#ffb09e"/>
              <path id="Trazado_879062" data-name="Trazado 879062" d="M47.689,42.342A10.794,10.794,0,0,1,36.895,31.547V27.779a10.794,10.794,0,0,1,21.589,0v3.768A10.794,10.794,0,0,1,47.689,42.342Z" fill="#ffcebf"/>
              <path id="Trazado_879063" data-name="Trazado 879063" d="M47.689,16.985a10.922,10.922,0,0,0-1.305.079,10.8,10.8,0,0,1,9.489,10.716v3.768a10.8,10.8,0,0,1-9.489,10.716,10.8,10.8,0,0,0,12.1-10.716V27.779A10.794,10.794,0,0,0,47.689,16.985Z" fill="#ffb09e"/>
              <path id="Trazado_879064" data-name="Trazado 879064" d="M37.885,25.992H34.97V23.926A11.311,11.311,0,0,1,46.281,12.615h.031a2.1,2.1,0,0,1,2.1,2.1v.757A10.523,10.523,0,0,1,37.885,25.992Z" fill="#5a5a5a"/>
              <path id="Trazado_879065" data-name="Trazado 879065" d="M59.985,25.992H48.025a7.778,7.778,0,0,1-7.778-7.778,5.6,5.6,0,0,1,5.6-5.6h3.345A10.794,10.794,0,0,1,59.985,23.409Z" fill="#5a5a5a"/>
              <path id="Trazado_879066" data-name="Trazado 879066" d="M49.191,12.615H45.927A10.794,10.794,0,0,1,56.721,23.41v2.582h3.264V23.41A10.794,10.794,0,0,0,49.191,12.615Z" fill="#444"/>
              <g id="Grupo_1102369" data-name="Grupo 1102369">
                <g id="Grupo_1102367" data-name="Grupo 1102367">
                  <path id="Trazado_879067" data-name="Trazado 879067" d="M55.189,34.819H53.37a.864.864,0,0,1,0-1.727h1.819a.864.864,0,0,1,0,1.727Z" fill="#fe8f83"/>
                </g>
                <g id="Grupo_1102368" data-name="Grupo 1102368">
                  <path id="Trazado_879068" data-name="Trazado 879068" d="M41.816,34.819H40a.864.864,0,1,1,0-1.727h1.819a.864.864,0,0,1,0,1.727Z" fill="#fe8f83"/>
                </g>
              </g>
            </g>
            <path id="Trazado_879069" data-name="Trazado 879069" d="M50.872,34.819a3.192,3.192,0,0,1-6.383,0Z" fill="#ffb09e"/>
          </g>
          <path id="Trazado_879070" data-name="Trazado 879070" d="M31.444,14.125a1.078,1.078,0,0,0,1.352,0l4.853-3.91a7.885,7.885,0,0,0,2.6-3.86,4.2,4.2,0,0,0-5.688-5.073,8.342,8.342,0,0,0-2.446,1.563,8.336,8.336,0,0,0-2.446-1.563,4.2,4.2,0,0,0-5.688,5.073,7.884,7.884,0,0,0,2.6,3.86Z" fill="#eb5569"/>
          <g id="Grupo_1102372" data-name="Grupo 1102372">
            <path id="Trazado_879071" data-name="Trazado 879071" d="M39.524,2.535a4.2,4.2,0,0,0-4.962-1.253l-.109.048A4.2,4.2,0,0,1,36.7,6.355a7.884,7.884,0,0,1-2.6,3.86l-3.757,3.027,1.1.883a1.078,1.078,0,0,0,1.352,0l4.853-3.91a7.884,7.884,0,0,0,2.6-3.86,4.2,4.2,0,0,0-.726-3.82Z" fill="#e53950"/>
          </g>
          <g id="Grupo_1102376" data-name="Grupo 1102376">
            <path id="Trazado_879072" data-name="Trazado 879072" d="M26.663,53.126H26.28a3.766,3.766,0,0,0-3.766,3.766v6.171h19.2V56.891a3.766,3.766,0,0,0-3.766-3.766Z" fill="#f07281"/>
            <path id="Trazado_879073" data-name="Trazado 879073" d="M37.953,53.126H34.869a3.766,3.766,0,0,1,3.766,3.766v6.171h3.084V56.891A3.766,3.766,0,0,0,37.953,53.126Z" fill="#eb5569"/>
            <path id="Trazado_879074" data-name="Trazado 879074" d="M32.1,57.092a3.28,3.28,0,0,1-3.28-3.28V45.919h6.56v7.893a3.28,3.28,0,0,1-3.28,3.28Z" fill="#ffb09e"/>
            <path id="Trazado_879075" data-name="Trazado 879075" d="M28.824,53.345a7.99,7.99,0,0,0,6.56,0V45.919h-6.56Z" fill="#ffa78f"/>
            <path id="Trazado_879076" data-name="Trazado 879076" d="M43.781,54.132h1.639V49.618a4.773,4.773,0,0,0-4.773-4.773H39.009v4.513a4.773,4.773,0,0,0,4.773,4.773Z" fill="#5a5a5a"/>
            <path id="Trazado_879077" data-name="Trazado 879077" d="M40.648,44.846H39.009v.137a4.774,4.774,0,0,1,3.636,4.635v4.376a4.784,4.784,0,0,0,1.137.137h1.639V49.618a4.773,4.773,0,0,0-4.773-4.773Z" fill="#444"/>
            <path id="Trazado_879078" data-name="Trazado 879078" d="M20.4,54.132H18.763V49.618a4.773,4.773,0,0,1,4.773-4.773h1.639v4.513A4.773,4.773,0,0,1,20.4,54.132Z" fill="#5a5a5a"/>
            <path id="Trazado_879079" data-name="Trazado 879079" d="M28.24,45.919H24.175a2.687,2.687,0,1,1,0-5.375H28.24Z" fill="#ffb09e"/>
            <path id="Trazado_879080" data-name="Trazado 879080" d="M35.943,40.544h4.065a2.687,2.687,0,1,1,0,5.375H35.943Z" fill="#ffa78f"/>
            <path id="Trazado_879081" data-name="Trazado 879081" d="M32.1,33.949a7.856,7.856,0,0,0-7.9,7.807v2.955a7.9,7.9,0,0,0,15.809,0V41.756a7.856,7.856,0,0,0-7.9-7.807Z" fill="#ffcebf"/>
            <path id="Trazado_879082" data-name="Trazado 879082" d="M32.1,33.949a8.059,8.059,0,0,0-1.224.093,7.839,7.839,0,0,1,6.68,7.713v2.955a7.839,7.839,0,0,1-6.68,7.713,8.06,8.06,0,0,0,1.224.093,7.856,7.856,0,0,0,7.9-7.807V41.756a7.856,7.856,0,0,0-7.9-7.807Z" fill="#ffb09e"/>
            <g id="Grupo_1102373" data-name="Grupo 1102373">
              <path id="Trazado_879083" data-name="Trazado 879083" d="M27.952,47.531H26.6a.734.734,0,1,1,0-1.468h1.354a.734.734,0,1,1,0,1.468Z" fill="#fe8f83"/>
            </g>
            <g id="Grupo_1102374" data-name="Grupo 1102374">
              <path id="Trazado_879084" data-name="Trazado 879084" d="M37.634,47.531H36.28a.734.734,0,0,1,0-1.468h1.354a.734.734,0,1,1,0,1.468Z" fill="#fe8f83"/>
            </g>
            <path id="Trazado_879085" data-name="Trazado 879085" d="M32.93,29.391a.838.838,0,0,0-.838.838.838.838,0,0,0-.838-.838,9.043,9.043,0,0,0-9.043,9.043v2.11h5.277a4.6,4.6,0,0,0,4.6-4.6,4.6,4.6,0,0,0,4.6,4.6h5.277v-2.11A9.043,9.043,0,0,0,32.93,29.391Z" fill="#5a5a5a"/>
            <g id="Grupo_1102375" data-name="Grupo 1102375">
              <path id="Trazado_879086" data-name="Trazado 879086" d="M32.93,29.391a.835.835,0,0,0-.609.263,9.045,9.045,0,0,1,6.876,8.78v2.11h2.776v-2.11A9.043,9.043,0,0,0,32.93,29.391Z" fill="#444"/>
            </g>
          </g>
          <path id="Trazado_879087" data-name="Trazado 879087" d="M51.778,46.318,47.4,47.406l.253-.648a.872.872,0,0,0-1.559-.769L44.4,48.779a2.49,2.49,0,0,0-.328.647L39.54,63.062h5.6L47.2,52.55l5.118-5.3a.558.558,0,0,0-.536-.929Z" fill="#ffcebf"/>
          <g id="Grupo_1102377" data-name="Grupo 1102377">
            <path id="Trazado_879088" data-name="Trazado 879088" d="M51.778,46.318l-1.464.364a.556.556,0,0,1-.127.565l-5.118,5.3L43.016,63.062h2.127L47.2,52.55l5.118-5.3a.558.558,0,0,0-.536-.929Z" fill="#ffb09e"/>
          </g>
          <path id="Trazado_879089" data-name="Trazado 879089" d="M19.4,48.779l-1.691-2.791a.872.872,0,0,0-1.559.769l.253.648-4.377-1.088a.558.558,0,0,0-.536.929l5.118,5.3,2.052,10.512h5.6L19.733,49.426a2.5,2.5,0,0,0-.328-.647Z" fill="#ffcebf"/>
        </g>
        <g id="Grupo_1102379" data-name="Grupo 1102379">
          <path id="Trazado_879090" data-name="Trazado 879090" d="M52.957,32.377a.937.937,0,0,0,.937-.937V30.383a.938.938,0,0,0-.082-1.871h-.856a.937.937,0,0,0-.937.937v1.991A.937.937,0,0,0,52.957,32.377Z"/>
          <path id="Trazado_879091" data-name="Trazado 879091" d="M42.4,28.511h-.856a.938.938,0,0,0-.082,1.871v1.057a.937.937,0,0,0,1.875,0V29.448a.937.937,0,0,0-.937-.937Z"/>
          <path id="Trazado_879092" data-name="Trazado 879092" d="M43.551,34.819a4.129,4.129,0,1,0,8.258,0,.937.937,0,0,0-.937-.937H44.488A.937.937,0,0,0,43.551,34.819Zm6.179.937a2.254,2.254,0,0,1-4.1,0Z"/>
          <path id="Trazado_879093" data-name="Trazado 879093" d="M10.757,28.041a.937.937,0,0,0-.937.937v1.937a.937.937,0,1,0,1.875,0V28.979A.937.937,0,0,0,10.757,28.041Z"/>
          <path id="Trazado_879094" data-name="Trazado 879094" d="M21.028,31.854a.937.937,0,0,0,.937-.937V28.979a.937.937,0,0,0-1.875,0v1.937A.937.937,0,0,0,21.028,31.854Z"/>
          <path id="Trazado_879095" data-name="Trazado 879095" d="M15.985,38.138a4.134,4.134,0,0,0,4.129-4.129.937.937,0,0,0-.937-.937H12.793a.937.937,0,0,0-.937.937A4.134,4.134,0,0,0,15.985,38.138Zm2.05-3.192a2.254,2.254,0,0,1-4.1,0Z"/>
          <path id="Trazado_879096" data-name="Trazado 879096" d="M26,10.945l4.86,3.91a2.017,2.017,0,0,0,2.528,0l4.853-3.91a8.787,8.787,0,0,0,2.91-4.319A5.139,5.139,0,0,0,34.2.418a9.036,9.036,0,0,0-2.08,1.205A7.058,7.058,0,0,0,28.007,0a5.14,5.14,0,0,0-4.921,6.626A8.79,8.79,0,0,0,26,10.945Zm-.552-7.829a3.247,3.247,0,0,1,2.562-1.241,5.837,5.837,0,0,1,3.482,1.666.938.938,0,0,0,1.255,0,7.42,7.42,0,0,1,2.177-1.393l.012-.005a3.259,3.259,0,0,1,3.855.973c1.671,2.115-.013,4.987-1.728,6.369-5.218,4.2-4.9,4.012-5.029,3.91l-4.859-3.91c-1.666-1.343-3.438-4.205-1.728-6.369Z"/>
          <path id="Trazado_879097" data-name="Trazado 879097" d="M59.33,43.635a7.064,7.064,0,0,0-.267-9.231c.015-.059.03-.118.043-.178a4.6,4.6,0,0,0,1.81-8.48V24.5a.937.937,0,1,0-1.875,0v.558H48.02a6.854,6.854,0,0,1-6.7-5.445l-.008-.038c-.707-3.5,1.63-6.019,4.525-6.019h3.345a9.816,9.816,0,0,1,9.406,6.9.937.937,0,1,0,1.789-.562A11.832,11.832,0,0,0,56.193,14a11.635,11.635,0,0,0-7.008-2.322H45.84a6.554,6.554,0,0,0-1.133.1,12.262,12.262,0,0,0-10.68,12.148v2.065c0,.016,0,.032,0,.048A4.618,4.618,0,0,0,32.4,28.534a1.761,1.761,0,0,0-.31.13,2,2,0,0,0-1.141-.2,4.506,4.506,0,0,0-1.545-2.721c0-.013,0-.026.006-.039L30,19.294A5.268,5.268,0,0,0,26.788,14,6.518,6.518,0,0,0,20.9,10.316H12.4A7.2,7.2,0,0,0,6.187,13.9a5.294,5.294,0,0,0-3.538,5.417L3.2,25.287a4.5,4.5,0,0,0,1.626,8.358A11.426,11.426,0,0,0,10.7,41.2v1.209L8.6,43.422a1.4,1.4,0,0,0-.3.2H6.014A5.12,5.12,0,0,0,.9,48.737v8.645a.937.937,0,0,0,.937.937h8.246a.937.937,0,0,0,0-1.875H2.775V48.737A3.243,3.243,0,0,1,6.014,45.5H8.063c.123.174.066.1,3.751,3.561a1.44,1.44,0,0,0,.364.246L15.746,53l.672,3.442H14.46a.937.937,0,0,0,0,1.875h2.323l.961,4.923a.938.938,0,0,0,.92.758H45.144a.938.938,0,0,0,.92-.758l.961-4.923h14.84a.937.937,0,0,0,.937-.937V48.7a5.435,5.435,0,0,0-3.472-5.062Zm-12.488,1c-.053,0-.1,0-.156.007l-.028,0a1.791,1.791,0,0,0-1.251.7l-.013.017c-.035.048-.069.1-.1.148l-.271.447a5.682,5.682,0,0,0-.715-.713,7.857,7.857,0,0,1-.153-2.5,11.814,11.814,0,0,0,7.084-.008,6.584,6.584,0,0,1-.266,2.821l-1.345.334-1,.249a1.828,1.828,0,0,0-.23-.621,2.351,2.351,0,0,0-.468-.522,1.793,1.793,0,0,0-1.084-.362ZM38.863,62.125H24.945l-1.429-4.3-.065-.195v-.743a2.831,2.831,0,0,1,2.828-2.828h1.614a4.218,4.218,0,0,0,8.42,0h1.639a2.847,2.847,0,0,1,2.795,2.4l-.554,1.666Zm-27.3-18.052,2.755,1.848-2.063-.513a1.5,1.5,0,0,0-1.291.281l-.934-.877Zm20.527-5.052a5.541,5.541,0,0,0,4.6,2.461h2.367s0,0,0,0q.006.136.006.271a27.7,27.7,0,0,1-.074,3.953c0,.018,0,.037-.008.055a6.983,6.983,0,0,1-13.77,0,26.667,26.667,0,0,1-.082-4.009q0-.135.006-.271a.033.033,0,0,1,0,0h2.347A5.541,5.541,0,0,0,32.092,39.021Zm2.277-10.462a2.754,2.754,0,0,1,1.6-1.478c-.026.443-.021.718-.021,1.839A10.477,10.477,0,0,0,34.369,28.559ZM43.186,49.13l-1.2,3.618a3.839,3.839,0,0,1-2.037-3.389v-.612a8.678,8.678,0,0,0,.745-1.956,3.656,3.656,0,0,0,1.512-.675,3.845,3.845,0,0,1,.744.437h0a3.871,3.871,0,0,1,.969,1.064c.01.017.022.033.032.051l.015.027a6.327,6.327,0,0,0-.778,1.435Zm-8.74,4.682a2.342,2.342,0,0,1-4.685,0v-.667a9,9,0,0,0,4.685,0Zm-14.4-5.785a3.837,3.837,0,0,1,1.933-1.913,3.647,3.647,0,0,0,1.534.68,8.689,8.689,0,0,0,.725,1.914v.65A3.834,3.834,0,0,1,21.876,52.9c-1.563-4.7-1.233-3.886-1.831-4.873Zm3.214-6.271V44.72a1.741,1.741,0,0,1-.82-1.281s0-.009,0-.014a1.747,1.747,0,0,1,.823-1.685c0,.005,0,.01,0,.015ZM20.68,44.19a3.613,3.613,0,0,0,.138.406,5.769,5.769,0,0,0-1.869,1.621l-.433-.715c-.009-.015-.019-.029-.028-.044s-.023-.037-.035-.054l1.985-1.331Zm5.212,6.739a8.885,8.885,0,0,0,1.629,1.259,9.647,9.647,0,0,0-2.219.1A5.693,5.693,0,0,0,25.892,50.929Zm15.051-9.177a1.747,1.747,0,0,1,0,2.955V41.752ZM38.3,50.943a5.711,5.711,0,0,0,.577,1.334,4.807,4.807,0,0,0-.92-.089H36.682A8.884,8.884,0,0,0,38.3,50.943Zm14.818-8.995a11.743,11.743,0,0,0,5.2-5.434,5.154,5.154,0,0,1,.727,2.659,5.206,5.206,0,0,1-1.994,4.1H53.114ZM59.4,32.24c.037-.614.036-4.544,0-5.158a2.732,2.732,0,0,1,0,5.158ZM57.5,26.929a55.1,55.1,0,0,1-.088,6.179,9.784,9.784,0,0,1-.316,1.356c-.009.029-.019.057-.029.086A9.857,9.857,0,0,1,42.91,40.172c0-1.82,0-1.913-.016-2.295a9.9,9.9,0,0,0-5.067-8.141c0-2.037-.012-2.229.037-2.807a11.479,11.479,0,0,0,5.459-1.373,8.647,8.647,0,0,0,4.7,1.373ZM35.9,25.054V23.926a10.383,10.383,0,0,1,3.832-8.05,6.722,6.722,0,0,0-.419,2.78c0,.018,0,.036,0,.054a8.616,8.616,0,0,0,2.409,5.538C39.619,25.172,38.135,25.054,35.9,25.054Zm-3.81,6.112a.938.938,0,0,0,.932-.837c.049,0,.1,0,.147.005h.008a8.111,8.111,0,0,1,7.842,7.64c0,.028,0,.056,0,.084.006.124.009.249.009.375v1.172c-4.273,0-5.181.189-6.388-.627a3.666,3.666,0,0,1-1.618-3.039.937.937,0,0,0-1.875,0,3.661,3.661,0,0,1-1.336,2.828q-.068.056-.139.109-.141.106-.293.2a3.644,3.644,0,0,1-1.9.532H23.148V38.434a8.116,8.116,0,0,1,8.011-8.1.938.938,0,0,0,.932.837Zm-4.657-1.955c0-1.945,0-2.123-.014-2.494a2.641,2.641,0,0,1,1.668,1.974,10.2,10.2,0,0,0-1.654.52ZM12.4,12.191h8.5a4.652,4.652,0,0,1,4.321,2.9.938.938,0,0,0,.56.53,3.417,3.417,0,0,1,2.355,3.5l-.513,5.556c-13.718,0-13.778.136-15.218-.24a7.12,7.12,0,0,1-4.382-3.382h0a7.152,7.152,0,0,1-.878-2.615v-.006a5.351,5.351,0,0,1,5.26-6.243ZM5.245,16.778a8.978,8.978,0,0,0,.88,4.7,11.384,11.384,0,0,0-1.148,2.656l-.462-5a3.277,3.277,0,0,1,.73-2.362ZM2.828,29.184A2.634,2.634,0,0,1,4.55,26.716c-.019.382,0,4.843,0,4.937A2.636,2.636,0,0,1,2.828,29.184Zm3.582,1.9v-3.8a9.609,9.609,0,0,1,.882-4,8.966,8.966,0,0,0,4.435,2.908l.064.018c1.626.454,1.544.341,13.739.341.038.488.029.428.029,3.685a9.924,9.924,0,0,0-4.286,8.2v.592a9.495,9.495,0,0,1-3.179,1.343l-.117.024a9.721,9.721,0,0,1-2.061.2A9.519,9.519,0,0,1,6.41,31.082Zm7.227,11.152a11.436,11.436,0,0,0,1.9.223,11.592,11.592,0,0,0,3.881-.5V42.5L16,44.79,12.579,42.5v-.529c.34.1.684.19,1.032.262l.026.006Zm8.877,19.891H19.437l-1.9-9.754a.937.937,0,0,0-.246-.471l-4.2-4.353,3.1.769a.937.937,0,0,0,1.127-1.163c0-.014-.006-.028-.011-.042L18.6,49.265c.011.018.023.036.035.054a1.551,1.551,0,0,1,.2.4l4.126,12.4h-.455Zm21.858,0H40.839l4.126-12.4a20.262,20.262,0,0,1,1.545-2.611.938.938,0,0,0,1.116,1.2l3.1-.769-4.2,4.353a.937.937,0,0,0-.246.471Zm3.02-5.681L48.063,53l4.925-5.1a1.486,1.486,0,0,0,.364-1.437c-.005-.018-.009-.036-.015-.054a1.524,1.524,0,0,0-.443-.676c.053-.18.117-.473.137-.588h3.34v11.3H47.391Zm13.536,0h-2.68V45.253a3.559,3.559,0,0,1,2.68,3.444Z"/>
          <path id="Trazado_879098" data-name="Trazado 879098" d="M32.116,50.14A2.908,2.908,0,0,0,34.979,47.2a.937.937,0,0,0-1.875,0,.991.991,0,1,1-1.975,0,.937.937,0,0,0-1.875,0A2.908,2.908,0,0,0,32.116,50.14Z"/>
          <path id="Trazado_879099" data-name="Trazado 879099" d="M35.82,45.5a.937.937,0,0,0,.937-.937v-.272a.938.938,0,0,0-.319-1.819H35.82a.937.937,0,0,0-.937.937V44.56a.938.938,0,0,0,.937.938Z"/>
          <path id="Trazado_879100" data-name="Trazado 879100" d="M26.857,43.406a.938.938,0,0,0,.619.882v.272a.937.937,0,0,0,1.875,0V43.406a.937.937,0,0,0-.937-.937h-.619a.937.937,0,0,0-.937.937Z"/>
        </g>
      </g>
    </g>
  </g>
</svg>
