<svg xmlns="http://www.w3.org/2000/svg" xmlns:xlink="http://www.w3.org/1999/xlink" width="121" height="121" viewBox="0 0 121 121">
  <defs>
    <clipPath id="clip-path">
      <rect id="Rectángulo_403250" data-name="Rectángulo 403250" width="84" height="84" transform="translate(408 6464)" fill="#fff" stroke="#707070" stroke-width="1"/>
    </clipPath>
    <clipPath id="clip-path-2">
      <path id="path6666" d="M0-84H84V0H0Z"/>
    </clipPath>
  </defs>
  <g id="Grupo_1101883" data-name="Grupo 1101883" transform="translate(-389 -6445)">
    <circle id="Elipse_11630" data-name="Elipse 11630" cx="60.5" cy="60.5" r="60.5" transform="translate(389 6445)" fill="#4e93ee"/>
    <g id="Enmascarar_grupo_1098838" data-name="Enmascarar grupo 1098838" clip-path="url(#clip-path)">
      <g id="g6660" transform="translate(408 6548)">
        <g id="g6662">
          <g id="g6664" clip-path="url(#clip-path-2)">
            <g id="g6670" transform="translate(30.203 -50.538)">
              <path id="path6672" d="M0,0S2.368,7.909.482,15.661l.349.6C4.4,12.571,8.285,6.024,1.148-1.171l-.2-.066L0-.927Z" fill="#00f4a8"/>
            </g>
            <g id="g6674" transform="translate(32.694 -53.457)">
              <path id="path6676" d="M0,0A35.061,35.061,0,0,1,13.289,11.977l.662.5C14.071,6.566,12.136-2.1-.28-1.941l-.263.208L-.711-.91Z" fill="#00f4a8"/>
            </g>
            <g id="g6678" transform="translate(18.84 -81.638)">
              <path id="path6680" d="M0,0H0L-.2.947S8.6,13.16,7.362,23.817l.258.3,1.039-.588.174-.3C15.246,8.786,6.816,2.584,0,0" fill="#00f4a8"/>
            </g>
            <g id="g6682" transform="translate(5.91 -66.91)">
              <path id="path6684" d="M0,0S9.092,1.464,14.725,6.529l1.006.9,1.7-.528.282-.3C12.766-3.606,5.274-2.851,0-.55Z" fill="#00f4a8"/>
            </g>
            <g id="g6686" transform="translate(12.669 -55.918)">
              <path id="path6688" d="M0,0C-4.767.766-6.7,8.518-6.7,8.518l.278.436A27.136,27.136,0,0,1,6.906,1.721L7.091,1.4,7-.316A28.225,28.225,0,0,0,0,0" fill="#00f4a8"/>
            </g>
            <g id="g6690" transform="translate(6.456 -67.133)">
              <path id="path6692" d="M0,0A.88.88,0,0,1-.546-.327,25.119,25.119,0,0,0-4.34,1.755a.894.894,0,0,0,.514,1.639,29.811,29.811,0,0,1,17.3,4.676h.376l1.717-.533A30.073,30.073,0,0,0,0,0" fill="#00e49d"/>
            </g>
            <g id="g6694" transform="translate(26.877 -57.891)">
              <path id="path6696" d="M0,0C.158-4.9-.817-13.867-8.037-23.747a31.149,31.149,0,0,0-3.534-1.1A1.068,1.068,0,0,0-12.6-23.068C-4.777-14.825-2.9-6.695-2.509-2.2l.2.348L-.417.374.047.111Z" fill="#00e49d"/>
            </g>
            <g id="g6698" transform="translate(51.837 -55.4)">
              <path id="path6700" d="M0,0S-5.772-6.588-12.211-6.219a16.22,16.22,0,0,0-9.541,4.284l1.627,1.1.438.062C-15.489-1.8-8.588-2.382,0,.93Z" fill="#00f4a8"/>
            </g>
            <g id="g6702" transform="translate(30.509 -57.049)">
              <path id="path6704" d="M0,0C9.618-7.946,17.273-2.186,21.328,2.579l.237.09a.986.986,0,0,0,1.165-1.5C19.037-3.914,9.888-13.18-1.916-1.448l.232.31Z" fill="#00e49d"/>
            </g>
            <g id="g6706" transform="translate(31.953 -54.22)">
              <path id="path6708" d="M0,0-.367,1.8l.1.324c3.449,1.7,9.043,5.565,13.1,13.825a.894.894,0,0,0,1.693-.289,26.233,26.233,0,0,0,.167-2.819C9.742,4.972,3.739,1.494,0,0" fill="#00e49d"/>
            </g>
            <g id="g6710" transform="translate(6.243 -46.964)">
              <path id="path6712" d="M0,0C1.514-4.532,5.119-10.535,13.447-8.864L13.332-11l-.2-.308C3.028-13.74-.409-5.163-1.505-.615A.806.806,0,0,0-.16.151L0,0" fill="#00e49d"/>
            </g>
            <g id="g6714" transform="translate(31.048 -34.591)">
              <path id="path6716" d="M0,0C1.877-7.814.38-13.593-1-16.823l-1.567.51-.409.339C-1.771-12.686-.565-6.8-2.9.96A.806.806,0,0,0-1.6,1.808C-1.109,1.384-.566.882-.015.313A.83.83,0,0,1,0,0" fill="#00e49d"/>
            </g>
            <g id="g6718" transform="translate(81.572 -21.804)">
              <path id="path6720" d="M0,0A6.208,6.208,0,0,1-3.166.862,6.22,6.22,0,0,1-7.592-.98a1.72,1.72,0,0,0-2.444,0A6.22,6.22,0,0,1-14.463.862,6.22,6.22,0,0,1-18.889-.98a1.72,1.72,0,0,0-2.444,0A6.22,6.22,0,0,1-25.759.862,6.221,6.221,0,0,1-30.186-.98,1.72,1.72,0,0,0-32.5-1.1V.216l6.377,11.4H.334L1.288,9.4V.727A.85.85,0,0,0,0,0" fill="#60b9fe"/>
            </g>
            <g id="g6722" transform="translate(48.942 -22.784)">
              <path id="path6724" d="M0,0A6.22,6.22,0,0,1-4.426,1.842c-.195,0-.387-.01-.578-.028V2.14L2.91,12.055l.752.543H9.207A45.861,45.861,0,0,0,.131-.119Q.063-.064,0,0" fill="#1ca8ff"/>
            </g>
            <g id="g6726" transform="translate(78.406 -10.532)">
              <path id="path6728" d="M0,0A6.22,6.22,0,0,1-4.426-1.842a1.72,1.72,0,0,0-2.444,0A6.221,6.221,0,0,1-11.3,0a6.22,6.22,0,0,1-4.426-1.842,1.72,1.72,0,0,0-2.444,0,6.235,6.235,0,0,1-2.691,1.6l2.641,8.906,1.191.642h19.3A2.184,2.184,0,0,0,4.454,7.117V-1.87A6.222,6.222,0,0,1,0,0" fill="#8bcaff"/>
            </g>
            <g id="g6730" transform="translate(61.017 -2.541)">
              <path id="path6732" d="M0,0A45.721,45.721,0,0,0-3.2-8.322a6.225,6.225,0,0,1-2,.331A6.221,6.221,0,0,1-9.631-9.833,1.733,1.733,0,0,0-9.83-10v.239L-5.437.662l.693.649H.362Z" fill="#60b9fe"/>
            </g>
            <g id="g6734" transform="translate(69.739 -47.946)">
              <path id="path6736" d="M0,0A7.9,7.9,0,0,0,0,14.41,7.587,7.587,0,0,0,5.214,7.2,7.587,7.587,0,0,0,0,0" fill="#ffc365"/>
            </g>
            <g id="g6738" transform="translate(65.274 -40.741)">
              <path id="path6740" d="M0,0A7.586,7.586,0,0,1,4.839-7.07a7.566,7.566,0,0,0-2.746-.515A7.585,7.585,0,0,0-5.492,0,7.585,7.585,0,0,0,2.093,7.585,7.563,7.563,0,0,0,4.839,7.07,7.586,7.586,0,0,1,0,0" fill="#ffa90f"/>
            </g>
            <g id="g6742" transform="translate(19.673 -31.171)">
              <path id="path6744" d="M0,0-2.866,1.618l-4.663-.346-.7-1.031a40.853,40.853,0,0,0-4.92.952V28.136a1.975,1.975,0,0,0,1.186,1.8H36.6A41.011,41.011,0,0,0,0,0" fill="#ffdda8"/>
            </g>
            <g id="g6746" transform="translate(6.854 -3.035)">
              <path id="path6748" d="M0,0V-27.028a40.651,40.651,0,0,0-4.076,1.241,2.212,2.212,0,0,0-1.457,2.078v8.274l.994.833L-4.43-4.375l-1.1,1.766V-.4A2.209,2.209,0,0,0-3.324,1.8h4.51A1.975,1.975,0,0,1,0,0" fill="#ffc365"/>
            </g>
            <g id="g6750" transform="translate(25.065 -53.457)">
              <path id="path6752" d="M0,0-.731.148l-.71,2.771-10.446,20.14-11,15.414-.857,2.281v7.059C-6.81,31.795-.449,11.386,1.634,2.471V1.948Z" fill="#dd8858"/>
            </g>
            <g id="g6754" transform="translate(25.035 -53.451)">
              <path id="path6756" d="M0,0-2.451.5l-.513.446C-4.677,6.95-9.754,20.2-23.714,34.981v5.767C-7.683,22.985-1.966,7.49,0,0" fill="#cb6c35"/>
            </g>
            <g id="g6758" transform="translate(30.118 -58.168)">
              <path id="path6760" d="M0,0A4.063,4.063,0,0,0,0,7.3,3.969,3.969,0,0,0,2.19,4.908,3.98,3.98,0,0,0,0,0" fill="#938493"/>
            </g>
            <g id="g6762" transform="translate(28.098 -53.259)">
              <path id="path6764" d="M0,0A3.98,3.98,0,0,1,2.1-4.871a4,4,0,0,0-.412-.164,3.969,3.969,0,0,0-3.245.328l-.261.284L-3.224.021V.307a3.969,3.969,0,0,0,2.4,2.21A3.965,3.965,0,0,0,2.1,2.352,3.967,3.967,0,0,1,0,0" fill="#7b6c79"/>
            </g>
            <g id="g6766" transform="translate(24.381 -60.089)">
              <path id="path6768" d="M0,0A4.175,4.175,0,0,0,0,7.377a3.969,3.969,0,0,0,2.284-2.43A3.979,3.979,0,0,0,0,0" fill="#938493"/>
            </g>
            <g id="g6770" transform="translate(22.481 -57.659)">
              <path id="path6772" d="M0,0A3.967,3.967,0,0,1,2.092-2.346a4,4,0,0,0-.425-.17A3.98,3.98,0,1,0-.852,5.034a3.966,3.966,0,0,0,2.942-.17A3.98,3.98,0,0,1,0,0" fill="#7b6c79"/>
            </g>
            <g id="g6774" transform="translate(81.481 -21.804)">
              <path id="path6776" d="M0,0A6.209,6.209,0,0,1-3.166.862,6.22,6.22,0,0,1-7.592-.98a1.72,1.72,0,0,0-2.444,0A6.221,6.221,0,0,1-14.463.862,6.22,6.22,0,0,1-18.889-.98a1.72,1.72,0,0,0-2.444,0A6.22,6.22,0,0,1-25.76.862,6.22,6.22,0,0,1-30.186-.98a1.72,1.72,0,0,0-2.444,0A6.22,6.22,0,0,1-37.056.862c-.195,0-.387-.01-.578-.028A40.994,40.994,0,0,1-25.3,20.574H-.9a2.184,2.184,0,0,0,2.184-2.184V.727A.85.85,0,0,0,0,0Z" fill="none" stroke="#000" stroke-linecap="round" stroke-linejoin="round" stroke-miterlimit="10" stroke-width="2.461"/>
            </g>
            <g id="g6778" transform="translate(78.316 -10.532)">
              <path id="path6780" d="M0,0A6.22,6.22,0,0,1-4.426-1.842a1.72,1.72,0,0,0-2.444,0A6.221,6.221,0,0,1-11.3,0a6.22,6.22,0,0,1-4.427-1.842,1.72,1.72,0,0,0-2.444,0A6.22,6.22,0,0,1-22.594,0,6.22,6.22,0,0,1-27.02-1.842a1.761,1.761,0,0,0-.2-.169A40.788,40.788,0,0,1-22.133,9.3h24.4A2.184,2.184,0,0,0,4.454,7.117V-1.87A6.222,6.222,0,0,1,0,0Z" fill="none" stroke="#000" stroke-linecap="round" stroke-linejoin="round" stroke-miterlimit="10" stroke-width="2.461"/>
            </g>
            <g id="g6782" transform="translate(19.022 -57.659)">
              <path id="path6784" d="M0,0A3.98,3.98,0,1,0,5.034-2.516,3.98,3.98,0,0,0,0,0Z" fill="none" stroke="#000" stroke-linecap="round" stroke-linejoin="round" stroke-miterlimit="10" stroke-width="2.461"/>
            </g>
            <g id="g6786" transform="translate(24.784 -52.953)">
              <path id="path6788" d="M0,0A3.97,3.97,0,0,1-2.8.446C-4.516,6.452-9.593,19.7-23.553,34.483V47.308C-6.619,31.291-.258,10.881,1.825,1.967A3.972,3.972,0,0,1,0,0Z" fill="none" stroke="#000" stroke-linecap="round" stroke-linejoin="round" stroke-miterlimit="10" stroke-width="2.461"/>
            </g>
            <g id="g6790" transform="translate(26.573 -55.142)">
              <path id="path6792" d="M0,0A3.964,3.964,0,0,0-.117-2.824a3.969,3.969,0,0,1,3.245-.327A3.98,3.98,0,0,1,.61,4.4a3.97,3.97,0,0,1-2.4-2.21A3.964,3.964,0,0,0,0,0Z" fill="none" stroke="#000" stroke-linecap="round" stroke-linejoin="round" stroke-miterlimit="10" stroke-width="2.461"/>
            </g>
            <g id="g6794" transform="translate(19.287 -58.274)">
              <path id="path6796" d="M0,0A4.022,4.022,0,0,0-.265.615,3.972,3.972,0,0,0,.2,4.077a27.2,27.2,0,0,0-13.492,7.384A.806.806,0,0,1-14.64,10.7C-13.544,6.147-10.107-2.429,0,0Z" fill="none" stroke="#000" stroke-linecap="round" stroke-linejoin="round" stroke-miterlimit="10" stroke-width="2.461"/>
            </g>
            <g id="g6798" transform="translate(2.026 -65.378)">
              <path id="path6800" d="M0,0C4.687-3.107,15.179-7.985,21.508,5.068a3.983,3.983,0,0,0-3.693,1.247A29.812,29.812,0,0,0,.514,1.638.894.894,0,0,1,0,0Z" fill="none" stroke="#000" stroke-linecap="round" stroke-linejoin="round" stroke-miterlimit="10" stroke-width="2.461"/>
            </g>
            <g id="g6802" transform="translate(15.215 -82.736)">
              <path id="path6804" d="M0,0C6.7,1.658,19.975,7.193,12.367,24.332a3.993,3.993,0,0,0-1.126.437,3.969,3.969,0,0,0-2.178-2.128C8.675,18.15,6.794,10.019-1.027,1.777A1.068,1.068,0,0,1,0,0Z" fill="none" stroke="#000" stroke-linecap="round" stroke-linejoin="round" stroke-miterlimit="10" stroke-width="2.461"/>
            </g>
            <g id="g6806" transform="translate(51.983 -54.379)">
              <path id="path6808" d="M0,0C-8.7-3.415-15.688-2.83-19.924-1.794a3.968,3.968,0,0,0-2.359-2.12,3.973,3.973,0,0,0-1.2-.2C-11.677-15.85-2.528-6.583,1.165-1.495A.986.986,0,0,1,0,0Z" fill="none" stroke="#000" stroke-linecap="round" stroke-linejoin="round" stroke-miterlimit="10" stroke-width="2.461"/>
            </g>
            <g id="g6810" transform="translate(31.599 -52.096)">
              <path id="path6812" d="M0,0A3.973,3.973,0,0,0,.618-1.164,3.962,3.962,0,0,0,.725-3.3c14.263-.18,14.7,11.281,14.07,16.838a.894.894,0,0,1-1.693.289C9.043,5.565,3.449,1.7,0,0Z" fill="none" stroke="#000" stroke-linecap="round" stroke-linejoin="round" stroke-miterlimit="10" stroke-width="2.461"/>
            </g>
            <g id="g6814" transform="translate(28.059 -33.631)">
              <path id="path6816" d="M0,0C2.333-7.758,1.127-13.646-.08-16.934A3.985,3.985,0,0,0,3.2-18.078C11.439-9.773,5-2.331,1.295.848A.806.806,0,0,1,0,0Z" fill="none" stroke="#000" stroke-linecap="round" stroke-linejoin="round" stroke-miterlimit="10" stroke-width="2.461"/>
            </g>
            <g id="g6818" transform="translate(79.349 -40.741)">
              <path id="path6820" d="M0,0H2.01" fill="none" stroke="#000" stroke-linecap="round" stroke-linejoin="round" stroke-miterlimit="10" stroke-width="2.461"/>
            </g>
            <g id="g6822" transform="translate(53.194 -40.741)">
              <path id="path6824" d="M0,0H2.01" fill="none" stroke="#000" stroke-linecap="round" stroke-linejoin="round" stroke-miterlimit="10" stroke-width="2.461"/>
            </g>
            <g id="g6826" transform="translate(75.813 -49.278)">
              <path id="path6828" d="M0,0,1.421-1.421" fill="none" stroke="#000" stroke-linecap="round" stroke-linejoin="round" stroke-miterlimit="10" stroke-width="2.461"/>
            </g>
            <g id="g6830" transform="translate(57.319 -30.784)">
              <path id="path6832" d="M0,0,1.421-1.421" fill="none" stroke="#000" stroke-linecap="round" stroke-linejoin="round" stroke-miterlimit="10" stroke-width="2.461"/>
            </g>
            <g id="g6834" transform="translate(67.276 -52.814)">
              <path id="path6836" d="M0,0V-2.01" fill="none" stroke="#000" stroke-linecap="round" stroke-linejoin="round" stroke-miterlimit="10" stroke-width="2.461"/>
            </g>
            <g id="g6838" transform="translate(67.276 -26.659)">
              <path id="path6840" d="M0,0V-2.01" fill="none" stroke="#000" stroke-linecap="round" stroke-linejoin="round" stroke-miterlimit="10" stroke-width="2.461"/>
            </g>
            <g id="g6842" transform="translate(58.74 -49.278)">
              <path id="path6844" d="M0,0-1.421-1.421" fill="none" stroke="#000" stroke-linecap="round" stroke-linejoin="round" stroke-miterlimit="10" stroke-width="2.461"/>
            </g>
            <g id="g6846" transform="translate(77.234 -30.784)">
              <path id="path6848" d="M0,0-1.421-1.421" fill="none" stroke="#000" stroke-linecap="round" stroke-linejoin="round" stroke-miterlimit="10" stroke-width="2.461"/>
            </g>
            <g id="g6850" transform="translate(11.355 -30.93)">
              <path id="path6852" d="M0,0A40.731,40.731,0,0,0-8.668,2.109a2.211,2.211,0,0,0-1.457,2.079V12.46A104.646,104.646,0,0,0,0,0Z" fill="none" stroke="#000" stroke-linecap="round" stroke-linejoin="round" stroke-miterlimit="10" stroke-width="2.461"/>
            </g>
            <g id="g6854" transform="translate(31.578 -1.23)">
              <path id="path6856" d="M0,0H24.605A41.012,41.012,0,0,0-12-29.941,86.628,86.628,0,0,1-30.347-4.414v2.2A2.209,2.209,0,0,0-28.138,0h22.4" fill="none" stroke="#000" stroke-linecap="round" stroke-linejoin="round" stroke-miterlimit="10" stroke-width="2.461"/>
            </g>
            <g id="g6858" transform="translate(74.338 -43.508)">
              <path id="path6860" d="M0,0A7.586,7.586,0,0,0-7.062-4.818a7.585,7.585,0,0,0-7.585,7.585,7.585,7.585,0,0,0,7.585,7.585A7.587,7.587,0,0,0-.083,5.742" fill="none" stroke="#000" stroke-linecap="round" stroke-linejoin="round" stroke-miterlimit="10" stroke-width="2.461"/>
            </g>
          </g>
        </g>
      </g>
    </g>
  </g>
</svg>
