<svg xmlns="http://www.w3.org/2000/svg" xmlns:xlink="http://www.w3.org/1999/xlink" width="269.527" height="229.798" viewBox="0 0 269.527 229.798">
  <defs>
    <clipPath id="clip-path">
      <rect id="Rectángulo_403463" data-name="Rectángulo 403463" width="12.235" height="81.927" fill="none"/>
    </clipPath>
    <clipPath id="clip-path-2">
      <rect id="Rectángulo_403464" data-name="Rectángulo 403464" width="11.501" height="17.042" fill="none"/>
    </clipPath>
    <clipPath id="clip-path-3">
      <rect id="Rectángulo_403465" data-name="Rectángulo 403465" width="5.45" height="24.665" fill="none"/>
    </clipPath>
    <clipPath id="clip-path-4">
      <rect id="Rectángulo_403466" data-name="Rectángulo 403466" width="5.215" height="25.549" fill="none"/>
    </clipPath>
    <clipPath id="clip-path-5">
      <rect id="Rectángulo_403467" data-name="Rectángulo 403467" width="0.772" height="0.999" fill="none"/>
    </clipPath>
    <clipPath id="clip-path-6">
      <rect id="Rectángulo_403468" data-name="Rectángulo 403468" width="32.638" height="34.463" fill="none"/>
    </clipPath>
    <clipPath id="clip-path-7">
      <rect id="Rectángulo_403469" data-name="Rectángulo 403469" width="7.363" height="16.202" fill="none"/>
    </clipPath>
    <clipPath id="clip-path-8">
      <rect id="Rectángulo_403470" data-name="Rectángulo 403470" width="36.091" height="16.712" fill="#1f3b5f"/>
    </clipPath>
    <clipPath id="clip-path-9">
      <rect id="Rectángulo_403471" data-name="Rectángulo 403471" width="20.66" height="12.382" fill="none"/>
    </clipPath>
    <clipPath id="clip-path-10">
      <rect id="Rectángulo_403472" data-name="Rectángulo 403472" width="7.656" height="7.519" fill="none"/>
    </clipPath>
    <clipPath id="clip-path-11">
      <rect id="Rectángulo_403473" data-name="Rectángulo 403473" width="20.661" height="12.382" fill="none"/>
    </clipPath>
    <clipPath id="clip-path-18">
      <rect id="Rectángulo_403480" data-name="Rectángulo 403480" width="7.657" height="7.519" fill="none"/>
    </clipPath>
  </defs>
  <g id="Grupo_1102321" data-name="Grupo 1102321" transform="translate(-241.025 -3824.333)">
    <g id="Grupo_1101930" data-name="Grupo 1101930" transform="translate(265.379 3860)">
      <g id="Grupo_1101931" data-name="Grupo 1101931">
        <path id="Trazado_878003" data-name="Trazado 878003" d="M97.874,184.4c46.357,9.272,86.979-1.242,109.345-19.881,9.214-7.679,18.535-19.467,21.953-33.134,12.425-49.7-24.193-90.855-52.6-75.382-46.389,25.265-53.295,7.311-91.121-31.064C56.87-4.059-33.838,36.531,13.38,121.853A125.033,125.033,0,0,0,97.874,184.4" transform="translate(0 6.309)" fill="#ffe69c"/>
        <path id="Trazado_878012" data-name="Trazado 878012" d="M35.393,2.192a.666.666,0,0,0,.081-.059c.48-.4,5.9-4.613,13.857.029C57.674,7.03,63.1,5.422,68.1,4.588c8.667-1.444,11.933.451,15.757,3.962a14.806,14.806,0,0,0,4.9,2.772.778.778,0,0,1-.261,1.51H23.117a.779.779,0,0,1-.591-1.284c1.131-1.333,4.317-4.015,12.868-9.356" transform="translate(9.014 0)" fill="#ffe69c"/>
        <path id="Trazado_878013" data-name="Trazado 878013" d="M102.241,26.763a.489.489,0,0,0,.055-.039c.321-.265,3.944-3.086,9.269.02,5.58,3.256,9.206,2.18,12.556,1.622,5.8-.966,7.982.3,10.54,2.65a9.893,9.893,0,0,0,3.28,1.854.521.521,0,0,1-.175,1.011H94.028a.521.521,0,0,1-.394-.859c.757-.891,2.887-2.686,8.606-6.258" transform="translate(37.733 10.208)" fill="#ffe69c"/>
        <path id="Trazado_878014" data-name="Trazado 878014" d="M155.679,7.659a.491.491,0,0,1-.055-.039c-.321-.265-3.944-3.086-9.269.02-5.58,3.256-9.206,2.18-12.556,1.622-5.8-.966-7.982.3-10.54,2.65a9.879,9.879,0,0,1-3.28,1.854.521.521,0,0,0,.175,1.011h43.737a.52.52,0,0,0,.394-.859c-.757-.891-2.887-2.686-8.606-6.258" transform="translate(48.276 2.499)" fill="#ffe69c"/>
      </g>
    </g>
    <g id="Grupo_1102217" data-name="Grupo 1102217" transform="translate(195.333 3741.029)">
      <g id="Grupo_1102218" data-name="Grupo 1102218">
        <g id="Grupo_1102215" data-name="Grupo 1102215">
          <g id="Grupo_1102220" data-name="Grupo 1102220">
            <path id="Trazado_878740" data-name="Trazado 878740" d="M1135.663,2908.38s-1.271,10.7,0,13.146l-9.352,1.784,2.815-17.558Z" transform="translate(-1014.074 -2616.191)" fill="#db965f"/>
            <path id="Trazado_878741" data-name="Trazado 878741" d="M1120.1,3028.915s7.668,1.956,13.541.385a1.746,1.746,0,0,0,1.232-2.051c-.232-1.107-1.2-2.437-4.344-2.964,0,0-8.441-3.776-10.79-6.781,0,0-4.863,2.513-7.763.564a7.37,7.37,0,0,0-2.566,4.87,4.279,4.279,0,0,0,3.653,4.755,51.9,51.9,0,0,1,7.038,1.22" transform="translate(-998.835 -2716.809)" fill="#040c2b"/>
            <path id="Trazado_878742" data-name="Trazado 878742" d="M1011.589,2896.13s-1.271,10.7,0,13.146l-9.351,1.784,2.814-17.559Z" transform="translate(-902.365 -2605.163)" fill="#db965f"/>
            <path id="Trazado_878743" data-name="Trazado 878743" d="M997.668,3028.611s7.668,1.956,13.541.385a1.746,1.746,0,0,0,1.232-2.051c-.232-1.106-1.2-2.437-4.344-2.964,0,0-8.441-3.776-10.79-6.78,0,0-5.115,1.941-8.016-.008a10.787,10.787,0,0,0-2.313,5.443,4.279,4.279,0,0,0,3.653,4.755,51.9,51.9,0,0,1,7.038,1.22" transform="translate(-888.6 -2716.529)" fill="#040c2b"/>
            <path id="Trazado_878744" data-name="Trazado 878744" d="M1117.489,2078.484l5.975,39.941-3.632,41.691,1.872.295,7.661,1.208,7.163-40.215a65.334,65.334,0,0,0,1-12.445l-.54-35.228-19.792,2.817Z" transform="translate(-1005.87 -1867.083)" fill="#040c2b"/>
            <g id="Grupo_1102162" data-name="Grupo 1102162" transform="translate(111.619 211.401)" opacity="0.15">
              <g id="Grupo_1102161" data-name="Grupo 1102161">
                <g id="Grupo_1102160" data-name="Grupo 1102160" clip-path="url(#clip-path)">
                  <path id="Trazado_878745" data-name="Trazado 878745" d="M1126.081,2161.371l-3.632,41.691,1.872.3,6.7-41.038,1.321-40.89h-12.236Z" transform="translate(-1120.107 -2121.429)"/>
                </g>
              </g>
            </g>
            <path id="Trazado_878746" data-name="Trazado 878746" d="M1011.459,2064.817s-2.905,6.854-1.543,23.662l1.147,21.226-2.282,41.732,10.04.609,6.833-35.421a112.987,112.987,0,0,0,1.973-19.487l.492-34.715Z" transform="translate(-908.255 -1856.901)" fill="#040c2b"/>
            <path id="Trazado_878747" data-name="Trazado 878747" d="M1284.5,1855.652l-.416-1.114-4.513-12.367,3.613-.54,1.636-.245,3.344-.5,1.6,6.563.4,1.637,17.3-5.3a15.206,15.206,0,0,1,3.637-5.416.944.944,0,0,1,.531,1.441l-1.065,1.586s4.355-3.394,7.247-2.323c0,0,4,1.786,2.308,5.4,0,0-.529,3.732-8.848,4.822l-24.12,7.621a2.181,2.181,0,0,1-2.664-1.271" transform="translate(-1152.059 -1655.177)" fill="#db965f"/>
            <path id="Trazado_878748" data-name="Trazado 878748" d="M1088.415,1566.616l.041,7.555,11.225,2.049,6.521-3.329-2.821-3.659-1.559-2.022a1.883,1.883,0,0,1-.365-1.438l1.36-8.673-10.937-4.909.922,6.892.151,1.132c.33,3.671-4.54,6.4-4.54,6.4" transform="translate(-979.954 -1397.513)" fill="#c9885b"/>
            <g id="Grupo_1102165" data-name="Grupo 1102165" transform="translate(111.927 154.676)" opacity="0.15">
              <g id="Grupo_1102164" data-name="Grupo 1102164">
                <g id="Grupo_1102163" data-name="Grupo 1102163" clip-path="url(#clip-path-2)">
                  <path id="Trazado_878749" data-name="Trazado 878749" d="M1123.2,1552.189l1.032,7.811c3.834,6.893,8.686,8.507,10.468,9.231l-1.559-2.022a1.883,1.883,0,0,1-.365-1.438l1.36-8.673Z" transform="translate(-1123.204 -1552.189)"/>
                </g>
              </g>
            </g>
            <path id="Trazado_878750" data-name="Trazado 878750" d="M1107.467,1522.111l1.279,3.286a29.929,29.929,0,0,0,4.063,4.98c3.639,3.536,6.461,4.027,6.461,4.027,1.21.2,2.194-.715,2.987-2.178,2.236-4.124,2.956-12.591,2.956-12.591l-13.95-1.707Z" transform="translate(-997.107 -1366.666)" fill="#db965f"/>
            <path id="Trazado_878751" data-name="Trazado 878751" d="M1099.615,1456.115c.158,5.346,2.723,4.993,2.723,4.993l-.221-2.564-.949-1.579c-1.486-3.756,1.156-3.329,1.156-3.329,2.146.6,2.064,3.329,2.064,3.329h.743a11.521,11.521,0,0,0,.66-3.415c5.229-6.238,11.331.264,11.331.264,4.9-3.6.9-6.1.9-6.1.7-5.2-4.4-4.2-4.4-4.2s-3.4-3-5.4-1.1a4.292,4.292,0,0,0-4.2,3,3.178,3.178,0,0,0-3.7,2.3s-.078.1-.2.273a7.311,7.311,0,0,0-.87,6.613,5.816,5.816,0,0,1,.371,1.517" transform="translate(-989.322 -1298.105)"/>
            <path id="Trazado_878752" data-name="Trazado 878752" d="M1308.742,1768.514l2.295-.823,4.749-1.7,1.046-.376c-2.61-14.187-5.145-17.071-6.3-17.6a.823.823,0,0,0-.656-.079l-.672,12.242Z" transform="translate(-1178.325 -1573.716)" fill="#fff"/>
            <g id="Grupo_1102168" data-name="Grupo 1102168" transform="translate(127.262 174.866)" opacity="0.15">
              <g id="Grupo_1102167" data-name="Grupo 1102167">
                <g id="Grupo_1102166" data-name="Grupo 1102166" clip-path="url(#clip-path-3)">
                  <path id="Trazado_878753" data-name="Trazado 878753" d="M1277.085,1767.339l4.513,12.113.936-5.275-.2-7.608-.308-11.674a.84.84,0,0,0-.656-.078l-.672,11.991Z" transform="translate(-1277.084 -1754.786)"/>
                </g>
              </g>
            </g>
            <path id="Trazado_878754" data-name="Trazado 878754" d="M989.86,1705.607l.137,7.042.061,3.127.108,5.52.044,2.257.017.881.044,2.246.032,1.631-.011.728-.045,3.138-.039,2.718,34.513-1.4-.117-1.462-.252-3.138-.178-2.215-.223-2.388-.069-.739-.224-2.4-.5-5.379-.266-2.847a2.166,2.166,0,0,1-.009-.28v-.017l.253-7.76.1-3.127.2-6.076.1-3.127.058-1.77a1.027,1.027,0,0,0-.6-.975l-7.13-3.182-.286-.128-2.595-1.159c1,2.621,0,4.042-1.24,4.808a4.336,4.336,0,0,1-2.341.643,4.538,4.538,0,0,1-1.926-.453c-7.588-3.644-5.939-6.8-5.939-6.8l-2.317,1.568-.386.261-8.237,5.571-.082,1.615-.159,3.127-.309,6.076-.075,1.478-.084,1.65-.029.569c0,.056,0,.111,0,.166" transform="translate(-891.219 -1515.763)" fill="#fff"/>
            <line id="Línea_3228" data-name="Línea 3228" x2="0.005" transform="translate(119.694 217.147)" fill="#9aaaf7"/>
            <path id="Trazado_878755" data-name="Trazado 878755" d="M994.883,1777.113h33.074l.1-3.127H995.042Z" transform="translate(-895.742 -1597.207)" fill="#e3e9f7"/>
            <path id="Trazado_878756" data-name="Trazado 878756" d="M990.185,1869.469h33.241l.1-3.127H990.344l-.075,1.478Z" transform="translate(-891.512 -1680.36)" fill="#e3e9f7"/>
            <path id="Trazado_878757" data-name="Trazado 878757" d="M991.239,1975.764l.061,3.127h33.1l-.266-2.847a2.2,2.2,0,0,1-.009-.28Z" transform="translate(-892.462 -1778.878)" fill="#e3e9f7"/>
            <path id="Trazado_878758" data-name="Trazado 878758" d="M992.935,2061.263l.044,2.257.017.881,33.723-.142-.069-.739-.224-2.4Z" transform="translate(-893.989 -1855.731)" fill="#e3e9f7"/>
            <path id="Trazado_878759" data-name="Trazado 878759" d="M993.748,2142.075l34.357-.144-.252-3.138-34.059.144Z" transform="translate(-894.721 -1925.661)" fill="#e3e9f7"/>
            <g id="Grupo_1102171" data-name="Grupo 1102171" transform="translate(98.639 187.09)" opacity="0.15">
              <g id="Grupo_1102170" data-name="Grupo 1102170">
                <g id="Grupo_1102169" data-name="Grupo 1102169" clip-path="url(#clip-path-4)">
                  <path id="Trazado_878760" data-name="Trazado 878760" d="M989.848,1880.129l.445,22.786,1.453.091,3.316-25.55-5.1.37Z" transform="translate(-989.848 -1877.457)"/>
                </g>
              </g>
            </g>
            <g id="Grupo_1102174" data-name="Grupo 1102174" transform="translate(117.386 175.039)" opacity="0.15">
              <g id="Grupo_1102173" data-name="Grupo 1102173">
                <g id="Grupo_1102172" data-name="Grupo 1102172" clip-path="url(#clip-path-5)">
                  <path id="Trazado_878761" data-name="Trazado 878761" d="M1177.979,1757.532c.657-.155.766-.94.772-1a1.709,1.709,0,0,1-.772,1" transform="translate(-1177.979 -1756.533)"/>
                </g>
              </g>
            </g>
            <path id="Trazado_878762" data-name="Trazado 878762" d="M1154.98,1590.163l.5,4.005a2.481,2.481,0,0,0,.807,1.545c3.3,2.948,5.765,3.377,5.765,3.377,1.209.2,2.194-.715,2.987-2.178-5-.462-9.264-7.137-9.264-7.137Z" transform="translate(-1039.886 -1431.353)"/>
            <path id="Trazado_878763" data-name="Trazado 878763" d="M1055.916,2009.394l-7.957,5.6-1.208.851-5.974,4.206.111-2.6.329-7.707.087-2.046.042,0,9.127,1.06Z" transform="translate(-937.062 -1807.629)" fill="#1f3b5f"/>
            <path id="Trazado_878764" data-name="Trazado 878764" d="M928.425,1926.762,894.5,1957.515a3.141,3.141,0,0,1-4.436-.218l-27.194-30a3.141,3.141,0,0,1,.218-4.437l40.17-36.413a3.141,3.141,0,0,1,4.436.218l21.393,23.6-.012.294Z" transform="translate(-776.151 -1697.73)" fill="#edf4fe"/>
            <g id="Grupo_1102177" data-name="Grupo 1102177" transform="translate(104.154 188.49)" opacity="0.15">
              <g id="Grupo_1102176" data-name="Grupo 1102176">
                <g id="Grupo_1102175" data-name="Grupo 1102175" clip-path="url(#clip-path-6)">
                  <path id="Trazado_878765" data-name="Trazado 878765" d="M1076.868,1916.592l-9.509,8.62a2.937,2.937,0,0,1-4.149-.2l-18.015-19.874.087-2.046.042,0,0,0,12.775-11.58,18.975,20.933a2.937,2.937,0,0,1-.2,4.149" transform="translate(-1045.195 -1891.51)"/>
                </g>
              </g>
            </g>
            <path id="Trazado_878766" data-name="Trazado 878766" d="M1078.484,1906.03l-9.509,8.619a2.937,2.937,0,0,1-4.149-.2l-18.362-20.256,13.861-12.565,18.362,20.256a2.936,2.936,0,0,1-.2,4.149" transform="translate(-942.183 -1694.12)" fill="#4e93ee"/>
            <g id="Grupo_1102180" data-name="Grupo 1102180" transform="translate(145.559 212.829)" opacity="0.1">
              <g id="Grupo_1102179" data-name="Grupo 1102179">
                <g id="Grupo_1102178" data-name="Grupo 1102178" clip-path="url(#clip-path-7)">
                  <path id="Trazado_878767" data-name="Trazado 878767" d="M1467.414,2151.966l-6.052-6.677a2.557,2.557,0,0,1,.177-3.612l6.524-5.914Z" transform="translate(-1460.699 -2135.764)"/>
                </g>
              </g>
            </g>
            <path id="Trazado_878768" data-name="Trazado 878768" d="M1080.814,2168.268l-24.275-26.78a1.3,1.3,0,0,1,1.928-1.747l24.275,26.78a1.3,1.3,0,1,1-1.927,1.747" transform="translate(-950.951 -1926.13)" fill="#b8d4f8"/>
            <path id="Trazado_878769" data-name="Trazado 878769" d="M1032.626,2212.7l-24.275-26.78a1.3,1.3,0,0,1,1.927-1.747l24.275,26.78a1.3,1.3,0,1,1-1.927,1.747" transform="translate(-907.565 -1966.134)" fill="#b8d4f8"/>
            <path id="Trazado_878770" data-name="Trazado 878770" d="M984.437,2257.132l-24.275-26.78a1.3,1.3,0,0,1,1.928-1.747l24.275,26.78a1.3,1.3,0,1,1-1.927,1.747" transform="translate(-864.178 -2006.139)" fill="#b8d4f8"/>
            <path id="Trazado_878771" data-name="Trazado 878771" d="M1141.648,1976.992a3.02,3.02,0,0,1-2.3.919,3.514,3.514,0,0,1-2.268-1.3l-1.166-1.286,4.543-4.118,1.293,1.426a3.242,3.242,0,0,1,.979,2.26,2.916,2.916,0,0,1-1.083,2.1m-.932-.978q1.463-1.327.292-2.619l-.465-.513-2.958,2.682.375.413a1.724,1.724,0,0,0,2.756.037" transform="translate(-1022.721 -1774.772)" fill="#fff"/>
            <path id="Trazado_878772" data-name="Trazado 878772" d="M1192.538,2032.205a3.327,3.327,0,0,1-2.241,1.012,3.272,3.272,0,0,1-2.907-3.207,3.341,3.341,0,0,1,1.233-2.137,3.294,3.294,0,0,1,2.241-1.01,2.833,2.833,0,0,1,2.056,1.066,2.793,2.793,0,0,1,.849,2.148,3.336,3.336,0,0,1-1.231,2.126m-3.005-3.315a2.56,2.56,0,0,0-.885,1.328,1.364,1.364,0,0,0,.4,1.213q1.045,1.153,2.577-.236t.5-2.538a1.373,1.373,0,0,0-1.173-.516,2.55,2.55,0,0,0-1.413.749" transform="translate(-1069.058 -1824.887)" fill="#fff"/>
            <path id="Trazado_878773" data-name="Trazado 878773" d="M1237.775,2079.875a1.324,1.324,0,0,0-1.172-.472,2.564,2.564,0,0,0-1.409.734q-1.52,1.377-.486,2.518a4.868,4.868,0,0,0,1.29.942l-.808.732a4.345,4.345,0,0,1-1.365-1.038,2.571,2.571,0,0,1-.773-2.061,3.437,3.437,0,0,1,1.25-2.09,3.8,3.8,0,0,1,1.475-.867,2.515,2.515,0,0,1,1.489,0,2.958,2.958,0,0,1,1.311.875,4.127,4.127,0,0,1,.885,1.62l-1.065.4a6.927,6.927,0,0,0-.254-.7,2.061,2.061,0,0,0-.369-.588" transform="translate(-1110.164 -1871.071)" fill="#fff"/>
            <path id="Trazado_878774" data-name="Trazado 878774" d="M924.467,1867.959l7.895,3.872-3.975,11.772,12,18.559a14.4,14.4,0,0,1,6.113,2.011.911.911,0,0,1-1.177.953l-1.79-.589s4.453,3.321,4.326,6.509c0,0-.457,4.5-4.318,3.889,0,0-3.619.578-7.123-7.359l-13.937-21.5a4.928,4.928,0,0,1-.705-3.57Z" transform="translate(-829.848 -1681.816)" fill="#db965f"/>
            <path id="Trazado_878775" data-name="Trazado 878775" d="M940.5,1757.414s-5.079-.135-6.9,17.874l8.789,3.344s6.758-20.055-1.886-21.219" transform="translate(-840.563 -1582.287)" fill="#fff"/>
            <path id="Trazado_878776" data-name="Trazado 878776" d="M1650.674,1842.341V1830c0-2.665-1.857-4.826-4.147-4.826h-43.334c-2.291,0-4.147,2.161-4.147,4.826v124H1735.57v-97.754c0-4.9-3.411-8.865-7.618-8.865h-72.945c-2.393,0-4.333-2.257-4.333-5.042" transform="translate(-1439.699 -1643.292)" fill="#4e93ee"/>
            <path id="Trazado_878777" data-name="Trazado 878777" d="M1735.828,2189.966h-136.49l4.1-102.714h136.49Z" transform="translate(-1439.964 -1879.256)" fill="#d3dcef"/>
            <path id="Trazado_878778" data-name="Trazado 878778" d="M1735.828,2219.077h-136.49l8.177-99.492h136.49Z" transform="translate(-1439.964 -1908.367)" fill="#eef2fa"/>
            <path id="Trazado_878779" data-name="Trazado 878779" d="M1735.828,2250.835h-136.49l11.985-95.978h136.489Z" transform="translate(-1439.964 -1940.125)" fill="#d3dcef"/>
            <path id="Trazado_878780" data-name="Trazado 878780" d="M1735.829,2267.459H1599.339l15.309-94.137h136.489Z" transform="translate(-1439.964 -1956.749)" fill="#f4f6fc"/>
            <path id="Trazado_878781" data-name="Trazado 878781" d="M1598.589,2275.105h136.525l19.172-84.816c.969-4.284-1.808-8.475-5.615-8.475H1624.153c-2.638,0-4.944,2.069-5.615,5.038Z" transform="translate(-1439.289 -1964.395)" fill="#4e93ee"/>
            <g id="Grupo_1102183" data-name="Grupo 1102183" transform="translate(262.279 291.036)" opacity="0.15">
              <g id="Grupo_1102182" data-name="Grupo 1102182">
                <g id="Grupo_1102181" data-name="Grupo 1102181" clip-path="url(#clip-path-8)">
                  <path id="Trazado_878782" data-name="Trazado 878782" d="M2631.995,2937.285l3.471-16.712h32.62l-3.471,16.712Z" transform="translate(-2631.994 -2920.573)" fill="#1f3b5f"/>
                </g>
              </g>
            </g>
            <g id="Grupo_1102219" data-name="Grupo 1102219" transform="translate(45.692 177.572)">
              <path id="Trazado_878783" data-name="Trazado 878783" d="M7.327,1915.324l-.789,6.392-.12.971-.593,4.8L4.6,1926.274l-3.633-3.587L0,1921.735l.021-.018,4.576-4Z" transform="translate(0 -1903.401)" fill="#1f3b5f"/>
              <path id="Trazado_878784" data-name="Trazado 878784" d="M94.547,1758.044v30.3a2.079,2.079,0,0,1-2.079,2.079h-26.8a2.079,2.079,0,0,1-2.079-2.079v-35.881a2.079,2.079,0,0,1,2.079-2.079h21.08l.139.137Z" transform="translate(-58.996 -1750.388)" fill="#edf4fe"/>
              <g id="Grupo_1102186" data-name="Grupo 1102186" transform="translate(0 6.904)" opacity="0.15">
                <g id="Grupo_1102185" data-name="Grupo 1102185">
                  <g id="Grupo_1102184" data-name="Grupo 1102184" clip-path="url(#clip-path-9)">
                    <path id="Trazado_878785" data-name="Trazado 878785" d="M20.66,1847.849v8.493a1.944,1.944,0,0,1-1.944,1.944H.965L0,1857.334l.021-.018h0v-11.411h18.7a1.944,1.944,0,0,1,1.944,1.944" transform="translate(0 -1845.905)"/>
                  </g>
                </g>
              </g>
              <path id="Trazado_878786" data-name="Trazado 878786" d="M20.291,1834.421v8.493a1.944,1.944,0,0,1-1.944,1.944H.253v-12.382H18.347a1.943,1.943,0,0,1,1.944,1.944" transform="translate(-0.235 -1826.543)" fill="#4e93ee"/>
              <g id="Grupo_1102189" data-name="Grupo 1102189" transform="translate(27.895 0.137)" opacity="0.1">
                <g id="Grupo_1102188" data-name="Grupo 1102188">
                  <g id="Grupo_1102187" data-name="Grupo 1102187" clip-path="url(#clip-path-10)">
                    <path id="Trazado_878787" data-name="Trazado 878787" d="M393.52,1759.8h-5.964a1.692,1.692,0,0,1-1.692-1.692v-5.827Z" transform="translate(-385.864 -1752.279)"/>
                  </g>
                </g>
              </g>
              <path id="Trazado_878788" data-name="Trazado 878788" d="M124.858,2066.781H100.938a.861.861,0,1,1,0-1.722h23.921a.861.861,0,1,1,0,1.722" transform="translate(-92.842 -2042.311)" fill="#b8d4f8"/>
              <path id="Trazado_878789" data-name="Trazado 878789" d="M125.364,2126.573H101.444a.861.861,0,1,1,0-1.721h23.921a.861.861,0,1,1,0,1.721" transform="translate(-93.312 -2097.781)" fill="#b8d4f8"/>
              <path id="Trazado_878790" data-name="Trazado 878790" d="M125.871,2186.365H101.951a.861.861,0,1,1,0-1.722h23.921a.861.861,0,1,1,0,1.722" transform="translate(-93.782 -2153.25)" fill="#b8d4f8"/>
              <path id="Trazado_878791" data-name="Trazado 878791" d="M70.62,1894.1h-.86v-3.342h-1.1v-.716h3.064v.716h-1.1Z" transform="translate(-63.694 -1879.95)" fill="#fff"/>
              <path id="Trazado_878792" data-name="Trazado 878792" d="M116.409,1894.1h-.983l-.944-1.535-.944,1.535h-.921l1.346-2.093-1.26-1.965h.949l.874,1.46.858-1.46h.927l-1.274,2.012Z" transform="translate(-104.476 -1879.95)" fill="#fff"/>
              <path id="Trazado_878793" data-name="Trazado 878793" d="M168.6,1894.1h-.86v-3.342h-1.1v-.716H169.7v.716h-1.1Z" transform="translate(-154.59 -1879.95)" fill="#fff"/>
            </g>
            <g id="Grupo_1102221" data-name="Grupo 1102221" transform="translate(174.666 83.304)">
              <path id="Trazado_878794" data-name="Trazado 878794" d="M1477.689,854.534l-.79,6.392-.12.971-.593,4.8-1.227-1.212-3.633-3.587-.965-.953.021-.018,4.577-4Z" transform="translate(-1470.362 -842.609)" fill="#1f3b5f"/>
              <path id="Trazado_878795" data-name="Trazado 878795" d="M1564.909,697.253v30.3a2.079,2.079,0,0,1-2.079,2.078h-26.8a2.079,2.079,0,0,1-2.079-2.078V691.675a2.079,2.079,0,0,1,2.079-2.078h21.08l.139.137Z" transform="translate(-1529.357 -689.597)" fill="#edf4fe"/>
              <g id="Grupo_1102192" data-name="Grupo 1102192" transform="translate(0 6.905)" opacity="0.15">
                <g id="Grupo_1102191" data-name="Grupo 1102191">
                  <g id="Grupo_1102190" data-name="Grupo 1102190" clip-path="url(#clip-path-11)">
                    <path id="Trazado_878796" data-name="Trazado 878796" d="M1491.022,787.057v8.493a1.944,1.944,0,0,1-1.944,1.944h-17.752l-.964-.952.021-.018h0V785.113h18.7a1.944,1.944,0,0,1,1.944,1.944" transform="translate(-1470.362 -785.113)"/>
                  </g>
                </g>
              </g>
              <path id="Trazado_878797" data-name="Trazado 878797" d="M1490.654,773.63v8.493a1.944,1.944,0,0,1-1.944,1.944h-18.094V771.686h18.094a1.943,1.943,0,0,1,1.944,1.944" transform="translate(-1470.597 -765.751)" fill="#4e93ee"/>
              <g id="Grupo_1102195" data-name="Grupo 1102195" transform="translate(27.896 0.137)" opacity="0.1">
                <g id="Grupo_1102194" data-name="Grupo 1102194">
                  <g id="Grupo_1102193" data-name="Grupo 1102193" clip-path="url(#clip-path-10)">
                    <path id="Trazado_878798" data-name="Trazado 878798" d="M1863.882,699.007h-5.964a1.692,1.692,0,0,1-1.692-1.692v-5.827Z" transform="translate(-1856.226 -691.488)"/>
                  </g>
                </g>
              </g>
              <g id="Grupo_1102225" data-name="Grupo 1102225">
                <path id="Trazado_878799" data-name="Trazado 878799" d="M1595.22,1005.99H1571.3a.861.861,0,0,1,0-1.722h23.921a.861.861,0,1,1,0,1.722" transform="translate(-1563.204 -981.519)" fill="#b8d4f8"/>
                <path id="Trazado_878800" data-name="Trazado 878800" d="M1595.727,1065.783h-23.921a.861.861,0,1,1,0-1.722h23.921a.861.861,0,0,1,0,1.722" transform="translate(-1563.674 -1036.99)" fill="#b8d4f8"/>
                <path id="Trazado_878801" data-name="Trazado 878801" d="M1596.233,1125.575h-23.921a.861.861,0,1,1,0-1.722h23.921a.861.861,0,0,1,0,1.722" transform="translate(-1564.144 -1092.46)" fill="#b8d4f8"/>
              </g>
              <path id="Trazado_878802" data-name="Trazado 878802" d="M1544.462,833.332h-.983l-.944-1.535-.944,1.535h-.921l1.346-2.093-1.26-1.965h.949l.874,1.46.858-1.46h.927l-1.274,2.012Z" transform="translate(-1535.588 -819.176)" fill="#fff"/>
              <path id="Trazado_878803" data-name="Trazado 878803" d="M1600.18,833.332v-4.058h.86v3.347h1.646v.711Z" transform="translate(-1590.795 -819.176)" fill="#fff"/>
              <path id="Trazado_878804" data-name="Trazado 878804" d="M1643.79,831.458a1.049,1.049,0,0,1-.4.866,1.719,1.719,0,0,1-1.1.316,2.584,2.584,0,0,1-1.149-.244v-.8a4.732,4.732,0,0,0,.7.258,2.059,2.059,0,0,0,.521.075.74.74,0,0,0,.434-.108.371.371,0,0,0,.151-.322.356.356,0,0,0-.067-.212.745.745,0,0,0-.2-.179,5.062,5.062,0,0,0-.526-.275,2.489,2.489,0,0,1-.558-.336,1.263,1.263,0,0,1-.3-.375,1.071,1.071,0,0,1-.111-.5,1.049,1.049,0,0,1,.365-.847,1.517,1.517,0,0,1,1.009-.308,2.381,2.381,0,0,1,.6.075,4.163,4.163,0,0,1,.6.211l-.278.669a4.049,4.049,0,0,0-.537-.186,1.738,1.738,0,0,0-.418-.053.554.554,0,0,0-.375.114.376.376,0,0,0-.13.3.368.368,0,0,0,.053.2.577.577,0,0,0,.168.164,5.2,5.2,0,0,0,.545.285,2.171,2.171,0,0,1,.78.545,1.066,1.066,0,0,1,.211.67" transform="translate(-1628.798 -818.429)" fill="#fff"/>
            </g>
            <g id="Grupo_1102222" data-name="Grupo 1102222" transform="translate(72.909 87.194)">
              <path id="Trazado_878805" data-name="Trazado 878805" d="M2318.12,164.936l-.79,6.392-.12.971-.593,4.8-1.227-1.212-3.633-3.587-.965-.952.021-.018,4.577-4Z" transform="translate(-2310.793 -153.012)" fill="#1f3b5f"/>
              <path id="Trazado_878806" data-name="Trazado 878806" d="M2405.34,7.656v30.3a2.079,2.079,0,0,1-2.079,2.079h-26.8a2.078,2.078,0,0,1-2.079-2.079V2.079A2.078,2.078,0,0,1,2376.465,0h21.08l.139.137Z" transform="translate(-2369.788)" fill="#edf4fe"/>
              <g id="Grupo_1102198" data-name="Grupo 1102198" transform="translate(0 6.905)" opacity="0.15">
                <g id="Grupo_1102197" data-name="Grupo 1102197">
                  <g id="Grupo_1102196" data-name="Grupo 1102196" clip-path="url(#clip-path-11)">
                    <path id="Trazado_878807" data-name="Trazado 878807" d="M2331.453,97.46v8.494a1.944,1.944,0,0,1-1.944,1.944h-17.752l-.964-.952.021-.018h0V95.516h18.7a1.944,1.944,0,0,1,1.944,1.944" transform="translate(-2310.793 -95.516)"/>
                  </g>
                </g>
              </g>
              <path id="Trazado_878808" data-name="Trazado 878808" d="M2331.083,84.032v8.494a1.944,1.944,0,0,1-1.944,1.944h-18.094V82.088h18.094a1.942,1.942,0,0,1,1.944,1.944" transform="translate(-2311.028 -76.154)" fill="#4e93ee"/>
              <g id="Grupo_1102201" data-name="Grupo 1102201" transform="translate(27.896 0.136)" opacity="0.1">
                <g id="Grupo_1102200" data-name="Grupo 1102200">
                  <g id="Grupo_1102199" data-name="Grupo 1102199" clip-path="url(#clip-path-10)">
                    <path id="Trazado_878809" data-name="Trazado 878809" d="M2704.313,9.409h-5.964a1.692,1.692,0,0,1-1.692-1.692V1.89Z" transform="translate(-2696.657 -1.89)"/>
                  </g>
                </g>
              </g>
              <path id="Trazado_878810" data-name="Trazado 878810" d="M2435.65,316.392h-23.92a.861.861,0,1,1,0-1.722h23.92a.861.861,0,1,1,0,1.722" transform="translate(-2403.634 -291.922)" fill="#b8d4f8"/>
              <path id="Trazado_878811" data-name="Trazado 878811" d="M2436.157,376.185h-23.92a.861.861,0,0,1,0-1.722h23.92a.861.861,0,0,1,0,1.722" transform="translate(-2404.104 -347.393)" fill="#b8d4f8"/>
              <path id="Trazado_878812" data-name="Trazado 878812" d="M2436.665,435.978h-23.92a.861.861,0,1,1,0-1.722h23.92a.861.861,0,1,1,0,1.722" transform="translate(-2404.575 -402.863)" fill="#b8d4f8"/>
              <path id="Trazado_878813" data-name="Trazado 878813" d="M2384.614,140.923a1.241,1.241,0,0,1-.409,1,1.752,1.752,0,0,1-1.165.347h-.369v1.443h-.86v-4.058h1.3a1.724,1.724,0,0,1,1.123.318,1.159,1.159,0,0,1,.385.948m-1.943.644h.283a.944.944,0,0,0,.594-.157.549.549,0,0,0,.2-.457.563.563,0,0,0-.165-.447.773.773,0,0,0-.518-.144h-.391Z" transform="translate(-2376.677 -129.561)" fill="#fff"/>
              <path id="Trazado_878814" data-name="Trazado 878814" d="M2433.988,140.923a1.241,1.241,0,0,1-.409,1,1.753,1.753,0,0,1-1.165.347h-.369v1.443h-.86v-4.058h1.3a1.725,1.725,0,0,1,1.123.318,1.159,1.159,0,0,1,.384.948m-1.943.644h.283a.943.943,0,0,0,.594-.157.549.549,0,0,0,.2-.457.564.564,0,0,0-.165-.447.774.774,0,0,0-.518-.144h-.391Z" transform="translate(-2422.481 -129.561)" fill="#fff"/>
              <path id="Trazado_878815" data-name="Trazado 878815" d="M2477.031,143.715h-.861v-3.342h-1.1v-.716h3.064v.716h-1.1Z" transform="translate(-2463.192 -129.561)" fill="#fff"/>
            </g>
            <g id="Grupo_1102223" data-name="Grupo 1102223" transform="translate(227.608 119.475)">
              <path id="Trazado_878816" data-name="Trazado 878816" d="M2513.609,1429.132l-.789,6.392-.12.971-.593,4.8-1.227-1.212-3.633-3.587-.964-.953.021-.018,4.576-4Z" transform="translate(-2506.283 -1417.208)" fill="#1f3b5f"/>
              <path id="Trazado_878817" data-name="Trazado 878817" d="M2600.829,1271.852v30.3a2.079,2.079,0,0,1-2.079,2.078h-26.8a2.079,2.079,0,0,1-2.079-2.078v-35.881a2.079,2.079,0,0,1,2.079-2.079h21.08l.139.137Z" transform="translate(-2565.278 -1264.196)" fill="#edf4fe"/>
              <g id="Grupo_1102204" data-name="Grupo 1102204" transform="translate(0 6.905)" opacity="0.15">
                <g id="Grupo_1102203" data-name="Grupo 1102203">
                  <g id="Grupo_1102202" data-name="Grupo 1102202" clip-path="url(#clip-path-11)">
                    <path id="Trazado_878818" data-name="Trazado 878818" d="M2526.942,1361.657v8.493a1.944,1.944,0,0,1-1.944,1.944h-17.752l-.965-.952.021-.018h0v-11.411H2525a1.944,1.944,0,0,1,1.944,1.944" transform="translate(-2506.282 -1359.713)"/>
                  </g>
                </g>
              </g>
              <path id="Trazado_878819" data-name="Trazado 878819" d="M2526.573,1348.229v8.493a1.944,1.944,0,0,1-1.944,1.944h-18.094v-12.381h18.094a1.943,1.943,0,0,1,1.944,1.944" transform="translate(-2506.518 -1340.35)" fill="#4e93ee"/>
              <g id="Grupo_1102207" data-name="Grupo 1102207" transform="translate(27.895 0.137)" opacity="0.1">
                <g id="Grupo_1102206" data-name="Grupo 1102206">
                  <g id="Grupo_1102205" data-name="Grupo 1102205" clip-path="url(#clip-path-10)">
                    <path id="Trazado_878820" data-name="Trazado 878820" d="M2899.8,1273.605h-5.964a1.692,1.692,0,0,1-1.692-1.692v-5.827Z" transform="translate(-2892.146 -1266.086)"/>
                  </g>
                </g>
              </g>
              <g id="Grupo_1102226" data-name="Grupo 1102226">
                <path id="Trazado_878821" data-name="Trazado 878821" d="M2631.14,1580.588h-23.921a.861.861,0,0,1,0-1.722h23.921a.861.861,0,1,1,0,1.722" transform="translate(-2599.124 -1556.117)" fill="#b8d4f8"/>
                <path id="Trazado_878822" data-name="Trazado 878822" d="M2631.647,1640.381h-23.921a.861.861,0,0,1,0-1.722h23.921a.861.861,0,0,1,0,1.722" transform="translate(-2599.594 -1611.588)" fill="#b8d4f8"/>
                <path id="Trazado_878823" data-name="Trazado 878823" d="M2632.155,1700.173h-23.92a.861.861,0,1,1,0-1.722h23.92a.861.861,0,0,1,0,1.722" transform="translate(-2600.064 -1667.058)" fill="#b8d4f8"/>
              </g>
              <path id="Trazado_878824" data-name="Trazado 878824" d="M2578.05,1405.12a1.24,1.24,0,0,1-.409,1,1.752,1.752,0,0,1-1.165.347h-.369v1.443h-.86v-4.058h1.3a1.723,1.723,0,0,1,1.123.318,1.159,1.159,0,0,1,.384.948m-1.943.644h.283a.942.942,0,0,0,.594-.157.55.55,0,0,0,.2-.457.563.563,0,0,0-.165-.447.774.774,0,0,0-.518-.144h-.391Z" transform="translate(-2570.261 -1393.757)" fill="#fff"/>
              <path id="Trazado_878825" data-name="Trazado 878825" d="M2627.988,1405.844a2,2,0,0,1-.571,1.535,2.326,2.326,0,0,1-1.647.533h-1.149v-4.058h1.274a2.146,2.146,0,0,1,1.543.524,1.931,1.931,0,0,1,.55,1.466m-.894.022q0-1.307-1.155-1.307h-.458v2.642h.369q1.244,0,1.244-1.335" transform="translate(-2616.066 -1393.757)" fill="#fff"/>
              <path id="Trazado_878826" data-name="Trazado 878826" d="M2683.671,1407.911h-.847v-4.058h2.326v.7h-1.479v1.046h1.376v.7h-1.376Z" transform="translate(-2670.062 -1393.757)" fill="#fff"/>
            </g>
            <g id="Grupo_1102224" data-name="Grupo 1102224" transform="translate(279.667 140.139)">
              <path id="Trazado_878827" data-name="Trazado 878827" d="M3576.417,1196.011l-.789,6.392-.12.971-.593,4.8-1.227-1.212-3.633-3.587-.965-.953.021-.018,4.577-4Z" transform="translate(-3569.091 -1184.087)" fill="#1f3b5f"/>
              <path id="Trazado_878828" data-name="Trazado 878828" d="M3663.637,1038.731v30.3a2.079,2.079,0,0,1-2.079,2.078h-26.8a2.078,2.078,0,0,1-2.078-2.078v-35.881a2.078,2.078,0,0,1,2.078-2.079h21.08l.139.137Z" transform="translate(-3628.086 -1031.075)" fill="#edf4fe"/>
              <g id="Grupo_1102210" data-name="Grupo 1102210" transform="translate(0 6.905)" opacity="0.15">
                <g id="Grupo_1102209" data-name="Grupo 1102209">
                  <g id="Grupo_1102208" data-name="Grupo 1102208" clip-path="url(#clip-path-11)">
                    <path id="Trazado_878829" data-name="Trazado 878829" d="M3589.75,1128.535v8.493a1.944,1.944,0,0,1-1.944,1.944h-17.752l-.965-.952.021-.018h0v-11.411h18.7a1.944,1.944,0,0,1,1.944,1.944" transform="translate(-3569.09 -1126.591)"/>
                  </g>
                </g>
              </g>
              <path id="Trazado_878830" data-name="Trazado 878830" d="M3589.381,1115.107v8.494a1.944,1.944,0,0,1-1.944,1.944h-18.094v-12.382h18.094a1.942,1.942,0,0,1,1.944,1.944" transform="translate(-3569.325 -1107.229)" fill="#4e93ee"/>
              <g id="Grupo_1102213" data-name="Grupo 1102213" transform="translate(27.895 0.137)" opacity="0.1">
                <g id="Grupo_1102212" data-name="Grupo 1102212">
                  <g id="Grupo_1102211" data-name="Grupo 1102211" clip-path="url(#clip-path-18)">
                    <path id="Trazado_878831" data-name="Trazado 878831" d="M3962.61,1040.484h-5.964a1.692,1.692,0,0,1-1.692-1.692v-5.827Z" transform="translate(-3954.954 -1032.965)"/>
                  </g>
                </g>
              </g>
              <g id="Grupo_1102227" data-name="Grupo 1102227">
                <path id="Trazado_878832" data-name="Trazado 878832" d="M3693.948,1347.467h-23.921a.861.861,0,0,1,0-1.722h23.921a.861.861,0,1,1,0,1.722" transform="translate(-3661.932 -1322.996)" fill="#b8d4f8"/>
                <path id="Trazado_878833" data-name="Trazado 878833" d="M3694.455,1407.26h-23.921a.861.861,0,0,1,0-1.722h23.921a.861.861,0,0,1,0,1.722" transform="translate(-3662.402 -1378.467)" fill="#b8d4f8"/>
                <path id="Trazado_878834" data-name="Trazado 878834" d="M3694.961,1467.052h-23.92a.861.861,0,1,1,0-1.722h23.92a.861.861,0,1,1,0,1.722" transform="translate(-3662.871 -1433.937)" fill="#b8d4f8"/>
              </g>
              <path id="Trazado_878835" data-name="Trazado 878835" d="M3603.163,1172.78a2,2,0,0,1-.57,1.535,2.328,2.328,0,0,1-1.648.533H3599.8v-4.058h1.274a2.145,2.145,0,0,1,1.543.525,1.93,1.93,0,0,1,.55,1.465m-.894.022q0-1.307-1.155-1.307h-.458v2.642h.369q1.244,0,1.244-1.335" transform="translate(-3597.576 -1160.69)" fill="#fff"/>
              <path id="Trazado_878836" data-name="Trazado 878836" d="M3659.368,1171.994a2.2,2.2,0,0,1-.5,1.549,2.165,2.165,0,0,1-2.865,0,2.211,2.211,0,0,1-.5-1.554,2.182,2.182,0,0,1,.5-1.547,1.874,1.874,0,0,1,1.437-.534,1.848,1.848,0,0,1,1.431.539,2.208,2.208,0,0,1,.5,1.549m-2.962,0a1.7,1.7,0,0,0,.258,1.024.9.9,0,0,0,.771.344q1.03,0,1.03-1.368t-1.024-1.371a.909.909,0,0,0-.774.346,1.686,1.686,0,0,0-.261,1.025" transform="translate(-3649.257 -1159.87)" fill="#fff"/>
              <path id="Trazado_878837" data-name="Trazado 878837" d="M3719.989,1170.7a.878.878,0,0,0-.753.365,1.7,1.7,0,0,0-.266,1.017q0,1.357,1.019,1.357a3.217,3.217,0,0,0,1.035-.214v.722a2.872,2.872,0,0,1-1.116.208,1.7,1.7,0,0,1-1.355-.537,2.277,2.277,0,0,1-.469-1.542,2.517,2.517,0,0,1,.23-1.109,1.668,1.668,0,0,1,.662-.73,1.959,1.959,0,0,1,1.012-.254,2.726,2.726,0,0,1,1.187.286l-.277.7a4.684,4.684,0,0,0-.458-.189,1.367,1.367,0,0,0-.452-.08" transform="translate(-3707.314 -1159.941)" fill="#fff"/>
              <path id="Trazado_878838" data-name="Trazado 878838" d="M3767.412,1174.848h-.982l-.944-1.535-.944,1.535h-.921l1.346-2.093-1.26-1.965h.949l.874,1.46.858-1.46h.927l-1.274,2.012Z" transform="translate(-3749.557 -1160.69)" fill="#fff"/>
            </g>
          </g>
        </g>
      </g>
    </g>
  </g>
</svg>
