<svg xmlns="http://www.w3.org/2000/svg" xmlns:xlink="http://www.w3.org/1999/xlink" width="400" height="363.673" viewBox="0 0 400 363.673">
  <defs>
    <clipPath id="clip-path">
      <rect id="Rect치ngulo_403553" data-name="Rect치ngulo 403553" width="400" height="363.673" rx="20" transform="translate(0 0)" fill="#cce9b7"/>
    </clipPath>
  </defs>
  <g id="Grupo_1102490" data-name="Grupo 1102490" transform="translate(-600 -2790.18)">
    <rect id="Rect치ngulo_400793" data-name="Rect치ngulo 400793" width="400" height="362.673" rx="20" transform="translate(600 2790.18)" fill="#b8d4f8"/>
    <g id="Enmascarar_grupo_1098833" data-name="Enmascarar grupo 1098833" transform="translate(600 2790.18)" opacity="0.44" clip-path="url(#clip-path)">
      <g id="Grupo_1102427" data-name="Grupo 1102427" transform="translate(-155.917 -37.001)">
        <path id="Trazado_879350" data-name="Trazado 879350" d="M475.065,586.556l-.79.065-.075-.91.79-.065Zm-.4-4.86-.79.065-.131-1.58.79-.066Zm-.458-5.53-.79.066-.131-1.58.79-.066Zm-.458-5.53-.79.066-.131-1.58.79-.066Zm-.459-5.53-.79.066-.131-1.58.79-.066Zm-.458-5.53-.79.066-.131-1.58.79-.065Zm-.458-5.53-.79.065-.131-1.58.79-.065Zm-.459-5.53-.79.065-.131-1.58.79-.066Zm-.458-5.53-.79.066-.131-1.58.79-.065Zm-.458-5.53-.79.065-.131-1.58.79-.065Zm-.458-5.53-.79.066-.131-1.58.79-.066Zm-.458-5.53-.79.065-.131-1.58.79-.066Zm-.458-5.53-.79.065-.131-1.58.79-.065Zm-.458-5.53-.79.066-.131-1.58.79-.066Zm-.458-5.53-.79.065-.131-1.58.79-.065Zm-.458-5.53-.79.066-.131-1.58.79-.065Zm-.458-5.53-.79.065-.131-1.58.79-.065Zm-.458-5.53-.79.065-.131-1.58.79-.065Zm-.458-5.53-.79.065-.131-1.58.79-.065Zm-.458-5.53-.79.065-.131-1.58.79-.065Zm-.458-5.53-.79.065-.131-1.58.79-.066Zm-.458-5.53-.79.066-.131-1.58.79-.065Zm-.458-5.53-.79.066-.131-1.58.79-.065Zm-.458-5.53-.79.065-.131-1.58.79-.065Zm-.458-5.53-.79.066-.131-1.58.79-.065Zm-.458-5.53-.79.065-.131-1.58.79-.066Zm-.458-5.53-.79.066-.131-1.58.79-.066Zm-.458-5.53-.79.065-.131-1.58.79-.065Zm-.458-5.53-.79.065-.131-1.58.79-.066Zm-.458-5.53-.79.066-.131-1.58.79-.065Zm-.458-5.53-.79.066-.131-1.58.79-.065Zm-.458-5.53-.79.065-.131-1.58.79-.065Zm-.458-5.53-.79.066-.131-1.58.79-.066Zm-.458-5.53-.79.065-.131-1.58.79-.065Zm-.458-5.53-.79.065-.131-1.58.79-.066Zm-.458-5.53-.79.066-.131-1.58.79-.066Zm-.458-5.53-.79.066-.131-1.58.79-.066Zm-.458-5.53-.79.066-.131-1.58.79-.066Zm-.458-5.53-.79.066-.131-1.58.79-.065Zm-.458-5.53-.79.065-.131-1.58.79-.066Zm-.458-5.53-.79.066-.131-1.58.79-.066Zm-.458-5.53-.79.066-.131-1.58.79-.065Zm-.458-5.53-.79.065-.131-1.58.79-.066Zm-.458-5.53-.79.066-.131-1.58.79-.066Zm-.458-5.53-.79.066-.131-1.58.79-.065Zm-.458-5.53-.79.065-.131-1.58.79-.066Zm-.458-5.53-.79.066-.131-1.58.79-.065Zm-.458-5.53-.79.066-.131-1.58.79-.066Zm-.458-5.53-.79.066-.131-1.58.79-.066Zm-.458-5.53-.79.066-.131-1.58.79-.065Zm-.458-5.53-.79.065-.131-1.58.79-.066Zm-.458-5.53-.79.066-.131-1.58.79-.066Zm-.458-5.53-.79.066-.131-1.58.79-.065Zm-.458-5.53-.79.065-.131-1.58.79-.066Zm-.458-5.53-.79.066-.131-1.58.79-.066Zm-.458-5.53-.79.065-.131-1.58.79-.066Zm-.458-5.53-.79.065-.131-1.58.79-.066Zm-.458-5.53-.79.066-.131-1.58.79-.065Zm-.458-5.53-.79.066-.131-1.58.79-.066Zm-.458-5.53-.79.066-.131-1.58.79-.066Zm-.458-5.53-.79.065-.131-1.58.79-.065Zm-.458-5.53-.79.065-.131-1.58.79-.066Zm-.458-5.53-.79.066-.131-1.58.79-.066Zm-.458-5.53-.79.066-.131-1.58.79-.065Zm-.458-5.53-.79.065-.131-1.58.79-.066Zm-.458-5.53-.79.066-.131-1.58.79-.066Zm-.458-5.53-.79.066-.131-1.58.79-.066Zm-.458-5.53-.79.065-.131-1.58.79-.066Zm-.458-5.53-.79.066-.131-1.58.79-.065Zm-.458-5.53-.79.065-.131-1.58.79-.066Zm-.458-5.53-.79.066-.131-1.58.79-.066Zm-.458-5.53-.79.066-.131-1.58.79-.065Zm-.458-5.53-.79.065-.131-1.58.79-.066Zm-.458-5.53-.79.066-.131-1.58.79-.066ZM441.2,178l-.79.066-.131-1.58.79-.065Z" transform="translate(-304.397 -133.429)" fill="#4e93ee"/>
        <path id="Trazado_879351" data-name="Trazado 879351" d="M779.156,561.353l-.79.065-.075-.91.79-.065Zm-.4-4.86-.79.065-.131-1.58.79-.066Zm-.458-5.53-.79.066-.131-1.58.79-.066Zm-.458-5.53-.79.066-.131-1.58.79-.065Zm-.458-5.53-.79.065-.131-1.58.79-.065Zm-.458-5.53-.79.066-.131-1.58.79-.065Zm-.458-5.53-.79.065-.131-1.58.79-.066Zm-.458-5.53-.79.066-.131-1.58.79-.066Zm-.458-5.53-.79.066-.131-1.58.79-.065Zm-.458-5.53-.79.065-.131-1.58.79-.065Zm-.458-5.53-.79.065-.131-1.58.79-.066Zm-.458-5.53-.79.066-.131-1.58.79-.066Zm-.458-5.53-.79.065-.131-1.58.79-.066Zm-.458-5.53-.79.065-.131-1.58.79-.066Zm-.459-5.53-.79.066-.131-1.58.79-.066Zm-.458-5.53-.79.065-.131-1.58.79-.065Zm-.458-5.53-.79.066-.131-1.58.79-.065Zm-.458-5.53-.79.065-.131-1.58.79-.066Zm-.458-5.53-.79.066-.131-1.58.79-.065Zm-.458-5.53-.79.066-.131-1.58.79-.065Zm-.458-5.53-.79.065-.131-1.58.79-.066Zm-.458-5.53-.79.066-.131-1.58.79-.065Zm-.458-5.53-.79.066-.131-1.58.79-.065Zm-.458-5.53-.79.065-.131-1.58.79-.066Zm-.458-5.53-.79.066-.131-1.58.79-.065Zm-.458-5.53-.79.066-.131-1.58.79-.066Zm-.458-5.53-.79.066-.131-1.58.79-.066Zm-.458-5.53-.79.066-.131-1.58.79-.065Zm-.458-5.53-.79.065-.131-1.58.79-.066Zm-.458-5.53-.79.065-.131-1.58.79-.066Zm-.458-5.53-.79.066-.131-1.58.79-.065Zm-.458-5.53-.79.065-.131-1.58.79-.066Zm-.458-5.53-.79.066-.131-1.58.79-.066Zm-.458-5.53-.79.066-.131-1.58.79-.065Zm-.458-5.53-.79.065-.131-1.58.79-.066Zm-.458-5.53-.79.065-.131-1.58.79-.065Zm-.458-5.53-.79.065-.131-1.58.79-.066Zm-.458-5.53-.79.066-.131-1.58.79-.066Zm-.458-5.53-.79.066-.131-1.58.79-.065Zm-.458-5.53-.79.065-.131-1.58.79-.066Zm-.458-5.53-.79.066-.131-1.58.79-.066Zm-.458-5.53-.79.066-.131-1.58.79-.065Zm-.458-5.53-.79.065-.131-1.58.79-.066Zm-.458-5.53-.79.066-.131-1.58.79-.066Zm-.458-5.53-.79.066-.131-1.58.79-.066Zm-.458-5.53-.79.065-.131-1.58.79-.066Zm-.458-5.53-.79.066-.131-1.58.79-.066Zm-.458-5.53-.79.065-.131-1.58.79-.066Zm-.458-5.53-.79.066-.131-1.58.79-.066Zm-.458-5.53-.79.066-.131-1.58.79-.065Zm-.458-5.53-.79.065-.131-1.58.79-.066Zm-.458-5.53-.79.066-.131-1.58.79-.065Zm-.458-5.53-.79.066-.131-1.58.79-.065Zm-.458-5.53-.79.065-.131-1.58.79-.066Zm-.458-5.53-.79.066-.131-1.58.79-.065Zm-.458-5.53-.79.066-.131-1.58.79-.066Zm-.458-5.53-.79.065-.131-1.58.79-.066Zm-.458-5.53-.79.066-.131-1.58.79-.065Zm-.458-5.53-.79.065-.131-1.58.79-.066Zm-.458-5.53-.79.066-.131-1.58.79-.066Zm-.458-5.53-.79.066-.131-1.58.79-.065Zm-.458-5.53-.79.065-.131-1.58.79-.066Zm-.458-5.53-.79.066-.131-1.58.79-.066Zm-.458-5.53-.79.066-.131-1.58.79-.065Zm-.458-5.53-.79.065-.131-1.58.79-.066Zm-.458-5.53-.79.066-.131-1.58.79-.066Zm-.458-5.53-.79.066-.131-1.58.79-.066Zm-.458-5.53-.79.066-.131-1.58.79-.066Zm-.458-5.53-.79.066-.131-1.58.79-.065Zm-.458-5.53-.79.065-.131-1.58.79-.066Zm-.458-5.53-.79.066-.131-1.58.79-.066Zm-.458-5.53-.79.066-.131-1.58.79-.065Zm-.458-5.53-.79.065-.131-1.58.79-.066Zm-.458-5.53-.79.066-.131-1.58.79-.066Zm-.458-5.53-.79.066-.131-1.58.79-.065Z" transform="translate(-514.635 -114.367)" fill="#4e93ee"/>
        <path id="Trazado_879352" data-name="Trazado 879352" d="M1083.24,536.15l-.79.065-.075-.91.79-.065Zm-.4-4.86-.79.065-.131-1.58.79-.065Zm-.458-5.53-.79.065-.131-1.58.79-.065Zm-.458-5.53-.79.066-.131-1.58.79-.065Zm-.458-5.53-.79.065-.131-1.58.79-.066Zm-.458-5.53-.79.066-.131-1.58.79-.065Zm-.458-5.53-.79.065-.131-1.58.79-.066Zm-.458-5.53-.79.066-.131-1.58.79-.066Zm-.458-5.53-.79.066-.131-1.58.79-.065Zm-.458-5.53-.79.065-.131-1.58.79-.066Zm-.458-5.53-.79.066-.131-1.58.79-.066Zm-.458-5.53-.79.066-.131-1.58.79-.065Zm-.458-5.53-.79.065-.131-1.58.79-.066Zm-.459-5.53-.79.066-.131-1.58.79-.066Zm-.458-5.53-.79.066-.131-1.58.79-.066Zm-.458-5.53-.79.065-.131-1.58.79-.066Zm-.458-5.53-.79.066-.131-1.58.79-.065Zm-.458-5.53-.79.065-.131-1.58.79-.066Zm-.458-5.53-.79.066-.131-1.58.79-.066Zm-.459-5.53-.79.066-.131-1.58.79-.065Zm-.458-5.53-.79.065-.131-1.58.79-.066Zm-.458-5.53-.79.066-.131-1.58.79-.065Zm-.458-5.53-.79.066-.131-1.58.79-.065Zm-.458-5.53-.79.065-.131-1.58.79-.066Zm-.458-5.53-.79.066-.131-1.58.79-.065Zm-.458-5.53-.79.066-.131-1.58.79-.065Zm-.458-5.53-.79.066-.131-1.58.79-.066Zm-.458-5.53-.79.065-.131-1.58.79-.066Zm-.458-5.53-.79.065-.131-1.58.79-.066Zm-.458-5.53-.79.065-.131-1.58.79-.066Zm-.458-5.53-.79.065-.131-1.58.79-.065Zm-.458-5.53-.79.065-.131-1.58.79-.066Zm-.458-5.53-.79.066-.131-1.58.79-.066Zm-.458-5.53-.79.066-.131-1.58.79-.065Zm-.458-5.53-.79.065-.131-1.58.79-.066Zm-.458-5.53-.79.066-.131-1.58.79-.065Zm-.458-5.53-.79.066-.131-1.58.79-.066Zm-.458-5.53-.79.066-.131-1.58.79-.066Zm-.458-5.53-.79.066-.131-1.58.79-.065Zm-.458-5.53-.79.065-.131-1.58.79-.066Zm-.458-5.53-.79.066-.131-1.58.79-.066Zm-.458-5.53-.79.066-.131-1.58.79-.065Zm-.458-5.53-.79.065-.131-1.58.79-.066Zm-.458-5.53-.79.066-.131-1.58.79-.066Zm-.458-5.53-.79.066-.131-1.58.79-.065Zm-.458-5.53-.79.065-.131-1.58.79-.066Zm-.458-5.53-.79.066-.131-1.58.79-.066Zm-.458-5.53-.79.066-.131-1.58.79-.065Zm-.458-5.53-.79.066-.131-1.58.79-.066Zm-.458-5.53-.79.066-.131-1.58.79-.065Zm-.458-5.53-.79.066-.131-1.58.79-.065Zm-.458-5.53-.79.066-.131-1.58.79-.066Zm-.458-5.53-.79.066-.131-1.58.79-.065Zm-.458-5.53-.79.065-.131-1.58.79-.066Zm-.458-5.53-.79.066-.131-1.58.79-.066Zm-.458-5.53-.79.066-.131-1.58.79-.066Zm-.458-5.53-.79.065-.131-1.58.79-.066Zm-.458-5.53-.79.066-.131-1.58.79-.065Zm-.458-5.53-.79.066-.131-1.58.79-.065Zm-.458-5.53-.79.066-.131-1.58.79-.066Zm-.458-5.53-.79.066-.131-1.58.79-.065Zm-.458-5.53-.79.065-.131-1.58.79-.066Zm-.458-5.53-.79.066-.131-1.58.79-.066Zm-.458-5.53-.79.066-.131-1.58.79-.065Zm-.458-5.53-.79.065-.131-1.58.79-.066Zm-.458-5.53-.79.066-.131-1.58.79-.066Zm-.458-5.53-.79.066-.131-1.58.79-.066Zm-.458-5.53-.79.065-.131-1.58.79-.066Zm-.458-5.53-.79.066-.131-1.58.79-.065Zm-.458-5.53-.79.066-.131-1.58.79-.066Zm-.458-5.53-.79.066-.131-1.58.79-.066Zm-.458-5.53-.79.066-.131-1.58.79-.066Zm-.458-5.53-.79.065-.131-1.58.79-.066Zm-.458-5.53-.79.066-.131-1.58.79-.066Zm-.458-5.53-.79.066-.131-1.58.79-.065Z" transform="translate(-724.869 -95.305)" fill="#4e93ee"/>
        <path id="Trazado_879353" data-name="Trazado 879353" d="M1387.323,510.948l-.79.065-.075-.91.79-.065Zm-.4-4.86-.79.065-.131-1.58.79-.066Zm-.458-5.53-.79.065-.131-1.58.79-.065Zm-.458-5.53-.79.066-.131-1.58.79-.066Zm-.458-5.53-.79.065-.131-1.58.79-.065Zm-.458-5.53-.79.066-.131-1.58.79-.066Zm-.458-5.53-.79.065-.131-1.58.79-.065Zm-.458-5.53-.79.066-.131-1.58.79-.065Zm-.458-5.53-.79.065-.131-1.58.79-.065Zm-.458-5.53-.791.065-.131-1.58.79-.066Zm-.458-5.53-.79.066-.131-1.58.79-.065Zm-.458-5.53-.79.066-.131-1.58.79-.065Zm-.458-5.53-.79.065-.131-1.58.79-.066Zm-.459-5.53-.79.066-.131-1.58.79-.065Zm-.458-5.53-.79.065-.131-1.58.79-.065Zm-.458-5.53-.79.066-.131-1.58.79-.066Zm-.458-5.53-.791.066-.131-1.58.79-.065Zm-.458-5.53-.79.066-.131-1.58.79-.066Zm-.458-5.53-.791.066-.131-1.58.79-.066Zm-.458-5.53-.79.066-.131-1.58.79-.065Zm-.458-5.53-.791.065-.131-1.58.79-.065Zm-.458-5.53-.79.066-.131-1.58.79-.066Zm-.458-5.53-.79.065-.131-1.58.79-.065Zm-.458-5.53-.79.065-.131-1.58.79-.066Zm-.458-5.53-.79.066-.131-1.58.79-.066Zm-.458-5.53-.79.066-.131-1.58.79-.065Zm-.458-5.53-.79.066-.131-1.58.79-.066ZM1375,362.3l-.79.066-.131-1.58.79-.066Zm-.458-5.53-.79.065-.131-1.58.79-.066Zm-.458-5.53-.79.066-.131-1.58.79-.066Zm-.458-5.53-.79.066-.131-1.58.79-.065Zm-.458-5.53-.79.065-.131-1.58.79-.066Zm-.458-5.53-.79.066-.131-1.58.79-.066Zm-.458-5.53-.79.066-.131-1.58.79-.065Zm-.458-5.53-.79.065-.131-1.58.79-.066Zm-.458-5.53-.79.066-.131-1.58.79-.066Zm-.458-5.53-.79.066-.131-1.58.79-.065Zm-.458-5.53-.79.065-.131-1.58.79-.066Zm-.458-5.53-.79.066-.131-1.58.79-.066Zm-.458-5.53-.79.065-.131-1.58.79-.066Zm-.458-5.53-.79.066-.131-1.58.79-.066Zm-.458-5.53-.79.066-.131-1.58.79-.065Zm-.458-5.53-.79.065-.131-1.58.79-.066Zm-.458-5.53-.79.066-.131-1.58.79-.066Zm-.458-5.53-.79.066-.131-1.58.79-.065Zm-.458-5.53-.79.065-.131-1.58.79-.066Zm-.458-5.53-.79.066-.131-1.58.79-.066Zm-.458-5.53-.79.066-.131-1.58.79-.065Zm-.458-5.53-.79.066-.131-1.58.79-.066Zm-.458-5.53-.79.066-.131-1.58.79-.065Zm-.458-5.53-.79.066-.131-1.58.79-.066Zm-.458-5.53-.79.066-.131-1.58.79-.066Zm-.458-5.53-.79.066-.131-1.58.79-.065Zm-.458-5.53-.79.065-.131-1.58.79-.066Zm-.458-5.53-.79.066-.131-1.58.79-.066Zm-.458-5.53-.79.066-.131-1.58.79-.065Zm-.458-5.53-.79.065-.131-1.58.79-.066Zm-.458-5.53-.79.066-.131-1.58.79-.065Zm-.458-5.53-.79.066-.131-1.58.79-.066Zm-.458-5.53-.79.065-.131-1.58.79-.066Zm-.458-5.53-.79.066-.131-1.58.79-.065Zm-.458-5.53-.79.065-.131-1.58.79-.066Zm-.458-5.53-.79.066-.131-1.58.79-.066Zm-.458-5.53-.79.066-.131-1.58.79-.065Zm-.458-5.53-.79.065-.131-1.58.79-.066Zm-.458-5.53-.79.066-.131-1.58.79-.066Zm-.458-5.53-.79.066-.131-1.58.79-.066Zm-.458-5.53-.79.065-.131-1.58.79-.066Zm-.458-5.53-.79.066-.131-1.58.79-.066Zm-.458-5.53-.79.065-.131-1.58.79-.066Zm-.458-5.53-.79.066-.131-1.58.79-.066Zm-.458-5.53-.79.066-.131-1.58.79-.065Zm-.458-5.53-.79.066-.131-1.58.79-.066Zm-.458-5.53-.79.066L1353,106.4l.79-.066Zm-.458-5.53-.79.066-.131-1.58.79-.065Z" transform="translate(-935.103 -76.243)" fill="#4e93ee"/>
        <path id="Trazado_879354" data-name="Trazado 879354" d="M1691.413,485.745l-.79.065-.075-.91.79-.065Zm-.4-4.86-.79.065-.131-1.58.79-.066Zm-.458-5.53-.79.066-.131-1.58.79-.066Zm-.458-5.53-.79.066-.131-1.58.79-.066Zm-.458-5.53-.79.065-.131-1.58.79-.066Zm-.458-5.53-.79.066-.131-1.58.79-.065Zm-.458-5.53-.79.065-.131-1.58.79-.066Zm-.458-5.53-.79.065-.131-1.58.79-.066Zm-.458-5.53-.79.066-.131-1.58.79-.065Zm-.458-5.53-.79.065-.131-1.58.79-.065Zm-.458-5.53-.79.066-.131-1.58.79-.066Zm-.458-5.53-.79.066-.131-1.58.79-.065Zm-.458-5.53-.79.065-.131-1.58.79-.065Zm-.458-5.53-.79.066-.131-1.58.79-.066Zm-.458-5.53-.79.066-.131-1.58.79-.066Zm-.458-5.53-.79.066-.131-1.58.79-.066Zm-.458-5.53-.79.066-.131-1.58.79-.065Zm-.458-5.53-.79.066-.131-1.58.79-.066Zm-.458-5.53-.79.065-.131-1.58.79-.066Zm-.458-5.53-.79.066-.131-1.58.79-.065Zm-.458-5.53-.79.065-.131-1.58.79-.065Zm-.458-5.53-.79.065-.131-1.58.79-.066Zm-.458-5.53-.79.065-.131-1.58.79-.065Zm-.458-5.53-.79.065-.131-1.58.79-.066Zm-.458-5.53-.79.066-.131-1.58.79-.065Zm-.458-5.53-.79.066-.131-1.58.79-.066Zm-.458-5.53-.79.066-.131-1.58.79-.066Zm-.458-5.53-.79.066-.131-1.58.79-.066Zm-.458-5.53-.79.065-.131-1.58.79-.066Zm-.458-5.53-.79.066-.131-1.58.79-.066Zm-.458-5.53-.79.066L1676.8,319l.79-.065Zm-.458-5.53-.79.065-.131-1.58.79-.066Zm-.459-5.53-.79.066-.131-1.58.79-.066Zm-.458-5.53-.79.066-.131-1.58.79-.065Zm-.458-5.53-.79.065-.131-1.58.79-.066Zm-.458-5.53-.79.066-.131-1.58.79-.066Zm-.459-5.53-.79.066-.131-1.58.79-.066Zm-.458-5.53-.79.066-.131-1.58.79-.066Zm-.458-5.53-.79.066-.131-1.58.79-.065Zm-.458-5.53-.79.065-.131-1.58.79-.066Zm-.458-5.53-.79.066-.131-1.58.79-.066Zm-.458-5.53-.79.066-.131-1.58.79-.065Zm-.458-5.53-.79.065-.131-1.58.79-.066Zm-.458-5.53-.79.066-.131-1.58.79-.066Zm-.458-5.53-.79.066-.131-1.58.79-.065Zm-.458-5.53-.79.065-.131-1.58.79-.066Zm-.458-5.53-.79.066-.131-1.58.79-.066Zm-.458-5.53-.79.066-.131-1.58.79-.065Zm-.458-5.53-.79.066-.131-1.58.79-.066Zm-.458-5.53-.79.066-.131-1.58.79-.065Zm-.458-5.53-.79.066-.131-1.58.79-.066Zm-.458-5.53-.79.066-.131-1.58.79-.066Zm-.458-5.53-.79.066-.131-1.58.79-.065Zm-.458-5.53-.79.065-.131-1.58.79-.066Zm-.458-5.53-.79.066-.131-1.58.79-.066Zm-.458-5.53-.79.066-.131-1.58.79-.065Zm-.458-5.53-.79.065-.131-1.58.79-.066Zm-.458-5.53-.79.066-.131-1.58.79-.066Zm-.458-5.53-.79.066-.131-1.58.79-.066Zm-.458-5.53-.79.066-.131-1.58.79-.066Zm-.458-5.53-.79.066-.131-1.58.79-.066Zm-.458-5.53-.79.065-.131-1.58.79-.066Zm-.458-5.53-.79.066-.131-1.58.79-.066Zm-.458-5.53-.79.066-.131-1.58.79-.065Zm-.458-5.53-.79.065-.131-1.58.79-.066Zm-.458-5.53-.79.066-.131-1.58.79-.066Zm-.458-5.53-.79.066-.131-1.58.79-.065Zm-.458-5.53-.79.065-.131-1.58.79-.066Zm-.458-5.53-.79.066-.131-1.58.79-.065Zm-.458-5.53-.79.066-.131-1.58.79-.066Zm-.458-5.53-.79.066-.131-1.58.79-.066Zm-.458-5.53-.79.066-.131-1.58.79-.065Zm-.458-5.53-.79.065-.131-1.58.79-.066Zm-.458-5.53-.79.066-.131-1.58.79-.066Zm-.458-5.53-.79.066-.131-1.58.79-.065Z" transform="translate(-1145.34 -57.182)" fill="#4e93ee"/>
        <path id="Trazado_879355" data-name="Trazado 879355" d="M1995.495,460.543l-.79.065-.076-.91.79-.065Zm-.4-4.861-.79.066-.131-1.58.79-.066Zm-.458-5.53-.79.066-.131-1.58.79-.065Zm-.458-5.53-.79.066-.131-1.58.79-.066Zm-.458-5.53-.79.066-.131-1.58.79-.065Zm-.458-5.53-.79.066-.131-1.58.79-.065Zm-.458-5.53-.79.065-.131-1.58.79-.066Zm-.458-5.53-.79.066-.131-1.58.79-.066Zm-.458-5.53-.79.066-.131-1.58.79-.065Zm-.458-5.53-.79.065-.131-1.58.79-.066Zm-.458-5.53-.79.066-.131-1.58.79-.066Zm-.458-5.53-.79.066-.131-1.58.79-.066Zm-.458-5.53-.79.065-.131-1.58.79-.066Zm-.458-5.53-.79.066-.131-1.58.79-.065Zm-.458-5.53-.79.065-.131-1.58.79-.065Zm-.458-5.53-.79.066-.131-1.58.79-.066Zm-.458-5.53-.791.066-.131-1.58.79-.065Zm-.459-5.53-.79.065-.131-1.58.79-.066Zm-.458-5.53-.79.066-.131-1.58.79-.066Zm-.459-5.53-.79.066-.131-1.58.79-.066Zm-.458-5.53-.79.065-.131-1.58.79-.066Zm-.458-5.53-.79.066-.131-1.58.79-.066Zm-.458-5.53-.79.065-.131-1.58.79-.066Zm-.458-5.53-.79.065-.131-1.58.79-.066Zm-.458-5.53-.79.065-.131-1.58.79-.065Zm-.458-5.53-.79.066-.131-1.58.79-.066Zm-.458-5.53-.79.066-.131-1.58.79-.066Zm-.458-5.53-.79.066-.131-1.58.79-.065Zm-.458-5.53-.79.065-.131-1.58.79-.066Zm-.458-5.53-.79.066-.131-1.58.79-.066Zm-.458-5.53-.79.066-.131-1.58.79-.065Zm-.458-5.53-.79.065-.131-1.58.79-.066Zm-.458-5.53-.79.066-.131-1.58.79-.066Zm-.458-5.53-.79.066-.131-1.58.79-.066Zm-.458-5.53-.79.065-.131-1.58.79-.066Zm-.458-5.53-.79.066-.131-1.58.79-.065Zm-.458-5.53-.79.065-.131-1.58.79-.066Zm-.458-5.53-.79.066-.131-1.58.79-.066Zm-.458-5.53-.79.066-.131-1.58.79-.065Zm-.458-5.53-.79.065-.131-1.58.79-.066Zm-.458-5.53-.79.066-.131-1.58.79-.066Zm-.458-5.53-.79.066-.131-1.58.79-.065Zm-.458-5.53-.79.065-.131-1.58.79-.066Zm-.458-5.53-.79.065-.131-1.58.79-.066Zm-.458-5.53-.79.066-.131-1.58.79-.066Zm-.458-5.53-.79.066-.131-1.58.79-.066Zm-.458-5.53-.79.066-.131-1.58.79-.065Zm-.458-5.53-.79.065-.131-1.58.79-.066Zm-.458-5.53-.79.066-.131-1.58.79-.066Zm-.458-5.53-.79.066-.131-1.58.79-.065Zm-.458-5.53-.79.065-.131-1.58.79-.066Zm-.458-5.53-.79.066-.131-1.58.79-.066Zm-.458-5.53-.79.066-.131-1.58.79-.065Zm-.458-5.53-.79.065-.131-1.58.79-.066Zm-.458-5.53-.79.066-.131-1.58.79-.066Zm-.459-5.53-.79.066-.131-1.58.79-.066Zm-.458-5.53-.79.066-.131-1.58.79-.066Zm-.458-5.53-.79.066-.131-1.58.79-.065Zm-.458-5.53-.79.065-.131-1.58.79-.066Zm-.458-5.53-.79.066-.131-1.58.79-.066Zm-.458-5.53-.79.066-.131-1.58.79-.065Zm-.458-5.53-.79.065-.131-1.58.79-.066Zm-.458-5.53-.79.066-.131-1.58.79-.066Zm-.458-5.53-.79.066-.131-1.58.79-.065Zm-.458-5.53-.79.066-.131-1.58.79-.066Zm-.458-5.53-.79.066-.131-1.58.79-.066Zm-.458-5.53-.79.066-.131-1.58.79-.066Zm-.458-5.53-.79.066-.131-1.58.79-.066Zm-.458-5.53-.79.066-.131-1.58.79-.065Zm-.458-5.53-.79.065-.131-1.58.79-.066Zm-.458-5.53-.79.066-.131-1.58.79-.066Zm-.458-5.53-.79.066-.131-1.58.79-.065Zm-.458-5.53-.79.065-.131-1.58.79-.066Zm-.458-5.53-.79.066L1961.17,56l.79-.066Zm-.458-5.53-.79.066-.131-1.58.79-.065Z" transform="translate(-1355.573 -38.121)" fill="#4e93ee"/>
        <path id="Trazado_879356" data-name="Trazado 879356" d="M2299.577,435.34l-.79.065-.075-.91.79-.065Zm-.4-4.861-.79.066-.131-1.58.79-.066Zm-.458-5.53-.79.066-.131-1.58.79-.066Zm-.458-5.53-.79.066-.13-1.58.789-.066Zm-.458-5.53-.79.065-.131-1.58.79-.066Zm-.458-5.53-.791.065-.131-1.58.79-.065Zm-.459-5.53-.79.065-.131-1.58.79-.066Zm-.458-5.53-.791.066-.131-1.58.79-.066Zm-.459-5.53-.79.066-.131-1.58.79-.065Zm-.458-5.53-.79.065-.131-1.58.79-.066Zm-.458-5.53-.79.066-.131-1.58.79-.066Zm-.458-5.53-.79.066-.131-1.58.79-.066Zm-.458-5.53-.79.065-.131-1.58.79-.066Zm-.458-5.53-.79.066-.131-1.58.79-.065Zm-.458-5.53-.79.065-.131-1.58.79-.066Zm-.458-5.53-.79.066-.131-1.58.79-.066Zm-.458-5.53-.79.066-.131-1.58.79-.065Zm-.458-5.53-.79.065-.131-1.58.79-.066Zm-.458-5.53-.79.066-.131-1.58.79-.066Zm-.458-5.53-.79.066-.131-1.58.79-.065Zm-.458-5.53-.79.065-.131-1.58.79-.066Zm-.458-5.53-.79.066-.131-1.58.789-.066Zm-.459-5.53-.79.066-.131-1.58.79-.065Zm-.458-5.53-.79.065-.131-1.58.79-.066Zm-.458-5.53-.79.066-.131-1.58.79-.065Zm-.458-5.53-.79.066-.131-1.58.79-.065Zm-.458-5.53-.79.065-.131-1.58.79-.066Zm-.459-5.53-.79.066-.131-1.58.79-.065Zm-.458-5.53-.79.065-.131-1.58.79-.066Zm-.458-5.53-.79.066-.131-1.58.79-.066Zm-.458-5.53-.79.066-.131-1.58.79-.065Zm-.458-5.53-.79.065-.131-1.58.79-.066Zm-.458-5.53-.79.066-.131-1.58.79-.066Zm-.458-5.53-.79.066-.131-1.58.79-.065Zm-.458-5.53-.79.065-.131-1.58.79-.066Zm-.458-5.53-.79.066-.131-1.58.79-.066Zm-.458-5.53-.789.066-.132-1.58.79-.066Zm-.458-5.53-.791.066-.131-1.58.79-.066Zm-.458-5.53-.79.066-.131-1.58.79-.065Zm-.458-5.53-.791.065-.13-1.58.79-.066Zm-.458-5.53-.79.066-.131-1.58.79-.066Zm-.458-5.53-.79.066-.132-1.58.79-.065Zm-.458-5.53-.791.065-.131-1.58.79-.066Zm-.458-5.53-.79.066L2279,196.7l.79-.066Zm-.458-5.53-.79.066-.131-1.58.79-.065Zm-.458-5.53-.79.065-.132-1.58.79-.066Zm-.458-5.53-.791.066-.13-1.58.79-.065Zm-.458-5.53-.79.066-.131-1.58.79-.066Zm-.459-5.53-.79.066-.131-1.58.79-.066Zm-.458-5.53-.79.066-.131-1.58.79-.065Zm-.458-5.53-.79.065-.131-1.58.79-.066Zm-.458-5.53-.79.066-.131-1.58.79-.066Zm-.458-5.53-.79.066-.131-1.58.79-.066Zm-.458-5.53-.79.065-.131-1.58.79-.066Zm-.458-5.53-.79.066-.131-1.58.79-.066Zm-.459-5.53-.79.066-.131-1.58.79-.066Zm-.458-5.53-.79.066-.131-1.58.79-.066Zm-.458-5.53-.79.066-.132-1.58.79-.065Zm-.458-5.53-.79.066-.131-1.58.79-.066Zm-.458-5.53-.79.066-.131-1.58.79-.066Zm-.458-5.53-.79.066-.131-1.58.79-.065Zm-.458-5.53-.79.065-.131-1.58.79-.066Zm-.459-5.53-.789.066-.131-1.58.79-.066Zm-.458-5.53-.79.066-.131-1.58.79-.065Zm-.459-5.53-.79.065-.132-1.58.791-.066Zm-.458-5.53-.79.066-.131-1.58.791-.065Zm-.459-5.53-.79.066-.131-1.58.79-.066Zm-.458-5.53-.79.065-.131-1.58.79-.066Zm-.458-5.53-.79.066-.131-1.58.79-.065Zm-.459-5.53-.79.065-.131-1.58.79-.066Zm-.458-5.53-.79.066-.131-1.58.79-.066Zm-.458-5.53-.79.066-.131-1.58.79-.065Zm-.458-5.53-.79.065-.131-1.58.79-.066Zm-.458-5.53-.79.066-.131-1.58.791-.066Zm-.458-5.53-.79.066-.131-1.58.79-.065Z" transform="translate(-1542.718 -19.059)" fill="#4e93ee"/>
        <path id="Trazado_879357" data-name="Trazado 879357" d="M2602.8,409.292l.075.911.79-.066-.076-.91Zm-.458-5.53.131,1.58.79-.065-.131-1.58Zm-.458-5.53.131,1.58.79-.066-.131-1.58Zm-.458-5.53.131,1.58.79-.066-.131-1.58Zm-.459-5.53.132,1.58.79-.066-.131-1.58Zm-.458-5.53.131,1.58.79-.066-.131-1.58Zm-.459-5.53.131,1.58.79-.066-.131-1.58Zm-.458-5.53.131,1.58.79-.065-.131-1.58Zm-.458-5.53.131,1.58.79-.066-.131-1.58Zm-.458-5.53.131,1.58.79-.066-.131-1.58Zm-.458-5.53.131,1.58.79-.065-.131-1.58Zm-.458-5.53.131,1.58.79-.065-.13-1.58Zm-.459-5.53.132,1.58.789-.065-.13-1.58Zm-.458-5.53.131,1.58.79-.065-.131-1.58Zm-.458-5.53.131,1.58.79-.065-.131-1.58Zm-.458-5.53.131,1.58.79-.066-.131-1.58Zm-.458-5.53.131,1.58.79-.066-.131-1.58Zm-.458-5.53.131,1.58.79-.066-.131-1.58Zm-.458-5.53.131,1.58.79-.066-.131-1.58Zm-.458-5.53.131,1.58.79-.066-.131-1.58Zm-.458-5.53.131,1.58.79-.066-.131-1.58Zm-.459-5.53.131,1.58.79-.066-.131-1.58Zm-.458-5.53.131,1.58.79-.066-.131-1.58Zm-.458-5.53.131,1.58.79-.066-.131-1.58Zm-.458-5.53.131,1.58.79-.065-.131-1.58Zm-.458-5.53.131,1.58.79-.065-.131-1.58Zm-.458-5.53.131,1.58.79-.065-.131-1.58Zm-.458-5.53.131,1.58.79-.065-.131-1.58Zm-.458-5.53.131,1.58.79-.065-.131-1.58Zm-.458-5.53.131,1.58.79-.066-.131-1.58Zm-.458-5.53.131,1.58.79-.066-.131-1.58Zm-.458-5.53.131,1.58.79-.066-.131-1.58Zm-.458-5.53.131,1.58.79-.066-.131-1.58Zm-.458-5.53.131,1.58.79-.066-.131-1.58Zm-.458-5.53.131,1.58.79-.066-.131-1.58Zm-.458-5.53.131,1.58.79-.066-.131-1.58Zm-.459-5.53.131,1.58.79-.066-.131-1.58Zm-.458-5.53.131,1.58.79-.065-.131-1.58Zm-.458-5.53.131,1.58.79-.065-.131-1.58Zm-.458-5.53.131,1.58.79-.065-.131-1.58Zm-.458-5.53.131,1.58.79-.066-.131-1.58Zm-.458-5.53.131,1.58.79-.065-.131-1.58Zm-.458-5.53.131,1.58.79-.065-.131-1.58Zm-.458-5.53.131,1.58.791-.066-.131-1.58Zm-.458-5.53.131,1.58.79-.065-.131-1.58Zm-.459-5.53.131,1.58.79-.066-.131-1.58Zm-.458-5.53.131,1.58.79-.066-.131-1.58Zm-.459-5.53.131,1.58.79-.066-.131-1.58Zm-.458-5.53.131,1.58.79-.066-.131-1.58Zm-.458-5.53.131,1.58.79-.066-.131-1.58Zm-.458-5.53.131,1.58.79-.066-.131-1.58Zm-.458-5.53.131,1.58.79-.065-.131-1.58Zm-.458-5.53.131,1.58.79-.066-.131-1.58Zm-.459-5.53.131,1.58.79-.065-.131-1.58Zm-.458-5.53.131,1.58.79-.066-.131-1.58Zm-.458-5.53.131,1.58.79-.065-.131-1.58Zm-.458-5.53.131,1.58.79-.065-.131-1.58Zm-.458-5.53.131,1.58.79-.066-.131-1.58Zm-.458-5.53.131,1.58.79-.065-.131-1.58Zm-.458-5.53.131,1.58.79-.066-.131-1.58Zm-.458-5.53.131,1.58.791-.066-.131-1.58Zm-.458-5.53.131,1.58.79-.066-.131-1.58Zm-.458-5.53.131,1.58.791-.066-.131-1.58Zm-.458-5.53.131,1.58.79-.066-.131-1.58Zm-.458-5.53.131,1.58.79-.066-.131-1.58Zm-.458-5.53.131,1.58.79-.066-.131-1.58Zm-.458-5.53.131,1.58.79-.066-.131-1.58Zm-.458-5.53.131,1.58.79-.066-.131-1.58Zm-.458-5.53.131,1.58.79-.065-.131-1.58Zm-.458-5.53.131,1.58.791-.065-.131-1.58Zm-.458-5.53.131,1.58.79-.065-.131-1.58Zm-.458-5.53.131,1.58.79-.065-.131-1.58Zm-.459-5.53.131,1.58.79-.065-.131-1.58Zm-.458-5.53.131,1.58.79-.066-.131-1.58Zm.332-5.6-.79.066.131,1.58.79-.066Z" transform="translate(-1772.71 0.003)" fill="#4e93ee"/>
        <path id="Trazado_879358" data-name="Trazado 879358" d="M170.115,610.914l.076.91.79-.065-.075-.91Zm-.458-5.53.131,1.58.79-.065-.131-1.58Zm-.458-5.53.131,1.58.79-.066-.131-1.58Zm-.458-5.53.131,1.58.79-.065-.131-1.58Zm-.458-5.53.131,1.58.79-.065-.131-1.58Zm-.458-5.531.131,1.58.79-.065-.131-1.58Zm-.458-5.53.131,1.58.79-.066-.131-1.58Zm-.458-5.53.131,1.58.79-.065-.131-1.58Zm-.458-5.53.131,1.58.79-.066-.131-1.58Zm-.458-5.53.131,1.58.79-.065-.131-1.58Zm-.458-5.53.131,1.58.79-.066-.131-1.58Zm-.458-5.531.131,1.58.79-.065-.131-1.581Zm-.458-5.53.131,1.58.79-.066-.131-1.58Zm-.458-5.53.131,1.58.79-.065-.131-1.58Zm-.458-5.53.131,1.58.79-.066-.131-1.58Zm-.458-5.53.131,1.58.79-.065-.131-1.58Zm-.458-5.53.131,1.579.79-.065-.131-1.58Zm-.458-5.531.131,1.58.79-.065-.131-1.58Zm-.458-5.53.131,1.58.79-.065-.131-1.58Zm-.458-5.53.131,1.58.79-.065-.131-1.58Zm-.458-5.53.131,1.58.79-.066-.131-1.58Zm-.458-5.531.131,1.58.79-.065-.131-1.58Zm-.458-5.53.131,1.58.79-.066-.131-1.58Zm-.458-5.53.131,1.58.79-.066-.131-1.58Zm-.458-5.53.131,1.58.79-.066-.131-1.58Zm-.458-5.531.131,1.58.79-.066-.131-1.58Zm-.458-5.53.131,1.58.79-.066-.131-1.58Zm-.458-5.53.131,1.58.79-.065-.131-1.58Zm-.458-5.53.131,1.58.79-.066-.131-1.58Zm-.458-5.53.131,1.58.79-.065-.131-1.58Zm-.458-5.53.131,1.58.79-.065-.131-1.58Zm-.458-5.53.131,1.58.79-.065-.131-1.58Zm-.458-5.53.131,1.58.79-.065-.131-1.58Zm-.458-5.53.131,1.58.79-.066-.131-1.58Zm-.458-5.53.131,1.58.79-.065-.131-1.58Zm-.458-5.53.131,1.58.79-.065-.131-1.58Zm-.458-5.53.131,1.58.79-.066-.131-1.58Zm-.458-5.53.131,1.58.79-.066-.131-1.58Zm-.458-5.53.131,1.58.79-.066-.131-1.58Zm-.458-5.53.131,1.58.79-.066-.131-1.58Zm-.458-5.53.131,1.58.79-.065-.131-1.58Zm-.458-5.53.131,1.58.79-.066-.131-1.58Zm-.458-5.53.131,1.58.79-.066-.131-1.58Zm-.458-5.53.131,1.58.79-.066-.131-1.58Zm-.458-5.53.131,1.58.79-.065-.131-1.58Zm-.458-5.53.131,1.58.79-.065-.131-1.58Zm-.458-5.53.131,1.58.79-.065-.131-1.58Zm-.458-5.53.131,1.58.79-.065-.131-1.58Zm-.458-5.53.131,1.58.79-.066-.131-1.58Zm-.458-5.53.131,1.58.79-.066-.131-1.58Zm-.458-5.53.131,1.58.79-.065-.131-1.58Zm-.458-5.53.131,1.58.79-.066-.131-1.58Zm-.458-5.53.131,1.58.79-.066-.131-1.58Zm-.458-5.53.131,1.58.79-.066-.131-1.58Zm-.458-5.53.131,1.58.79-.066-.131-1.58Zm-.458-5.53.131,1.58.79-.065-.131-1.58Zm-.458-5.53.131,1.58.79-.066-.131-1.58Zm-.458-5.53.131,1.58.79-.066-.131-1.58Zm-.458-5.53.131,1.579.79-.065-.131-1.58Zm-.458-5.531.131,1.58.79-.065-.131-1.58Zm-.458-5.53.131,1.58.79-.066-.131-1.58Zm-.458-5.53.131,1.58.79-.065-.131-1.58Zm-.458-5.531.131,1.58.79-.065-.131-1.58Zm-.458-5.53.131,1.58.79-.066-.131-1.58Zm-.458-5.53.131,1.58.79-.066-.131-1.58Zm-.458-5.53.131,1.58.79-.066-.131-1.58Zm-.458-5.53.131,1.58.79-.066-.131-1.58Zm-.458-5.53.131,1.58.79-.066-.131-1.58Zm-.458-5.53.131,1.58.79-.066-.131-1.58Zm-.458-5.53.131,1.58.79-.066-.131-1.58Zm-.458-5.53.131,1.58.79-.066-.131-1.58Zm-.458-5.53.131,1.58.79-.066-.131-1.58Zm-.458-5.53.131,1.58.79-.065-.131-1.58Zm-.458-5.53.131,1.58.79-.065-.131-1.58Zm-.458-5.53.131,1.58.79-.065-.131-1.58Z" transform="translate(-103.011 -152.49)" fill="#4e93ee"/>
        <path id="Trazado_879359" data-name="Trazado 879359" d="M0,319.34l.083.79L2.077,320l-.083-.79Zm6.981-.458.083.79,1.995-.131-.083-.79Zm6.981-.458.083.79,1.995-.131-.083-.79Zm6.981-.458.083.79,1.995-.131-.083-.79Zm6.981-.459.083.79L30,318.166l-.083-.79Zm6.981-.458.083.79,1.995-.131-.083-.79Zm6.981-.458.083.79,1.995-.131-.083-.79Zm6.981-.458.082.79,1.995-.131-.083-.79Zm6.981-.458.082.79,1.995-.131-.083-.79Zm6.981-.458.083.79,1.995-.131-.082-.79Zm6.981-.458.082.79,1.995-.131-.082-.79Zm6.981-.459.082.79,1.995-.131-.082-.79Zm6.981-.458.083.79,1.995-.131-.082-.79Zm6.982-.458.083.79,1.994-.131-.082-.79Zm6.981-.458.083.79,1.995-.131-.083-.79Zm6.981-.458.083.79,1.995-.131-.083-.79Zm6.982-.459.083.79,1.995-.131-.082-.79Zm6.981-.458.083.79,1.994-.131-.082-.79Zm6.981-.458.083.79,1.995-.131-.083-.79Zm6.981-.458.083.79,1.995-.131-.083-.79Zm6.981-.458.083.79,1.995-.131-.083-.79Zm6.981-.458.083.79,1.995-.131-.083-.79Zm6.981-.458.083.79,1.995-.131-.083-.79Zm6.981-.458.083.79,1.995-.131-.083-.79Zm6.982-.459.082.79,1.995-.131-.083-.79Zm6.981-.458.082.79,1.995-.131-.083-.79Zm6.981-.458.082.79,1.995-.131-.082-.79Zm6.981-.458.083.79,1.995-.131-.082-.79Zm6.981-.458.082.79,1.995-.131-.082-.79Zm6.981-.458.082.79,1.995-.131-.082-.79Zm6.981-.458.083.79,1.994-.131-.082-.79Zm6.981-.458.083.79,1.994-.131-.082-.79Zm6.981-.458.083.79,1.995-.131-.083-.79Zm6.981-.458.083.79,1.995-.131-.083-.79Zm6.982-.458.083.79,1.994-.131-.083-.79Zm6.981-.458.083.79,1.995-.131-.083-.79Zm6.981-.458.083.79,1.995-.131-.083-.79Zm6.982-.458.083.79,1.995-.131-.083-.79Zm6.982-.458.082.79,1.995-.131-.083-.79Zm6.981-.458.082.79,1.995-.131-.083-.79Zm6.981-.458.083.79,1.994-.131-.082-.79Zm6.982-.458.082.79,1.995-.131-.082-.79Zm6.981-.458.082.79,1.995-.131-.082-.79Zm6.981-.458.083.79,1.995-.131-.082-.79Zm6.981-.458.083.79,1.994-.131-.082-.79Zm6.981-.458.083.79,1.995-.131-.083-.79Zm6.981-.458.083.79,1.995-.131-.082-.79Zm6.981-.458.083.79,1.994-.131-.082-.79Zm6.981-.458.083.79L337.18,298l-.083-.79Zm6.981-.458.083.79,1.995-.131-.083-.79Zm6.982-.458.083.79,1.995-.131-.083-.79Zm6.981-.458.083.79,1.995-.131-.083-.79Zm6.981-.458.083.79,1.995-.131-.083-.79Zm6.981-.458.083.79,1.995-.131-.083-.79Zm6.981-.458.083.79,1.995-.131-.083-.79Zm6.982-.458.083.79,1.995-.131-.083-.79Zm6.981-.458.083.79,1.995-.131-.083-.79Zm6.981-.458.083.79,1.995-.131-.082-.79Zm6.981-.458.083.79,1.995-.131-.082-.79Zm6.982-.458.082.79,1.995-.131-.082-.79Zm6.981-.458.082.79,1.995-.131-.082-.79Zm6.981-.458.083.79,1.995-.131-.083-.79Zm6.982-.458.083.79,1.994-.131-.083-.79Zm6.981-.458.083.79,1.995-.131-.083-.79Zm6.981-.458.083.79,1.995-.131-.082-.79Zm6.981-.458.083.79,1.995-.131-.083-.79Zm6.981-.458.083.79,1.995-.131-.083-.79Zm6.981-.458.083.79,1.995-.131-.083-.79Zm6.981-.458.083.79,1.995-.131-.083-.79Zm6.982-.458.083.79,1.995-.131-.083-.79Zm6.981-.458.083.79,1.995-.131-.083-.79Zm6.981-.458.082.79,1.995-.131-.082-.79Zm6.981-.458.082.79,1.994-.131-.082-.79Zm6.981-.458.082.79,1.995-.131-.083-.79Zm6.981-.458.083.79,1.995-.131-.082-.79Zm6.982-.458.083.79,1.995-.131-.083-.79Zm6.981-.458.083.79,1.995-.131-.083-.79Zm6.981-.458.083.79,1.995-.131-.083-.79Zm6.981-.458.083.79,1.995-.131-.083-.79Zm6.982-.458.083.79,1.995-.131-.083-.79Zm6.982-.458.082.79,1.995-.131-.083-.79Zm6.981-.458.083.79,1.995-.131-.083-.79Zm6.982-.458.082.79,1.995-.131-.083-.79Zm6.981-.458.082.79,1.995-.131-.083-.79Zm6.981-.458.083.79,1.995-.131-.082-.79Zm6.981-.458.082.79,1.995-.131-.082-.79Zm6.981-.458.082.79,1.995-.131-.083-.79Zm6.981-.458.082.79,1.995-.131-.082-.79Zm6.981-.458.083.79,1.994-.131-.082-.79Zm6.981-.458.083.79,1.995-.131-.083-.79Zm6.981-.458.083.79,1.995-.131-.083-.79Zm6.981-.458.083.79,1.995-.131-.083-.79Zm6.981-.458.083.79,1.995-.131-.083-.79Zm6.981-.458.083.79,1.995-.131-.083-.79Zm6.982-.458.082.79,1.995-.131-.083-.79Zm6.981-.458.083.79,1.995-.131-.083-.79Zm6.981-.458.082.79,1.995-.131-.083-.79Zm6.981-.458.082.79,1.995-.131-.083-.79Zm6.981-.458.082.79,1.995-.131-.083-.79Zm6.982-.458.082.79,1.995-.131-.083-.79Zm6.981-.458.083.79,1.995-.131-.083-.79Zm6.981-.458.083.79,1.994-.131-.082-.79Zm6.982-.458.083.79,1.994-.131-.082-.79Zm6.981-.458.083.79,1.994-.131-.083-.79Zm6.981-.458.083.79,1.995-.131-.083-.79Zm6.981-.458.083.79,1.995-.131-.083-.79Zm6.981-.458.083.79,1.994-.131-.083-.79ZM747,270.3l.083.79,1.995-.131-.083-.79Zm6.981-.458.082.79,1.995-.131-.083-.79Zm6.982-.458.082.79,1.995-.131-.083-.79Zm6.981-.458.082.79,1.995-.131-.083-.79Zm6.981-.458.082.79,1.995-.131-.083-.79Zm6.981-.458.083.79,1.995-.131-.083-.79Zm6.981-.458.082.79,1.995-.131-.083-.79Zm6.981-.458.083.79,1.995-.131-.083-.79Zm6.981-.458.083.79,1.995-.131-.083-.79Zm6.982-.458.083.79,1.994-.131-.082-.79Zm6.981-.458.083.79,1.995-.131-.083-.79Z" transform="translate(0 -200.869)" fill="#4e93ee"/>
        <path id="Trazado_879360" data-name="Trazado 879360" d="M844.093,570.463l-1.995.131-.083-.79,1.994-.131Zm-6.981.458-1.995.131-.082-.79,1.995-.131Zm-6.981.458-1.995.131-.083-.79,1.995-.131Zm-6.981.458-1.995.131-.083-.79,1.995-.131Zm-6.981.458-1.995.131-.082-.79,1.994-.131Zm-6.982.458-1.994.131-.083-.79,1.995-.131Zm-6.981.458-1.995.131-.083-.79,1.995-.131Zm-6.981.458-1.995.131-.082-.79,1.995-.131Zm-6.981.458-1.995.131-.083-.79,1.995-.131Zm-6.981.458-1.995.131-.082-.79,1.995-.131Zm-6.981.458-1.995.131-.083-.79,2-.131Zm-6.981.458-1.995.131-.083-.79,1.994-.131Zm-6.981.458-1.994.131-.083-.79,1.995-.131Zm-6.982.458-1.995.131-.083-.79,1.995-.131Zm-6.981.458-1.994.131-.083-.79,1.995-.131Zm-6.981.458-1.995.131-.082-.79,1.994-.131Zm-6.982.458-1.994.131-.083-.79,1.995-.131Zm-6.981.458-1.994.131-.083-.79,1.995-.131Zm-6.981.458-1.995.131-.082-.79,1.995-.131Zm-6.982.458-1.995.131-.083-.79,1.995-.131Zm-6.981.458-1.995.131-.083-.79,1.994-.131Zm-6.981.458-1.995.131-.083-.79,1.995-.131Zm-6.981.458-1.995.131-.083-.79,1.995-.131Zm-6.981.458-1.995.131-.082-.79,1.995-.131Zm-6.982.458-1.995.131-.083-.79,1.995-.131Zm-6.981.458-1.995.131-.083-.79,1.994-.131Zm-6.981.458-1.995.131-.083-.79,1.995-.131Zm-6.981.458-1.995.131-.083-.79,1.995-.131Zm-6.981.458-1.994.131-.083-.79,1.995-.131Zm-6.981.458-1.995.131-.082-.79,1.994-.131Zm-6.982.458-1.995.131-.083-.79,1.995-.131Zm-6.981.458-1.995.131-.083-.79,1.995-.131Zm-6.981.459-1.995.131-.083-.79,1.995-.131Zm-6.981.458-1.995.131-.083-.79,1.995-.131Zm-6.981.458-1.995.131-.082-.79,1.995-.131Zm-6.982.458-1.994.131-.083-.79,1.995-.131Zm-6.981.458-1.994.131-.083-.79,1.995-.131Zm-6.981.458-1.995.131-.083-.79,1.995-.131Zm-6.981.458-1.995.131-.083-.79,1.995-.131Zm-6.981.458-1.995.131-.083-.79,1.995-.131Zm-6.981.458-1.995.131-.082-.79,1.995-.131Zm-6.982.458-1.994.131-.083-.79,1.995-.131Zm-6.981.458-1.995.131-.083-.79,1.995-.131Zm-6.982.458-1.995.131-.082-.79,1.995-.131Zm-6.98.458-1.995.131-.082-.79,1.995-.131Zm-6.982.458-1.995.131-.083-.79,1.995-.131Zm-6.981.458-1.995.131-.083-.79,1.995-.131Zm-6.981.458-1.995.131-.082-.79,1.995-.131Zm-6.981.458-1.995.131-.083-.79,1.995-.131Zm-6.981.458-1.995.131-.082-.79,1.994-.131Zm-6.981.458-1.995.131-.082-.79,1.995-.131Zm-6.981.458-1.995.131-.083-.79,1.995-.131Zm-6.981.458-1.995.131-.083-.79,1.995-.131Zm-6.981.458-1.995.131-.083-.79,1.995-.131Zm-6.981.458-1.995.131-.083-.79,1.995-.131Zm-6.981.458-1.995.131-.083-.79,1.995-.131Zm-6.981.458-1.995.131-.083-.79,1.995-.131Zm-6.981.458-1.995.131-.083-.79,1.995-.131Zm-6.981.458-1.995.131-.082-.79,1.995-.131Zm-6.981.458-1.995.131-.083-.79,1.995-.131Zm-6.981.458-1.995.131-.083-.79,1.995-.131Zm-6.981.458-1.995.131-.083-.79,1.995-.131Zm-6.982.458-1.995.131-.083-.79,1.995-.131Zm-6.981.458-1.995.131-.083-.79,1.995-.131Zm-6.982.458-1.994.131-.083-.79,1.995-.131Zm-6.981.458-1.995.131-.083-.79,1.995-.131Zm-6.981.458-1.995.131-.082-.79,1.995-.131Zm-6.982.458-1.995.131-.083-.79,1.995-.131Zm-6.982.458-1.995.131-.083-.79,1.995-.131Zm-6.981.458-1.995.131-.083-.79,1.995-.131Zm-6.981.458-1.995.131-.082-.79,1.995-.131ZM348.42,603l-1.995.131-.083-.79,1.995-.131Zm-6.981.458-1.995.131-.083-.79,1.995-.131Zm-6.981.458-1.995.131-.083-.79,1.995-.131Zm-6.981.458-1.995.131-.083-.79,1.995-.131Zm-6.981.458-1.995.131-.082-.79,1.995-.131Zm-6.981.458-1.995.131-.083-.79,1.995-.131Zm-6.981.458-1.995.131-.083-.79,1.995-.131Zm-6.981.458-1.995.131-.082-.79,1.995-.131Zm-6.982.458-1.995.131-.083-.79,1.995-.131Zm-6.981.458-1.994.131-.083-.79,1.995-.131Zm-6.981.458-1.995.131-.082-.79,1.995-.131Zm-6.982.458-1.995.131-.083-.79,1.995-.131Zm-6.981.458-1.995.131-.083-.79,1.995-.131Zm-6.981.458-1.995.131-.083-.79,1.995-.131Zm-6.982.458-1.995.131-.083-.79,1.995-.131Zm-6.981.458-1.995.131-.082-.79,1.994-.131Zm-6.981.458-1.995.131-.083-.79,1.995-.131Zm-6.981.458-1.995.131-.083-.79,1.995-.131Zm-6.981.458-1.995.131-.082-.79,1.995-.131Zm-6.982.458-1.995.131-.083-.79,1.995-.131Zm-6.981.458-1.995.131-.083-.79,1.995-.131Zm-6.981.458-1.995.131-.082-.79,1.994-.131Zm-6.982.458-1.995.131-.083-.79,1.995-.131Zm-6.981.458-1.995.131-.083-.79,1.995-.131Zm-6.981.458-1.995.131-.082-.79,1.995-.131Zm-6.981.458-1.995.131-.083-.79,1.995-.131Zm-6.981.458-1.995.131-.082-.79,1.995-.131Zm-6.981.458-1.995.131-.083-.79,1.995-.131Zm-6.982.458-1.995.131-.083-.79,1.995-.131Zm-6.981.458-1.995.131-.082-.79,1.995-.131Zm-6.981.458-1.995.131-.083-.79,1.995-.131Zm-6.982.458-1.995.131-.083-.79,1.995-.131Zm-6.981.458-1.995.131-.083-.79,1.995-.131Zm-6.981.458-1.995.131-.082-.79,1.995-.131Zm-6.982.458-1.995.131-.083-.79,1.995-.131Zm-6.981.458-1.995.131-.083-.79,1.995-.131Zm-6.981.458-1.995.131-.082-.79,1.995-.131Zm-6.981.458-1.995.131-.083-.79,1.995-.131Zm-6.981.458-1.995.131-.083-.79,1.995-.131Zm-6.981.458-1.995.131-.082-.79,1.995-.131Zm-6.981.458-1.995.131-.083-.79,1.995-.131Zm-6.981.458-1.995.131-.082-.79,1.995-.131Zm-6.981.458-1.995.131-.083-.79,1.995-.131Zm-6.981.458-1.995.131-.083-.79,1.995-.131Zm-6.981.458-1.995.131-.082-.79,1.995-.131Zm-6.981.458-1.995.131-.083-.79,1.995-.131Zm-6.981.458-1.995.131-.083-.79L27.2,623.3Z" transform="translate(-19.062 -430.861)" fill="#4e93ee"/>
        <path id="Trazado_879361" data-name="Trazado 879361" d="M869.295,874.546l-1.995.131-.083-.79,1.995-.131Zm-6.981.458-1.995.131-.082-.79,1.995-.131Zm-6.981.458-1.995.131-.083-.79,1.995-.131Zm-6.981.458-1.995.131-.083-.79,1.994-.131Zm-6.981.458-1.995.131-.082-.79,1.995-.131Zm-6.981.458-1.995.131-.083-.79,1.995-.131Zm-6.981.458-1.994.131-.083-.79,1.994-.131Zm-6.981.458-1.995.131-.082-.79,1.994-.131Zm-6.982.458-1.995.131-.083-.79,1.995-.131Zm-6.981.458-1.995.131-.082-.79,1.995-.131Zm-6.981.458-1.995.131-.083-.79,1.995-.131Zm-6.982.458-1.994.131-.083-.79,1.995-.131Zm-6.981.458-1.995.131-.082-.79,1.995-.131Zm-6.981.458-1.995.131-.083-.79,1.995-.131Zm-6.981.458-1.995.131-.083-.79,1.994-.131Zm-6.981.458-1.995.131-.082-.79,1.995-.131Zm-6.981.458-1.994.131-.083-.79,1.995-.131Zm-6.981.458-1.995.131-.082-.79,1.995-.131Zm-6.981.458-1.995.131-.083-.79,1.995-.131Zm-6.982.458-1.995.131-.083-.79,1.995-.131Zm-6.981.458-1.995.131-.083-.79,1.995-.131Zm-6.981.458-1.995.131-.083-.79,1.995-.131Zm-6.982.458-1.995.131-.083-.79,1.994-.131Zm-6.981.458-1.995.131-.083-.79,1.995-.131Zm-6.981.458-1.995.131-.083-.79,1.995-.131Zm-6.981.458-1.995.131-.083-.79,1.995-.131Zm-6.981.458-1.995.131-.082-.79,1.995-.131Zm-6.981.458-1.995.131-.083-.79,1.995-.131Zm-6.981.458-1.995.131-.083-.79,1.995-.131Zm-6.981.458-1.995.131-.083-.79,1.995-.131Zm-6.982.459-1.994.131-.083-.79,1.995-.131Zm-6.981.458-1.995.131-.083-.79,1.995-.131Zm-6.981.458-1.995.131-.083-.79,1.995-.131Zm-6.981.458-1.995.131-.083-.79,1.995-.131Zm-6.981.459-1.995.131-.082-.79,1.995-.131Zm-6.981.458-1.995.131-.083-.79,1.995-.131Zm-6.981.458-1.995.131-.083-.79,1.995-.131Zm-6.981.459-1.995.131-.082-.79,1.995-.131Zm-6.981.458-1.994.131-.083-.79,1.995-.131Zm-6.981.458-1.995.131-.083-.79,1.995-.131Zm-6.981.459-1.995.131-.083-.79,1.995-.131Zm-6.982.458-1.994.131-.083-.79,1.995-.131Zm-6.981.458-1.995.131-.083-.79,1.994-.131Zm-6.981.458-1.995.131-.083-.79,1.995-.131Zm-6.981.458-1.995.131-.082-.79,1.995-.131Zm-6.981.458-1.995.131-.083-.79,1.995-.131Zm-6.981.458-1.995.131-.083-.79,1.994-.131Zm-6.981.458-1.995.131-.083-.79,1.995-.131Zm-6.982.458-1.995.131-.083-.79,1.995-.131Zm-6.981.458-1.995.131-.082-.79,1.995-.131Zm-6.981.458-1.995.131-.083-.79,1.995-.131Zm-6.982.458-1.995.131-.083-.79,1.995-.131Zm-6.981.458-1.995.131-.083-.79,1.994-.131Zm-6.981.458-1.994.131-.083-.79,1.995-.131Zm-6.981.458-1.995.131-.083-.79,1.994-.131Zm-6.981.458-1.995.131-.082-.79,1.995-.131Zm-6.981.458-1.995.131-.083-.79,1.995-.131Zm-6.981.458-1.995.131-.082-.79,1.995-.131Zm-6.981.458-1.995.131-.083-.79,1.995-.131Zm-6.982.458-1.995.131-.083-.79,1.995-.131Zm-6.981.458-1.995.131-.082-.79,1.995-.131Zm-6.981.458-1.995.131-.083-.79,1.995-.131Zm-6.981.458-1.994.131-.083-.79,1.994-.131Zm-6.981.458-1.995.131-.082-.79,1.995-.131Zm-6.982.458-1.995.131-.083-.79,1.995-.131Zm-6.981.458-1.994.131-.083-.79,1.995-.131Zm-6.981.458-1.995.131-.082-.79,1.995-.131Zm-6.982.458-1.995.131-.083-.79,1.995-.131Zm-6.982.458-1.995.131-.083-.79,1.995-.131Zm-6.981.458-1.995.131-.083-.79,1.995-.131Zm-6.981.458-1.995.131-.082-.79,1.995-.131Zm-6.982.458-1.995.131-.083-.79,1.995-.131Zm-6.981.458-1.995.131-.083-.79,1.994-.131ZM359.66,908l-1.995.131-.082-.79,1.995-.131Zm-6.981.458-1.995.131-.083-.79,1.995-.131Zm-6.981.458-1.995.131-.083-.79,1.995-.131Zm-6.981.458-1.995.131-.083-.79,1.995-.131Zm-6.981.458-1.995.131-.083-.79,1.995-.131Zm-6.981.458-1.995.131-.082-.79,1.995-.131Zm-6.982.458-1.995.131-.083-.79,1.995-.131Zm-6.981.458-1.995.131-.083-.79,1.995-.131Zm-6.981.458-1.995.131-.082-.79,1.995-.131Zm-6.982.458-1.995.131-.083-.79,1.995-.131Zm-6.981.458-1.995.131-.083-.79,1.995-.131Zm-6.981.458-1.995.131-.083-.79,1.995-.131Zm-6.981.458-1.995.131-.083-.79,1.995-.131Zm-6.981.458-1.995.131-.082-.79,1.995-.131Zm-6.982.458-1.995.131-.083-.79,1.995-.131Zm-6.981.458-1.995.131-.083-.79,1.995-.131Zm-6.981.458-1.995.131-.082-.79,1.995-.131Zm-6.982.458-1.995.131-.083-.79,1.995-.131Zm-6.981.458-1.995.131-.083-.79,1.995-.131Zm-6.981.458-1.995.131-.082-.79,1.995-.131Zm-6.982.458-1.995.131-.083-.79,1.995-.131Zm-6.981.458-1.995.131-.082-.79,1.995-.131Zm-6.981.458-1.995.131-.082-.79,1.995-.131Zm-6.981.458-1.995.131-.083-.79,1.995-.131Zm-6.981.458-1.995.131-.082-.79,1.995-.131Zm-6.981.458-1.995.131-.083-.79,1.995-.131Zm-6.981.458-1.995.131-.083-.79,1.995-.131Zm-6.981.458-1.995.131-.082-.79,1.995-.131Zm-6.982.458-1.995.131-.083-.79,1.995-.131Zm-6.982.458-1.995.131-.083-.79,1.995-.131Zm-6.981.458-1.995.131-.083-.79,1.995-.131Zm-6.981.458-1.995.131-.082-.79,1.995-.131Zm-6.982.458-1.995.131-.083-.79,1.995-.131Zm-6.981.458-1.995.131-.083-.79,1.995-.131Zm-6.981.458-1.995.131-.083-.79,1.995-.131Zm-6.981.458-1.995.131-.083-.79,1.995-.131Zm-6.981.458-1.995.131-.082-.79,1.995-.131Zm-6.981.458-1.995.131-.083-.79,1.995-.131Zm-6.981.458-1.995.131-.083-.79,1.995-.131Zm-6.981.458-1.995.131-.082-.79,1.995-.131Zm-6.982.458-1.995.131-.083-.79,1.995-.131Zm-6.981.458-1.995.131-.083-.79,1.995-.131Zm-6.981.458-1.995.131-.082-.79,1.995-.131Zm-6.981.458-1.995.131-.083-.79,1.995-.131Zm-6.981.458-1.995.131-.083-.79,1.995-.131Z" transform="translate(-38.123 -660.849)" fill="#4e93ee"/>
        <path id="Trazado_879362" data-name="Trazado 879362" d="M894.5,1178.633l-1.994.131-.083-.79,1.995-.131Zm-6.981.458-1.994.131-.083-.79,1.995-.131Zm-6.981.458-1.995.131-.083-.79,1.995-.131Zm-6.981.458-1.995.131-.083-.79,1.995-.131Zm-6.981.458-1.995.131-.082-.79,1.994-.131Zm-6.982.458-1.994.131-.083-.79,1.995-.131Zm-6.981.458-1.995.131-.083-.79,1.995-.131Zm-6.981.458-1.995.131-.082-.79,1.995-.131Zm-6.982.458-1.995.131-.083-.79,1.995-.131Zm-6.981.458-1.995.131-.083-.79,1.995-.131Zm-6.981.458-1.995.131-.083-.79,1.995-.131Zm-6.981.458-1.995.131-.082-.79,1.994-.131Zm-6.981.458-1.995.131-.083-.79,1.995-.131Zm-6.981.458-1.995.131-.083-.79,1.995-.131Zm-6.982.458-1.995.131-.083-.79,1.995-.131Zm-6.981.458-1.995.131-.082-.79,1.995-.131Zm-6.982.458-1.995.131-.083-.79,1.995-.131Zm-6.981.458-1.994.131-.083-.79,1.995-.131Zm-6.981.458-1.995.131-.083-.79,1.995-.131Zm-6.982.458-1.995.131-.082-.79,1.995-.131Zm-6.981.458-1.994.131-.083-.79,1.995-.131Zm-6.981.458-1.995.131-.083-.79,1.995-.131Zm-6.981.458-1.995.131-.083-.79,1.995-.131Zm-6.982.458-1.995.131-.082-.79,1.994-.131Zm-6.982.459-1.994.131-.083-.79,1.995-.131Zm-6.981.458-1.995.131-.083-.79,1.995-.131Zm-6.981.458-1.995.131-.083-.79,1.995-.131Zm-6.981.459-1.995.131-.083-.79,1.995-.131Zm-6.982.458-1.994.131-.083-.79,1.995-.131Zm-6.981.458-1.995.131-.082-.79,1.995-.131Zm-6.982.458-1.994.131-.083-.79,1.995-.131Zm-6.981.459-1.995.131-.083-.79,1.995-.131Zm-6.981.458-1.995.131-.083-.79,1.995-.131Zm-6.982.458-1.994.131-.083-.79,1.995-.131Zm-6.981.459-1.995.131-.083-.79,1.995-.131Zm-6.982.458-1.995.131-.083-.79,1.995-.131Zm-6.981.458-1.995.131-.083-.79,1.995-.131Zm-6.981.458-1.995.131-.083-.79,1.995-.131Zm-6.982.458-1.995.131-.083-.79,1.995-.131Zm-6.981.458-1.995.131-.083-.79,1.995-.131Zm-6.981.458-1.995.131-.082-.79,1.994-.131Zm-6.982.458-1.995.131-.083-.79,1.995-.131Zm-6.981.458-1.995.131-.083-.79,1.995-.131Zm-6.981.458-1.995.131-.083-.79,1.995-.131Zm-6.981.458-1.995.131-.082-.79,1.994-.131Zm-6.982.458-1.995.131-.083-.79,1.995-.131Zm-6.981.458-1.995.131-.083-.79,1.995-.131Zm-6.981.458-1.995.131-.082-.79,1.995-.131Zm-6.982.458-1.994.131-.083-.79,1.995-.131Zm-6.981.458-1.995.131-.083-.79,1.995-.131Zm-6.981.458-1.995.131-.083-.79,1.995-.131Zm-6.981.458-1.995.131-.083-.79,1.995-.131Zm-6.981.458-1.994.131-.083-.79,1.995-.131Zm-6.981.458-1.995.131-.083-.79,1.995-.131Zm-6.982.458-1.995.131-.083-.79,1.995-.131Zm-6.981.458-1.995.131-.082-.79,1.994-.131Zm-6.981.458-1.995.131-.083-.79,1.995-.131Zm-6.982.458-1.995.131-.083-.79,1.994-.131Zm-6.981.458-1.995.131-.082-.79,1.995-.131Zm-6.982.458-1.995.131-.083-.79,1.995-.131Zm-6.981.458-1.995.131-.083-.79,1.995-.131Zm-6.981.458-1.995.131-.083-.791,1.995-.131Zm-6.982.458-1.995.131-.083-.79,1.995-.131Zm-6.981.459-1.995.131-.082-.79,1.995-.131Zm-6.981.458-1.995.131-.083-.79,1.995-.131Zm-6.981.458-1.995.131-.083-.79,1.994-.131Zm-6.981.458-1.995.131-.082-.79,1.995-.131Zm-6.982.458-1.995.131-.083-.79,1.995-.131Zm-6.982.458-1.995.131-.083-.79,1.995-.131Zm-6.981.458-1.995.131-.083-.79,1.995-.131Zm-6.981.458-1.995.131-.082-.79,1.995-.131Zm-6.982.458-1.995.131-.083-.79,1.995-.131Zm-6.981.458-1.995.131-.083-.79,1.995-.131Zm-6.981.458-1.995.131-.082-.79,1.994-.131Zm-6.981.458-1.995.131-.083-.79,1.995-.131Zm-6.981.458-1.995.131-.083-.79,1.995-.131Zm-6.981.458-1.995.131-.083-.79,1.995-.131Zm-6.982.458-1.994.131-.083-.79,1.995-.131Zm-6.981.458-1.995.131-.082-.79,1.995-.131Zm-6.982.458-1.995.131-.083-.79,1.995-.131Zm-6.981.458-1.995.131-.083-.79,1.995-.131Zm-6.981.458-1.995.131-.082-.79,1.995-.131Zm-6.981.458-1.995.131-.083-.79,1.995-.131Zm-6.981.458-1.995.131-.083-.79,1.995-.131Zm-6.981.458-1.995.131-.082-.791,1.995-.131Zm-6.982.458-1.995.131-.083-.79L301,1216.8Zm-6.981.459-1.995.131-.082-.79,1.995-.131Zm-6.981.458-1.995.131-.083-.79,1.995-.131Zm-6.981.458-1.995.131-.083-.79,1.995-.131Zm-6.981.458-1.995.131-.082-.79,1.995-.131Zm-6.981.458-1.995.131-.083-.79,1.995-.131Zm-6.981.458-1.995.131-.083-.79,1.995-.131Zm-6.981.458-1.995.131-.082-.79,1.995-.131Zm-6.982.458-1.995.131-.083-.79,1.995-.131Zm-6.981.458-1.995.131-.083-.79,1.995-.131Zm-6.981.458-1.995.131-.082-.79,1.995-.131Zm-6.982.458-1.994.131-.083-.79,1.995-.131Zm-6.981.458-1.995.131-.082-.79,1.995-.131Zm-6.981.458-1.995.131-.083-.79,1.995-.131Zm-6.981.458-1.995.131-.083-.79,1.995-.131Zm-6.981.458-1.995.131-.082-.79,1.995-.131Zm-6.981.458-1.995.131-.083-.79,1.995-.131Zm-6.982.458-1.995.131-.083-.79,1.995-.131Zm-6.981.458-1.995.131-.083-.79,1.995-.131Zm-6.981.458-1.995.131-.082-.79,1.995-.131Zm-6.982.458-1.995.131-.083-.79,1.995-.131Zm-6.981.458-1.995.131-.083-.79,1.995-.131Zm-6.981.458-1.995.131-.082-.79,1.995-.131Zm-6.982.458-1.995.131-.083-.79,1.995-.131Zm-6.981.458-1.995.131-.083-.79,1.995-.131Zm-6.981.458-1.995.131-.083-.79,1.995-.131Zm-6.982.458-1.995.131-.083-.79,1.995-.131Zm-6.981.458-1.995.131-.082-.79,1.995-.131Zm-6.981.458-1.995.131-.083-.79,1.995-.131Zm-6.981.458-1.995.131-.083-.79,1.995-.131Zm-6.981.458-1.995.131-.082-.79,1.995-.131Zm-6.981.458-1.995.131-.083-.79,1.995-.131Zm-6.981.458-1.995.131-.083-.79,1.995-.131Z" transform="translate(-57.185 -890.84)" fill="#4e93ee"/>
        <path id="Trazado_879363" data-name="Trazado 879363" d="M100.81,1535.679l.083.791,1.995-.131-.083-.79Zm6.981-.458.083.79,1.995-.131-.083-.79Zm6.981-.458.083.79,1.995-.131-.083-.79Zm6.981-.458.082.79,1.995-.131-.083-.79Zm6.981-.458.082.79,1.995-.131-.083-.791Zm6.981-.458.082.79,1.995-.131-.082-.79Zm6.981-.458.082.79,1.995-.131-.082-.79Zm6.981-.458.082.79,1.995-.131-.083-.79Zm6.981-.458.083.79,1.995-.131-.082-.79Zm6.981-.458.083.79,1.994-.131-.082-.79Zm6.981-.458.083.79,1.995-.131-.083-.79Zm6.981-.459.083.79,1.995-.131-.083-.79Zm6.981-.458.083.79,1.995-.131-.083-.79Zm6.981-.459.083.791,1.995-.131-.083-.79Zm6.981-.458.083.79,1.995-.131-.083-.79Zm6.981-.458.083.79,1.995-.131-.083-.79Zm6.982-.459.083.79,1.995-.131-.083-.79Zm6.981-.458.083.79,1.995-.131-.083-.79Zm6.981-.458.083.79,1.995-.131-.083-.79Zm6.981-.458.083.79,1.995-.131-.083-.791Zm6.981-.458.082.79,1.995-.131-.083-.79Zm6.981-.458.082.79,1.995-.131-.083-.79Zm6.981-.458.082.79,1.995-.131-.082-.79Zm6.981-.458.083.79,1.995-.131-.082-.79Zm6.982-.458.082.79,1.995-.131-.082-.79Zm6.981-.458.083.79,1.995-.131-.083-.79Zm6.981-.458.083.79,1.995-.131-.082-.79Zm6.981-.458.083.79,1.995-.131-.083-.79Zm6.981-.458.083.79,1.995-.131-.083-.79Zm6.981-.458.083.79,1.995-.131-.083-.79Zm6.982-.458.083.79,1.995-.131-.083-.79Zm6.981-.458.083.79,1.995-.131-.083-.79Zm6.981-.458.083.79,1.995-.131-.083-.79Zm6.981-.458.083.79,1.995-.131-.083-.79Zm6.982-.458.082.79,1.994-.131-.083-.79Zm6.981-.458.082.79,1.995-.131-.083-.79Zm6.981-.458.082.79,1.995-.131-.082-.79Zm6.981-.458.082.79,1.995-.131-.082-.79Zm6.981-.459.082.79,1.995-.131-.083-.79Zm6.981-.458.083.79,1.995-.131-.082-.79Zm6.982-.458.083.79,1.994-.131-.082-.79Zm6.981-.458.083.79,1.995-.131-.083-.79Zm6.981-.458.083.79,1.995-.131-.082-.79Zm6.981-.458.083.79,1.995-.131-.083-.79Zm6.981-.458.083.79,1.995-.131-.083-.79Zm6.981-.458.083.79,1.995-.131-.083-.79Zm6.981-.458.083.79,1.995-.131-.083-.79Zm6.981-.458.083.79,1.994-.131-.083-.79Zm6.981-.458.082.79,1.995-.131-.083-.79Zm6.981-.458.082.79,1.995-.131-.082-.79Zm6.982-.458.083.79,1.995-.131-.083-.79Zm6.981-.458.083.79,1.994-.131-.083-.79Zm6.982-.458.082.79,1.995-.131-.082-.79Zm6.981-.458.083.79,1.995-.131-.082-.79Zm6.981-.458.083.79,1.995-.131-.082-.79Zm6.981-.458.083.79,1.995-.131-.083-.79Zm6.981-.458.082.79,1.995-.131-.083-.79Zm6.981-.458.083.79,1.994-.131-.082-.79Zm6.982-.458.083.79,1.994-.131-.083-.79Zm6.981-.458.083.79,1.995-.131-.083-.79Zm6.981-.458.083.79,1.995-.131-.083-.79Zm6.981-.458.083.79,1.995-.131-.083-.79Zm6.982-.458.083.79,1.995-.131-.083-.791Zm6.981-.458.083.79,1.995-.131-.083-.79Zm6.981-.458.083.79,1.995-.131-.083-.79Zm6.981-.458.083.79,1.994-.131-.083-.79Zm6.982-.458.082.79,1.995-.131-.083-.79Zm6.981-.458.082.79,1.995-.131-.082-.79Zm6.981-.458.083.79,1.995-.131-.082-.79Zm6.982-.458.082.79,1.995-.131-.082-.79Zm6.981-.458.082.79,1.995-.131-.082-.79Zm6.981-.458.083.79,1.995-.131-.082-.79Zm6.981-.458.083.79,1.995-.131-.083-.79Zm6.981-.458.083.79,1.995-.131-.083-.79Zm6.981-.458.083.79,1.995-.131-.083-.79Zm6.982-.458.083.79,1.995-.131-.083-.79Zm6.981-.458.082.79,1.995-.131-.083-.79Zm6.981-.458.083.79,1.995-.131-.082-.79Zm6.982-.458.082.79,1.995-.131-.082-.79Zm6.981-.458.082.79,1.995-.131-.083-.79Zm6.981-.458.083.79,1.995-.131-.082-.79Zm6.981-.458.083.79,1.994-.131-.082-.79Zm6.982-.458.082.79,1.995-.131-.082-.79Zm6.981-.458.083.79,1.995-.131-.082-.79Zm6.981-.458.083.79,1.995-.131-.083-.79Zm6.981-.458.083.79,1.995-.131-.083-.79Zm6.981-.458.083.79,1.995-.131-.083-.79Zm6.981-.458.083.79,1.995-.131-.083-.79Zm6.981-.458.083.79,1.995-.131-.083-.79Zm6.981-.458.083.79,1.995-.131-.083-.79Zm6.981-.458.083.79,1.995-.131-.083-.79Zm6.982-.458.082.79,1.995-.131-.083-.79Zm6.981-.458.082.79,1.995-.131-.082-.79Zm6.981-.458.082.79,1.995-.131-.083-.79Zm6.981-.458.082.79,1.995-.131-.082-.79Zm6.981-.458.083.79,1.995-.131-.083-.79Zm6.981-.458.082.79,1.995-.131-.082-.79Zm6.981-.458.083.79,1.995-.131-.083-.79Zm6.981-.458.083.79,1.995-.131-.083-.79Zm6.981-.458.083.79,1.995-.131-.083-.79Zm6.981-.458.083.79,1.995-.131-.083-.79Zm6.981-.458.083.79,1.995-.131-.083-.79Zm6.982-.458.083.79,1.994-.131-.083-.79Zm6.981-.458.083.79,1.995-.131-.083-.79Zm6.981-.458.083.79,1.995-.131-.083-.79Zm6.981-.458.083.79,1.995-.131-.082-.79Zm6.981-.458.083.79,1.994-.131-.082-.79Zm6.981-.458.083.79,1.995-.131-.083-.79Zm6.981-.458.083.79,1.995-.131-.083-.79Zm6.982-.458.082.79,1.994-.131-.082-.79Zm6.981-.458.083.79,1.994-.131-.082-.79Zm6.981-.458.083.79,1.995-.131-.083-.79Zm6.981-.458.083.79,1.995-.131-.083-.79Zm6.981-.458.083.79,1.994-.131-.083-.79Zm6.981-.458.083.79,1.995-.131-.083-.79Zm6.981-.458.083.79,1.995-.131-.083-.79Zm6.981-.458.083.79,1.995-.131-.083-.79Zm6.981-.458.083.79,1.995-.131-.083-.79Z" transform="translate(-76.246 -1120.826)" fill="#4e93ee"/>
      </g>
      <path id="Trazado_879364" data-name="Trazado 879364" d="M869.1,1058.972a.8.8,0,0,1-.261-.925q.428-1.112.863-2.229a.8.8,0,1,1,1.5.584q-.434,1.113-.861,2.222a.8.8,0,0,1-1.037.46.816.816,0,0,1-.2-.112m2.327-5.923a.8.8,0,0,1-.256-.937q.447-1.107.9-2.215a.8.8,0,0,1,1.483.614q-.455,1.1-.9,2.2a.8.8,0,0,1-1.232.337m2.448-5.871a.8.8,0,0,1-.248-.955q.476-1.1.964-2.192a.8.8,0,0,1,1.465.655q-.485,1.085-.956,2.175a.8.8,0,0,1-1.055.418.822.822,0,0,1-.169-.1m2.622-5.795a.8.8,0,0,1-.237-.981q.515-1.083,1.044-2.157a.8.8,0,1,1,1.439.71q-.524,1.063-1.033,2.135a.8.8,0,0,1-1.069.381.794.794,0,0,1-.145-.088m2.847-5.685a.8.8,0,0,1-.22-1.013q.563-1.061,1.145-2.109a.8.8,0,0,1,1.4.78q-.575,1.035-1.131,2.083a.8.8,0,0,1-1.085.332.773.773,0,0,1-.112-.072m3.129-5.534a.8.8,0,0,1-.2-1.052q.623-1.031,1.267-2.042a.8.8,0,0,1,1.109-.245.792.792,0,0,1,.246,1.108q-.635,1-1.247,2.01a.8.8,0,0,1-1.1.272c-.025-.016-.05-.033-.073-.05m3.465-5.328a.8.8,0,0,1-.169-1.1q.693-.988,1.412-1.951a.8.8,0,0,1,1.123-.163l.007.006a.8.8,0,0,1,.155,1.118q-.7.944-1.384,1.913a.8.8,0,0,1-1.117.2l-.027-.02m3.857-5.053-.026-.021a.8.8,0,0,1-.1-1.13q.773-.929,1.574-1.826a.8.8,0,1,1,1.2,1.068q-.783.878-1.538,1.784a.8.8,0,0,1-1.1.124m4.294-4.685a.824.824,0,0,1-.084-.074.8.8,0,0,1,.007-1.134q.86-.85,1.753-1.664a.8.8,0,1,1,1.081,1.186q-.87.791-1.706,1.619a.8.8,0,0,1-1.051.067m4.756-4.213a.785.785,0,0,1-.143-.14.8.8,0,0,1,.133-1.127c.634-.5,1.285-.991,1.933-1.457a.8.8,0,1,1,.937,1.3q-.954.686-1.876,1.413a.8.8,0,0,1-.984.007m5.217-3.63a.792.792,0,0,1-.2-.22.8.8,0,0,1,.269-1.1c.685-.416,1.391-.823,2.1-1.209a.8.8,0,0,1,.768,1.409c-.687.375-1.371.768-2.035,1.171a.8.8,0,0,1-.9-.049m61.776,43.383-.073-.056a13.112,13.112,0,0,1-1.8-1.646.8.8,0,1,1,1.2-1.071,11.575,11.575,0,0,0,1.577,1.443l.073.056a.8.8,0,1,1-.975,1.275m3.416,2.016a.8.8,0,0,1,.829-1.364c.664.312,1.384.613,2.139.894a.8.8,0,1,1-.56,1.5c-.8-.3-1.556-.615-2.26-.944a.8.8,0,0,1-.147-.09m-7.106-7.046a.8.8,0,0,1-.285-.422,8.849,8.849,0,0,1-.315-2.59.8.8,0,1,1,1.6.037,7.282,7.282,0,0,0,.256,2.123.8.8,0,0,1-1.261.852m13.115,9.085a.8.8,0,0,1,.652-1.423,19.935,19.935,0,0,0,2.264.349.8.8,0,0,1-.147,1.6,21.607,21.607,0,0,1-2.447-.376.8.8,0,0,1-.322-.148m-65.573-50.387a.8.8,0,0,1,.162-1.37c.734-.327,1.486-.64,2.236-.931a.8.8,0,1,1,.581,1.5c-.726.282-1.454.585-2.165.9a.8.8,0,0,1-.814-.1m71.88,50.567a.8.8,0,0,1,.318-1.421,8,8,0,0,0,2.032-.726.8.8,0,0,1,.749,1.42,9.586,9.586,0,0,1-2.441.874.8.8,0,0,1-.658-.147M962.716,1039.4a.8.8,0,0,1-.256-.938,17.923,17.923,0,0,1,1.1-2.239.8.8,0,1,1,1.389.8,16.283,16.283,0,0,0-1,2.036.8.8,0,0,1-1.045.443.79.79,0,0,1-.187-.107m-47.072-37.3a.8.8,0,0,1,.256-1.4c.76-.231,1.546-.448,2.335-.646a.8.8,0,0,1,.391,1.557c-.764.192-1.525.4-2.262.625a.8.8,0,0,1-.721-.131m71.054,49.32a.8.8,0,0,1-.182-1.078,9.368,9.368,0,0,0,.967-1.964.8.8,0,0,1,1.51.545,10.964,10.964,0,0,1-1.135,2.3.8.8,0,0,1-1.111.23c-.017-.011-.033-.022-.048-.033m-64.871-50.784a.8.8,0,0,1,.349-1.428q1.176-.207,2.389-.369a.8.8,0,1,1,.212,1.591q-1.178.157-2.323.359a.8.8,0,0,1-.628-.153m44.223,33.375-.022-.018a.8.8,0,0,1-.111-1.129c.5-.607,1.042-1.222,1.617-1.829a.8.8,0,0,1,1.165,1.1c-.549.58-1.068,1.166-1.542,1.743a.8.8,0,0,1-1.108.129m-37.909-34.1a.8.8,0,0,1,.439-1.438q1.2-.073,2.408-.108a.8.8,0,0,1,.047,1.605q-1.182.034-2.358.1a.8.8,0,0,1-.536-.163m60.418,45.5a.8.8,0,0,1-.313-.707,21.929,21.929,0,0,0,.072-2.3.8.8,0,1,1,1.6-.03,23.536,23.536,0,0,1-.078,2.468.8.8,0,0,1-1.287.569M970.5,1029.474a.79.79,0,0,1-.118-.111.8.8,0,0,1,.078-1.132c.6-.521,1.227-1.042,1.867-1.547a.8.8,0,1,1,.994,1.26c-.619.489-1.227.992-1.806,1.5a.8.8,0,0,1-1.015.033m-36-29.692a.8.8,0,0,1,.5-1.44q1.205.026,2.41.09a.8.8,0,1,1-.086,1.6q-1.178-.063-2.358-.088a.8.8,0,0,1-.47-.164m53.777,39.281a.8.8,0,0,1-.305-.515c-.115-.749-.261-1.521-.432-2.293a.8.8,0,1,1,1.567-.348c.179.807.331,1.613.452,2.4a.8.8,0,0,1-1.281.76m-47.431-38.877a.8.8,0,0,1,.573-1.436q1.2.128,2.391.294a.8.8,0,1,1-.221,1.589q-1.168-.163-2.341-.288a.8.8,0,0,1-.4-.16m34.708,25.423a.793.793,0,0,1-.178-.19.8.8,0,0,1,.218-1.114q1.015-.683,2.038-1.307a.8.8,0,0,1,.836,1.371c-.66.4-1.322.827-1.978,1.268a.8.8,0,0,1-.936-.029m11.22,7.278a.8.8,0,0,1-.273-.385c-.248-.745-.517-1.484-.8-2.195a.8.8,0,1,1,1.489-.6c.3.741.579,1.511.835,2.287a.8.8,0,0,1-1.25.89m-39.642-31.754a.8.8,0,0,1,.643-1.425q1.183.235,2.356.507a.8.8,0,1,1-.364,1.563q-1.147-.266-2.3-.495a.809.809,0,0,1-.331-.15m37.134,25.915a.812.812,0,0,1-.213-.246l-.089-.163c-.341-.656-.692-1.291-1.055-1.913a.8.8,0,1,1,1.386-.808c.378.647.744,1.311,1.088,1.972l.072.129a.8.8,0,0,1-1.189,1.028m-30.963-24.4a.8.8,0,0,1,.717-1.406q1.158.344,2.3.732a.8.8,0,1,1-.516,1.52q-1.112-.378-2.242-.714a.8.8,0,0,1-.259-.132m27.731,19.734a.8.8,0,0,1-.248-.956c-.45-.636-.919-1.262-1.392-1.859a.8.8,0,0,1,1.259-1c.495.625.984,1.279,1.455,1.944.009.013.018.026.026.04.416-.2.829-.383,1.232-.557a.8.8,0,1,1,.635,1.474c-.687.3-1.4.629-2.117.99a.8.8,0,0,1-.849-.079m-21.742-17.613a.8.8,0,0,1,.794-1.379q1.118.462,2.215.97a.8.8,0,0,1-.676,1.457q-1.064-.495-2.152-.944a.793.793,0,0,1-.181-.1m17.647,11.931a.78.78,0,0,1-.1-.087c-.535-.567-1.091-1.127-1.652-1.663a.8.8,0,0,1,1.11-1.16c.58.556,1.156,1.134,1.709,1.721a.8.8,0,0,1-1.071,1.189m-11.921-9.176a.8.8,0,0,1,.877-1.339c.7.387,1.4.8,2.091,1.221a.8.8,0,0,1-.841,1.368c-.667-.411-1.349-.809-2.027-1.183a.866.866,0,0,1-.1-.066m7.253,4.863-.016-.012q-.915-.736-1.862-1.428a.819.819,0,0,1-.174-1.122.8.8,0,0,1,1.121-.175q.978.714,1.923,1.474a.8.8,0,0,1-.991,1.263m14.669,7.659a.8.8,0,0,1,.285-1.414c.165-.043.328-.084.489-.121q.957-.221,1.891-.4a.8.8,0,1,1,.306,1.576q-.907.176-1.832.39-.218.051-.446.111a.8.8,0,0,1-.692-.139m6.257-1.107a.8.8,0,0,1,.4-1.435c.8-.086,1.618-.152,2.418-.194a.8.8,0,0,1,.085,1.6c-.772.041-1.557.1-2.332.187a.8.8,0,0,1-.573-.161m6.346-.207a.8.8,0,0,1,.523-1.439c.805.036,1.621.1,2.426.182a.8.8,0,1,1-.169,1.6c-.772-.082-1.555-.14-2.328-.175a.8.8,0,0,1-.451-.164m51.5,37.981a.841.841,0,0,1-.111-.1q-.794-.89-1.585-1.793a.8.8,0,1,1,1.208-1.057q.785.9,1.574,1.78a.8.8,0,0,1-1.085,1.173m-4.185-4.787a.781.781,0,0,1-.121-.115l-1.555-1.809a.8.8,0,1,1,1.217-1.046l1.554,1.808a.8.8,0,0,1-1.1,1.161m-41.018-32.393a.8.8,0,0,1,.653-1.423c.787.166,1.582.361,2.364.58a.8.8,0,1,1-.43,1.546c-.75-.209-1.513-.4-2.266-.555a.8.8,0,0,1-.321-.147m36.875,27.568a.811.811,0,0,1-.121-.114q-.777-.9-1.558-1.8a.8.8,0,0,1,1.212-1.052q.783.9,1.562,1.806a.8.8,0,0,1-1.1,1.161m-4.187-4.788a.836.836,0,0,1-.112-.1q-.791-.888-1.591-1.764a.8.8,0,0,1,1.186-1.082q.806.883,1.6,1.778a.8.8,0,0,1-1.086,1.172m-26.609-20.956a.8.8,0,0,1,.779-1.385c.744.29,1.5.609,2.237.947a.8.8,0,0,1-.666,1.46c-.713-.326-1.438-.632-2.154-.911a.8.8,0,0,1-.2-.111m22.3,16.279a.833.833,0,0,1-.092-.082q-.823-.857-1.656-1.7a.8.8,0,0,1,1.138-1.133q.844.849,1.676,1.717a.8.8,0,0,1-1.066,1.193m-16.566-13.541a.8.8,0,0,1,.884-1.335c.684.387,1.383.806,2.079,1.244a.8.8,0,1,1-.856,1.358c-.674-.425-1.351-.831-2.013-1.206a.771.771,0,0,1-.093-.061m12.042,9.068c-.02-.016-.04-.032-.06-.05q-.868-.808-1.751-1.589a.8.8,0,0,1-.07-1.132.791.791,0,0,1,1.133-.07q.9.794,1.782,1.616a.8.8,0,0,1-1.034,1.225m-6.713-5.6a.8.8,0,0,1,.963-1.284c.377.277.753.561,1.124.844q.4.306.8.621a.8.8,0,1,1-1,1.258c-.286-.227-.572-.447-.863-.671q-.5-.385-1.011-.758l-.013-.01" transform="translate(-624.781 -669.97)" fill="#1f3b5f"/>
      <path id="Trazado_879365" data-name="Trazado 879365" d="M263.352,23.251q-.767.783-1.56,1.547a.73.73,0,0,1-1.013-1.05q.778-.749,1.53-1.518a.73.73,0,0,1,1.055,1.009l-.012.012m1.47-2.615a.729.729,0,0,1-.062-1.03q.717-.807,1.4-1.633a.729.729,0,1,1,1.122.931q-.7.844-1.432,1.67l-.014.014a.729.729,0,0,1-1.016.047M259.1,27.279q-.82.726-1.661,1.434A.73.73,0,0,1,256.5,27.6q.827-.7,1.636-1.411a.729.729,0,0,1,1.016,1.044.637.637,0,0,1-.051.049m9.421-11.11a.73.73,0,0,1-.156-1.02q.638-.869,1.238-1.756a.729.729,0,1,1,1.208.817q-.615.91-1.27,1.8a.8.8,0,0,1-.056.067.729.729,0,0,1-.964.089M254.6,31.013q-.864.675-1.742,1.33a.73.73,0,0,1-.873-1.169q.867-.647,1.719-1.311a.729.729,0,0,1,.982,1.073.711.711,0,0,1-.085.077m-4.708,3.465q-.9.627-1.81,1.235a.729.729,0,1,1-.811-1.212q.9-.6,1.788-1.22a.729.729,0,0,1,.95,1.1.7.7,0,0,1-.117.1m-4.88,3.216q-.932.582-1.867,1.145a.729.729,0,0,1-.753-1.25q.926-.557,1.848-1.132a.729.729,0,0,1,.919,1.117.722.722,0,0,1-.147.121m-5.021,2.98q-.958.54-1.916,1.058a.729.729,0,0,1-.7-1.283q.946-.512,1.9-1.047a.729.729,0,0,1,.89,1.134.716.716,0,0,1-.175.138m-5.147,2.751q-.984.5-1.961.974a.729.729,0,1,1-.638-1.311q.965-.47,1.939-.963a.729.729,0,1,1,.66,1.3m-5.273,2.515q-1,.442-2.013.866A.73.73,0,0,1,227,45.459q1-.418,1.985-.853a.729.729,0,0,1,.828,1.165.722.722,0,0,1-.238.168m-5.412,2.21q-1.026.382-2.063.744a.729.729,0,1,1-.479-1.378q1.021-.355,2.032-.733a.73.73,0,0,1,.511,1.367m-5.543,1.875q-1.051.319-2.11.61a.73.73,0,0,1-.387-1.407q1.041-.286,2.074-.6a.729.729,0,1,1,.423,1.4m-5.659,1.5q-1.075.244-2.151.457a.729.729,0,0,1-.283-1.431q1.055-.209,2.11-.448a.729.729,0,1,1,.324,1.423M207.2,52.6q-1.095.157-2.185.276a.729.729,0,1,1-.158-1.45q1.065-.116,2.136-.27A.729.729,0,0,1,207.2,52.6m-5.847.555q-1.1.046-2.206.049a.729.729,0,1,1-.006-1.458q1.074,0,2.151-.048a.729.729,0,0,1,.061,1.458m-5.875-.051q-1.1-.061-2.193-.159a.729.729,0,1,1,.128-1.453q1.072.094,2.146.155a.729.729,0,1,1-.082,1.456m-5.83-.567q-1.085-.146-2.168-.319a.73.73,0,0,1,.229-1.441q1.066.17,2.134.314a.73.73,0,1,1-.2,1.446M63.651,181.494a.729.729,0,0,1-.077-1.029q.5-.582.987-1.192.181-.227.353-.458a.73.73,0,1,1,1.17.873q-.187.25-.381.495-.5.632-1.022,1.235l-.021.023a.729.729,0,0,1-1.008.054m-1.515,2.6c-.54.517-1.094,1.017-1.649,1.487a.729.729,0,1,1-.942-1.114c.532-.45,1.065-.929,1.583-1.426a.729.729,0,0,1,1.038,1.024l-.029.029m-4.6,3.728c-.619.419-1.252.819-1.882,1.186a.73.73,0,1,1-.735-1.26c.6-.351,1.207-.733,1.8-1.134a.73.73,0,0,1,.943,1.1.742.742,0,0,1-.124.106m9.514-11a.73.73,0,0,1-.336-.975,19.946,19.946,0,0,0,.815-1.922.729.729,0,0,1,1.371.5,21.643,21.643,0,0,1-.874,2.062.718.718,0,0,1-.123.179.73.73,0,0,1-.852.158M183.882,51.587q-1.072-.206-2.144-.43a.73.73,0,0,1,.3-1.428q1.061.221,2.122.426a.729.729,0,1,1-.276,1.432M52.351,190.7c-.681.3-1.379.571-2.075.815a.729.729,0,0,1-.483-1.376c.662-.232,1.326-.494,1.974-.776a.729.729,0,0,1,.584,1.337m16.683-19.283a.729.729,0,0,1-.574-.857c.131-.669.241-1.372.324-2.09a.729.729,0,0,1,1.449.169c-.088.756-.2,1.5-.343,2.2a.728.728,0,0,1-.857.574M46.7,192.517c-.727.155-1.467.283-2.2.379a.729.729,0,1,1-.191-1.446c.7-.092,1.4-.213,2.087-.36a.73.73,0,0,1,.3,1.427M178.181,50.378q-1.063-.243-2.125-.495a.729.729,0,1,1,.336-1.419q1.055.249,2.114.492a.73.73,0,0,1-.325,1.423M69.719,165.664a.73.73,0,0,1-.725-.734c0-.7-.009-1.415-.042-2.138a.729.729,0,1,1,1.457-.065c.034.746.048,1.491.043,2.213a.729.729,0,0,1-.734.724M40.788,193.139c-.738,0-1.488-.031-2.23-.091a.729.729,0,1,1,.117-1.454c.7.056,1.415.086,2.115.086a.729.729,0,1,1,0,1.459m28.679-33.268a.73.73,0,0,1-.81-.639q-.124-1.058-.289-2.134a.729.729,0,1,1,1.442-.22q.168,1.1.3,2.183a.729.729,0,0,1-.639.81M172.522,49.033l-2.116-.515a.73.73,0,1,1,.344-1.418l2.118.515a.729.729,0,1,1-.346,1.417M34.878,192.5c-.719-.154-1.446-.339-2.161-.55a.729.729,0,0,1,.412-1.4c.681.2,1.372.376,2.055.524a.729.729,0,1,1-.307,1.425M68.6,154.129a.729.729,0,0,1-.859-.571q-.212-1.049-.453-2.113a.73.73,0,0,1,1.423-.321q.243,1.08.459,2.146a.728.728,0,0,1-.571.859M166.881,47.672q-1.06-.25-2.119-.492a.729.729,0,1,1,.325-1.422q1.064.243,2.129.494a.729.729,0,0,1-.335,1.42M29.23,190.685c-.673-.291-1.349-.612-2.01-.954a.73.73,0,0,1,.671-1.3c.632.327,1.278.634,1.919.912a.729.729,0,1,1-.58,1.338m38.091-42.223a.73.73,0,0,1-.889-.524q-.268-1.043-.556-2.095a.729.729,0,1,1,1.407-.385q.29,1.063.562,2.116a.73.73,0,0,1-.524.889M161.229,46.41q-1.064-.22-2.128-.423a.729.729,0,1,1,.272-1.433q1.077.2,2.151.428a.729.729,0,1,1-.3,1.428M135.012,72.071a15.376,15.376,0,0,1-1.752,1.465.729.729,0,1,1-.851-1.184,13.962,13.962,0,0,0,1.585-1.327.729.729,0,0,1,1.042,1.02l-.024.025m1.356-2.738a.728.728,0,0,1-.267-1,11.236,11.236,0,0,0,.854-1.852.729.729,0,1,1,1.375.486,12.539,12.539,0,0,1-.966,2.094.7.7,0,0,1-.1.135.729.729,0,0,1-.9.133m-6.419,6.044a16.74,16.74,0,0,1-2.156.725.73.73,0,1,1-.369-1.412,15.346,15.346,0,0,0,1.968-.661A.729.729,0,0,1,130.2,75.2a.718.718,0,0,1-.254.175M24.029,187.852c-.6-.4-1.211-.829-1.811-1.28a.729.729,0,1,1,.876-1.166c.577.433,1.163.847,1.741,1.231a.73.73,0,0,1,.2,1.011.745.745,0,0,1-.075.1.73.73,0,0,1-.936.109m41.764-44.995a.73.73,0,0,1-.906-.494q-.3-1.039-.621-2.083a.73.73,0,0,1,1.4-.422q.317,1.049.624,2.094a.73.73,0,0,1-.495.905m89.756-97.485q-1.071-.166-2.14-.306a.73.73,0,0,1,.188-1.447q1.087.142,2.174.311a.73.73,0,0,1-.223,1.442m-17.27,18.534a.73.73,0,0,1-.711-.748c.006-.222,0-.446,0-.653-.028-.464-.078-.929-.149-1.383a.729.729,0,0,1,1.441-.225c.079.5.134,1.011.165,1.54.009.255.01.509,0,.759a.731.731,0,0,1-.748.711m-14.248,12.71a14.044,14.044,0,0,1-2.286-.155.73.73,0,1,1,.219-1.443,12.472,12.472,0,0,0,2.048.139.73.73,0,1,1,.019,1.459M64.115,137.293a.729.729,0,0,1-.914-.479q-.324-1.037-.652-2.076a.729.729,0,1,1,1.391-.439q.329,1.041.654,2.081a.729.729,0,0,1-.479.913M19.375,184.216q-.227-.206-.452-.417-.577-.539-1.147-1.112a.729.729,0,0,1-.017-1.012l.019-.019a.729.729,0,0,1,1.031,0q.553.554,1.11,1.075.218.2.437.4a.73.73,0,0,1,.05,1.03l-.007.008a.73.73,0,0,1-1.023.042m130.46-139.53q-1.073-.087-2.147-.138a.73.73,0,0,1,.07-1.458q1.1.053,2.2.142a.729.729,0,1,1-.118,1.453M137.427,58.2a.73.73,0,0,1-.957-.385,14.617,14.617,0,0,0-.947-1.841.73.73,0,0,1,1.247-.757,16.069,16.069,0,0,1,1.042,2.026.731.731,0,0,1-.385.957M118.081,75.32a11.555,11.555,0,0,1-1.962-1.235.729.729,0,1,1,.9-1.149,10.058,10.058,0,0,0,1.713,1.078.729.729,0,0,1-.649,1.306m26.031-30.83q-1.07.016-2.142.076a.729.729,0,0,1-.083-1.455q1.1-.064,2.2-.079a.73.73,0,0,1,.021,1.459M62.37,131.748a.73.73,0,0,1-.916-.475L60.8,129.2a.729.729,0,1,1,1.391-.437l.654,2.074a.729.729,0,0,1-.474.916M16.312,180.057a.728.728,0,0,1-1.028-.082q-.706-.828-1.394-1.712a.729.729,0,0,1,1.15-.9q.67.859,1.354,1.663a.729.729,0,0,1-.022.97.673.673,0,0,1-.061.058m118.133-126.8a.729.729,0,0,1-1.031-.03c-.276-.293-.563-.578-.858-.855q-.322-.3-.661-.591a.729.729,0,0,1-.08-1.028.743.743,0,0,1,1.028-.08q.363.31.71.634.477.447.923.919a.73.73,0,0,1,0,1l-.033.033M114.539,71.448a.73.73,0,0,1-1.013-.2,15.072,15.072,0,0,1-1.132-1.983.729.729,0,0,1,1.32-.621,13.6,13.6,0,0,0,1.022,1.789.729.729,0,0,1-.072.9.722.722,0,0,1-.126.108M138.418,44.9c-.709.094-1.42.206-2.114.331a.73.73,0,0,1-.259-1.436c.716-.13,1.449-.245,2.18-.342a.729.729,0,0,1,.193,1.446M60.635,126.2a.729.729,0,0,1-.91-.484q-.321-1.049-.631-2.092a.729.729,0,1,1,1.4-.415q.309,1.037.627,2.081a.729.729,0,0,1-.484.91m-47.894,49.28a.73.73,0,0,1-1.014-.194q-.609-.9-1.2-1.845a.729.729,0,1,1,1.236-.776q.58.924,1.175,1.8a.73.73,0,0,1-.07.908.773.773,0,0,1-.123.106M129.054,49.706c-.588-.367-1.208-.72-1.84-1.05a.727.727,0,0,1-.387-.563q-.341.147-.681.3t-.663.309a.729.729,0,0,1-.635-1.313q.35-.17.7-.327.664-.3,1.328-.573a.73.73,0,0,1,.985.859l.028.014c.666.348,1.318.72,1.937,1.106a.731.731,0,0,1,.233,1.006.708.708,0,0,1-.087.112.728.728,0,0,1-.919.12m3.774-3.7c-.7.186-1.386.388-2.05.6a.73.73,0,1,1-.447-1.389c.688-.221,1.4-.43,2.12-.623a.73.73,0,0,1,.377,1.41m-20.7,20.208a.729.729,0,0,1-.815-.633,11.47,11.47,0,0,1-.052-2.32.73.73,0,0,1,1.455.115,9.929,9.929,0,0,0,.045,2.022.729.729,0,0,1-.633.815M58.983,120.633a.729.729,0,0,1-.9-.507q-.3-1.06-.572-2.114a.729.729,0,0,1,1.411-.37q.274,1.042.567,2.093a.729.729,0,0,1-.17.694.721.721,0,0,1-.337.2M112.557,60.49a.729.729,0,0,1-.406-.948,15.649,15.649,0,0,1,1-2.047.729.729,0,0,1,1.261.734,14.243,14.243,0,0,0-.911,1.856.7.7,0,0,1-.144.227.729.729,0,0,1-.8.179m9.827-10.068c-.6.382-1.2.784-1.757,1.2a.729.729,0,0,1-.863-1.175c.589-.432,1.208-.854,1.841-1.255a.729.729,0,0,1,.923,1.114.743.743,0,0,1-.144.119M9.653,170.572a.729.729,0,0,1-.991-.285q-.525-.949-1.034-1.941a.73.73,0,0,1,1.3-.667q.5.972,1.013,1.9a.73.73,0,0,1-.285.991M123.982,47.2c-.656-.254-1.333-.491-2.012-.706a.73.73,0,0,1,.44-1.391c.707.224,1.413.472,2.1.736a.73.73,0,0,1-.526,1.361m-6.064,6.681q-.77.735-1.459,1.523l-.018.02a.729.729,0,0,1-1.082-.977c.487-.562,1.006-1.1,1.551-1.62a.729.729,0,0,1,1.037,1.025l-.03.03m-60.41,61.131a.73.73,0,0,1-.875-.546q-.251-1.078-.471-2.143a.729.729,0,0,1,1.428-.3q.217,1.048.464,2.11a.73.73,0,0,1-.546.875M7,165.411a.729.729,0,0,1-.966-.361q-.449-.986-.884-2.01a.73.73,0,0,1,1.344-.57q.426,1.007.867,1.975a.729.729,0,0,1-.131.8.719.719,0,0,1-.231.166M118.53,45.587c-.7-.149-1.407-.279-2.1-.385a.729.729,0,0,1,.22-1.442c.721.11,1.455.245,2.183.4a.729.729,0,1,1-.3,1.427m-62.2,63.739a.73.73,0,0,1-.835-.606q-.175-1.1-.309-2.182a.729.729,0,1,1,1.448-.178q.13,1.054.3,2.13a.729.729,0,0,1-.606.835M112.9,44.839c-.723-.036-1.438-.046-2.125-.032a.729.729,0,1,1-.031-1.459c.722-.015,1.472,0,2.229.034a.729.729,0,1,1-.073,1.457M55.631,103.564a.729.729,0,0,1-.764-.693c-.037-.758-.054-1.5-.05-2.216a.729.729,0,1,1,1.459.008c0,.686.012,1.4.048,2.136a.729.729,0,0,1-.693.764m51.636-58.422c-.692.112-1.4.246-2.1.4a.729.729,0,1,1-.309-1.425c.726-.158,1.458-.3,2.174-.413a.729.729,0,0,1,.234,1.44M55.676,97.768a.728.728,0,0,1-.636-.812c.093-.759.213-1.5.359-2.2a.73.73,0,1,1,1.429.3c-.138.664-.253,1.366-.34,2.084a.73.73,0,0,1-.812.636m46.038-51.331c-.675.2-1.36.43-2.036.669a.73.73,0,1,1-.487-1.375c.7-.246,1.4-.478,2.1-.689a.729.729,0,1,1,.423,1.4M56.8,92.085a.729.729,0,0,1-.491-.907q.311-1.05.675-2.1a.729.729,0,0,1,1.379.476q-.352,1.024-.656,2.043a.718.718,0,0,1-.166.29.73.73,0,0,1-.741.2M96.351,48.417q-.981.427-1.952.9A.73.73,0,0,1,93.764,48q1-.481,2.006-.918a.729.729,0,1,1,.58,1.338M58.689,86.6a.729.729,0,0,1-.391-.954q.422-1.008.888-2.016a.729.729,0,1,1,1.324.611q-.453.983-.866,1.968a.722.722,0,0,1-.14.216.729.729,0,0,1-.814.175M91.222,50.965q-.935.522-1.857,1.081a.73.73,0,1,1-.756-1.248q.945-.572,1.9-1.107a.729.729,0,0,1,.889,1.134.742.742,0,0,1-.177.139m-30.1,30.364a.73.73,0,0,1-.3-.986q.514-.966,1.063-1.926a.73.73,0,0,1,1.267.725q-.538.939-1.041,1.885a.744.744,0,0,1-.112.157.73.73,0,0,1-.875.146M86.348,53.987q-.886.606-1.759,1.241a.73.73,0,1,1-.859-1.179q.89-.649,1.8-1.267a.729.729,0,0,1,.944,1.1.709.709,0,0,1-.122.1M64,76.293a.729.729,0,0,1-.222-1.008q.59-.922,1.213-1.834a.729.729,0,1,1,1.2.822q-.61.894-1.189,1.8a.7.7,0,0,1-.082.106.729.729,0,0,1-.925.116M81.741,57.414q-.837.675-1.657,1.377a.729.729,0,1,1-.949-1.108q.834-.714,1.689-1.4a.729.729,0,0,1,.992,1.065.653.653,0,0,1-.075.07M67.275,71.494a.73.73,0,0,1-.144-1.021q.659-.876,1.346-1.737a.73.73,0,1,1,1.141.91q-.674.844-1.321,1.7a.688.688,0,0,1-.05.06.73.73,0,0,1-.971.084m10.134-10.3q-.786.738-1.552,1.5a.729.729,0,1,1-1.027-1.036q.779-.772,1.579-1.524a.729.729,0,0,1,1.033,1.029l-.034.034m-6.517,5.764a.729.729,0,0,1-.07-1.029q.72-.826,1.466-1.636l0,0a.729.729,0,0,1,1.069.993q-.732.795-1.44,1.605L71.9,66.9a.729.729,0,0,1-1.012.051" transform="translate(-53.768 -27.64)" fill="#1f3b5f"/>
    </g>
  </g>
</svg>
