<svg xmlns="http://www.w3.org/2000/svg" xmlns:xlink="http://www.w3.org/1999/xlink" width="121" height="121" viewBox="0 0 121 121">
  <defs>
    <clipPath id="clip-path">
      <rect id="Rectángulo_403250" data-name="Rectángulo 403250" width="84" height="84" transform="translate(408 6464)" fill="#fff" stroke="#707070" stroke-width="1"/>
    </clipPath>
  </defs>
  <g id="Grupo_1101885" data-name="Grupo 1101885" transform="translate(-389 -6445)">
    <circle id="Elipse_11630" data-name="Elipse 11630" cx="60.5" cy="60.5" r="60.5" transform="translate(389 6445)" fill="#4e93ee"/>
    <g id="Enmascarar_grupo_1098843" data-name="Enmascarar grupo 1098843" clip-path="url(#clip-path)">
      <g id="fotografo" transform="translate(406.645 6462.645)">
        <g id="Grupo_1102462" data-name="Grupo 1102462">
          <g id="Grupo_1102438" data-name="Grupo 1102438">
            <path id="Trazado_879491" data-name="Trazado 879491" d="M71.806,56.9v5.419H63.677V40.645a20.692,20.692,0,0,1,2.168,1.9c.176.176.366.366.528.555A20.166,20.166,0,0,1,71.806,56.9Z" fill="#b4dd7f"/>
          </g>
          <g id="Grupo_1102439" data-name="Grupo 1102439">
            <path id="Trazado_879492" data-name="Trazado 879492" d="M58.258,37.935V84H39.29A2.718,2.718,0,0,0,42,81.29V70.452a2.713,2.713,0,0,0-1.152-2.208,47.543,47.543,0,0,0,6.435-7.411c1.328-1.829,2.588-3.766,3.766-5.717,4.186-6.964,7.208-14.131,7.208-17.179Z" fill="#b4dd7f"/>
          </g>
          <g id="Grupo_1102440" data-name="Grupo 1102440">
            <path id="Trazado_879493" data-name="Trazado 879493" d="M51.416,36.784l.068-.2c.3,0,.6,0,.894.027a63.567,63.567,0,0,1-6.246,13.6c-1.152,1.951-2.4,3.915-3.712,5.772a43.122,43.122,0,0,1-8.549,9.484V37.746a20.1,20.1,0,0,1,6.774-1.165l.068.2a5.652,5.652,0,0,0,5.352,3.861,5.592,5.592,0,0,0,3.292-1.07A5.722,5.722,0,0,0,51.416,36.784Z" fill="#b4dd7f"/>
          </g>
          <g id="Grupo_1102441" data-name="Grupo 1102441">
            <path id="Trazado_879494" data-name="Trazado 879494" d="M28.452,40.645V62.323H20.323V56.9A20.166,20.166,0,0,1,25.755,43.1c.163-.19.352-.379.528-.555a20.691,20.691,0,0,1,2.168-1.9Z" fill="#b4dd7f"/>
          </g>
          <g id="Grupo_1102442" data-name="Grupo 1102442">
            <path id="Trazado_879495" data-name="Trazado 879495" d="M59.775,24.55a4.057,4.057,0,0,0-.054-5.8l.406-.813a7.728,7.728,0,0,0,.813-3.035H69.1a2.718,2.718,0,0,1,2.71,2.71v8.129a2.718,2.718,0,0,1-2.71,2.71h-14.1a6.918,6.918,0,0,0,.555-2.71H56.9A4.055,4.055,0,0,0,59.775,24.55Z" fill="#ffc729"/>
          </g>
          <g id="Grupo_1102443" data-name="Grupo 1102443">
            <path id="Trazado_879496" data-name="Trazado 879496" d="M35.226,25.742h1.355a6.918,6.918,0,0,0,.555,2.71h-14.1a2.718,2.718,0,0,1-2.71-2.71V17.613a2.718,2.718,0,0,1,2.71-2.71h8.129v.217a6.944,6.944,0,0,0,.366,2.222l.569,1.734a4.07,4.07,0,0,0,3.13,6.666Z" fill="#ffc729"/>
          </g>
          <g id="Grupo_1102444" data-name="Grupo 1102444">
            <path id="Trazado_879497" data-name="Trazado 879497" d="M55.535,6.774l1.043.515a7.921,7.921,0,0,1,4.39,7.1,3.279,3.279,0,0,1-.027.515,7.728,7.728,0,0,1-.813,3.035l-.406.813A4.043,4.043,0,0,0,56.9,17.613H55.548V14.9H50.766a25.571,25.571,0,0,1-11.475-2.71,4.9,4.9,0,0,0-2.71,4.39v1.03H35.226a4.061,4.061,0,0,0-3.13,1.463l-.569-1.734a6.944,6.944,0,0,1-.366-2.222V14.9a6.8,6.8,0,0,1,1.978-4.688l.732-.732A6.754,6.754,0,0,1,40.645,2.71H51.606a3.938,3.938,0,0,1,3.943,3.943.375.375,0,0,1-.014.122Z" fill="#656d78"/>
          </g>
          <g id="Grupo_1102445" data-name="Grupo 1102445">
            <path id="Trazado_879498" data-name="Trazado 879498" d="M63.677,40.645l-5.419-2.9a19.694,19.694,0,0,0-5.88-1.138c-.3-.027-.6-.027-.894-.027l-1.07-4.268a6.718,6.718,0,0,0,4.566-3.861H66.387V43.084l-.014.014c-.163-.19-.352-.379-.528-.555A20.692,20.692,0,0,0,63.677,40.645Z" fill="#fcd770"/>
          </g>
          <g id="Grupo_1102446" data-name="Grupo 1102446">
            <path id="Trazado_879499" data-name="Trazado 879499" d="M33.871,37.746a20.448,20.448,0,0,0-5.419,2.9,20.691,20.691,0,0,0-2.168,1.9c-.176.176-.366.366-.528.555l-.014-.014V28.452H37.15a6.718,6.718,0,0,0,4.566,3.861l-1.07,4.268A20.1,20.1,0,0,0,33.871,37.746Z" fill="#fcd770"/>
          </g>
          <g id="Grupo_1102447" data-name="Grupo 1102447">
            <path id="Trazado_879500" data-name="Trazado 879500" d="M58.258,37.746l5.419,2.9V84H58.258V37.746Z" fill="#969faa"/>
          </g>
          <g id="Grupo_1102448" data-name="Grupo 1102448">
            <path id="Trazado_879501" data-name="Trazado 879501" d="M33.871,65.466a9.472,9.472,0,0,1-5.419,2.276v-27.1a20.448,20.448,0,0,1,5.419-2.9Z" fill="#969faa"/>
          </g>
          <g id="Grupo_1102449" data-name="Grupo 1102449">
            <path id="Trazado_879502" data-name="Trazado 879502" d="M63.677,62.323h8.129V84H63.677Z" fill="#f0d0b4"/>
          </g>
          <g id="Grupo_1102450" data-name="Grupo 1102450">
            <path id="Trazado_879503" data-name="Trazado 879503" d="M28.452,62.323v5.419H20.323V62.323Z" fill="#f0d0b4"/>
          </g>
          <g id="Grupo_1102451" data-name="Grupo 1102451">
            <path id="Trazado_879504" data-name="Trazado 879504" d="M58.258,37.746v.19c0,3.048-3.021,10.215-7.208,17.179l-4.891-4.891-.027-.014a63.567,63.567,0,0,0,6.246-13.6A19.694,19.694,0,0,1,58.258,37.746Z" fill="#cf9e76"/>
          </g>
          <g id="Grupo_1102452" data-name="Grupo 1102452">
            <path id="Trazado_879505" data-name="Trazado 879505" d="M28.452,67.742a9.472,9.472,0,0,0,5.419-2.276,43.122,43.122,0,0,0,8.549-9.484h.014l4.85,4.85a47.543,47.543,0,0,1-6.435,7.411,2.609,2.609,0,0,0-1.558-.5H28.452Z" fill="#cf9e76"/>
          </g>
          <g id="Grupo_1102453" data-name="Grupo 1102453">
            <path id="Trazado_879506" data-name="Trazado 879506" d="M46.159,50.224l4.891,4.891c-1.179,1.951-2.439,3.888-3.766,5.717l-4.85-4.85H42.42c1.314-1.856,2.561-3.821,3.712-5.772Z" fill="#ffeaa7"/>
          </g>
          <g id="Grupo_1102454" data-name="Grupo 1102454">
            <path id="Trazado_879507" data-name="Trazado 879507" d="M33.871,67.742H39.29a2.609,2.609,0,0,1,1.558.5A2.713,2.713,0,0,1,42,70.452V81.29A2.718,2.718,0,0,1,39.29,84H33.871a2.718,2.718,0,0,0,2.71-2.71V70.452A2.718,2.718,0,0,0,33.871,67.742Z" fill="#aab2bd"/>
          </g>
          <g id="Grupo_1102455" data-name="Grupo 1102455">
            <path id="Trazado_879508" data-name="Trazado 879508" d="M28.452,67.742h5.419a2.718,2.718,0,0,1,2.71,2.71V81.29A2.718,2.718,0,0,1,33.871,84H23.032a2.718,2.718,0,0,1-2.71-2.71v-2.71h5.419a5.419,5.419,0,0,0,0-10.839Z" fill="#ccd1d9"/>
          </g>
          <g id="Grupo_1102456" data-name="Grupo 1102456">
            <path id="Trazado_879509" data-name="Trazado 879509" d="M20.323,78.581a5.419,5.419,0,0,0,0-10.839h5.419a5.419,5.419,0,0,1,0,10.839Z" fill="#4fc1e9"/>
          </g>
          <g id="Grupo_1102457" data-name="Grupo 1102457">
            <circle id="Elipse_11687" data-name="Elipse 11687" cx="5.419" cy="5.419" r="5.419" transform="translate(14.903 67.742)" fill="#69d6f4"/>
          </g>
          <g id="Grupo_1102458" data-name="Grupo 1102458">
            <path id="Trazado_879510" data-name="Trazado 879510" d="M59.721,18.751A4.065,4.065,0,0,1,56.9,25.742H55.548V17.613H56.9a4.043,4.043,0,0,1,2.818,1.138Z" fill="#f0d0b4"/>
          </g>
          <g id="Grupo_1102459" data-name="Grupo 1102459">
            <path id="Trazado_879511" data-name="Trazado 879511" d="M50.414,32.313l1.07,4.268-.068.2a5.722,5.722,0,0,1-2.059,2.791,5.592,5.592,0,0,1-3.292,1.07,5.652,5.652,0,0,1-5.352-3.861l-.068-.2,1.07-4.268a6.548,6.548,0,0,0,1.639.2h5.419A6.548,6.548,0,0,0,50.414,32.313Z" fill="#f0d0b4"/>
          </g>
          <g id="Grupo_1102460" data-name="Grupo 1102460">
            <path id="Trazado_879512" data-name="Trazado 879512" d="M50.414,32.313a6.548,6.548,0,0,1-1.639.2H43.355a6.548,6.548,0,0,1-1.639-.2,6.718,6.718,0,0,1-4.566-3.861h-.014a6.918,6.918,0,0,1-.555-2.71V16.583a4.9,4.9,0,0,1,2.71-4.39A25.571,25.571,0,0,0,50.766,14.9h4.783V25.742a6.918,6.918,0,0,1-.555,2.71h-.014a6.718,6.718,0,0,1-4.566,3.861Z" fill="#f0d0b4"/>
          </g>
          <g id="Grupo_1102461" data-name="Grupo 1102461">
            <path id="Trazado_879513" data-name="Trazado 879513" d="M36.581,17.613v8.129H35.226a4.065,4.065,0,1,1,0-8.129Z" fill="#f0d0b4"/>
          </g>
        </g>
        <g id="Grupo_1102463" data-name="Grupo 1102463">
          <circle id="Elipse_11688" data-name="Elipse 11688" cx="1.355" cy="1.355" r="1.355" transform="translate(40.645 17.613)"/>
          <circle id="Elipse_11689" data-name="Elipse 11689" cx="1.355" cy="1.355" r="1.355" transform="translate(48.774 17.613)"/>
          <path id="Trazado_879514" data-name="Trazado 879514" d="M47.419,25.742H42v2.71h5.419a4.069,4.069,0,0,0,4.065-4.065h-2.71A1.355,1.355,0,0,1,47.419,25.742Z"/>
          <circle id="Elipse_11690" data-name="Elipse 11690" cx="1.355" cy="1.355" r="1.355" transform="translate(18.968 71.806)"/>
          <path id="Trazado_879515" data-name="Trazado 879515" d="M69.1,29.806a4.069,4.069,0,0,0,4.065-4.065V17.613A4.069,4.069,0,0,0,69.1,13.548H62.264a9.22,9.22,0,0,0-5.075-7.469l-.362-.18a5.282,5.282,0,0,0-5.215-4.544H40.645A8.138,8.138,0,0,0,32.538,8.9l-.35.35a8.024,8.024,0,0,0-2.24,4.3H23.032a4.069,4.069,0,0,0-4.065,4.065v8.129a4.069,4.069,0,0,0,4.065,4.065h1.355V42.614A21.563,21.563,0,0,0,18.968,56.9v9.621a6.774,6.774,0,0,0,0,13.275V81.29a4.069,4.069,0,0,0,4.065,4.065H73.161V56.9a21.565,21.565,0,0,0-5.419-14.289V29.806Zm1.355-12.194v8.129A1.355,1.355,0,0,1,69.1,27.1H56.9a5.406,5.406,0,0,0,4.425-8.53l.014-.028a9.28,9.28,0,0,0,.776-2.282H69.1a1.357,1.357,0,0,1,1.355,1.356ZM56.9,18.968a2.71,2.71,0,1,1,0,5.419Zm-22.8-7.8,1.122-1.122V9.484a5.425,5.425,0,0,1,5.419-5.419H51.613A2.582,2.582,0,0,1,52.427,9.1l-1.372.458.858,2.569,1.372-.458a5.272,5.272,0,0,0,3.157-2.889,6.527,6.527,0,0,1,3.172,5.609,6.6,6.6,0,0,1-.454,2.379,5.378,5.378,0,0,0-2.256-.507v-2.71H50.769A24.417,24.417,0,0,1,39.9,10.981l-.607-.3-.606.3a6.213,6.213,0,0,0-3.437,5.276h-.022a5.351,5.351,0,0,0-2.432.6A5.92,5.92,0,0,1,32.516,15,5.386,5.386,0,0,1,34.1,11.167ZM62.323,82.645h-2.71V39.792a19.046,19.046,0,0,1,2.71,1.568ZM39.754,37.98a6.976,6.976,0,0,0,9.474,3.265c-3.074,7.026-8.728,16.192-14,21.291v-23.8A18.85,18.85,0,0,1,39.754,37.98ZM47.1,58.728l-2.913-2.913c.767-1.125,1.509-2.272,2.221-3.432L49.322,55.3q-1.069,1.742-2.226,3.426ZM32.516,64.8a9.682,9.682,0,0,1-2.71,1.374V41.359a18.917,18.917,0,0,1,2.71-1.568ZM27.1,66.387H21.677v-2.71H27.1ZM25.742,69.1a4.065,4.065,0,1,1,0,8.129h-.035a6.637,6.637,0,0,0,0-8.129Zm9.09-2.71a42.356,42.356,0,0,0,7.762-8.33l2.9,2.9a45.445,45.445,0,0,1-4.913,5.656,4.014,4.014,0,0,0-1.294-.23Zm7.9,1.924c5.3-5.2,10.938-14.205,14.173-21.423V82.645h-13.8a4.019,4.019,0,0,0,.249-1.355V70.452a4.02,4.02,0,0,0-.625-2.141ZM50.747,52.9,47.83,49.979A67.725,67.725,0,0,0,53.359,38.03a18.774,18.774,0,0,1,3.466.684C56.417,41.5,54.053,47.112,50.747,52.9ZM50.068,36.5a4.269,4.269,0,0,1-8.007,0l.665-2.664c.209.015.417.031.629.031h5.419c.211,0,.42-.016.629-.031Zm-1.294-5.343H43.355a5.425,5.425,0,0,1-5.419-5.419V16.578a3.531,3.531,0,0,1,1.428-2.847,27.166,27.166,0,0,0,11.405,2.527h3.425v9.484A5.425,5.425,0,0,1,48.774,31.161ZM35.226,18.968v5.419a2.71,2.71,0,1,1,0-5.419ZM21.677,25.742V17.613a1.355,1.355,0,0,1,1.355-1.355H29.9a8.4,8.4,0,0,0,.339,1.513l.37,1.108A5.39,5.39,0,0,0,35.226,27.1H23.032a1.355,1.355,0,0,1-1.355-1.355Zm14.649,4.065A8.174,8.174,0,0,0,40.1,33.185l-.516,2.066A21.549,21.549,0,0,0,27.1,40.022V29.806ZM27.1,43.654V60.968H21.677V56.9A18.9,18.9,0,0,1,27.1,43.654ZM16.258,73.161a4.065,4.065,0,1,1,4.065,4.065A4.069,4.069,0,0,1,16.258,73.161Zm16.258,9.484H23.032a1.355,1.355,0,0,1-1.355-1.355V79.935h4.065a6.782,6.782,0,0,0,6.774-6.774,6.7,6.7,0,0,0-1.39-4.065h2.745a1.355,1.355,0,0,1,1.355,1.355V81.29a1.355,1.355,0,0,1-1.355,1.355Zm5.419,0h-.249a4.019,4.019,0,0,0,.249-1.355V70.452a4.019,4.019,0,0,0-.249-1.355h1.6a1.355,1.355,0,0,1,1.355,1.355V81.29a1.355,1.355,0,0,1-1.355,1.355Zm27.1,0V63.677h5.419V82.645Zm5.419-21.677H65.032V43.654A18.9,18.9,0,0,1,70.452,56.9ZM65.032,40.022a21.549,21.549,0,0,0-12.485-4.77l-.516-2.066A8.167,8.167,0,0,0,55.8,29.806h9.229Z"/>
        </g>
      </g>
    </g>
  </g>
</svg>
