<svg xmlns="http://www.w3.org/2000/svg" xmlns:xlink="http://www.w3.org/1999/xlink" width="121" height="121" viewBox="0 0 121 121">
  <defs>
    <clipPath id="clip-path">
      <rect id="Rectángulo_403250" data-name="Rectángulo 403250" width="84" height="84" transform="translate(408 6464)" fill="#fff" stroke="#707070" stroke-width="1"/>
    </clipPath>
  </defs>
  <g id="Grupo_1102019" data-name="Grupo 1102019" transform="translate(-389 -6445)">
    <circle id="Elipse_11630" data-name="Elipse 11630" cx="60.5" cy="60.5" r="60.5" transform="translate(389 6445)" fill="#4e93ee"/>
    <g id="Enmascarar_grupo_1098799" data-name="Enmascarar grupo 1098799" clip-path="url(#clip-path)">
      <g id="analisis-de-redes-sociales" transform="translate(400.762 6456.762)">
        <path id="Trazado_878484" data-name="Trazado 878484" d="M20.188,81.932V71.346a2.128,2.128,0,0,1,3.25-1.822l8.518,5.268a2.122,2.122,0,0,1,0,3.644l-8.518,5.318A2.136,2.136,0,0,1,20.188,81.932ZM85.034,74.6H81.489a9.554,9.554,0,0,1-8.075,14.624H54.556A9.534,9.534,0,0,1,46.53,74.6H39v9.9a4.686,4.686,0,0,1-4.678,4.727H18.858a4.686,4.686,0,0,1-4.678-4.727V74.6h-.739a6.252,6.252,0,0,1-6.2-6.253V15.51a6.252,6.252,0,0,1,6.2-6.253H85.034a6.252,6.252,0,0,1,6.2,6.253V68.49A6.255,6.255,0,0,1,85.034,74.6ZM77.8,74.349c-3.644-2.511-4.53-.837-5.416-2.117a1.463,1.463,0,0,1-.246-1.182l1.231-3.594-9.552,5.17a1.363,1.363,0,0,1-.64.148H54.654a6.894,6.894,0,1,0-.1,13.787H73.414A6.89,6.89,0,0,0,77.8,74.349Zm1.182-2.413h6.056a3.6,3.6,0,0,0,3.594-3.5V24.373H9.848v43.97a3.583,3.583,0,0,0,3.594,3.594h.739v-3.2a4.675,4.675,0,0,1,4.678-4.678H34.319A4.707,4.707,0,0,1,39,68.736v3.2h10a9.838,9.838,0,0,1,5.564-1.773h8.272l12.211-6.6a1.3,1.3,0,0,1,1.871,1.526l-1.723,5.219A10.073,10.073,0,0,1,78.978,71.937ZM9.848,21.763H88.628V15.51a3.615,3.615,0,0,0-3.594-3.594H13.442A3.615,3.615,0,0,0,9.848,15.51Zm9.158-3.644H14.821a1.305,1.305,0,1,1,0-2.61h4.185A1.3,1.3,0,0,1,19.006,18.12Zm10.192,0H24.964a1.3,1.3,0,0,1,0-2.61H29.2A1.3,1.3,0,0,1,29.2,18.12Zm6.6,40.917h-7.14a1.3,1.3,0,0,1-1.28-1.28V45.3a4.875,4.875,0,0,1,9.749,0V57.756A1.314,1.314,0,0,1,35.8,59.036Zm-5.81-2.61h4.53V45.3c0-2.954-4.53-2.954-4.53,0ZM22.6,59.036h-7.14a1.3,1.3,0,0,1-1.28-1.28V40.375a4.875,4.875,0,1,1,9.749,0V57.756A1.314,1.314,0,0,1,22.6,59.036Zm-5.81-2.61h4.53V40.375c0-2.954-4.53-2.954-4.53,0Zm32.349,2.61h-7.09a1.314,1.314,0,0,1-1.329-1.28V50.223a4.875,4.875,0,1,1,9.749,0v7.533A1.314,1.314,0,0,1,49.14,59.036Zm-5.81-2.61h4.53v-6.2c0-2.954-4.53-2.954-4.53,0Zm38.307,1.822H66.077a1.3,1.3,0,0,1,0-2.61H81.637A1.3,1.3,0,0,1,81.637,58.249Zm0-6.3H55.54a1.3,1.3,0,0,1,0-2.61h26.1A1.3,1.3,0,0,1,81.637,51.946Zm-20.385,6.3H55.54a1.3,1.3,0,0,1,0-2.61h5.712A1.3,1.3,0,0,1,61.252,58.249Zm-3.3-26.539H31.808a1.3,1.3,0,0,1,0-2.61H57.953A1.3,1.3,0,0,1,57.953,31.709Zm0,5.909H41.163a1.3,1.3,0,0,1,0-2.61h16.79A1.3,1.3,0,0,1,57.953,37.618Zm15.313,8.567c-3.841-3.841-7.829-7.78-7.829-12.063A5.032,5.032,0,0,1,74.2,30.774a5.032,5.032,0,0,1,8.764,3.348c0,4.284-3.988,8.223-7.829,12.063A1.28,1.28,0,0,1,73.266,46.185ZM70.509,31.709A2.417,2.417,0,0,0,68.1,34.122c0,2.905,2.954,6.106,6.106,9.306,3.151-3.2,6.155-6.4,6.155-9.306a2.417,2.417,0,0,0-2.413-2.413c-2.61,0-1.97,2.807-3.742,2.807S73.069,31.709,70.509,31.709ZM66.471,45.89H55.54a1.3,1.3,0,0,1,0-2.61H66.471A1.3,1.3,0,0,1,66.471,45.89ZM18.858,66.668a2.08,2.08,0,0,0-2.068,2.068V84.492a2.08,2.08,0,0,0,2.068,2.068H34.319a2.049,2.049,0,0,0,2.068-2.068V68.736a2.08,2.08,0,0,0-2.068-2.068Zm3.988,5.515v8.863l7.09-4.431Z" fill-rule="evenodd"/>
        <path id="Trazado_878485" data-name="Trazado 878485" d="M68.1,34.122c0,2.905,2.954,6.106,6.106,9.306,3.151-3.2,6.155-6.4,6.155-9.306a2.417,2.417,0,0,0-2.413-2.413c-2.61,0-1.97,2.807-3.742,2.807s-1.132-2.807-3.693-2.807A2.417,2.417,0,0,0,68.1,34.122Z" fill="#fff" fill-rule="evenodd"/>
        <path id="Trazado_878486" data-name="Trazado 878486" d="M9.848,21.763H88.628V15.51a3.615,3.615,0,0,0-3.594-3.594H13.442A3.615,3.615,0,0,0,9.848,15.51ZM29.2,15.51a1.3,1.3,0,0,1,0,2.61H24.964a1.3,1.3,0,0,1,0-2.61Zm-10.192,0a1.3,1.3,0,0,1,0,2.61H14.821a1.305,1.305,0,1,1,0-2.61Z" fill="#b8d4f8" fill-rule="evenodd"/>
        <path id="Trazado_878487" data-name="Trazado 878487" d="M88.628,24.373H9.848v43.97a3.583,3.583,0,0,0,3.594,3.594h.739v-3.2a4.675,4.675,0,0,1,4.678-4.678H34.319A4.707,4.707,0,0,1,39,68.736v3.2h10a9.838,9.838,0,0,1,5.564-1.773h8.272l12.211-6.6a1.3,1.3,0,0,1,1.871,1.526l-1.723,5.219a10.073,10.073,0,0,1,3.791,1.625h6.056a3.6,3.6,0,0,0,3.594-3.5ZM57.953,35.008a1.3,1.3,0,0,1,0,2.61H41.163a1.3,1.3,0,0,1,0-2.61ZM45.594,45.348a4.886,4.886,0,0,1,4.875,4.875v7.533a1.314,1.314,0,0,1-1.329,1.28h-7.09a1.314,1.314,0,0,1-1.329-1.28V50.223A4.886,4.886,0,0,1,45.594,45.348ZM37.125,45.3V57.756a1.314,1.314,0,0,1-1.329,1.28h-7.14a1.3,1.3,0,0,1-1.28-1.28V45.3a4.875,4.875,0,0,1,9.749,0Zm-13.2-4.924V57.756a1.314,1.314,0,0,1-1.329,1.28h-7.14a1.3,1.3,0,0,1-1.28-1.28V40.375a4.875,4.875,0,1,1,9.749,0Zm41.508-6.253A5.032,5.032,0,0,1,74.2,30.774a5.032,5.032,0,0,1,8.764,3.348c0,4.284-3.988,8.223-7.829,12.063a1.28,1.28,0,0,1-1.871,0C69.426,42.345,65.437,38.406,65.437,34.122Zm-9.9,15.215h26.1a1.3,1.3,0,0,1,0,2.61H55.54A1.3,1.3,0,0,1,55.54,49.336Zm10.537,6.3H81.637a1.3,1.3,0,0,1,0,2.61H66.077A1.3,1.3,0,0,1,66.077,55.639ZM55.54,43.28H66.471a1.3,1.3,0,0,1,0,2.61H55.54A1.3,1.3,0,0,1,55.54,43.28Zm0,12.359h5.712a1.3,1.3,0,0,1,0,2.61H55.54A1.3,1.3,0,0,1,55.54,55.639ZM57.953,29.1a1.3,1.3,0,0,1,0,2.61H31.808a1.3,1.3,0,0,1,0-2.61Z" fill="#ffe69c" fill-rule="evenodd"/>
        <path id="Trazado_878488" data-name="Trazado 878488" d="M47.859,50.223c0-2.954-4.53-2.954-4.53,0v6.2h4.53Z" fill="#ff8300" fill-rule="evenodd"/>
        <path id="Trazado_878489" data-name="Trazado 878489" d="M34.516,56.427V45.3c0-2.954-4.53-2.954-4.53,0V56.427Z" fill="#0cf" fill-rule="evenodd"/>
        <path id="Trazado_878490" data-name="Trazado 878490" d="M21.32,56.427V40.375c0-2.954-4.53-2.954-4.53,0V56.427Z" fill="#7fde4d" fill-rule="evenodd"/>
        <path id="Trazado_878491" data-name="Trazado 878491" d="M29.937,76.614l-7.09-4.431v8.863Z" fill="#ff8300" fill-rule="evenodd"/>
        <path id="Trazado_878492" data-name="Trazado 878492" d="M23.437,69.524l8.518,5.268a2.122,2.122,0,0,1,0,3.644l-8.518,5.318a2.136,2.136,0,0,1-3.25-1.822V71.346A2.128,2.128,0,0,1,23.437,69.524Zm12.95-.788a2.08,2.08,0,0,0-2.068-2.068H18.858a2.08,2.08,0,0,0-2.068,2.068V84.492a2.08,2.08,0,0,0,2.068,2.068H34.319a2.049,2.049,0,0,0,2.068-2.068Z" fill="#fff" fill-rule="evenodd"/>
        <path id="Trazado_878493" data-name="Trazado 878493" d="M54.654,72.774a6.894,6.894,0,1,0-.1,13.787H73.414A6.89,6.89,0,0,0,77.8,74.349c-3.644-2.511-4.53-.837-5.416-2.117a1.463,1.463,0,0,1-.246-1.182l1.231-3.594-9.552,5.17a1.363,1.363,0,0,1-.64.148Z" fill="#0cf" fill-rule="evenodd"/>
      </g>
    </g>
  </g>
</svg>
