<svg xmlns="http://www.w3.org/2000/svg" xmlns:xlink="http://www.w3.org/1999/xlink" width="121" height="121" viewBox="0 0 121 121">
  <defs>
    <clipPath id="clip-path">
      <rect id="Rectángulo_403250" data-name="Rectángulo 403250" width="84" height="84" transform="translate(408 6464)" fill="#fff" stroke="#707070" stroke-width="1"/>
    </clipPath>
    <clipPath id="clip-path-2">
      <path id="path6387" d="M0-84H84V0H0Z"/>
    </clipPath>
  </defs>
  <g id="Grupo_1102420" data-name="Grupo 1102420" transform="translate(-389 -6445)">
    <circle id="Elipse_11630" data-name="Elipse 11630" cx="60.5" cy="60.5" r="60.5" transform="translate(389 6445)" fill="#4e93ee"/>
    <g id="Enmascarar_grupo_1098840" data-name="Enmascarar grupo 1098840" clip-path="url(#clip-path)">
      <g id="g6381" transform="translate(408 6548)">
        <g id="g6383">
          <g id="g6385" clip-path="url(#clip-path-2)">
            <g id="g6391" transform="translate(49.43 -40.535)">
              <path id="path6393" d="M0,0A33.435,33.435,0,0,0-33.435,33.435H30.877a2.46,2.46,0,0,0,2.455-2.648A33.438,33.438,0,0,0,0,0" fill="#fddf30"/>
            </g>
            <g id="g6395" transform="translate(77.93 -7.1)">
              <path id="path6397" d="M0,0H2.377A2.461,2.461,0,0,0,4.832-2.648,33.438,33.438,0,0,0-28.5-33.435a33.291,33.291,0,0,0-20.555,7.063" fill="none" stroke="#000" stroke-linecap="round" stroke-linejoin="round" stroke-miterlimit="10" stroke-width="2.461"/>
            </g>
            <g id="g6399" transform="translate(20.301 -26.812)">
              <path id="path6401" d="M0,0A7.042,7.042,0,0,1-7.042-7.042,7.042,7.042,0,0,1,0-14.084,7.042,7.042,0,0,1,7.042-7.042,7.042,7.042,0,0,1,0,0M0-18.834A11.792,11.792,0,0,0-11.792-7.042,11.792,11.792,0,0,0,0,4.75,11.792,11.792,0,0,0,11.792-7.042,11.792,11.792,0,0,0,0-18.834" fill="#fef0ae"/>
            </g>
            <g id="g6403" transform="translate(20.301 -26.812)">
              <path id="path6405" d="M0,0A7.042,7.042,0,0,1-7.042-7.042,7.042,7.042,0,0,1,0-14.084,7.042,7.042,0,0,1,7.042-7.042,7.042,7.042,0,0,1,0,0ZM0-18.834A11.792,11.792,0,0,0-11.792-7.042,11.792,11.792,0,0,0,0,4.75,11.792,11.792,0,0,0,11.792-7.042,11.792,11.792,0,0,0,0-18.834Z" fill="none" stroke="#000" stroke-linecap="round" stroke-linejoin="round" stroke-miterlimit="10" stroke-width="2.461"/>
            </g>
            <g id="g6407" transform="translate(20.156 -67.842)">
              <path id="path6409" d="M0,0,9.28-3.667a.924.924,0,0,0,.52-1.2L8.374-8.474a.923.923,0,0,0-1.2-.52L-2.1-5.326a.924.924,0,0,0-.519,1.2L-1.2-.52A.924.924,0,0,0,0,0" fill="#fb8801"/>
            </g>
            <g id="g6411" transform="translate(20.156 -67.842)">
              <path id="path6413" d="M0,0,9.28-3.667a.924.924,0,0,0,.52-1.2L8.374-8.474a.923.923,0,0,0-1.2-.52L-2.1-5.326a.924.924,0,0,0-.519,1.2L-1.2-.52A.924.924,0,0,0,0,0Z" fill="none" stroke="#000" stroke-linecap="round" stroke-linejoin="round" stroke-miterlimit="10" stroke-width="2.461"/>
            </g>
            <g id="g6415" transform="translate(15.387 -19.87)">
              <path id="path6417" d="M0,0-13.572,5.363a.924.924,0,0,0-.519,1.2l1.426,3.608a.924.924,0,0,0,1.2.52L2.1,5.326a.924.924,0,0,0,.52-1.2L1.2.519A.924.924,0,0,0,0,0" fill="#017b4e"/>
            </g>
            <g id="g6419" transform="translate(16.668 -15.236)">
              <path id="path6421" d="M0,0-5.364-13.572a.924.924,0,0,0-1.2-.52l-3.608,1.426a.924.924,0,0,0-.519,1.2L-5.326,2.1a.923.923,0,0,0,1.2.52L-.52,1.2A.924.924,0,0,0,0,0" fill="#017b4e"/>
            </g>
            <g id="g6423" transform="translate(16.668 -15.236)">
              <path id="path6425" d="M0,0-5.364-13.572a.924.924,0,0,0-1.2-.52l-3.608,1.426a.924.924,0,0,0-.519,1.2L-5.326,2.1a.923.923,0,0,0,1.2.52L-.52,1.2A.924.924,0,0,0,0,0Z" fill="none" stroke="#000" stroke-linecap="round" stroke-linejoin="round" stroke-miterlimit="10" stroke-width="2.461"/>
            </g>
            <g id="g6427" transform="translate(18.376 -17.993)">
              <path id="path6429" d="M0,0-13.389-5.8a.924.924,0,0,0-1.215.48l-1.543,3.559a.923.923,0,0,0,.48,1.215l13.389,5.8a.923.923,0,0,0,1.215-.48L.48,1.215A.923.923,0,0,0,0,0" fill="#81d261"/>
            </g>
            <g id="g6431" transform="translate(18.376 -17.993)">
              <path id="path6433" d="M0,0-13.389-5.8a.924.924,0,0,0-1.215.48l-1.543,3.559a.923.923,0,0,0,.48,1.215l13.389,5.8a.923.923,0,0,0,1.215-.48L.48,1.215A.923.923,0,0,0,0,0Z" fill="none" stroke="#000" stroke-linecap="round" stroke-linejoin="round" stroke-miterlimit="10" stroke-width="2.461"/>
            </g>
            <g id="g6435" transform="translate(15.387 -19.87)">
              <path id="path6437" d="M0,0-13.572,5.363a.924.924,0,0,0-.519,1.2l1.426,3.608a.924.924,0,0,0,1.2.52L2.1,5.326a.924.924,0,0,0,.52-1.2L1.2.519A.924.924,0,0,0,0,0Z" fill="none" stroke="#000" stroke-linecap="round" stroke-linejoin="round" stroke-miterlimit="10" stroke-width="2.461"/>
            </g>
            <g id="g6439" transform="translate(48.257 -34.94)">
              <path id="path6441" d="M0,0A7.042,7.042,0,0,1-7.042-7.042,7.042,7.042,0,0,1,0-14.084,7.042,7.042,0,0,1,7.042-7.042,7.042,7.042,0,0,1,0,0M0-18.834A11.792,11.792,0,0,0-11.792-7.042,11.792,11.792,0,0,0,0,4.749,11.792,11.792,0,0,0,11.792-7.042,11.792,11.792,0,0,0,0-18.834" fill="#fef0ae"/>
            </g>
            <g id="g6443" transform="translate(48.257 -34.94)">
              <path id="path6445" d="M0,0A7.042,7.042,0,0,1-7.042-7.042,7.042,7.042,0,0,1,0-14.084,7.042,7.042,0,0,1,7.042-7.042,7.042,7.042,0,0,1,0,0ZM3.1-18.423a11.806,11.806,0,0,0-3.1-.41A11.792,11.792,0,0,0-11.792-7.042,11.792,11.792,0,0,0,0,4.749,11.792,11.792,0,0,0,11.792-7.042a11.758,11.758,0,0,0-3.611-8.492" fill="none" stroke="#000" stroke-linecap="round" stroke-linejoin="round" stroke-miterlimit="10" stroke-width="2.461"/>
            </g>
            <g id="g6447" transform="translate(64.813 -45.46)">
              <path id="path6449" d="M0,0A6.083,6.083,0,0,0-5,1.614,6.067,6.067,0,0,0-8.386-.008a6.1,6.1,0,0,0-6.853,5.23,6.1,6.1,0,0,0,5.23,6.854,6.084,6.084,0,0,0,5-1.614,6.067,6.067,0,0,0,3.386,1.622A6.1,6.1,0,0,0,5.23,6.853,6.1,6.1,0,0,0,0,0" fill="#017b4e"/>
            </g>
            <g id="g6451" transform="translate(64.813 -45.46)">
              <path id="path6453" d="M0,0A6.083,6.083,0,0,0-5,1.614,6.067,6.067,0,0,0-8.386-.008a6.1,6.1,0,0,0-6.853,5.23,6.1,6.1,0,0,0,5.23,6.854,6.084,6.084,0,0,0,5-1.614,6.067,6.067,0,0,0,3.386,1.622A6.1,6.1,0,0,0,5.23,6.853,6.1,6.1,0,0,0,0,0Z" fill="none" stroke="#000" stroke-linecap="round" stroke-linejoin="round" stroke-miterlimit="10" stroke-width="2.461"/>
            </g>
            <g id="g6455" transform="translate(56.409 -59.604)">
              <path id="path6457" d="M0,0A10.91,10.91,0,0,0,14.852.536a.734.734,0,0,0,.038-1.073L.537-14.891a.734.734,0,0,0-1.073.038A10.91,10.91,0,0,0,0,0" fill="#fd4755"/>
            </g>
            <g id="g6459" transform="translate(60.856 -58.723)">
              <path id="path6461" d="M0,0A10.911,10.911,0,0,1-1.574-13.436L-3.91-15.772a.734.734,0,0,0-1.073.038A10.91,10.91,0,0,0-4.447-.881,10.877,10.877,0,0,0,3.41,2.313,10.879,10.879,0,0,1,0,0" fill="#fb2b3a"/>
            </g>
            <g id="g6463" transform="translate(56.409 -59.604)">
              <path id="path6465" d="M0,0A10.91,10.91,0,0,0,14.852.536a.734.734,0,0,0,.038-1.073L.537-14.891a.734.734,0,0,0-1.073.038A10.91,10.91,0,0,0,0,0Z" fill="none" stroke="#000" stroke-linecap="round" stroke-linejoin="round" stroke-miterlimit="10" stroke-width="2.461"/>
            </g>
            <g id="g6467" transform="translate(59.279 -62.685)">
              <path id="path6469" d="M0,0,1.053-1.053" fill="none" stroke="#000" stroke-linecap="round" stroke-linejoin="round" stroke-miterlimit="10" stroke-width="2.461"/>
            </g>
            <g id="g6471" transform="translate(57.465 -67.362)">
              <path id="path6473" d="M0,0H1.489" fill="none" stroke="#000" stroke-linecap="round" stroke-linejoin="round" stroke-miterlimit="10" stroke-width="2.461"/>
            </g>
            <g id="g6475" transform="translate(63.868 -60.66)">
              <path id="path6477" d="M0,0V-1.489" fill="none" stroke="#000" stroke-linecap="round" stroke-linejoin="round" stroke-miterlimit="10" stroke-width="2.461"/>
            </g>
            <g id="g6479" transform="translate(66.343 -23.256)">
              <path id="path6481" d="M0,0A6.366,6.366,0,0,0,6.366,6.366,6.366,6.366,0,0,0,12.732,0,6.367,6.367,0,0,0,8.1-6.124,6.335,6.335,0,0,0,9.01-9.4a6.366,6.366,0,0,0-6.366-6.366,6.339,6.339,0,0,0-4.1,1.5A6.35,6.35,0,0,0-6.17-16.355a6.366,6.366,0,0,0-6.366,6.366A6.366,6.366,0,0,0-6.17-3.624" fill="#81d261"/>
            </g>
            <g id="g6483" transform="translate(60.173 -36.01)">
              <path id="path6485" d="M0,0A6.343,6.343,0,0,1,4.237,1.615a.824.824,0,0,0,1.014.064A6.365,6.365,0,0,1,14.92,5.151,6.364,6.364,0,0,0,4.713-1.515,6.352,6.352,0,0,0-.38-3.59,6.385,6.385,0,0,0-6.315,1.956a6.377,6.377,0,0,0,.209,2.609A6.367,6.367,0,0,1,0,0" fill="#68ca44"/>
            </g>
            <g id="g6487" transform="translate(66.343 -23.256)">
              <path id="path6489" d="M0,0A6.366,6.366,0,0,0,6.366,6.366,6.366,6.366,0,0,0,12.732,0,6.367,6.367,0,0,0,8.1-6.124,6.335,6.335,0,0,0,9.01-9.4a6.366,6.366,0,0,0-6.366-6.366,6.339,6.339,0,0,0-4.1,1.5A6.35,6.35,0,0,0-6.17-16.355a6.366,6.366,0,0,0-6.366,6.366A6.366,6.366,0,0,0-6.17-3.624a6.338,6.338,0,0,0,4.1-1.5" fill="none" stroke="#000" stroke-linecap="round" stroke-linejoin="round" stroke-miterlimit="10" stroke-width="2.461"/>
            </g>
            <g id="g6491" transform="translate(76.31 -17.167)">
              <path id="path6493" d="M0,0A4.71,4.71,0,0,1-4.711,4.71,4.71,4.71,0,0,1-9.421,0a4.71,4.71,0,0,1,4.71-4.711A4.71,4.71,0,0,1,0,0" fill="#fd9a01"/>
            </g>
            <g id="g6495" transform="translate(76.31 -17.167)">
              <path id="path6497" d="M0,0A4.71,4.71,0,0,1-4.711,4.71,4.71,4.71,0,0,1-9.421,0a4.71,4.71,0,0,1,4.71-4.711A4.71,4.71,0,0,1,0,0Z" fill="none" stroke="#000" stroke-linecap="round" stroke-linejoin="round" stroke-miterlimit="10" stroke-width="2.461"/>
            </g>
            <g id="g6499" transform="translate(78.896 -9.963)">
              <path id="path6501" d="M0,0A4.71,4.71,0,0,0-4.71-4.711,4.71,4.71,0,0,0-9.421,0,4.689,4.689,0,0,0-8.45,2.863H-.971A4.689,4.689,0,0,0,0,0" fill="#fb8801"/>
            </g>
            <g id="g6503" transform="translate(78.896 -9.963)">
              <path id="path6505" d="M0,0A4.71,4.71,0,0,0-4.71-4.711,4.71,4.71,0,0,0-9.421,0,4.689,4.689,0,0,0-8.45,2.863H-.971A4.689,4.689,0,0,0,0,0Z" fill="none" stroke="#000" stroke-linecap="round" stroke-linejoin="round" stroke-miterlimit="10" stroke-width="2.461"/>
            </g>
            <g id="g6507" transform="translate(36.7 -44.393)">
              <path id="path6509" d="M0,0A5.076,5.076,0,0,0-1.571-2.227a5.1,5.1,0,0,0-7.178.714A5.08,5.08,0,0,0-9.9,1.791a5.087,5.087,0,0,0-3.686,1.862,5.1,5.1,0,0,0,.714,7.178A5.1,5.1,0,0,0-5.7,10.117a5.078,5.078,0,0,0,1.153-3.3A5.1,5.1,0,0,0-1.887,5.9,5.1,5.1,0,1,0,0,0" fill="#81d261"/>
            </g>
            <g id="g6511" transform="translate(26.63 -39.012)">
              <path id="path6513" d="M0,0A5.081,5.081,0,0,1,3.037-1.787a.827.827,0,0,0,.68-.721A5.073,5.073,0,0,1,4.839-5.166,5.092,5.092,0,0,1,9.1-7.024a5.1,5.1,0,0,0-.6-.584,5.1,5.1,0,0,0-7.178.714A5.079,5.079,0,0,0,.168-3.59,5.089,5.089,0,0,0-3.656-1.552a5.123,5.123,0,0,0,.6,6.778A5.081,5.081,0,0,0,.111,6.594,5.1,5.1,0,0,1,0,0" fill="#68ca44"/>
            </g>
            <g id="g6515" transform="translate(36.7 -44.393)">
              <path id="path6517" d="M0,0A5.076,5.076,0,0,0-1.571-2.227a5.1,5.1,0,0,0-7.178.714A5.08,5.08,0,0,0-9.9,1.791a5.087,5.087,0,0,0-3.686,1.862,5.1,5.1,0,0,0,.714,7.178A5.1,5.1,0,0,0-5.7,10.117a5.078,5.078,0,0,0,1.153-3.3A5.1,5.1,0,0,0-1.887,5.9,5.1,5.1,0,1,0,0,0Z" fill="none" stroke="#000" stroke-linecap="round" stroke-linejoin="round" stroke-miterlimit="10" stroke-width="2.461"/>
            </g>
            <g id="g6519" transform="translate(40.283 -40.535)">
              <path id="path6521" d="M0,0A33.438,33.438,0,0,0-33.332,30.787a2.461,2.461,0,0,0,2.455,2.648H33.435A33.435,33.435,0,0,0,0,0" fill="#fed402"/>
            </g>
            <g id="g6523" transform="translate(14.117 -9.748)">
              <path id="path6525" d="M0,0A33.443,33.443,0,0,1,29.752-30.6a33.8,33.8,0,0,0-3.586-.192A33.438,33.438,0,0,0-7.166,0,2.461,2.461,0,0,0-4.711,2.648H2.455A2.46,2.46,0,0,1,0,0" fill="#fac600"/>
            </g>
            <g id="g6527" transform="translate(62.836 -31.784)">
              <path id="path6529" d="M0,0A33.315,33.315,0,0,0-22.553-8.752,33.438,33.438,0,0,0-55.885,22.036a2.461,2.461,0,0,0,2.455,2.648h10.282" fill="none" stroke="#000" stroke-linecap="round" stroke-linejoin="round" stroke-miterlimit="10" stroke-width="2.461"/>
            </g>
            <g id="g6531" transform="translate(25.594 -7.1)">
              <path id="path6533" d="M0,0H48.124A33.29,33.29,0,0,0,41.26-20.3" fill="none" stroke="#000" stroke-linecap="round" stroke-linejoin="round" stroke-miterlimit="10" stroke-width="2.461"/>
            </g>
            <g id="g6535" transform="translate(44.228 -61.565)">
              <path id="path6537" d="M0,0A.916.916,0,0,0,.435-1.144a6.8,6.8,0,0,0-2.69-3.234A6.8,6.8,0,0,0-6.331-5.421a.917.917,0,0,0-.847.884l-.277,6.886A.924.924,0,0,0-6.1,3.2Z" fill="#fd4755"/>
            </g>
            <g id="g6539" transform="translate(44.228 -61.565)">
              <path id="path6541" d="M0,0A.916.916,0,0,0,.435-1.144a6.8,6.8,0,0,0-2.69-3.234A6.8,6.8,0,0,0-6.331-5.421a.917.917,0,0,0-.847.884l-.277,6.886A.924.924,0,0,0-6.1,3.2Z" fill="none" stroke="#000" stroke-linecap="round" stroke-linejoin="round" stroke-miterlimit="10" stroke-width="2.461"/>
            </g>
            <g id="g6543" transform="translate(18.854 -57.161)">
              <path id="path6545" d="M0,0A3.325,3.325,0,0,1-3.325,3.325,3.325,3.325,0,0,1-6.65,0,3.325,3.325,0,0,1-3.325-3.325,3.325,3.325,0,0,1,0,0" fill="#fd4755"/>
            </g>
            <g id="g6547" transform="translate(18.854 -57.161)">
              <path id="path6549" d="M0,0A3.325,3.325,0,0,1-3.325,3.325,3.325,3.325,0,0,1-6.65,0,3.325,3.325,0,0,1-3.325-3.325,3.325,3.325,0,0,1,0,0Z" fill="none" stroke="#000" stroke-linecap="round" stroke-linejoin="round" stroke-miterlimit="10" stroke-width="2.461"/>
            </g>
            <g id="g6551" transform="translate(57.865 -16.863)">
              <path id="path6553" d="M0,0A3.877,3.877,0,0,0-5.486,0" fill="none" stroke="#000" stroke-linecap="round" stroke-linejoin="round" stroke-miterlimit="10" stroke-width="2.461"/>
            </g>
            <g id="g6555" transform="translate(42.404 -16.863)">
              <path id="path6557" d="M0,0A3.877,3.877,0,0,0-5.486,0" fill="none" stroke="#000" stroke-linecap="round" stroke-linejoin="round" stroke-miterlimit="10" stroke-width="2.461"/>
            </g>
            <g id="g6559" transform="translate(26.943 -16.863)">
              <path id="path6561" d="M0,0A3.877,3.877,0,0,0-5.486,0" fill="none" stroke="#000" stroke-linecap="round" stroke-linejoin="round" stroke-miterlimit="10" stroke-width="2.461"/>
            </g>
            <g id="g6563" transform="translate(52.804 -27.421)">
              <path id="path6565" d="M0,0A3.877,3.877,0,0,0-5.486,0" fill="none" stroke="#000" stroke-linecap="round" stroke-linejoin="round" stroke-miterlimit="10" stroke-width="2.461"/>
            </g>
            <g id="g6567" transform="translate(35.385 -27.421)">
              <path id="path6569" d="M0,0A3.877,3.877,0,0,0-5.486,0" fill="none" stroke="#000" stroke-linecap="round" stroke-linejoin="round" stroke-miterlimit="10" stroke-width="2.461"/>
            </g>
          </g>
        </g>
      </g>
    </g>
  </g>
</svg>
